<svg width="1920" height="818" viewBox="0 0 1920 818" fill="none" xmlns="http://www.w3.org/2000/svg">
<path fill-rule="evenodd" clip-rule="evenodd" d="M2.00313 787.983C2.00313 787.983 14.8863 783.365 22.0344 778.747C26.9982 775.543 27.0423 771.821 27.0423 771.821L110.172 774.13L293.459 787.983C293.459 787.983 298.312 785.674 298.466 781.056C298.621 776.439 294.46 773.056 296.463 769.512C298.466 765.967 314.191 767.394 316.495 774.13C318.798 780.865 334.297 791.184 337.527 792.601C340.757 794.019 348.394 794.019 350.548 792.601C352.701 791.184 355.646 787.083 362.567 781.056C369.487 775.03 400.555 786.566 403.631 787.983C410.274 789.895 416.969 790.667 423.662 790.292C428.122 789.583 434.301 780.701 437.684 781.056C441.067 781.412 445.396 782.13 447.7 785.674C450.003 789.219 470.581 789.928 470.736 785.674C470.89 781.421 462.046 780.779 463.725 776.439C465.512 771.821 498.895 776.439 506.34 778.286C515.09 780.463 561.267 792.781 563.881 794.91C566.495 797.039 593.088 800.593 596.933 799.528C600.778 798.464 618.589 799.528 621.972 794.91C625.355 790.292 624.755 778.747 629.984 778.747C635.214 778.747 673.288 792.246 676.056 792.601C678.825 792.957 713.808 797.563 714.116 792.601C714.423 787.639 708.418 789.036 710.11 783.365C711.801 777.695 720.901 787.81 724.131 790.292C727.362 792.774 739.778 787.983 743.161 787.983C746.544 787.983 767.364 789.228 773.208 790.292C779.052 791.357 783.074 799.528 785.227 799.528C787.38 799.528 796.023 787.628 801.252 787.983C806.481 788.339 819.981 794.91 822.285 790.292C824.588 785.674 805.258 776.439 805.258 776.439C805.258 776.439 790.542 766.302 790.235 760.276C789.927 754.249 800.25 751.733 800.25 746.422C800.25 741.111 777.139 729.55 778.216 730.259C781.292 732.032 759.265 736.456 760.188 727.95C761.11 719.444 769.202 716.405 769.202 716.405L787.23 721.023C787.237 720.82 803.95 727.507 808.37 729.647C812.758 731.774 810.266 722.441 812.269 721.023C817.147 717.41 822.187 715.086 827.293 714.096C833.444 713.387 845.088 716.07 844.319 725.641C843.55 735.212 841.007 735.069 841.315 741.804C841.622 748.539 853.333 754.231 855.336 751.04C857.34 747.849 851.338 744.275 855.336 737.186C859.335 730.097 876.602 746.057 877.371 741.804C878.14 737.551 851.559 728.643 850.329 718.714C849.099 708.786 859.426 711.614 862.347 714.096C865.269 716.578 894.398 718.714 894.398 718.714C894.398 718.714 903.798 723.706 904.413 732.568C905.028 741.43 900.02 744.113 899.405 739.495C898.79 734.877 906.416 748.731 906.416 748.731C906.416 748.731 906.739 746.422 914.429 746.422C922.119 746.422 920.052 746.614 919.437 753.349C918.822 760.084 903.412 769.512 903.412 769.512C903.412 769.512 880.12 767.547 867.355 762.585C854.59 757.623 830.297 764.894 830.297 764.894C830.297 764.894 838.697 766.685 839.311 774.13C839.711 777.923 839.711 781.881 839.311 785.674C839.311 785.674 866.046 801.472 866.354 797.219C866.661 792.966 863.428 790.466 864.351 787.983C865.273 785.501 913.427 787.983 913.427 787.983C913.427 787.983 918.826 800.773 921.44 801.837C924.054 802.902 921.29 784.61 923.443 785.674C925.596 786.739 938.466 787.983 938.466 787.983C938.466 787.983 939.625 799.355 941.471 801.837C943.317 804.319 961.589 811.782 966.51 811.073C971.432 810.364 976.916 802.02 979.531 804.146C982.145 806.273 1017.59 808.764 1017.59 808.764H1023.6C1023.6 808.764 994.464 793.31 987.543 792.601C980.622 791.892 979.531 783.365 979.531 783.365C979.531 783.365 1003.81 783.192 1008.58 785.674C1013.34 788.157 1036.62 794.91 1036.62 794.91L1088.7 806.455C1088.7 806.455 1105.04 808.937 1106.73 806.455C1108.42 803.973 1109.04 793.493 1112.74 794.91C1116.43 796.328 1129.77 799.528 1129.77 799.528C1129.77 799.528 1144.18 808.228 1146.79 806.455C1149.41 804.682 1147.79 797.219 1147.79 797.219C1147.79 797.219 1139.32 783.174 1139.78 776.439C1140.24 769.703 1147.8 768.63 1151.8 771.821C1155.8 775.012 1158.74 775.395 1159.81 785.674C1160.88 795.954 1161.86 795.231 1163.82 797.219C1165.78 799.207 1197.87 801.837 1197.87 801.837C1197.87 801.837 1190.48 795.963 1191.86 790.292C1193.24 784.622 1208.89 781.056 1208.89 781.056L1220.91 778.747C1220.91 778.747 1220.76 778.948 1220.48 779.311C1220.17 788.528 1204.88 799.528 1204.88 799.528C1204.88 799.528 1219.06 808.055 1222.91 808.764C1226.76 809.473 1250.5 797.402 1254.96 799.528C1259.42 801.655 1290.87 800.955 1293.02 804.146C1295.17 807.337 1322.15 813.382 1325.07 808.764C1328 804.146 1287.71 799.863 1290.02 790.292C1292.32 780.722 1320.06 778.747 1320.06 778.747C1320.06 778.747 1332.63 779.456 1337.09 778.747C1341.55 778.039 1353.49 784.982 1352.11 790.292C1350.73 795.603 1341.1 792.601 1341.1 792.601C1341.1 792.601 1330.77 783.365 1327.07 787.983C1323.38 792.601 1349.11 804.146 1349.11 804.146H1361.13C1364.66 804.146 1369.99 814.446 1372.14 813.382C1373.18 812.872 1391.8 797.046 1399.19 799.528C1406.57 802.01 1427.62 792.257 1428.23 797.219C1428.84 802.181 1425.23 811.073 1425.23 811.073L1442.25 808.764L1444.26 794.91C1444.26 794.91 1415.27 788.318 1415.21 778.747C1415.16 769.973 1442.71 780.008 1442.99 775.836C1442.99 775.836 1458.28 778.766 1458.28 787.983C1458.28 797.201 1450.88 795.506 1453.27 794.91C1455.66 794.315 1462.28 801.837 1462.28 801.837L1459.28 818L1486.32 797.219L1491.33 801.837C1491.33 801.837 1491.33 797.725 1493.33 785.674C1495.34 773.624 1516.37 797.219 1516.37 797.219C1516.37 797.219 1525.78 813.382 1536.4 813.382C1541.56 813.382 1560.68 820.653 1567.45 815.691C1574.22 810.729 1607.52 800.246 1611.52 804.146C1615.51 808.046 1622.85 813.909 1624.54 811.073C1626.23 808.238 1623.08 795.083 1625.54 792.601C1628 790.119 1643.57 790.292 1643.57 790.292C1643.57 790.292 1642.81 800.773 1645.57 801.837C1648.34 802.902 1676.62 790.292 1676.62 790.292L1656.59 787.983L1662.6 776.439C1662.6 776.439 1608.28 787.963 1609.51 778.747C1610.75 769.532 1621.53 762.585 1621.53 762.585L1665.6 760.276C1665.6 760.276 1663.84 773.238 1666.6 771.821C1669.37 770.403 1690.64 762.585 1690.64 762.585L1696.65 769.512L1694.65 757.967C1694.65 757.967 1662.07 750.493 1665.6 744.113C1669.14 737.733 1703.66 739.495 1703.66 739.495C1703.66 739.495 1765.13 779.295 1757.75 785.674C1750.37 792.054 1791.8 781.056 1791.8 781.056L1785.79 774.13C1785.79 774.13 1759.14 784.591 1759.75 776.439C1760.36 768.286 1766.38 755.658 1769.77 755.658C1773.15 755.658 1783.79 757.967 1783.79 757.967L1804.82 741.804C1804.82 741.804 1815.59 738.13 1818.84 739.495C1822.1 740.86 1837.87 762.585 1837.87 762.585C1837.87 762.585 1888.03 796.51 1861.91 781.056C1835.79 765.603 1843.88 748.731 1843.88 748.731C1841.96 746.046 1839.95 743.73 1837.87 741.804C1830.57 737.766 1818.84 739.495 1818.84 739.495L1789.8 734.877L1794.8 723.332L1743.72 721.023C1743.72 721.023 1735.53 719.961 1719.69 721.023C1703.84 722.085 1699.82 699.524 1703.66 695.625C1707.51 691.725 1744.43 717.805 1748.73 707.169C1753.04 696.534 1740.73 694.895 1744.73 686.389C1748.72 677.882 1748.99 688.515 1761.75 686.389C1774.51 684.262 1777.02 668.099 1781.78 670.226C1786.55 672.352 1793.49 673.791 1793.8 679.462C1794.11 685.133 1766.14 689.607 1764.76 700.242C1763.38 710.878 1810.83 718.714 1810.83 718.714H1839.87C1839.87 718.714 1814.07 712.131 1816.84 707.169C1819.6 702.207 1872.39 705.052 1871.92 711.787C1871.46 718.523 1865.92 734.877 1865.92 734.877C1865.92 734.877 1871.62 725.105 1877.93 723.332C1884.24 721.559 1878.3 723.129 1878.67 723.069C1878.05 722.713 1920 727.95 1920 727.95V39.4649C1920 39.4649 1895.52 67.8845 1881.94 64.6519C1868.36 61.4194 1832.86 64.6519 1832.86 64.6519C1832.86 64.6519 1791.56 69.9903 1797.81 69.2699C1804.06 68.5495 1781.73 84.7123 1785.79 85.4327C1778.14 87.2337 1767.46 69.7779 1760.75 71.5789C1754.04 73.3799 1744.73 80.8148 1744.73 80.8148H1702.66C1702.66 80.8148 1712.64 84.5091 1709.67 87.7416C1706.71 90.9742 1548.01 98.6908 1532.39 90.0506C1516.78 81.4104 1390.17 78.7366 1393.18 78.5057C1394.54 67.9999 1373.15 78.5057 1373.15 78.5057V69.2699L1377.15 64.6519L1376.45 64.4995C1377.03 62.934 1360.04 68.4525 1354.12 64.6519C1348.2 60.8513 1338.09 39.2532 1338.09 39.2532C1338.09 39.2532 1333.95 46.6281 1330.08 46.1802C1326.2 45.7322 1321.56 39.1794 1318.06 36.9443C1314.56 34.7092 1306.04 43.8712 1306.04 43.8712C1306.04 43.8712 1319.25 45.5083 1319.06 53.1071C1318.87 60.7059 1305.04 57.7251 1305.04 57.7251L1275.99 48.4891L1262.97 46.1802L1277 57.7251C1277 57.7251 1279.97 56.1572 1279 64.6519C1278.03 73.1466 1269.98 69.2699 1269.98 69.2699C1269.98 69.2699 1232.32 39.625 1225.92 43.8712C1219.52 48.1174 1156.39 29.8673 1152.8 32.3264C1149.22 34.7854 1133.16 37.8528 1132.19 33.1586C1131.22 28.4645 1115.48 45.1695 1110.34 48.0742C1108.83 48.929 1102.84 48.2824 1102.84 48.2824C1086.64 48.2824 1083.43 44.4815 1083.43 44.4815C1083.43 44.4815 995.498 8.62941 994.554 13.8546C993.61 19.0798 910.423 23.0905 910.423 23.0905C910.423 23.0905 912.994 35.4828 910.423 34.6354C907.852 33.788 898.404 20.7816 898.404 20.7816C898.404 20.7816 806.199 25.4756 811.268 16.1635C816.337 6.85143 711.936 29.8535 712.113 18.4726C712.289 7.09168 692.867 32.3264 692.867 32.3264L694.085 36.9443L703.099 30.0174L718.122 27.7084C718.122 27.7084 722.273 37.092 721.127 41.5622C719.981 46.0324 708.106 43.8712 708.106 43.8712C704.186 48.1798 701.288 41.8968 697.201 45.28C692.97 48.3278 700.421 42.3913 700.421 42.3913L638.08 51.2854C632.619 49.4683 632.619 45.28 632.619 45.28C629.27 47.1087 614.961 32.3264 614.961 32.3264L579.906 13.8546H574.898L587.919 27.7084C587.919 27.7084 591.124 32.1971 588.92 34.6354C586.717 37.0736 574.898 32.3264 574.898 32.3264C574.898 32.3264 550.572 20.3567 552.864 13.8546C555.155 7.35255 538.842 9.23663 538.842 9.23663L524.82 6.92767C524.82 6.92767 529.467 20.1164 526.823 25.3994C524.179 30.6823 508.795 11.5457 508.795 11.5457C508.795 11.5457 512.874 15.2216 506.792 18.4726C500.709 21.7236 473.74 9.23663 473.74 9.23663C473.74 9.23663 472.266 6.40811 471.737 16.1635C471.208 25.9189 422.66 18.4726 422.66 18.4726L419.656 30.0174C419.656 30.0174 426.434 22.0191 427.668 27.7084C428.013 29.2673 428.102 31.061 427.917 32.7585C427.733 34.4561 427.289 35.9429 426.667 36.9443C426.667 36.9443 415.818 29.701 412.645 39.2532C409.472 48.8054 381.701 37.0575 376.588 27.7084C371.475 18.3594 394.617 18.4726 394.617 18.4726C394.617 18.4726 359.778 3.60277 363.568 4.61871C365.194 5.05511 347.142 0.0723105 327.512 0.000732422C301.379 -0.0939354 269.421 9.23663 269.421 9.23663L201.315 6.92767C201.315 6.92767 207.909 17.3689 206.322 20.7816C204.736 24.1942 181.446 4.11534 180.282 9.23663C179.118 14.3579 166.16 5.70854 164.257 6.92767C162.354 8.14681 157.831 15.905 156.244 20.7816C154.658 25.6581 89.1393 25.3994 89.1393 25.3994C89.1393 25.3994 88.293 11.9197 89.1393 9.23663C89.9856 6.55361 82.1283 9.23663 82.1283 9.23663C82.1283 9.23663 75.8645 24.8961 73.1142 30.0174C70.3639 35.1387 37.8592 20.0657 36.0563 16.1635C34.2535 12.2614 4.00626 13.8546 4.00626 13.8546H0L2.00313 787.983ZM1317.06 781.056L1738.72 725.641Z" fill="white"/>
</svg>
