<svg width="1921" height="643" viewBox="0 0 1921 643" fill="none" xmlns="http://www.w3.org/2000/svg">
<path fill-rule="evenodd" clip-rule="evenodd" d="M-1.97058 -379.5C-1.97058 -379.5 10.9403 -374.352 18.1039 -369.203C23.0784 -365.63 23.1226 -361.48 23.1226 -361.48L106.432 -364.055L290.113 -379.5C290.113 -379.5 294.977 -376.926 295.132 -371.777C295.287 -366.629 291.117 -362.857 293.125 -358.906C295.132 -354.954 310.891 -356.545 313.199 -364.055C315.508 -371.564 331.04 -383.068 334.277 -384.649C337.514 -386.23 345.168 -386.23 347.326 -384.649C349.484 -383.068 352.435 -378.496 359.37 -371.777C366.306 -365.058 397.441 -377.92 400.523 -379.5C407.181 -381.632 413.891 -382.492 420.598 -382.075C425.067 -381.284 431.259 -371.381 434.65 -371.777C438.04 -372.174 442.379 -372.974 444.687 -376.926C446.996 -380.878 467.618 -381.668 467.773 -376.926C467.927 -372.184 459.064 -371.469 460.747 -366.629C462.538 -361.48 495.992 -366.629 503.454 -368.688C512.223 -371.116 558.499 -384.85 561.119 -387.223C563.739 -389.597 590.389 -393.559 594.242 -392.372C598.095 -391.185 615.945 -392.372 619.335 -387.223C622.726 -382.075 622.125 -369.203 627.365 -369.203C632.606 -369.203 670.762 -384.253 673.536 -384.649C676.311 -385.045 711.37 -390.181 711.678 -384.649C711.986 -379.117 705.968 -380.674 707.663 -374.352C709.358 -368.029 718.478 -379.307 721.715 -382.075C724.952 -384.842 737.395 -379.5 740.786 -379.5C744.177 -379.5 765.041 -380.888 770.898 -382.075C776.755 -383.261 780.784 -392.372 782.942 -392.372C785.1 -392.372 793.762 -379.104 799.002 -379.5C804.242 -379.897 817.772 -387.223 820.08 -382.075C822.389 -376.926 803.017 -366.629 803.017 -366.629C803.017 -366.629 788.269 -355.328 787.961 -348.609C787.653 -341.89 797.998 -339.084 797.998 -333.163C797.998 -327.242 774.837 -314.352 775.916 -315.143C778.999 -317.12 756.925 -322.052 757.849 -312.568C758.774 -303.085 766.883 -299.697 766.883 -299.697L784.95 -304.845C784.957 -304.619 801.706 -312.074 806.136 -314.461C810.533 -316.831 808.036 -306.426 810.043 -304.845C814.931 -300.817 819.982 -298.226 825.099 -297.123C831.264 -296.332 842.933 -299.324 842.162 -309.994C841.391 -320.665 838.843 -320.505 839.151 -328.014C839.459 -335.523 851.196 -341.869 853.203 -338.311C855.211 -334.754 849.196 -330.769 853.203 -322.866C857.21 -314.963 874.514 -332.756 875.285 -328.014C876.056 -323.272 849.417 -313.341 848.185 -302.271C846.952 -291.202 857.301 -294.355 860.229 -297.123C863.157 -299.89 892.348 -302.271 892.348 -302.271C892.348 -302.271 901.769 -307.837 902.386 -317.717C903.002 -327.597 897.983 -330.589 897.367 -325.44C896.751 -320.291 904.393 -335.737 904.393 -335.737C904.393 -335.737 904.716 -333.163 912.423 -333.163C920.13 -333.163 918.058 -333.377 917.442 -340.886C916.825 -348.395 901.382 -358.906 901.382 -358.906C901.382 -358.906 878.04 -356.715 865.248 -351.183C852.455 -345.651 828.11 -353.757 828.11 -353.757C828.11 -353.757 836.527 -355.755 837.144 -364.055C837.544 -368.283 837.544 -372.697 837.144 -376.926C837.144 -376.926 863.936 -394.539 864.244 -389.798C864.552 -385.056 861.312 -382.268 862.237 -379.5C863.161 -376.733 911.419 -379.5 911.419 -379.5C911.419 -379.5 916.829 -393.759 919.449 -394.946C922.069 -396.133 919.299 -375.739 921.457 -376.926C923.615 -378.113 936.512 -379.5 936.512 -379.5C936.512 -379.5 937.674 -392.179 939.524 -394.946C941.373 -397.714 959.684 -406.034 964.617 -405.243C969.549 -404.453 975.045 -395.15 977.665 -397.52C980.285 -399.891 1015.81 -402.669 1015.81 -402.669H1021.83C1021.83 -402.669 992.631 -385.439 985.695 -384.649C978.759 -383.859 977.665 -374.352 977.665 -374.352C977.665 -374.352 1002 -374.159 1006.77 -376.926C1011.55 -379.693 1034.88 -387.223 1034.88 -387.223L1087.07 -400.095C1087.07 -400.095 1103.44 -402.862 1105.14 -400.095C1106.83 -397.327 1107.46 -385.643 1111.16 -387.223C1114.86 -388.804 1128.22 -392.372 1128.22 -392.372C1128.22 -392.372 1142.67 -402.072 1145.29 -400.095C1147.91 -398.118 1146.29 -389.798 1146.29 -389.798C1146.29 -389.798 1137.8 -374.138 1138.26 -366.629C1138.72 -359.12 1146.3 -357.923 1150.31 -361.48C1154.31 -365.038 1157.26 -365.465 1158.34 -376.926C1159.41 -388.387 1160.38 -387.581 1162.35 -389.798C1164.32 -392.014 1196.48 -394.946 1196.48 -394.946C1196.48 -394.946 1189.07 -388.397 1190.45 -382.075C1191.84 -375.752 1207.52 -371.777 1207.52 -371.777L1219.56 -369.203C1219.56 -369.203 1219.41 -369.427 1219.13 -369.831C1218.82 -380.108 1203.5 -392.372 1203.5 -392.372C1203.5 -392.372 1217.72 -401.879 1221.57 -402.669C1225.42 -403.459 1249.22 -390.001 1253.69 -392.372C1258.16 -394.743 1289.67 -393.963 1291.83 -397.52C1293.99 -401.078 1321.02 -407.818 1323.95 -402.669C1326.88 -397.52 1286.51 -392.745 1288.82 -382.075C1291.13 -371.404 1318.93 -369.203 1318.93 -369.203C1318.93 -369.203 1331.53 -369.993 1335.99 -369.203C1340.46 -368.413 1352.44 -376.154 1351.05 -382.075C1349.67 -387.996 1340.01 -384.649 1340.01 -384.649C1340.01 -384.649 1329.66 -374.352 1325.96 -379.5C1322.25 -384.649 1348.04 -397.52 1348.04 -397.52H1360.08C1363.63 -397.52 1368.97 -409.004 1371.13 -407.818C1372.16 -407.249 1390.83 -389.604 1398.23 -392.372C1405.62 -395.139 1426.72 -384.265 1427.33 -389.798C1427.95 -395.33 1424.32 -405.243 1424.32 -405.243L1441.39 -402.669L1443.39 -387.223C1443.39 -387.223 1414.35 -379.874 1414.29 -369.203C1414.24 -359.421 1441.85 -370.609 1442.13 -365.957C1442.13 -365.957 1457.45 -369.224 1457.45 -379.5C1457.45 -389.777 1450.03 -387.887 1452.43 -387.223C1454.83 -386.559 1461.46 -394.946 1461.46 -394.946L1458.45 -412.966L1485.55 -389.798L1490.57 -394.946C1490.57 -394.946 1490.57 -390.361 1492.58 -376.926C1494.58 -363.491 1515.66 -389.798 1515.66 -389.798C1515.66 -389.798 1525.1 -407.818 1535.74 -407.818C1540.91 -407.818 1560.07 -415.924 1566.85 -410.392C1573.64 -404.86 1607.01 -393.172 1611.02 -397.52C1615.02 -401.868 1622.37 -408.405 1624.06 -405.243C1625.76 -402.082 1622.6 -387.416 1625.07 -384.649C1627.54 -381.882 1643.13 -382.075 1643.13 -382.075C1643.13 -382.075 1642.37 -393.759 1645.14 -394.946C1647.91 -396.133 1676.26 -382.075 1676.26 -382.075L1656.18 -379.5L1662.21 -366.629C1662.21 -366.629 1607.77 -379.477 1609.01 -369.203C1610.24 -358.929 1621.05 -351.183 1621.05 -351.183L1665.22 -348.609C1665.22 -348.609 1663.45 -363.061 1666.22 -361.48C1668.99 -359.9 1690.31 -351.183 1690.31 -351.183L1696.33 -358.906L1694.32 -346.034C1694.32 -346.034 1661.67 -337.701 1665.22 -330.589C1668.76 -323.476 1703.36 -325.44 1703.36 -325.44C1703.36 -325.44 1764.96 -369.813 1757.56 -376.926C1750.16 -384.039 1791.69 -371.777 1791.69 -371.777L1785.66 -364.055C1785.66 -364.055 1758.95 -375.719 1759.57 -366.629C1760.18 -357.539 1766.21 -343.46 1769.6 -343.46C1773 -343.46 1783.66 -346.034 1783.66 -346.034L1804.73 -328.014C1804.73 -328.014 1815.52 -323.919 1818.79 -325.44C1822.05 -326.961 1837.86 -351.183 1837.86 -351.183C1837.86 -351.183 1888.12 -389.007 1861.95 -371.777C1835.77 -354.548 1843.88 -335.737 1843.88 -335.737C1841.96 -332.744 1839.94 -330.161 1837.86 -328.014C1830.54 -323.512 1818.79 -325.44 1818.79 -325.44L1789.68 -320.291L1794.7 -307.42L1743.51 -304.845C1743.51 -304.845 1735.3 -303.661 1719.42 -304.845C1703.54 -306.03 1699.5 -280.876 1703.36 -276.528C1707.21 -272.18 1744.21 -301.257 1748.53 -289.4C1752.84 -277.542 1740.51 -275.715 1744.51 -266.231C1748.52 -256.747 1748.79 -268.602 1761.57 -266.231C1774.36 -263.86 1776.87 -245.84 1781.65 -248.211C1786.43 -250.582 1793.38 -252.186 1793.69 -258.508C1794 -264.83 1765.97 -269.819 1764.59 -281.677C1763.2 -293.534 1810.76 -302.271 1810.76 -302.271H1839.86C1839.86 -302.271 1814.01 -294.932 1816.78 -289.4C1819.55 -283.867 1872.45 -287.039 1871.98 -294.548C1871.52 -302.058 1865.96 -320.291 1865.96 -320.291C1865.96 -320.291 1871.68 -309.397 1878.01 -307.42C1884.33 -305.443 1878.38 -307.193 1878.74 -307.126C1878.13 -306.73 1920.16 -312.568 1920.16 -312.568V455.034C1920.16 455.034 1895.63 423.348 1882.02 426.952C1868.41 430.556 1832.84 426.952 1832.84 426.952C1832.84 426.952 1791.45 421.001 1797.71 421.804C1803.97 422.607 1781.6 404.587 1785.66 403.784C1778 401.776 1767.3 421.237 1760.57 419.229C1753.85 417.221 1744.51 408.932 1744.51 408.932H1702.35C1702.35 408.932 1712.35 404.813 1709.38 401.209C1706.41 397.605 1547.37 389.002 1531.72 398.635C1516.07 408.268 1389.19 411.249 1392.2 411.507C1393.57 423.22 1372.13 411.507 1372.13 411.507V421.804L1376.14 426.952L1375.44 427.122C1376.02 428.868 1358.99 422.715 1353.06 426.952C1347.13 431.19 1337 455.27 1337 455.27C1337 455.27 1332.85 447.047 1328.97 447.547C1325.08 448.046 1320.43 455.352 1316.92 457.844C1313.42 460.336 1304.88 450.121 1304.88 450.121C1304.88 450.121 1318.12 448.296 1317.93 439.824C1317.74 431.352 1303.88 434.675 1303.88 434.675L1274.77 444.972L1261.72 447.547L1275.77 434.675C1275.77 434.675 1278.75 436.423 1277.78 426.952C1276.81 417.482 1268.75 421.804 1268.75 421.804C1268.75 421.804 1231 454.855 1224.58 450.121C1218.17 445.387 1154.9 465.734 1151.31 462.993C1147.72 460.251 1114.14 478.353 1113.17 483.587C1112.19 488.821 1107.28 473.954 1102.13 470.716C1096.98 467.477 1088.07 475.864 1088.07 475.864C1088.07 475.864 993.667 489.413 992.721 483.587C991.774 477.761 908.408 473.29 908.408 473.29C908.408 473.29 910.985 459.473 908.408 460.418C905.832 461.363 896.363 475.864 896.363 475.864C896.363 475.864 803.959 470.631 809.039 481.013C814.119 491.395 709.494 465.75 709.67 478.438C709.847 491.127 677.551 462.993 677.551 462.993L691.603 457.844L700.637 465.567L715.693 468.141C715.693 468.141 737.226 489.551 736.078 484.567C734.93 479.583 723.762 482.332 723.762 482.332C719.834 477.529 702.46 482.21 698.364 478.438C694.124 475.04 687.91 471.338 687.91 471.338C687.91 471.338 642.811 452.618 639.791 464.234C638.202 470.35 638.406 465.567 638.406 465.567C638.406 465.567 638.727 457.988 637.402 455.27C636.077 452.551 629.372 465.567 629.372 465.567C629.372 465.567 629.718 459.883 626.361 457.844C623.005 455.805 612.309 462.993 612.309 462.993L577.179 483.587H572.16L585.209 468.141C585.209 468.141 588.421 463.137 586.212 460.418C584.004 457.7 572.16 462.993 572.16 462.993C572.16 462.993 547.782 476.338 550.078 483.587C552.375 490.836 536.026 488.736 536.026 488.736L521.974 491.31C521.974 491.31 526.631 476.606 523.981 470.716C521.332 464.826 505.914 486.161 505.914 486.161C505.914 486.161 510.002 482.063 503.907 478.438C497.811 474.814 470.784 488.736 470.784 488.736C470.784 488.736 469.306 491.889 468.777 481.013C468.247 470.136 419.594 478.438 419.594 478.438L416.583 465.567C416.583 465.567 423.376 474.484 424.613 468.141C424.958 466.403 425.047 464.403 424.862 462.511C424.678 460.618 424.233 458.961 423.609 457.844C423.609 457.844 412.736 465.92 409.557 455.27C406.377 444.62 378.547 457.718 373.423 468.141C368.299 478.565 391.49 478.438 391.49 478.438C391.49 478.438 356.576 495.017 360.374 493.884C362.003 493.398 343.913 498.953 324.24 499.033C298.051 499.138 266.024 488.736 266.024 488.736L197.771 491.31C197.771 491.31 204.379 479.669 202.789 475.864C201.199 472.059 177.859 494.445 176.692 488.736C175.526 483.026 162.54 492.669 160.633 491.31C158.726 489.951 154.193 481.301 152.603 475.864C151.013 470.427 85.3535 470.716 85.3535 470.716C85.3535 470.716 84.5054 485.744 85.3535 488.736C86.2017 491.727 78.3274 488.736 78.3274 488.736C78.3274 488.736 72.0501 471.277 69.2939 465.567C66.5377 459.857 33.9628 476.662 32.1561 481.013C30.3494 485.363 0.0368729 483.587 0.0368729 483.587H-3.97803L-1.97058 -379.5ZM1315.92 -371.777L1738.49 -309.994L1315.92 -371.777Z" fill="#50D1FE"/>
<g opacity="0.2">
<mask id="mask0" mask-type="alpha" maskUnits="userSpaceOnUse" x="902" y="211" width="426" height="426">
<path d="M982.822 343.941C1017.32 274.871 1256.77 313.336 1289.77 350.086C1322.78 386.836 1196.66 636.021 1130.98 612.842C1065.29 589.664 948.324 413.01 982.822 343.941Z" fill="white"/>
</mask>
<g mask="url(#mask0)">
<path d="M1139.14 411.512C1142.88 413.583 1144.24 418.293 1142.16 422.032C1140.09 425.771 1135.38 427.123 1131.64 425.052C1127.91 422.981 1126.55 418.271 1128.62 414.532C1130.7 410.793 1135.41 409.441 1139.14 411.512Z" fill="white"/>
<path d="M1155.64 381.725C1159.38 383.796 1160.73 388.506 1158.66 392.245C1156.59 395.984 1151.88 397.336 1148.14 395.265C1144.4 393.194 1143.05 388.484 1145.12 384.745C1147.19 381.007 1151.9 379.654 1155.64 381.725Z" fill="white"/>
<path d="M1172.14 351.938C1175.88 354.009 1177.23 358.719 1175.16 362.458C1173.09 366.197 1168.38 367.549 1164.64 365.478C1160.9 363.407 1159.55 358.697 1161.62 354.958C1163.69 351.22 1168.4 349.867 1172.14 351.938Z" fill="white"/>
<path d="M1188.64 322.151C1192.38 324.222 1193.73 328.932 1191.66 332.671C1189.59 336.41 1184.88 337.762 1181.14 335.691C1177.4 333.62 1176.05 328.91 1178.12 325.171C1180.19 321.433 1184.9 320.081 1188.64 322.151Z" fill="white"/>
<path d="M1205.14 292.364C1208.88 294.435 1210.23 299.145 1208.16 302.884C1206.09 306.623 1201.38 307.975 1197.64 305.904C1193.9 303.833 1192.55 299.123 1194.62 295.384C1196.69 291.646 1201.4 290.294 1205.14 292.364Z" fill="white"/>
<path d="M1168.93 428.011C1172.67 430.082 1174.02 434.792 1171.95 438.531C1169.88 442.27 1165.17 443.622 1161.43 441.551C1157.69 439.48 1156.34 434.77 1158.41 431.031C1160.48 427.293 1165.19 425.94 1168.93 428.011Z" fill="white"/>
<path d="M1185.43 398.224C1189.17 400.295 1190.52 405.005 1188.45 408.744C1186.38 412.483 1181.67 413.835 1177.93 411.764C1174.19 409.693 1172.84 404.983 1174.91 401.244C1176.98 397.506 1181.69 396.153 1185.43 398.224Z" fill="white"/>
<path d="M1201.93 368.437C1205.67 370.508 1207.02 375.218 1204.95 378.957C1202.88 382.696 1198.17 384.048 1194.43 381.977C1190.69 379.906 1189.34 375.196 1191.41 371.457C1193.48 367.719 1198.19 366.367 1201.93 368.437Z" fill="white"/>
<path d="M1218.43 338.651C1222.17 340.721 1223.52 345.431 1221.45 349.17C1219.38 352.909 1214.67 354.261 1210.93 352.19C1207.19 350.119 1205.84 345.409 1207.91 341.67C1209.98 337.932 1214.69 336.58 1218.43 338.651Z" fill="white"/>
<path d="M1234.93 308.864C1238.67 310.934 1240.02 315.644 1237.95 319.383C1235.88 323.122 1231.17 324.474 1227.43 322.403C1223.69 320.332 1222.34 315.622 1224.41 311.884C1226.48 308.145 1231.19 306.793 1234.93 308.864Z" fill="white"/>
<path d="M1198.72 444.51C1202.46 446.581 1203.81 451.291 1201.74 455.03C1199.67 458.769 1194.96 460.121 1191.22 458.05C1187.48 455.979 1186.13 451.269 1188.2 447.53C1190.27 443.792 1194.98 442.44 1198.72 444.51Z" fill="white"/>
<path d="M1215.22 414.723C1218.96 416.794 1220.31 421.504 1218.24 425.243C1216.17 428.982 1211.46 430.334 1207.72 428.263C1203.98 426.192 1202.63 421.482 1204.7 417.743C1206.77 414.005 1211.48 412.653 1215.22 414.723Z" fill="white"/>
<path d="M1231.72 384.937C1235.46 387.007 1236.81 391.717 1234.74 395.456C1232.67 399.195 1227.96 400.547 1224.22 398.476C1220.48 396.405 1219.13 391.695 1221.2 387.956C1223.27 384.218 1227.98 382.866 1231.72 384.937Z" fill="white"/>
<path d="M1248.22 355.15C1251.95 357.221 1253.31 361.93 1251.24 365.669C1249.16 369.408 1244.45 370.76 1240.72 368.689C1236.98 366.618 1235.62 361.908 1237.7 358.17C1239.77 354.431 1244.48 353.079 1248.22 355.15Z" fill="white"/>
<path d="M1264.71 325.363C1268.45 327.434 1269.81 332.143 1267.73 335.882C1265.66 339.621 1260.95 340.973 1257.21 338.902C1253.48 336.831 1252.12 332.121 1254.19 328.383C1256.27 324.644 1260.98 323.292 1264.71 325.363Z" fill="white"/>
<path d="M1228.51 461.01C1232.24 463.08 1233.6 467.79 1231.53 471.529C1229.45 475.268 1224.74 476.62 1221.01 474.549C1217.27 472.478 1215.91 467.768 1217.99 464.029C1220.06 460.291 1224.77 458.939 1228.51 461.01Z" fill="white"/>
<path d="M1245 431.223C1248.74 433.293 1250.1 438.003 1248.02 441.742C1245.95 445.481 1241.24 446.833 1237.5 444.762C1233.77 442.691 1232.41 437.981 1234.48 434.243C1236.56 430.504 1241.27 429.152 1245 431.223Z" fill="white"/>
<path d="M1261.5 401.436C1265.24 403.507 1266.59 408.216 1264.52 411.955C1262.45 415.694 1257.74 417.046 1254 414.975C1250.26 412.904 1248.91 408.194 1250.98 404.456C1253.05 400.717 1257.76 399.365 1261.5 401.436Z" fill="white"/>
<path d="M1278 371.649C1281.74 373.72 1283.09 378.429 1281.02 382.168C1278.95 385.907 1274.24 387.259 1270.5 385.188C1266.76 383.117 1265.41 378.407 1267.48 374.669C1269.55 370.93 1274.26 369.578 1278 371.649Z" fill="white"/>
<path d="M1294.5 341.862C1298.24 343.933 1299.59 348.642 1297.52 352.381C1295.45 356.12 1290.74 357.472 1287 355.401C1283.26 353.33 1281.91 348.62 1283.98 344.882C1286.05 341.143 1290.76 339.791 1294.5 341.862Z" fill="white"/>
<path d="M1258.29 477.509C1262.03 479.579 1263.38 484.289 1261.31 488.028C1259.24 491.767 1254.53 493.119 1250.79 491.048C1247.05 488.977 1245.7 484.267 1247.77 480.529C1249.84 476.79 1254.55 475.438 1258.29 477.509Z" fill="white"/>
<path d="M1274.79 447.722C1278.53 449.792 1279.88 454.502 1277.81 458.241C1275.74 461.98 1271.03 463.332 1267.29 461.261C1263.55 459.19 1262.2 454.48 1264.27 450.742C1266.34 447.003 1271.05 445.651 1274.79 447.722Z" fill="white"/>
<path d="M1291.29 417.935C1295.03 420.006 1296.38 424.715 1294.31 428.454C1292.24 432.193 1287.53 433.545 1283.79 431.474C1280.05 429.403 1278.7 424.693 1280.77 420.955C1282.84 417.216 1287.55 415.864 1291.29 417.935Z" fill="white"/>
<path d="M1307.79 388.148C1311.53 390.219 1312.88 394.928 1310.81 398.667C1308.74 402.406 1304.03 403.758 1300.29 401.687C1296.55 399.616 1295.2 394.906 1297.27 391.168C1299.34 387.429 1304.05 386.077 1307.79 388.148Z" fill="white"/>
<path d="M1324.29 358.361C1328.03 360.432 1329.38 365.141 1327.31 368.88C1325.24 372.619 1320.53 373.971 1316.79 371.9C1313.05 369.829 1311.7 365.119 1313.77 361.381C1315.84 357.642 1320.55 356.29 1324.29 358.361Z" fill="white"/>
<path d="M1058.92 556.354C1062.66 558.425 1064.01 563.135 1061.94 566.874C1059.87 570.613 1055.16 571.965 1051.42 569.894C1047.68 567.823 1046.33 563.113 1048.4 559.374C1050.47 555.635 1055.18 554.283 1058.92 556.354Z" fill="white"/>
<path d="M1075.42 526.567C1079.15 528.638 1080.51 533.348 1078.44 537.087C1076.36 540.826 1071.65 542.178 1067.92 540.107C1064.18 538.036 1062.82 533.326 1064.9 529.587C1066.97 525.848 1071.68 524.496 1075.42 526.567Z" fill="white"/>
<path d="M1091.91 496.78C1095.65 498.851 1097.01 503.561 1094.93 507.3C1092.86 511.039 1088.15 512.391 1084.41 510.32C1080.68 508.249 1079.32 503.539 1081.39 499.8C1083.47 496.061 1088.18 494.709 1091.91 496.78Z" fill="white"/>
<path d="M1108.41 466.993C1112.15 469.064 1113.5 473.774 1111.43 477.513C1109.36 481.252 1104.65 482.604 1100.91 480.533C1097.17 478.462 1095.82 473.752 1097.89 470.013C1099.96 466.274 1104.67 464.922 1108.41 466.993Z" fill="white"/>
<path d="M1124.91 437.206C1128.65 439.277 1130 443.987 1127.93 447.726C1125.86 451.465 1121.15 452.817 1117.41 450.746C1113.67 448.675 1112.32 443.965 1114.39 440.226C1116.46 436.488 1121.17 435.135 1124.91 437.206Z" fill="white"/>
<path d="M1088.7 572.853C1092.44 574.924 1093.79 579.634 1091.72 583.373C1089.65 587.112 1084.94 588.464 1081.2 586.393C1077.46 584.322 1076.11 579.612 1078.18 575.873C1080.25 572.134 1084.96 570.782 1088.7 572.853Z" fill="white"/>
<path d="M1105.2 543.066C1108.94 545.137 1110.29 549.847 1108.22 553.586C1106.15 557.325 1101.44 558.677 1097.7 556.606C1093.96 554.535 1092.61 549.825 1094.68 546.086C1096.75 542.347 1101.46 540.995 1105.2 543.066Z" fill="white"/>
<path d="M1121.7 513.279C1125.44 515.35 1126.79 520.06 1124.72 523.799C1122.65 527.538 1117.94 528.89 1114.2 526.819C1110.46 524.748 1109.11 520.038 1111.18 516.299C1113.25 512.561 1117.96 511.208 1121.7 513.279Z" fill="white"/>
<path d="M1138.2 483.492C1141.94 485.563 1143.29 490.273 1141.22 494.012C1139.15 497.751 1134.44 499.103 1130.7 497.032C1126.96 494.961 1125.61 490.251 1127.68 486.512C1129.75 482.774 1134.46 481.421 1138.2 483.492Z" fill="white"/>
<path d="M1154.7 453.705C1158.44 455.776 1159.79 460.486 1157.72 464.225C1155.65 467.964 1150.94 469.316 1147.2 467.245C1143.46 465.174 1142.11 460.464 1144.18 456.725C1146.25 452.987 1150.96 451.634 1154.7 453.705Z" fill="white"/>
<path d="M1118.49 589.352C1122.23 591.423 1123.58 596.133 1121.51 599.872C1119.44 603.611 1114.73 604.963 1110.99 602.892C1107.25 600.821 1105.9 596.111 1107.97 592.372C1110.04 588.633 1114.75 587.281 1118.49 589.352Z" fill="white"/>
<path d="M1134.99 559.565C1138.73 561.636 1140.08 566.346 1138.01 570.085C1135.94 573.824 1131.23 575.176 1127.49 573.105C1123.75 571.034 1122.4 566.324 1124.47 562.585C1126.54 558.847 1131.25 557.494 1134.99 559.565Z" fill="white"/>
<path d="M1151.49 529.778C1155.23 531.849 1156.58 536.559 1154.51 540.298C1152.44 544.037 1147.73 545.389 1143.99 543.318C1140.25 541.247 1138.9 536.537 1140.97 532.798C1143.04 529.06 1147.75 527.707 1151.49 529.778Z" fill="white"/>
<path d="M1167.99 499.991C1171.73 502.062 1173.08 506.772 1171.01 510.511C1168.94 514.25 1164.23 515.602 1160.49 513.531C1156.75 511.46 1155.4 506.75 1157.47 503.011C1159.54 499.273 1164.25 497.921 1167.99 499.991Z" fill="white"/>
<path d="M1184.49 470.205C1188.23 472.275 1189.58 476.985 1187.51 480.724C1185.44 484.463 1180.73 485.815 1176.99 483.744C1173.25 481.673 1171.9 476.963 1173.97 473.224C1176.04 469.486 1180.75 468.134 1184.49 470.205Z" fill="white"/>
<path d="M1148.28 605.851C1152.02 607.922 1153.37 612.632 1151.3 616.371C1149.23 620.11 1144.52 621.462 1140.78 619.391C1137.04 617.32 1135.69 612.61 1137.76 608.871C1139.83 605.133 1144.54 603.78 1148.28 605.851Z" fill="white"/>
<path d="M1164.78 576.064C1168.51 578.135 1169.87 582.845 1167.8 586.584C1165.73 590.323 1161.02 591.675 1157.28 589.604C1153.54 587.533 1152.19 582.823 1154.26 579.084C1156.33 575.346 1161.04 573.993 1164.78 576.064Z" fill="white"/>
<path d="M1181.28 546.277C1185.01 548.348 1186.37 553.058 1184.3 556.797C1182.22 560.536 1177.51 561.888 1173.78 559.817C1170.04 557.746 1168.68 553.036 1170.76 549.297C1172.83 545.559 1177.54 544.207 1181.28 546.277Z" fill="white"/>
<path d="M1197.77 516.49C1201.51 518.561 1202.87 523.271 1200.79 527.01C1198.72 530.749 1194.01 532.101 1190.27 530.03C1186.54 527.959 1185.18 523.249 1187.25 519.51C1189.33 515.772 1194.04 514.42 1197.77 516.49Z" fill="white"/>
<path d="M1214.27 486.704C1218.01 488.774 1219.36 493.484 1217.29 497.223C1215.22 500.962 1210.51 502.314 1206.77 500.243C1203.03 498.172 1201.68 493.462 1203.75 489.724C1205.82 485.985 1210.53 484.633 1214.27 486.704Z" fill="white"/>
<path d="M1178.06 622.35C1181.8 624.421 1183.15 629.131 1181.08 632.87C1179.01 636.609 1174.3 637.961 1170.56 635.89C1166.83 633.819 1165.47 629.109 1167.54 625.37C1169.62 621.632 1174.33 620.279 1178.06 622.35Z" fill="white"/>
<path d="M1194.56 592.563C1198.3 594.634 1199.65 599.344 1197.58 603.083C1195.51 606.822 1190.8 608.174 1187.06 606.103C1183.32 604.032 1181.97 599.322 1184.04 595.583C1186.11 591.845 1190.82 590.492 1194.56 592.563Z" fill="white"/>
<path d="M1211.06 562.776C1214.8 564.847 1216.15 569.557 1214.08 573.296C1212.01 577.035 1207.3 578.387 1203.56 576.316C1199.82 574.245 1198.47 569.535 1200.54 565.796C1202.61 562.058 1207.32 560.706 1211.06 562.776Z" fill="white"/>
<path d="M1227.56 532.989C1231.3 535.06 1232.65 539.77 1230.58 543.509C1228.51 547.248 1223.8 548.6 1220.06 546.529C1216.32 544.458 1214.97 539.748 1217.04 536.009C1219.11 532.271 1223.82 530.919 1227.56 532.989Z" fill="white"/>
<path d="M1244.06 503.203C1247.8 505.273 1249.15 509.983 1247.08 513.722C1245.01 517.461 1240.3 518.813 1236.56 516.742C1232.82 514.671 1231.47 509.961 1233.54 506.223C1235.61 502.484 1240.32 501.132 1244.06 503.203Z" fill="white"/>
<path d="M994.302 331.284C998.041 333.355 999.393 338.065 997.322 341.804C995.251 345.543 990.542 346.895 986.803 344.824C983.064 342.753 981.712 338.043 983.783 334.304C985.854 330.565 990.564 329.213 994.302 331.284Z" fill="white"/>
<path d="M1010.8 301.497C1014.54 303.568 1015.89 308.278 1013.82 312.017C1011.75 315.756 1007.04 317.108 1003.3 315.037C999.563 312.966 998.211 308.256 1000.28 304.517C1002.35 300.778 1007.06 299.426 1010.8 301.497Z" fill="white"/>
<path d="M1027.3 271.71C1031.04 273.781 1032.39 278.491 1030.32 282.23C1028.25 285.969 1023.54 287.321 1019.8 285.25C1016.06 283.179 1014.71 278.469 1016.78 274.73C1018.85 270.991 1023.56 269.639 1027.3 271.71Z" fill="white"/>
<path d="M1043.8 241.923C1047.54 243.994 1048.89 248.704 1046.82 252.443C1044.75 256.182 1040.04 257.534 1036.3 255.463C1032.56 253.392 1031.21 248.682 1033.28 244.943C1035.35 241.204 1040.06 239.852 1043.8 241.923Z" fill="white"/>
<path d="M1060.3 212.136C1064.04 214.207 1065.39 218.917 1063.32 222.656C1061.25 226.395 1056.54 227.747 1052.8 225.676C1049.06 223.605 1047.71 218.895 1049.78 215.156C1051.85 211.417 1056.56 210.065 1060.3 212.136Z" fill="white"/>
<path d="M1024.09 347.783C1027.83 349.854 1029.18 354.564 1027.11 358.303C1025.04 362.042 1020.33 363.394 1016.59 361.323C1012.85 359.252 1011.5 354.542 1013.57 350.803C1015.64 347.064 1020.35 345.712 1024.09 347.783Z" fill="white"/>
<path d="M1040.59 317.996C1044.33 320.067 1045.68 324.777 1043.61 328.516C1041.54 332.255 1036.83 333.607 1033.09 331.536C1029.35 329.465 1028 324.755 1030.07 321.016C1032.14 317.277 1036.85 315.925 1040.59 317.996Z" fill="white"/>
<path d="M1057.09 288.209C1060.83 290.28 1062.18 294.99 1060.11 298.729C1058.04 302.468 1053.33 303.82 1049.59 301.749C1045.85 299.678 1044.5 294.968 1046.57 291.229C1048.64 287.49 1053.35 286.138 1057.09 288.209Z" fill="white"/>
<path d="M1073.59 258.422C1077.33 260.493 1078.68 265.203 1076.61 268.942C1074.54 272.681 1069.83 274.033 1066.09 271.962C1062.35 269.891 1061 265.181 1063.07 261.442C1065.14 257.703 1069.85 256.351 1073.59 258.422Z" fill="white"/>
<path d="M1090.09 228.635C1093.82 230.706 1095.18 235.416 1093.11 239.155C1091.03 242.894 1086.32 244.246 1082.59 242.175C1078.85 240.104 1077.5 235.394 1079.57 231.655C1081.64 227.917 1086.35 226.564 1090.09 228.635Z" fill="white"/>
<path d="M1053.88 364.282C1057.62 366.353 1058.97 371.063 1056.9 374.802C1054.83 378.541 1050.12 379.893 1046.38 377.822C1042.64 375.751 1041.29 371.041 1043.36 367.302C1045.43 363.563 1050.14 362.211 1053.88 364.282Z" fill="white"/>
<path d="M1070.38 334.495C1074.11 336.566 1075.47 341.276 1073.4 345.015C1071.32 348.754 1066.61 350.106 1062.88 348.035C1059.14 345.964 1057.78 341.254 1059.86 337.515C1061.93 333.776 1066.64 332.424 1070.38 334.495Z" fill="white"/>
<path d="M1086.87 304.708C1090.61 306.779 1091.97 311.489 1089.89 315.228C1087.82 318.967 1083.11 320.319 1079.37 318.248C1075.64 316.177 1074.28 311.467 1076.35 307.728C1078.43 303.989 1083.14 302.637 1086.87 304.708Z" fill="white"/>
<path d="M1103.37 274.921C1107.11 276.992 1108.46 281.702 1106.39 285.441C1104.32 289.18 1099.61 290.532 1095.87 288.461C1092.14 286.39 1090.78 281.68 1092.85 277.941C1094.92 274.203 1099.63 272.85 1103.37 274.921Z" fill="white"/>
<path d="M1119.87 245.134C1123.61 247.205 1124.96 251.915 1122.89 255.654C1120.82 259.393 1116.11 260.745 1112.37 258.674C1108.63 256.603 1107.28 251.893 1109.35 248.154C1111.42 244.416 1116.13 243.063 1119.87 245.134Z" fill="white"/>
<path d="M1083.66 380.781C1087.4 382.852 1088.75 387.562 1086.68 391.301C1084.61 395.04 1079.9 396.392 1076.16 394.321C1072.42 392.25 1071.07 387.54 1073.14 383.801C1075.21 380.062 1079.92 378.71 1083.66 380.781Z" fill="white"/>
<path d="M1100.16 350.994C1103.9 353.065 1105.25 357.775 1103.18 361.514C1101.11 365.253 1096.4 366.605 1092.66 364.534C1088.92 362.463 1087.57 357.753 1089.64 354.014C1091.71 350.276 1096.42 348.923 1100.16 350.994Z" fill="white"/>
<path d="M1116.66 321.207C1120.4 323.278 1121.75 327.988 1119.68 331.727C1117.61 335.466 1112.9 336.818 1109.16 334.747C1105.42 332.676 1104.07 327.966 1106.14 324.227C1108.21 320.489 1112.92 319.136 1116.66 321.207Z" fill="white"/>
<path d="M1133.16 291.42C1136.9 293.491 1138.25 298.201 1136.18 301.94C1134.11 305.679 1129.4 307.031 1125.66 304.96C1121.92 302.889 1120.57 298.179 1122.64 294.44C1124.71 290.702 1129.42 289.35 1133.16 291.42Z" fill="white"/>
<path d="M1149.66 261.633C1153.4 263.704 1154.75 268.414 1152.68 272.153C1150.61 275.892 1145.9 277.244 1142.16 275.173C1138.42 273.102 1137.07 268.392 1139.14 264.653C1141.21 260.915 1145.92 259.563 1149.66 261.633Z" fill="white"/>
<path d="M1113.45 397.28C1117.19 399.351 1118.54 404.061 1116.47 407.8C1114.4 411.539 1109.69 412.891 1105.95 410.82C1102.21 408.749 1100.86 404.039 1102.93 400.3C1105 396.561 1109.71 395.209 1113.45 397.28Z" fill="white"/>
<path d="M1129.95 367.493C1133.69 369.564 1135.04 374.274 1132.97 378.013C1130.9 381.752 1126.19 383.104 1122.45 381.033C1118.71 378.962 1117.36 374.252 1119.43 370.513C1121.5 366.775 1126.21 365.422 1129.95 367.493Z" fill="white"/>
<path d="M1146.45 337.706C1150.19 339.777 1151.54 344.487 1149.47 348.226C1147.4 351.965 1142.69 353.317 1138.95 351.246C1135.21 349.175 1133.86 344.465 1135.93 340.726C1138 336.988 1142.71 335.635 1146.45 337.706Z" fill="white"/>
<path d="M1162.95 307.919C1166.69 309.99 1168.04 314.7 1165.97 318.439C1163.9 322.178 1159.19 323.53 1155.45 321.459C1151.71 319.388 1150.36 314.678 1152.43 310.939C1154.5 307.201 1159.21 305.849 1162.95 307.919Z" fill="white"/>
<path d="M1179.45 278.132C1183.19 280.203 1184.54 284.913 1182.47 288.652C1180.4 292.391 1175.69 293.743 1171.95 291.672C1168.21 289.601 1166.86 284.891 1168.93 281.152C1171 277.414 1175.71 276.062 1179.45 278.132Z" fill="white"/>
<path d="M914.074 476.126C917.813 478.197 919.165 482.907 917.094 486.646C915.023 490.384 910.314 491.737 906.575 489.666C902.836 487.595 901.484 482.885 903.555 479.146C905.626 475.407 910.335 474.055 914.074 476.126Z" fill="white"/>
<path d="M930.573 446.339C934.312 448.41 935.664 453.12 933.593 456.859C931.522 460.597 926.813 461.95 923.074 459.879C919.335 457.808 917.983 453.098 920.054 449.359C922.125 445.62 926.834 444.268 930.573 446.339Z" fill="white"/>
<path d="M947.072 416.552C950.811 418.623 952.163 423.333 950.092 427.072C948.021 430.811 943.312 432.163 939.573 430.092C935.834 428.021 934.482 423.311 936.553 419.572C938.624 415.833 943.334 414.481 947.072 416.552Z" fill="white"/>
<path d="M963.571 386.765C967.31 388.836 968.662 393.546 966.591 397.285C964.52 401.024 959.811 402.376 956.072 400.305C952.333 398.234 950.981 393.524 953.052 389.785C955.123 386.046 959.833 384.694 963.571 386.765Z" fill="white"/>
<path d="M980.07 356.978C983.809 359.049 985.161 363.759 983.09 367.498C981.019 371.237 976.31 372.589 972.571 370.518C968.832 368.447 967.48 363.737 969.551 359.998C971.622 356.259 976.332 354.907 980.07 356.978Z" fill="white"/>
<path d="M943.861 492.625C947.6 494.696 948.952 499.406 946.881 503.145C944.81 506.883 940.101 508.236 936.362 506.165C932.623 504.094 931.271 499.384 933.342 495.645C935.413 491.906 940.122 490.554 943.861 492.625Z" fill="white"/>
<path d="M960.36 462.838C964.099 464.909 965.451 469.619 963.38 473.358C961.309 477.097 956.6 478.449 952.861 476.378C949.122 474.307 947.77 469.597 949.841 465.858C951.912 462.119 956.621 460.767 960.36 462.838Z" fill="white"/>
<path d="M976.859 433.051C980.598 435.122 981.95 439.832 979.879 443.571C977.808 447.31 973.099 448.662 969.36 446.591C965.621 444.52 964.269 439.81 966.34 436.071C968.411 432.332 973.12 430.98 976.859 433.051Z" fill="white"/>
<path d="M993.358 403.264C997.097 405.335 998.449 410.045 996.378 413.784C994.307 417.523 989.598 418.875 985.859 416.804C982.12 414.733 980.768 410.023 982.839 406.284C984.91 402.545 989.62 401.193 993.358 403.264Z" fill="white"/>
<path d="M1009.86 373.477C1013.6 375.548 1014.95 380.258 1012.88 383.997C1010.81 387.736 1006.1 389.088 1002.36 387.017C998.619 384.946 997.267 380.236 999.338 376.497C1001.41 372.758 1006.12 371.406 1009.86 373.477Z" fill="white"/>
<path d="M973.648 509.124C977.387 511.195 978.739 515.905 976.668 519.644C974.597 523.383 969.887 524.735 966.149 522.664C962.41 520.593 961.058 515.883 963.129 512.144C965.2 508.405 969.909 507.053 973.648 509.124Z" fill="white"/>
<path d="M990.147 479.337C993.886 481.408 995.238 486.118 993.167 489.857C991.096 493.596 986.387 494.948 982.648 492.877C978.909 490.806 977.557 486.096 979.628 482.357C981.699 478.618 986.408 477.266 990.147 479.337Z" fill="white"/>
<path d="M1006.65 449.55C1010.39 451.621 1011.74 456.331 1009.67 460.07C1007.6 463.809 1002.89 465.161 999.147 463.09C995.408 461.019 994.056 456.309 996.127 452.57C998.198 448.831 1002.91 447.479 1006.65 449.55Z" fill="white"/>
<path d="M1023.15 419.763C1026.88 421.834 1028.24 426.544 1026.17 430.283C1024.09 434.022 1019.38 435.374 1015.65 433.303C1011.91 431.232 1010.55 426.522 1012.63 422.783C1014.7 419.044 1019.41 417.692 1023.15 419.763Z" fill="white"/>
<path d="M1039.64 389.976C1043.38 392.047 1044.74 396.757 1042.66 400.496C1040.59 404.235 1035.88 405.587 1032.14 403.516C1028.41 401.445 1027.05 396.735 1029.12 392.996C1031.2 389.257 1035.91 387.905 1039.64 389.976Z" fill="white"/>
<path d="M1003.44 525.623C1007.17 527.694 1008.53 532.404 1006.46 536.143C1004.38 539.882 999.674 541.234 995.936 539.163C992.197 537.092 990.845 532.382 992.916 528.643C994.987 524.904 999.696 523.552 1003.44 525.623Z" fill="white"/>
<path d="M1019.93 495.836C1023.67 497.907 1025.03 502.617 1022.95 506.356C1020.88 510.095 1016.17 511.447 1012.43 509.376C1008.7 507.305 1007.34 502.595 1009.41 498.856C1011.49 495.117 1016.2 493.765 1019.93 495.836Z" fill="white"/>
<path d="M1036.43 466.049C1040.17 468.12 1041.52 472.83 1039.45 476.569C1037.38 480.308 1032.67 481.66 1028.93 479.589C1025.19 477.518 1023.84 472.808 1025.91 469.069C1027.98 465.33 1032.69 463.978 1036.43 466.049Z" fill="white"/>
<path d="M1052.93 436.262C1056.67 438.333 1058.02 443.043 1055.95 446.782C1053.88 450.521 1049.17 451.873 1045.43 449.802C1041.69 447.731 1040.34 443.021 1042.41 439.282C1044.48 435.543 1049.19 434.191 1052.93 436.262Z" fill="white"/>
<path d="M1069.43 406.475C1073.17 408.546 1074.52 413.256 1072.45 416.995C1070.38 420.734 1065.67 422.086 1061.93 420.015C1058.19 417.944 1056.84 413.234 1058.91 409.495C1060.98 405.757 1065.69 404.404 1069.43 406.475Z" fill="white"/>
<path d="M1033.22 542.122C1036.96 544.193 1038.31 548.903 1036.24 552.642C1034.17 556.381 1029.46 557.733 1025.72 555.662C1021.98 553.591 1020.63 548.881 1022.7 545.142C1024.77 541.403 1029.48 540.051 1033.22 542.122Z" fill="white"/>
<path d="M1049.72 512.335C1053.46 514.406 1054.81 519.116 1052.74 522.855C1050.67 526.594 1045.96 527.946 1042.22 525.875C1038.48 523.804 1037.13 519.094 1039.2 515.355C1041.27 511.616 1045.98 510.264 1049.72 512.335Z" fill="white"/>
<path d="M1066.22 482.548C1069.96 484.619 1071.31 489.329 1069.24 493.068C1067.17 496.807 1062.46 498.159 1058.72 496.088C1054.98 494.017 1053.63 489.307 1055.7 485.568C1057.77 481.829 1062.48 480.477 1066.22 482.548Z" fill="white"/>
<path d="M1082.72 452.761C1086.46 454.832 1087.81 459.542 1085.74 463.281C1083.67 467.02 1078.96 468.372 1075.22 466.301C1071.48 464.23 1070.13 459.52 1072.2 455.781C1074.27 452.042 1078.98 450.69 1082.72 452.761Z" fill="white"/>
<path d="M1099.22 422.974C1102.96 425.045 1104.31 429.755 1102.24 433.494C1100.17 437.233 1095.46 438.585 1091.72 436.514C1087.98 434.443 1086.63 429.733 1088.7 425.994C1090.77 422.256 1095.48 420.903 1099.22 422.974Z" fill="white"/>
</g>
</g>
<g opacity="0.2">
<mask id="mask1" mask-type="alpha" maskUnits="userSpaceOnUse" x="545" y="-54" width="320" height="319">
<path d="M700.846 -49.0044C777.608 -57.2662 874.536 165.041 861.428 212.665C848.32 260.29 570.484 288.697 554.524 220.899C538.564 153.1 624.084 -40.7426 700.846 -49.0044Z" fill="white"/>
</mask>
<g mask="url(#mask1)">
<path d="M728.388 119.055C728.664 123.321 725.43 127.002 721.165 127.278C716.899 127.554 713.218 124.32 712.942 120.055C712.666 115.79 715.9 112.108 720.165 111.832C724.43 111.556 728.112 114.79 728.388 119.055Z" fill="white"/>
<path d="M762.368 116.857C762.644 121.122 759.41 124.804 755.145 125.08C750.879 125.355 747.198 122.122 746.922 117.856C746.646 113.591 749.88 109.91 754.145 109.634C758.411 109.358 762.092 112.592 762.368 116.857Z" fill="white"/>
<path d="M796.348 114.659C796.624 118.924 793.39 122.605 789.125 122.881C784.86 123.157 781.178 119.923 780.902 115.658C780.626 111.393 783.86 107.712 788.126 107.436C792.391 107.16 796.072 110.394 796.348 114.659Z" fill="white"/>
<path d="M830.328 112.461C830.604 116.726 827.37 120.407 823.105 120.683C818.84 120.959 815.158 117.725 814.883 113.46C814.607 109.195 817.841 105.513 822.106 105.237C826.371 104.961 830.052 108.195 830.328 112.461Z" fill="white"/>
<path d="M864.308 110.262C864.584 114.527 861.35 118.209 857.085 118.485C852.82 118.761 849.139 115.527 848.863 111.261C848.587 106.996 851.821 103.315 856.086 103.039C860.351 102.763 864.032 105.997 864.308 110.262Z" fill="white"/>
<path d="M730.586 153.036C730.862 157.301 727.628 160.982 723.363 161.258C719.098 161.534 715.416 158.3 715.14 154.035C714.865 149.77 718.098 146.088 722.364 145.812C726.629 145.537 730.31 148.77 730.586 153.036Z" fill="white"/>
<path d="M764.566 150.837C764.842 155.102 761.608 158.784 757.343 159.06C753.078 159.336 749.397 156.102 749.121 151.837C748.845 147.571 752.079 143.89 756.344 143.614C760.609 143.338 764.29 146.572 764.566 150.837Z" fill="white"/>
<path d="M798.546 148.639C798.822 152.904 795.588 156.585 791.323 156.861C787.058 157.137 783.377 153.903 783.101 149.638C782.825 145.373 786.059 141.692 790.324 141.416C794.589 141.14 798.27 144.374 798.546 148.639Z" fill="white"/>
<path d="M832.526 146.441C832.802 150.706 829.568 154.387 825.303 154.663C821.038 154.939 817.357 151.705 817.081 147.44C816.805 143.175 820.039 139.493 824.304 139.218C828.569 138.942 832.25 142.176 832.526 146.441Z" fill="white"/>
<path d="M866.506 144.242C866.782 148.508 863.548 152.189 859.283 152.465C855.018 152.741 851.337 149.507 851.061 145.242C850.785 140.976 854.019 137.295 858.284 137.019C862.549 136.743 866.231 139.977 866.506 144.242Z" fill="white"/>
<path d="M732.784 187.016C733.06 191.281 729.826 194.962 725.561 195.238C721.296 195.514 717.615 192.28 717.339 188.015C717.063 183.75 720.297 180.069 724.562 179.793C728.827 179.517 732.508 182.751 732.784 187.016Z" fill="white"/>
<path d="M766.764 184.817C767.04 189.083 763.806 192.764 759.541 193.04C755.276 193.316 751.595 190.082 751.319 185.817C751.043 181.552 754.277 177.87 758.542 177.594C762.807 177.318 766.488 180.552 766.764 184.817Z" fill="white"/>
<path d="M800.745 182.619C801.02 186.884 797.787 190.566 793.521 190.842C789.256 191.117 785.575 187.884 785.299 183.618C785.023 179.353 788.257 175.672 792.522 175.396C796.787 175.12 800.469 178.354 800.745 182.619Z" fill="white"/>
<path d="M834.725 180.421C835.001 184.686 831.767 188.367 827.502 188.643C823.236 188.919 819.555 185.685 819.279 181.42C819.003 177.155 822.237 173.474 826.502 173.198C830.767 172.922 834.449 176.156 834.725 180.421Z" fill="white"/>
<path d="M868.705 178.223C868.981 182.488 865.747 186.169 861.482 186.445C857.217 186.721 853.535 183.487 853.259 179.222C852.983 174.957 856.217 171.275 860.482 170.999C864.748 170.723 868.429 173.957 868.705 178.223Z" fill="white"/>
<path d="M734.983 220.996C735.259 225.261 732.025 228.942 727.759 229.218C723.494 229.494 719.813 226.26 719.537 221.995C719.261 217.73 722.495 214.049 726.76 213.773C731.025 213.497 734.707 216.731 734.983 220.996Z" fill="white"/>
<path d="M768.963 218.798C769.239 223.063 766.005 226.744 761.74 227.02C757.474 227.296 753.793 224.062 753.517 219.797C753.241 215.532 756.475 211.85 760.74 211.574C765.006 211.299 768.687 214.532 768.963 218.798Z" fill="white"/>
<path d="M802.943 216.599C803.219 220.864 799.985 224.546 795.72 224.822C791.455 225.098 787.773 221.864 787.497 217.599C787.221 213.333 790.455 209.652 794.721 209.376C798.986 209.1 802.667 212.334 802.943 216.599Z" fill="white"/>
<path d="M836.923 214.401C837.199 218.666 833.965 222.347 829.7 222.623C825.435 222.899 821.753 219.665 821.477 215.4C821.202 211.135 824.435 207.454 828.701 207.178C832.966 206.902 836.647 210.136 836.923 214.401Z" fill="white"/>
<path d="M870.903 212.203C871.179 216.468 867.945 220.149 863.68 220.425C859.415 220.701 855.734 217.467 855.458 213.202C855.182 208.937 858.416 205.255 862.681 204.98C866.946 204.704 870.627 207.937 870.903 212.203Z" fill="white"/>
<path d="M737.181 254.976C737.457 259.241 734.223 262.922 729.958 263.198C725.693 263.474 722.011 260.24 721.735 255.975C721.459 251.71 724.693 248.029 728.959 247.753C733.224 247.477 736.905 250.711 737.181 254.976Z" fill="white"/>
<path d="M771.161 252.778C771.437 257.043 768.203 260.724 763.938 261C759.673 261.276 755.991 258.042 755.716 253.777C755.44 249.512 758.674 245.83 762.939 245.555C767.204 245.279 770.885 248.512 771.161 252.778Z" fill="white"/>
<path d="M805.141 250.579C805.417 254.844 802.183 258.526 797.918 258.802C793.653 259.078 789.972 255.844 789.696 251.579C789.42 247.313 792.654 243.632 796.919 243.356C801.184 243.08 804.865 246.314 805.141 250.579Z" fill="white"/>
<path d="M839.121 248.381C839.397 252.646 836.163 256.327 831.898 256.603C827.633 256.879 823.952 253.645 823.676 249.38C823.4 245.115 826.634 241.434 830.899 241.158C835.164 240.882 838.845 244.116 839.121 248.381Z" fill="white"/>
<path d="M873.101 246.183C873.377 250.448 870.143 254.129 865.878 254.405C861.613 254.681 857.932 251.447 857.656 247.182C857.38 242.917 860.614 239.235 864.879 238.96C869.144 238.684 872.826 241.917 873.101 246.183Z" fill="white"/>
<path d="M563.156 129.745C563.432 134.01 560.198 137.691 555.933 137.967C551.668 138.243 547.987 135.009 547.711 130.744C547.435 126.479 550.669 122.798 554.934 122.522C559.199 122.246 562.88 125.48 563.156 129.745Z" fill="white"/>
<path d="M597.136 127.547C597.412 131.812 594.178 135.493 589.913 135.769C585.648 136.045 581.967 132.811 581.691 128.546C581.415 124.281 584.649 120.599 588.914 120.324C593.179 120.048 596.86 123.282 597.136 127.547Z" fill="white"/>
<path d="M631.116 125.348C631.392 129.614 628.158 133.295 623.893 133.571C619.628 133.847 615.947 130.613 615.671 126.348C615.395 122.082 618.629 118.401 622.894 118.125C627.159 117.849 630.84 121.083 631.116 125.348Z" fill="white"/>
<path d="M665.097 123.15C665.372 127.415 662.139 131.097 657.873 131.372C653.608 131.648 649.927 128.414 649.651 124.149C649.375 119.884 652.609 116.203 656.874 115.927C661.139 115.651 664.821 118.885 665.097 123.15Z" fill="white"/>
<path d="M699.077 120.952C699.353 125.217 696.119 128.898 691.853 129.174C687.588 129.45 683.907 126.216 683.631 121.951C683.355 117.686 686.589 114.005 690.854 113.729C695.119 113.453 698.801 116.687 699.077 120.952Z" fill="white"/>
<path d="M565.354 163.725C565.63 167.99 562.396 171.672 558.131 171.948C553.866 172.223 550.185 168.99 549.909 164.724C549.633 160.459 552.867 156.778 557.132 156.502C561.397 156.226 565.079 159.46 565.354 163.725Z" fill="white"/>
<path d="M599.335 161.527C599.611 165.792 596.377 169.473 592.111 169.749C587.846 170.025 584.165 166.791 583.889 162.526C583.613 158.261 586.847 154.58 591.112 154.304C595.377 154.028 599.059 157.262 599.335 161.527Z" fill="white"/>
<path d="M633.315 159.329C633.591 163.594 630.357 167.275 626.092 167.551C621.826 167.827 618.145 164.593 617.869 160.328C617.593 156.063 620.827 152.381 625.092 152.105C629.357 151.829 633.039 155.063 633.315 159.329Z" fill="white"/>
<path d="M667.295 157.13C667.571 161.395 664.337 165.077 660.072 165.353C655.807 165.629 652.125 162.395 651.849 158.129C651.573 153.864 654.807 150.183 659.072 149.907C663.338 149.631 667.019 152.865 667.295 157.13Z" fill="white"/>
<path d="M701.275 154.932C701.551 159.197 698.317 162.878 694.052 163.154C689.787 163.43 686.105 160.196 685.829 155.931C685.554 151.666 688.787 147.985 693.053 147.709C697.318 147.433 700.999 150.667 701.275 154.932Z" fill="white"/>
<path d="M567.553 197.705C567.829 201.97 564.595 205.652 560.33 205.928C556.064 206.204 552.383 202.97 552.107 198.705C551.831 194.439 555.065 190.758 559.33 190.482C563.596 190.206 567.277 193.44 567.553 197.705Z" fill="white"/>
<path d="M601.533 195.507C601.809 199.772 598.575 203.453 594.31 203.729C590.045 204.005 586.363 200.771 586.087 196.506C585.811 192.241 589.045 188.56 593.311 188.284C597.576 188.008 601.257 191.242 601.533 195.507Z" fill="white"/>
<path d="M635.513 193.309C635.789 197.574 632.555 201.255 628.29 201.531C624.025 201.807 620.343 198.573 620.068 194.308C619.792 190.043 623.025 186.361 627.291 186.086C631.556 185.81 635.237 189.044 635.513 193.309Z" fill="white"/>
<path d="M669.493 191.11C669.769 195.375 666.535 199.057 662.27 199.333C658.005 199.609 654.324 196.375 654.048 192.11C653.772 187.844 657.006 184.163 661.271 183.887C665.536 183.611 669.217 186.845 669.493 191.11Z" fill="white"/>
<path d="M703.473 188.912C703.749 193.177 700.515 196.858 696.25 197.134C691.985 197.41 688.304 194.176 688.028 189.911C687.752 185.646 690.986 181.965 695.251 181.689C699.516 181.413 703.197 184.647 703.473 188.912Z" fill="white"/>
<path d="M569.751 231.685C570.027 235.951 566.793 239.632 562.528 239.908C558.263 240.184 554.582 236.95 554.306 232.685C554.03 228.42 557.264 224.738 561.529 224.462C565.794 224.186 569.475 227.42 569.751 231.685Z" fill="white"/>
<path d="M603.731 229.487C604.007 233.752 600.773 237.434 596.508 237.709C592.243 237.985 588.562 234.752 588.286 230.486C588.01 226.221 591.244 222.54 595.509 222.264C599.774 221.988 603.455 225.222 603.731 229.487Z" fill="white"/>
<path d="M637.711 227.289C637.987 231.554 634.753 235.235 630.488 235.511C626.223 235.787 622.542 232.553 622.266 228.288C621.99 224.023 625.224 220.342 629.489 220.066C633.754 219.79 637.435 223.024 637.711 227.289Z" fill="white"/>
<path d="M671.691 225.09C671.967 229.356 668.733 233.037 664.468 233.313C660.203 233.589 656.522 230.355 656.246 226.09C655.97 221.825 659.204 218.143 663.469 217.867C667.734 217.591 671.416 220.825 671.691 225.09Z" fill="white"/>
<path d="M705.672 222.892C705.948 227.157 702.714 230.839 698.448 231.115C694.183 231.39 690.502 228.157 690.226 223.891C689.95 219.626 693.184 215.945 697.449 215.669C701.714 215.393 705.396 218.627 705.672 222.892Z" fill="white"/>
<path d="M571.949 265.665C572.225 269.931 568.991 273.612 564.726 273.888C560.461 274.164 556.78 270.93 556.504 266.665C556.228 262.4 559.462 258.718 563.727 258.442C567.992 258.166 571.673 261.4 571.949 265.665Z" fill="white"/>
<path d="M605.93 263.467C606.205 267.732 602.972 271.414 598.706 271.69C594.441 271.965 590.76 268.732 590.484 264.466C590.208 260.201 593.442 256.52 597.707 256.244C601.972 255.968 605.654 259.202 605.93 263.467Z" fill="white"/>
<path d="M639.91 261.269C640.186 265.534 636.952 269.215 632.687 269.491C628.421 269.767 624.74 266.533 624.464 262.268C624.188 258.003 627.422 254.322 631.687 254.046C635.952 253.77 639.634 257.004 639.91 261.269Z" fill="white"/>
<path d="M673.89 259.07C674.166 263.336 670.932 267.017 666.667 267.293C662.401 267.569 658.72 264.335 658.444 260.07C658.168 255.805 661.402 252.123 665.667 251.847C669.933 251.571 673.614 254.805 673.89 259.07Z" fill="white"/>
<path d="M707.87 256.872C708.146 261.137 704.912 264.819 700.647 265.095C696.382 265.371 692.7 262.137 692.424 257.871C692.148 253.606 695.382 249.925 699.648 249.649C703.913 249.373 707.594 252.607 707.87 256.872Z" fill="white"/>
<path d="M717.698 -46.1761C717.974 -41.9109 714.74 -38.2296 710.475 -37.9537C706.21 -37.6778 702.529 -40.9117 702.253 -45.1769C701.977 -49.442 705.211 -53.1233 709.476 -53.3992C713.741 -53.6752 717.422 -50.4412 717.698 -46.1761Z" fill="white"/>
<path d="M751.678 -48.3744C751.954 -44.1092 748.72 -40.428 744.455 -40.152C740.19 -39.8761 736.509 -43.11 736.233 -47.3752C735.957 -51.6403 739.191 -55.3216 743.456 -55.5975C747.721 -55.8735 751.402 -52.6396 751.678 -48.3744Z" fill="white"/>
<path d="M785.658 -50.5727C785.934 -46.3076 782.7 -42.6263 778.435 -42.3503C774.17 -42.0744 770.489 -45.3083 770.213 -49.5735C769.937 -53.8386 773.171 -57.5199 777.436 -57.7959C781.701 -58.0718 785.382 -54.8379 785.658 -50.5727Z" fill="white"/>
<path d="M819.639 -52.771C819.914 -48.5059 816.681 -44.8246 812.415 -44.5487C808.15 -44.2727 804.469 -47.5066 804.193 -51.7718C803.917 -56.037 807.151 -59.7182 811.416 -59.9942C815.681 -60.2701 819.363 -57.0362 819.639 -52.771Z" fill="white"/>
<path d="M853.619 -54.9694C853.895 -50.7042 850.661 -47.0229 846.396 -46.747C842.13 -46.4711 838.449 -49.705 838.173 -53.9701C837.897 -58.2353 841.131 -61.9166 845.396 -62.1925C849.661 -62.4684 853.343 -59.2345 853.619 -54.9694Z" fill="white"/>
<path d="M719.896 -12.1959C720.172 -7.93079 716.938 -4.24951 712.673 -3.97358C708.408 -3.69764 704.727 -6.93156 704.451 -11.1967C704.175 -15.4619 707.409 -19.1432 711.674 -19.4191C715.939 -19.695 719.621 -16.4611 719.896 -12.1959Z" fill="white"/>
<path d="M753.877 -14.3943C754.153 -10.1291 750.919 -6.44782 746.653 -6.17189C742.388 -5.89596 738.707 -9.12987 738.431 -13.395C738.155 -17.6602 741.389 -21.3415 745.654 -21.6174C749.919 -21.8933 753.601 -18.6594 753.877 -14.3943Z" fill="white"/>
<path d="M787.857 -16.5926C788.133 -12.3274 784.899 -8.64614 780.634 -8.37021C776.368 -8.09428 772.687 -11.3282 772.411 -15.5933C772.135 -19.8585 775.369 -23.5398 779.634 -23.8157C783.9 -24.0917 787.581 -20.8577 787.857 -16.5926Z" fill="white"/>
<path d="M821.837 -18.7909C822.113 -14.5257 818.879 -10.8445 814.614 -10.5685C810.349 -10.2926 806.667 -13.5265 806.391 -17.7917C806.115 -22.0568 809.349 -25.7381 813.614 -26.014C817.88 -26.29 821.561 -23.0561 821.837 -18.7909Z" fill="white"/>
<path d="M855.817 -20.9892C856.093 -16.7241 852.859 -13.0428 848.594 -12.7668C844.329 -12.4909 840.647 -15.7248 840.371 -19.99C840.096 -24.2551 843.329 -27.9364 847.595 -28.2124C851.86 -28.4883 855.541 -25.2544 855.817 -20.9892Z" fill="white"/>
<path d="M722.095 21.7842C722.371 26.0493 719.137 29.7306 714.872 30.0066C710.606 30.2825 706.925 27.0486 706.649 22.7834C706.373 18.5183 709.607 14.837 713.872 14.5611C718.138 14.2851 721.819 17.519 722.095 21.7842Z" fill="white"/>
<path d="M756.075 19.5859C756.351 23.851 753.117 27.5323 748.852 27.8082C744.587 28.0842 740.905 24.8503 740.629 20.5851C740.353 16.3199 743.587 12.6387 747.853 12.3627C752.118 12.0868 755.799 15.3207 756.075 19.5859Z" fill="white"/>
<path d="M790.055 17.3875C790.331 21.6527 787.097 25.334 782.832 25.6099C778.567 25.8859 774.885 22.6519 774.61 18.3868C774.334 14.1216 777.568 10.4403 781.833 10.1644C786.098 9.88849 789.779 13.1224 790.055 17.3875Z" fill="white"/>
<path d="M824.035 15.1892C824.311 19.4544 821.077 23.1357 816.812 23.4116C812.547 23.6875 808.866 20.4536 808.59 16.1885C808.314 11.9233 811.548 8.24203 815.813 7.9661C820.078 7.69017 823.759 10.9241 824.035 15.1892Z" fill="white"/>
<path d="M858.015 12.9909C858.291 17.2561 855.057 20.9374 850.792 21.2133C846.527 21.4892 842.846 18.2553 842.57 13.9901C842.294 9.72499 845.528 6.04371 849.793 5.76778C854.058 5.49185 857.739 8.72575 858.015 12.9909Z" fill="white"/>
<path d="M724.293 55.7643C724.569 60.0295 721.335 63.7108 717.07 63.9867C712.805 64.2626 709.124 61.0287 708.848 56.7636C708.572 52.4984 711.806 48.8171 716.071 48.5412C720.336 48.2653 724.017 51.4992 724.293 55.7643Z" fill="white"/>
<path d="M758.273 53.566C758.549 57.8312 755.315 61.5125 751.05 61.7884C746.785 62.0643 743.104 58.8304 742.828 54.5652C742.552 50.3001 745.786 46.6188 750.051 46.3429C754.316 46.0669 757.997 49.3008 758.273 53.566Z" fill="white"/>
<path d="M792.253 51.3677C792.529 55.6329 789.295 59.3141 785.03 59.5901C780.765 59.866 777.084 56.6321 776.808 52.3669C776.532 48.1018 779.766 44.4205 784.031 44.1446C788.296 43.8686 791.977 47.1025 792.253 51.3677Z" fill="white"/>
<path d="M826.233 49.1694C826.509 53.4345 823.275 57.1158 819.01 57.3918C814.745 57.6677 811.064 54.4338 810.788 50.1686C810.512 45.9034 813.746 42.2222 818.011 41.9462C822.276 41.6703 825.958 44.9042 826.233 49.1694Z" fill="white"/>
<path d="M860.214 46.9711C860.49 51.2362 857.256 54.9175 852.99 55.1934C848.725 55.4694 845.044 52.2355 844.768 47.9703C844.492 43.7051 847.726 40.0239 851.991 39.7479C856.256 39.472 859.938 42.7059 860.214 46.9711Z" fill="white"/>
<path d="M726.491 89.7444C726.767 94.0095 723.533 97.6908 719.268 97.9667C715.003 98.2427 711.322 95.0087 711.046 90.7436C710.77 86.4784 714.004 82.7972 718.269 82.5212C722.534 82.2453 726.215 85.4792 726.491 89.7444Z" fill="white"/>
<path d="M760.472 87.546C760.747 91.8112 757.514 95.4925 753.248 95.7684C748.983 96.0443 745.302 92.8104 745.026 88.5453C744.75 84.2801 747.984 80.5988 752.249 80.3229C756.514 80.047 760.196 83.2809 760.472 87.546Z" fill="white"/>
<path d="M794.452 85.3477C794.728 89.6129 791.494 93.2942 787.229 93.5701C782.963 93.846 779.282 90.6121 779.006 86.347C778.73 82.0818 781.964 78.4005 786.229 78.1246C790.494 77.8487 794.176 81.0826 794.452 85.3477Z" fill="white"/>
<path d="M828.432 83.1494C828.708 87.4146 825.474 91.0958 821.209 91.3718C816.943 91.6477 813.262 88.4138 812.986 84.1486C812.71 79.8835 815.944 76.2022 820.209 75.9263C824.475 75.6503 828.156 78.8843 828.432 83.1494Z" fill="white"/>
<path d="M862.412 80.9511C862.688 85.2162 859.454 88.8975 855.189 89.1735C850.924 89.4494 847.242 86.2155 846.966 81.9503C846.69 77.6852 849.924 74.0039 854.19 73.728C858.455 73.452 862.136 76.6859 862.412 80.9511Z" fill="white"/>
<path d="M552.467 -35.4866C552.743 -31.2214 549.509 -27.5401 545.243 -27.2642C540.978 -26.9883 537.297 -30.2222 537.021 -34.4873C536.745 -38.7525 539.979 -42.4338 544.244 -42.7097C548.509 -42.9856 552.191 -39.7517 552.467 -35.4866Z" fill="white"/>
<path d="M586.447 -37.6849C586.723 -33.4197 583.489 -29.7384 579.224 -29.4625C574.958 -29.1866 571.277 -32.4205 571.001 -36.6856C570.725 -40.9508 573.959 -44.6321 578.224 -44.908C582.49 -45.1839 586.171 -41.95 586.447 -37.6849Z" fill="white"/>
<path d="M620.427 -39.8832C620.703 -35.618 617.469 -31.9368 613.204 -31.6608C608.939 -31.3849 605.257 -34.6188 604.981 -38.884C604.705 -43.1491 607.939 -46.8304 612.204 -47.1063C616.47 -47.3823 620.151 -44.1484 620.427 -39.8832Z" fill="white"/>
<path d="M654.407 -42.0815C654.683 -37.8164 651.449 -34.1351 647.184 -33.8591C642.919 -33.5832 639.237 -36.8171 638.961 -41.0823C638.686 -45.3474 641.919 -49.0287 646.185 -49.3047C650.45 -49.5806 654.131 -46.3467 654.407 -42.0815Z" fill="white"/>
<path d="M688.387 -44.2798C688.663 -40.0147 685.429 -36.3334 681.164 -36.0575C676.899 -35.7815 673.218 -39.0154 672.942 -43.2806C672.666 -47.5458 675.9 -51.227 680.165 -51.503C684.43 -51.7789 688.111 -48.545 688.387 -44.2798Z" fill="white"/>
<path d="M554.665 -1.50643C554.941 2.75873 551.707 6.44002 547.442 6.71595C543.177 6.99188 539.495 3.75797 539.219 -0.50719C538.943 -4.77235 542.177 -8.45363 546.443 -8.72956C550.708 -9.00549 554.389 -5.77159 554.665 -1.50643Z" fill="white"/>
<path d="M588.645 -3.70474C588.921 0.560416 585.687 4.2417 581.422 4.51763C577.157 4.79356 573.475 1.55965 573.2 -2.70551C572.924 -6.97067 576.158 -10.6519 580.423 -10.9279C584.688 -11.2038 588.369 -7.9699 588.645 -3.70474Z" fill="white"/>
<path d="M622.625 -5.90306C622.901 -1.6379 619.667 2.04338 615.402 2.31931C611.137 2.59524 607.456 -0.638667 607.18 -4.90383C606.904 -9.16899 610.138 -12.8503 614.403 -13.1262C618.668 -13.4021 622.349 -10.1682 622.625 -5.90306Z" fill="white"/>
<path d="M656.605 -8.10138C656.881 -3.83622 653.647 -0.154936 649.382 0.120995C645.117 0.396926 641.436 -2.83698 641.16 -7.10214C640.884 -11.3673 644.118 -15.0486 648.383 -15.3245C652.648 -15.6004 656.329 -12.3665 656.605 -8.10138Z" fill="white"/>
<path d="M690.585 -10.2997C690.861 -6.03454 687.627 -2.35325 683.362 -2.07732C679.097 -1.80139 675.416 -5.0353 675.14 -9.30046C674.864 -13.5656 678.098 -17.2469 682.363 -17.5228C686.628 -17.7988 690.309 -14.5649 690.585 -10.2997Z" fill="white"/>
<path d="M556.863 32.4737C557.139 36.7389 553.905 40.4202 549.64 40.6961C545.375 40.972 541.694 37.7381 541.418 33.4729C541.142 29.2078 544.376 25.5265 548.641 25.2506C552.906 24.9746 556.587 28.2085 556.863 32.4737Z" fill="white"/>
<path d="M590.843 30.2754C591.119 34.5405 587.885 38.2218 583.62 38.4978C579.355 38.7737 575.674 35.5398 575.398 31.2746C575.122 27.0095 578.356 23.3282 582.621 23.0523C586.886 22.7763 590.567 26.0102 590.843 30.2754Z" fill="white"/>
<path d="M624.823 28.0771C625.099 32.3422 621.866 36.0235 617.6 36.2995C613.335 36.5754 609.654 33.3415 609.378 29.0763C609.102 24.8111 612.336 21.1299 616.601 20.8539C620.866 20.578 624.548 23.8119 624.823 28.0771Z" fill="white"/>
<path d="M658.804 25.8788C659.08 30.1439 655.846 33.8252 651.58 34.1011C647.315 34.3771 643.634 31.1431 643.358 26.878C643.082 22.6128 646.316 18.9316 650.581 18.6556C654.846 18.3797 658.528 21.6136 658.804 25.8788Z" fill="white"/>
<path d="M692.784 23.6804C693.06 27.9456 689.826 31.6269 685.561 31.9028C681.295 32.1787 677.614 28.9448 677.338 24.6797C677.062 20.4145 680.296 16.7332 684.561 16.4573C688.827 16.1814 692.508 19.4153 692.784 23.6804Z" fill="white"/>
<path d="M559.062 66.4538C559.337 70.719 556.104 74.4003 551.838 74.6762C547.573 74.9522 543.892 71.7182 543.616 67.4531C543.34 63.1879 546.574 59.5066 550.839 59.2307C555.104 58.9548 558.786 62.1887 559.062 66.4538Z" fill="white"/>
<path d="M593.042 64.2555C593.318 68.5207 590.084 72.202 585.819 72.4779C581.553 72.7538 577.872 69.5199 577.596 65.2548C577.32 60.9896 580.554 57.3083 584.819 57.0324C589.084 56.7565 592.766 59.9904 593.042 64.2555Z" fill="white"/>
<path d="M627.022 62.0572C627.298 66.3224 624.064 70.0037 619.799 70.2796C615.534 70.5555 611.852 67.3216 611.576 63.0564C611.3 58.7913 614.534 55.11 618.799 54.8341C623.065 54.5582 626.746 57.7921 627.022 62.0572Z" fill="white"/>
<path d="M661.002 59.8589C661.278 64.1241 658.044 67.8053 653.779 68.0813C649.514 68.3572 645.832 65.1233 645.556 60.8581C645.281 56.593 648.514 52.9117 652.78 52.6358C657.045 52.3598 660.726 55.5937 661.002 59.8589Z" fill="white"/>
<path d="M694.982 57.6606C695.258 61.9257 692.024 65.607 687.759 65.883C683.494 66.1589 679.812 62.925 679.537 58.6598C679.261 54.3947 682.495 50.7134 686.76 50.4374C691.025 50.1615 694.706 53.3954 694.982 57.6606Z" fill="white"/>
<path d="M561.26 100.434C561.536 104.699 558.302 108.38 554.037 108.656C549.772 108.932 546.09 105.698 545.814 101.433C545.538 97.168 548.772 93.4867 553.038 93.2107C557.303 92.9348 560.984 96.1687 561.26 100.434Z" fill="white"/>
<path d="M595.24 98.2356C595.516 102.501 592.282 106.182 588.017 106.458C583.752 106.734 580.07 103.5 579.794 99.2348C579.519 94.9696 582.752 91.2884 587.018 91.0124C591.283 90.7365 594.964 93.9704 595.24 98.2356Z" fill="white"/>
<path d="M629.22 96.0373C629.496 100.302 626.262 103.984 621.997 104.26C617.732 104.536 614.051 101.302 613.775 97.0365C613.499 92.7713 616.733 89.09 620.998 88.8141C625.263 88.5382 628.944 91.7721 629.22 96.0373Z" fill="white"/>
<path d="M663.2 93.8389C663.476 98.1041 660.242 101.785 655.977 102.061C651.712 102.337 648.031 99.1033 647.755 94.8382C647.479 90.573 650.713 86.8917 654.978 86.6158C659.243 86.3399 662.924 89.5738 663.2 93.8389Z" fill="white"/>
<path d="M697.18 91.6406C697.456 95.9058 694.222 99.5871 689.957 99.863C685.692 100.139 682.011 96.905 681.735 92.6399C681.459 88.3747 684.693 84.6934 688.958 84.4175C693.223 84.1415 696.904 87.3755 697.18 91.6406Z" fill="white"/>
</g>
</g>
</svg>
