<svg width="1921" height="500" viewBox="0 0 1921 500" fill="none" xmlns="http://www.w3.org/2000/svg">
<path fill-rule="evenodd" clip-rule="evenodd" d="M-1.97058 -379.5C-1.97058 -379.5 10.9403 -374.352 18.1039 -369.203C23.0784 -365.63 23.1226 -361.48 23.1226 -361.48L106.432 -364.055L290.113 -379.5C290.113 -379.5 294.977 -376.926 295.132 -371.777C295.287 -366.629 291.117 -362.857 293.125 -358.906C295.132 -354.954 310.891 -356.545 313.199 -364.055C315.508 -371.564 331.04 -383.068 334.277 -384.649C337.514 -386.23 345.168 -386.23 347.326 -384.649C349.484 -383.068 352.435 -378.496 359.37 -371.777C366.306 -365.058 397.441 -377.92 400.523 -379.5C407.181 -381.632 413.891 -382.492 420.598 -382.075C425.067 -381.284 431.259 -371.381 434.65 -371.777C438.04 -372.174 442.379 -372.974 444.687 -376.926C446.996 -380.878 467.618 -381.668 467.773 -376.926C467.927 -372.184 459.064 -371.469 460.747 -366.629C462.538 -361.48 495.992 -366.629 503.454 -368.688C512.223 -371.116 558.499 -384.85 561.119 -387.223C563.739 -389.597 590.389 -393.559 594.242 -392.372C598.095 -391.185 615.945 -392.372 619.335 -387.223C622.726 -382.075 622.125 -369.203 627.365 -369.203C632.606 -369.203 670.762 -384.253 673.536 -384.649C676.311 -385.045 711.37 -390.181 711.678 -384.649C711.986 -379.117 705.968 -380.674 707.663 -374.352C709.358 -368.029 718.478 -379.307 721.715 -382.075C724.952 -384.842 737.395 -379.5 740.786 -379.5C744.177 -379.5 765.041 -380.888 770.898 -382.075C776.755 -383.261 780.784 -392.372 782.942 -392.372C785.1 -392.372 793.762 -379.104 799.002 -379.5C804.242 -379.897 817.772 -387.223 820.08 -382.075C822.389 -376.926 803.017 -366.629 803.017 -366.629C803.017 -366.629 788.269 -355.328 787.961 -348.609C787.653 -341.89 797.998 -339.084 797.998 -333.163C797.998 -327.242 774.837 -314.352 775.916 -315.143C778.999 -317.12 756.925 -322.052 757.849 -312.568C758.774 -303.085 766.883 -299.697 766.883 -299.697L784.95 -304.845C784.957 -304.619 801.706 -312.074 806.136 -314.461C810.533 -316.831 808.036 -306.426 810.043 -304.845C814.931 -300.817 819.982 -298.226 825.099 -297.123C831.264 -296.332 842.933 -299.324 842.162 -309.994C841.391 -320.665 838.843 -320.505 839.151 -328.014C839.459 -335.523 851.196 -341.869 853.203 -338.311C855.211 -334.754 849.196 -330.769 853.203 -322.866C857.21 -314.963 874.514 -332.756 875.285 -328.014C876.056 -323.272 849.417 -313.341 848.185 -302.271C846.952 -291.202 857.301 -294.355 860.229 -297.123C863.157 -299.89 892.348 -302.271 892.348 -302.271C892.348 -302.271 901.769 -307.837 902.386 -317.717C903.002 -327.597 897.983 -330.589 897.367 -325.44C896.751 -320.291 904.393 -335.737 904.393 -335.737C904.393 -335.737 904.716 -333.163 912.423 -333.163C920.13 -333.163 918.058 -333.377 917.442 -340.886C916.825 -348.395 901.382 -358.906 901.382 -358.906C901.382 -358.906 878.04 -356.715 865.248 -351.183C852.455 -345.651 828.11 -353.757 828.11 -353.757C828.11 -353.757 836.527 -355.755 837.144 -364.055C837.544 -368.283 837.544 -372.697 837.144 -376.926C837.144 -376.926 863.936 -394.539 864.244 -389.798C864.552 -385.056 861.312 -382.268 862.237 -379.5C863.161 -376.733 911.419 -379.5 911.419 -379.5C911.419 -379.5 916.829 -393.759 919.449 -394.946C922.069 -396.133 919.299 -375.739 921.457 -376.926C923.615 -378.113 936.512 -379.5 936.512 -379.5C936.512 -379.5 937.674 -392.179 939.524 -394.946C941.373 -397.714 959.684 -406.034 964.617 -405.243C969.549 -404.453 975.045 -395.15 977.665 -397.52C980.285 -399.891 1015.81 -402.669 1015.81 -402.669H1021.83C1021.83 -402.669 992.631 -385.439 985.695 -384.649C978.759 -383.859 977.665 -374.352 977.665 -374.352C977.665 -374.352 1002 -374.159 1006.77 -376.926C1011.55 -379.693 1034.88 -387.223 1034.88 -387.223L1087.07 -400.095C1087.07 -400.095 1103.44 -402.862 1105.14 -400.095C1106.83 -397.327 1107.46 -385.643 1111.16 -387.223C1114.86 -388.804 1128.22 -392.372 1128.22 -392.372C1128.22 -392.372 1142.67 -402.072 1145.29 -400.095C1147.91 -398.118 1146.29 -389.798 1146.29 -389.798C1146.29 -389.798 1137.8 -374.138 1138.26 -366.629C1138.72 -359.12 1146.3 -357.923 1150.31 -361.48C1154.31 -365.038 1157.26 -365.465 1158.34 -376.926C1159.41 -388.387 1160.38 -387.581 1162.35 -389.798C1164.32 -392.014 1196.48 -394.946 1196.48 -394.946C1196.48 -394.946 1189.07 -388.397 1190.45 -382.075C1191.84 -375.752 1207.52 -371.777 1207.52 -371.777L1219.56 -369.203C1219.56 -369.203 1219.41 -369.427 1219.13 -369.831C1218.82 -380.108 1203.5 -392.372 1203.5 -392.372C1203.5 -392.372 1217.72 -401.879 1221.57 -402.669C1225.42 -403.459 1249.22 -390.001 1253.69 -392.372C1258.16 -394.743 1289.67 -393.963 1291.83 -397.52C1293.99 -401.078 1321.02 -407.818 1323.95 -402.669C1326.88 -397.52 1286.51 -392.745 1288.82 -382.075C1291.13 -371.404 1318.93 -369.203 1318.93 -369.203C1318.93 -369.203 1331.53 -369.993 1335.99 -369.203C1340.46 -368.413 1352.44 -376.154 1351.05 -382.075C1349.67 -387.996 1340.01 -384.649 1340.01 -384.649C1340.01 -384.649 1329.66 -374.352 1325.96 -379.5C1322.25 -384.649 1348.04 -397.52 1348.04 -397.52H1360.08C1363.63 -397.52 1368.97 -409.004 1371.13 -407.818C1372.16 -407.249 1390.83 -389.604 1398.23 -392.372C1405.62 -395.139 1426.72 -384.265 1427.33 -389.798C1427.95 -395.33 1424.32 -405.243 1424.32 -405.243L1441.39 -402.669L1443.39 -387.223C1443.39 -387.223 1414.35 -379.874 1414.29 -369.203C1414.24 -359.421 1441.85 -370.609 1442.13 -365.957C1442.13 -365.957 1457.45 -369.224 1457.45 -379.5C1457.45 -389.777 1450.03 -387.887 1452.43 -387.223C1454.83 -386.559 1461.46 -394.946 1461.46 -394.946L1458.45 -412.966L1485.55 -389.798L1490.57 -394.946C1490.57 -394.946 1490.57 -390.361 1492.58 -376.926C1494.58 -363.491 1515.66 -389.798 1515.66 -389.798C1515.66 -389.798 1525.1 -407.818 1535.74 -407.818C1540.91 -407.818 1560.07 -415.924 1566.85 -410.392C1573.64 -404.86 1607.01 -393.172 1611.02 -397.52C1615.02 -401.868 1622.37 -408.405 1624.06 -405.243C1625.76 -402.082 1622.6 -387.416 1625.07 -384.649C1627.54 -381.882 1643.13 -382.075 1643.13 -382.075C1643.13 -382.075 1642.37 -393.759 1645.14 -394.946C1647.91 -396.133 1676.26 -382.075 1676.26 -382.075L1656.18 -379.5L1662.21 -366.629C1662.21 -366.629 1607.77 -379.477 1609.01 -369.203C1610.24 -358.929 1621.05 -351.183 1621.05 -351.183L1665.22 -348.609C1665.22 -348.609 1663.45 -363.061 1666.22 -361.48C1668.99 -359.9 1690.31 -351.183 1690.31 -351.183L1696.33 -358.906L1694.32 -346.034C1694.32 -346.034 1661.67 -337.701 1665.22 -330.589C1668.76 -323.476 1703.36 -325.44 1703.36 -325.44C1703.36 -325.44 1764.96 -369.813 1757.56 -376.926C1750.16 -384.039 1791.69 -371.777 1791.69 -371.777L1785.66 -364.055C1785.66 -364.055 1758.95 -375.719 1759.57 -366.629C1760.18 -357.539 1766.21 -343.46 1769.6 -343.46C1773 -343.46 1783.66 -346.034 1783.66 -346.034L1804.73 -328.014C1804.73 -328.014 1815.52 -323.919 1818.79 -325.44C1822.05 -326.961 1837.86 -351.183 1837.86 -351.183C1837.86 -351.183 1888.12 -389.007 1861.95 -371.777C1835.77 -354.548 1843.88 -335.737 1843.88 -335.737C1841.96 -332.744 1839.94 -330.161 1837.86 -328.014C1830.54 -323.512 1818.79 -325.44 1818.79 -325.44L1789.68 -320.291L1794.7 -307.42L1743.51 -304.845C1743.51 -304.845 1735.3 -303.661 1719.42 -304.845C1703.54 -306.03 1699.5 -280.876 1703.36 -276.528C1707.21 -272.18 1744.21 -301.257 1748.53 -289.4C1752.84 -277.542 1740.51 -275.715 1744.51 -266.231C1748.52 -256.747 1748.79 -268.602 1761.57 -266.231C1774.36 -263.86 1776.87 -245.84 1781.65 -248.211C1786.43 -250.582 1793.38 -252.186 1793.69 -258.508C1794 -264.83 1765.97 -269.819 1764.59 -281.677C1763.2 -293.534 1810.76 -302.271 1810.76 -302.271H1839.86C1839.86 -302.271 1814.01 -294.932 1816.78 -289.4C1819.55 -283.867 1872.45 -287.039 1871.98 -294.548C1871.52 -302.058 1865.96 -320.291 1865.96 -320.291C1865.96 -320.291 1871.68 -309.397 1878.01 -307.42C1884.33 -305.443 1878.38 -307.193 1878.74 -307.126C1878.13 -306.73 1920.16 -312.568 1920.16 -312.568V455.034C1920.16 455.034 1895.63 423.348 1882.02 426.952C1868.41 430.556 1832.84 426.952 1832.84 426.952C1832.84 426.952 1791.45 421.001 1797.71 421.804C1803.97 422.607 1781.6 404.587 1785.66 403.784C1778 401.776 1767.3 421.237 1760.57 419.229C1753.85 417.221 1744.51 408.932 1744.51 408.932H1702.35C1702.35 408.932 1712.35 404.813 1709.38 401.209C1706.41 397.605 1547.37 389.002 1531.72 398.635C1516.07 408.268 1389.19 411.249 1392.2 411.507C1393.57 423.22 1372.13 411.507 1372.13 411.507V421.804L1376.14 426.952L1375.44 427.122C1376.02 428.868 1358.99 422.715 1353.06 426.952C1347.13 431.19 1337 455.27 1337 455.27C1337 455.27 1332.85 447.047 1328.97 447.547C1325.08 448.046 1320.43 455.352 1316.92 457.844C1313.42 460.336 1304.88 450.121 1304.88 450.121C1304.88 450.121 1318.12 448.296 1317.93 439.824C1317.74 431.352 1303.88 434.675 1303.88 434.675L1274.77 444.972L1261.72 447.547L1275.77 434.675C1275.77 434.675 1278.75 436.423 1277.78 426.952C1276.81 417.482 1268.75 421.804 1268.75 421.804C1268.75 421.804 1231 454.855 1224.58 450.121C1218.17 445.387 1154.9 465.734 1151.31 462.993C1147.72 460.251 1114.14 478.353 1113.17 483.587C1112.19 488.821 1107.28 473.954 1102.13 470.716C1096.98 467.477 1088.07 475.864 1088.07 475.864C1088.07 475.864 993.667 489.413 992.721 483.587C991.774 477.761 908.408 473.29 908.408 473.29C908.408 473.29 910.985 459.473 908.408 460.418C905.832 461.363 896.363 475.864 896.363 475.864C896.363 475.864 803.959 470.631 809.039 481.013C814.119 491.395 709.494 465.75 709.67 478.438C709.847 491.127 677.551 462.993 677.551 462.993L691.603 457.844L700.637 465.567L715.693 468.141C715.693 468.141 737.226 489.551 736.078 484.567C734.93 479.583 723.762 482.332 723.762 482.332C719.834 477.529 702.46 482.21 698.364 478.438C694.124 475.04 687.91 471.338 687.91 471.338C687.91 471.338 642.811 452.618 639.791 464.234C638.202 470.35 638.406 465.567 638.406 465.567C638.406 465.567 638.727 457.988 637.402 455.27C636.077 452.551 629.372 465.567 629.372 465.567C629.372 465.567 629.718 459.883 626.361 457.844C623.005 455.805 612.309 462.993 612.309 462.993L577.179 483.587H572.16L585.209 468.141C585.209 468.141 588.421 463.137 586.212 460.418C584.004 457.7 572.16 462.993 572.16 462.993C572.16 462.993 547.782 476.338 550.078 483.587C552.375 490.836 536.026 488.736 536.026 488.736L521.974 491.31C521.974 491.31 526.631 476.606 523.981 470.716C521.332 464.826 505.914 486.161 505.914 486.161C505.914 486.161 510.002 482.063 503.907 478.438C497.811 474.814 470.784 488.736 470.784 488.736C470.784 488.736 469.306 491.889 468.777 481.013C468.247 470.136 419.594 478.438 419.594 478.438L416.583 465.567C416.583 465.567 423.376 474.484 424.613 468.141C424.958 466.403 425.047 464.403 424.862 462.511C424.678 460.618 424.233 458.96 423.609 457.844C423.609 457.844 412.736 465.92 409.557 455.27C406.377 444.62 378.547 457.718 373.423 468.141C368.299 478.565 391.49 478.438 391.49 478.438C391.49 478.438 356.576 495.017 360.374 493.884C362.003 493.398 343.913 498.953 324.24 499.033C298.051 499.138 266.024 488.736 266.024 488.736L197.771 491.31C197.771 491.31 204.379 479.669 202.789 475.864C201.199 472.059 177.859 494.445 176.692 488.736C175.526 483.026 162.54 492.669 160.633 491.31C158.726 489.951 154.193 481.301 152.603 475.864C151.013 470.427 85.3535 470.716 85.3535 470.716C85.3535 470.716 84.5054 485.744 85.3535 488.736C86.2017 491.727 78.3274 488.736 78.3274 488.736C78.3274 488.736 72.0501 471.277 69.2939 465.567C66.5377 459.857 33.9628 476.662 32.1561 481.013C30.3494 485.363 0.0368729 483.587 0.0368729 483.587H-3.97803L-1.97058 -379.5ZM1315.92 -371.777L1738.49 -309.994Z" fill="#50D1FE"/>
</svg>
