<svg width="1921" height="388" viewBox="0 0 1921 388" fill="none" xmlns="http://www.w3.org/2000/svg">
<mask id="mask0" mask-type="alpha" maskUnits="userSpaceOnUse" x="0" y="0" width="1921" height="388">
<path fill-rule="evenodd" clip-rule="evenodd" d="M0.444891 11.9782C0.444891 11.9782 17.3146 13.7016 24.4553 15.4249C29.4139 16.6209 29.4579 18.01 29.4579 18.01L112.501 17.1483L295.597 11.9782C295.597 11.9782 300.445 12.8399 300.599 14.5632C300.753 16.2866 296.597 17.549 298.598 18.8716C300.599 20.1943 316.307 19.6618 318.609 17.1483C320.91 14.6348 336.393 10.7839 339.62 10.2548C342.846 9.72577 350.475 9.72577 352.626 10.2548C354.778 10.7839 357.719 12.3143 364.633 14.5632C371.546 16.8122 402.581 12.5073 405.654 11.9782C412.29 11.2648 418.979 10.9767 425.665 11.1165C430.12 11.3811 436.292 14.6959 439.672 14.5632C443.052 14.4305 447.376 14.1626 449.677 12.8399C451.978 11.5172 472.535 11.2527 472.689 12.8399C472.843 14.4271 464.008 14.6666 465.685 16.2866C467.471 18.01 500.819 16.2866 508.257 15.5973C516.997 14.7847 563.126 10.1876 565.738 9.39316C568.349 8.59869 594.914 7.27257 598.755 7.6698C602.596 8.06704 620.388 7.6698 623.768 9.39316C627.148 11.1165 626.548 15.4249 631.772 15.4249C636.996 15.4249 675.031 10.3875 677.796 10.2548C680.561 10.1221 715.509 8.40309 715.816 10.2548C716.123 12.1066 710.124 11.5853 711.814 13.7016C713.504 15.8178 722.594 12.0428 725.821 11.1165C729.048 10.1902 741.451 11.9782 744.831 11.9782C748.211 11.9782 769.008 11.5138 774.847 11.1165C780.685 10.7193 784.702 7.6698 786.853 7.6698C789.004 7.6698 797.638 12.1109 802.861 11.9782C808.085 11.8455 821.571 9.39316 823.872 11.1165C826.173 12.8399 806.863 16.2866 806.863 16.2866C806.863 16.2866 792.163 20.0694 791.855 22.3184C791.548 24.5673 801.861 25.5066 801.861 27.4884C801.861 29.4703 778.774 33.7847 779.849 33.5202C782.922 32.8584 760.918 31.2074 761.84 34.3819C762.761 37.5563 770.844 38.6903 770.844 38.6903L788.854 36.9669C788.861 37.0427 805.557 34.5473 809.972 33.7485C814.355 32.9549 811.866 36.4378 813.867 36.9669C818.74 38.3154 823.775 39.1826 828.875 39.5519C835.02 39.8165 846.652 38.8152 845.884 35.2435C845.115 31.6719 842.575 31.7253 842.882 29.2118C843.189 26.6983 854.888 24.5742 856.889 25.7651C858.89 26.9559 852.895 28.2898 856.889 30.9352C860.883 33.5805 878.132 27.6246 878.901 29.2118C879.669 30.799 853.115 34.1234 851.887 37.8286C850.658 41.5338 860.974 40.4783 863.893 39.5519C866.812 38.6256 895.91 37.8286 895.91 37.8286C895.91 37.8286 905.301 35.9656 905.915 32.6585C906.529 29.3514 901.527 28.3501 900.912 30.0735C900.298 31.7968 907.916 26.6268 907.916 26.6268C907.916 26.6268 908.238 27.4884 915.92 27.4884C923.602 27.4884 921.537 27.4169 920.923 24.9034C920.308 22.3899 904.914 18.8716 904.914 18.8716C904.914 18.8716 881.647 19.6049 868.896 21.4567C856.144 23.3084 831.876 20.595 831.876 20.595C831.876 20.595 840.267 19.9263 840.881 17.1483C841.281 15.7328 841.281 14.2554 840.881 12.8399C840.881 12.8399 867.588 6.94427 867.895 8.53148C868.202 10.1187 864.973 11.0519 865.894 11.9782C866.816 12.9045 914.92 11.9782 914.92 11.9782C914.92 11.9782 920.312 7.20536 922.924 6.80812C925.535 6.41089 922.774 13.2371 924.925 12.8399C927.076 12.4426 939.933 11.9782 939.933 11.9782C939.933 11.9782 941.09 7.73443 942.934 6.80812C944.778 5.88182 963.031 3.09687 967.947 3.36141C972.864 3.62594 978.343 6.74005 980.954 5.94644C983.565 5.15284 1018.97 4.22309 1018.97 4.22309H1024.98C1024.98 4.22309 995.872 9.99031 988.958 10.2548C982.045 10.5194 980.954 13.7016 980.954 13.7016C980.954 13.7016 1005.21 13.7662 1009.97 12.8399C1014.73 11.9136 1037.98 9.39316 1037.98 9.39316L1090.01 5.08476C1090.01 5.08476 1106.33 4.15846 1108.02 5.08476C1109.71 6.01107 1110.33 9.92223 1114.02 9.39316C1117.72 8.86409 1131.03 7.6698 1131.03 7.6698C1131.03 7.6698 1145.43 4.423 1148.04 5.08476C1150.65 5.74653 1149.04 8.53148 1149.04 8.53148C1149.04 8.53148 1140.58 13.7731 1141.04 16.2866C1141.5 18.8001 1149.05 19.2008 1153.04 18.01C1157.04 16.8191 1159.98 16.6761 1161.05 12.8399C1162.12 9.00368 1163.09 9.27339 1165.05 8.53148C1167.01 7.78958 1199.07 6.80812 1199.07 6.80812C1199.07 6.80812 1191.68 9.00024 1193.06 11.1165C1194.45 13.2328 1210.07 14.5632 1210.07 14.5632L1222.08 15.4249C1222.08 15.4249 1221.93 15.35 1221.65 15.2147C1221.34 11.7748 1206.07 7.6698 1206.07 7.6698C1206.07 7.6698 1220.24 4.48762 1224.08 4.22309C1227.92 3.95855 1251.65 8.46341 1256.1 7.6698C1260.55 6.8762 1291.97 7.13729 1294.12 5.94644C1296.27 4.7556 1323.21 2.49973 1326.13 4.22309C1329.06 5.94644 1288.81 7.54486 1291.12 11.1165C1293.42 14.6882 1321.13 15.4249 1321.13 15.4249C1321.13 15.4249 1333.69 15.1604 1338.14 15.4249C1342.59 15.6895 1354.53 13.0984 1353.15 11.1165C1351.77 9.13466 1342.14 10.2548 1342.14 10.2548C1342.14 10.2548 1331.83 13.7016 1328.14 11.9782C1324.44 10.2548 1350.15 5.94644 1350.15 5.94644H1362.15C1365.68 5.94644 1371.01 2.10249 1373.16 2.49973C1374.19 2.69016 1392.8 8.59611 1400.17 7.6698C1407.55 6.7435 1428.58 10.3832 1429.19 8.53148C1429.8 6.67973 1426.19 3.36141 1426.19 3.36141L1443.2 4.22309L1445.2 9.39316C1445.2 9.39316 1416.24 11.8533 1416.18 15.4249C1416.13 18.6993 1443.66 14.9544 1443.94 16.5115C1443.94 16.5115 1459.2 15.418 1459.2 11.9782C1459.2 8.53838 1451.81 9.17085 1454.2 9.39316C1456.59 9.61548 1463.21 6.80812 1463.21 6.80812L1460.2 0.776367L1487.22 8.53148L1492.22 6.80812C1492.22 6.80812 1492.22 8.34278 1494.22 12.8399C1496.22 17.337 1517.23 8.53148 1517.23 8.53148C1517.23 8.53148 1526.64 2.49973 1537.24 2.49973C1542.4 2.49973 1561.5 -0.213702 1568.26 1.63805C1575.02 3.4898 1608.29 7.40182 1612.28 5.94644C1616.28 4.49107 1623.6 2.30326 1625.29 3.36141C1626.98 4.41955 1623.83 9.32854 1626.29 10.2548C1628.75 11.1811 1644.3 11.1165 1644.3 11.1165C1644.3 11.1165 1643.54 7.20536 1646.3 6.80812C1649.06 6.41089 1677.32 11.1165 1677.32 11.1165L1657.31 11.9782L1663.31 16.2866C1663.31 16.2866 1609.05 11.986 1610.28 15.4249C1611.51 18.8639 1622.29 21.4567 1622.29 21.4567L1666.31 22.3184C1666.31 22.3184 1664.55 17.4809 1667.31 18.01C1670.07 18.539 1691.32 21.4567 1691.32 21.4567L1697.33 18.8716L1695.33 23.18C1695.33 23.18 1662.78 25.9693 1666.31 28.3501C1669.84 30.7309 1704.33 30.0735 1704.33 30.0735C1704.33 30.0735 1765.73 15.2207 1758.36 12.8399C1750.99 10.4591 1792.38 14.5632 1792.38 14.5632L1786.37 17.1483C1786.37 17.1483 1759.75 13.244 1760.36 16.2866C1760.97 19.3292 1766.98 24.0417 1770.37 24.0417C1773.75 24.0417 1784.37 23.18 1784.37 23.18L1805.38 29.2118C1805.38 29.2118 1816.14 30.5827 1819.39 30.0735C1822.64 29.5642 1838.4 21.4567 1838.4 21.4567C1838.4 21.4567 1888.51 8.79602 1862.41 14.5632C1836.32 20.3305 1844.4 26.6268 1844.4 26.6268C1842.49 27.6286 1840.48 28.4932 1838.4 29.2118C1831.11 30.7189 1819.39 30.0735 1819.39 30.0735L1790.38 31.7968L1795.38 36.1052L1744.35 36.9669C1744.35 36.9669 1736.17 37.3633 1720.34 36.9669C1704.51 36.5705 1700.49 44.99 1704.33 46.4454C1708.17 47.9008 1745.05 38.1681 1749.35 42.137C1753.66 46.1059 1741.36 46.7177 1745.35 49.8921C1749.34 53.0665 1749.61 49.0985 1762.36 49.8921C1775.11 50.6857 1777.61 56.7175 1782.37 55.9239C1787.13 55.1303 1794.07 54.5934 1794.38 52.4771C1794.69 50.3609 1766.74 48.6909 1765.36 44.722C1763.98 40.7531 1811.39 37.8286 1811.39 37.8286H1840.4C1840.4 37.8286 1814.63 40.2852 1817.39 42.137C1820.15 43.9887 1872.88 42.9271 1872.42 40.4136C1871.96 37.9001 1866.42 31.7968 1866.42 31.7968C1866.42 31.7968 1872.12 35.4435 1878.42 36.1052C1884.73 36.767 1878.79 36.1811 1879.15 36.2035C1878.54 36.3362 1920.44 34.3819 1920.44 34.3819L1920.44 373.128C1920.44 373.128 1895.99 362.443 1882.42 363.649C1868.86 364.855 1833.4 363.649 1833.4 363.649C1833.4 363.649 1792.14 361.657 1798.38 361.926C1804.62 362.195 1782.32 356.163 1786.37 355.894C1778.73 355.222 1768.06 361.736 1761.36 361.064C1754.66 360.392 1745.35 357.617 1745.35 357.617H1703.33C1703.33 357.617 1713.3 356.239 1710.33 355.032C1707.37 353.826 1548.84 350.946 1533.24 354.171C1517.64 357.395 1391.17 358.393 1394.17 358.479C1395.53 362.4 1374.16 358.479 1374.16 358.479V361.926L1378.16 363.649L1377.46 363.706C1378.04 364.29 1361.06 362.231 1355.15 363.649C1349.24 365.067 1339.14 373.128 1339.14 373.128C1339.14 373.128 1335.01 370.375 1331.14 370.543C1327.26 370.71 1322.62 373.155 1319.13 373.989C1315.64 374.823 1307.12 371.404 1307.12 371.404C1307.12 371.404 1320.32 370.793 1320.13 367.957C1319.94 365.122 1306.12 366.234 1306.12 366.234L1277.11 369.681L1264.1 370.543L1278.11 366.234C1278.11 366.234 1281.08 366.819 1280.11 363.649C1279.14 360.479 1271.11 361.926 1271.11 361.926C1271.11 361.926 1233.48 372.989 1227.08 371.404C1220.69 369.82 1157.63 376.63 1154.04 375.713C1150.46 374.795 1116.99 380.854 1116.02 382.606C1115.05 384.358 1110.15 379.382 1105.02 378.298C1099.89 377.214 1091.01 380.021 1091.01 380.021C1091.01 380.021 996.905 384.556 995.962 382.606C995.018 380.656 911.918 379.159 911.918 379.159C911.918 379.159 914.486 374.535 911.918 374.851C909.35 375.167 899.912 380.021 899.912 380.021C899.912 380.021 807.803 378.269 812.866 381.744C817.93 385.22 713.639 376.635 713.815 380.883C713.991 385.13 681.798 375.713 681.798 375.713L695.805 373.989L704.81 376.574L719.818 377.436C719.818 377.436 723.964 373.934 722.819 372.266C721.675 370.598 709.813 371.404 709.813 371.404C705.897 369.796 701.89 368.358 697.806 367.096C693.58 365.958 688.802 370.543 688.802 370.543C688.802 370.543 653.791 369.24 650.782 373.128C649.197 375.175 642.778 376.574 642.778 376.574C642.778 376.574 643.098 374.037 641.777 373.128C640.456 372.218 633.773 376.574 633.773 376.574C633.773 376.574 634.117 374.672 630.771 373.989C627.426 373.307 616.764 375.713 616.764 375.713L581.746 382.606H576.743L589.75 377.436C589.75 377.436 592.952 375.761 590.751 374.851C588.549 373.941 576.743 375.713 576.743 375.713C576.743 375.713 552.443 380.18 554.732 382.606C557.021 385.033 540.724 384.329 540.724 384.329L526.717 385.191C526.717 385.191 531.36 380.269 528.718 378.298C526.077 376.326 510.709 383.468 510.709 383.468C510.709 383.468 514.784 382.096 508.708 380.883C502.632 379.669 475.691 384.329 475.691 384.329C475.691 384.329 474.218 385.385 473.69 381.744C473.161 378.104 424.664 380.883 424.664 380.883L421.662 376.574C421.662 376.574 428.434 379.559 429.667 377.436C430.011 376.854 430.099 376.185 429.916 375.551C429.732 374.918 429.288 374.363 428.666 373.989C428.666 373.989 417.828 376.692 414.659 373.128C411.489 369.563 383.748 373.947 378.64 377.436C373.532 380.925 396.649 380.883 396.649 380.883C396.649 380.883 361.847 386.432 365.633 386.053C367.257 385.89 349.225 387.749 329.614 387.776C303.509 387.811 271.584 384.329 271.584 384.329L203.549 385.191C203.549 385.191 210.136 381.295 208.551 380.021C206.966 378.747 183.7 386.241 182.538 384.329C181.375 382.418 168.43 385.646 166.529 385.191C164.628 384.736 160.11 381.841 158.525 380.021C156.94 378.201 91.4903 378.298 91.4903 378.298C91.4903 378.298 90.6448 383.328 91.4903 384.329C92.3357 385.331 84.4866 384.329 84.4866 384.329C84.4866 384.329 78.2294 378.485 75.4819 376.574C72.7345 374.663 40.2636 380.288 38.4626 381.744C36.6617 383.201 6.44593 382.606 6.44593 382.606H0.443848L0.444891 11.9782ZM1318.13 14.5632L1739.35 35.2435L1318.13 14.5632Z" fill="#50D1FE"/>
</mask>
<g mask="url(#mask0)">
<rect x="738.164" y="-131.744" width="631.241" height="520.529"/>
</g>
</svg>
