<svg width="298" height="379" viewBox="0 0 298 379" fill="none" xmlns="http://www.w3.org/2000/svg">
<g opacity="0.2">
<mask id="mask0" mask-type="alpha" maskUnits="userSpaceOnUse" x="159" y="205" width="184" height="185">
<path d="M193.958 262.723C208.849 232.909 312.209 249.513 326.456 265.376C340.703 281.239 286.261 388.801 257.909 378.796C229.557 368.791 179.066 292.537 193.958 262.723Z" fill="white"/>
</mask>
<g mask="url(#mask0)">
<path d="M261.435 291.891C263.049 292.785 263.633 294.818 262.739 296.432C261.845 298.046 259.812 298.629 258.198 297.735C256.584 296.841 256 294.808 256.894 293.194C257.788 291.581 259.821 290.997 261.435 291.891Z" fill="white"/>
<path d="M268.557 279.033C270.171 279.927 270.755 281.96 269.861 283.574C268.967 285.188 266.934 285.772 265.32 284.878C263.706 283.984 263.122 281.951 264.016 280.337C264.91 278.723 266.943 278.139 268.557 279.033Z" fill="white"/>
<path d="M275.679 266.175C277.293 267.069 277.876 269.102 276.983 270.716C276.089 272.33 274.056 272.914 272.442 272.02C270.828 271.126 270.244 269.093 271.138 267.479C272.032 265.865 274.065 265.282 275.679 266.175Z" fill="white"/>
<path d="M282.801 253.318C284.415 254.212 284.998 256.245 284.104 257.859C283.211 259.472 281.178 260.056 279.564 259.162C277.95 258.268 277.366 256.235 278.26 254.621C279.154 253.007 281.187 252.424 282.801 253.318Z" fill="white"/>
<path d="M289.923 240.46C291.537 241.354 292.12 243.387 291.226 245.001C290.332 246.615 288.299 247.198 286.686 246.304C285.072 245.411 284.488 243.378 285.382 241.764C286.276 240.15 288.309 239.566 289.923 240.46Z" fill="white"/>
<path d="M274.293 299.013C275.907 299.907 276.49 301.94 275.596 303.554C274.703 305.168 272.67 305.751 271.056 304.857C269.442 303.963 268.858 301.93 269.752 300.316C270.646 298.702 272.679 298.119 274.293 299.013Z" fill="white"/>
<path d="M281.415 286.155C283.029 287.049 283.612 289.082 282.718 290.696C281.824 292.31 279.791 292.893 278.178 291.999C276.564 291.106 275.98 289.073 276.874 287.459C277.768 285.845 279.801 285.261 281.415 286.155Z" fill="white"/>
<path d="M288.537 273.297C290.151 274.191 290.734 276.224 289.84 277.838C288.946 279.452 286.913 280.036 285.299 279.142C283.686 278.248 283.102 276.215 283.996 274.601C284.89 272.987 286.923 272.403 288.537 273.297Z" fill="white"/>
<path d="M295.659 260.44C297.272 261.334 297.856 263.367 296.962 264.98C296.068 266.594 294.035 267.178 292.421 266.284C290.807 265.39 290.224 263.357 291.118 261.743C292.012 260.129 294.045 259.546 295.659 260.44Z" fill="white"/>
<path d="M302.78 247.582C304.394 248.476 304.978 250.509 304.084 252.123C303.19 253.737 301.157 254.32 299.543 253.426C297.929 252.532 297.346 250.499 298.24 248.886C299.134 247.272 301.167 246.688 302.78 247.582Z" fill="white"/>
<path d="M287.151 306.135C288.764 307.029 289.348 309.062 288.454 310.676C287.56 312.289 285.527 312.873 283.913 311.979C282.299 311.085 281.716 309.052 282.61 307.438C283.504 305.824 285.537 305.241 287.151 306.135Z" fill="white"/>
<path d="M294.272 293.277C295.886 294.171 296.47 296.204 295.576 297.818C294.682 299.432 292.649 300.015 291.035 299.121C289.421 298.227 288.838 296.194 289.732 294.581C290.626 292.967 292.659 292.383 294.272 293.277Z" fill="white"/>
<path d="M301.394 280.419C303.008 281.313 303.592 283.346 302.698 284.96C301.804 286.574 299.771 287.158 298.157 286.264C296.543 285.37 295.96 283.337 296.854 281.723C297.748 280.109 299.781 279.525 301.394 280.419Z" fill="white"/>
<path d="M308.516 267.562C310.13 268.456 310.714 270.488 309.82 272.102C308.926 273.716 306.893 274.3 305.279 273.406C303.665 272.512 303.082 270.479 303.975 268.865C304.869 267.251 306.902 266.668 308.516 267.562Z" fill="white"/>
<path d="M315.638 254.704C317.252 255.598 317.836 257.631 316.942 259.245C316.048 260.859 314.015 261.442 312.401 260.548C310.787 259.654 310.203 257.621 311.097 256.007C311.991 254.394 314.024 253.81 315.638 254.704Z" fill="white"/>
<path d="M300.008 313.257C301.622 314.151 302.206 316.184 301.312 317.797C300.418 319.411 298.385 319.995 296.771 319.101C295.157 318.207 294.574 316.174 295.467 314.56C296.361 312.946 298.394 312.363 300.008 313.257Z" fill="white"/>
<path d="M307.13 300.399C308.744 301.293 309.328 303.326 308.434 304.94C307.54 306.554 305.507 307.137 303.893 306.243C302.279 305.349 301.695 303.316 302.589 301.702C303.483 300.089 305.516 299.505 307.13 300.399Z" fill="white"/>
<path d="M314.252 287.541C315.866 288.435 316.45 290.468 315.556 292.082C314.662 293.696 312.629 294.28 311.015 293.386C309.401 292.492 308.817 290.459 309.711 288.845C310.605 287.231 312.638 286.647 314.252 287.541Z" fill="white"/>
<path d="M321.374 274.683C322.988 275.577 323.572 277.61 322.678 279.224C321.784 280.838 319.751 281.422 318.137 280.528C316.523 279.634 315.939 277.601 316.833 275.987C317.727 274.373 319.76 273.79 321.374 274.683Z" fill="white"/>
<path d="M328.496 261.826C330.11 262.72 330.693 264.753 329.8 266.367C328.906 267.98 326.873 268.564 325.259 267.67C323.645 266.776 323.061 264.743 323.955 263.129C324.849 261.515 326.882 260.932 328.496 261.826Z" fill="white"/>
<path d="M312.866 320.378C314.48 321.272 315.064 323.305 314.17 324.919C313.276 326.533 311.243 327.117 309.629 326.223C308.015 325.329 307.431 323.296 308.325 321.682C309.219 320.068 311.252 319.485 312.866 320.378Z" fill="white"/>
<path d="M319.988 307.521C321.602 308.415 322.185 310.448 321.291 312.062C320.398 313.675 318.365 314.259 316.751 313.365C315.137 312.471 314.553 310.438 315.447 308.824C316.341 307.21 318.374 306.627 319.988 307.521Z" fill="white"/>
<path d="M327.11 294.663C328.724 295.557 329.307 297.59 328.413 299.204C327.519 300.818 325.486 301.401 323.873 300.507C322.259 299.614 321.675 297.581 322.569 295.967C323.463 294.353 325.496 293.769 327.11 294.663Z" fill="white"/>
<path d="M334.232 281.805C335.846 282.699 336.429 284.732 335.535 286.346C334.641 287.96 332.608 288.544 330.994 287.65C329.381 286.756 328.797 284.723 329.691 283.109C330.585 281.495 332.618 280.911 334.232 281.805Z" fill="white"/>
<path d="M341.354 268.948C342.967 269.842 343.551 271.875 342.657 273.488C341.763 275.102 339.73 275.686 338.116 274.792C336.502 273.898 335.919 271.865 336.813 270.251C337.707 268.637 339.74 268.054 341.354 268.948Z" fill="white"/>
<path d="M226.804 354.413C228.418 355.307 229.002 357.34 228.108 358.954C227.214 360.567 225.181 361.151 223.567 360.257C221.953 359.363 221.369 357.33 222.263 355.716C223.157 354.102 225.19 353.519 226.804 354.413Z" fill="white"/>
<path d="M233.926 341.555C235.54 342.449 236.124 344.482 235.23 346.096C234.336 347.71 232.303 348.293 230.689 347.399C229.075 346.505 228.491 344.472 229.385 342.859C230.279 341.245 232.312 340.661 233.926 341.555Z" fill="white"/>
<path d="M241.048 328.697C242.662 329.591 243.246 331.624 242.352 333.238C241.458 334.852 239.425 335.436 237.811 334.542C236.197 333.648 235.613 331.615 236.507 330.001C237.401 328.387 239.434 327.803 241.048 328.697Z" fill="white"/>
<path d="M248.17 315.84C249.784 316.733 250.367 318.766 249.474 320.38C248.58 321.994 246.547 322.578 244.933 321.684C243.319 320.79 242.735 318.757 243.629 317.143C244.523 315.529 246.556 314.946 248.17 315.84Z" fill="white"/>
<path d="M255.292 302.982C256.906 303.876 257.489 305.909 256.595 307.523C255.701 309.137 253.669 309.72 252.055 308.826C250.441 307.932 249.857 305.899 250.751 304.285C251.645 302.672 253.678 302.088 255.292 302.982Z" fill="white"/>
<path d="M239.662 361.535C241.276 362.429 241.859 364.462 240.966 366.075C240.072 367.689 238.039 368.273 236.425 367.379C234.811 366.485 234.227 364.452 235.121 362.838C236.015 361.224 238.048 360.641 239.662 361.535Z" fill="white"/>
<path d="M246.784 348.677C248.398 349.571 248.981 351.604 248.087 353.218C247.194 354.832 245.161 355.415 243.547 354.521C241.933 353.627 241.349 351.594 242.243 349.98C243.137 348.367 245.17 347.783 246.784 348.677Z" fill="white"/>
<path d="M253.906 335.819C255.52 336.713 256.103 338.746 255.209 340.36C254.315 341.974 252.282 342.558 250.669 341.664C249.055 340.77 248.471 338.737 249.365 337.123C250.259 335.509 252.292 334.925 253.906 335.819Z" fill="white"/>
<path d="M261.028 322.961C262.642 323.855 263.225 325.888 262.331 327.502C261.437 329.116 259.404 329.7 257.79 328.806C256.177 327.912 255.593 325.879 256.487 324.265C257.381 322.651 259.414 322.068 261.028 322.961Z" fill="white"/>
<path d="M268.15 310.104C269.763 310.998 270.347 313.031 269.453 314.645C268.559 316.258 266.526 316.842 264.912 315.948C263.298 315.054 262.715 313.021 263.609 311.407C264.503 309.793 266.536 309.21 268.15 310.104Z" fill="white"/>
<path d="M252.52 368.657C254.134 369.55 254.717 371.583 253.823 373.197C252.929 374.811 250.896 375.395 249.282 374.501C247.669 373.607 247.085 371.574 247.979 369.96C248.873 368.346 250.906 367.763 252.52 368.657Z" fill="white"/>
<path d="M259.642 355.799C261.255 356.693 261.839 358.726 260.945 360.34C260.051 361.954 258.018 362.537 256.404 361.643C254.79 360.749 254.207 358.716 255.101 357.102C255.995 355.488 258.028 354.905 259.642 355.799Z" fill="white"/>
<path d="M266.763 342.941C268.377 343.835 268.961 345.868 268.067 347.482C267.173 349.096 265.14 349.679 263.526 348.786C261.912 347.892 261.329 345.859 262.223 344.245C263.117 342.631 265.15 342.047 266.763 342.941Z" fill="white"/>
<path d="M273.885 330.083C275.499 330.977 276.083 333.01 275.189 334.624C274.295 336.238 272.262 336.822 270.648 335.928C269.034 335.034 268.451 333.001 269.345 331.387C270.238 329.773 272.271 329.189 273.885 330.083Z" fill="white"/>
<path d="M281.007 317.226C282.621 318.12 283.205 320.153 282.311 321.766C281.417 323.38 279.384 323.964 277.77 323.07C276.156 322.176 275.573 320.143 276.466 318.529C277.36 316.915 279.393 316.332 281.007 317.226Z" fill="white"/>
<path d="M265.377 375.778C266.991 376.672 267.575 378.705 266.681 380.319C265.787 381.933 263.754 382.517 262.14 381.623C260.526 380.729 259.943 378.696 260.837 377.082C261.73 375.468 263.763 374.884 265.377 375.778Z" fill="white"/>
<path d="M272.499 362.921C274.113 363.815 274.697 365.848 273.803 367.462C272.909 369.075 270.876 369.659 269.262 368.765C267.648 367.871 267.065 365.838 267.958 364.224C268.852 362.61 270.885 362.027 272.499 362.921Z" fill="white"/>
<path d="M279.621 350.063C281.235 350.957 281.819 352.99 280.925 354.604C280.031 356.218 277.998 356.801 276.384 355.907C274.77 355.013 274.186 352.98 275.08 351.367C275.974 349.753 278.007 349.169 279.621 350.063Z" fill="white"/>
<path d="M286.743 337.205C288.357 338.099 288.941 340.132 288.047 341.746C287.153 343.36 285.12 343.944 283.506 343.05C281.892 342.156 281.308 340.123 282.202 338.509C283.096 336.895 285.129 336.311 286.743 337.205Z" fill="white"/>
<path d="M293.865 324.348C295.479 325.242 296.063 327.275 295.169 328.888C294.275 330.502 292.242 331.086 290.628 330.192C289.014 329.298 288.43 327.265 289.324 325.651C290.218 324.037 292.251 323.454 293.865 324.348Z" fill="white"/>
<path d="M278.235 382.9C279.849 383.794 280.433 385.827 279.539 387.441C278.645 389.055 276.612 389.639 274.998 388.745C273.384 387.851 272.8 385.818 273.694 384.204C274.588 382.59 276.621 382.006 278.235 382.9Z" fill="white"/>
<path d="M285.357 370.043C286.971 370.937 287.554 372.97 286.661 374.583C285.767 376.197 283.734 376.781 282.12 375.887C280.506 374.993 279.922 372.96 280.816 371.346C281.71 369.732 283.743 369.149 285.357 370.043Z" fill="white"/>
<path d="M292.479 357.185C294.093 358.079 294.676 360.112 293.782 361.726C292.889 363.34 290.856 363.923 289.242 363.029C287.628 362.135 287.044 360.102 287.938 358.488C288.832 356.875 290.865 356.291 292.479 357.185Z" fill="white"/>
<path d="M299.601 344.327C301.215 345.221 301.798 347.254 300.904 348.868C300.01 350.482 297.977 351.066 296.364 350.172C294.75 349.278 294.166 347.245 295.06 345.631C295.954 344.017 297.987 343.433 299.601 344.327Z" fill="white"/>
<path d="M306.723 331.469C308.337 332.363 308.92 334.396 308.026 336.01C307.132 337.624 305.099 338.208 303.485 337.314C301.872 336.42 301.288 334.387 302.182 332.773C303.076 331.159 305.109 330.576 306.723 331.469Z" fill="white"/>
<path d="M198.913 257.26C200.527 258.154 201.111 260.187 200.217 261.801C199.323 263.415 197.29 263.998 195.676 263.104C194.062 262.21 193.479 260.177 194.372 258.564C195.266 256.95 197.299 256.366 198.913 257.26Z" fill="white"/>
<path d="M206.035 244.402C207.649 245.296 208.233 247.329 207.339 248.943C206.445 250.557 204.412 251.141 202.798 250.247C201.184 249.353 200.6 247.32 201.494 245.706C202.388 244.092 204.421 243.508 206.035 244.402Z" fill="white"/>
<path d="M213.157 231.545C214.771 232.438 215.355 234.471 214.461 236.085C213.567 237.699 211.534 238.283 209.92 237.389C208.306 236.495 207.722 234.462 208.616 232.848C209.51 231.234 211.543 230.651 213.157 231.545Z" fill="white"/>
<path d="M220.279 218.687C221.893 219.581 222.477 221.614 221.583 223.228C220.689 224.842 218.656 225.425 217.042 224.531C215.428 223.637 214.844 221.604 215.738 219.99C216.632 218.377 218.665 217.793 220.279 218.687Z" fill="white"/>
<path d="M227.401 205.829C229.015 206.723 229.598 208.756 228.705 210.37C227.811 211.984 225.778 212.567 224.164 211.674C222.55 210.78 221.966 208.747 222.86 207.133C223.754 205.519 225.787 204.935 227.401 205.829Z" fill="white"/>
<path d="M211.771 264.382C213.385 265.276 213.969 267.309 213.075 268.923C212.181 270.537 210.148 271.12 208.534 270.226C206.92 269.332 206.336 267.299 207.23 265.685C208.124 264.072 210.157 263.488 211.771 264.382Z" fill="white"/>
<path d="M218.893 251.524C220.507 252.418 221.09 254.451 220.197 256.065C219.303 257.679 217.27 258.262 215.656 257.369C214.042 256.475 213.458 254.442 214.352 252.828C215.246 251.214 217.279 250.63 218.893 251.524Z" fill="white"/>
<path d="M226.015 238.666C227.629 239.56 228.212 241.593 227.318 243.207C226.425 244.821 224.392 245.405 222.778 244.511C221.164 243.617 220.58 241.584 221.474 239.97C222.368 238.356 224.401 237.772 226.015 238.666Z" fill="white"/>
<path d="M233.137 225.809C234.751 226.703 235.334 228.736 234.44 230.35C233.546 231.963 231.513 232.547 229.9 231.653C228.286 230.759 227.702 228.726 228.596 227.112C229.49 225.498 231.523 224.915 233.137 225.809Z" fill="white"/>
<path d="M240.259 212.951C241.873 213.845 242.456 215.878 241.562 217.492C240.668 219.106 238.635 219.689 237.021 218.795C235.408 217.901 234.824 215.868 235.718 214.255C236.612 212.641 238.645 212.057 240.259 212.951Z" fill="white"/>
<path d="M224.629 271.504C226.243 272.398 226.826 274.431 225.932 276.045C225.038 277.658 223.005 278.242 221.392 277.348C219.778 276.454 219.194 274.421 220.088 272.807C220.982 271.193 223.015 270.61 224.629 271.504Z" fill="white"/>
<path d="M231.751 258.646C233.365 259.54 233.948 261.573 233.054 263.187C232.16 264.801 230.127 265.384 228.513 264.49C226.9 263.597 226.316 261.564 227.21 259.95C228.104 258.336 230.137 257.752 231.751 258.646Z" fill="white"/>
<path d="M238.873 245.788C240.486 246.682 241.07 248.715 240.176 250.329C239.282 251.943 237.249 252.527 235.635 251.633C234.021 250.739 233.438 248.706 234.332 247.092C235.226 245.478 237.259 244.894 238.873 245.788Z" fill="white"/>
<path d="M245.994 232.931C247.608 233.825 248.192 235.858 247.298 237.471C246.404 239.085 244.371 239.669 242.757 238.775C241.143 237.881 240.56 235.848 241.454 234.234C242.348 232.62 244.381 232.037 245.994 232.931Z" fill="white"/>
<path d="M253.116 220.073C254.73 220.967 255.314 223 254.42 224.614C253.526 226.228 251.493 226.811 249.879 225.917C248.265 225.023 247.682 222.99 248.576 221.377C249.469 219.763 251.502 219.179 253.116 220.073Z" fill="white"/>
<path d="M237.486 278.626C239.1 279.52 239.684 281.553 238.79 283.166C237.896 284.78 235.863 285.364 234.249 284.47C232.635 283.576 232.052 281.543 232.946 279.929C233.84 278.315 235.873 277.732 237.486 278.626Z" fill="white"/>
<path d="M244.608 265.768C246.222 266.662 246.806 268.695 245.912 270.309C245.018 271.923 242.985 272.506 241.371 271.612C239.757 270.718 239.174 268.685 240.068 267.072C240.961 265.458 242.994 264.874 244.608 265.768Z" fill="white"/>
<path d="M251.73 252.91C253.344 253.804 253.928 255.837 253.034 257.451C252.14 259.065 250.107 259.649 248.493 258.755C246.879 257.861 246.296 255.828 247.189 254.214C248.083 252.6 250.116 252.016 251.73 252.91Z" fill="white"/>
<path d="M258.852 240.053C260.466 240.946 261.05 242.979 260.156 244.593C259.262 246.207 257.229 246.791 255.615 245.897C254.001 245.003 253.417 242.97 254.311 241.356C255.205 239.742 257.238 239.159 258.852 240.053Z" fill="white"/>
<path d="M265.974 227.195C267.588 228.089 268.172 230.122 267.278 231.736C266.384 233.35 264.351 233.933 262.737 233.039C261.123 232.145 260.539 230.112 261.433 228.498C262.327 226.885 264.36 226.301 265.974 227.195Z" fill="white"/>
<path d="M250.344 285.748C251.958 286.641 252.542 288.674 251.648 290.288C250.754 291.902 248.721 292.486 247.107 291.592C245.493 290.698 244.909 288.665 245.803 287.051C246.697 285.437 248.73 284.854 250.344 285.748Z" fill="white"/>
<path d="M257.466 272.89C259.08 273.784 259.664 275.817 258.77 277.431C257.876 279.045 255.843 279.628 254.229 278.734C252.615 277.84 252.031 275.807 252.925 274.193C253.819 272.58 255.852 271.996 257.466 272.89Z" fill="white"/>
<path d="M264.588 260.032C266.202 260.926 266.785 262.959 265.892 264.573C264.998 266.187 262.965 266.77 261.351 265.877C259.737 264.983 259.153 262.95 260.047 261.336C260.941 259.722 262.974 259.138 264.588 260.032Z" fill="white"/>
<path d="M271.71 247.174C273.324 248.068 273.907 250.101 273.013 251.715C272.12 253.329 270.087 253.913 268.473 253.019C266.859 252.125 266.275 250.092 267.169 248.478C268.063 246.864 270.096 246.28 271.71 247.174Z" fill="white"/>
<path d="M278.832 234.317C280.446 235.211 281.029 237.244 280.135 238.858C279.241 240.471 277.208 241.055 275.595 240.161C273.981 239.267 273.397 237.234 274.291 235.62C275.185 234.006 277.218 233.423 278.832 234.317Z" fill="white"/>
<path d="M164.282 319.782C165.896 320.676 166.48 322.709 165.586 324.323C164.692 325.936 162.659 326.52 161.045 325.626C159.431 324.732 158.848 322.699 159.742 321.085C160.636 319.471 162.668 318.888 164.282 319.782Z" fill="white"/>
<path d="M171.404 306.924C173.018 307.818 173.602 309.851 172.708 311.465C171.814 313.079 169.781 313.662 168.167 312.768C166.553 311.875 165.97 309.842 166.863 308.228C167.757 306.614 169.79 306.03 171.404 306.924Z" fill="white"/>
<path d="M178.526 294.066C180.14 294.96 180.724 296.993 179.83 298.607C178.936 300.221 176.903 300.805 175.289 299.911C173.675 299.017 173.091 296.984 173.985 295.37C174.879 293.756 176.912 293.172 178.526 294.066Z" fill="white"/>
<path d="M185.648 281.209C187.262 282.103 187.846 284.136 186.952 285.749C186.058 287.363 184.025 287.947 182.411 287.053C180.797 286.159 180.213 284.126 181.107 282.512C182.001 280.898 184.034 280.315 185.648 281.209Z" fill="white"/>
<path d="M192.77 268.351C194.384 269.245 194.968 271.278 194.074 272.892C193.18 274.506 191.147 275.089 189.533 274.195C187.919 273.301 187.335 271.268 188.229 269.655C189.123 268.041 191.156 267.457 192.77 268.351Z" fill="white"/>
<path d="M177.14 326.904C178.754 327.798 179.338 329.831 178.444 331.444C177.55 333.058 175.517 333.642 173.903 332.748C172.289 331.854 171.705 329.821 172.599 328.207C173.493 326.593 175.526 326.01 177.14 326.904Z" fill="white"/>
<path d="M184.262 314.046C185.876 314.94 186.46 316.973 185.566 318.587C184.672 320.201 182.639 320.784 181.025 319.89C179.411 318.996 178.827 316.963 179.721 315.35C180.615 313.736 182.648 313.152 184.262 314.046Z" fill="white"/>
<path d="M191.384 301.188C192.998 302.082 193.581 304.115 192.688 305.729C191.794 307.343 189.761 307.927 188.147 307.033C186.533 306.139 185.949 304.106 186.843 302.492C187.737 300.878 189.77 300.294 191.384 301.188Z" fill="white"/>
<path d="M198.506 288.331C200.12 289.224 200.703 291.257 199.809 292.871C198.915 294.485 196.882 295.069 195.269 294.175C193.655 293.281 193.071 291.248 193.965 289.634C194.859 288.02 196.892 287.437 198.506 288.331Z" fill="white"/>
<path d="M205.628 275.473C207.242 276.367 207.825 278.4 206.931 280.014C206.037 281.628 204.004 282.211 202.39 281.317C200.777 280.423 200.193 278.39 201.087 276.776C201.981 275.163 204.014 274.579 205.628 275.473Z" fill="white"/>
<path d="M189.998 334.026C191.612 334.92 192.195 336.952 191.301 338.566C190.407 340.18 188.374 340.764 186.761 339.87C185.147 338.976 184.563 336.943 185.457 335.329C186.351 333.715 188.384 333.132 189.998 334.026Z" fill="white"/>
<path d="M197.12 321.168C198.734 322.062 199.317 324.095 198.423 325.709C197.529 327.323 195.496 327.906 193.882 327.012C192.269 326.118 191.685 324.085 192.579 322.471C193.473 320.858 195.506 320.274 197.12 321.168Z" fill="white"/>
<path d="M204.242 308.31C205.856 309.204 206.439 311.237 205.545 312.851C204.651 314.465 202.618 315.048 201.004 314.155C199.391 313.261 198.807 311.228 199.701 309.614C200.595 308 202.628 307.416 204.242 308.31Z" fill="white"/>
<path d="M211.364 295.452C212.977 296.346 213.561 298.379 212.667 299.993C211.773 301.607 209.74 302.191 208.126 301.297C206.512 300.403 205.929 298.37 206.823 296.756C207.717 295.142 209.75 294.558 211.364 295.452Z" fill="white"/>
<path d="M218.485 282.595C220.099 283.489 220.683 285.522 219.789 287.136C218.895 288.749 216.862 289.333 215.248 288.439C213.634 287.545 213.051 285.512 213.945 283.898C214.839 282.284 216.872 281.701 218.485 282.595Z" fill="white"/>
<path d="M202.856 341.147C204.469 342.041 205.053 344.074 204.159 345.688C203.265 347.302 201.232 347.886 199.618 346.992C198.004 346.098 197.421 344.065 198.315 342.451C199.209 340.837 201.242 340.254 202.856 341.147Z" fill="white"/>
<path d="M209.977 328.29C211.591 329.184 212.175 331.217 211.281 332.831C210.387 334.444 208.354 335.028 206.74 334.134C205.126 333.24 204.543 331.207 205.437 329.593C206.331 327.979 208.364 327.396 209.977 328.29Z" fill="white"/>
<path d="M217.099 315.432C218.713 316.326 219.297 318.359 218.403 319.973C217.509 321.587 215.476 322.17 213.862 321.276C212.248 320.383 211.665 318.35 212.559 316.736C213.452 315.122 215.485 314.538 217.099 315.432Z" fill="white"/>
<path d="M224.221 302.574C225.835 303.468 226.419 305.501 225.525 307.115C224.631 308.729 222.598 309.313 220.984 308.419C219.37 307.525 218.786 305.492 219.68 303.878C220.574 302.264 222.607 301.68 224.221 302.574Z" fill="white"/>
<path d="M231.343 289.717C232.957 290.611 233.541 292.644 232.647 294.257C231.753 295.871 229.72 296.455 228.106 295.561C226.492 294.667 225.908 292.634 226.802 291.02C227.696 289.406 229.729 288.823 231.343 289.717Z" fill="white"/>
<path d="M215.713 348.269C217.327 349.163 217.911 351.196 217.017 352.81C216.123 354.424 214.09 355.008 212.476 354.114C210.862 353.22 210.278 351.187 211.172 349.573C212.066 347.959 214.099 347.375 215.713 348.269Z" fill="white"/>
<path d="M222.835 335.412C224.449 336.306 225.033 338.339 224.139 339.952C223.245 341.566 221.212 342.15 219.598 341.256C217.984 340.362 217.4 338.329 218.294 336.715C219.188 335.101 221.221 334.518 222.835 335.412Z" fill="white"/>
<path d="M229.957 322.554C231.571 323.448 232.155 325.481 231.261 327.095C230.367 328.709 228.334 329.292 226.72 328.398C225.106 327.504 224.522 325.471 225.416 323.858C226.31 322.244 228.343 321.66 229.957 322.554Z" fill="white"/>
<path d="M237.079 309.696C238.693 310.59 239.276 312.623 238.383 314.237C237.489 315.851 235.456 316.435 233.842 315.541C232.228 314.647 231.644 312.614 232.538 311C233.432 309.386 235.465 308.802 237.079 309.696Z" fill="white"/>
<path d="M244.201 296.839C245.815 297.732 246.398 299.765 245.504 301.379C244.61 302.993 242.577 303.577 240.964 302.683C239.35 301.789 238.766 299.756 239.66 298.142C240.554 296.528 242.587 295.945 244.201 296.839Z" fill="white"/>
</g>
</g>
<g opacity="0.2">
<mask id="mask1" mask-type="alpha" maskUnits="userSpaceOnUse" x="5" y="91" width="138" height="138">
<path d="M72.2412 93.1062C105.376 89.5399 147.216 185.5 141.557 206.057C135.899 226.615 15.9699 238.877 9.08068 209.611C2.1915 180.346 39.1063 96.6725 72.2412 93.1062Z" fill="white"/>
</mask>
<g mask="url(#mask1)">
<path d="M84.1297 165.65C84.2489 167.491 82.8529 169.08 81.0118 169.199C79.1708 169.319 77.5817 167.923 77.4626 166.082C77.3435 164.24 78.7394 162.651 80.5805 162.532C82.4216 162.413 84.0106 163.809 84.1297 165.65Z" fill="white"/>
<path d="M98.7975 164.701C98.9166 166.542 97.5206 168.131 95.6795 168.251C93.8385 168.37 92.2494 166.974 92.1303 165.133C92.0112 163.292 93.4071 161.702 95.2482 161.583C97.0893 161.464 98.6784 162.86 98.7975 164.701Z" fill="white"/>
<path d="M113.465 163.752C113.584 165.593 112.188 167.183 110.347 167.302C108.506 167.421 106.917 166.025 106.798 164.184C106.679 162.343 108.075 160.754 109.916 160.634C111.757 160.515 113.346 161.911 113.465 163.752Z" fill="white"/>
<path d="M128.133 162.803C128.252 164.645 126.856 166.234 125.015 166.353C123.174 166.472 121.585 165.076 121.466 163.235C121.347 161.394 122.743 159.805 124.584 159.686C126.425 159.566 128.014 160.962 128.133 162.803Z" fill="white"/>
<path d="M142.801 161.855C142.92 163.696 141.524 165.285 139.683 165.404C137.842 165.523 136.253 164.127 136.133 162.286C136.014 160.445 137.41 158.856 139.251 158.737C141.092 158.618 142.681 160.013 142.801 161.855Z" fill="white"/>
<path d="M85.0787 180.318C85.1978 182.159 83.8018 183.748 81.9608 183.867C80.1197 183.986 78.5306 182.59 78.4115 180.749C78.2924 178.908 79.6883 177.319 81.5294 177.2C83.3705 177.081 84.9596 178.477 85.0787 180.318Z" fill="white"/>
<path d="M99.7464 179.369C99.8655 181.21 98.4695 182.799 96.6285 182.918C94.7874 183.037 93.1983 181.641 93.0792 179.8C92.9601 177.959 94.3561 176.37 96.1971 176.251C98.0382 176.132 99.6273 177.528 99.7464 179.369Z" fill="white"/>
<path d="M114.414 178.42C114.533 180.261 113.137 181.85 111.296 181.969C109.455 182.088 107.866 180.693 107.747 178.851C107.628 177.01 109.024 175.421 110.865 175.302C112.706 175.183 114.295 176.579 114.414 178.42Z" fill="white"/>
<path d="M129.082 177.471C129.201 179.312 127.805 180.901 125.964 181.02C124.123 181.14 122.534 179.744 122.415 177.903C122.296 176.061 123.691 174.472 125.533 174.353C127.374 174.234 128.963 175.63 129.082 177.471Z" fill="white"/>
<path d="M143.75 176.522C143.869 178.363 142.473 179.952 140.632 180.072C138.791 180.191 137.201 178.795 137.082 176.954C136.963 175.113 138.359 173.523 140.2 173.404C142.041 173.285 143.63 174.681 143.75 176.522Z" fill="white"/>
<path d="M86.0276 194.986C86.1467 196.827 84.7507 198.416 82.9097 198.535C81.0686 198.654 79.4795 197.258 79.3604 195.417C79.2413 193.576 80.6373 191.987 82.4783 191.868C84.3194 191.749 85.9085 193.145 86.0276 194.986Z" fill="white"/>
<path d="M100.695 194.037C100.814 195.878 99.4185 197.467 97.5774 197.586C95.7363 197.705 94.1473 196.309 94.0281 194.468C93.909 192.627 95.305 191.038 97.1461 190.919C98.9871 190.8 100.576 192.196 100.695 194.037Z" fill="white"/>
<path d="M115.363 193.088C115.482 194.929 114.086 196.518 112.245 196.637C110.404 196.756 108.815 195.36 108.696 193.519C108.577 191.678 109.973 190.089 111.814 189.97C113.655 189.851 115.244 191.247 115.363 193.088Z" fill="white"/>
<path d="M130.031 192.139C130.15 193.98 128.754 195.569 126.913 195.688C125.072 195.807 123.483 194.411 123.364 192.57C123.244 190.729 124.64 189.14 126.481 189.021C128.323 188.902 129.912 190.298 130.031 192.139Z" fill="white"/>
<path d="M144.698 191.19C144.818 193.031 143.422 194.62 141.581 194.739C139.739 194.858 138.15 193.462 138.031 191.621C137.912 189.78 139.308 188.191 141.149 188.072C142.99 187.953 144.579 189.349 144.698 191.19Z" fill="white"/>
<path d="M86.9765 209.653C87.0956 211.494 85.6997 213.083 83.8586 213.203C82.0175 213.322 80.4285 211.926 80.3094 210.085C80.1902 208.244 81.5862 206.655 83.4273 206.535C85.2683 206.416 86.8574 207.812 86.9765 209.653Z" fill="white"/>
<path d="M101.644 208.704C101.763 210.546 100.367 212.135 98.5263 212.254C96.6852 212.373 95.0962 210.977 94.9771 209.136C94.858 207.295 96.2539 205.706 98.095 205.587C99.9361 205.467 101.525 206.863 101.644 208.704Z" fill="white"/>
<path d="M116.312 207.756C116.431 209.597 115.035 211.186 113.194 211.305C111.353 211.424 109.764 210.028 109.645 208.187C109.526 206.346 110.922 204.757 112.763 204.638C114.604 204.519 116.193 205.914 116.312 207.756Z" fill="white"/>
<path d="M130.98 206.807C131.099 208.648 129.703 210.237 127.862 210.356C126.021 210.475 124.432 209.079 124.312 207.238C124.193 205.397 125.589 203.808 127.43 203.689C129.271 203.57 130.861 204.966 130.98 206.807Z" fill="white"/>
<path d="M145.647 205.858C145.766 207.699 144.371 209.288 142.529 209.407C140.688 209.526 139.099 208.13 138.98 206.289C138.861 204.448 140.257 202.859 142.098 202.74C143.939 202.621 145.528 204.017 145.647 205.858Z" fill="white"/>
<path d="M87.9254 224.321C88.0445 226.162 86.6486 227.751 84.8075 227.87C82.9664 227.989 81.3774 226.593 81.2583 224.752C81.1392 222.911 82.5351 221.322 84.3762 221.203C86.2173 221.084 87.8063 222.48 87.9254 224.321Z" fill="white"/>
<path d="M102.593 223.372C102.712 225.213 101.316 226.802 99.4752 226.921C97.6341 227.04 96.0451 225.645 95.926 223.803C95.8069 221.962 97.2028 220.373 99.0439 220.254C100.885 220.135 102.474 221.531 102.593 223.372Z" fill="white"/>
<path d="M117.261 222.423C117.38 224.264 115.984 225.853 114.143 225.972C112.302 226.092 110.713 224.696 110.594 222.855C110.475 221.013 111.871 219.424 113.712 219.305C115.553 219.186 117.142 220.582 117.261 222.423Z" fill="white"/>
<path d="M131.929 221.474C132.048 223.315 130.652 224.904 128.811 225.024C126.97 225.143 125.381 223.747 125.261 221.906C125.142 220.065 126.538 218.475 128.379 218.356C130.22 218.237 131.809 219.633 131.929 221.474Z" fill="white"/>
<path d="M146.596 220.525C146.715 222.366 145.319 223.956 143.478 224.075C141.637 224.194 140.048 222.798 139.929 220.957C139.81 219.116 141.206 217.527 143.047 217.407C144.888 217.288 146.477 218.684 146.596 220.525Z" fill="white"/>
<path d="M12.8066 170.264C12.9257 172.105 11.5298 173.695 9.68872 173.814C7.84764 173.933 6.2586 172.537 6.13949 170.696C6.02038 168.855 7.41632 167.266 9.25739 167.146C11.0985 167.027 12.6875 168.423 12.8066 170.264Z" fill="white"/>
<path d="M27.4743 169.315C27.5934 171.157 26.1975 172.746 24.3564 172.865C22.5154 172.984 20.9263 171.588 20.8072 169.747C20.6881 167.906 22.084 166.317 23.9251 166.198C25.7662 166.078 27.3552 167.474 27.4743 169.315Z" fill="white"/>
<path d="M42.1421 168.367C42.2612 170.208 40.8652 171.797 39.0241 171.916C37.1831 172.035 35.594 170.639 35.4749 168.798C35.3558 166.957 36.7517 165.368 38.5928 165.249C40.4339 165.13 42.0229 166.525 42.1421 168.367Z" fill="white"/>
<path d="M56.8098 167.418C56.9289 169.259 55.5329 170.848 53.6919 170.967C51.8508 171.086 50.2617 169.69 50.1426 167.849C50.0235 166.008 51.4195 164.419 53.2605 164.3C55.1016 164.181 56.6907 165.577 56.8098 167.418Z" fill="white"/>
<path d="M71.4775 166.469C71.5966 168.31 70.2006 169.899 68.3596 170.018C66.5185 170.137 64.9294 168.741 64.8103 166.9C64.6912 165.059 66.0872 163.47 67.9282 163.351C69.7693 163.232 71.3584 164.628 71.4775 166.469Z" fill="white"/>
<path d="M13.7555 184.932C13.8747 186.773 12.4787 188.362 10.6376 188.481C8.79656 188.6 7.20751 187.205 7.0884 185.363C6.9693 183.522 8.36523 181.933 10.2063 181.814C12.0474 181.695 13.6364 183.091 13.7555 184.932Z" fill="white"/>
<path d="M28.4233 183.983C28.5424 185.824 27.1464 187.413 25.3053 187.532C23.4643 187.652 21.8752 186.256 21.7561 184.415C21.637 182.573 23.0329 180.984 24.874 180.865C26.7151 180.746 28.3041 182.142 28.4233 183.983Z" fill="white"/>
<path d="M43.091 183.034C43.2101 184.875 41.8141 186.464 39.9731 186.584C38.132 186.703 36.5429 185.307 36.4238 183.466C36.3047 181.625 37.7007 180.035 39.5417 179.916C41.3828 179.797 42.9719 181.193 43.091 183.034Z" fill="white"/>
<path d="M57.7587 182.085C57.8778 183.926 56.4819 185.516 54.6408 185.635C52.7997 185.754 51.2106 184.358 51.0915 182.517C50.9724 180.676 52.3684 179.087 54.2094 178.967C56.0505 178.848 57.6396 180.244 57.7587 182.085Z" fill="white"/>
<path d="M72.4264 181.136C72.5455 182.978 71.1496 184.567 69.3085 184.686C67.4674 184.805 65.8784 183.409 65.7593 181.568C65.6401 179.727 67.0361 178.138 68.8772 178.019C70.7182 177.899 72.3073 179.295 72.4264 181.136Z" fill="white"/>
<path d="M14.7045 199.6C14.8236 201.441 13.4276 203.03 11.5866 203.149C9.74547 203.268 8.15643 201.872 8.03732 200.031C7.91821 198.19 9.31415 196.601 11.1552 196.482C12.9963 196.363 14.5854 197.759 14.7045 199.6Z" fill="white"/>
<path d="M29.3722 198.651C29.4913 200.492 28.0953 202.081 26.2543 202.2C24.4132 202.319 22.8241 200.923 22.705 199.082C22.5859 197.241 23.9819 195.652 25.8229 195.533C27.664 195.414 29.2531 196.81 29.3722 198.651Z" fill="white"/>
<path d="M44.0399 197.702C44.159 199.543 42.7631 201.132 40.922 201.251C39.0809 201.37 37.4919 199.974 37.3727 198.133C37.2536 196.292 38.6496 194.703 40.4907 194.584C42.3317 194.465 43.9208 195.861 44.0399 197.702Z" fill="white"/>
<path d="M58.7076 196.753C58.8267 198.594 57.4308 200.183 55.5897 200.302C53.7486 200.421 52.1596 199.026 52.0405 197.184C51.9214 195.343 53.3173 193.754 55.1584 193.635C56.9994 193.516 58.5885 194.912 58.7076 196.753Z" fill="white"/>
<path d="M73.3753 195.804C73.4944 197.645 72.0985 199.234 70.2574 199.353C68.4163 199.473 66.8273 198.077 66.7082 196.236C66.5891 194.394 67.985 192.805 69.8261 192.686C71.6672 192.567 73.2562 193.963 73.3753 195.804Z" fill="white"/>
<path d="M15.6534 214.268C15.7725 216.109 14.3765 217.698 12.5355 217.817C10.6944 217.936 9.10534 216.54 8.98624 214.699C8.86713 212.858 10.2631 211.269 12.1041 211.15C13.9452 211.031 15.5343 212.426 15.6534 214.268Z" fill="white"/>
<path d="M30.3211 213.319C30.4402 215.16 29.0443 216.749 27.2032 216.868C25.3621 216.987 23.7731 215.591 23.6539 213.75C23.5348 211.909 24.9308 210.32 26.7719 210.201C28.6129 210.082 30.202 211.478 30.3211 213.319Z" fill="white"/>
<path d="M44.9888 212.37C45.1079 214.211 43.712 215.8 41.8709 215.919C40.0298 216.038 38.4408 214.642 38.3217 212.801C38.2026 210.96 39.5985 209.371 41.4396 209.252C43.2806 209.133 44.8697 210.529 44.9888 212.37Z" fill="white"/>
<path d="M59.6565 211.421C59.7756 213.262 58.3797 214.851 56.5386 214.97C54.6975 215.089 53.1085 213.693 52.9894 211.852C52.8703 210.011 54.2662 208.422 56.1073 208.303C57.9484 208.184 59.5374 209.58 59.6565 211.421Z" fill="white"/>
<path d="M74.3242 210.472C74.4433 212.313 73.0474 213.902 71.2063 214.021C69.3652 214.14 67.7762 212.744 67.6571 210.903C67.538 209.062 68.9339 207.473 70.775 207.354C72.6161 207.235 74.2051 208.631 74.3242 210.472Z" fill="white"/>
<path d="M16.6023 228.935C16.7214 230.776 15.3255 232.365 13.4844 232.484C11.6433 232.604 10.0543 231.208 9.93515 229.367C9.81604 227.525 11.212 225.936 13.0531 225.817C14.8941 225.698 16.4832 227.094 16.6023 228.935Z" fill="white"/>
<path d="M31.27 227.986C31.3891 229.827 29.9932 231.416 28.1521 231.536C26.311 231.655 24.722 230.259 24.6029 228.418C24.4838 226.577 25.8797 224.988 27.7208 224.868C29.5619 224.749 31.1509 226.145 31.27 227.986Z" fill="white"/>
<path d="M45.9377 227.037C46.0568 228.878 44.6609 230.468 42.8198 230.587C40.9787 230.706 39.3897 229.31 39.2706 227.469C39.1515 225.628 40.5474 224.039 42.3885 223.919C44.2296 223.8 45.8186 225.196 45.9377 227.037Z" fill="white"/>
<path d="M60.6054 226.088C60.7245 227.93 59.3286 229.519 57.4875 229.638C55.6464 229.757 54.0574 228.361 53.9383 226.52C53.8192 224.679 55.2151 223.09 57.0562 222.971C58.8973 222.851 60.4863 224.247 60.6054 226.088Z" fill="white"/>
<path d="M75.2731 225.14C75.3922 226.981 73.9963 228.57 72.1552 228.689C70.3142 228.808 68.7251 227.412 68.606 225.571C68.4869 223.73 69.8828 222.141 71.7239 222.022C73.565 221.903 75.154 223.298 75.2731 225.14Z" fill="white"/>
<path d="M79.5156 94.3271C79.6347 96.1681 78.2387 97.7572 76.3976 97.8763C74.5566 97.9954 72.9675 96.5995 72.8484 94.7584C72.7293 92.9173 74.1252 91.3283 75.9663 91.2092C77.8074 91.0901 79.3964 92.486 79.5156 94.3271Z" fill="white"/>
<path d="M94.1833 93.3782C94.3024 95.2192 92.9064 96.8083 91.0654 96.9274C89.2243 97.0465 87.6352 95.6506 87.5161 93.8095C87.397 91.9684 88.793 90.3794 90.634 90.2602C92.4751 90.1411 94.0642 91.5371 94.1833 93.3782Z" fill="white"/>
<path d="M108.851 92.4292C108.97 94.2703 107.574 95.8594 105.733 95.9785C103.892 96.0976 102.303 94.7016 102.184 92.8606C102.065 91.0195 103.461 89.4304 105.302 89.3113C107.143 89.1922 108.732 90.5882 108.851 92.4292Z" fill="white"/>
<path d="M123.519 91.4803C123.638 93.3214 122.242 94.9104 120.401 95.0296C118.56 95.1487 116.971 93.7527 116.852 91.9116C116.732 90.0706 118.128 88.4815 119.969 88.3624C121.811 88.2433 123.4 89.6392 123.519 91.4803Z" fill="white"/>
<path d="M138.186 90.5314C138.306 92.3725 136.91 93.9615 135.068 94.0806C133.227 94.1997 131.638 92.8038 131.519 90.9627C131.4 89.1217 132.796 87.5326 134.637 87.4135C136.478 87.2944 138.067 88.6903 138.186 90.5314Z" fill="white"/>
<path d="M80.4645 108.995C80.5836 110.836 79.1876 112.425 77.3466 112.544C75.5055 112.663 73.9164 111.267 73.7973 109.426C73.6782 107.585 75.0742 105.996 76.9152 105.877C78.7563 105.758 80.3454 107.154 80.4645 108.995Z" fill="white"/>
<path d="M95.1322 108.046C95.2513 109.887 93.8554 111.476 92.0143 111.595C90.1732 111.714 88.5841 110.318 88.465 108.477C88.3459 106.636 89.7419 105.047 91.5829 104.928C93.424 104.809 95.0131 106.205 95.1322 108.046Z" fill="white"/>
<path d="M109.8 107.097C109.919 108.938 108.523 110.527 106.682 110.646C104.841 110.765 103.252 109.369 103.133 107.528C103.014 105.687 104.41 104.098 106.251 103.979C108.092 103.86 109.681 105.256 109.8 107.097Z" fill="white"/>
<path d="M124.468 106.148C124.587 107.989 123.191 109.578 121.35 109.697C119.509 109.816 117.92 108.42 117.8 106.579C117.681 104.738 119.077 103.149 120.918 103.03C122.759 102.911 124.348 104.307 124.468 106.148Z" fill="white"/>
<path d="M139.135 105.199C139.254 107.04 137.858 108.629 136.017 108.748C134.176 108.867 132.587 107.472 132.468 105.63C132.349 103.789 133.745 102.2 135.586 102.081C137.427 101.962 139.016 103.358 139.135 105.199Z" fill="white"/>
<path d="M81.4134 123.663C81.5325 125.504 80.1366 127.093 78.2955 127.212C76.4544 127.331 74.8654 125.935 74.7462 124.094C74.6271 122.253 76.0231 120.664 77.8642 120.545C79.7052 120.425 81.2943 121.821 81.4134 123.663Z" fill="white"/>
<path d="M96.0811 122.714C96.2002 124.555 94.8043 126.144 92.9632 126.263C91.1221 126.382 89.5331 124.986 89.414 123.145C89.2948 121.304 90.6908 119.715 92.5319 119.596C94.3729 119.477 95.962 120.873 96.0811 122.714Z" fill="white"/>
<path d="M110.749 121.765C110.868 123.606 109.472 125.195 107.631 125.314C105.79 125.433 104.201 124.037 104.082 122.196C103.963 120.355 105.359 118.766 107.2 118.647C109.041 118.528 110.63 119.924 110.749 121.765Z" fill="white"/>
<path d="M125.417 120.816C125.536 122.657 124.14 124.246 122.299 124.365C120.458 124.484 118.868 123.088 118.749 121.247C118.63 119.406 120.026 117.817 121.867 117.698C123.708 117.579 125.297 118.975 125.417 120.816Z" fill="white"/>
<path d="M140.084 119.867C140.203 121.708 138.807 123.297 136.966 123.416C135.125 123.535 133.536 122.139 133.417 120.298C133.298 118.457 134.694 116.868 136.535 116.749C138.376 116.63 139.965 118.026 140.084 119.867Z" fill="white"/>
<path d="M82.3623 138.33C82.4814 140.171 81.0855 141.76 79.2444 141.879C77.4033 141.999 75.8143 140.603 75.6952 138.762C75.5761 136.92 76.972 135.331 78.8131 135.212C80.6541 135.093 82.2432 136.489 82.3623 138.33Z" fill="white"/>
<path d="M97.03 137.381C97.1491 139.222 95.7532 140.811 93.9121 140.931C92.071 141.05 90.482 139.654 90.3629 137.813C90.2438 135.972 91.6397 134.383 93.4808 134.263C95.3219 134.144 96.9109 135.54 97.03 137.381Z" fill="white"/>
<path d="M111.698 136.432C111.817 138.273 110.421 139.863 108.58 139.982C106.739 140.101 105.15 138.705 105.031 136.864C104.911 135.023 106.307 133.434 108.148 133.314C109.99 133.195 111.579 134.591 111.698 136.432Z" fill="white"/>
<path d="M126.365 135.483C126.485 137.325 125.089 138.914 123.248 139.033C121.406 139.152 119.817 137.756 119.698 135.915C119.579 134.074 120.975 132.485 122.816 132.366C124.657 132.246 126.246 133.642 126.365 135.483Z" fill="white"/>
<path d="M141.033 134.535C141.152 136.376 139.756 137.965 137.915 138.084C136.074 138.203 134.485 136.807 134.366 134.966C134.247 133.125 135.643 131.536 137.484 131.417C139.325 131.298 140.914 132.693 141.033 134.535Z" fill="white"/>
<path d="M83.3112 152.998C83.4303 154.839 82.0344 156.428 80.1933 156.547C78.3522 156.666 76.7632 155.27 76.6441 153.429C76.525 151.588 77.9209 149.999 79.762 149.88C81.6031 149.761 83.1921 151.157 83.3112 152.998Z" fill="white"/>
<path d="M97.9789 152.049C98.098 153.89 96.7021 155.479 94.861 155.598C93.0199 155.717 91.4309 154.321 91.3118 152.48C91.1927 150.639 92.5886 149.05 94.4297 148.931C96.2708 148.812 97.8598 150.208 97.9789 152.049Z" fill="white"/>
<path d="M112.647 151.1C112.766 152.941 111.37 154.53 109.529 154.649C107.688 154.768 106.099 153.372 105.98 151.531C105.86 149.69 107.256 148.101 109.097 147.982C110.938 147.863 112.528 149.259 112.647 151.1Z" fill="white"/>
<path d="M127.314 150.151C127.433 151.992 126.038 153.581 124.196 153.7C122.355 153.819 120.766 152.424 120.647 150.582C120.528 148.741 121.924 147.152 123.765 147.033C125.606 146.914 127.195 148.31 127.314 150.151Z" fill="white"/>
<path d="M141.982 149.202C142.101 151.043 140.705 152.632 138.864 152.751C137.023 152.871 135.434 151.475 135.315 149.634C135.196 147.792 136.592 146.203 138.433 146.084C140.274 145.965 141.863 147.361 141.982 149.202Z" fill="white"/>
<path d="M8.19243 98.9413C8.31154 100.782 6.91561 102.371 5.07453 102.49C3.23345 102.61 1.6444 101.214 1.52529 99.3726C1.40619 97.5315 2.80212 95.9425 4.6432 95.8234C6.48428 95.7042 8.07333 97.1002 8.19243 98.9413Z" fill="white"/>
<path d="M22.8601 97.9923C22.9793 99.8334 21.5833 101.422 19.7422 101.542C17.9012 101.661 16.3121 100.265 16.193 98.4237C16.0739 96.5826 17.4698 94.9935 19.3109 94.8744C21.152 94.7553 22.741 96.1513 22.8601 97.9923Z" fill="white"/>
<path d="M37.5279 97.0434C37.647 98.8845 36.251 100.474 34.41 100.593C32.5689 100.712 30.9798 99.3158 30.8607 97.4748C30.7416 95.6337 32.1375 94.0446 33.9786 93.9255C35.8197 93.8064 37.4088 95.2023 37.5279 97.0434Z" fill="white"/>
<path d="M52.1956 96.0945C52.3147 97.9356 50.9187 99.5246 49.0777 99.6437C47.2366 99.7629 45.6475 98.3669 45.5284 96.5258C45.4093 94.6848 46.8053 93.0957 48.6463 92.9766C50.4874 92.8575 52.0765 94.2534 52.1956 96.0945Z" fill="white"/>
<path d="M66.8633 95.1456C66.9824 96.9867 65.5865 98.5757 63.7454 98.6948C61.9043 98.8139 60.3153 97.418 60.1961 95.5769C60.077 93.7358 61.473 92.1468 63.3141 92.0277C65.1551 91.9086 66.7442 93.3045 66.8633 95.1456Z" fill="white"/>
<path d="M9.14135 113.609C9.26046 115.45 7.86452 117.039 6.02344 117.158C4.18236 117.277 2.59332 115.881 2.47421 114.04C2.3551 112.199 3.75104 110.61 5.59212 110.491C7.4332 110.372 9.02224 111.768 9.14135 113.609Z" fill="white"/>
<path d="M23.8091 112.66C23.9282 114.501 22.5322 116.09 20.6912 116.209C18.8501 116.328 17.261 114.932 17.1419 113.091C17.0228 111.25 18.4187 109.661 20.2598 109.542C22.1009 109.423 23.69 110.819 23.8091 112.66Z" fill="white"/>
<path d="M38.4768 111.711C38.5959 113.552 37.1999 115.141 35.3589 115.26C33.5178 115.379 31.9287 113.984 31.8096 112.142C31.6905 110.301 33.0865 108.712 34.9275 108.593C36.7686 108.474 38.3577 109.87 38.4768 111.711Z" fill="white"/>
<path d="M53.1445 110.762C53.2636 112.603 51.8677 114.192 50.0266 114.311C48.1855 114.431 46.5965 113.035 46.4773 111.194C46.3582 109.352 47.7542 107.763 49.5953 107.644C51.4363 107.525 53.0254 108.921 53.1445 110.762Z" fill="white"/>
<path d="M67.8122 109.813C67.9313 111.654 66.5354 113.243 64.6943 113.363C62.8532 113.482 61.2642 112.086 61.1451 110.245C61.026 108.404 62.4219 106.815 64.263 106.695C66.104 106.576 67.6931 107.972 67.8122 109.813Z" fill="white"/>
<path d="M10.0903 128.277C10.2094 130.118 8.81344 131.707 6.97236 131.826C5.13128 131.945 3.54223 130.549 3.42313 128.708C3.30402 126.867 4.69995 125.278 6.54103 125.159C8.38211 125.04 9.97116 126.436 10.0903 128.277Z" fill="white"/>
<path d="M24.758 127.328C24.8771 129.169 23.4812 130.758 21.6401 130.877C19.799 130.996 18.2099 129.6 18.0908 127.759C17.9717 125.918 19.3677 124.329 21.2087 124.21C23.0498 124.091 24.6389 125.487 24.758 127.328Z" fill="white"/>
<path d="M39.4257 126.379C39.5448 128.22 38.1489 129.809 36.3078 129.928C34.4667 130.047 32.8777 128.651 32.7586 126.81C32.6394 124.969 34.0354 123.38 35.8765 123.261C37.7175 123.142 39.3066 124.538 39.4257 126.379Z" fill="white"/>
<path d="M54.0934 125.43C54.2125 127.271 52.8166 128.86 50.9755 128.979C49.1344 129.098 47.5454 127.702 47.4263 125.861C47.3072 124.02 48.7031 122.431 50.5442 122.312C52.3853 122.193 53.9743 123.589 54.0934 125.43Z" fill="white"/>
<path d="M68.7611 124.481C68.8802 126.322 67.4843 127.911 65.6432 128.03C63.8021 128.149 62.2131 126.753 62.094 124.912C61.9749 123.071 63.3708 121.482 65.2119 121.363C67.053 121.244 68.642 122.64 68.7611 124.481Z" fill="white"/>
<path d="M11.0392 142.944C11.1583 144.785 9.76236 146.375 7.92128 146.494C6.0802 146.613 4.49115 145.217 4.37204 143.376C4.25294 141.535 5.64887 139.946 7.48995 139.827C9.33103 139.707 10.9201 141.103 11.0392 142.944Z" fill="white"/>
<path d="M25.7069 141.996C25.826 143.837 24.4301 145.426 22.589 145.545C20.7479 145.664 19.1589 144.268 19.0398 142.427C18.9206 140.586 20.3166 138.997 22.1577 138.878C23.9987 138.758 25.5878 140.154 25.7069 141.996Z" fill="white"/>
<path d="M40.3746 141.047C40.4937 142.888 39.0978 144.477 37.2567 144.596C35.4156 144.715 33.8266 143.319 33.7075 141.478C33.5884 139.637 34.9843 138.048 36.8254 137.929C38.6665 137.81 40.2555 139.206 40.3746 141.047Z" fill="white"/>
<path d="M55.0423 140.098C55.1614 141.939 53.7655 143.528 51.9244 143.647C50.0833 143.766 48.4943 142.37 48.3752 140.529C48.2561 138.688 49.652 137.099 51.4931 136.98C53.3342 136.861 54.9232 138.257 55.0423 140.098Z" fill="white"/>
<path d="M69.71 139.149C69.8291 140.99 68.4332 142.579 66.5921 142.698C64.751 142.817 63.162 141.421 63.0429 139.58C62.9238 137.739 64.3197 136.15 66.1608 136.031C68.0019 135.912 69.5909 137.308 69.71 139.149Z" fill="white"/>
<path d="M11.9881 157.612C12.1072 159.453 10.7113 161.042 8.87019 161.161C7.02911 161.28 5.44006 159.884 5.32096 158.043C5.20185 156.202 6.59778 154.613 8.43886 154.494C10.2799 154.375 11.869 155.771 11.9881 157.612Z" fill="white"/>
<path d="M26.6558 156.663C26.7749 158.504 25.379 160.093 23.5379 160.212C21.6968 160.332 20.1078 158.936 19.9887 157.094C19.8696 155.253 21.2655 153.664 23.1066 153.545C24.9477 153.426 26.5367 154.822 26.6558 156.663Z" fill="white"/>
<path d="M41.3235 155.714C41.4426 157.555 40.0467 159.144 38.2056 159.263C36.3645 159.383 34.7755 157.987 34.6564 156.146C34.5373 154.305 35.9332 152.715 37.7743 152.596C39.6154 152.477 41.2044 153.873 41.3235 155.714Z" fill="white"/>
<path d="M55.9912 154.765C56.1103 156.606 54.7144 158.195 52.8733 158.315C51.0322 158.434 49.4432 157.038 49.3241 155.197C49.205 153.356 50.6009 151.767 52.442 151.647C54.2831 151.528 55.8721 152.924 55.9912 154.765Z" fill="white"/>
<path d="M70.6589 153.816C70.7781 155.658 69.3821 157.247 67.541 157.366C65.7 157.485 64.1109 156.089 63.9918 154.248C63.8727 152.407 65.2686 150.818 67.1097 150.699C68.9508 150.579 70.5398 151.975 70.6589 153.816Z" fill="white"/>
</g>
</g>
<g opacity="0.1">
<path d="M240.652 117.916C239.91 117.174 239.91 115.972 240.652 115.23L248.171 107.711C248.913 106.969 250.115 106.969 250.857 107.711C251.598 108.453 251.598 109.655 250.857 110.397L243.337 117.916C242.596 118.657 241.393 118.657 240.652 117.916Z" fill="#051528"/>
<path d="M240.556 107.556C241.298 106.815 242.5 106.815 243.242 107.556L250.761 115.076C251.503 115.817 251.503 117.019 250.761 117.761C250.019 118.503 248.817 118.503 248.076 117.761L240.556 110.242C239.815 109.5 239.815 108.298 240.556 107.556Z" fill="#051528"/>
</g>
<g opacity="0.1">
<path d="M8.65172 254.916C7.91014 254.174 7.91014 252.972 8.65172 252.23L16.1711 244.711C16.9127 243.969 18.115 243.969 18.8566 244.711C19.5982 245.453 19.5982 246.655 18.8566 247.397L11.3372 254.916C10.5956 255.657 9.3933 255.657 8.65172 254.916Z" fill="#051528"/>
<path d="M8.55618 244.556C9.29776 243.815 10.5001 243.815 11.2417 244.556L18.7611 252.076C19.5026 252.817 19.5026 254.019 18.7611 254.761C18.0195 255.503 16.8171 255.503 16.0756 254.761L8.55618 247.242C7.81461 246.5 7.81461 245.298 8.55618 244.556Z" fill="#051528"/>
</g>
<circle opacity="0.1" cx="22.4532" cy="65.4532" r="3.45324" fill="#051528"/>
<circle opacity="0.1" cx="74.4532" cy="3.45324" r="3.45324" fill="#051528"/>
<circle opacity="0.1" cx="261.453" cy="201.453" r="3.45324" fill="#051528"/>
<circle opacity="0.1" cx="213.453" cy="224.453" r="3.45324" fill="#051528"/>
</svg>
