<svg width="320" height="108" viewBox="0 0 320 108" fill="none" xmlns="http://www.w3.org/2000/svg">
<path fill-rule="evenodd" clip-rule="evenodd" d="M508 225.285C508 225.285 501.234 224.252 498.37 223.218C496.382 222.501 496.364 221.669 496.364 221.669L463.06 222.185L389.631 225.285C389.631 225.285 387.687 224.768 387.625 223.735C387.563 222.702 389.23 221.945 388.428 221.152C387.625 220.359 381.326 220.679 380.403 222.185C379.48 223.692 373.27 226.001 371.976 226.318C370.682 226.635 367.623 226.635 366.76 226.318C365.897 226.001 364.718 225.083 361.945 223.735C359.172 222.387 346.726 224.968 345.494 225.285C342.832 225.712 340.15 225.885 337.469 225.801C335.682 225.643 333.207 223.655 331.851 223.735C330.496 223.815 328.762 223.975 327.839 224.768C326.916 225.561 318.672 225.72 318.61 224.768C318.548 223.817 322.091 223.673 321.419 222.702C320.703 221.669 307.329 222.702 304.346 223.115C300.841 223.602 282.341 226.358 281.294 226.834C280.246 227.311 269.593 228.106 268.052 227.868C266.512 227.629 259.377 227.868 258.021 226.834C256.666 225.801 256.906 223.218 254.811 223.218C252.716 223.218 237.463 226.238 236.354 226.318C235.245 226.397 221.229 227.428 221.106 226.318C220.983 225.208 223.389 225.52 222.711 224.252C222.033 222.983 218.388 225.246 217.094 225.801C215.8 226.357 210.825 225.285 209.47 225.285C208.114 225.285 199.774 225.563 197.432 225.801C195.091 226.039 193.48 227.868 192.617 227.868C191.755 227.868 188.292 225.205 186.197 225.285C184.102 225.364 178.694 226.834 177.771 225.801C176.848 224.768 184.592 222.702 184.592 222.702C184.592 222.702 190.488 220.434 190.611 219.086C190.734 217.738 186.598 217.175 186.598 215.987C186.598 214.798 195.857 212.212 195.426 212.371C194.194 212.767 203.018 213.757 202.649 211.854C202.279 209.951 199.037 209.271 199.037 209.271L191.815 210.304C191.812 210.259 185.116 211.755 183.346 212.234C181.588 212.709 182.586 210.622 181.783 210.304C179.829 209.496 177.81 208.976 175.765 208.755C173.3 208.596 168.635 209.196 168.943 211.338C169.252 213.479 170.27 213.447 170.147 214.953C170.024 216.46 165.332 217.734 164.53 217.02C163.727 216.306 166.131 215.506 164.53 213.92C162.928 212.334 156.01 215.905 155.702 214.953C155.394 214.002 166.043 212.009 166.536 209.788C167.029 207.567 162.891 208.199 161.721 208.755C160.55 209.31 148.881 209.788 148.881 209.788C148.881 209.788 145.115 210.905 144.868 212.887C144.622 214.87 146.628 215.47 146.875 214.437C147.121 213.404 144.066 216.503 144.066 216.503C144.066 216.503 143.937 215.987 140.856 215.987C137.775 215.987 138.603 216.029 138.85 217.536C139.096 219.043 145.27 221.152 145.27 221.152C145.27 221.152 154.601 220.713 159.715 219.603C164.829 218.492 174.561 220.119 174.561 220.119C174.561 220.119 171.196 220.52 170.95 222.185C170.789 223.034 170.789 223.92 170.95 224.768C170.95 224.768 160.239 228.302 160.116 227.351C159.993 226.399 161.288 225.84 160.918 225.285C160.549 224.729 141.257 225.285 141.257 225.285C141.257 225.285 139.094 228.146 138.047 228.384C137 228.622 138.107 224.53 137.245 224.768C136.382 225.006 131.226 225.285 131.226 225.285C131.226 225.285 130.762 227.829 130.022 228.384C129.283 228.939 121.963 230.609 119.991 230.45C118.019 230.292 115.822 228.425 114.775 228.901C113.727 229.376 99.527 229.934 99.527 229.934H97.1195C97.1195 229.934 108.792 226.476 111.565 226.318C114.337 226.159 114.775 224.252 114.775 224.252C114.775 224.252 105.048 224.213 103.138 224.768C101.228 225.323 91.9032 226.834 91.9032 226.834L71.0382 229.417C71.0382 229.417 64.4938 229.972 63.8157 229.417C63.1376 228.862 62.8889 226.517 61.4082 226.834C59.9276 227.152 54.587 227.868 54.587 227.868C54.587 227.868 48.8129 229.814 47.7656 229.417C46.7184 229.02 47.3644 227.351 47.3644 227.351C47.3644 227.351 50.7591 224.209 50.5745 222.702C50.3899 221.195 47.3604 220.955 45.7594 221.669C44.1584 222.383 42.9787 222.468 42.5494 224.768C42.1201 227.068 41.7309 226.906 40.9444 227.351C40.158 227.796 27.3019 228.384 27.3019 228.384C27.3019 228.384 30.2632 227.07 29.7095 225.801C29.1557 224.533 22.8881 223.735 22.8881 223.735L18.0731 223.218C18.0731 223.218 18.1334 223.263 18.2457 223.344C18.3701 225.407 24.4931 227.868 24.4931 227.868C24.4931 227.868 18.8114 229.775 17.2706 229.934C15.7298 230.092 6.21614 227.392 4.43057 227.868C2.64501 228.343 -9.95426 228.187 -10.8169 228.901C-11.6796 229.615 -22.4853 230.967 -23.6569 229.934C-24.8286 228.901 -8.69029 227.942 -9.61316 225.801C-10.536 223.66 -21.6507 223.218 -21.6507 223.218C-21.6507 223.218 -26.6864 223.377 -28.472 223.218C-30.2576 223.06 -35.0444 224.613 -34.4907 225.801C-33.937 226.989 -30.077 226.318 -30.077 226.318C-30.077 226.318 -25.9401 224.252 -24.4594 225.285C-22.9788 226.318 -33.2869 228.901 -33.2869 228.901H-38.1021C-39.5185 228.901 -41.6531 231.205 -42.5158 230.967C-42.9291 230.853 -50.3923 227.312 -53.3495 227.868C-56.3067 228.423 -64.741 226.241 -64.9858 227.351C-65.2306 228.461 -63.782 230.45 -63.782 230.45L-70.6034 229.934L-71.4059 226.834C-71.4059 226.834 -59.7936 225.36 -59.7696 223.218C-59.7495 221.256 -70.7879 223.5 -70.9002 222.567C-70.9002 222.567 -77.0233 223.223 -77.0233 225.285C-77.0233 227.347 -74.0581 226.968 -75.0171 226.834C-75.9761 226.701 -78.6284 228.384 -78.6284 228.384L-77.4246 232L-88.2584 227.351L-90.2646 228.384C-90.2646 228.384 -90.2646 227.464 -91.0671 224.768C-91.8696 222.072 -100.296 227.351 -100.296 227.351C-100.296 227.351 -104.068 230.967 -108.321 230.967C-110.387 230.967 -118.047 232.594 -120.76 231.483C-123.472 230.373 -136.814 228.028 -138.415 228.901C-140.016 229.773 -142.953 231.085 -143.631 230.45C-144.309 229.816 -143.045 226.873 -144.032 226.318C-145.019 225.763 -151.255 225.801 -151.255 225.801C-151.255 225.801 -150.95 228.146 -152.057 228.384C-153.165 228.622 -164.496 225.801 -164.496 225.801L-156.471 225.285L-158.879 222.702C-158.879 222.702 -137.119 225.28 -137.612 223.218C-138.106 221.157 -142.427 219.603 -142.427 219.603L-160.082 219.086C-160.082 219.086 -159.376 221.986 -160.484 221.669C-161.591 221.352 -170.114 219.603 -170.114 219.603L-172.521 221.152L-171.719 218.569C-171.719 218.569 -158.666 216.897 -160.082 215.47C-161.499 214.043 -175.33 214.437 -175.33 214.437C-175.33 214.437 -199.955 223.341 -196.997 224.768C-194.04 226.195 -210.64 223.735 -210.64 223.735L-208.232 222.185C-208.232 222.185 -197.555 224.526 -197.8 222.702C-198.045 220.878 -200.456 218.053 -201.812 218.053C-203.169 218.053 -207.43 218.569 -207.43 218.569L-215.856 214.953C-215.856 214.953 -220.17 214.132 -221.474 214.437C-222.778 214.742 -229.097 219.603 -229.097 219.603C-229.097 219.603 -249.192 227.192 -238.727 223.735C-228.263 220.278 -231.505 216.503 -231.505 216.503C-230.737 215.903 -229.932 215.384 -229.097 214.953C-226.172 214.05 -221.474 214.437 -221.474 214.437L-209.837 213.404L-211.844 210.821L-191.38 210.304C-191.38 210.304 -188.098 210.067 -181.75 210.304C-175.402 210.542 -173.789 205.495 -175.33 204.622C-176.871 203.75 -191.661 209.584 -193.386 207.205C-195.111 204.826 -190.18 204.459 -191.781 202.556C-193.382 200.653 -193.49 203.032 -198.602 202.556C-203.714 202.08 -204.717 198.464 -206.627 198.94C-208.537 199.416 -211.318 199.738 -211.442 201.006C-211.567 202.275 -200.36 203.276 -199.806 205.655C-199.252 208.035 -218.264 209.788 -218.264 209.788H-229.9C-229.9 209.788 -219.564 208.315 -220.671 207.205C-221.779 206.095 -242.925 206.731 -242.74 208.238C-242.555 209.745 -240.332 213.404 -240.332 213.404C-240.332 213.404 -242.62 211.218 -245.147 210.821C-247.675 210.424 -245.296 210.775 -245.44 210.762C-245.196 210.683 -262 211.854 -262 211.854L-262 8.78174C-262 8.78174 -252.193 15.1871 -246.752 14.4639C-241.311 13.7407 -227.091 14.4639 -227.091 14.4639C-227.091 14.4639 -210.544 15.6582 -213.047 15.497C-215.551 15.3359 -206.607 18.9518 -208.232 19.113C-205.167 19.5159 -200.89 15.6107 -198.201 16.0136C-195.513 16.4165 -191.781 18.0799 -191.781 18.0799H-174.929C-174.929 18.0799 -178.925 18.9064 -177.737 19.6296C-176.55 20.3527 -112.971 22.0791 -106.716 20.1461C-100.46 18.2131 -49.7383 17.6149 -50.942 17.5633C-51.4877 15.2129 -42.917 17.5633 -42.917 17.5633V15.497L-44.522 14.4639L-44.2412 14.4298C-44.4739 14.0796 -37.6646 15.3142 -35.2932 14.4639C-32.9218 13.6137 -28.8732 8.78174 -28.8732 8.78174C-28.8732 8.78174 -27.2161 10.4316 -25.6633 10.3314C-24.1105 10.2312 -22.2486 8.7652 -20.8482 8.26517C-19.4479 7.76513 -16.0333 9.81487 -16.0333 9.81487C-16.0333 9.81487 -21.3257 10.1811 -21.2494 11.8811C-21.1732 13.5811 -15.6319 12.9142 -15.6319 12.9142L-3.99572 10.848L1.22055 10.3314L-4.39701 12.9142C-4.39701 12.9142 -5.58864 12.5635 -5.19943 14.4639C-4.81022 16.3643 -1.58823 15.497 -1.58823 15.497C-1.58823 15.497 13.5028 8.86491 16.0668 9.81487C18.6308 10.7648 43.9217 6.6819 45.3581 7.23204C46.7946 7.78218 60.2165 4.1497 60.6057 3.09953C60.9949 2.04936 62.9611 5.03255 65.0195 5.68239C67.0779 6.33222 70.6369 4.64923 70.6369 4.64923C70.6369 4.64923 108.377 1.93055 108.756 3.09953C109.134 4.26851 142.461 5.16582 142.461 5.16582C142.461 5.16582 141.431 7.93819 142.461 7.74861C143.491 7.55903 147.276 4.64923 147.276 4.64923C147.276 4.64923 184.215 5.6994 182.185 3.6161C180.154 1.53281 221.979 6.67881 221.909 4.13268C221.838 1.58654 234.749 7.23204 234.749 7.23204L229.131 8.26517L225.52 6.7155L219.501 6.19894C219.501 6.19894 217.838 8.29824 218.297 9.29831C218.756 10.2984 223.514 9.81487 223.514 9.81487C225.084 10.7788 226.691 11.6408 228.329 12.3977C230.023 13.0795 231.94 10.3314 231.94 10.3314C231.94 10.3314 245.98 11.1125 247.187 8.78174C247.823 7.55439 250.397 6.7155 250.397 6.7155C250.397 6.7155 250.269 8.23625 250.799 8.78174C251.328 9.32723 254.009 6.7155 254.009 6.7155C254.009 6.7155 253.871 7.85605 255.212 8.26517C256.554 8.67428 260.83 7.23204 260.83 7.23204L274.874 3.09953H276.88L271.664 6.19894C271.664 6.19894 270.38 7.20312 271.262 7.74861C272.145 8.2941 276.88 7.23204 276.88 7.23204C276.88 7.23204 286.626 4.55417 285.707 3.09953C284.789 1.64489 291.325 2.06644 291.325 2.06644L296.942 1.54985C296.942 1.54985 295.081 4.50049 296.14 5.68239C297.199 6.86428 303.362 2.58296 303.362 2.58296C303.362 2.58296 301.728 3.40536 304.165 4.13268C306.602 4.85999 317.406 2.06644 317.406 2.06644C317.406 2.06644 317.997 1.43363 318.209 3.6161C318.421 5.79858 337.87 4.13268 337.87 4.13268L339.074 6.7155C339.074 6.7155 336.358 4.92613 335.864 6.19894C335.726 6.54769 335.69 6.94893 335.764 7.3287C335.838 7.70848 336.016 8.04113 336.265 8.26517C336.265 8.26517 340.611 6.64472 341.883 8.78174C343.154 10.9188 354.279 8.2905 356.328 6.19894C358.376 4.10738 349.105 4.13268 349.105 4.13268C349.105 4.13268 363.062 0.806022 361.544 1.03331C360.893 1.13094 368.124 0.0161813 375.989 0.000167847C386.458 -0.0210112 399.261 2.06644 399.261 2.06644L426.546 1.54985C426.546 1.54985 423.905 3.88575 424.54 4.64923C425.176 5.41271 434.507 0.920702 434.973 2.06644C435.439 3.21217 440.63 1.27711 441.393 1.54985C442.155 1.8226 443.967 3.55825 444.603 4.64923C445.238 5.74021 471.487 5.68239 471.487 5.68239C471.487 5.68239 471.826 2.66668 471.487 2.06644C471.148 1.46619 474.295 2.06644 474.295 2.06644C474.295 2.06644 476.805 5.56976 477.907 6.7155C479.008 7.86124 492.031 4.48909 492.753 3.6161C493.475 2.74311 505.593 3.09953 505.593 3.09953H508L508 225.285ZM-20.447 223.735L-189.374 211.338Z" fill="white"/>
</svg>
