<svg width="342" height="277" viewBox="0 0 342 277" fill="none" xmlns="http://www.w3.org/2000/svg">
<g opacity="0.2">
<mask id="mask0" mask-type="alpha" maskUnits="userSpaceOnUse" x="11" y="-54" width="320" height="319">
<path d="M166.846 -49.0044C243.608 -57.2662 340.536 165.041 327.428 212.665C314.32 260.29 36.4842 288.697 20.5243 220.899C4.56445 153.1 90.0836 -40.7426 166.846 -49.0044Z" fill="white"/>
</mask>
<g mask="url(#mask0)">
<path d="M194.388 119.055C194.664 123.321 191.43 127.002 187.165 127.278C182.899 127.554 179.218 124.32 178.942 120.055C178.666 115.79 181.9 112.108 186.165 111.832C190.43 111.556 194.112 114.79 194.388 119.055Z" fill="white"/>
<path d="M228.368 116.857C228.644 121.122 225.41 124.804 221.145 125.08C216.879 125.355 213.198 122.122 212.922 117.856C212.646 113.591 215.88 109.91 220.145 109.634C224.411 109.358 228.092 112.592 228.368 116.857Z" fill="white"/>
<path d="M262.348 114.659C262.624 118.924 259.39 122.605 255.125 122.881C250.86 123.157 247.178 119.923 246.902 115.658C246.626 111.393 249.86 107.712 254.126 107.436C258.391 107.16 262.072 110.394 262.348 114.659Z" fill="white"/>
<path d="M296.328 112.461C296.604 116.726 293.37 120.407 289.105 120.683C284.84 120.959 281.158 117.725 280.883 113.46C280.607 109.195 283.841 105.513 288.106 105.237C292.371 104.961 296.052 108.195 296.328 112.461Z" fill="white"/>
<path d="M330.308 110.262C330.584 114.527 327.35 118.209 323.085 118.485C318.82 118.761 315.139 115.527 314.863 111.261C314.587 106.996 317.821 103.315 322.086 103.039C326.351 102.763 330.032 105.997 330.308 110.262Z" fill="white"/>
<path d="M196.586 153.036C196.862 157.301 193.628 160.982 189.363 161.258C185.098 161.534 181.416 158.3 181.14 154.035C180.865 149.77 184.098 146.088 188.364 145.812C192.629 145.537 196.31 148.77 196.586 153.036Z" fill="white"/>
<path d="M230.566 150.837C230.842 155.102 227.608 158.784 223.343 159.06C219.078 159.336 215.397 156.102 215.121 151.837C214.845 147.571 218.079 143.89 222.344 143.614C226.609 143.338 230.29 146.572 230.566 150.837Z" fill="white"/>
<path d="M264.546 148.639C264.822 152.904 261.588 156.585 257.323 156.861C253.058 157.137 249.377 153.903 249.101 149.638C248.825 145.373 252.059 141.692 256.324 141.416C260.589 141.14 264.27 144.374 264.546 148.639Z" fill="white"/>
<path d="M298.526 146.441C298.802 150.706 295.568 154.387 291.303 154.663C287.038 154.939 283.357 151.705 283.081 147.44C282.805 143.175 286.039 139.493 290.304 139.218C294.569 138.942 298.25 142.176 298.526 146.441Z" fill="white"/>
<path d="M332.506 144.242C332.782 148.508 329.548 152.189 325.283 152.465C321.018 152.741 317.337 149.507 317.061 145.242C316.785 140.976 320.019 137.295 324.284 137.019C328.549 136.743 332.231 139.977 332.506 144.242Z" fill="white"/>
<path d="M198.784 187.016C199.06 191.281 195.826 194.962 191.561 195.238C187.296 195.514 183.615 192.28 183.339 188.015C183.063 183.75 186.297 180.069 190.562 179.793C194.827 179.517 198.508 182.751 198.784 187.016Z" fill="white"/>
<path d="M232.764 184.817C233.04 189.083 229.806 192.764 225.541 193.04C221.276 193.316 217.595 190.082 217.319 185.817C217.043 181.552 220.277 177.87 224.542 177.594C228.807 177.318 232.488 180.552 232.764 184.817Z" fill="white"/>
<path d="M266.745 182.619C267.02 186.884 263.787 190.566 259.521 190.842C255.256 191.117 251.575 187.884 251.299 183.618C251.023 179.353 254.257 175.672 258.522 175.396C262.787 175.12 266.469 178.354 266.745 182.619Z" fill="white"/>
<path d="M300.725 180.421C301.001 184.686 297.767 188.367 293.502 188.643C289.236 188.919 285.555 185.685 285.279 181.42C285.003 177.155 288.237 173.474 292.502 173.198C296.767 172.922 300.449 176.156 300.725 180.421Z" fill="white"/>
<path d="M334.705 178.223C334.981 182.488 331.747 186.169 327.482 186.445C323.217 186.721 319.535 183.487 319.259 179.222C318.983 174.957 322.217 171.275 326.482 170.999C330.748 170.723 334.429 173.957 334.705 178.223Z" fill="white"/>
<path d="M200.983 220.996C201.259 225.261 198.025 228.942 193.759 229.218C189.494 229.494 185.813 226.26 185.537 221.995C185.261 217.73 188.495 214.049 192.76 213.773C197.025 213.497 200.707 216.731 200.983 220.996Z" fill="white"/>
<path d="M234.963 218.798C235.239 223.063 232.005 226.744 227.74 227.02C223.474 227.296 219.793 224.062 219.517 219.797C219.241 215.532 222.475 211.85 226.74 211.574C231.006 211.299 234.687 214.532 234.963 218.798Z" fill="white"/>
<path d="M268.943 216.599C269.219 220.864 265.985 224.546 261.72 224.822C257.455 225.098 253.773 221.864 253.497 217.599C253.221 213.333 256.455 209.652 260.721 209.376C264.986 209.1 268.667 212.334 268.943 216.599Z" fill="white"/>
<path d="M302.923 214.401C303.199 218.666 299.965 222.347 295.7 222.623C291.435 222.899 287.753 219.665 287.477 215.4C287.202 211.135 290.435 207.454 294.701 207.178C298.966 206.902 302.647 210.136 302.923 214.401Z" fill="white"/>
<path d="M336.903 212.203C337.179 216.468 333.945 220.149 329.68 220.425C325.415 220.701 321.734 217.467 321.458 213.202C321.182 208.937 324.416 205.255 328.681 204.98C332.946 204.704 336.627 207.937 336.903 212.203Z" fill="white"/>
<path d="M203.181 254.976C203.457 259.241 200.223 262.922 195.958 263.198C191.693 263.474 188.011 260.24 187.735 255.975C187.459 251.71 190.693 248.029 194.959 247.753C199.224 247.477 202.905 250.711 203.181 254.976Z" fill="white"/>
<path d="M237.161 252.778C237.437 257.043 234.203 260.724 229.938 261C225.673 261.276 221.991 258.042 221.716 253.777C221.44 249.512 224.674 245.83 228.939 245.555C233.204 245.279 236.885 248.512 237.161 252.778Z" fill="white"/>
<path d="M271.141 250.579C271.417 254.844 268.183 258.526 263.918 258.802C259.653 259.078 255.972 255.844 255.696 251.579C255.42 247.313 258.654 243.632 262.919 243.356C267.184 243.08 270.865 246.314 271.141 250.579Z" fill="white"/>
<path d="M305.121 248.381C305.397 252.646 302.163 256.327 297.898 256.603C293.633 256.879 289.952 253.645 289.676 249.38C289.4 245.115 292.634 241.434 296.899 241.158C301.164 240.882 304.845 244.116 305.121 248.381Z" fill="white"/>
<path d="M339.101 246.183C339.377 250.448 336.143 254.129 331.878 254.405C327.613 254.681 323.932 251.447 323.656 247.182C323.38 242.917 326.614 239.235 330.879 238.96C335.144 238.684 338.826 241.917 339.101 246.183Z" fill="white"/>
<path d="M29.1561 129.745C29.4321 134.01 26.1982 137.691 21.933 137.967C17.6678 138.243 13.9866 135.009 13.7106 130.744C13.4347 126.479 16.6686 122.798 20.9338 122.522C25.1989 122.246 28.8802 125.48 29.1561 129.745Z" fill="white"/>
<path d="M63.1363 127.547C63.4122 131.812 60.1783 135.493 55.9131 135.769C51.648 136.045 47.9667 132.811 47.6908 128.546C47.4148 124.281 50.6487 120.599 54.9139 120.324C59.179 120.048 62.8603 123.282 63.1363 127.547Z" fill="white"/>
<path d="M97.1164 125.348C97.3923 129.614 94.1584 133.295 89.8932 133.571C85.6281 133.847 81.9468 130.613 81.6709 126.348C81.3949 122.082 84.6289 118.401 88.894 118.125C93.1592 117.849 96.8405 121.083 97.1164 125.348Z" fill="white"/>
<path d="M131.097 123.15C131.372 127.415 128.139 131.097 123.873 131.372C119.608 131.648 115.927 128.414 115.651 124.149C115.375 119.884 118.609 116.203 122.874 115.927C127.139 115.651 130.821 118.885 131.097 123.15Z" fill="white"/>
<path d="M165.077 120.952C165.353 125.217 162.119 128.898 157.853 129.174C153.588 129.45 149.907 126.216 149.631 121.951C149.355 117.686 152.589 114.005 156.854 113.729C161.119 113.453 164.801 116.687 165.077 120.952Z" fill="white"/>
<path d="M31.3544 163.725C31.6304 167.99 28.3965 171.672 24.1313 171.948C19.8662 172.223 16.1849 168.99 15.9089 164.724C15.633 160.459 18.8669 156.778 23.1321 156.502C27.3972 156.226 31.0785 159.46 31.3544 163.725Z" fill="white"/>
<path d="M65.3346 161.527C65.6105 165.792 62.3766 169.473 58.1114 169.749C53.8463 170.025 50.165 166.791 49.8891 162.526C49.6131 158.261 52.847 154.58 57.1122 154.304C61.3774 154.028 65.0586 157.262 65.3346 161.527Z" fill="white"/>
<path d="M99.3147 159.329C99.5906 163.594 96.3567 167.275 92.0916 167.551C87.8264 167.827 84.1451 164.593 83.8692 160.328C83.5933 156.063 86.8272 152.381 91.0923 152.105C95.3575 151.829 99.0388 155.063 99.3147 159.329Z" fill="white"/>
<path d="M133.295 157.13C133.571 161.395 130.337 165.077 126.072 165.353C121.807 165.629 118.125 162.395 117.849 158.129C117.573 153.864 120.807 150.183 125.072 149.907C129.338 149.631 133.019 152.865 133.295 157.13Z" fill="white"/>
<path d="M167.275 154.932C167.551 159.197 164.317 162.878 160.052 163.154C155.787 163.43 152.105 160.196 151.829 155.931C151.554 151.666 154.787 147.985 159.053 147.709C163.318 147.433 166.999 150.667 167.275 154.932Z" fill="white"/>
<path d="M33.5528 197.705C33.8287 201.97 30.5948 205.652 26.3296 205.928C22.0645 206.204 18.3832 202.97 18.1073 198.705C17.8313 194.439 21.0652 190.758 25.3304 190.482C29.5956 190.206 33.2768 193.44 33.5528 197.705Z" fill="white"/>
<path d="M67.5329 195.507C67.8088 199.772 64.5749 203.453 60.3098 203.729C56.0446 204.005 52.3633 200.771 52.0874 196.506C51.8115 192.241 55.0454 188.56 59.3105 188.284C63.5757 188.008 67.257 191.242 67.5329 195.507Z" fill="white"/>
<path d="M101.513 193.309C101.789 197.574 98.555 201.255 94.2899 201.531C90.0247 201.807 86.3434 198.573 86.0675 194.308C85.7916 190.043 89.0255 186.361 93.2906 186.086C97.5558 185.81 101.237 189.044 101.513 193.309Z" fill="white"/>
<path d="M135.493 191.11C135.769 195.375 132.535 199.057 128.27 199.333C124.005 199.609 120.324 196.375 120.048 192.11C119.772 187.844 123.006 184.163 127.271 183.887C131.536 183.611 135.217 186.845 135.493 191.11Z" fill="white"/>
<path d="M169.473 188.912C169.749 193.177 166.515 196.858 162.25 197.134C157.985 197.41 154.304 194.176 154.028 189.911C153.752 185.646 156.986 181.965 161.251 181.689C165.516 181.413 169.197 184.647 169.473 188.912Z" fill="white"/>
<path d="M35.7511 231.685C36.027 235.951 32.7931 239.632 28.528 239.908C24.2628 240.184 20.5815 236.95 20.3056 232.685C20.0297 228.42 23.2636 224.738 27.5287 224.462C31.7939 224.186 35.4752 227.42 35.7511 231.685Z" fill="white"/>
<path d="M69.7312 229.487C70.0071 233.752 66.7732 237.434 62.5081 237.709C58.2429 237.985 54.5616 234.752 54.2857 230.486C54.0098 226.221 57.2437 222.54 61.5088 222.264C65.774 221.988 69.4553 225.222 69.7312 229.487Z" fill="white"/>
<path d="M103.711 227.289C103.987 231.554 100.753 235.235 96.4882 235.511C92.223 235.787 88.5418 232.553 88.2658 228.288C87.9899 224.023 91.2238 220.342 95.489 220.066C99.7541 219.79 103.435 223.024 103.711 227.289Z" fill="white"/>
<path d="M137.691 225.09C137.967 229.356 134.733 233.037 130.468 233.313C126.203 233.589 122.522 230.355 122.246 226.09C121.97 221.825 125.204 218.143 129.469 217.867C133.734 217.591 137.416 220.825 137.691 225.09Z" fill="white"/>
<path d="M171.672 222.892C171.948 227.157 168.714 230.839 164.448 231.115C160.183 231.39 156.502 228.157 156.226 223.891C155.95 219.626 159.184 215.945 163.449 215.669C167.714 215.393 171.396 218.627 171.672 222.892Z" fill="white"/>
<path d="M37.9494 265.665C38.2253 269.931 34.9914 273.612 30.7263 273.888C26.4611 274.164 22.7798 270.93 22.5039 266.665C22.228 262.4 25.4619 258.718 29.727 258.442C33.9922 258.166 37.6735 261.4 37.9494 265.665Z" fill="white"/>
<path d="M71.9295 263.467C72.2055 267.732 68.9716 271.414 64.7064 271.69C60.4412 271.965 56.7599 268.732 56.484 264.466C56.2081 260.201 59.442 256.52 63.7072 256.244C67.9723 255.968 71.6536 259.202 71.9295 263.467Z" fill="white"/>
<path d="M105.91 261.269C106.186 265.534 102.952 269.215 98.6865 269.491C94.4214 269.767 90.7401 266.533 90.4641 262.268C90.1882 258.003 93.4221 254.322 97.6873 254.046C101.952 253.77 105.634 257.004 105.91 261.269Z" fill="white"/>
<path d="M139.89 259.07C140.166 263.336 136.932 267.017 132.667 267.293C128.401 267.569 124.72 264.335 124.444 260.07C124.168 255.805 127.402 252.123 131.667 251.847C135.933 251.571 139.614 254.805 139.89 259.07Z" fill="white"/>
<path d="M173.87 256.872C174.146 261.137 170.912 264.819 166.647 265.095C162.382 265.371 158.7 262.137 158.424 257.871C158.148 253.606 161.382 249.925 165.648 249.649C169.913 249.373 173.594 252.607 173.87 256.872Z" fill="white"/>
<path d="M183.698 -46.1761C183.974 -41.9109 180.74 -38.2296 176.475 -37.9537C172.21 -37.6778 168.529 -40.9117 168.253 -45.1769C167.977 -49.442 171.211 -53.1233 175.476 -53.3992C179.741 -53.6752 183.422 -50.4412 183.698 -46.1761Z" fill="white"/>
<path d="M217.678 -48.3744C217.954 -44.1092 214.72 -40.428 210.455 -40.152C206.19 -39.8761 202.509 -43.11 202.233 -47.3752C201.957 -51.6403 205.191 -55.3216 209.456 -55.5975C213.721 -55.8735 217.402 -52.6396 217.678 -48.3744Z" fill="white"/>
<path d="M251.658 -50.5727C251.934 -46.3076 248.7 -42.6263 244.435 -42.3503C240.17 -42.0744 236.489 -45.3083 236.213 -49.5735C235.937 -53.8386 239.171 -57.5199 243.436 -57.7959C247.701 -58.0718 251.382 -54.8379 251.658 -50.5727Z" fill="white"/>
<path d="M285.639 -52.771C285.914 -48.5059 282.681 -44.8246 278.415 -44.5487C274.15 -44.2727 270.469 -47.5066 270.193 -51.7718C269.917 -56.037 273.151 -59.7182 277.416 -59.9942C281.681 -60.2701 285.363 -57.0362 285.639 -52.771Z" fill="white"/>
<path d="M319.619 -54.9694C319.895 -50.7042 316.661 -47.0229 312.396 -46.747C308.13 -46.4711 304.449 -49.705 304.173 -53.9701C303.897 -58.2353 307.131 -61.9166 311.396 -62.1925C315.661 -62.4684 319.343 -59.2345 319.619 -54.9694Z" fill="white"/>
<path d="M185.896 -12.1959C186.172 -7.93079 182.938 -4.24951 178.673 -3.97358C174.408 -3.69764 170.727 -6.93156 170.451 -11.1967C170.175 -15.4619 173.409 -19.1432 177.674 -19.4191C181.939 -19.695 185.621 -16.4611 185.896 -12.1959Z" fill="white"/>
<path d="M219.877 -14.3943C220.153 -10.1291 216.919 -6.44782 212.653 -6.17189C208.388 -5.89596 204.707 -9.12987 204.431 -13.395C204.155 -17.6602 207.389 -21.3415 211.654 -21.6174C215.919 -21.8933 219.601 -18.6594 219.877 -14.3943Z" fill="white"/>
<path d="M253.857 -16.5926C254.133 -12.3274 250.899 -8.64614 246.634 -8.37021C242.368 -8.09428 238.687 -11.3282 238.411 -15.5933C238.135 -19.8585 241.369 -23.5398 245.634 -23.8157C249.9 -24.0917 253.581 -20.8577 253.857 -16.5926Z" fill="white"/>
<path d="M287.837 -18.7909C288.113 -14.5257 284.879 -10.8445 280.614 -10.5685C276.349 -10.2926 272.667 -13.5265 272.391 -17.7917C272.115 -22.0568 275.349 -25.7381 279.614 -26.014C283.88 -26.29 287.561 -23.0561 287.837 -18.7909Z" fill="white"/>
<path d="M321.817 -20.9892C322.093 -16.7241 318.859 -13.0428 314.594 -12.7668C310.329 -12.4909 306.647 -15.7248 306.371 -19.99C306.096 -24.2551 309.329 -27.9364 313.595 -28.2124C317.86 -28.4883 321.541 -25.2544 321.817 -20.9892Z" fill="white"/>
<path d="M188.095 21.7842C188.371 26.0493 185.137 29.7306 180.872 30.0066C176.606 30.2825 172.925 27.0486 172.649 22.7834C172.373 18.5183 175.607 14.837 179.872 14.5611C184.138 14.2851 187.819 17.519 188.095 21.7842Z" fill="white"/>
<path d="M222.075 19.5859C222.351 23.851 219.117 27.5323 214.852 27.8082C210.587 28.0842 206.905 24.8503 206.629 20.5851C206.353 16.3199 209.587 12.6387 213.853 12.3627C218.118 12.0868 221.799 15.3207 222.075 19.5859Z" fill="white"/>
<path d="M256.055 17.3875C256.331 21.6527 253.097 25.334 248.832 25.6099C244.567 25.8859 240.885 22.6519 240.61 18.3868C240.334 14.1216 243.568 10.4403 247.833 10.1644C252.098 9.88849 255.779 13.1224 256.055 17.3875Z" fill="white"/>
<path d="M290.035 15.1892C290.311 19.4544 287.077 23.1357 282.812 23.4116C278.547 23.6875 274.866 20.4536 274.59 16.1885C274.314 11.9233 277.548 8.24203 281.813 7.9661C286.078 7.69017 289.759 10.9241 290.035 15.1892Z" fill="white"/>
<path d="M324.015 12.9909C324.291 17.2561 321.057 20.9374 316.792 21.2133C312.527 21.4892 308.846 18.2553 308.57 13.9901C308.294 9.72499 311.528 6.04371 315.793 5.76778C320.058 5.49185 323.739 8.72575 324.015 12.9909Z" fill="white"/>
<path d="M190.293 55.7643C190.569 60.0295 187.335 63.7108 183.07 63.9867C178.805 64.2626 175.124 61.0287 174.848 56.7636C174.572 52.4984 177.806 48.8171 182.071 48.5412C186.336 48.2653 190.017 51.4992 190.293 55.7643Z" fill="white"/>
<path d="M224.273 53.566C224.549 57.8312 221.315 61.5125 217.05 61.7884C212.785 62.0643 209.104 58.8304 208.828 54.5652C208.552 50.3001 211.786 46.6188 216.051 46.3429C220.316 46.0669 223.997 49.3008 224.273 53.566Z" fill="white"/>
<path d="M258.253 51.3677C258.529 55.6329 255.295 59.3141 251.03 59.5901C246.765 59.866 243.084 56.6321 242.808 52.3669C242.532 48.1018 245.766 44.4205 250.031 44.1446C254.296 43.8686 257.977 47.1025 258.253 51.3677Z" fill="white"/>
<path d="M292.233 49.1694C292.509 53.4345 289.275 57.1158 285.01 57.3918C280.745 57.6677 277.064 54.4338 276.788 50.1686C276.512 45.9034 279.746 42.2222 284.011 41.9462C288.276 41.6703 291.958 44.9042 292.233 49.1694Z" fill="white"/>
<path d="M326.214 46.9711C326.49 51.2362 323.256 54.9175 318.99 55.1934C314.725 55.4694 311.044 52.2355 310.768 47.9703C310.492 43.7051 313.726 40.0239 317.991 39.7479C322.256 39.472 325.938 42.7059 326.214 46.9711Z" fill="white"/>
<path d="M192.491 89.7444C192.767 94.0095 189.533 97.6908 185.268 97.9667C181.003 98.2427 177.322 95.0087 177.046 90.7436C176.77 86.4784 180.004 82.7972 184.269 82.5212C188.534 82.2453 192.215 85.4792 192.491 89.7444Z" fill="white"/>
<path d="M226.472 87.546C226.747 91.8112 223.514 95.4925 219.248 95.7684C214.983 96.0443 211.302 92.8104 211.026 88.5453C210.75 84.2801 213.984 80.5988 218.249 80.3229C222.514 80.047 226.196 83.2809 226.472 87.546Z" fill="white"/>
<path d="M260.452 85.3477C260.728 89.6129 257.494 93.2942 253.229 93.5701C248.963 93.846 245.282 90.6121 245.006 86.347C244.73 82.0818 247.964 78.4005 252.229 78.1246C256.494 77.8487 260.176 81.0826 260.452 85.3477Z" fill="white"/>
<path d="M294.432 83.1494C294.708 87.4146 291.474 91.0958 287.209 91.3718C282.943 91.6477 279.262 88.4138 278.986 84.1486C278.71 79.8835 281.944 76.2022 286.209 75.9263C290.475 75.6503 294.156 78.8843 294.432 83.1494Z" fill="white"/>
<path d="M328.412 80.9511C328.688 85.2162 325.454 88.8975 321.189 89.1735C316.924 89.4494 313.242 86.2155 312.966 81.9503C312.69 77.6852 315.924 74.0039 320.19 73.728C324.455 73.452 328.136 76.6859 328.412 80.9511Z" fill="white"/>
<path d="M18.4666 -35.4866C18.7425 -31.2214 15.5086 -27.5401 11.2435 -27.2642C6.97831 -26.9883 3.29703 -30.2222 3.0211 -34.4873C2.74517 -38.7525 5.97908 -42.4338 10.2442 -42.7097C14.5094 -42.9856 18.1907 -39.7517 18.4666 -35.4866Z" fill="white"/>
<path d="M52.4467 -37.6849C52.7227 -33.4197 49.4888 -29.7384 45.2236 -29.4625C40.9584 -29.1866 37.2772 -32.4205 37.0012 -36.6856C36.7253 -40.9508 39.9592 -44.6321 44.2244 -44.908C48.4895 -45.1839 52.1708 -41.95 52.4467 -37.6849Z" fill="white"/>
<path d="M86.4269 -39.8832C86.7028 -35.618 83.4689 -31.9368 79.2037 -31.6608C74.9386 -31.3849 71.2573 -34.6188 70.9814 -38.884C70.7054 -43.1491 73.9393 -46.8304 78.2045 -47.1063C82.4696 -47.3823 86.1509 -44.1484 86.4269 -39.8832Z" fill="white"/>
<path d="M120.407 -42.0815C120.683 -37.8164 117.449 -34.1351 113.184 -33.8591C108.919 -33.5832 105.237 -36.8171 104.961 -41.0823C104.686 -45.3474 107.919 -49.0287 112.185 -49.3047C116.45 -49.5806 120.131 -46.3467 120.407 -42.0815Z" fill="white"/>
<path d="M154.387 -44.2798C154.663 -40.0147 151.429 -36.3334 147.164 -36.0575C142.899 -35.7815 139.218 -39.0154 138.942 -43.2806C138.666 -47.5458 141.9 -51.227 146.165 -51.503C150.43 -51.7789 154.111 -48.545 154.387 -44.2798Z" fill="white"/>
<path d="M20.6649 -1.50643C20.9409 2.75873 17.7069 6.44002 13.4418 6.71595C9.17663 6.99188 5.49535 3.75797 5.21942 -0.50719C4.94349 -4.77235 8.1774 -8.45363 12.4426 -8.72956C16.7077 -9.00549 20.389 -5.77159 20.6649 -1.50643Z" fill="white"/>
<path d="M54.6451 -3.70474C54.921 0.560416 51.6871 4.2417 47.4219 4.51763C43.1568 4.79356 39.4755 1.55965 39.1995 -2.70551C38.9236 -6.97067 42.1575 -10.6519 46.4227 -10.9279C50.6878 -11.2038 54.3691 -7.9699 54.6451 -3.70474Z" fill="white"/>
<path d="M88.6252 -5.90306C88.9011 -1.6379 85.6672 2.04338 81.402 2.31931C77.1369 2.59524 73.4556 -0.638667 73.1797 -4.90383C72.9037 -9.16899 76.1376 -12.8503 80.4028 -13.1262C84.668 -13.4021 88.3492 -10.1682 88.6252 -5.90306Z" fill="white"/>
<path d="M122.605 -8.10138C122.881 -3.83622 119.647 -0.154936 115.382 0.120995C111.117 0.396926 107.436 -2.83698 107.16 -7.10214C106.884 -11.3673 110.118 -15.0486 114.383 -15.3245C118.648 -15.6004 122.329 -12.3665 122.605 -8.10138Z" fill="white"/>
<path d="M156.585 -10.2997C156.861 -6.03454 153.627 -2.35325 149.362 -2.07732C145.097 -1.80139 141.416 -5.0353 141.14 -9.30046C140.864 -13.5656 144.098 -17.2469 148.363 -17.5228C152.628 -17.7988 156.309 -14.5649 156.585 -10.2997Z" fill="white"/>
<path d="M22.8632 32.4737C23.1392 36.7389 19.9053 40.4202 15.6401 40.6961C11.3749 40.972 7.69367 37.7381 7.41774 33.4729C7.14181 29.2078 10.3757 25.5265 14.6409 25.2506C18.906 24.9746 22.5873 28.2085 22.8632 32.4737Z" fill="white"/>
<path d="M56.8434 30.2754C57.1193 34.5405 53.8854 38.2218 49.6202 38.4978C45.3551 38.7737 41.6738 35.5398 41.3979 31.2746C41.1219 27.0095 44.3558 23.3282 48.621 23.0523C52.8862 22.7763 56.5674 26.0102 56.8434 30.2754Z" fill="white"/>
<path d="M90.8235 28.0771C91.0994 32.3422 87.8655 36.0235 83.6004 36.2995C79.3352 36.5754 75.6539 33.3415 75.378 29.0763C75.1021 24.8111 78.336 21.1299 82.6011 20.8539C86.8663 20.578 90.5476 23.8119 90.8235 28.0771Z" fill="white"/>
<path d="M124.804 25.8788C125.08 30.1439 121.846 33.8252 117.58 34.1011C113.315 34.3771 109.634 31.1431 109.358 26.878C109.082 22.6128 112.316 18.9316 116.581 18.6556C120.846 18.3797 124.528 21.6136 124.804 25.8788Z" fill="white"/>
<path d="M158.784 23.6804C159.06 27.9456 155.826 31.6269 151.561 31.9028C147.295 32.1787 143.614 28.9448 143.338 24.6797C143.062 20.4145 146.296 16.7332 150.561 16.4573C154.827 16.1814 158.508 19.4153 158.784 23.6804Z" fill="white"/>
<path d="M25.0616 66.4538C25.3375 70.719 22.1036 74.4003 17.8384 74.6762C13.5733 74.9522 9.89199 71.7182 9.61606 67.4531C9.34012 63.1879 12.574 59.5066 16.8392 59.2307C21.1043 58.9548 24.7856 62.1887 25.0616 66.4538Z" fill="white"/>
<path d="M59.0417 64.2555C59.3176 68.5207 56.0837 72.202 51.8186 72.4779C47.5534 72.7538 43.8721 69.5199 43.5962 65.2548C43.3203 60.9896 46.5542 57.3083 50.8193 57.0324C55.0845 56.7565 58.7658 59.9904 59.0417 64.2555Z" fill="white"/>
<path d="M93.0218 62.0572C93.2977 66.3224 90.0638 70.0037 85.7987 70.2796C81.5335 70.5555 77.8522 67.3216 77.5763 63.0564C77.3004 58.7913 80.5343 55.11 84.7994 54.8341C89.0646 54.5582 92.7459 57.7921 93.0218 62.0572Z" fill="white"/>
<path d="M127.002 59.8589C127.278 64.1241 124.044 67.8053 119.779 68.0813C115.514 68.3572 111.832 65.1233 111.556 60.8581C111.281 56.593 114.514 52.9117 118.78 52.6358C123.045 52.3598 126.726 55.5937 127.002 59.8589Z" fill="white"/>
<path d="M160.982 57.6606C161.258 61.9257 158.024 65.607 153.759 65.883C149.494 66.1589 145.812 62.925 145.537 58.6598C145.261 54.3947 148.495 50.7134 152.76 50.4374C157.025 50.1615 160.706 53.3954 160.982 57.6606Z" fill="white"/>
<path d="M27.2599 100.434C27.5358 104.699 24.3019 108.38 20.0367 108.656C15.7716 108.932 12.0903 105.698 11.8144 101.433C11.5384 97.168 14.7723 93.4867 19.0375 93.2107C23.3027 92.9348 26.9839 96.1687 27.2599 100.434Z" fill="white"/>
<path d="M61.24 98.2356C61.5159 102.501 58.282 106.182 54.0169 106.458C49.7517 106.734 46.0704 103.5 45.7945 99.2348C45.5186 94.9696 48.7525 91.2884 53.0176 91.0124C57.2828 90.7365 60.9641 93.9704 61.24 98.2356Z" fill="white"/>
<path d="M95.2201 96.0373C95.4961 100.302 92.2621 103.984 87.997 104.26C83.7318 104.536 80.0506 101.302 79.7746 97.0365C79.4987 92.7713 82.7326 89.09 86.9977 88.8141C91.2629 88.5382 94.9442 91.7721 95.2201 96.0373Z" fill="white"/>
<path d="M129.2 93.8389C129.476 98.1041 126.242 101.785 121.977 102.061C117.712 102.337 114.031 99.1033 113.755 94.8382C113.479 90.573 116.713 86.8917 120.978 86.6158C125.243 86.3399 128.924 89.5738 129.2 93.8389Z" fill="white"/>
<path d="M163.18 91.6406C163.456 95.9058 160.222 99.5871 155.957 99.863C151.692 100.139 148.011 96.905 147.735 92.6399C147.459 88.3747 150.693 84.6934 154.958 84.4175C159.223 84.1415 162.904 87.3755 163.18 91.6406Z" fill="white"/>
</g>
</g>
</svg>
