<svg width="96" height="120" viewBox="0 0 96 120" fill="none" xmlns="http://www.w3.org/2000/svg">
<g opacity="0.2">
<circle cx="6.89754" cy="-5.26531" r="6.73469" fill="white"/>
<circle cx="36.53" cy="-5.26531" r="6.73469" fill="white"/>
<circle cx="66.1628" cy="-5.26531" r="6.73469" fill="white"/>
<circle cx="95.7957" cy="-5.26531" r="6.73469" fill="white"/>
<circle cx="6.89754" cy="24.3674" r="6.73469" fill="white"/>
<circle cx="36.53" cy="24.3674" r="6.73469" fill="white"/>
<circle cx="66.1628" cy="24.3674" r="6.73469" fill="white"/>
<circle cx="95.7957" cy="24.3674" r="6.73469" fill="white"/>
<circle cx="6.89754" cy="54" r="6.73469" fill="white"/>
<circle cx="36.53" cy="54" r="6.73469" fill="white"/>
<circle cx="66.1628" cy="54" r="6.73469" fill="white"/>
<circle cx="95.7957" cy="54" r="6.73469" fill="white"/>
<circle cx="6.89754" cy="83.6327" r="6.73469" fill="white"/>
<circle cx="36.53" cy="83.6327" r="6.73469" fill="white"/>
<circle cx="66.1628" cy="83.6327" r="6.73469" fill="white"/>
<circle cx="95.7957" cy="83.6327" r="6.73469" fill="white"/>
<circle cx="6.89754" cy="113.265" r="6.73469" fill="white"/>
<circle cx="36.53" cy="113.265" r="6.73469" fill="white"/>
<circle cx="66.1628" cy="113.265" r="6.73469" fill="white"/>
<circle cx="95.7957" cy="113.265" r="6.73469" fill="white"/>
</g>
</svg>
