<svg width="154" height="154" viewBox="0 0 154 154" fill="none" xmlns="http://www.w3.org/2000/svg">
<g opacity="0.2">
<circle cx="7.96896" cy="8.4238" r="7.80612" fill="#50D1FE"/>
<circle cx="42.3159" cy="8.4238" r="7.80612" fill="#50D1FE"/>
<circle cx="76.6628" cy="8.4238" r="7.80612" fill="#50D1FE"/>
<circle cx="111.01" cy="8.4238" r="7.80612" fill="#50D1FE"/>
<circle cx="145.357" cy="8.4238" r="7.80612" fill="#50D1FE"/>
<circle cx="7.96896" cy="42.771" r="7.80612" fill="#50D1FE"/>
<circle cx="42.3159" cy="42.771" r="7.80612" fill="#50D1FE"/>
<circle cx="76.6628" cy="42.771" r="7.80612" fill="#50D1FE"/>
<circle cx="111.01" cy="42.771" r="7.80612" fill="#50D1FE"/>
<circle cx="145.357" cy="42.771" r="7.80612" fill="#50D1FE"/>
<circle cx="7.96896" cy="77.1176" r="7.80612" fill="#50D1FE"/>
<circle cx="42.3159" cy="77.1176" r="7.80612" fill="#50D1FE"/>
<circle cx="76.6628" cy="77.1176" r="7.80612" fill="#50D1FE"/>
<circle cx="111.01" cy="77.1176" r="7.80612" fill="#50D1FE"/>
<circle cx="145.357" cy="77.1176" r="7.80612" fill="#50D1FE"/>
<circle cx="7.96896" cy="111.465" r="7.80612" fill="#50D1FE"/>
<circle cx="42.3159" cy="111.465" r="7.80612" fill="#50D1FE"/>
<circle cx="76.6628" cy="111.465" r="7.80612" fill="#50D1FE"/>
<circle cx="111.01" cy="111.465" r="7.80612" fill="#50D1FE"/>
<circle cx="145.357" cy="111.465" r="7.80612" fill="#50D1FE"/>
<circle cx="7.96896" cy="145.811" r="7.80612" fill="#50D1FE"/>
<circle cx="42.3159" cy="145.811" r="7.80612" fill="#50D1FE"/>
<circle cx="76.6628" cy="145.811" r="7.80612" fill="#50D1FE"/>
<circle cx="111.01" cy="145.811" r="7.80612" fill="#50D1FE"/>
<circle cx="145.357" cy="145.811" r="7.80612" fill="#50D1FE"/>
</g>
</svg>
