<svg width="438" height="438" viewBox="0 0 438 438" fill="none" xmlns="http://www.w3.org/2000/svg">
<g opacity="0.2">
<mask id="mask0" mask-type="alpha" maskUnits="userSpaceOnUse" x="6" y="6" width="426" height="426">
<path d="M86.8217 138.941C121.32 69.8711 360.769 108.336 393.774 145.086C426.78 181.836 300.658 431.021 234.976 407.842C169.294 384.664 52.3237 208.01 86.8217 138.941Z" fill="white"/>
</mask>
<g mask="url(#mask0)">
<path d="M243.144 206.512C246.883 208.583 248.235 213.293 246.164 217.032C244.093 220.771 239.384 222.123 235.645 220.052C231.906 217.981 230.554 213.271 232.625 209.532C234.696 205.793 239.405 204.441 243.144 206.512Z" fill="white"/>
<path d="M259.643 176.725C263.382 178.796 264.734 183.506 262.663 187.245C260.592 190.984 255.883 192.336 252.144 190.265C248.405 188.194 247.053 183.484 249.124 179.745C251.195 176.007 255.905 174.654 259.643 176.725Z" fill="white"/>
<path d="M276.142 146.938C279.881 149.009 281.233 153.719 279.162 157.458C277.091 161.197 272.382 162.549 268.643 160.478C264.904 158.407 263.552 153.697 265.623 149.958C267.694 146.22 272.404 144.867 276.142 146.938Z" fill="white"/>
<path d="M292.641 117.151C296.38 119.222 297.732 123.932 295.661 127.671C293.59 131.41 288.881 132.762 285.142 130.691C281.403 128.62 280.051 123.91 282.122 120.171C284.193 116.433 288.903 115.081 292.641 117.151Z" fill="white"/>
<path d="M309.141 87.3645C312.879 89.4354 314.231 94.1452 312.16 97.884C310.09 101.623 305.38 102.975 301.641 100.904C297.902 98.8331 296.55 94.1233 298.621 90.3845C300.692 86.6457 305.402 85.2935 309.141 87.3645Z" fill="white"/>
<path d="M272.931 223.011C276.67 225.082 278.022 229.792 275.951 233.531C273.88 237.27 269.171 238.622 265.432 236.551C261.693 234.48 260.341 229.77 262.412 226.031C264.483 222.293 269.192 220.94 272.931 223.011Z" fill="white"/>
<path d="M289.43 193.224C293.169 195.295 294.521 200.005 292.45 203.744C290.379 207.483 285.67 208.835 281.931 206.764C278.192 204.693 276.84 199.983 278.911 196.244C280.982 192.506 285.692 191.153 289.43 193.224Z" fill="white"/>
<path d="M305.929 163.437C309.668 165.508 311.02 170.218 308.949 173.957C306.878 177.696 302.169 179.048 298.43 176.977C294.691 174.906 293.339 170.196 295.41 166.457C297.481 162.719 302.191 161.367 305.929 163.437Z" fill="white"/>
<path d="M322.428 133.651C326.167 135.721 327.519 140.431 325.448 144.17C323.377 147.909 318.668 149.261 314.929 147.19C311.19 145.119 309.838 140.409 311.909 136.67C313.98 132.932 318.69 131.58 322.428 133.651Z" fill="white"/>
<path d="M338.927 103.864C342.666 105.934 344.018 110.644 341.947 114.383C339.877 118.122 335.167 119.474 331.428 117.403C327.689 115.332 326.337 110.622 328.408 106.884C330.479 103.145 335.189 101.793 338.927 103.864Z" fill="white"/>
<path d="M302.718 239.51C306.457 241.581 307.809 246.291 305.738 250.03C303.667 253.769 298.958 255.121 295.219 253.05C291.48 250.979 290.128 246.269 292.199 242.53C294.27 238.792 298.979 237.44 302.718 239.51Z" fill="white"/>
<path d="M319.217 209.723C322.956 211.794 324.308 216.504 322.237 220.243C320.166 223.982 315.457 225.334 311.718 223.263C307.979 221.192 306.627 216.482 308.698 212.743C310.769 209.005 315.478 207.653 319.217 209.723Z" fill="white"/>
<path d="M335.716 179.937C339.455 182.007 340.807 186.717 338.736 190.456C336.665 194.195 331.956 195.547 328.217 193.476C324.478 191.405 323.126 186.695 325.197 182.956C327.268 179.218 331.978 177.866 335.716 179.937Z" fill="white"/>
<path d="M352.215 150.15C355.954 152.221 357.306 156.93 355.235 160.669C353.164 164.408 348.455 165.76 344.716 163.689C340.977 161.618 339.625 156.908 341.696 153.17C343.767 149.431 348.477 148.079 352.215 150.15Z" fill="white"/>
<path d="M368.714 120.363C372.453 122.434 373.805 127.143 371.734 130.882C369.663 134.621 364.954 135.973 361.215 133.902C357.476 131.831 356.124 127.121 358.195 123.383C360.266 119.644 364.976 118.292 368.714 120.363Z" fill="white"/>
<path d="M332.505 256.01C336.244 258.08 337.596 262.79 335.525 266.529C333.454 270.268 328.745 271.62 325.006 269.549C321.267 267.478 319.915 262.768 321.986 259.029C324.057 255.291 328.766 253.939 332.505 256.01Z" fill="white"/>
<path d="M349.004 226.223C352.743 228.293 354.095 233.003 352.024 236.742C349.953 240.481 345.244 241.833 341.505 239.762C337.766 237.691 336.414 232.981 338.485 229.243C340.556 225.504 345.265 224.152 349.004 226.223Z" fill="white"/>
<path d="M365.503 196.436C369.242 198.507 370.594 203.216 368.523 206.955C366.452 210.694 361.743 212.046 358.004 209.975C354.265 207.904 352.913 203.194 354.984 199.456C357.055 195.717 361.765 194.365 365.503 196.436Z" fill="white"/>
<path d="M382.002 166.649C385.741 168.72 387.093 173.429 385.022 177.168C382.951 180.907 378.242 182.259 374.503 180.188C370.764 178.117 369.412 173.407 371.483 169.669C373.554 165.93 378.264 164.578 382.002 166.649Z" fill="white"/>
<path d="M398.501 136.862C402.24 138.933 403.592 143.642 401.521 147.381C399.45 151.12 394.741 152.472 391.002 150.401C387.263 148.33 385.911 143.62 387.982 139.882C390.053 136.143 394.763 134.791 398.501 136.862Z" fill="white"/>
<path d="M362.292 272.509C366.031 274.579 367.383 279.289 365.312 283.028C363.241 286.767 358.531 288.119 354.793 286.048C351.054 283.977 349.702 279.267 351.773 275.529C353.844 271.79 358.553 270.438 362.292 272.509Z" fill="white"/>
<path d="M378.791 242.722C382.53 244.792 383.882 249.502 381.811 253.241C379.74 256.98 375.03 258.332 371.292 256.261C367.553 254.19 366.201 249.48 368.272 245.742C370.343 242.003 375.052 240.651 378.791 242.722Z" fill="white"/>
<path d="M395.29 212.935C399.029 215.006 400.381 219.715 398.31 223.454C396.239 227.193 391.529 228.545 387.791 226.474C384.052 224.403 382.7 219.693 384.771 215.955C386.842 212.216 391.551 210.864 395.29 212.935Z" fill="white"/>
<path d="M411.789 183.148C415.528 185.219 416.88 189.928 414.809 193.667C412.738 197.406 408.029 198.758 404.29 196.687C400.551 194.616 399.199 189.906 401.27 186.168C403.341 182.429 408.05 181.077 411.789 183.148Z" fill="white"/>
<path d="M428.288 153.361C432.027 155.432 433.379 160.141 431.308 163.88C429.237 167.619 424.528 168.971 420.789 166.9C417.05 164.829 415.698 160.119 417.769 156.381C419.84 152.642 424.549 151.29 428.288 153.361Z" fill="white"/>
<path d="M162.916 351.354C166.655 353.425 168.007 358.135 165.936 361.874C163.865 365.613 159.155 366.965 155.417 364.894C151.678 362.823 150.326 358.113 152.397 354.374C154.468 350.635 159.177 349.283 162.916 351.354Z" fill="white"/>
<path d="M179.415 321.567C183.154 323.638 184.506 328.348 182.435 332.087C180.364 335.826 175.655 337.178 171.916 335.107C168.177 333.036 166.825 328.326 168.896 324.587C170.967 320.848 175.676 319.496 179.415 321.567Z" fill="white"/>
<path d="M195.914 291.78C199.653 293.851 201.005 298.561 198.934 302.3C196.863 306.039 192.154 307.391 188.415 305.32C184.676 303.249 183.324 298.539 185.395 294.8C187.466 291.061 192.175 289.709 195.914 291.78Z" fill="white"/>
<path d="M212.413 261.993C216.152 264.064 217.504 268.774 215.433 272.513C213.362 276.252 208.653 277.604 204.914 275.533C201.175 273.462 199.823 268.752 201.894 265.013C203.965 261.274 208.674 259.922 212.413 261.993Z" fill="white"/>
<path d="M228.912 232.206C232.651 234.277 234.003 238.987 231.932 242.726C229.861 246.465 225.152 247.817 221.413 245.746C217.674 243.675 216.322 238.965 218.393 235.226C220.464 231.488 225.174 230.135 228.912 232.206Z" fill="white"/>
<path d="M192.703 367.853C196.442 369.924 197.794 374.634 195.723 378.373C193.652 382.112 188.942 383.464 185.204 381.393C181.465 379.322 180.113 374.612 182.184 370.873C184.255 367.134 188.964 365.782 192.703 367.853Z" fill="white"/>
<path d="M209.202 338.066C212.941 340.137 214.293 344.847 212.222 348.586C210.151 352.325 205.441 353.677 201.703 351.606C197.964 349.535 196.612 344.825 198.683 341.086C200.754 337.347 205.463 335.995 209.202 338.066Z" fill="white"/>
<path d="M225.701 308.279C229.44 310.35 230.792 315.06 228.721 318.799C226.65 322.538 221.941 323.89 218.202 321.819C214.463 319.748 213.111 315.038 215.182 311.299C217.253 307.561 221.962 306.208 225.701 308.279Z" fill="white"/>
<path d="M242.2 278.492C245.939 280.563 247.291 285.273 245.22 289.012C243.149 292.751 238.44 294.103 234.701 292.032C230.962 289.961 229.61 285.251 231.681 281.512C233.752 277.774 238.461 276.421 242.2 278.492Z" fill="white"/>
<path d="M258.699 248.705C262.438 250.776 263.79 255.486 261.719 259.225C259.648 262.964 254.939 264.316 251.2 262.245C247.461 260.174 246.109 255.464 248.18 251.725C250.251 247.987 254.96 246.634 258.699 248.705Z" fill="white"/>
<path d="M222.49 384.352C226.229 386.423 227.581 391.133 225.51 394.872C223.439 398.611 218.729 399.963 214.991 397.892C211.252 395.821 209.9 391.111 211.971 387.372C214.042 383.633 218.751 382.281 222.49 384.352Z" fill="white"/>
<path d="M238.989 354.565C242.728 356.636 244.08 361.346 242.009 365.085C239.938 368.824 235.228 370.176 231.49 368.105C227.751 366.034 226.399 361.324 228.47 357.585C230.541 353.847 235.25 352.494 238.989 354.565Z" fill="white"/>
<path d="M255.488 324.778C259.227 326.849 260.579 331.559 258.508 335.298C256.437 339.037 251.727 340.389 247.989 338.318C244.25 336.247 242.898 331.537 244.969 327.798C247.04 324.06 251.749 322.707 255.488 324.778Z" fill="white"/>
<path d="M271.987 294.991C275.726 297.062 277.078 301.772 275.007 305.511C272.936 309.25 268.227 310.602 264.488 308.531C260.749 306.46 259.397 301.75 261.468 298.011C263.539 294.273 268.248 292.921 271.987 294.991Z" fill="white"/>
<path d="M288.486 265.205C292.225 267.275 293.577 271.985 291.506 275.724C289.435 279.463 284.726 280.815 280.987 278.744C277.248 276.673 275.896 271.963 277.967 268.224C280.038 264.486 284.747 263.134 288.486 265.205Z" fill="white"/>
<path d="M252.277 400.851C256.016 402.922 257.368 407.632 255.297 411.371C253.226 415.11 248.516 416.462 244.778 414.391C241.039 412.32 239.687 407.61 241.758 403.871C243.829 400.133 248.538 398.78 252.277 400.851Z" fill="white"/>
<path d="M268.776 371.064C272.515 373.135 273.867 377.845 271.796 381.584C269.725 385.323 265.015 386.675 261.277 384.604C257.538 382.533 256.186 377.823 258.257 374.084C260.328 370.346 265.037 368.993 268.776 371.064Z" fill="white"/>
<path d="M285.275 341.277C289.014 343.348 290.366 348.058 288.295 351.797C286.224 355.536 281.514 356.888 277.776 354.817C274.037 352.746 272.685 348.036 274.756 344.297C276.827 340.559 281.536 339.207 285.275 341.277Z" fill="white"/>
<path d="M301.774 311.49C305.513 313.561 306.865 318.271 304.794 322.01C302.723 325.749 298.014 327.101 294.275 325.03C290.536 322.959 289.184 318.249 291.255 314.51C293.326 310.772 298.035 309.42 301.774 311.49Z" fill="white"/>
<path d="M318.273 281.704C322.012 283.774 323.364 288.484 321.293 292.223C319.222 295.962 314.513 297.314 310.774 295.243C307.035 293.172 305.683 288.462 307.754 284.724C309.825 280.985 314.534 279.633 318.273 281.704Z" fill="white"/>
<path d="M282.064 417.35C285.803 419.421 287.155 424.131 285.084 427.87C283.013 431.609 278.303 432.961 274.564 430.89C270.826 428.819 269.474 424.109 271.544 420.37C273.615 416.632 278.325 415.279 282.064 417.35Z" fill="white"/>
<path d="M298.563 387.563C302.302 389.634 303.654 394.344 301.583 398.083C299.512 401.822 294.802 403.174 291.063 401.103C287.325 399.032 285.973 394.322 288.044 390.583C290.114 386.845 294.824 385.492 298.563 387.563Z" fill="white"/>
<path d="M315.062 357.776C318.801 359.847 320.153 364.557 318.082 368.296C316.011 372.035 311.301 373.387 307.563 371.316C303.824 369.245 302.472 364.535 304.543 360.796C306.614 357.058 311.323 355.706 315.062 357.776Z" fill="white"/>
<path d="M331.561 327.989C335.3 330.06 336.652 334.77 334.581 338.509C332.51 342.248 327.8 343.6 324.062 341.529C320.323 339.458 318.971 334.748 321.042 331.009C323.113 327.271 327.822 325.919 331.561 327.989Z" fill="white"/>
<path d="M348.06 298.203C351.799 300.273 353.151 304.983 351.08 308.722C349.009 312.461 344.299 313.813 340.561 311.742C336.822 309.671 335.47 304.961 337.541 301.223C339.612 297.484 344.321 296.132 348.06 298.203Z" fill="white"/>
<path d="M98.3024 126.284C102.041 128.355 103.393 133.065 101.322 136.804C99.2514 140.543 94.5417 141.895 90.8028 139.824C87.064 137.753 85.7119 133.043 87.7829 129.304C89.8538 125.565 94.5636 124.213 98.3024 126.284Z" fill="white"/>
<path d="M114.801 96.4972C118.54 98.5682 119.892 103.278 117.821 107.017C115.75 110.756 111.041 112.108 107.302 110.037C103.563 107.966 102.211 103.256 104.282 99.5172C106.353 95.7784 111.063 94.4263 114.801 96.4972Z" fill="white"/>
<path d="M131.3 66.7103C135.039 68.7812 136.391 73.491 134.32 77.2298C132.25 80.9686 127.54 82.3207 123.801 80.2498C120.062 78.1788 118.71 73.4691 120.781 69.7302C122.852 65.9914 127.562 64.6393 131.3 66.7103Z" fill="white"/>
<path d="M147.8 36.9233C151.538 38.9943 152.89 43.704 150.82 47.4428C148.749 51.1817 144.039 52.5338 140.3 50.4628C136.561 48.3919 135.209 43.6821 137.28 39.9433C139.351 36.2044 144.061 34.8524 147.8 36.9233Z" fill="white"/>
<path d="M164.299 7.13633C168.037 9.20727 169.39 13.9171 167.319 17.6559C165.248 21.3947 160.538 22.7468 156.799 20.6759C153.06 18.6049 151.708 13.8951 153.779 10.1563C155.85 6.41749 160.56 5.06538 164.299 7.13633Z" fill="white"/>
<path d="M128.089 142.783C131.828 144.854 133.18 149.564 131.109 153.303C129.038 157.042 124.329 158.394 120.59 156.323C116.851 154.252 115.499 149.542 117.57 145.803C119.641 142.064 124.351 140.712 128.089 142.783Z" fill="white"/>
<path d="M144.588 112.996C148.327 115.067 149.679 119.777 147.608 123.516C145.537 127.255 140.828 128.607 137.089 126.536C133.35 124.465 131.998 119.755 134.069 116.016C136.14 112.277 140.85 110.925 144.588 112.996Z" fill="white"/>
<path d="M161.087 83.2093C164.826 85.2803 166.178 89.99 164.107 93.7288C162.037 97.4677 157.327 98.8198 153.588 96.7488C149.849 94.6779 148.497 89.9681 150.568 86.2293C152.639 82.4904 157.349 81.1384 161.087 83.2093Z" fill="white"/>
<path d="M177.587 53.4224C181.325 55.4933 182.677 60.2031 180.606 63.9419C178.536 67.6807 173.826 69.0328 170.087 66.9619C166.348 64.8909 164.996 60.1812 167.067 56.4423C169.138 52.7035 173.848 51.3514 177.587 53.4224Z" fill="white"/>
<path d="M194.086 23.6354C197.824 25.7063 199.176 30.4161 197.106 34.1549C195.035 37.8938 190.325 39.2459 186.586 37.1749C182.847 35.104 181.495 30.3942 183.566 26.6554C185.637 22.9165 190.347 21.5644 194.086 23.6354Z" fill="white"/>
<path d="M157.876 159.282C161.615 161.353 162.967 166.063 160.896 169.802C158.825 173.541 154.116 174.893 150.377 172.822C146.638 170.751 145.286 166.041 147.357 162.302C149.428 158.563 154.137 157.211 157.876 159.282Z" fill="white"/>
<path d="M174.375 129.495C178.114 131.566 179.466 136.276 177.395 140.015C175.324 143.754 170.615 145.106 166.876 143.035C163.137 140.964 161.785 136.254 163.856 132.515C165.927 128.776 170.637 127.424 174.375 129.495Z" fill="white"/>
<path d="M190.874 99.7084C194.613 101.779 195.965 106.489 193.894 110.228C191.823 113.967 187.114 115.319 183.375 113.248C179.636 111.177 178.284 106.467 180.355 102.728C182.426 98.9895 187.136 97.6374 190.874 99.7084Z" fill="white"/>
<path d="M207.373 69.9214C211.112 71.9924 212.464 76.7021 210.393 80.4409C208.323 84.1798 203.613 85.5319 199.874 83.4609C196.135 81.39 194.783 76.6802 196.854 72.9414C198.925 69.2025 203.635 67.8505 207.373 69.9214Z" fill="white"/>
<path d="M223.873 40.1344C227.611 42.2054 228.963 46.9152 226.893 50.654C224.822 54.3928 220.112 55.7449 216.373 53.674C212.634 51.603 211.282 46.8932 213.353 43.1544C215.424 39.4156 220.134 38.0635 223.873 40.1344Z" fill="white"/>
<path d="M187.663 175.781C191.402 177.852 192.754 182.562 190.683 186.301C188.612 190.04 183.903 191.392 180.164 189.321C176.425 187.25 175.073 182.54 177.144 178.801C179.215 175.062 183.924 173.71 187.663 175.781Z" fill="white"/>
<path d="M204.162 145.994C207.901 148.065 209.253 152.775 207.182 156.514C205.111 160.253 200.402 161.605 196.663 159.534C192.924 157.463 191.572 152.753 193.643 149.014C195.714 145.276 200.424 143.923 204.162 145.994Z" fill="white"/>
<path d="M220.661 116.207C224.4 118.278 225.752 122.988 223.681 126.727C221.61 130.466 216.901 131.818 213.162 129.747C209.423 127.676 208.071 122.966 210.142 119.227C212.213 115.489 216.923 114.136 220.661 116.207Z" fill="white"/>
<path d="M237.16 86.4205C240.899 88.4914 242.251 93.2012 240.18 96.94C238.109 100.679 233.4 102.031 229.661 99.96C225.922 97.889 224.57 93.1793 226.641 89.4404C228.712 85.7016 233.422 84.3495 237.16 86.4205Z" fill="white"/>
<path d="M253.66 56.6335C257.398 58.7044 258.75 63.4142 256.679 67.153C254.609 70.8919 249.899 72.244 246.16 70.173C242.421 68.1021 241.069 63.3923 243.14 59.6535C245.211 55.9146 249.921 54.5625 253.66 56.6335Z" fill="white"/>
<path d="M217.45 192.28C221.189 194.351 222.541 199.061 220.47 202.8C218.399 206.539 213.689 207.891 209.951 205.82C206.212 203.749 204.86 199.039 206.931 195.3C209.002 191.561 213.711 190.209 217.45 192.28Z" fill="white"/>
<path d="M233.949 162.493C237.688 164.564 239.04 169.274 236.969 173.013C234.898 176.752 230.189 178.104 226.45 176.033C222.711 173.962 221.359 169.252 223.43 165.513C225.501 161.775 230.21 160.422 233.949 162.493Z" fill="white"/>
<path d="M250.448 132.706C254.187 134.777 255.539 139.487 253.468 143.226C251.397 146.965 246.688 148.317 242.949 146.246C239.21 144.175 237.858 139.465 239.929 135.726C242 131.988 246.709 130.635 250.448 132.706Z" fill="white"/>
<path d="M266.947 102.919C270.686 104.99 272.038 109.7 269.967 113.439C267.896 117.178 263.187 118.53 259.448 116.459C255.709 114.388 254.357 109.678 256.428 105.939C258.499 102.201 263.209 100.849 266.947 102.919Z" fill="white"/>
<path d="M283.446 73.1325C287.185 75.2034 288.537 79.9132 286.466 83.652C284.395 87.3909 279.686 88.743 275.947 86.672C272.208 84.6011 270.856 79.8913 272.927 76.1525C274.998 72.4136 279.708 71.0615 283.446 73.1325Z" fill="white"/>
<path d="M18.0743 271.126C21.8131 273.197 23.1652 277.907 21.0942 281.646C19.0233 285.384 14.3135 286.737 10.5747 284.666C6.83586 282.595 5.48377 277.885 7.55471 274.146C9.62566 270.407 14.3354 269.055 18.0743 271.126Z" fill="white"/>
<path d="M34.5733 241.339C38.3121 243.41 39.6642 248.12 37.5933 251.859C35.5223 255.597 30.8126 256.95 27.0737 254.879C23.3349 252.808 21.9828 248.098 24.0538 244.359C26.1247 240.62 30.8345 239.268 34.5733 241.339Z" fill="white"/>
<path d="M51.0723 211.552C54.8112 213.623 56.1633 218.333 54.0923 222.072C52.0214 225.811 47.3116 227.163 43.5728 225.092C39.8339 223.021 38.4819 218.311 40.5528 214.572C42.6237 210.833 47.3335 209.481 51.0723 211.552Z" fill="white"/>
<path d="M67.5714 181.765C71.3102 183.836 72.6623 188.546 70.5914 192.285C68.5204 196.024 63.8107 197.376 60.0718 195.305C56.333 193.234 54.9809 188.524 57.0519 184.785C59.1228 181.046 63.8326 179.694 67.5714 181.765Z" fill="white"/>
<path d="M84.0704 151.978C87.8093 154.049 89.1614 158.759 87.0904 162.498C85.0195 166.237 80.3097 167.589 76.5709 165.518C72.832 163.447 71.4799 158.737 73.5509 154.998C75.6218 151.259 80.3316 149.907 84.0704 151.978Z" fill="white"/>
<path d="M47.8612 287.625C51.6001 289.696 52.9522 294.406 50.8812 298.145C48.8103 301.883 44.1005 303.236 40.3617 301.165C36.6228 299.094 35.2707 294.384 37.3417 290.645C39.4126 286.906 44.1224 285.554 47.8612 287.625Z" fill="white"/>
<path d="M64.3603 257.838C68.0991 259.909 69.4512 264.619 67.3803 268.358C65.3093 272.097 60.5995 273.449 56.8607 271.378C53.1219 269.307 51.7698 264.597 53.8407 260.858C55.9117 257.119 60.6214 255.767 64.3603 257.838Z" fill="white"/>
<path d="M80.8593 228.051C84.5982 230.122 85.9502 234.832 83.8793 238.571C81.8084 242.31 77.0986 243.662 73.3598 241.591C69.6209 239.52 68.2688 234.81 70.3398 231.071C72.4107 227.332 77.1205 225.98 80.8593 228.051Z" fill="white"/>
<path d="M97.3584 198.264C101.097 200.335 102.449 205.045 100.378 208.784C98.3074 212.523 93.5976 213.875 89.8588 211.804C86.12 209.733 84.7679 205.023 86.8388 201.284C88.9098 197.545 93.6195 196.193 97.3584 198.264Z" fill="white"/>
<path d="M113.857 168.477C117.596 170.548 118.948 175.258 116.877 178.997C114.806 182.736 110.097 184.088 106.358 182.017C102.619 179.946 101.267 175.236 103.338 171.497C105.409 167.758 110.119 166.406 113.857 168.477Z" fill="white"/>
<path d="M77.6482 304.124C81.387 306.195 82.7391 310.905 80.6682 314.644C78.5972 318.383 73.8875 319.735 70.1486 317.664C66.4098 315.593 65.0577 310.883 67.1287 307.144C69.1996 303.405 73.9094 302.053 77.6482 304.124Z" fill="white"/>
<path d="M94.1472 274.337C97.8861 276.408 99.2382 281.118 97.1672 284.857C95.0963 288.596 90.3865 289.948 86.6477 287.877C82.9088 285.806 81.5568 281.096 83.6277 277.357C85.6987 273.618 90.4084 272.266 94.1472 274.337Z" fill="white"/>
<path d="M110.646 244.55C114.385 246.621 115.737 251.331 113.666 255.07C111.595 258.809 106.886 260.161 103.147 258.09C99.4079 256.019 98.0558 251.309 100.127 247.57C102.198 243.831 106.907 242.479 110.646 244.55Z" fill="white"/>
<path d="M127.145 214.763C130.884 216.834 132.236 221.544 130.165 225.283C128.094 229.022 123.385 230.374 119.646 228.303C115.907 226.232 114.555 221.522 116.626 217.783C118.697 214.044 123.406 212.692 127.145 214.763Z" fill="white"/>
<path d="M143.644 184.976C147.383 187.047 148.735 191.757 146.664 195.496C144.593 199.235 139.884 200.587 136.145 198.516C132.406 196.445 131.054 191.735 133.125 187.996C135.196 184.257 139.906 182.905 143.644 184.976Z" fill="white"/>
<path d="M107.435 320.623C111.174 322.694 112.526 327.404 110.455 331.143C108.384 334.882 103.674 336.234 99.9356 334.163C96.1968 332.092 94.8447 327.382 96.9156 323.643C98.9866 319.904 103.696 318.552 107.435 320.623Z" fill="white"/>
<path d="M123.934 290.836C127.673 292.907 129.025 297.617 126.954 301.356C124.883 305.095 120.173 306.447 116.435 304.376C112.696 302.305 111.344 297.595 113.415 293.856C115.486 290.117 120.195 288.765 123.934 290.836Z" fill="white"/>
<path d="M140.433 261.049C144.172 263.12 145.524 267.83 143.453 271.569C141.382 275.308 136.673 276.66 132.934 274.589C129.195 272.518 127.843 267.808 129.914 264.069C131.985 260.33 136.694 258.978 140.433 261.049Z" fill="white"/>
<path d="M156.932 231.262C160.671 233.333 162.023 238.043 159.952 241.782C157.881 245.521 153.172 246.873 149.433 244.802C145.694 242.731 144.342 238.021 146.413 234.282C148.484 230.543 153.193 229.191 156.932 231.262Z" fill="white"/>
<path d="M173.431 201.475C177.17 203.546 178.522 208.256 176.451 211.995C174.38 215.734 169.671 217.086 165.932 215.015C162.193 212.944 160.841 208.234 162.912 204.495C164.983 200.757 169.693 199.404 173.431 201.475Z" fill="white"/>
<path d="M137.222 337.122C140.961 339.193 142.313 343.903 140.242 347.642C138.171 351.381 133.461 352.733 129.723 350.662C125.984 348.591 124.632 343.881 126.703 340.142C128.773 336.403 133.483 335.051 137.222 337.122Z" fill="white"/>
<path d="M153.721 307.335C157.46 309.406 158.812 314.116 156.741 317.855C154.67 321.594 149.96 322.946 146.222 320.875C142.483 318.804 141.131 314.094 143.202 310.355C145.273 306.616 149.982 305.264 153.721 307.335Z" fill="white"/>
<path d="M170.22 277.548C173.959 279.619 175.311 284.329 173.24 288.068C171.169 291.807 166.459 293.159 162.721 291.088C158.982 289.017 157.63 284.307 159.701 280.568C161.772 276.829 166.481 275.477 170.22 277.548Z" fill="white"/>
<path d="M186.719 247.761C190.458 249.832 191.81 254.542 189.739 258.281C187.668 262.02 182.958 263.372 179.22 261.301C175.481 259.23 174.129 254.52 176.2 250.781C178.271 247.042 182.98 245.69 186.719 247.761Z" fill="white"/>
<path d="M203.218 217.974C206.957 220.045 208.309 224.755 206.238 228.494C204.167 232.233 199.458 233.585 195.719 231.514C191.98 229.443 190.628 224.733 192.699 220.994C194.77 217.256 199.479 215.903 203.218 217.974Z" fill="white"/>
</g>
</g>
</svg>
