<svg width="1883" height="540" viewBox="0 0 1883 540" fill="none" xmlns="http://www.w3.org/2000/svg">
<path fill-rule="evenodd" clip-rule="evenodd" d="M1798.09 424.57C1806.75 416.117 1808.85 406.076 1808.56 394.678C1808.44 389.693 1806.71 382.141 1804.46 377.319L1803.5 375.486L1803.47 375.437L1801.89 372.776C1797.48 366.397 1788.59 359.994 1777.21 358.289C1768.84 357.039 1767.66 358.587 1762.57 355.449C1758.89 353.183 1758.2 347.492 1755.09 341.11L1753.62 338.407L1752.45 335.891C1749.22 329.476 1743.21 320.304 1740.44 319.731C1735.34 318.676 1734.26 330.008 1732.09 332.152L1732.05 332.187C1731.82 332.449 1730.99 332.757 1729.69 333.155C1728.11 330.808 1721.98 323.3 1717.78 324.453C1717.58 324.508 1717.4 324.611 1717.25 324.738C1716.59 325.308 1716.34 326.57 1716.21 327.601C1716.05 328.8 1715.98 330.278 1715.93 331.753C1715.88 333.244 1715.84 334.732 1715.74 336.007C1715.65 337.333 1715.5 338.26 1715.29 338.722C1715.28 338.757 1715.27 338.79 1715.26 338.827C1713.94 339.653 1712.78 340.578 1711.87 341.615C1708.26 345.735 1705.28 352.037 1705.13 358.026C1705.09 359.604 1705.15 361.066 1705.33 362.482C1703.56 362.9 1701.87 363.545 1700.14 364.053C1699.74 364.174 1699.5 364.614 1699.62 365.035C1699.73 365.455 1700.16 365.7 1700.56 365.581C1702.29 365.07 1703.93 364.447 1705.6 364.047C1705.67 364.403 1705.76 364.759 1705.86 365.114C1705.2 365.322 1704.47 365.639 1703.78 365.964C1702.8 366.435 1701.84 366.98 1701.22 367.387C1700.87 367.622 1700.76 368.111 1700.99 368.482C1701.21 368.852 1701.69 368.959 1702.04 368.726C1702.6 368.362 1703.49 367.852 1704.43 367.403C1705.12 367.07 1705.79 366.793 1706.33 366.623C1707.24 369.193 1708.75 371.843 1711.12 375.016C1712.73 377.179 1719.58 384.322 1721.75 386.183C1723.05 387.301 1724.83 389.24 1726.59 391.416C1726.58 391.71 1726.72 391.999 1726.98 392.152C1727.52 392.465 1728.15 393.797 1728.54 396.284C1728.91 398.596 1729.03 401.533 1728.9 404.472C1728.77 407.414 1728.39 410.317 1727.78 412.568C1727.22 414.655 1726.54 415.882 1725.93 416.331L1725.75 416.428L1725.4 416.431C1724.02 416.521 1722.43 417.166 1721.2 418.226C1719.76 419.457 1718.7 421.337 1719.07 423.68C1719.55 426.712 1722.33 428.349 1726.23 428.318C1726.27 428.318 1726.31 428.315 1726.35 428.307C1728.34 430.45 1732.16 431.028 1734.85 430.665C1741.56 429.769 1746.43 422.285 1749.58 414.635L1750.19 412.975L1751.32 415.024C1751.99 416.102 1752.67 417.088 1752.98 417.878L1753.07 418.193L1752.17 418.809C1750.71 419.947 1749.21 421.643 1749.33 423.747C1749.64 428.797 1758.32 429.008 1762.63 428.535L1763.86 428.352L1764.33 428.656C1764.65 428.844 1765.21 429.154 1766.52 429.849C1777.09 435.475 1790.34 432.121 1798.09 424.57ZM1767.22 428.436C1764.65 427.072 1765.03 427.235 1764.43 426.851C1764.38 426.819 1764.33 426.793 1764.26 426.819C1764.27 426.798 1764.25 426.786 1764.24 426.773C1757.79 421.089 1756.03 412.895 1758.49 406.319C1760.03 402.173 1764.62 398.847 1769.5 399.317C1772.46 399.601 1774.12 400.512 1774.91 401.552C1775.48 402.299 1775.66 403.209 1775.46 404.223L1775.15 405.165L1774.91 405.426C1774.14 406.123 1773.25 406.093 1772.07 405.86C1770.82 405.616 1769.05 405.035 1767.42 405.743C1763.11 407.625 1763.41 416.209 1766.73 419.965C1770.78 424.548 1776.08 425.292 1781.17 424.631C1788.34 423.706 1797.49 415.304 1797.34 404.845C1797.33 404.406 1796.98 404.056 1796.56 404.062C1796.14 404.068 1795.8 404.429 1795.8 404.868C1795.94 414.427 1787.46 422.218 1780.98 423.056C1776.15 423.683 1771.45 422.947 1767.86 418.893C1764.9 415.545 1765.13 408.463 1768.02 407.206C1770.34 406.194 1773.82 409.283 1776.41 406.104C1776.45 406.047 1776.49 405.984 1776.52 405.917C1777.31 404.099 1777.31 402.147 1776.12 400.569C1774.95 399.035 1772.79 398.038 1769.64 397.737C1764.05 397.197 1758.84 400.976 1757.06 405.746C1754.5 412.609 1756.14 420.956 1762.19 426.997C1757.86 427.442 1751.05 426.847 1750.86 423.648C1750.76 421.924 1752.57 420.292 1754.32 419.231C1754.57 419.08 1754.72 418.795 1754.7 418.492C1754.56 416.334 1752.61 414.388 1751.6 412.412L1751.06 410.615L1751.26 410.077C1752.24 407.093 1752.96 404.288 1753.4 402.074C1753.49 401.646 1753.22 401.225 1752.81 401.133C1752.4 401.045 1751.99 401.32 1751.9 401.748C1751.44 404.05 1750.72 406.83 1749.76 409.728L1749.68 409.908C1749.54 410.061 1749.47 410.262 1749.47 410.485L1748.13 414.111C1745.11 421.412 1740.58 428.301 1734.65 429.092C1730.12 429.697 1725.53 427.702 1726.81 423.186C1727.32 421.432 1729.35 419.31 1731.31 419.763C1731.65 419.84 1732 419.676 1732.16 419.358C1735.95 411.952 1735.71 403.692 1733.73 399.364C1731.73 394.986 1725.91 387.696 1722.73 384.963C1720.63 383.155 1713.86 376.096 1712.33 374.047C1707.59 367.697 1706.52 363.71 1706.66 358.066C1706.68 357.394 1706.74 356.712 1706.83 356.029C1706.96 355.885 1707.14 355.764 1707.39 355.678C1707.7 355.57 1708.09 355.527 1708.51 355.561C1709.37 355.625 1710.22 355.99 1710.68 356.474C1710.75 356.545 1710.84 356.602 1710.93 356.642C1711.01 356.679 1711.08 356.734 1711.14 356.839C1711.36 357.214 1711.83 357.332 1712.19 357.104C1712.56 356.873 1712.67 356.386 1712.45 356.012C1712.25 355.685 1711.99 355.423 1711.67 355.249L1711.62 355.201C1710.83 354.482 1709.69 354.057 1708.62 353.975C1708.14 353.938 1707.65 353.969 1707.18 354.088C1708.16 349.824 1710.4 345.655 1713 342.681C1717.66 337.362 1728.12 335.808 1731.97 334.047L1733.17 333.265L1734.19 331.887C1736.38 328.015 1737.13 320.664 1740.14 321.286C1742.29 321.731 1749.47 332.595 1752.24 339.083C1752.25 339.116 1752.27 339.15 1752.29 339.18C1756.08 345.503 1757.26 354.027 1761.79 356.813C1767.21 360.155 1769.28 358.708 1776.99 359.861C1789.57 361.744 1798.86 369.555 1802.14 376.218L1802.17 376.276C1804.71 380.48 1806.89 389.231 1807.03 394.72C1807.31 405.863 1805.27 415.386 1797.04 423.414C1789.68 430.584 1777.12 433.706 1767.22 428.436ZM1720.58 423.421C1720.32 421.783 1721.03 420.425 1722.17 419.448C1723.33 418.454 1724.83 417.951 1725.89 418.014C1726 418.018 1726.11 418.003 1726.2 417.963C1727.71 417.379 1728.65 415.255 1729.26 412.995C1729.9 410.592 1730.29 407.564 1730.43 404.547C1730.57 401.568 1730.45 398.557 1730.07 396.12C1731.03 397.549 1731.83 398.908 1732.35 400.043C1733.88 403.388 1734.3 409.726 1731.97 415.96L1731 418.159L1730.5 418.115C1727.88 418.264 1725.86 420.922 1725.34 422.738C1724.89 424.323 1724.95 425.637 1725.35 426.706C1722.56 426.523 1720.88 425.313 1720.58 423.421ZM1738 370.373C1738.31 370.078 1738.33 369.575 1738.05 369.254C1736.47 367.465 1734.16 366.451 1732.61 365.25C1732.27 364.989 1731.79 365.061 1731.54 365.412C1731.28 365.761 1731.35 366.261 1731.69 366.523C1733.35 367.806 1735.53 368.748 1736.92 370.323C1737.2 370.647 1737.69 370.67 1738 370.373ZM1740.19 366.324C1740.45 365.974 1740.38 365.477 1740.04 365.212C1739.22 364.571 1737.95 363.998 1736.74 363.551C1735.5 363.1 1734.23 362.745 1733.33 362.565C1732.91 362.482 1732.51 362.764 1732.43 363.193C1732.35 363.623 1732.62 364.041 1733.04 364.123C1733.85 364.287 1735.05 364.62 1736.22 365.048C1737.41 365.487 1738.49 365.993 1739.12 366.481C1739.46 366.744 1739.94 366.674 1740.19 366.324ZM1720.9 363.181C1721.65 363.089 1722.39 362.767 1722.95 362.208C1723.52 361.64 1723.87 360.84 1723.82 359.884C1723.8 359.447 1723.44 359.11 1723.02 359.132C1722.59 359.154 1722.27 359.529 1722.29 359.965C1722.31 360.444 1722.15 360.803 1721.88 361.069C1721.6 361.349 1721.19 361.548 1720.72 361.606C1720.25 361.662 1719.77 361.574 1719.38 361.347C1719.01 361.129 1718.69 360.766 1718.53 360.214C1718.31 359.448 1717.25 359.466 1717.05 360.239C1716.91 360.828 1716.64 361.106 1716.39 361.242C1716.12 361.389 1715.77 361.425 1715.38 361.335C1714.58 361.146 1714.06 360.549 1714.08 360.167C1714.12 359.731 1713.81 359.349 1713.38 359.312C1712.96 359.275 1712.59 359.601 1712.56 360.04C1712.5 360.802 1712.86 361.459 1713.31 361.919C1713.77 362.387 1714.39 362.728 1715.04 362.881C1715.7 363.034 1716.44 363.01 1717.11 362.649C1717.36 362.508 1717.6 362.328 1717.8 362.101L1717.82 362.066L1717.89 362.149C1718.11 362.383 1718.36 362.577 1718.63 362.731C1719.33 363.141 1720.14 363.273 1720.9 363.181ZM1726.75 356.922C1728.06 355.224 1730.05 354.434 1732.18 354.38C1734.33 354.328 1736.55 355.021 1738.23 356.2C1738.57 356.448 1739.05 356.351 1739.29 355.989C1739.53 355.628 1739.44 355.134 1739.09 354.888C1737.15 353.521 1734.61 352.731 1732.15 352.794C1729.68 352.855 1727.22 353.779 1725.55 355.929C1725.29 356.272 1725.34 356.77 1725.67 357.046C1726 357.319 1726.48 357.266 1726.75 356.922ZM1717.27 336.128C1717.37 334.811 1717.41 333.274 1717.46 331.812C1717.52 330.332 1717.58 328.928 1717.73 327.813C1717.89 326.599 1718.1 326.136 1718.21 325.986L1718.71 325.917C1720.01 325.911 1721.8 326.971 1723.69 328.67C1725.53 330.323 1727.2 332.335 1728.14 333.641C1725.08 334.568 1720.77 335.863 1717.1 337.774C1717.18 337.26 1717.23 336.7 1717.27 336.128Z" fill="white" stroke="white"/>
<circle opacity="0.1" cx="1586.51" cy="328.464" r="8" fill="#051528"/>
<circle opacity="0.1" cx="1473.4" cy="163.329" r="8" fill="#051528"/>
<circle opacity="0.1" cx="1410.03" cy="373.407" r="8" fill="#051528"/>
<circle opacity="0.1" cx="763.163" cy="122" r="8" fill="#051528"/>
<circle opacity="0.1" cx="1492.16" cy="532" r="8" fill="#051528"/>
<g opacity="0.1">
<path d="M1.67265 329.288C-0.0453329 327.571 -0.045333 324.785 1.67265 323.067L19.0925 305.647C20.8105 303.929 23.5959 303.929 25.3139 305.647C27.0319 307.365 27.0319 310.151 25.3139 311.869L7.89403 329.288C6.17605 331.006 3.39064 331.006 1.67265 329.288Z" fill="#051528"/>
<path d="M1.45133 305.288C3.16932 303.571 5.95472 303.571 7.67271 305.288L25.0926 322.708C26.8105 324.426 26.8105 327.212 25.0926 328.93C23.3746 330.648 20.5892 330.648 18.8712 328.93L1.45133 311.51C-0.266654 309.792 -0.266655 307.006 1.45133 305.288Z" fill="#051528"/>
</g>
<g opacity="0.2">
<circle cx="1793.9" cy="-5.26531" r="6.73469" fill="white"/>
<circle cx="1823.53" cy="-5.26531" r="6.73469" fill="white"/>
<circle cx="1853.16" cy="-5.26531" r="6.73469" fill="white"/>
<circle cx="1882.8" cy="-5.26531" r="6.73469" fill="white"/>
<circle cx="1793.9" cy="24.3674" r="6.73469" fill="white"/>
<circle cx="1823.53" cy="24.3674" r="6.73469" fill="white"/>
<circle cx="1853.16" cy="24.3674" r="6.73469" fill="white"/>
<circle cx="1882.8" cy="24.3674" r="6.73469" fill="white"/>
<circle cx="1793.9" cy="54" r="6.73469" fill="white"/>
<circle cx="1823.53" cy="54" r="6.73469" fill="white"/>
<circle cx="1853.16" cy="54" r="6.73469" fill="white"/>
<circle cx="1882.8" cy="54" r="6.73469" fill="white"/>
<circle cx="1793.9" cy="83.6327" r="6.73469" fill="white"/>
<circle cx="1823.53" cy="83.6327" r="6.73469" fill="white"/>
<circle cx="1853.16" cy="83.6327" r="6.73469" fill="white"/>
<circle cx="1882.8" cy="83.6327" r="6.73469" fill="white"/>
<circle cx="1793.9" cy="113.265" r="6.73469" fill="white"/>
<circle cx="1823.53" cy="113.265" r="6.73469" fill="white"/>
<circle cx="1853.16" cy="113.265" r="6.73469" fill="white"/>
<circle cx="1882.8" cy="113.265" r="6.73469" fill="white"/>
</g>
<g opacity="0.1">
<path d="M1121.23 209.914C1119.52 208.196 1119.52 205.411 1121.23 203.693L1138.65 186.273C1140.37 184.555 1143.16 184.555 1144.87 186.273C1146.59 187.991 1146.59 190.776 1144.87 192.494L1127.45 209.914C1125.74 211.632 1122.95 211.632 1121.23 209.914Z" fill="#051528"/>
<path d="M1121.01 185.914C1122.73 184.196 1125.52 184.196 1127.23 185.914L1144.65 203.334C1146.37 205.052 1146.37 207.837 1144.65 209.555C1142.94 211.273 1140.15 211.273 1138.43 209.555L1121.01 192.135C1119.29 190.417 1119.29 187.632 1121.01 185.914Z" fill="#051528"/>
</g>
</svg>
