<svg width="27" height="27" viewBox="0 0 27 27" fill="none" xmlns="http://www.w3.org/2000/svg">
<g opacity="0.1">
<path d="M1.67265 25.2885C-0.0453329 23.5705 -0.045333 20.7851 1.67265 19.0671L19.0925 1.64726C20.8105 -0.0707232 23.5959 -0.0707248 25.3139 1.64726C27.0319 3.36525 27.0319 6.15065 25.3139 7.86864L7.89403 25.2885C6.17605 27.0065 3.39064 27.0065 1.67265 25.2885Z" fill="#051528"/>
<path d="M1.45133 1.28849C3.16932 -0.429497 5.95472 -0.429496 7.67271 1.28849L25.0926 18.7083C26.8105 20.4263 26.8105 23.2117 25.0926 24.9297C23.3746 26.6477 20.5892 26.6477 18.8712 24.9297L1.45133 7.50987C-0.266654 5.79188 -0.266655 3.00648 1.45133 1.28849Z" fill="#051528"/>
</g>
</svg>
