<svg width="27" height="27" viewBox="0 0 27 27" fill="none" xmlns="http://www.w3.org/2000/svg">
<g opacity="0.15">
<path d="M1.89702 25.3744C0.179032 23.6564 0.179032 20.871 1.89702 19.1531L19.3169 1.7332C21.0349 0.0152143 23.8203 0.0152127 25.5383 1.7332C27.2562 3.45118 27.2562 6.23659 25.5383 7.95458L8.1184 25.3744C6.40041 27.0924 3.615 27.0924 1.89702 25.3744Z" fill="#FAC714"/>
<path d="M1.6757 1.37443C3.39368 -0.343559 6.17909 -0.343559 7.89707 1.37443L25.3169 18.7943C27.0349 20.5123 27.0349 23.2977 25.3169 25.0157C23.5989 26.7336 20.8135 26.7336 19.0956 25.0157L1.6757 7.59581C-0.0422891 5.87782 -0.0422898 3.09241 1.6757 1.37443Z" fill="#FAC714"/>
</g>
</svg>
