<svg width="51" height="51" viewBox="0 0 51 51" fill="none" xmlns="http://www.w3.org/2000/svg">
<path d="M24.3783 5.80202C29.792 5.20466 34.8521 7.34972 38.6607 10.9067C42.4693 14.4637 45.0265 19.4327 45.4346 24.4831C45.9243 29.3706 43.8567 33.9051 40.2385 37.5707C36.6203 41.2091 31.4243 43.9244 25.6569 45.092C19.9984 46.1238 15.2104 44.5218 11.6194 40.5032C7.97398 36.566 5.52557 30.1851 5.1175 25.2162C4.73664 20.2201 6.61375 16.6631 10.1775 13.1061C13.7685 9.68485 18.9646 6.31792 24.3783 5.80202Z" fill="#86D68E" stroke="#86D68E" stroke-width="1.21259"/>
<path d="M45.888 12.533C49.786 17.8745 50.5789 24.4688 49.1584 30.6345C47.7379 36.8002 44.071 42.5043 39.0167 45.9993C34.1937 49.4613 28.1814 50.0878 22.136 48.4722C16.1237 46.8896 10.1114 43.0648 5.42052 37.7234C0.894775 32.382 -0.327507 26.4141 1.72064 20.1495C3.63665 13.9838 8.85612 7.52134 13.8444 4.09228C18.8656 0.630253 23.7217 0.465394 29.6349 2.04804C35.3499 3.72959 42.0229 7.15865 45.888 12.533Z" stroke="#86D68E" stroke-width="1.47246"/>
<mask id="path-3-inside-1" fill="white">
<path d="M37.2262 26.2927C37.3237 26.2647 37.3984 26.1892 37.4221 26.094C37.446 25.9988 37.4155 25.8989 37.342 25.8312C37.016 25.5321 36.3485 24.6255 35.9271 24.0364C37.738 20.4249 36.3211 14.0756 36.259 13.8034C36.2268 13.661 36.083 13.5669 35.9348 13.5916C31.651 14.2611 28.6667 16.8376 28.053 17.4047C27.8714 17.3677 27.6915 17.3342 27.5144 17.306L27.513 17.3054H27.511C26.6972 17.1756 25.9358 17.1323 25.2871 17.1323C24.6384 17.1323 23.877 17.1759 23.0632 17.3054H23.0612L23.0598 17.306C22.8827 17.3342 22.7028 17.3677 22.5212 17.4047C21.9081 16.8376 18.9238 14.2611 14.64 13.5916C14.4934 13.5669 14.3483 13.6613 14.3158 13.8034C14.2536 14.0756 12.8373 20.4252 14.6477 24.0364C14.1903 24.6752 13.5402 25.5485 13.2328 25.8309C13.1592 25.8987 13.1287 25.9985 13.1527 26.0937C13.1763 26.189 13.2513 26.2647 13.3489 26.2924C13.3754 26.3001 13.6816 26.4002 14.1826 26.3097C13.9337 26.8206 13.5764 27.4473 13.2676 27.6531C13.1724 27.7165 13.1264 27.8292 13.1515 27.9382C13.1769 28.0471 13.2679 28.1305 13.3822 28.1492C13.3879 28.15 13.841 28.2266 14.2465 28.4697C14.1313 28.5962 13.9368 28.7545 13.6463 28.8242C13.5656 28.8437 13.4977 28.8958 13.4606 28.9671C13.4236 29.0385 13.4201 29.1222 13.4524 29.1957C13.5014 29.3087 14.6622 31.9725 15.703 33.0706C19.2272 36.7902 23.2206 37.3453 25.2874 37.3453C27.3541 37.3453 31.3476 36.7902 34.872 33.0714C35.9134 31.9733 37.0742 29.3093 37.123 29.1965C37.1549 29.1227 37.1521 29.0393 37.1147 28.968C37.0773 28.8966 37.0098 28.8442 36.9291 28.825C36.6365 28.7548 36.4426 28.5973 36.3283 28.471C36.732 28.2293 37.1883 28.1506 37.1934 28.1495C37.3075 28.1305 37.3987 28.0468 37.4235 27.9382C37.4483 27.8295 37.403 27.717 37.3077 27.6534C36.9995 27.4479 36.6419 26.8209 36.3927 26.31C36.894 26.4005 37.1997 26.3004 37.2262 26.2927ZM35.0876 21.1079C35.0577 21.0187 34.9824 20.9506 34.888 20.927C34.7263 20.8867 34.5256 20.87 34.3274 20.8744C34.4959 20.6252 34.7831 20.3393 34.9995 20.1648C35.0827 20.0973 35.1192 19.99 35.093 19.8885C35.0665 19.7867 34.9824 19.7082 34.876 19.6863C34.5758 19.6245 34.2299 19.5932 33.8475 19.5932C33.5487 19.5932 33.2752 19.6122 33.0665 19.6328C33.1586 19.5046 33.3049 19.3894 33.3972 19.334C33.4956 19.2761 33.5475 19.1666 33.5296 19.0568C33.5116 18.9471 33.4266 18.859 33.3143 18.8332C32.9419 18.7476 32.596 18.7042 32.2863 18.7042C31.9678 18.7042 31.7457 18.7495 31.6068 18.7923C31.5635 18.7649 31.5193 18.7407 31.4759 18.7144C32.0054 18.1571 33.4523 16.7459 35.042 16.1439C35.2578 17.0508 35.8287 19.9412 35.1093 22.5284C35.0129 22.3456 34.9128 22.1651 34.8047 21.9895L34.8039 21.9875C34.7853 21.7299 34.963 21.455 35.0366 21.3674C35.0984 21.2947 35.1178 21.197 35.0876 21.1079ZM35.7557 14.1785C35.9941 15.3696 36.8817 20.4098 35.5547 23.4961C35.5264 23.4245 35.4962 23.3537 35.4663 23.2829C36.699 19.9014 35.5675 15.8805 35.5184 15.7096C35.4976 15.6374 35.4472 15.5768 35.379 15.5414C35.3106 15.506 35.2299 15.4991 35.1563 15.5219C33.2156 16.1242 31.4816 17.88 30.9738 18.4296C30.2313 18.0377 29.4691 17.7565 28.7243 17.5603C29.6578 16.7693 32.2663 14.8016 35.7557 14.1785ZM30.698 18.9087C30.495 19.4821 30.2438 19.8045 30.0904 19.9604C29.5637 19.5159 29.0257 18.6782 28.702 18.125C29.3653 18.3083 30.0405 18.5618 30.698 18.9087ZM27.1066 17.8012C26.919 18.5163 26.3424 20.4252 25.2874 21.5367C24.2323 20.4249 23.6558 18.5163 23.4681 17.8012C24.1297 17.7126 24.749 17.6808 25.2874 17.6808C25.8257 17.6808 26.4451 17.7126 27.1066 17.8012ZM14.8191 14.1785C18.3084 14.8016 20.9169 16.769 21.8505 17.56C21.1063 17.7562 20.3435 18.0377 19.601 18.4296C19.0931 17.88 17.3594 16.1242 15.4185 15.5216C15.3452 15.4988 15.2645 15.5057 15.1958 15.5411C15.1276 15.5765 15.0771 15.6374 15.0563 15.7093C15.007 15.8805 13.8755 19.9006 15.1088 23.2821C15.0791 23.3532 15.0483 23.4242 15.0201 23.4959C13.6947 20.4115 14.581 15.3699 14.8191 14.1785ZM21.8728 18.125C21.5494 18.6779 21.0113 19.5153 20.4847 19.9601C20.3304 19.8037 20.0797 19.4813 19.877 18.9089C20.5343 18.5621 21.2095 18.3083 21.8728 18.125ZM17.1781 19.3337C17.2374 19.3688 17.4054 19.4904 17.5086 19.6325C17.2996 19.6116 17.0264 19.5927 16.7276 19.5927C16.3449 19.5927 15.999 19.624 15.6993 19.686C15.593 19.7079 15.5088 19.7864 15.4823 19.8882C15.4561 19.99 15.4926 20.0973 15.5759 20.1645C15.7926 20.3393 16.0797 20.6252 16.2479 20.8741C16.0515 20.8691 15.8493 20.8862 15.6873 20.9268C15.5935 20.9501 15.5188 21.0181 15.4886 21.1068C15.4584 21.1951 15.4772 21.2931 15.5379 21.3655C15.6124 21.4541 15.7909 21.7304 15.7706 21.9886C15.6625 22.1645 15.5625 22.3448 15.4658 22.5273C14.7466 19.9403 15.3172 17.0502 15.5328 16.1431C17.1202 16.7446 18.5685 18.1563 19.0988 18.7138C19.0555 18.7402 19.0113 18.7643 18.9682 18.7915C18.8294 18.7487 18.6073 18.7034 18.2887 18.7034C17.9788 18.7034 17.6329 18.7468 17.2611 18.8324C17.1487 18.8582 17.064 18.9465 17.0458 19.056C17.0275 19.1663 17.0797 19.2758 17.1781 19.3337ZM36.0092 25.6001C35.9045 25.5439 35.7739 25.557 35.683 25.6328C35.5923 25.7088 35.5607 25.8314 35.6046 25.9393C35.6613 26.08 36.0873 27.1125 36.6017 27.7406C36.3428 27.8306 36.0243 27.9747 35.7528 28.1961C35.6547 28.2762 35.6248 28.4099 35.6793 28.5221C35.6904 28.5446 35.9191 29.0006 36.4774 29.2508C36.1563 29.9538 35.243 31.8663 34.4509 32.7018C31.0739 36.2645 27.26 36.7965 25.2874 36.7965C23.3147 36.7965 19.5009 36.2645 16.1239 32.7015C15.3329 31.8669 14.419 29.9538 14.0974 29.2508C14.656 29.0006 14.8849 28.5448 14.8958 28.5223C14.9508 28.4101 14.9206 28.2765 14.8225 28.1964C14.551 27.9747 14.2325 27.8306 13.973 27.7409C14.488 27.1125 14.9135 26.0803 14.9705 25.9393C15.0138 25.8314 14.9825 25.7091 14.8918 25.6331C14.8008 25.557 14.6705 25.5442 14.5656 25.6004C14.3751 25.7027 14.192 25.7538 14.0369 25.7777C14.5975 25.0996 15.3395 24.0369 15.4769 23.8391C15.4986 23.8147 15.5163 23.7864 15.5282 23.7549C15.7321 23.2204 15.9905 22.7021 16.2956 22.2136C16.3235 22.1692 16.3366 22.1193 16.3358 22.0696C16.3637 21.8298 16.3033 21.6034 16.2243 21.4229C16.4387 21.4278 16.6141 21.4613 16.6158 21.4618C16.7005 21.478 16.7892 21.4569 16.8559 21.4031C16.9223 21.3496 16.96 21.2698 16.958 21.1863C16.9491 20.8296 16.656 20.4395 16.3828 20.1516C16.4929 20.145 16.6078 20.1417 16.7273 20.1417C17.3167 20.1417 17.8114 20.2238 17.8163 20.2246C17.966 20.2499 18.11 20.1579 18.1433 20.0153C18.2095 19.7362 18.102 19.4791 17.9409 19.2725C18.0626 19.2593 18.1784 19.2527 18.2885 19.2527C18.6098 19.2527 18.7866 19.3101 18.8385 19.3298C18.8399 19.3307 18.8416 19.3318 18.8431 19.3326C18.9394 19.3929 19.0635 19.3918 19.1587 19.3293C19.2309 19.2821 19.3042 19.2393 19.3771 19.1946C19.7541 20.1851 20.2637 20.5127 20.3264 20.5498C20.4228 20.6068 20.5457 20.6033 20.6386 20.5407C21.5038 19.9596 22.382 18.3942 22.6227 17.9445C22.7165 17.9252 22.8095 17.9069 22.9021 17.8901C23.0983 18.6609 23.7656 20.9257 25.0918 22.1275C25.1465 22.1772 25.217 22.2021 25.2874 22.2021C25.3578 22.2021 25.428 22.1772 25.483 22.1275C26.8089 20.9257 27.4765 18.6609 27.6726 17.8901C27.7653 17.9069 27.8583 17.925 27.9521 17.9445C28.1927 18.3942 29.071 19.9596 29.9361 20.5407C30.0288 20.6035 30.1523 20.6068 30.2484 20.5498C30.3111 20.5127 30.8212 20.1851 31.1979 19.1946C31.2709 19.2393 31.3445 19.2821 31.4166 19.3296C31.5104 19.3916 31.633 19.3916 31.728 19.3337C31.777 19.3139 31.9547 19.2527 32.2866 19.2527C32.3967 19.2527 32.5127 19.2593 32.6342 19.2725C32.4734 19.4788 32.3656 19.7359 32.4312 20.015C32.4651 20.1577 32.6097 20.2499 32.7585 20.2246C32.7636 20.2238 33.2578 20.1417 33.8478 20.1417C33.9673 20.1417 34.0822 20.145 34.1925 20.1516C33.9191 20.4395 33.6265 20.8294 33.6174 21.1863C33.6154 21.2698 33.653 21.3496 33.7195 21.4031C33.7859 21.4569 33.874 21.478 33.9596 21.4618C33.9615 21.4615 34.1363 21.4278 34.3508 21.4229C34.2721 21.6031 34.2116 21.8284 34.2387 22.0671C34.2379 22.1176 34.2513 22.1684 34.2798 22.2136C34.584 22.7004 34.8424 23.219 35.0465 23.7549C35.0582 23.7859 35.0756 23.8136 35.097 23.8377C35.2319 24.032 35.9758 25.098 36.5378 25.7777C36.3824 25.7535 36.1997 25.7022 36.0092 25.6001Z"/>
<path d="M33.1292 28.2905C33.172 28.2905 33.2156 28.2812 33.2564 28.2617L34.6821 27.5757C34.823 27.5079 34.88 27.343 34.8096 27.2075C34.7391 27.0719 34.5678 27.0171 34.4269 27.0848L33.0012 27.7708C32.8603 27.8386 32.8033 28.0035 32.8737 28.139C32.9239 28.2351 33.0246 28.2905 33.1292 28.2905Z"/>
<path d="M34.5547 28.4277H33.1289C32.9712 28.4277 32.8438 28.5506 32.8438 28.7021C32.8438 28.8535 32.9712 28.9765 33.1289 28.9765H34.5547C34.7123 28.9765 34.8398 28.8535 34.8398 28.7021C34.8398 28.5506 34.7123 28.4277 34.5547 28.4277Z"/>
<path d="M34.6821 29.8284L33.2564 29.1425C33.1155 29.0747 32.9444 29.1296 32.8737 29.2651C32.8033 29.4007 32.8603 29.5656 33.0012 29.6333L34.4269 30.3193C34.468 30.3391 34.5116 30.3484 34.5544 30.3484C34.659 30.3484 34.7597 30.293 34.8099 30.1967C34.8803 30.0611 34.823 29.8965 34.6821 29.8284Z"/>
<path d="M15.8927 27.5757L17.3184 28.2617C17.3594 28.2814 17.4028 28.2905 17.4456 28.2905C17.5502 28.2905 17.6509 28.2351 17.7011 28.1388C17.7715 28.0032 17.7145 27.8383 17.5736 27.7705L16.1479 27.0846C16.007 27.0168 15.8359 27.0717 15.7652 27.2072C15.6945 27.343 15.7518 27.5077 15.8927 27.5757Z"/>
<path d="M17.4458 28.4277H16.0201C15.8624 28.4277 15.735 28.5506 15.735 28.7021C15.735 28.8535 15.8624 28.9765 16.0201 28.9765H17.4458C17.6035 28.9765 17.731 28.8535 17.731 28.7021C17.731 28.5506 17.6035 28.4277 17.4458 28.4277Z"/>
<path d="M17.3184 29.1425L15.8927 29.8284C15.7518 29.8962 15.6948 30.0611 15.7652 30.1967C15.8151 30.293 15.9158 30.3484 16.0204 30.3484C16.0632 30.3484 16.1068 30.3391 16.1476 30.3196L17.5733 29.6336C17.7142 29.5658 17.7712 29.4009 17.7008 29.2654C17.6301 29.1298 17.459 29.0747 17.3184 29.1425Z"/>
<path d="M29.5646 24.9668C28.9016 24.9668 27.1408 24.9668 27.1408 26.6132C27.1408 27.8992 28.2281 28.9455 29.5646 28.9455C30.9011 28.9455 31.9883 27.8992 31.9883 26.6132C31.9883 24.9668 30.2276 24.9668 29.5646 24.9668ZM29.5646 28.3967C28.5426 28.3967 27.7111 27.5966 27.7111 26.6132C27.7111 26.4425 27.7331 26.2872 27.791 26.15C28.0507 26.4332 28.4277 26.6132 28.8517 26.6132C29.5272 26.6132 30.0904 26.1596 30.2372 25.5527C31.1968 25.6701 31.418 26.0649 31.418 26.6132C31.418 27.5966 30.5866 28.3967 29.5646 28.3967Z"/>
<path d="M23.4339 26.6132C23.4339 24.9668 21.6731 24.9668 21.0102 24.9668C20.3472 24.9668 18.5864 24.9668 18.5864 26.6132C18.5864 27.8992 19.6737 28.9455 21.0102 28.9455C22.3467 28.9455 23.4339 27.8992 23.4339 26.6132ZM21.0102 28.3967C19.9882 28.3967 19.1567 27.5966 19.1567 26.6132C19.1567 26.4425 19.1787 26.2872 19.2366 26.15C19.4963 26.4332 19.8733 26.6132 20.2973 26.6132C20.9728 26.6132 21.536 26.1596 21.6828 25.5527C22.6424 25.6701 22.8636 26.0649 22.8636 26.6132C22.8636 27.5966 22.0321 28.3967 21.0102 28.3967Z"/>
<path d="M28.8517 31.8265H21.723C21.5654 31.8265 21.4379 31.9494 21.4379 32.1009C21.4379 32.2524 21.5654 32.3753 21.723 32.3753H28.8517C29.0094 32.3753 29.1369 32.2524 29.1369 32.1009C29.1369 31.9494 29.0094 31.8265 28.8517 31.8265Z"/>
<path d="M32.1517 22.4644C29.0947 21.9623 26.9338 23.6429 26.8434 23.7148C26.722 23.8111 26.7051 23.9837 26.8049 24.1006C26.8611 24.1665 26.9427 24.2005 27.0251 24.2005C27.0889 24.2005 27.1528 24.1802 27.2061 24.1382C27.2264 24.1223 29.2618 22.5467 32.0559 23.0055C32.2107 23.0319 32.3585 22.9306 32.3847 22.7811C32.4115 22.6315 32.3071 22.4899 32.1517 22.4644Z"/>
<path d="M23.2557 21.6473C23.4108 21.6728 23.5583 21.5724 23.5845 21.4229C23.6113 21.2736 23.5069 21.1317 23.3515 21.1062C20.2947 20.6049 18.1336 22.2847 18.0432 22.3566C17.9218 22.4529 17.9049 22.6255 18.0047 22.7424C18.0609 22.8082 18.1425 22.8423 18.2249 22.8423C18.2887 22.8423 18.3526 22.822 18.4059 22.78C18.4262 22.7641 20.4618 21.1885 23.2557 21.6473Z"/>
</mask>
<path d="M37.2262 26.2927C37.3237 26.2647 37.3984 26.1892 37.4221 26.094C37.446 25.9988 37.4155 25.8989 37.342 25.8312C37.016 25.5321 36.3485 24.6255 35.9271 24.0364C37.738 20.4249 36.3211 14.0756 36.259 13.8034C36.2268 13.661 36.083 13.5669 35.9348 13.5916C31.651 14.2611 28.6667 16.8376 28.053 17.4047C27.8714 17.3677 27.6915 17.3342 27.5144 17.306L27.513 17.3054H27.511C26.6972 17.1756 25.9358 17.1323 25.2871 17.1323C24.6384 17.1323 23.877 17.1759 23.0632 17.3054H23.0612L23.0598 17.306C22.8827 17.3342 22.7028 17.3677 22.5212 17.4047C21.9081 16.8376 18.9238 14.2611 14.64 13.5916C14.4934 13.5669 14.3483 13.6613 14.3158 13.8034C14.2536 14.0756 12.8373 20.4252 14.6477 24.0364C14.1903 24.6752 13.5402 25.5485 13.2328 25.8309C13.1592 25.8987 13.1287 25.9985 13.1527 26.0937C13.1763 26.189 13.2513 26.2647 13.3489 26.2924C13.3754 26.3001 13.6816 26.4002 14.1826 26.3097C13.9337 26.8206 13.5764 27.4473 13.2676 27.6531C13.1724 27.7165 13.1264 27.8292 13.1515 27.9382C13.1769 28.0471 13.2679 28.1305 13.3822 28.1492C13.3879 28.15 13.841 28.2266 14.2465 28.4697C14.1313 28.5962 13.9368 28.7545 13.6463 28.8242C13.5656 28.8437 13.4977 28.8958 13.4606 28.9671C13.4236 29.0385 13.4201 29.1222 13.4524 29.1957C13.5014 29.3087 14.6622 31.9725 15.703 33.0706C19.2272 36.7902 23.2206 37.3453 25.2874 37.3453C27.3541 37.3453 31.3476 36.7902 34.872 33.0714C35.9134 31.9733 37.0742 29.3093 37.123 29.1965C37.1549 29.1227 37.1521 29.0393 37.1147 28.968C37.0773 28.8966 37.0098 28.8442 36.9291 28.825C36.6365 28.7548 36.4426 28.5973 36.3283 28.471C36.732 28.2293 37.1883 28.1506 37.1934 28.1495C37.3075 28.1305 37.3987 28.0468 37.4235 27.9382C37.4483 27.8295 37.403 27.717 37.3077 27.6534C36.9995 27.4479 36.6419 26.8209 36.3927 26.31C36.894 26.4005 37.1997 26.3004 37.2262 26.2927ZM35.0876 21.1079C35.0577 21.0187 34.9824 20.9506 34.888 20.927C34.7263 20.8867 34.5256 20.87 34.3274 20.8744C34.4959 20.6252 34.7831 20.3393 34.9995 20.1648C35.0827 20.0973 35.1192 19.99 35.093 19.8885C35.0665 19.7867 34.9824 19.7082 34.876 19.6863C34.5758 19.6245 34.2299 19.5932 33.8475 19.5932C33.5487 19.5932 33.2752 19.6122 33.0665 19.6328C33.1586 19.5046 33.3049 19.3894 33.3972 19.334C33.4956 19.2761 33.5475 19.1666 33.5296 19.0568C33.5116 18.9471 33.4266 18.859 33.3143 18.8332C32.9419 18.7476 32.596 18.7042 32.2863 18.7042C31.9678 18.7042 31.7457 18.7495 31.6068 18.7923C31.5635 18.7649 31.5193 18.7407 31.4759 18.7144C32.0054 18.1571 33.4523 16.7459 35.042 16.1439C35.2578 17.0508 35.8287 19.9412 35.1093 22.5284C35.0129 22.3456 34.9128 22.1651 34.8047 21.9895L34.8039 21.9875C34.7853 21.7299 34.963 21.455 35.0366 21.3674C35.0984 21.2947 35.1178 21.197 35.0876 21.1079ZM35.7557 14.1785C35.9941 15.3696 36.8817 20.4098 35.5547 23.4961C35.5264 23.4245 35.4962 23.3537 35.4663 23.2829C36.699 19.9014 35.5675 15.8805 35.5184 15.7096C35.4976 15.6374 35.4472 15.5768 35.379 15.5414C35.3106 15.506 35.2299 15.4991 35.1563 15.5219C33.2156 16.1242 31.4816 17.88 30.9738 18.4296C30.2313 18.0377 29.4691 17.7565 28.7243 17.5603C29.6578 16.7693 32.2663 14.8016 35.7557 14.1785ZM30.698 18.9087C30.495 19.4821 30.2438 19.8045 30.0904 19.9604C29.5637 19.5159 29.0257 18.6782 28.702 18.125C29.3653 18.3083 30.0405 18.5618 30.698 18.9087ZM27.1066 17.8012C26.919 18.5163 26.3424 20.4252 25.2874 21.5367C24.2323 20.4249 23.6558 18.5163 23.4681 17.8012C24.1297 17.7126 24.749 17.6808 25.2874 17.6808C25.8257 17.6808 26.4451 17.7126 27.1066 17.8012ZM14.8191 14.1785C18.3084 14.8016 20.9169 16.769 21.8505 17.56C21.1063 17.7562 20.3435 18.0377 19.601 18.4296C19.0931 17.88 17.3594 16.1242 15.4185 15.5216C15.3452 15.4988 15.2645 15.5057 15.1958 15.5411C15.1276 15.5765 15.0771 15.6374 15.0563 15.7093C15.007 15.8805 13.8755 19.9006 15.1088 23.2821C15.0791 23.3532 15.0483 23.4242 15.0201 23.4959C13.6947 20.4115 14.581 15.3699 14.8191 14.1785ZM21.8728 18.125C21.5494 18.6779 21.0113 19.5153 20.4847 19.9601C20.3304 19.8037 20.0797 19.4813 19.877 18.9089C20.5343 18.5621 21.2095 18.3083 21.8728 18.125ZM17.1781 19.3337C17.2374 19.3688 17.4054 19.4904 17.5086 19.6325C17.2996 19.6116 17.0264 19.5927 16.7276 19.5927C16.3449 19.5927 15.999 19.624 15.6993 19.686C15.593 19.7079 15.5088 19.7864 15.4823 19.8882C15.4561 19.99 15.4926 20.0973 15.5759 20.1645C15.7926 20.3393 16.0797 20.6252 16.2479 20.8741C16.0515 20.8691 15.8493 20.8862 15.6873 20.9268C15.5935 20.9501 15.5188 21.0181 15.4886 21.1068C15.4584 21.1951 15.4772 21.2931 15.5379 21.3655C15.6124 21.4541 15.7909 21.7304 15.7706 21.9886C15.6625 22.1645 15.5625 22.3448 15.4658 22.5273C14.7466 19.9403 15.3172 17.0502 15.5328 16.1431C17.1202 16.7446 18.5685 18.1563 19.0988 18.7138C19.0555 18.7402 19.0113 18.7643 18.9682 18.7915C18.8294 18.7487 18.6073 18.7034 18.2887 18.7034C17.9788 18.7034 17.6329 18.7468 17.2611 18.8324C17.1487 18.8582 17.064 18.9465 17.0458 19.056C17.0275 19.1663 17.0797 19.2758 17.1781 19.3337ZM36.0092 25.6001C35.9045 25.5439 35.7739 25.557 35.683 25.6328C35.5923 25.7088 35.5607 25.8314 35.6046 25.9393C35.6613 26.08 36.0873 27.1125 36.6017 27.7406C36.3428 27.8306 36.0243 27.9747 35.7528 28.1961C35.6547 28.2762 35.6248 28.4099 35.6793 28.5221C35.6904 28.5446 35.9191 29.0006 36.4774 29.2508C36.1563 29.9538 35.243 31.8663 34.4509 32.7018C31.0739 36.2645 27.26 36.7965 25.2874 36.7965C23.3147 36.7965 19.5009 36.2645 16.1239 32.7015C15.3329 31.8669 14.419 29.9538 14.0974 29.2508C14.656 29.0006 14.8849 28.5448 14.8958 28.5223C14.9508 28.4101 14.9206 28.2765 14.8225 28.1964C14.551 27.9747 14.2325 27.8306 13.973 27.7409C14.488 27.1125 14.9135 26.0803 14.9705 25.9393C15.0138 25.8314 14.9825 25.7091 14.8918 25.6331C14.8008 25.557 14.6705 25.5442 14.5656 25.6004C14.3751 25.7027 14.192 25.7538 14.0369 25.7777C14.5975 25.0996 15.3395 24.0369 15.4769 23.8391C15.4986 23.8147 15.5163 23.7864 15.5282 23.7549C15.7321 23.2204 15.9905 22.7021 16.2956 22.2136C16.3235 22.1692 16.3366 22.1193 16.3358 22.0696C16.3637 21.8298 16.3033 21.6034 16.2243 21.4229C16.4387 21.4278 16.6141 21.4613 16.6158 21.4618C16.7005 21.478 16.7892 21.4569 16.8559 21.4031C16.9223 21.3496 16.96 21.2698 16.958 21.1863C16.9491 20.8296 16.656 20.4395 16.3828 20.1516C16.4929 20.145 16.6078 20.1417 16.7273 20.1417C17.3167 20.1417 17.8114 20.2238 17.8163 20.2246C17.966 20.2499 18.11 20.1579 18.1433 20.0153C18.2095 19.7362 18.102 19.4791 17.9409 19.2725C18.0626 19.2593 18.1784 19.2527 18.2885 19.2527C18.6098 19.2527 18.7866 19.3101 18.8385 19.3298C18.8399 19.3307 18.8416 19.3318 18.8431 19.3326C18.9394 19.3929 19.0635 19.3918 19.1587 19.3293C19.2309 19.2821 19.3042 19.2393 19.3771 19.1946C19.7541 20.1851 20.2637 20.5127 20.3264 20.5498C20.4228 20.6068 20.5457 20.6033 20.6386 20.5407C21.5038 19.9596 22.382 18.3942 22.6227 17.9445C22.7165 17.9252 22.8095 17.9069 22.9021 17.8901C23.0983 18.6609 23.7656 20.9257 25.0918 22.1275C25.1465 22.1772 25.217 22.2021 25.2874 22.2021C25.3578 22.2021 25.428 22.1772 25.483 22.1275C26.8089 20.9257 27.4765 18.6609 27.6726 17.8901C27.7653 17.9069 27.8583 17.925 27.9521 17.9445C28.1927 18.3942 29.071 19.9596 29.9361 20.5407C30.0288 20.6035 30.1523 20.6068 30.2484 20.5498C30.3111 20.5127 30.8212 20.1851 31.1979 19.1946C31.2709 19.2393 31.3445 19.2821 31.4166 19.3296C31.5104 19.3916 31.633 19.3916 31.728 19.3337C31.777 19.3139 31.9547 19.2527 32.2866 19.2527C32.3967 19.2527 32.5127 19.2593 32.6342 19.2725C32.4734 19.4788 32.3656 19.7359 32.4312 20.015C32.4651 20.1577 32.6097 20.2499 32.7585 20.2246C32.7636 20.2238 33.2578 20.1417 33.8478 20.1417C33.9673 20.1417 34.0822 20.145 34.1925 20.1516C33.9191 20.4395 33.6265 20.8294 33.6174 21.1863C33.6154 21.2698 33.653 21.3496 33.7195 21.4031C33.7859 21.4569 33.874 21.478 33.9596 21.4618C33.9615 21.4615 34.1363 21.4278 34.3508 21.4229C34.2721 21.6031 34.2116 21.8284 34.2387 22.0671C34.2379 22.1176 34.2513 22.1684 34.2798 22.2136C34.584 22.7004 34.8424 23.219 35.0465 23.7549C35.0582 23.7859 35.0756 23.8136 35.097 23.8377C35.2319 24.032 35.9758 25.098 36.5378 25.7777C36.3824 25.7535 36.1997 25.7022 36.0092 25.6001Z" fill="#86D68E"/>
<path d="M33.1292 28.2905C33.172 28.2905 33.2156 28.2812 33.2564 28.2617L34.6821 27.5757C34.823 27.5079 34.88 27.343 34.8096 27.2075C34.7391 27.0719 34.5678 27.0171 34.4269 27.0848L33.0012 27.7708C32.8603 27.8386 32.8033 28.0035 32.8737 28.139C32.9239 28.2351 33.0246 28.2905 33.1292 28.2905Z" fill="#86D68E"/>
<path d="M34.5547 28.4277H33.1289C32.9712 28.4277 32.8438 28.5506 32.8438 28.7021C32.8438 28.8535 32.9712 28.9765 33.1289 28.9765H34.5547C34.7123 28.9765 34.8398 28.8535 34.8398 28.7021C34.8398 28.5506 34.7123 28.4277 34.5547 28.4277Z" fill="#86D68E"/>
<path d="M34.6821 29.8284L33.2564 29.1425C33.1155 29.0747 32.9444 29.1296 32.8737 29.2651C32.8033 29.4007 32.8603 29.5656 33.0012 29.6333L34.4269 30.3193C34.468 30.3391 34.5116 30.3484 34.5544 30.3484C34.659 30.3484 34.7597 30.293 34.8099 30.1967C34.8803 30.0611 34.823 29.8965 34.6821 29.8284Z" fill="#86D68E"/>
<path d="M15.8927 27.5757L17.3184 28.2617C17.3594 28.2814 17.4028 28.2905 17.4456 28.2905C17.5502 28.2905 17.6509 28.2351 17.7011 28.1388C17.7715 28.0032 17.7145 27.8383 17.5736 27.7705L16.1479 27.0846C16.007 27.0168 15.8359 27.0717 15.7652 27.2072C15.6945 27.343 15.7518 27.5077 15.8927 27.5757Z" fill="#86D68E"/>
<path d="M17.4458 28.4277H16.0201C15.8624 28.4277 15.735 28.5506 15.735 28.7021C15.735 28.8535 15.8624 28.9765 16.0201 28.9765H17.4458C17.6035 28.9765 17.731 28.8535 17.731 28.7021C17.731 28.5506 17.6035 28.4277 17.4458 28.4277Z" fill="#86D68E"/>
<path d="M17.3184 29.1425L15.8927 29.8284C15.7518 29.8962 15.6948 30.0611 15.7652 30.1967C15.8151 30.293 15.9158 30.3484 16.0204 30.3484C16.0632 30.3484 16.1068 30.3391 16.1476 30.3196L17.5733 29.6336C17.7142 29.5658 17.7712 29.4009 17.7008 29.2654C17.6301 29.1298 17.459 29.0747 17.3184 29.1425Z" fill="#86D68E"/>
<path d="M29.5646 24.9668C28.9016 24.9668 27.1408 24.9668 27.1408 26.6132C27.1408 27.8992 28.2281 28.9455 29.5646 28.9455C30.9011 28.9455 31.9883 27.8992 31.9883 26.6132C31.9883 24.9668 30.2276 24.9668 29.5646 24.9668ZM29.5646 28.3967C28.5426 28.3967 27.7111 27.5966 27.7111 26.6132C27.7111 26.4425 27.7331 26.2872 27.791 26.15C28.0507 26.4332 28.4277 26.6132 28.8517 26.6132C29.5272 26.6132 30.0904 26.1596 30.2372 25.5527C31.1968 25.6701 31.418 26.0649 31.418 26.6132C31.418 27.5966 30.5866 28.3967 29.5646 28.3967Z" fill="#86D68E"/>
<path d="M23.4339 26.6132C23.4339 24.9668 21.6731 24.9668 21.0102 24.9668C20.3472 24.9668 18.5864 24.9668 18.5864 26.6132C18.5864 27.8992 19.6737 28.9455 21.0102 28.9455C22.3467 28.9455 23.4339 27.8992 23.4339 26.6132ZM21.0102 28.3967C19.9882 28.3967 19.1567 27.5966 19.1567 26.6132C19.1567 26.4425 19.1787 26.2872 19.2366 26.15C19.4963 26.4332 19.8733 26.6132 20.2973 26.6132C20.9728 26.6132 21.536 26.1596 21.6828 25.5527C22.6424 25.6701 22.8636 26.0649 22.8636 26.6132C22.8636 27.5966 22.0321 28.3967 21.0102 28.3967Z" fill="#86D68E"/>
<path d="M28.8517 31.8265H21.723C21.5654 31.8265 21.4379 31.9494 21.4379 32.1009C21.4379 32.2524 21.5654 32.3753 21.723 32.3753H28.8517C29.0094 32.3753 29.1369 32.2524 29.1369 32.1009C29.1369 31.9494 29.0094 31.8265 28.8517 31.8265Z" fill="#86D68E"/>
<path d="M32.1517 22.4644C29.0947 21.9623 26.9338 23.6429 26.8434 23.7148C26.722 23.8111 26.7051 23.9837 26.8049 24.1006C26.8611 24.1665 26.9427 24.2005 27.0251 24.2005C27.0889 24.2005 27.1528 24.1802 27.2061 24.1382C27.2264 24.1223 29.2618 22.5467 32.0559 23.0055C32.2107 23.0319 32.3585 22.9306 32.3847 22.7811C32.4115 22.6315 32.3071 22.4899 32.1517 22.4644Z" fill="#86D68E"/>
<path d="M23.2557 21.6473C23.4108 21.6728 23.5583 21.5724 23.5845 21.4229C23.6113 21.2736 23.5069 21.1317 23.3515 21.1062C20.2947 20.6049 18.1336 22.2847 18.0432 22.3566C17.9218 22.4529 17.9049 22.6255 18.0047 22.7424C18.0609 22.8082 18.1425 22.8423 18.2249 22.8423C18.2887 22.8423 18.3526 22.822 18.4059 22.78C18.4262 22.7641 20.4618 21.1885 23.2557 21.6473Z" fill="#86D68E"/>
<path d="M37.2262 26.2927C37.3237 26.2647 37.3984 26.1892 37.4221 26.094C37.446 25.9988 37.4155 25.8989 37.342 25.8312C37.016 25.5321 36.3485 24.6255 35.9271 24.0364C37.738 20.4249 36.3211 14.0756 36.259 13.8034C36.2268 13.661 36.083 13.5669 35.9348 13.5916C31.651 14.2611 28.6667 16.8376 28.053 17.4047C27.8714 17.3677 27.6915 17.3342 27.5144 17.306L27.513 17.3054H27.511C26.6972 17.1756 25.9358 17.1323 25.2871 17.1323C24.6384 17.1323 23.877 17.1759 23.0632 17.3054H23.0612L23.0598 17.306C22.8827 17.3342 22.7028 17.3677 22.5212 17.4047C21.9081 16.8376 18.9238 14.2611 14.64 13.5916C14.4934 13.5669 14.3483 13.6613 14.3158 13.8034C14.2536 14.0756 12.8373 20.4252 14.6477 24.0364C14.1903 24.6752 13.5402 25.5485 13.2328 25.8309C13.1592 25.8987 13.1287 25.9985 13.1527 26.0937C13.1763 26.189 13.2513 26.2647 13.3489 26.2924C13.3754 26.3001 13.6816 26.4002 14.1826 26.3097C13.9337 26.8206 13.5764 27.4473 13.2676 27.6531C13.1724 27.7165 13.1264 27.8292 13.1515 27.9382C13.1769 28.0471 13.2679 28.1305 13.3822 28.1492C13.3879 28.15 13.841 28.2266 14.2465 28.4697C14.1313 28.5962 13.9368 28.7545 13.6463 28.8242C13.5656 28.8437 13.4977 28.8958 13.4606 28.9671C13.4236 29.0385 13.4201 29.1222 13.4524 29.1957C13.5014 29.3087 14.6622 31.9725 15.703 33.0706C19.2272 36.7902 23.2206 37.3453 25.2874 37.3453C27.3541 37.3453 31.3476 36.7902 34.872 33.0714C35.9134 31.9733 37.0742 29.3093 37.123 29.1965C37.1549 29.1227 37.1521 29.0393 37.1147 28.968C37.0773 28.8966 37.0098 28.8442 36.9291 28.825C36.6365 28.7548 36.4426 28.5973 36.3283 28.471C36.732 28.2293 37.1883 28.1506 37.1934 28.1495C37.3075 28.1305 37.3987 28.0468 37.4235 27.9382C37.4483 27.8295 37.403 27.717 37.3077 27.6534C36.9995 27.4479 36.6419 26.8209 36.3927 26.31C36.894 26.4005 37.1997 26.3004 37.2262 26.2927ZM35.0876 21.1079C35.0577 21.0187 34.9824 20.9506 34.888 20.927C34.7263 20.8867 34.5256 20.87 34.3274 20.8744C34.4959 20.6252 34.7831 20.3393 34.9995 20.1648C35.0827 20.0973 35.1192 19.99 35.093 19.8885C35.0665 19.7867 34.9824 19.7082 34.876 19.6863C34.5758 19.6245 34.2299 19.5932 33.8475 19.5932C33.5487 19.5932 33.2752 19.6122 33.0665 19.6328C33.1586 19.5046 33.3049 19.3894 33.3972 19.334C33.4956 19.2761 33.5475 19.1666 33.5296 19.0568C33.5116 18.9471 33.4266 18.859 33.3143 18.8332C32.9419 18.7476 32.596 18.7042 32.2863 18.7042C31.9678 18.7042 31.7457 18.7495 31.6068 18.7923C31.5635 18.7649 31.5193 18.7407 31.4759 18.7144C32.0054 18.1571 33.4523 16.7459 35.042 16.1439C35.2578 17.0508 35.8287 19.9412 35.1093 22.5284C35.0129 22.3456 34.9128 22.1651 34.8047 21.9895L34.8039 21.9875C34.7853 21.7299 34.963 21.455 35.0366 21.3674C35.0984 21.2947 35.1178 21.197 35.0876 21.1079ZM35.7557 14.1785C35.9941 15.3696 36.8817 20.4098 35.5547 23.4961C35.5264 23.4245 35.4962 23.3537 35.4663 23.2829C36.699 19.9014 35.5675 15.8805 35.5184 15.7096C35.4976 15.6374 35.4472 15.5768 35.379 15.5414C35.3106 15.506 35.2299 15.4991 35.1563 15.5219C33.2156 16.1242 31.4816 17.88 30.9738 18.4296C30.2313 18.0377 29.4691 17.7565 28.7243 17.5603C29.6578 16.7693 32.2663 14.8016 35.7557 14.1785ZM30.698 18.9087C30.495 19.4821 30.2438 19.8045 30.0904 19.9604C29.5637 19.5159 29.0257 18.6782 28.702 18.125C29.3653 18.3083 30.0405 18.5618 30.698 18.9087ZM27.1066 17.8012C26.919 18.5163 26.3424 20.4252 25.2874 21.5367C24.2323 20.4249 23.6558 18.5163 23.4681 17.8012C24.1297 17.7126 24.749 17.6808 25.2874 17.6808C25.8257 17.6808 26.4451 17.7126 27.1066 17.8012ZM14.8191 14.1785C18.3084 14.8016 20.9169 16.769 21.8505 17.56C21.1063 17.7562 20.3435 18.0377 19.601 18.4296C19.0931 17.88 17.3594 16.1242 15.4185 15.5216C15.3452 15.4988 15.2645 15.5057 15.1958 15.5411C15.1276 15.5765 15.0771 15.6374 15.0563 15.7093C15.007 15.8805 13.8755 19.9006 15.1088 23.2821C15.0791 23.3532 15.0483 23.4242 15.0201 23.4959C13.6947 20.4115 14.581 15.3699 14.8191 14.1785ZM21.8728 18.125C21.5494 18.6779 21.0113 19.5153 20.4847 19.9601C20.3304 19.8037 20.0797 19.4813 19.877 18.9089C20.5343 18.5621 21.2095 18.3083 21.8728 18.125ZM17.1781 19.3337C17.2374 19.3688 17.4054 19.4904 17.5086 19.6325C17.2996 19.6116 17.0264 19.5927 16.7276 19.5927C16.3449 19.5927 15.999 19.624 15.6993 19.686C15.593 19.7079 15.5088 19.7864 15.4823 19.8882C15.4561 19.99 15.4926 20.0973 15.5759 20.1645C15.7926 20.3393 16.0797 20.6252 16.2479 20.8741C16.0515 20.8691 15.8493 20.8862 15.6873 20.9268C15.5935 20.9501 15.5188 21.0181 15.4886 21.1068C15.4584 21.1951 15.4772 21.2931 15.5379 21.3655C15.6124 21.4541 15.7909 21.7304 15.7706 21.9886C15.6625 22.1645 15.5625 22.3448 15.4658 22.5273C14.7466 19.9403 15.3172 17.0502 15.5328 16.1431C17.1202 16.7446 18.5685 18.1563 19.0988 18.7138C19.0555 18.7402 19.0113 18.7643 18.9682 18.7915C18.8294 18.7487 18.6073 18.7034 18.2887 18.7034C17.9788 18.7034 17.6329 18.7468 17.2611 18.8324C17.1487 18.8582 17.064 18.9465 17.0458 19.056C17.0275 19.1663 17.0797 19.2758 17.1781 19.3337ZM36.0092 25.6001C35.9045 25.5439 35.7739 25.557 35.683 25.6328C35.5923 25.7088 35.5607 25.8314 35.6046 25.9393C35.6613 26.08 36.0873 27.1125 36.6017 27.7406C36.3428 27.8306 36.0243 27.9747 35.7528 28.1961C35.6547 28.2762 35.6248 28.4099 35.6793 28.5221C35.6904 28.5446 35.9191 29.0006 36.4774 29.2508C36.1563 29.9538 35.243 31.8663 34.4509 32.7018C31.0739 36.2645 27.26 36.7965 25.2874 36.7965C23.3147 36.7965 19.5009 36.2645 16.1239 32.7015C15.3329 31.8669 14.419 29.9538 14.0974 29.2508C14.656 29.0006 14.8849 28.5448 14.8958 28.5223C14.9508 28.4101 14.9206 28.2765 14.8225 28.1964C14.551 27.9747 14.2325 27.8306 13.973 27.7409C14.488 27.1125 14.9135 26.0803 14.9705 25.9393C15.0138 25.8314 14.9825 25.7091 14.8918 25.6331C14.8008 25.557 14.6705 25.5442 14.5656 25.6004C14.3751 25.7027 14.192 25.7538 14.0369 25.7777C14.5975 25.0996 15.3395 24.0369 15.4769 23.8391C15.4986 23.8147 15.5163 23.7864 15.5282 23.7549C15.7321 23.2204 15.9905 22.7021 16.2956 22.2136C16.3235 22.1692 16.3366 22.1193 16.3358 22.0696C16.3637 21.8298 16.3033 21.6034 16.2243 21.4229C16.4387 21.4278 16.6141 21.4613 16.6158 21.4618C16.7005 21.478 16.7892 21.4569 16.8559 21.4031C16.9223 21.3496 16.96 21.2698 16.958 21.1863C16.9491 20.8296 16.656 20.4395 16.3828 20.1516C16.4929 20.145 16.6078 20.1417 16.7273 20.1417C17.3167 20.1417 17.8114 20.2238 17.8163 20.2246C17.966 20.2499 18.11 20.1579 18.1433 20.0153C18.2095 19.7362 18.102 19.4791 17.9409 19.2725C18.0626 19.2593 18.1784 19.2527 18.2885 19.2527C18.6098 19.2527 18.7866 19.3101 18.8385 19.3298C18.8399 19.3307 18.8416 19.3318 18.8431 19.3326C18.9394 19.3929 19.0635 19.3918 19.1587 19.3293C19.2309 19.2821 19.3042 19.2393 19.3771 19.1946C19.7541 20.1851 20.2637 20.5127 20.3264 20.5498C20.4228 20.6068 20.5457 20.6033 20.6386 20.5407C21.5038 19.9596 22.382 18.3942 22.6227 17.9445C22.7165 17.9252 22.8095 17.9069 22.9021 17.8901C23.0983 18.6609 23.7656 20.9257 25.0918 22.1275C25.1465 22.1772 25.217 22.2021 25.2874 22.2021C25.3578 22.2021 25.428 22.1772 25.483 22.1275C26.8089 20.9257 27.4765 18.6609 27.6726 17.8901C27.7653 17.9069 27.8583 17.925 27.9521 17.9445C28.1927 18.3942 29.071 19.9596 29.9361 20.5407C30.0288 20.6035 30.1523 20.6068 30.2484 20.5498C30.3111 20.5127 30.8212 20.1851 31.1979 19.1946C31.2709 19.2393 31.3445 19.2821 31.4166 19.3296C31.5104 19.3916 31.633 19.3916 31.728 19.3337C31.777 19.3139 31.9547 19.2527 32.2866 19.2527C32.3967 19.2527 32.5127 19.2593 32.6342 19.2725C32.4734 19.4788 32.3656 19.7359 32.4312 20.015C32.4651 20.1577 32.6097 20.2499 32.7585 20.2246C32.7636 20.2238 33.2578 20.1417 33.8478 20.1417C33.9673 20.1417 34.0822 20.145 34.1925 20.1516C33.9191 20.4395 33.6265 20.8294 33.6174 21.1863C33.6154 21.2698 33.653 21.3496 33.7195 21.4031C33.7859 21.4569 33.874 21.478 33.9596 21.4618C33.9615 21.4615 34.1363 21.4278 34.3508 21.4229C34.2721 21.6031 34.2116 21.8284 34.2387 22.0671C34.2379 22.1176 34.2513 22.1684 34.2798 22.2136C34.584 22.7004 34.8424 23.219 35.0465 23.7549C35.0582 23.7859 35.0756 23.8136 35.097 23.8377C35.2319 24.032 35.9758 25.098 36.5378 25.7777C36.3824 25.7535 36.1997 25.7022 36.0092 25.6001Z" stroke="white" stroke-width="2.63188" mask="url(#path-3-inside-1)"/>
<path d="M33.1292 28.2905C33.172 28.2905 33.2156 28.2812 33.2564 28.2617L34.6821 27.5757C34.823 27.5079 34.88 27.343 34.8096 27.2075C34.7391 27.0719 34.5678 27.0171 34.4269 27.0848L33.0012 27.7708C32.8603 27.8386 32.8033 28.0035 32.8737 28.139C32.9239 28.2351 33.0246 28.2905 33.1292 28.2905Z" stroke="white" stroke-width="2.63188" mask="url(#path-3-inside-1)"/>
<path d="M34.5547 28.4277H33.1289C32.9712 28.4277 32.8438 28.5506 32.8438 28.7021C32.8438 28.8535 32.9712 28.9765 33.1289 28.9765H34.5547C34.7123 28.9765 34.8398 28.8535 34.8398 28.7021C34.8398 28.5506 34.7123 28.4277 34.5547 28.4277Z" stroke="white" stroke-width="2.63188" mask="url(#path-3-inside-1)"/>
<path d="M34.6821 29.8284L33.2564 29.1425C33.1155 29.0747 32.9444 29.1296 32.8737 29.2651C32.8033 29.4007 32.8603 29.5656 33.0012 29.6333L34.4269 30.3193C34.468 30.3391 34.5116 30.3484 34.5544 30.3484C34.659 30.3484 34.7597 30.293 34.8099 30.1967C34.8803 30.0611 34.823 29.8965 34.6821 29.8284Z" stroke="white" stroke-width="2.63188" mask="url(#path-3-inside-1)"/>
<path d="M15.8927 27.5757L17.3184 28.2617C17.3594 28.2814 17.4028 28.2905 17.4456 28.2905C17.5502 28.2905 17.6509 28.2351 17.7011 28.1388C17.7715 28.0032 17.7145 27.8383 17.5736 27.7705L16.1479 27.0846C16.007 27.0168 15.8359 27.0717 15.7652 27.2072C15.6945 27.343 15.7518 27.5077 15.8927 27.5757Z" stroke="white" stroke-width="2.63188" mask="url(#path-3-inside-1)"/>
<path d="M17.4458 28.4277H16.0201C15.8624 28.4277 15.735 28.5506 15.735 28.7021C15.735 28.8535 15.8624 28.9765 16.0201 28.9765H17.4458C17.6035 28.9765 17.731 28.8535 17.731 28.7021C17.731 28.5506 17.6035 28.4277 17.4458 28.4277Z" stroke="white" stroke-width="2.63188" mask="url(#path-3-inside-1)"/>
<path d="M17.3184 29.1425L15.8927 29.8284C15.7518 29.8962 15.6948 30.0611 15.7652 30.1967C15.8151 30.293 15.9158 30.3484 16.0204 30.3484C16.0632 30.3484 16.1068 30.3391 16.1476 30.3196L17.5733 29.6336C17.7142 29.5658 17.7712 29.4009 17.7008 29.2654C17.6301 29.1298 17.459 29.0747 17.3184 29.1425Z" stroke="white" stroke-width="2.63188" mask="url(#path-3-inside-1)"/>
<path d="M29.5646 24.9668C28.9016 24.9668 27.1408 24.9668 27.1408 26.6132C27.1408 27.8992 28.2281 28.9455 29.5646 28.9455C30.9011 28.9455 31.9883 27.8992 31.9883 26.6132C31.9883 24.9668 30.2276 24.9668 29.5646 24.9668ZM29.5646 28.3967C28.5426 28.3967 27.7111 27.5966 27.7111 26.6132C27.7111 26.4425 27.7331 26.2872 27.791 26.15C28.0507 26.4332 28.4277 26.6132 28.8517 26.6132C29.5272 26.6132 30.0904 26.1596 30.2372 25.5527C31.1968 25.6701 31.418 26.0649 31.418 26.6132C31.418 27.5966 30.5866 28.3967 29.5646 28.3967Z" stroke="white" stroke-width="2.63188" mask="url(#path-3-inside-1)"/>
<path d="M23.4339 26.6132C23.4339 24.9668 21.6731 24.9668 21.0102 24.9668C20.3472 24.9668 18.5864 24.9668 18.5864 26.6132C18.5864 27.8992 19.6737 28.9455 21.0102 28.9455C22.3467 28.9455 23.4339 27.8992 23.4339 26.6132ZM21.0102 28.3967C19.9882 28.3967 19.1567 27.5966 19.1567 26.6132C19.1567 26.4425 19.1787 26.2872 19.2366 26.15C19.4963 26.4332 19.8733 26.6132 20.2973 26.6132C20.9728 26.6132 21.536 26.1596 21.6828 25.5527C22.6424 25.6701 22.8636 26.0649 22.8636 26.6132C22.8636 27.5966 22.0321 28.3967 21.0102 28.3967Z" stroke="white" stroke-width="2.63188" mask="url(#path-3-inside-1)"/>
<path d="M28.8517 31.8265H21.723C21.5654 31.8265 21.4379 31.9494 21.4379 32.1009C21.4379 32.2524 21.5654 32.3753 21.723 32.3753H28.8517C29.0094 32.3753 29.1369 32.2524 29.1369 32.1009C29.1369 31.9494 29.0094 31.8265 28.8517 31.8265Z" stroke="white" stroke-width="2.63188" mask="url(#path-3-inside-1)"/>
<path d="M32.1517 22.4644C29.0947 21.9623 26.9338 23.6429 26.8434 23.7148C26.722 23.8111 26.7051 23.9837 26.8049 24.1006C26.8611 24.1665 26.9427 24.2005 27.0251 24.2005C27.0889 24.2005 27.1528 24.1802 27.2061 24.1382C27.2264 24.1223 29.2618 22.5467 32.0559 23.0055C32.2107 23.0319 32.3585 22.9306 32.3847 22.7811C32.4115 22.6315 32.3071 22.4899 32.1517 22.4644Z" stroke="white" stroke-width="2.63188" mask="url(#path-3-inside-1)"/>
<path d="M23.2557 21.6473C23.4108 21.6728 23.5583 21.5724 23.5845 21.4229C23.6113 21.2736 23.5069 21.1317 23.3515 21.1062C20.2947 20.6049 18.1336 22.2847 18.0432 22.3566C17.9218 22.4529 17.9049 22.6255 18.0047 22.7424C18.0609 22.8082 18.1425 22.8423 18.2249 22.8423C18.2887 22.8423 18.3526 22.822 18.4059 22.78C18.4262 22.7641 20.4618 21.1885 23.2557 21.6473Z" stroke="white" stroke-width="2.63188" mask="url(#path-3-inside-1)"/>
</svg>
