<svg width="111" height="115" viewBox="0 0 111 115" fill="none" xmlns="http://www.w3.org/2000/svg">
<path fill-rule="evenodd" clip-rule="evenodd" d="M99.0905 105.57C107.755 97.1173 109.85 87.076 109.563 75.6783C109.438 70.6928 107.713 63.1412 105.465 58.3193L104.499 56.4857L104.472 56.4368L102.894 53.7758C98.4793 47.3972 89.5893 40.994 78.2085 39.2889C69.8427 38.0395 68.6601 39.5871 63.5691 36.449C59.8897 34.1826 59.1987 28.4921 56.0863 22.1104L54.6216 19.4066L53.4478 16.891C50.2217 10.4756 44.2079 1.30447 41.4395 0.730988C36.3427 -0.32422 35.2604 11.0078 33.087 13.1519L33.0545 13.187C32.8198 13.4485 31.987 13.7574 30.6921 14.1551C29.1094 11.8076 22.9804 4.30034 18.7798 5.45342C18.5761 5.50847 18.4004 5.61094 18.2527 5.73787C17.5883 6.3083 17.3447 7.56995 17.2103 8.60069C17.0523 9.79965 16.9844 11.2785 16.9298 12.7527C16.8752 14.2438 16.8368 15.7318 16.7423 17.0072C16.6463 18.3331 16.5001 19.2598 16.2919 19.7217C16.2787 19.7568 16.2654 19.7905 16.255 19.8272C14.9439 20.653 13.776 21.5782 12.868 22.6151C9.25942 26.735 6.27838 33.0372 6.13221 39.0259C6.09383 40.6041 6.1455 42.0661 6.33302 43.4822C4.5568 43.8997 2.8677 44.545 1.14463 45.0528C0.737122 45.1736 0.502357 45.614 0.617523 46.0346C0.732689 46.4551 1.1594 46.6998 1.56396 46.5805C3.29293 46.0697 4.9274 45.4473 6.60174 45.0466C6.67409 45.403 6.76121 45.7593 6.8557 46.1141C6.20014 46.3221 5.46632 46.6386 4.78419 46.9644C3.80084 47.4354 2.84113 47.9798 2.22247 48.3866C1.86517 48.6221 1.7618 49.1115 1.98771 49.4816C2.21361 49.8517 2.68904 49.9587 3.04488 49.7263C3.59708 49.3623 4.49479 48.8515 5.42941 48.4034C6.12336 48.0701 6.78926 47.7932 7.32818 47.6235C8.24213 50.1927 9.75109 52.843 12.1179 56.0162C13.7317 58.1786 20.5826 65.3219 22.7531 67.1831C24.0524 68.301 25.8345 70.2401 27.593 72.4163C27.5768 72.7099 27.717 72.9989 27.9813 73.1519C28.5158 73.4654 29.1477 74.7974 29.5449 77.284C29.914 79.5963 30.0336 82.5325 29.8993 85.4718C29.7664 88.4142 29.3869 91.3167 28.7831 93.5678C28.222 95.6553 27.5428 96.8818 26.9256 97.3314L26.7514 97.4278L26.4015 97.4308C25.0195 97.5211 23.4323 98.1664 22.1964 99.2262C20.7598 100.457 19.6967 102.337 20.0688 104.68C20.5487 107.712 23.3274 109.349 27.2268 109.318C27.2696 109.318 27.311 109.315 27.3494 109.307C29.3412 111.45 33.1579 112.028 35.8466 111.665C42.5617 110.769 47.4326 103.285 50.579 95.6354L51.1917 93.9746L52.3227 96.0239C52.9945 97.102 53.6663 98.0884 53.9838 98.8775L54.0665 99.1926L53.1673 99.8089C51.7085 100.947 50.2054 102.643 50.3295 104.747C50.6366 109.797 59.3154 110.008 63.6297 109.535L64.8566 109.352L65.3262 109.656C65.6466 109.844 66.2106 110.154 67.5158 110.849C78.086 116.475 91.3449 113.121 99.0905 105.57ZM68.2171 109.436C65.648 108.072 66.0275 108.235 65.428 107.851C65.3793 107.819 65.3262 107.793 65.2612 107.819C65.2656 107.798 65.2509 107.786 65.2361 107.773C58.7883 102.089 57.0327 93.8951 59.4852 87.3192C61.0325 83.1733 65.6215 79.8471 70.4953 80.3166C73.4557 80.601 75.1227 81.5125 75.9111 82.5524C76.4766 83.2987 76.6626 84.2086 76.4559 85.2225L76.1533 86.1646L75.9082 86.4261C75.1374 87.1234 74.2515 87.0928 73.0718 86.8604C71.8242 86.6157 70.0465 86.0346 68.4194 86.7426C64.1066 88.6252 64.4063 97.2091 67.7269 100.965C71.7843 105.548 77.0761 106.292 82.1729 105.631C89.3354 104.706 98.4852 96.3037 98.336 85.845C98.3301 85.406 97.9802 85.0558 97.5564 85.062C97.1371 85.0681 96.7961 85.429 96.8034 85.8679C96.9393 95.4275 88.4642 103.218 81.9824 104.056C77.1469 104.683 72.4473 103.947 68.8579 99.893C65.8976 96.5454 66.1338 89.4632 69.0159 88.2062C71.3369 87.1938 74.82 90.2829 77.4068 87.1036C77.4511 87.047 77.4895 86.9843 77.5175 86.917C78.3089 85.0987 78.3119 83.1473 77.1159 81.5691C75.9539 80.0352 73.7879 79.0381 70.6371 78.7368C65.0456 78.197 59.8366 81.9759 58.0559 86.7457C55.4972 93.6091 57.1361 101.956 63.1912 107.997C58.8636 108.442 52.054 107.847 51.8621 104.648C51.7572 102.924 53.5659 101.292 55.32 100.231C55.571 100.08 55.7186 99.7951 55.698 99.4923C55.5607 97.3345 53.6087 95.3877 52.6003 93.4119L52.0629 91.615L52.2622 91.0766C53.2441 88.093 53.9572 85.2883 54.4046 83.0739C54.4902 82.6457 54.2244 82.2251 53.811 82.1334C53.3976 82.0447 52.9901 82.32 52.9045 82.7482C52.4394 85.0497 51.7203 87.83 50.7562 90.728L50.6838 90.9084C50.5421 91.0613 50.4653 91.2617 50.4727 91.485L49.1291 95.1109C46.1097 102.412 41.5768 109.301 35.6502 110.092C31.1159 110.697 26.5255 108.702 27.813 104.186C28.315 102.432 30.3466 100.31 32.3148 100.763C32.6485 100.84 32.9955 100.676 33.1564 100.358C36.9495 92.9515 36.7118 84.6919 34.7348 80.364C32.7341 75.9856 26.9138 68.6955 23.7305 65.9627C21.628 64.1551 14.8597 57.0959 13.3331 55.0467C8.59352 48.6971 7.52159 44.7102 7.66334 39.0656C7.68105 38.3943 7.73569 37.7122 7.82722 37.0286C7.95715 36.8848 8.14319 36.764 8.38976 36.6784C8.69835 36.5698 9.08667 36.527 9.50747 36.5606C10.3697 36.6249 11.2172 36.9904 11.6838 37.4736C11.7547 37.5455 11.8374 37.6021 11.9304 37.6418C12.0101 37.6785 12.0795 37.7336 12.143 37.8391C12.363 38.2138 12.834 38.3316 13.1943 38.1037C13.556 37.8728 13.6697 37.3865 13.4482 37.0118C13.2548 36.6845 12.992 36.423 12.6672 36.2487L12.617 36.2013C11.8285 35.4825 10.6887 35.0574 9.61968 34.9748C9.13982 34.9381 8.64815 34.9687 8.18306 35.0879C9.15901 30.8243 11.3974 26.6555 14.0019 23.681C18.6617 18.3621 29.1182 16.8084 32.9674 15.0466L34.1722 14.2652L35.1851 12.8873C37.3792 9.01513 38.1322 1.66385 41.1413 2.28627C43.2866 2.73129 50.4697 13.5954 53.2381 20.0826C53.2514 20.1162 53.2677 20.1499 53.2883 20.1805C57.0829 26.5025 58.2553 35.0268 62.7851 37.8131C68.2097 41.1546 70.2827 39.7079 77.99 40.861C90.5653 42.7435 99.8553 50.5551 103.141 57.2182L103.173 57.2764C105.713 61.4804 107.892 70.2309 108.031 75.7196C108.311 86.8635 106.268 96.3863 98.0378 104.414C90.6849 111.584 78.1155 114.706 68.2171 109.436ZM21.5822 104.421C21.3223 102.783 22.034 101.425 23.1724 100.448C24.3344 99.4541 25.8345 98.9509 26.8931 99.0136C26.9994 99.0182 27.1058 99.0029 27.2047 98.9632C28.7107 98.379 29.6512 96.2548 30.2595 93.9945C30.9048 91.592 31.2946 88.564 31.4289 85.5467C31.5662 82.5677 31.4525 79.5565 31.0731 77.1204C32.0284 78.5487 32.8316 79.9083 33.3498 81.043C34.875 84.3875 35.3003 90.7264 32.9733 96.9598L32.0033 99.1589L31.4954 99.1146C28.8849 99.2644 26.8607 101.922 26.3409 103.738C25.8921 105.323 25.9452 106.637 26.3483 107.706C23.5607 107.523 21.8805 106.313 21.5822 104.421ZM38.9974 51.3733C39.3089 51.0782 39.3311 50.575 39.0476 50.2539C37.4707 48.4646 35.163 47.4507 33.6097 46.2502C33.2716 45.9887 32.7888 46.0606 32.5378 46.4123C32.2838 46.761 32.3532 47.2611 32.6928 47.5226C34.3509 48.8056 36.5272 49.7477 37.9151 51.3228C38.2001 51.647 38.6859 51.67 38.9974 51.3733ZM41.1929 47.3238C41.4469 46.9736 41.3775 46.4765 41.0394 46.212C40.2155 45.5712 38.9487 44.9977 37.7365 44.5512C36.5007 44.1 35.2309 43.7452 34.3302 43.5648C33.9138 43.4822 33.5122 43.7636 33.4325 44.1933C33.3528 44.623 33.623 45.0405 34.0393 45.1231C34.8544 45.2868 36.0548 45.6201 37.2241 46.0483C38.4142 46.4872 39.4935 46.9934 40.1195 47.4813C40.4576 47.7443 40.939 47.674 41.1929 47.3238ZM21.8952 44.1811C22.6482 44.0893 23.3924 43.7666 23.949 43.2084C24.5204 42.6396 24.8674 41.8397 24.8216 40.8839C24.798 40.4466 24.4377 40.1101 24.0155 40.1315C23.5947 40.1545 23.2684 40.5291 23.289 40.965C23.3127 41.4437 23.1502 41.803 22.883 42.0691C22.6025 42.349 22.1876 42.5478 21.7166 42.6059C21.247 42.6625 20.7701 42.5738 20.3818 42.3475C20.0053 42.1288 19.6908 41.7663 19.5314 41.2143C19.3128 40.4481 18.2512 40.4664 18.0549 41.2387C17.9072 41.8275 17.6429 42.1058 17.3919 42.2419C17.1232 42.3887 16.7689 42.4255 16.3835 42.3352C15.5817 42.1456 15.0561 41.5492 15.0842 41.1669C15.1196 40.731 14.8051 40.3487 14.3828 40.312C13.9606 40.2753 13.5914 40.601 13.5575 41.0399C13.4969 41.8015 13.8602 42.4591 14.3134 42.9194C14.7726 43.3874 15.3913 43.7284 16.0424 43.8813C16.695 44.0343 17.4392 44.0098 18.1051 43.6489C18.3605 43.5082 18.5953 43.3277 18.7961 43.1014L18.8241 43.0662L18.895 43.1488C19.115 43.3828 19.3645 43.577 19.6303 43.7315C20.3316 44.1413 21.1422 44.2728 21.8952 44.1811ZM27.7451 37.9217C29.0636 36.2242 31.048 35.4336 33.183 35.38C35.3269 35.328 37.549 36.0208 39.2263 37.1999C39.5747 37.4476 40.0516 37.3513 40.2908 36.9888C40.5285 36.6279 40.437 36.134 40.0871 35.8878C38.1455 34.5206 35.6074 33.7315 33.1461 33.7942C30.6789 33.8553 28.219 34.779 26.5535 36.9292C26.2878 37.2718 26.338 37.7703 26.6687 38.0456C26.9994 38.3193 27.4823 38.2658 27.7451 37.9217ZM18.2704 17.128C18.3679 15.8113 18.4092 14.2744 18.4624 12.8124C18.517 11.332 18.5835 9.92811 18.7281 8.81326C18.8876 7.59901 19.0988 7.13563 19.211 6.98576L19.7056 6.91695C21.0138 6.91083 22.7988 7.97063 24.6902 9.66967C26.5314 11.3228 28.2043 13.3354 29.1404 14.6414C26.0796 15.5681 21.7668 16.8634 18.0992 18.7735C18.1759 18.2597 18.2306 17.7 18.2704 17.128Z" fill="white" stroke="white"/>
</svg>
