<svg width="59" height="57" viewBox="0 0 59 57" fill="none" xmlns="http://www.w3.org/2000/svg">
<g clip-path="url(#clip0)">
<path d="M29.4651 1.81319C36.8839 0.994584 43.818 3.93412 49.0373 8.80854C54.2565 13.683 57.7609 20.4923 58.3201 27.4132C58.9911 34.1109 56.1578 40.3248 51.1995 45.3481C46.2412 50.3341 39.1207 54.0551 31.2173 55.6551C23.463 57.069 16.9016 54.8737 11.9806 49.3667C6.98509 43.9713 3.62986 35.2271 3.07065 28.4178C2.54873 21.5713 5.12107 16.6969 10.0048 11.8225C14.9258 7.13412 22.0463 2.52017 29.4651 1.81319Z" fill="black" fill-opacity="0.01" stroke="#FAC714" stroke-width="2"/>
<path d="M51.4605 13.7202C55.8596 19.7481 56.7543 27.19 55.1513 34.1481C53.5482 41.1063 49.4101 47.5435 43.7062 51.4877C38.2633 55.3947 31.4783 56.1016 24.656 54.2784C17.8709 52.4923 11.0859 48.1761 5.79213 42.1481C0.684725 36.1202 -0.694647 29.3854 1.61673 22.3156C3.77899 15.3574 9.66928 8.06442 15.2986 4.19465C20.9652 0.287676 26.4454 0.10163 33.1186 1.88768C39.5681 3.78535 47.0987 7.65512 51.4605 13.7202Z" stroke="#FAC714" stroke-width="2"/>
<mask id="path-3-inside-1" fill="white">
<path d="M44.5719 29.8131C44.695 29.7778 44.7894 29.6825 44.8192 29.5622C44.8495 29.442 44.811 29.3159 44.7181 29.2303C44.3065 28.8526 43.4636 27.7079 42.9314 26.964C45.2182 22.4036 43.429 14.3859 43.3505 14.0422C43.3098 13.8624 43.1284 13.7436 42.9411 13.7747C37.5318 14.6202 33.7633 17.8736 32.9884 18.5898C32.7591 18.543 32.5319 18.5008 32.3083 18.4651L32.3065 18.4644H32.3039C31.2763 18.3005 30.3149 18.2458 29.4958 18.2458C28.6766 18.2458 27.7152 18.3008 26.6876 18.4644H26.685L26.6832 18.4651C26.4596 18.5008 26.2324 18.543 26.0031 18.5898C25.2289 17.8736 21.4604 14.6202 16.0511 13.7747C15.866 13.7436 15.6828 13.8627 15.6417 14.0422C15.5632 14.3859 13.7747 22.4039 16.0608 26.964C15.4833 27.7706 14.6623 28.8734 14.2742 29.23C14.1813 29.3155 14.1427 29.4417 14.173 29.5619C14.2029 29.6821 14.2976 29.7778 14.4207 29.8127C14.4542 29.8225 14.8409 29.9489 15.4735 29.8346C15.1592 30.4797 14.708 31.2711 14.3181 31.531C14.1978 31.611 14.1399 31.7534 14.1715 31.891C14.2036 32.0285 14.3184 32.1338 14.4628 32.1574C14.47 32.1584 15.0422 32.2551 15.5542 32.5621C15.4087 32.7218 15.1632 32.9217 14.7963 33.0097C14.6944 33.0343 14.6087 33.1002 14.5619 33.1903C14.515 33.2804 14.5107 33.386 14.5514 33.4789C14.6133 33.6216 16.0792 36.9853 17.3934 38.3719C21.8435 43.0688 26.8863 43.7698 29.4961 43.7698C32.1059 43.7698 37.1487 43.0688 41.5991 38.373C42.9141 36.9863 44.38 33.6223 44.4415 33.4799C44.4819 33.3867 44.4783 33.2814 44.4311 33.1913C44.3839 33.1012 44.2986 33.035 44.1967 33.0108C43.8273 32.9221 43.5824 32.7232 43.438 32.5638C43.9479 32.2586 44.524 32.1591 44.5305 32.1577C44.6745 32.1338 44.7897 32.0282 44.821 31.891C44.8524 31.7537 44.7951 31.6117 44.6749 31.5313C44.2856 31.2718 43.8341 30.4801 43.5194 29.8349C44.1524 29.9493 44.5384 29.8228 44.5719 29.8131ZM41.8714 23.266C41.8336 23.1533 41.7385 23.0674 41.6193 23.0376C41.4151 22.9867 41.1617 22.9656 40.9114 22.9711C41.1242 22.6565 41.4868 22.2955 41.7601 22.0751C41.8652 21.9899 41.9113 21.8544 41.8782 21.7262C41.8447 21.5976 41.7385 21.4985 41.6042 21.4708C41.225 21.3929 40.7883 21.3534 40.3054 21.3534C39.9281 21.3534 39.5828 21.3773 39.3192 21.4033C39.4355 21.2415 39.6202 21.0959 39.7369 21.0259C39.8611 20.9528 39.9266 20.8146 39.9039 20.676C39.8813 20.5374 39.7739 20.4262 39.6321 20.3936C39.1618 20.2855 38.7251 20.2308 38.334 20.2308C37.9318 20.2308 37.6513 20.2879 37.476 20.342C37.4213 20.3073 37.3654 20.2768 37.3107 20.2436C37.9794 19.5399 39.8064 17.7579 41.8137 16.9977C42.0863 18.1429 42.8072 21.7927 41.8987 25.0597C41.777 24.8289 41.6506 24.601 41.5142 24.3792L41.5131 24.3768C41.4897 24.0514 41.714 23.7043 41.8069 23.5937C41.885 23.5019 41.9095 23.3786 41.8714 23.266ZM42.715 14.5159C43.016 16.02 44.1369 22.3845 42.4612 26.2817C42.4255 26.1913 42.3873 26.1019 42.3495 26.0125C43.9061 21.7425 42.4774 16.6651 42.4154 16.4492C42.3891 16.3581 42.3254 16.2815 42.2393 16.2369C42.1529 16.1922 42.051 16.1835 41.9581 16.2122C39.5075 16.9728 37.3179 19.1899 36.6766 19.8839C35.739 19.3892 34.7765 19.034 33.836 18.7863C35.0149 17.7874 38.3088 15.3027 42.715 14.5159ZM36.3284 20.4889C36.0721 21.213 35.7548 21.6202 35.5611 21.817C34.8961 21.2557 34.2166 20.1978 33.808 19.4993C34.6455 19.7308 35.4981 20.0509 36.3284 20.4889ZM31.7934 19.0905C31.5564 19.9934 30.8284 22.4039 29.4961 23.8075C28.1639 22.4036 27.4358 19.9934 27.1989 19.0905C28.0342 18.9786 28.8163 18.9384 29.4961 18.9384C30.1759 18.9384 30.958 18.9786 31.7934 19.0905ZM16.2772 14.5159C20.6834 15.3027 23.9773 17.787 25.1562 18.7859C24.2164 19.0337 23.2532 19.3892 22.3156 19.8839C21.6743 19.1899 19.4851 16.9728 17.0341 16.2119C16.9416 16.1831 16.8397 16.1918 16.7529 16.2365C16.6668 16.2812 16.6031 16.3581 16.5768 16.4489C16.5145 16.6651 15.0858 21.7414 16.6431 26.0115C16.6056 26.1012 16.5667 26.191 16.5311 26.2814C14.8575 22.3866 15.9766 16.0203 16.2772 14.5159ZM25.1843 19.4993C24.776 20.1975 24.0965 21.255 23.4315 21.8166C23.2367 21.6191 22.9202 21.212 22.6641 20.4892C23.4941 20.0513 24.3468 19.7308 25.1843 19.4993ZM19.2561 21.0256C19.331 21.0699 19.5431 21.2234 19.6734 21.4029C19.4095 21.3766 19.0645 21.3527 18.6872 21.3527C18.204 21.3527 17.7672 21.3922 17.3888 21.4705C17.2545 21.4982 17.1482 21.5973 17.1147 21.7258C17.0816 21.8544 17.1277 21.9899 17.2329 22.0747C17.5065 22.2955 17.8691 22.6565 18.0815 22.9707C17.8334 22.9645 17.5782 22.986 17.3736 23.0373C17.2552 23.0667 17.1608 23.1527 17.1227 23.2646C17.0845 23.3761 17.1083 23.4998 17.185 23.5913C17.2789 23.7032 17.5043 24.0521 17.4788 24.3782C17.3423 24.6003 17.2159 24.8279 17.0939 25.0583C16.1858 21.7917 16.9063 18.1422 17.1785 16.9967C19.183 17.7562 21.0118 19.5388 21.6815 20.2429C21.6268 20.2761 21.571 20.3066 21.5166 20.3409C21.3413 20.2869 21.0608 20.2297 20.6586 20.2297C20.2672 20.2297 19.8304 20.2845 19.3609 20.3926C19.219 20.4251 19.1121 20.5367 19.089 20.675C19.066 20.8142 19.1319 20.9525 19.2561 21.0256ZM43.0351 28.9386C42.903 28.8675 42.738 28.8842 42.6232 28.9798C42.5087 29.0758 42.4687 29.2307 42.5242 29.3668C42.5958 29.5446 43.1338 30.8484 43.7833 31.6415C43.4564 31.7551 43.0542 31.937 42.7114 32.2166C42.5875 32.3178 42.5497 32.4866 42.6185 32.6283C42.6325 32.6567 42.9213 33.2325 43.6263 33.5485C43.2209 34.4362 42.0676 36.8512 41.0673 37.9063C36.803 42.405 31.9871 43.0768 29.4961 43.0768C27.0052 43.0768 22.1892 42.405 17.9249 37.9059C16.9261 36.8519 15.772 34.4362 15.3659 33.5485C16.0713 33.2325 16.3604 32.657 16.3741 32.6286C16.4436 32.4869 16.4054 32.3182 16.2815 32.217C15.9388 31.937 15.5366 31.7551 15.2089 31.6418C15.8592 30.8484 16.3964 29.5449 16.4684 29.3668C16.5232 29.2307 16.4835 29.0761 16.369 28.9801C16.2542 28.8842 16.0896 28.8679 15.9571 28.9389C15.7166 29.0682 15.4854 29.1326 15.2896 29.1627C15.9975 28.3066 16.9344 26.9647 17.1079 26.7148C17.1353 26.684 17.1576 26.6483 17.1727 26.6085C17.4302 25.9335 17.7564 25.279 18.1417 24.6623C18.177 24.6061 18.1935 24.5431 18.1924 24.4804C18.2277 24.1775 18.1514 23.8917 18.0517 23.6637C18.3224 23.67 18.5439 23.7122 18.546 23.7129C18.653 23.7334 18.7649 23.7067 18.8492 23.6388C18.9331 23.5712 18.9806 23.4704 18.9781 23.365C18.9669 22.9146 18.5968 22.4219 18.2518 22.0585C18.3908 22.0501 18.5359 22.046 18.6868 22.046C19.4311 22.046 20.0558 22.1496 20.0619 22.1506C20.251 22.1825 20.4328 22.0664 20.4749 21.8863C20.5585 21.5339 20.4227 21.2092 20.2193 20.9483C20.373 20.9317 20.5192 20.9234 20.6582 20.9234C21.064 20.9234 21.2872 20.9958 21.3528 21.0207C21.3546 21.0218 21.3567 21.0232 21.3585 21.0242C21.4802 21.1004 21.6369 21.099 21.7571 21.02C21.8482 20.9605 21.9408 20.9064 22.0329 20.8499C22.509 22.1007 23.1524 22.5144 23.2316 22.5612C23.3533 22.6333 23.5085 22.6288 23.6259 22.5498C24.7183 21.8159 25.8274 19.8392 26.1313 19.2713C26.2497 19.2471 26.3671 19.2239 26.4841 19.2027C26.7319 20.176 27.5744 23.0359 29.2491 24.5535C29.3182 24.6162 29.4072 24.6477 29.4961 24.6477C29.5851 24.6477 29.6736 24.6162 29.7431 24.5535C31.4174 23.0359 32.2604 20.176 32.5081 19.2027C32.6251 19.2239 32.7425 19.2467 32.861 19.2713C33.1649 19.8392 34.2739 21.8159 35.3663 22.5498C35.4834 22.6291 35.6393 22.6333 35.7606 22.5612C35.8398 22.5144 36.484 22.1007 36.9596 20.8499C37.0518 20.9064 37.1447 20.9605 37.2358 21.0204C37.3543 21.0987 37.5091 21.0987 37.629 21.0256C37.6909 21.0006 37.9153 20.9234 38.3344 20.9234C38.4734 20.9234 38.6199 20.9317 38.7733 20.9483C38.5702 21.2089 38.4341 21.5335 38.5169 21.8859C38.5598 22.0661 38.7423 22.1825 38.9303 22.1506C38.9368 22.1496 39.5608 22.046 40.3058 22.046C40.4566 22.046 40.6018 22.0501 40.7411 22.0585C40.3958 22.4219 40.0264 22.9143 40.0148 23.365C40.0123 23.4704 40.0598 23.5712 40.1437 23.6388C40.2276 23.7067 40.3389 23.7334 40.4469 23.7129C40.4494 23.7126 40.6702 23.67 40.9409 23.6637C40.8416 23.8914 40.7652 24.1758 40.7994 24.4773C40.7983 24.541 40.8153 24.6051 40.8513 24.6623C41.2355 25.2769 41.5617 25.9318 41.8195 26.6085C41.8343 26.6476 41.8562 26.6826 41.8832 26.7131C42.0536 26.9584 42.993 28.3045 43.7027 29.1627C43.5064 29.1323 43.2756 29.0675 43.0351 28.9386Z"/>
<path d="M39.3984 32.3358C39.4524 32.3358 39.5075 32.3241 39.559 32.2995L41.3593 31.4333C41.5372 31.3477 41.6092 31.1394 41.5203 30.9683C41.4314 30.7971 41.2149 30.7278 41.0371 30.8134L39.2367 31.6796C39.0589 31.7652 38.9868 31.9734 39.0758 32.1446C39.1391 32.2658 39.2663 32.3358 39.3984 32.3358Z"/>
<path d="M41.1984 32.5091H39.398C39.1989 32.5091 39.038 32.6643 39.038 32.8556C39.038 33.0468 39.1989 33.202 39.398 33.202H41.1984C41.3975 33.202 41.5585 33.0468 41.5585 32.8556C41.5585 32.6643 41.3975 32.5091 41.1984 32.5091Z"/>
<path d="M41.3593 34.2779L39.559 33.4117C39.3811 33.3261 39.1651 33.3954 39.0758 33.5665C38.9868 33.7377 39.0589 33.9459 39.2367 34.0315L41.0371 34.8977C41.0889 34.9227 41.144 34.9345 41.198 34.9345C41.3302 34.9345 41.4573 34.8645 41.5206 34.7429C41.6096 34.5717 41.5372 34.3638 41.3593 34.2779Z"/>
<path d="M17.6329 31.4333L19.4332 32.2995C19.4851 32.3244 19.5398 32.3358 19.5938 32.3358C19.726 32.3358 19.8531 32.2658 19.9165 32.1442C20.0054 31.9731 19.9334 31.7648 19.7555 31.6793L17.9552 30.813C17.7773 30.7275 17.5612 30.7968 17.4719 30.9679C17.3826 31.1394 17.455 31.3473 17.6329 31.4333Z"/>
<path d="M19.5942 32.5091H17.7938C17.5947 32.5091 17.4338 32.6643 17.4338 32.8556C17.4338 33.0468 17.5947 33.202 17.7938 33.202H19.5942C19.7933 33.202 19.9543 33.0468 19.9543 32.8556C19.9543 32.6643 19.7933 32.5091 19.5942 32.5091Z"/>
<path d="M19.4332 33.4117L17.6329 34.2779C17.455 34.3635 17.383 34.5717 17.4719 34.7429C17.535 34.8645 17.6621 34.9345 17.7942 34.9345C17.8482 34.9345 17.9033 34.9227 17.9548 34.8981L19.7551 34.0319C19.933 33.9463 20.005 33.7381 19.9161 33.5669C19.8268 33.3957 19.6108 33.3261 19.4332 33.4117Z"/>
<path d="M34.8972 28.1389C34.06 28.1389 31.8366 28.1389 31.8366 30.2178C31.8366 31.8418 33.2095 33.1629 34.8972 33.1629C36.5848 33.1629 37.9578 31.8418 37.9578 30.2178C37.9578 28.1389 35.7343 28.1389 34.8972 28.1389ZM34.8972 32.4699C33.6067 32.4699 32.5567 31.4596 32.5567 30.2178C32.5567 30.0023 32.5844 29.8062 32.6575 29.6329C32.9856 29.9905 33.4616 30.2178 33.997 30.2178C34.85 30.2178 35.5611 29.6451 35.7466 28.8786C36.9582 29.0269 37.2376 29.5255 37.2376 30.2178C37.2376 31.4596 36.1877 32.4699 34.8972 32.4699Z"/>
<path d="M27.1557 30.2178C27.1557 28.1389 24.9322 28.1389 24.0951 28.1389C23.2579 28.1389 21.0345 28.1389 21.0345 30.2178C21.0345 31.8418 22.4074 33.1629 24.0951 33.1629C25.7827 33.1629 27.1557 31.8418 27.1557 30.2178ZM24.0951 32.4699C22.8046 32.4699 21.7546 31.4596 21.7546 30.2178C21.7546 30.0023 21.7823 29.8062 21.8554 29.6329C22.1835 29.9905 22.6595 30.2178 23.1949 30.2178C24.0479 30.2178 24.759 29.6451 24.9445 28.8786C26.1561 29.0269 26.4355 29.5255 26.4355 30.2178C26.4355 31.4596 25.3856 32.4699 24.0951 32.4699Z"/>
<path d="M33.997 36.801H24.9952C24.7961 36.801 24.6352 36.9562 24.6352 37.1475C24.6352 37.3387 24.7961 37.4939 24.9952 37.4939H33.997C34.1961 37.4939 34.3571 37.3387 34.3571 37.1475C34.3571 36.9562 34.1961 36.801 33.997 36.801Z"/>
<path d="M38.1641 24.979C34.3038 24.3449 31.5752 26.4671 31.461 26.5579C31.3076 26.6795 31.2864 26.8974 31.4124 27.045C31.4833 27.1282 31.5863 27.1712 31.6904 27.1712C31.771 27.1712 31.8517 27.1455 31.919 27.0925C31.9446 27.0724 34.5148 25.0829 38.0431 25.6622C38.2386 25.6955 38.4251 25.5676 38.4583 25.3788C38.4921 25.19 38.3603 25.0112 38.1641 24.979Z"/>
<path d="M26.9306 23.9471C27.1265 23.9794 27.3126 23.8525 27.3458 23.6637C27.3796 23.4752 27.2478 23.2961 27.0516 23.2639C23.1916 22.6308 20.4627 24.752 20.3485 24.8428C20.1951 24.9644 20.1739 25.1824 20.2999 25.33C20.3709 25.4131 20.4738 25.4561 20.5779 25.4561C20.6586 25.4561 20.7392 25.4304 20.8065 25.3774C20.8321 25.3573 23.4027 23.3678 26.9306 23.9471Z"/>
</mask>
<path d="M44.5719 29.8131C44.695 29.7778 44.7894 29.6825 44.8192 29.5622C44.8495 29.442 44.811 29.3159 44.7181 29.2303C44.3065 28.8526 43.4636 27.7079 42.9314 26.964C45.2182 22.4036 43.429 14.3859 43.3505 14.0422C43.3098 13.8624 43.1284 13.7436 42.9411 13.7747C37.5318 14.6202 33.7633 17.8736 32.9884 18.5898C32.7591 18.543 32.5319 18.5008 32.3083 18.4651L32.3065 18.4644H32.3039C31.2763 18.3005 30.3149 18.2458 29.4958 18.2458C28.6766 18.2458 27.7152 18.3008 26.6876 18.4644H26.685L26.6832 18.4651C26.4596 18.5008 26.2324 18.543 26.0031 18.5898C25.2289 17.8736 21.4604 14.6202 16.0511 13.7747C15.866 13.7436 15.6828 13.8627 15.6417 14.0422C15.5632 14.3859 13.7747 22.4039 16.0608 26.964C15.4833 27.7706 14.6623 28.8734 14.2742 29.23C14.1813 29.3155 14.1427 29.4417 14.173 29.5619C14.2029 29.6821 14.2976 29.7778 14.4207 29.8127C14.4542 29.8225 14.8409 29.9489 15.4735 29.8346C15.1592 30.4797 14.708 31.2711 14.3181 31.531C14.1978 31.611 14.1399 31.7534 14.1715 31.891C14.2036 32.0285 14.3184 32.1338 14.4628 32.1574C14.47 32.1584 15.0422 32.2551 15.5542 32.5621C15.4087 32.7218 15.1632 32.9217 14.7963 33.0097C14.6944 33.0343 14.6087 33.1002 14.5619 33.1903C14.515 33.2804 14.5107 33.386 14.5514 33.4789C14.6133 33.6216 16.0792 36.9853 17.3934 38.3719C21.8435 43.0688 26.8863 43.7698 29.4961 43.7698C32.1059 43.7698 37.1487 43.0688 41.5991 38.373C42.9141 36.9863 44.38 33.6223 44.4415 33.4799C44.4819 33.3867 44.4783 33.2814 44.4311 33.1913C44.3839 33.1012 44.2986 33.035 44.1967 33.0108C43.8273 32.9221 43.5824 32.7232 43.438 32.5638C43.9479 32.2586 44.524 32.1591 44.5305 32.1577C44.6745 32.1338 44.7897 32.0282 44.821 31.891C44.8524 31.7537 44.7951 31.6117 44.6749 31.5313C44.2856 31.2718 43.8341 30.4801 43.5194 29.8349C44.1524 29.9493 44.5384 29.8228 44.5719 29.8131ZM41.8714 23.266C41.8336 23.1533 41.7385 23.0674 41.6193 23.0376C41.4151 22.9867 41.1617 22.9656 40.9114 22.9711C41.1242 22.6565 41.4868 22.2955 41.7601 22.0751C41.8652 21.9899 41.9113 21.8544 41.8782 21.7262C41.8447 21.5976 41.7385 21.4985 41.6042 21.4708C41.225 21.3929 40.7883 21.3534 40.3054 21.3534C39.9281 21.3534 39.5828 21.3773 39.3192 21.4033C39.4355 21.2415 39.6202 21.0959 39.7369 21.0259C39.8611 20.9528 39.9266 20.8146 39.9039 20.676C39.8813 20.5374 39.7739 20.4262 39.6321 20.3936C39.1618 20.2855 38.7251 20.2308 38.334 20.2308C37.9318 20.2308 37.6513 20.2879 37.476 20.342C37.4213 20.3073 37.3654 20.2768 37.3107 20.2436C37.9794 19.5399 39.8064 17.7579 41.8137 16.9977C42.0863 18.1429 42.8072 21.7927 41.8987 25.0597C41.777 24.8289 41.6506 24.601 41.5142 24.3792L41.5131 24.3768C41.4897 24.0514 41.714 23.7043 41.8069 23.5937C41.885 23.5019 41.9095 23.3786 41.8714 23.266ZM42.715 14.5159C43.016 16.02 44.1369 22.3845 42.4612 26.2817C42.4255 26.1913 42.3873 26.1019 42.3495 26.0125C43.9061 21.7425 42.4774 16.6651 42.4154 16.4492C42.3891 16.3581 42.3254 16.2815 42.2393 16.2369C42.1529 16.1922 42.051 16.1835 41.9581 16.2122C39.5075 16.9728 37.3179 19.1899 36.6766 19.8839C35.739 19.3892 34.7765 19.034 33.836 18.7863C35.0149 17.7874 38.3088 15.3027 42.715 14.5159ZM36.3284 20.4889C36.0721 21.213 35.7548 21.6202 35.5611 21.817C34.8961 21.2557 34.2166 20.1978 33.808 19.4993C34.6455 19.7308 35.4981 20.0509 36.3284 20.4889ZM31.7934 19.0905C31.5564 19.9934 30.8284 22.4039 29.4961 23.8075C28.1639 22.4036 27.4358 19.9934 27.1989 19.0905C28.0342 18.9786 28.8163 18.9384 29.4961 18.9384C30.1759 18.9384 30.958 18.9786 31.7934 19.0905ZM16.2772 14.5159C20.6834 15.3027 23.9773 17.787 25.1562 18.7859C24.2164 19.0337 23.2532 19.3892 22.3156 19.8839C21.6743 19.1899 19.4851 16.9728 17.0341 16.2119C16.9416 16.1831 16.8397 16.1918 16.7529 16.2365C16.6668 16.2812 16.6031 16.3581 16.5768 16.4489C16.5145 16.6651 15.0858 21.7414 16.6431 26.0115C16.6056 26.1012 16.5667 26.191 16.5311 26.2814C14.8575 22.3866 15.9766 16.0203 16.2772 14.5159ZM25.1843 19.4993C24.776 20.1975 24.0965 21.255 23.4315 21.8166C23.2367 21.6191 22.9202 21.212 22.6641 20.4892C23.4941 20.0513 24.3468 19.7308 25.1843 19.4993ZM19.2561 21.0256C19.331 21.0699 19.5431 21.2234 19.6734 21.4029C19.4095 21.3766 19.0645 21.3527 18.6872 21.3527C18.204 21.3527 17.7672 21.3922 17.3888 21.4705C17.2545 21.4982 17.1482 21.5973 17.1147 21.7258C17.0816 21.8544 17.1277 21.9899 17.2329 22.0747C17.5065 22.2955 17.8691 22.6565 18.0815 22.9707C17.8334 22.9645 17.5782 22.986 17.3736 23.0373C17.2552 23.0667 17.1608 23.1527 17.1227 23.2646C17.0845 23.3761 17.1083 23.4998 17.185 23.5913C17.2789 23.7032 17.5043 24.0521 17.4788 24.3782C17.3423 24.6003 17.2159 24.8279 17.0939 25.0583C16.1858 21.7917 16.9063 18.1422 17.1785 16.9967C19.183 17.7562 21.0118 19.5388 21.6815 20.2429C21.6268 20.2761 21.571 20.3066 21.5166 20.3409C21.3413 20.2869 21.0608 20.2297 20.6586 20.2297C20.2672 20.2297 19.8304 20.2845 19.3609 20.3926C19.219 20.4251 19.1121 20.5367 19.089 20.675C19.066 20.8142 19.1319 20.9525 19.2561 21.0256ZM43.0351 28.9386C42.903 28.8675 42.738 28.8842 42.6232 28.9798C42.5087 29.0758 42.4687 29.2307 42.5242 29.3668C42.5958 29.5446 43.1338 30.8484 43.7833 31.6415C43.4564 31.7551 43.0542 31.937 42.7114 32.2166C42.5875 32.3178 42.5497 32.4866 42.6185 32.6283C42.6325 32.6567 42.9213 33.2325 43.6263 33.5485C43.2209 34.4362 42.0676 36.8512 41.0673 37.9063C36.803 42.405 31.9871 43.0768 29.4961 43.0768C27.0052 43.0768 22.1892 42.405 17.9249 37.9059C16.9261 36.8519 15.772 34.4362 15.3659 33.5485C16.0713 33.2325 16.3604 32.657 16.3741 32.6286C16.4436 32.4869 16.4054 32.3182 16.2815 32.217C15.9388 31.937 15.5366 31.7551 15.2089 31.6418C15.8592 30.8484 16.3964 29.5449 16.4684 29.3668C16.5232 29.2307 16.4835 29.0761 16.369 28.9801C16.2542 28.8842 16.0896 28.8679 15.9571 28.9389C15.7166 29.0682 15.4854 29.1326 15.2896 29.1627C15.9975 28.3066 16.9344 26.9647 17.1079 26.7148C17.1353 26.684 17.1576 26.6483 17.1727 26.6085C17.4302 25.9335 17.7564 25.279 18.1417 24.6623C18.177 24.6061 18.1935 24.5431 18.1924 24.4804C18.2277 24.1775 18.1514 23.8917 18.0517 23.6637C18.3224 23.67 18.5439 23.7122 18.546 23.7129C18.653 23.7334 18.7649 23.7067 18.8492 23.6388C18.9331 23.5712 18.9806 23.4704 18.9781 23.365C18.9669 22.9146 18.5968 22.4219 18.2518 22.0585C18.3908 22.0501 18.5359 22.046 18.6868 22.046C19.4311 22.046 20.0558 22.1496 20.0619 22.1506C20.251 22.1825 20.4328 22.0664 20.4749 21.8863C20.5585 21.5339 20.4227 21.2092 20.2193 20.9483C20.373 20.9317 20.5192 20.9234 20.6582 20.9234C21.064 20.9234 21.2872 20.9958 21.3528 21.0207C21.3546 21.0218 21.3567 21.0232 21.3585 21.0242C21.4802 21.1004 21.6369 21.099 21.7571 21.02C21.8482 20.9605 21.9408 20.9064 22.0329 20.8499C22.509 22.1007 23.1524 22.5144 23.2316 22.5612C23.3533 22.6333 23.5085 22.6288 23.6259 22.5498C24.7183 21.8159 25.8274 19.8392 26.1313 19.2713C26.2497 19.2471 26.3671 19.2239 26.4841 19.2027C26.7319 20.176 27.5744 23.0359 29.2491 24.5535C29.3182 24.6162 29.4072 24.6477 29.4961 24.6477C29.5851 24.6477 29.6736 24.6162 29.7431 24.5535C31.4174 23.0359 32.2604 20.176 32.5081 19.2027C32.6251 19.2239 32.7425 19.2467 32.861 19.2713C33.1649 19.8392 34.2739 21.8159 35.3663 22.5498C35.4834 22.6291 35.6393 22.6333 35.7606 22.5612C35.8398 22.5144 36.484 22.1007 36.9596 20.8499C37.0518 20.9064 37.1447 20.9605 37.2358 21.0204C37.3543 21.0987 37.5091 21.0987 37.629 21.0256C37.6909 21.0006 37.9153 20.9234 38.3344 20.9234C38.4734 20.9234 38.6199 20.9317 38.7733 20.9483C38.5702 21.2089 38.4341 21.5335 38.5169 21.8859C38.5598 22.0661 38.7423 22.1825 38.9303 22.1506C38.9368 22.1496 39.5608 22.046 40.3058 22.046C40.4566 22.046 40.6018 22.0501 40.7411 22.0585C40.3958 22.4219 40.0264 22.9143 40.0148 23.365C40.0123 23.4704 40.0598 23.5712 40.1437 23.6388C40.2276 23.7067 40.3389 23.7334 40.4469 23.7129C40.4494 23.7126 40.6702 23.67 40.9409 23.6637C40.8416 23.8914 40.7652 24.1758 40.7994 24.4773C40.7983 24.541 40.8153 24.6051 40.8513 24.6623C41.2355 25.2769 41.5617 25.9318 41.8195 26.6085C41.8343 26.6476 41.8562 26.6826 41.8832 26.7131C42.0536 26.9584 42.993 28.3045 43.7027 29.1627C43.5064 29.1323 43.2756 29.0675 43.0351 28.9386Z" fill="#FAC714"/>
<path d="M39.3984 32.3358C39.4524 32.3358 39.5075 32.3241 39.559 32.2995L41.3593 31.4333C41.5372 31.3477 41.6092 31.1394 41.5203 30.9683C41.4314 30.7971 41.2149 30.7278 41.0371 30.8134L39.2367 31.6796C39.0589 31.7652 38.9868 31.9734 39.0758 32.1446C39.1391 32.2658 39.2663 32.3358 39.3984 32.3358Z" fill="#FAC714"/>
<path d="M41.1984 32.5091H39.398C39.1989 32.5091 39.038 32.6643 39.038 32.8556C39.038 33.0468 39.1989 33.202 39.398 33.202H41.1984C41.3975 33.202 41.5585 33.0468 41.5585 32.8556C41.5585 32.6643 41.3975 32.5091 41.1984 32.5091Z" fill="#FAC714"/>
<path d="M41.3593 34.2779L39.559 33.4117C39.3811 33.3261 39.1651 33.3954 39.0758 33.5665C38.9868 33.7377 39.0589 33.9459 39.2367 34.0315L41.0371 34.8977C41.0889 34.9227 41.144 34.9345 41.198 34.9345C41.3302 34.9345 41.4573 34.8645 41.5206 34.7429C41.6096 34.5717 41.5372 34.3638 41.3593 34.2779Z" fill="#FAC714"/>
<path d="M17.6329 31.4333L19.4332 32.2995C19.4851 32.3244 19.5398 32.3358 19.5938 32.3358C19.726 32.3358 19.8531 32.2658 19.9165 32.1442C20.0054 31.9731 19.9334 31.7648 19.7555 31.6793L17.9552 30.813C17.7773 30.7275 17.5612 30.7968 17.4719 30.9679C17.3826 31.1394 17.455 31.3473 17.6329 31.4333Z" fill="#FAC714"/>
<path d="M19.5942 32.5091H17.7938C17.5947 32.5091 17.4338 32.6643 17.4338 32.8556C17.4338 33.0468 17.5947 33.202 17.7938 33.202H19.5942C19.7933 33.202 19.9543 33.0468 19.9543 32.8556C19.9543 32.6643 19.7933 32.5091 19.5942 32.5091Z" fill="#FAC714"/>
<path d="M19.4332 33.4117L17.6329 34.2779C17.455 34.3635 17.383 34.5717 17.4719 34.7429C17.535 34.8645 17.6621 34.9345 17.7942 34.9345C17.8482 34.9345 17.9033 34.9227 17.9548 34.8981L19.7551 34.0319C19.933 33.9463 20.005 33.7381 19.9161 33.5669C19.8268 33.3957 19.6108 33.3261 19.4332 33.4117Z" fill="#FAC714"/>
<path d="M34.8972 28.1389C34.06 28.1389 31.8366 28.1389 31.8366 30.2178C31.8366 31.8418 33.2095 33.1629 34.8972 33.1629C36.5848 33.1629 37.9578 31.8418 37.9578 30.2178C37.9578 28.1389 35.7343 28.1389 34.8972 28.1389ZM34.8972 32.4699C33.6067 32.4699 32.5567 31.4596 32.5567 30.2178C32.5567 30.0023 32.5844 29.8062 32.6575 29.6329C32.9856 29.9905 33.4616 30.2178 33.997 30.2178C34.85 30.2178 35.5611 29.6451 35.7466 28.8786C36.9582 29.0269 37.2376 29.5255 37.2376 30.2178C37.2376 31.4596 36.1877 32.4699 34.8972 32.4699Z" fill="#FAC714"/>
<path d="M27.1557 30.2178C27.1557 28.1389 24.9322 28.1389 24.0951 28.1389C23.2579 28.1389 21.0345 28.1389 21.0345 30.2178C21.0345 31.8418 22.4074 33.1629 24.0951 33.1629C25.7827 33.1629 27.1557 31.8418 27.1557 30.2178ZM24.0951 32.4699C22.8046 32.4699 21.7546 31.4596 21.7546 30.2178C21.7546 30.0023 21.7823 29.8062 21.8554 29.6329C22.1835 29.9905 22.6595 30.2178 23.1949 30.2178C24.0479 30.2178 24.759 29.6451 24.9445 28.8786C26.1561 29.0269 26.4355 29.5255 26.4355 30.2178C26.4355 31.4596 25.3856 32.4699 24.0951 32.4699Z" fill="#FAC714"/>
<path d="M33.997 36.801H24.9952C24.7961 36.801 24.6352 36.9562 24.6352 37.1475C24.6352 37.3387 24.7961 37.4939 24.9952 37.4939H33.997C34.1961 37.4939 34.3571 37.3387 34.3571 37.1475C34.3571 36.9562 34.1961 36.801 33.997 36.801Z" fill="#FAC714"/>
<path d="M38.1641 24.979C34.3038 24.3449 31.5752 26.4671 31.461 26.5579C31.3076 26.6795 31.2864 26.8974 31.4124 27.045C31.4833 27.1282 31.5863 27.1712 31.6904 27.1712C31.771 27.1712 31.8517 27.1455 31.919 27.0925C31.9446 27.0724 34.5148 25.0829 38.0431 25.6622C38.2386 25.6955 38.4251 25.5676 38.4583 25.3788C38.4921 25.19 38.3603 25.0112 38.1641 24.979Z" fill="#FAC714"/>
<path d="M26.9306 23.9471C27.1265 23.9794 27.3126 23.8525 27.3458 23.6637C27.3796 23.4752 27.2478 23.2961 27.0516 23.2639C23.1916 22.6308 20.4627 24.752 20.3485 24.8428C20.1951 24.9644 20.1739 25.1824 20.2999 25.33C20.3709 25.4131 20.4738 25.4561 20.5779 25.4561C20.6586 25.4561 20.7392 25.4304 20.8065 25.3774C20.8321 25.3573 23.4027 23.3678 26.9306 23.9471Z" fill="#FAC714"/>
<path d="M44.5719 29.8131C44.695 29.7778 44.7894 29.6825 44.8192 29.5622C44.8495 29.442 44.811 29.3159 44.7181 29.2303C44.3065 28.8526 43.4636 27.7079 42.9314 26.964C45.2182 22.4036 43.429 14.3859 43.3505 14.0422C43.3098 13.8624 43.1284 13.7436 42.9411 13.7747C37.5318 14.6202 33.7633 17.8736 32.9884 18.5898C32.7591 18.543 32.5319 18.5008 32.3083 18.4651L32.3065 18.4644H32.3039C31.2763 18.3005 30.3149 18.2458 29.4958 18.2458C28.6766 18.2458 27.7152 18.3008 26.6876 18.4644H26.685L26.6832 18.4651C26.4596 18.5008 26.2324 18.543 26.0031 18.5898C25.2289 17.8736 21.4604 14.6202 16.0511 13.7747C15.866 13.7436 15.6828 13.8627 15.6417 14.0422C15.5632 14.3859 13.7747 22.4039 16.0608 26.964C15.4833 27.7706 14.6623 28.8734 14.2742 29.23C14.1813 29.3155 14.1427 29.4417 14.173 29.5619C14.2029 29.6821 14.2976 29.7778 14.4207 29.8127C14.4542 29.8225 14.8409 29.9489 15.4735 29.8346C15.1592 30.4797 14.708 31.2711 14.3181 31.531C14.1978 31.611 14.1399 31.7534 14.1715 31.891C14.2036 32.0285 14.3184 32.1338 14.4628 32.1574C14.47 32.1584 15.0422 32.2551 15.5542 32.5621C15.4087 32.7218 15.1632 32.9217 14.7963 33.0097C14.6944 33.0343 14.6087 33.1002 14.5619 33.1903C14.515 33.2804 14.5107 33.386 14.5514 33.4789C14.6133 33.6216 16.0792 36.9853 17.3934 38.3719C21.8435 43.0688 26.8863 43.7698 29.4961 43.7698C32.1059 43.7698 37.1487 43.0688 41.5991 38.373C42.9141 36.9863 44.38 33.6223 44.4415 33.4799C44.4819 33.3867 44.4783 33.2814 44.4311 33.1913C44.3839 33.1012 44.2986 33.035 44.1967 33.0108C43.8273 32.9221 43.5824 32.7232 43.438 32.5638C43.9479 32.2586 44.524 32.1591 44.5305 32.1577C44.6745 32.1338 44.7897 32.0282 44.821 31.891C44.8524 31.7537 44.7951 31.6117 44.6749 31.5313C44.2856 31.2718 43.8341 30.4801 43.5194 29.8349C44.1524 29.9493 44.5384 29.8228 44.5719 29.8131ZM41.8714 23.266C41.8336 23.1533 41.7385 23.0674 41.6193 23.0376C41.4151 22.9867 41.1617 22.9656 40.9114 22.9711C41.1242 22.6565 41.4868 22.2955 41.7601 22.0751C41.8652 21.9899 41.9113 21.8544 41.8782 21.7262C41.8447 21.5976 41.7385 21.4985 41.6042 21.4708C41.225 21.3929 40.7883 21.3534 40.3054 21.3534C39.9281 21.3534 39.5828 21.3773 39.3192 21.4033C39.4355 21.2415 39.6202 21.0959 39.7369 21.0259C39.8611 20.9528 39.9266 20.8146 39.9039 20.676C39.8813 20.5374 39.7739 20.4262 39.6321 20.3936C39.1618 20.2855 38.7251 20.2308 38.334 20.2308C37.9318 20.2308 37.6513 20.2879 37.476 20.342C37.4213 20.3073 37.3654 20.2768 37.3107 20.2436C37.9794 19.5399 39.8064 17.7579 41.8137 16.9977C42.0863 18.1429 42.8072 21.7927 41.8987 25.0597C41.777 24.8289 41.6506 24.601 41.5142 24.3792L41.5131 24.3768C41.4897 24.0514 41.714 23.7043 41.8069 23.5937C41.885 23.5019 41.9095 23.3786 41.8714 23.266ZM42.715 14.5159C43.016 16.02 44.1369 22.3845 42.4612 26.2817C42.4255 26.1913 42.3873 26.1019 42.3495 26.0125C43.9061 21.7425 42.4774 16.6651 42.4154 16.4492C42.3891 16.3581 42.3254 16.2815 42.2393 16.2369C42.1529 16.1922 42.051 16.1835 41.9581 16.2122C39.5075 16.9728 37.3179 19.1899 36.6766 19.8839C35.739 19.3892 34.7765 19.034 33.836 18.7863C35.0149 17.7874 38.3088 15.3027 42.715 14.5159ZM36.3284 20.4889C36.0721 21.213 35.7548 21.6202 35.5611 21.817C34.8961 21.2557 34.2166 20.1978 33.808 19.4993C34.6455 19.7308 35.4981 20.0509 36.3284 20.4889ZM31.7934 19.0905C31.5564 19.9934 30.8284 22.4039 29.4961 23.8075C28.1639 22.4036 27.4358 19.9934 27.1989 19.0905C28.0342 18.9786 28.8163 18.9384 29.4961 18.9384C30.1759 18.9384 30.958 18.9786 31.7934 19.0905ZM16.2772 14.5159C20.6834 15.3027 23.9773 17.787 25.1562 18.7859C24.2164 19.0337 23.2532 19.3892 22.3156 19.8839C21.6743 19.1899 19.4851 16.9728 17.0341 16.2119C16.9416 16.1831 16.8397 16.1918 16.7529 16.2365C16.6668 16.2812 16.6031 16.3581 16.5768 16.4489C16.5145 16.6651 15.0858 21.7414 16.6431 26.0115C16.6056 26.1012 16.5667 26.191 16.5311 26.2814C14.8575 22.3866 15.9766 16.0203 16.2772 14.5159ZM25.1843 19.4993C24.776 20.1975 24.0965 21.255 23.4315 21.8166C23.2367 21.6191 22.9202 21.212 22.6641 20.4892C23.4941 20.0513 24.3468 19.7308 25.1843 19.4993ZM19.2561 21.0256C19.331 21.0699 19.5431 21.2234 19.6734 21.4029C19.4095 21.3766 19.0645 21.3527 18.6872 21.3527C18.204 21.3527 17.7672 21.3922 17.3888 21.4705C17.2545 21.4982 17.1482 21.5973 17.1147 21.7258C17.0816 21.8544 17.1277 21.9899 17.2329 22.0747C17.5065 22.2955 17.8691 22.6565 18.0815 22.9707C17.8334 22.9645 17.5782 22.986 17.3736 23.0373C17.2552 23.0667 17.1608 23.1527 17.1227 23.2646C17.0845 23.3761 17.1083 23.4998 17.185 23.5913C17.2789 23.7032 17.5043 24.0521 17.4788 24.3782C17.3423 24.6003 17.2159 24.8279 17.0939 25.0583C16.1858 21.7917 16.9063 18.1422 17.1785 16.9967C19.183 17.7562 21.0118 19.5388 21.6815 20.2429C21.6268 20.2761 21.571 20.3066 21.5166 20.3409C21.3413 20.2869 21.0608 20.2297 20.6586 20.2297C20.2672 20.2297 19.8304 20.2845 19.3609 20.3926C19.219 20.4251 19.1121 20.5367 19.089 20.675C19.066 20.8142 19.1319 20.9525 19.2561 21.0256ZM43.0351 28.9386C42.903 28.8675 42.738 28.8842 42.6232 28.9798C42.5087 29.0758 42.4687 29.2307 42.5242 29.3668C42.5958 29.5446 43.1338 30.8484 43.7833 31.6415C43.4564 31.7551 43.0542 31.937 42.7114 32.2166C42.5875 32.3178 42.5497 32.4866 42.6185 32.6283C42.6325 32.6567 42.9213 33.2325 43.6263 33.5485C43.2209 34.4362 42.0676 36.8512 41.0673 37.9063C36.803 42.405 31.9871 43.0768 29.4961 43.0768C27.0052 43.0768 22.1892 42.405 17.9249 37.9059C16.9261 36.8519 15.772 34.4362 15.3659 33.5485C16.0713 33.2325 16.3604 32.657 16.3741 32.6286C16.4436 32.4869 16.4054 32.3182 16.2815 32.217C15.9388 31.937 15.5366 31.7551 15.2089 31.6418C15.8592 30.8484 16.3964 29.5449 16.4684 29.3668C16.5232 29.2307 16.4835 29.0761 16.369 28.9801C16.2542 28.8842 16.0896 28.8679 15.9571 28.9389C15.7166 29.0682 15.4854 29.1326 15.2896 29.1627C15.9975 28.3066 16.9344 26.9647 17.1079 26.7148C17.1353 26.684 17.1576 26.6483 17.1727 26.6085C17.4302 25.9335 17.7564 25.279 18.1417 24.6623C18.177 24.6061 18.1935 24.5431 18.1924 24.4804C18.2277 24.1775 18.1514 23.8917 18.0517 23.6637C18.3224 23.67 18.5439 23.7122 18.546 23.7129C18.653 23.7334 18.7649 23.7067 18.8492 23.6388C18.9331 23.5712 18.9806 23.4704 18.9781 23.365C18.9669 22.9146 18.5968 22.4219 18.2518 22.0585C18.3908 22.0501 18.5359 22.046 18.6868 22.046C19.4311 22.046 20.0558 22.1496 20.0619 22.1506C20.251 22.1825 20.4328 22.0664 20.4749 21.8863C20.5585 21.5339 20.4227 21.2092 20.2193 20.9483C20.373 20.9317 20.5192 20.9234 20.6582 20.9234C21.064 20.9234 21.2872 20.9958 21.3528 21.0207C21.3546 21.0218 21.3567 21.0232 21.3585 21.0242C21.4802 21.1004 21.6369 21.099 21.7571 21.02C21.8482 20.9605 21.9408 20.9064 22.0329 20.8499C22.509 22.1007 23.1524 22.5144 23.2316 22.5612C23.3533 22.6333 23.5085 22.6288 23.6259 22.5498C24.7183 21.8159 25.8274 19.8392 26.1313 19.2713C26.2497 19.2471 26.3671 19.2239 26.4841 19.2027C26.7319 20.176 27.5744 23.0359 29.2491 24.5535C29.3182 24.6162 29.4072 24.6477 29.4961 24.6477C29.5851 24.6477 29.6736 24.6162 29.7431 24.5535C31.4174 23.0359 32.2604 20.176 32.5081 19.2027C32.6251 19.2239 32.7425 19.2467 32.861 19.2713C33.1649 19.8392 34.2739 21.8159 35.3663 22.5498C35.4834 22.6291 35.6393 22.6333 35.7606 22.5612C35.8398 22.5144 36.484 22.1007 36.9596 20.8499C37.0518 20.9064 37.1447 20.9605 37.2358 21.0204C37.3543 21.0987 37.5091 21.0987 37.629 21.0256C37.6909 21.0006 37.9153 20.9234 38.3344 20.9234C38.4734 20.9234 38.6199 20.9317 38.7733 20.9483C38.5702 21.2089 38.4341 21.5335 38.5169 21.8859C38.5598 22.0661 38.7423 22.1825 38.9303 22.1506C38.9368 22.1496 39.5608 22.046 40.3058 22.046C40.4566 22.046 40.6018 22.0501 40.7411 22.0585C40.3958 22.4219 40.0264 22.9143 40.0148 23.365C40.0123 23.4704 40.0598 23.5712 40.1437 23.6388C40.2276 23.7067 40.3389 23.7334 40.4469 23.7129C40.4494 23.7126 40.6702 23.67 40.9409 23.6637C40.8416 23.8914 40.7652 24.1758 40.7994 24.4773C40.7983 24.541 40.8153 24.6051 40.8513 24.6623C41.2355 25.2769 41.5617 25.9318 41.8195 26.6085C41.8343 26.6476 41.8562 26.6826 41.8832 26.7131C42.0536 26.9584 42.993 28.3045 43.7027 29.1627C43.5064 29.1323 43.2756 29.0675 43.0351 28.9386Z" stroke="#FAC714" stroke-width="2" mask="url(#path-3-inside-1)"/>
<path d="M39.3984 32.3358C39.4524 32.3358 39.5075 32.3241 39.559 32.2995L41.3593 31.4333C41.5372 31.3477 41.6092 31.1394 41.5203 30.9683C41.4314 30.7971 41.2149 30.7278 41.0371 30.8134L39.2367 31.6796C39.0589 31.7652 38.9868 31.9734 39.0758 32.1446C39.1391 32.2658 39.2663 32.3358 39.3984 32.3358Z" stroke="#FAC714" stroke-width="2" mask="url(#path-3-inside-1)"/>
<path d="M41.1984 32.5091H39.398C39.1989 32.5091 39.038 32.6643 39.038 32.8556C39.038 33.0468 39.1989 33.202 39.398 33.202H41.1984C41.3975 33.202 41.5585 33.0468 41.5585 32.8556C41.5585 32.6643 41.3975 32.5091 41.1984 32.5091Z" stroke="#FAC714" stroke-width="2" mask="url(#path-3-inside-1)"/>
<path d="M41.3593 34.2779L39.559 33.4117C39.3811 33.3261 39.1651 33.3954 39.0758 33.5665C38.9868 33.7377 39.0589 33.9459 39.2367 34.0315L41.0371 34.8977C41.0889 34.9227 41.144 34.9345 41.198 34.9345C41.3302 34.9345 41.4573 34.8645 41.5206 34.7429C41.6096 34.5717 41.5372 34.3638 41.3593 34.2779Z" stroke="#FAC714" stroke-width="2" mask="url(#path-3-inside-1)"/>
<path d="M17.6329 31.4333L19.4332 32.2995C19.4851 32.3244 19.5398 32.3358 19.5938 32.3358C19.726 32.3358 19.8531 32.2658 19.9165 32.1442C20.0054 31.9731 19.9334 31.7648 19.7555 31.6793L17.9552 30.813C17.7773 30.7275 17.5612 30.7968 17.4719 30.9679C17.3826 31.1394 17.455 31.3473 17.6329 31.4333Z" stroke="#FAC714" stroke-width="2" mask="url(#path-3-inside-1)"/>
<path d="M19.5942 32.5091H17.7938C17.5947 32.5091 17.4338 32.6643 17.4338 32.8556C17.4338 33.0468 17.5947 33.202 17.7938 33.202H19.5942C19.7933 33.202 19.9543 33.0468 19.9543 32.8556C19.9543 32.6643 19.7933 32.5091 19.5942 32.5091Z" stroke="#FAC714" stroke-width="2" mask="url(#path-3-inside-1)"/>
<path d="M19.4332 33.4117L17.6329 34.2779C17.455 34.3635 17.383 34.5717 17.4719 34.7429C17.535 34.8645 17.6621 34.9345 17.7942 34.9345C17.8482 34.9345 17.9033 34.9227 17.9548 34.8981L19.7551 34.0319C19.933 33.9463 20.005 33.7381 19.9161 33.5669C19.8268 33.3957 19.6108 33.3261 19.4332 33.4117Z" stroke="#FAC714" stroke-width="2" mask="url(#path-3-inside-1)"/>
<path d="M34.8972 28.1389C34.06 28.1389 31.8366 28.1389 31.8366 30.2178C31.8366 31.8418 33.2095 33.1629 34.8972 33.1629C36.5848 33.1629 37.9578 31.8418 37.9578 30.2178C37.9578 28.1389 35.7343 28.1389 34.8972 28.1389ZM34.8972 32.4699C33.6067 32.4699 32.5567 31.4596 32.5567 30.2178C32.5567 30.0023 32.5844 29.8062 32.6575 29.6329C32.9856 29.9905 33.4616 30.2178 33.997 30.2178C34.85 30.2178 35.5611 29.6451 35.7466 28.8786C36.9582 29.0269 37.2376 29.5255 37.2376 30.2178C37.2376 31.4596 36.1877 32.4699 34.8972 32.4699Z" stroke="#FAC714" stroke-width="2" mask="url(#path-3-inside-1)"/>
<path d="M27.1557 30.2178C27.1557 28.1389 24.9322 28.1389 24.0951 28.1389C23.2579 28.1389 21.0345 28.1389 21.0345 30.2178C21.0345 31.8418 22.4074 33.1629 24.0951 33.1629C25.7827 33.1629 27.1557 31.8418 27.1557 30.2178ZM24.0951 32.4699C22.8046 32.4699 21.7546 31.4596 21.7546 30.2178C21.7546 30.0023 21.7823 29.8062 21.8554 29.6329C22.1835 29.9905 22.6595 30.2178 23.1949 30.2178C24.0479 30.2178 24.759 29.6451 24.9445 28.8786C26.1561 29.0269 26.4355 29.5255 26.4355 30.2178C26.4355 31.4596 25.3856 32.4699 24.0951 32.4699Z" stroke="#FAC714" stroke-width="2" mask="url(#path-3-inside-1)"/>
<path d="M33.997 36.801H24.9952C24.7961 36.801 24.6352 36.9562 24.6352 37.1475C24.6352 37.3387 24.7961 37.4939 24.9952 37.4939H33.997C34.1961 37.4939 34.3571 37.3387 34.3571 37.1475C34.3571 36.9562 34.1961 36.801 33.997 36.801Z" stroke="#FAC714" stroke-width="2" mask="url(#path-3-inside-1)"/>
<path d="M38.1641 24.979C34.3038 24.3449 31.5752 26.4671 31.461 26.5579C31.3076 26.6795 31.2864 26.8974 31.4124 27.045C31.4833 27.1282 31.5863 27.1712 31.6904 27.1712C31.771 27.1712 31.8517 27.1455 31.919 27.0925C31.9446 27.0724 34.5148 25.0829 38.0431 25.6622C38.2386 25.6955 38.4251 25.5676 38.4583 25.3788C38.4921 25.19 38.3603 25.0112 38.1641 24.979Z" stroke="#FAC714" stroke-width="2" mask="url(#path-3-inside-1)"/>
<path d="M26.9306 23.9471C27.1265 23.9794 27.3126 23.8525 27.3458 23.6637C27.3796 23.4752 27.2478 23.2961 27.0516 23.2639C23.1916 22.6308 20.4627 24.752 20.3485 24.8428C20.1951 24.9644 20.1739 25.1824 20.2999 25.33C20.3709 25.4131 20.4738 25.4561 20.5779 25.4561C20.6586 25.4561 20.7392 25.4304 20.8065 25.3774C20.8321 25.3573 23.4027 23.3678 26.9306 23.9471Z" stroke="#FAC714" stroke-width="2" mask="url(#path-3-inside-1)"/>
</g>
<defs>
<clipPath id="clip0">
<rect width="58.6046" height="56" fill="white" transform="translate(0.162842 0.436523)"/>
</clipPath>
</defs>
</svg>
