<svg width="52" height="51" viewBox="0 0 52 51" fill="none" xmlns="http://www.w3.org/2000/svg">
<path d="M25.2358 5.80202C30.6495 5.20466 35.7096 7.34972 39.5182 10.9067C43.3269 14.4637 45.8841 19.4327 46.2922 24.4831C46.7818 29.3706 44.7143 33.9051 41.0961 37.5707C37.4779 41.2091 32.2818 43.9244 26.5145 45.092C20.8559 46.1238 16.0679 44.5218 12.4769 40.5032C8.83152 36.566 6.38311 30.1851 5.97504 25.2162C5.59418 20.2201 7.47129 16.6631 11.0351 13.1061C14.6261 9.68485 19.8221 6.31792 25.2358 5.80202Z" fill="#50D1FE" stroke="#50D1FE" stroke-width="1.21259"/>
<path d="M46.7455 12.533C50.6436 17.8745 51.4364 24.4688 50.0159 30.6345C48.5954 36.8002 44.9286 42.5043 39.8743 45.9993C35.0512 49.4613 29.0389 50.0878 22.9936 48.4722C16.9813 46.8896 10.969 43.0648 6.27806 37.7234C1.75232 32.382 0.530037 26.4141 2.57818 20.1495C4.49419 13.9838 9.71366 7.52134 14.7019 4.09228C19.7232 0.630253 24.5793 0.465394 30.4925 2.04804C36.2074 3.72959 42.8804 7.15865 46.7455 12.533Z" stroke="#50D1FE" stroke-width="1.47246"/>
<mask id="path-3-inside-1" fill="white">
<path d="M38.0837 26.2927C38.1813 26.2647 38.256 26.1892 38.2796 26.094C38.3036 25.9988 38.2731 25.8989 38.1995 25.8312C37.8736 25.5321 37.2061 24.6255 36.7846 24.0364C38.5956 20.4249 37.1787 14.0756 37.1165 13.8034C37.0843 13.661 36.9406 13.5669 36.7923 13.5916C32.5085 14.2611 29.5242 16.8376 28.9106 17.4047C28.7289 17.3677 28.549 17.3342 28.3719 17.306L28.3705 17.3054H28.3685C27.5547 17.1756 26.7934 17.1323 26.1446 17.1323C25.4959 17.1323 24.7346 17.1759 23.9208 17.3054H23.9188L23.9174 17.306C23.7403 17.3342 23.5604 17.3677 23.3787 17.4047C22.7657 16.8376 19.7813 14.2611 15.4975 13.5916C15.351 13.5669 15.2058 13.6613 15.1733 13.8034C15.1112 14.0756 13.6949 20.4252 15.5052 24.0364C15.0479 24.6752 14.3977 25.5485 14.0903 25.8309C14.0168 25.8987 13.9863 25.9985 14.0102 26.0938C14.0339 26.189 14.1089 26.2647 14.2064 26.2924C14.2329 26.3001 14.5392 26.4002 15.0402 26.3097C14.7912 26.8206 14.434 27.4473 14.1251 27.6531C14.0299 27.7165 13.984 27.8292 14.0091 27.9382C14.0345 28.0471 14.1254 28.1305 14.2398 28.1492C14.2455 28.15 14.6986 28.2266 15.104 28.4697C14.9888 28.5962 14.7944 28.7545 14.5038 28.8242C14.4231 28.8437 14.3553 28.8958 14.3182 28.9671C14.2811 29.0385 14.2777 29.1222 14.3099 29.1957C14.359 29.3087 15.5198 31.9725 16.5606 33.0706C20.0847 36.7902 24.0782 37.3453 26.1449 37.3453C28.2117 37.3453 32.2052 36.7902 35.7296 33.0714C36.7709 31.9733 37.9318 29.3093 37.9805 29.1965C38.0124 29.1227 38.0096 29.0393 37.9722 28.968C37.9349 28.8966 37.8673 28.8442 37.7866 28.825C37.4941 28.7548 37.3002 28.5973 37.1858 28.471C37.5896 28.2293 38.0458 28.1506 38.0509 28.1495C38.165 28.1305 38.2562 28.0468 38.2811 27.9382C38.3059 27.8295 38.2605 27.717 38.1653 27.6534C37.857 27.4479 37.4995 26.8209 37.2503 26.31C37.7515 26.4005 38.0572 26.3004 38.0837 26.2927ZM35.9451 21.1079C35.9152 21.0187 35.8399 20.9506 35.7455 20.927C35.5839 20.8867 35.3831 20.87 35.1849 20.8744C35.3535 20.6252 35.6406 20.3393 35.857 20.1648C35.9403 20.0973 35.9768 19.99 35.9506 19.8885C35.924 19.7867 35.8399 19.7082 35.7336 19.6863C35.4333 19.6245 35.0874 19.5932 34.705 19.5932C34.4062 19.5932 34.1327 19.6122 33.924 19.6328C34.0161 19.5046 34.1624 19.3894 34.2548 19.334C34.3532 19.2761 34.4051 19.1666 34.3871 19.0568C34.3691 18.9471 34.2842 18.859 34.1718 18.8332C33.7994 18.7476 33.4535 18.7042 33.1439 18.7042C32.8253 18.7042 32.6032 18.7495 32.4643 18.7923C32.421 18.7649 32.3768 18.7407 32.3335 18.7144C32.863 18.1571 34.3098 16.7459 35.8995 16.1439C36.1154 17.0508 36.6862 19.9412 35.9668 22.5284C35.8704 22.3456 35.7703 22.1651 35.6623 21.9895L35.6614 21.9875C35.6429 21.7299 35.8205 21.455 35.8941 21.3674C35.956 21.2947 35.9754 21.197 35.9451 21.1079ZM36.6132 14.1785C36.8516 15.3696 37.7393 20.4098 36.4122 23.4961C36.384 23.4245 36.3538 23.3537 36.3238 23.2829C37.5565 19.9014 36.425 15.8805 36.376 15.7096C36.3552 15.6374 36.3047 15.5768 36.2366 15.5414C36.1681 15.506 36.0874 15.4991 36.0139 15.5219C34.0731 16.1242 32.3392 17.88 31.8313 18.4296C31.0888 18.0377 30.3266 17.7565 29.5818 17.5603C30.5154 16.7693 33.1239 14.8016 36.6132 14.1785ZM31.5556 18.9087C31.3526 19.4821 31.1013 19.8045 30.9479 19.9604C30.4213 19.5159 29.8832 18.6782 29.5596 18.125C30.2228 18.3083 30.898 18.5618 31.5556 18.9087ZM27.9642 17.8012C27.7765 18.5163 27.2 20.4252 26.1449 21.5367C25.0899 20.4249 24.5133 18.5163 24.3257 17.8012C24.9872 17.7126 25.6066 17.6808 26.1449 17.6808C26.6833 17.6808 27.3026 17.7126 27.9642 17.8012ZM15.6766 14.1785C19.166 14.8016 21.7745 16.769 22.7081 17.56C21.9638 17.7562 21.2011 18.0377 20.4585 18.4296C19.9507 17.88 18.217 16.1242 16.276 15.5216C16.2027 15.4988 16.122 15.5057 16.0533 15.5411C15.9851 15.5765 15.9347 15.6374 15.9139 15.7093C15.8645 15.8805 14.7331 19.9006 15.9663 23.2821C15.9367 23.3532 15.9059 23.4242 15.8776 23.4959C14.5523 20.4115 15.4385 15.3699 15.6766 14.1785ZM22.7303 18.125C22.4069 18.6779 21.8689 19.5153 21.3422 19.9601C21.1879 19.8037 20.9373 19.4813 20.7346 18.9089C21.3918 18.5621 22.067 18.3083 22.7303 18.125ZM18.0356 19.3337C18.095 19.3688 18.2629 19.4904 18.3661 19.6325C18.1571 19.6116 17.8839 19.5927 17.5851 19.5927C17.2024 19.5927 16.8566 19.624 16.5569 19.686C16.4505 19.7079 16.3664 19.7864 16.3399 19.8882C16.3136 19.99 16.3501 20.0973 16.4334 20.1645C16.6501 20.3393 16.9373 20.6252 17.1055 20.8741C16.909 20.8691 16.7069 20.8862 16.5449 20.9268C16.4511 20.9501 16.3764 21.0181 16.3461 21.1068C16.3159 21.1951 16.3347 21.2931 16.3955 21.3655C16.4699 21.4541 16.6484 21.7304 16.6282 21.9886C16.5201 22.1645 16.42 22.3448 16.3233 22.5273C15.6042 19.9403 16.1748 17.0502 16.3903 16.1431C17.9778 16.7446 19.426 18.1563 19.9564 18.7138C19.913 18.7402 19.8688 18.7643 19.8258 18.7915C19.6869 18.7487 19.4648 18.7034 19.1463 18.7034C18.8363 18.7034 18.4904 18.7468 18.1186 18.8324C18.0063 18.8582 17.9216 18.9465 17.9033 19.056C17.8851 19.1663 17.9373 19.2758 18.0356 19.3337ZM36.8667 25.6001C36.7621 25.5439 36.6315 25.557 36.5405 25.6328C36.4498 25.7088 36.4182 25.8314 36.4621 25.9393C36.5189 26.08 36.9449 27.1125 37.4593 27.7406C37.2004 27.8306 36.8818 27.9747 36.6104 28.1961C36.5123 28.2762 36.4824 28.4099 36.5368 28.5221C36.5479 28.5446 36.7766 29.0006 37.3349 29.2508C37.0139 29.9538 36.1005 31.8663 35.3084 32.7018C31.9314 36.2645 28.1176 36.7965 26.1449 36.7965C24.1723 36.7965 20.3584 36.2645 16.9815 32.7015C16.1905 31.8669 15.2766 29.9538 14.9549 29.2508C15.5135 29.0006 15.7425 28.5448 15.7533 28.5223C15.8084 28.4101 15.7781 28.2765 15.68 28.1964C15.4086 27.9747 15.0901 27.8306 14.8306 27.7409C15.3456 27.1125 15.771 26.0803 15.828 25.9393C15.8714 25.8314 15.84 25.7091 15.7493 25.6331C15.6584 25.557 15.5281 25.5442 15.4231 25.6004C15.2326 25.7027 15.0496 25.7538 14.8945 25.7777C15.4551 25.0996 16.197 24.0369 16.3345 23.8391C16.3561 23.8147 16.3738 23.7864 16.3858 23.7549C16.5897 23.2204 16.848 22.7021 17.1531 22.2136C17.1811 22.1692 17.1942 22.1193 17.1933 22.0696C17.2213 21.8298 17.1608 21.6034 17.0818 21.4229C17.2963 21.4278 17.4716 21.4613 17.4733 21.4618C17.558 21.478 17.6467 21.4569 17.7134 21.4031C17.7799 21.3496 17.8175 21.2698 17.8155 21.1863C17.8067 20.8296 17.5135 20.4395 17.2404 20.1516C17.3504 20.145 17.4653 20.1417 17.5848 20.1417C18.1742 20.1417 18.669 20.2238 18.6738 20.2246C18.8235 20.2499 18.9675 20.1579 19.0009 20.0153C19.067 19.7362 18.9595 19.4791 18.7984 19.2725C18.9202 19.2593 19.0359 19.2527 19.146 19.2527C19.4674 19.2527 19.6442 19.3101 19.6961 19.3298C19.6975 19.3307 19.6992 19.3318 19.7006 19.3326C19.797 19.3929 19.921 19.3918 20.0163 19.3293C20.0884 19.2821 20.1617 19.2393 20.2347 19.1946C20.6117 20.1851 21.1212 20.5127 21.1839 20.5498C21.2803 20.6068 21.4032 20.6033 21.4962 20.5407C22.3613 19.9596 23.2396 18.3942 23.4802 17.9445C23.574 17.9252 23.667 17.9069 23.7597 17.8901C23.9559 18.6609 24.6231 20.9257 25.9493 22.1275C26.0041 22.1772 26.0745 22.2021 26.1449 22.2021C26.2154 22.2021 26.2855 22.1772 26.3405 22.1275C27.6665 20.9257 28.334 18.6609 28.5302 17.8901C28.6229 17.9069 28.7158 17.925 28.8096 17.9445C29.0503 18.3942 29.9285 19.9596 30.7937 20.5407C30.8863 20.6035 31.0098 20.6068 31.1059 20.5498C31.1686 20.5127 31.6788 20.1851 32.0555 19.1946C32.1284 19.2393 32.202 19.2821 32.2742 19.3296C32.368 19.3916 32.4906 19.3916 32.5855 19.3337C32.6346 19.3139 32.8122 19.2527 33.1441 19.2527C33.2542 19.2527 33.3703 19.2593 33.4917 19.2725C33.3309 19.4788 33.2231 19.7359 33.2887 20.015C33.3226 20.1577 33.4672 20.2499 33.6161 20.2246C33.6212 20.2238 34.1153 20.1417 34.7053 20.1417C34.8248 20.1417 34.9397 20.145 35.0501 20.1516C34.7766 20.4395 34.484 20.8294 34.4749 21.1863C34.4729 21.2698 34.5106 21.3496 34.577 21.4031C34.6434 21.4569 34.7316 21.478 34.8171 21.4618C34.8191 21.4615 34.9939 21.4278 35.2083 21.4229C35.1296 21.6031 35.0692 21.8284 35.0963 22.0671C35.0954 22.1176 35.1088 22.1684 35.1373 22.2136C35.4416 22.7004 35.6999 23.219 35.9041 23.7549C35.9158 23.7859 35.9332 23.8136 35.9545 23.8377C36.0894 24.032 36.8334 25.098 37.3954 25.7777C37.24 25.7535 37.0572 25.7022 36.8667 25.6001Z"/>
<path d="M33.9867 28.2905C34.0295 28.2905 34.0731 28.2812 34.1139 28.2617L35.5397 27.5757C35.6805 27.5079 35.7375 27.343 35.6671 27.2075C35.5967 27.0719 35.4253 27.0171 35.2845 27.0848L33.8587 27.7708C33.7179 27.8386 33.6608 28.0035 33.7313 28.139C33.7814 28.2351 33.8821 28.2905 33.9867 28.2905Z"/>
<path d="M35.4122 28.4277H33.9865C33.8288 28.4277 33.7013 28.5506 33.7013 28.7021C33.7013 28.8535 33.8288 28.9765 33.9865 28.9765H35.4122C35.5699 28.9765 35.6973 28.8535 35.6973 28.7021C35.6973 28.5506 35.5699 28.4277 35.4122 28.4277Z"/>
<path d="M35.5397 29.8284L34.1139 29.1425C33.9731 29.0747 33.802 29.1296 33.7313 29.2651C33.6608 29.4007 33.7179 29.5656 33.8587 29.6333L35.2845 30.3193C35.3255 30.3391 35.3691 30.3484 35.4119 30.3484C35.5166 30.3484 35.6172 30.293 35.6674 30.1967C35.7378 30.0611 35.6805 29.8965 35.5397 29.8284Z"/>
<path d="M16.7502 27.5757L18.1759 28.2617C18.217 28.2814 18.2603 28.2905 18.3031 28.2905C18.4078 28.2905 18.5084 28.2351 18.5586 28.1388C18.629 28.0032 18.572 27.8383 18.4311 27.7705L17.0054 27.0846C16.8645 27.0168 16.6935 27.0717 16.6227 27.2072C16.552 27.343 16.6093 27.5077 16.7502 27.5757Z"/>
<path d="M18.3034 28.4277H16.8777C16.72 28.4277 16.5925 28.5506 16.5925 28.7021C16.5925 28.8535 16.72 28.9765 16.8777 28.9765H18.3034C18.4611 28.9765 18.5885 28.8535 18.5885 28.7021C18.5885 28.5506 18.4611 28.4277 18.3034 28.4277Z"/>
<path d="M18.1759 29.1425L16.7502 29.8284C16.6093 29.8962 16.5523 30.0611 16.6227 30.1967C16.6726 30.293 16.7733 30.3484 16.8779 30.3484C16.9207 30.3484 16.9643 30.3391 17.0051 30.3196L18.4309 29.6336C18.5717 29.5658 18.6287 29.4009 18.5583 29.2654C18.4876 29.1298 18.3165 29.0747 18.1759 29.1425Z"/>
<path d="M30.4221 24.9668C29.7592 24.9668 27.9984 24.9668 27.9984 26.6132C27.9984 27.8992 29.0856 28.9455 30.4221 28.9455C31.7586 28.9455 32.8459 27.8992 32.8459 26.6132C32.8459 24.9668 31.0851 24.9668 30.4221 24.9668ZM30.4221 28.3967C29.4002 28.3967 28.5687 27.5966 28.5687 26.6132C28.5687 26.4425 28.5906 26.2872 28.6485 26.15C28.9083 26.4332 29.2852 26.6132 29.7093 26.6132C30.3848 26.6132 30.9479 26.1596 31.0948 25.5527C32.0543 25.6701 32.2756 26.0649 32.2756 26.6132C32.2756 27.5966 31.4441 28.3967 30.4221 28.3967Z"/>
<path d="M24.2915 26.6132C24.2915 24.9668 22.5307 24.9668 21.8677 24.9668C21.2048 24.9668 19.444 24.9668 19.444 26.6132C19.444 27.8992 20.5312 28.9455 21.8677 28.9455C23.2042 28.9455 24.2915 27.8992 24.2915 26.6132ZM21.8677 28.3967C20.8458 28.3967 20.0143 27.5966 20.0143 26.6132C20.0143 26.4425 20.0362 26.2872 20.0941 26.15C20.3539 26.4332 20.7308 26.6132 21.1549 26.6132C21.8304 26.6132 22.3935 26.1596 22.5404 25.5527C23.4999 25.6701 23.7212 26.0649 23.7212 26.6132C23.7212 27.5966 22.8897 28.3967 21.8677 28.3967Z"/>
<path d="M29.7093 31.8265H22.5806C22.4229 31.8265 22.2954 31.9494 22.2954 32.1009C22.2954 32.2524 22.4229 32.3753 22.5806 32.3753H29.7093C29.8669 32.3753 29.9944 32.2524 29.9944 32.1009C29.9944 31.9494 29.8669 31.8265 29.7093 31.8265Z"/>
<path d="M33.0093 22.4644C29.9522 21.9623 27.7914 23.6429 27.701 23.7148C27.5795 23.8111 27.5627 23.9837 27.6625 24.1006C27.7187 24.1665 27.8002 24.2005 27.8826 24.2005C27.9465 24.2005 28.0104 24.1802 28.0637 24.1382C28.0839 24.1223 30.1193 22.5467 32.9135 23.0055C33.0683 23.0319 33.216 22.9306 33.2422 22.7811C33.269 22.6315 33.1647 22.49 33.0093 22.4644Z"/>
<path d="M24.1133 21.6473C24.2684 21.6728 24.4158 21.5724 24.442 21.4229C24.4688 21.2736 24.3645 21.1317 24.2091 21.1062C21.1523 20.6049 18.9912 22.2847 18.9008 22.3566C18.7793 22.4529 18.7625 22.6255 18.8623 22.7424C18.9185 22.8082 19 22.8423 19.0824 22.8423C19.1463 22.8423 19.2102 22.822 19.2635 22.78C19.2837 22.7641 21.3194 21.1885 24.1133 21.6473Z"/>
</mask>
<path d="M38.0837 26.2927C38.1813 26.2647 38.256 26.1892 38.2796 26.094C38.3036 25.9988 38.2731 25.8989 38.1995 25.8312C37.8736 25.5321 37.2061 24.6255 36.7846 24.0364C38.5956 20.4249 37.1787 14.0756 37.1165 13.8034C37.0843 13.661 36.9406 13.5669 36.7923 13.5916C32.5085 14.2611 29.5242 16.8376 28.9106 17.4047C28.7289 17.3677 28.549 17.3342 28.3719 17.306L28.3705 17.3054H28.3685C27.5547 17.1756 26.7934 17.1323 26.1446 17.1323C25.4959 17.1323 24.7346 17.1759 23.9208 17.3054H23.9188L23.9174 17.306C23.7403 17.3342 23.5604 17.3677 23.3787 17.4047C22.7657 16.8376 19.7813 14.2611 15.4975 13.5916C15.351 13.5669 15.2058 13.6613 15.1733 13.8034C15.1112 14.0756 13.6949 20.4252 15.5052 24.0364C15.0479 24.6752 14.3977 25.5485 14.0903 25.8309C14.0168 25.8987 13.9863 25.9985 14.0102 26.0938C14.0339 26.189 14.1089 26.2647 14.2064 26.2924C14.2329 26.3001 14.5392 26.4002 15.0402 26.3097C14.7912 26.8206 14.434 27.4473 14.1251 27.6531C14.0299 27.7165 13.984 27.8292 14.0091 27.9382C14.0345 28.0471 14.1254 28.1305 14.2398 28.1492C14.2455 28.15 14.6986 28.2266 15.104 28.4697C14.9888 28.5962 14.7944 28.7545 14.5038 28.8242C14.4231 28.8437 14.3553 28.8958 14.3182 28.9671C14.2811 29.0385 14.2777 29.1222 14.3099 29.1957C14.359 29.3087 15.5198 31.9725 16.5606 33.0706C20.0847 36.7902 24.0782 37.3453 26.1449 37.3453C28.2117 37.3453 32.2052 36.7902 35.7296 33.0714C36.7709 31.9733 37.9318 29.3093 37.9805 29.1965C38.0124 29.1227 38.0096 29.0393 37.9722 28.968C37.9349 28.8966 37.8673 28.8442 37.7866 28.825C37.4941 28.7548 37.3002 28.5973 37.1858 28.471C37.5896 28.2293 38.0458 28.1506 38.0509 28.1495C38.165 28.1305 38.2562 28.0468 38.2811 27.9382C38.3059 27.8295 38.2605 27.717 38.1653 27.6534C37.857 27.4479 37.4995 26.8209 37.2503 26.31C37.7515 26.4005 38.0572 26.3004 38.0837 26.2927ZM35.9451 21.1079C35.9152 21.0187 35.8399 20.9506 35.7455 20.927C35.5839 20.8867 35.3831 20.87 35.1849 20.8744C35.3535 20.6252 35.6406 20.3393 35.857 20.1648C35.9403 20.0973 35.9768 19.99 35.9506 19.8885C35.924 19.7867 35.8399 19.7082 35.7336 19.6863C35.4333 19.6245 35.0874 19.5932 34.705 19.5932C34.4062 19.5932 34.1327 19.6122 33.924 19.6328C34.0161 19.5046 34.1624 19.3894 34.2548 19.334C34.3532 19.2761 34.4051 19.1666 34.3871 19.0568C34.3691 18.9471 34.2842 18.859 34.1718 18.8332C33.7994 18.7476 33.4535 18.7042 33.1439 18.7042C32.8253 18.7042 32.6032 18.7495 32.4643 18.7923C32.421 18.7649 32.3768 18.7407 32.3335 18.7144C32.863 18.1571 34.3098 16.7459 35.8995 16.1439C36.1154 17.0508 36.6862 19.9412 35.9668 22.5284C35.8704 22.3456 35.7703 22.1651 35.6623 21.9895L35.6614 21.9875C35.6429 21.7299 35.8205 21.455 35.8941 21.3674C35.956 21.2947 35.9754 21.197 35.9451 21.1079ZM36.6132 14.1785C36.8516 15.3696 37.7393 20.4098 36.4122 23.4961C36.384 23.4245 36.3538 23.3537 36.3238 23.2829C37.5565 19.9014 36.425 15.8805 36.376 15.7096C36.3552 15.6374 36.3047 15.5768 36.2366 15.5414C36.1681 15.506 36.0874 15.4991 36.0139 15.5219C34.0731 16.1242 32.3392 17.88 31.8313 18.4296C31.0888 18.0377 30.3266 17.7565 29.5818 17.5603C30.5154 16.7693 33.1239 14.8016 36.6132 14.1785ZM31.5556 18.9087C31.3526 19.4821 31.1013 19.8045 30.9479 19.9604C30.4213 19.5159 29.8832 18.6782 29.5596 18.125C30.2228 18.3083 30.898 18.5618 31.5556 18.9087ZM27.9642 17.8012C27.7765 18.5163 27.2 20.4252 26.1449 21.5367C25.0899 20.4249 24.5133 18.5163 24.3257 17.8012C24.9872 17.7126 25.6066 17.6808 26.1449 17.6808C26.6833 17.6808 27.3026 17.7126 27.9642 17.8012ZM15.6766 14.1785C19.166 14.8016 21.7745 16.769 22.7081 17.56C21.9638 17.7562 21.2011 18.0377 20.4585 18.4296C19.9507 17.88 18.217 16.1242 16.276 15.5216C16.2027 15.4988 16.122 15.5057 16.0533 15.5411C15.9851 15.5765 15.9347 15.6374 15.9139 15.7093C15.8645 15.8805 14.7331 19.9006 15.9663 23.2821C15.9367 23.3532 15.9059 23.4242 15.8776 23.4959C14.5523 20.4115 15.4385 15.3699 15.6766 14.1785ZM22.7303 18.125C22.4069 18.6779 21.8689 19.5153 21.3422 19.9601C21.1879 19.8037 20.9373 19.4813 20.7346 18.9089C21.3918 18.5621 22.067 18.3083 22.7303 18.125ZM18.0356 19.3337C18.095 19.3688 18.2629 19.4904 18.3661 19.6325C18.1571 19.6116 17.8839 19.5927 17.5851 19.5927C17.2024 19.5927 16.8566 19.624 16.5569 19.686C16.4505 19.7079 16.3664 19.7864 16.3399 19.8882C16.3136 19.99 16.3501 20.0973 16.4334 20.1645C16.6501 20.3393 16.9373 20.6252 17.1055 20.8741C16.909 20.8691 16.7069 20.8862 16.5449 20.9268C16.4511 20.9501 16.3764 21.0181 16.3461 21.1068C16.3159 21.1951 16.3347 21.2931 16.3955 21.3655C16.4699 21.4541 16.6484 21.7304 16.6282 21.9886C16.5201 22.1645 16.42 22.3448 16.3233 22.5273C15.6042 19.9403 16.1748 17.0502 16.3903 16.1431C17.9778 16.7446 19.426 18.1563 19.9564 18.7138C19.913 18.7402 19.8688 18.7643 19.8258 18.7915C19.6869 18.7487 19.4648 18.7034 19.1463 18.7034C18.8363 18.7034 18.4904 18.7468 18.1186 18.8324C18.0063 18.8582 17.9216 18.9465 17.9033 19.056C17.8851 19.1663 17.9373 19.2758 18.0356 19.3337ZM36.8667 25.6001C36.7621 25.5439 36.6315 25.557 36.5405 25.6328C36.4498 25.7088 36.4182 25.8314 36.4621 25.9393C36.5189 26.08 36.9449 27.1125 37.4593 27.7406C37.2004 27.8306 36.8818 27.9747 36.6104 28.1961C36.5123 28.2762 36.4824 28.4099 36.5368 28.5221C36.5479 28.5446 36.7766 29.0006 37.3349 29.2508C37.0139 29.9538 36.1005 31.8663 35.3084 32.7018C31.9314 36.2645 28.1176 36.7965 26.1449 36.7965C24.1723 36.7965 20.3584 36.2645 16.9815 32.7015C16.1905 31.8669 15.2766 29.9538 14.9549 29.2508C15.5135 29.0006 15.7425 28.5448 15.7533 28.5223C15.8084 28.4101 15.7781 28.2765 15.68 28.1964C15.4086 27.9747 15.0901 27.8306 14.8306 27.7409C15.3456 27.1125 15.771 26.0803 15.828 25.9393C15.8714 25.8314 15.84 25.7091 15.7493 25.6331C15.6584 25.557 15.5281 25.5442 15.4231 25.6004C15.2326 25.7027 15.0496 25.7538 14.8945 25.7777C15.4551 25.0996 16.197 24.0369 16.3345 23.8391C16.3561 23.8147 16.3738 23.7864 16.3858 23.7549C16.5897 23.2204 16.848 22.7021 17.1531 22.2136C17.1811 22.1692 17.1942 22.1193 17.1933 22.0696C17.2213 21.8298 17.1608 21.6034 17.0818 21.4229C17.2963 21.4278 17.4716 21.4613 17.4733 21.4618C17.558 21.478 17.6467 21.4569 17.7134 21.4031C17.7799 21.3496 17.8175 21.2698 17.8155 21.1863C17.8067 20.8296 17.5135 20.4395 17.2404 20.1516C17.3504 20.145 17.4653 20.1417 17.5848 20.1417C18.1742 20.1417 18.669 20.2238 18.6738 20.2246C18.8235 20.2499 18.9675 20.1579 19.0009 20.0153C19.067 19.7362 18.9595 19.4791 18.7984 19.2725C18.9202 19.2593 19.0359 19.2527 19.146 19.2527C19.4674 19.2527 19.6442 19.3101 19.6961 19.3298C19.6975 19.3307 19.6992 19.3318 19.7006 19.3326C19.797 19.3929 19.921 19.3918 20.0163 19.3293C20.0884 19.2821 20.1617 19.2393 20.2347 19.1946C20.6117 20.1851 21.1212 20.5127 21.1839 20.5498C21.2803 20.6068 21.4032 20.6033 21.4962 20.5407C22.3613 19.9596 23.2396 18.3942 23.4802 17.9445C23.574 17.9252 23.667 17.9069 23.7597 17.8901C23.9559 18.6609 24.6231 20.9257 25.9493 22.1275C26.0041 22.1772 26.0745 22.2021 26.1449 22.2021C26.2154 22.2021 26.2855 22.1772 26.3405 22.1275C27.6665 20.9257 28.334 18.6609 28.5302 17.8901C28.6229 17.9069 28.7158 17.925 28.8096 17.9445C29.0503 18.3942 29.9285 19.9596 30.7937 20.5407C30.8863 20.6035 31.0098 20.6068 31.1059 20.5498C31.1686 20.5127 31.6788 20.1851 32.0555 19.1946C32.1284 19.2393 32.202 19.2821 32.2742 19.3296C32.368 19.3916 32.4906 19.3916 32.5855 19.3337C32.6346 19.3139 32.8122 19.2527 33.1441 19.2527C33.2542 19.2527 33.3703 19.2593 33.4917 19.2725C33.3309 19.4788 33.2231 19.7359 33.2887 20.015C33.3226 20.1577 33.4672 20.2499 33.6161 20.2246C33.6212 20.2238 34.1153 20.1417 34.7053 20.1417C34.8248 20.1417 34.9397 20.145 35.0501 20.1516C34.7766 20.4395 34.484 20.8294 34.4749 21.1863C34.4729 21.2698 34.5106 21.3496 34.577 21.4031C34.6434 21.4569 34.7316 21.478 34.8171 21.4618C34.8191 21.4615 34.9939 21.4278 35.2083 21.4229C35.1296 21.6031 35.0692 21.8284 35.0963 22.0671C35.0954 22.1176 35.1088 22.1684 35.1373 22.2136C35.4416 22.7004 35.6999 23.219 35.9041 23.7549C35.9158 23.7859 35.9332 23.8136 35.9545 23.8377C36.0894 24.032 36.8334 25.098 37.3954 25.7777C37.24 25.7535 37.0572 25.7022 36.8667 25.6001Z" fill="#50D1FE"/>
<path d="M33.9867 28.2905C34.0295 28.2905 34.0731 28.2812 34.1139 28.2617L35.5397 27.5757C35.6805 27.5079 35.7375 27.343 35.6671 27.2075C35.5967 27.0719 35.4253 27.0171 35.2845 27.0848L33.8587 27.7708C33.7179 27.8386 33.6608 28.0035 33.7313 28.139C33.7814 28.2351 33.8821 28.2905 33.9867 28.2905Z" fill="#50D1FE"/>
<path d="M35.4122 28.4277H33.9865C33.8288 28.4277 33.7013 28.5506 33.7013 28.7021C33.7013 28.8535 33.8288 28.9765 33.9865 28.9765H35.4122C35.5699 28.9765 35.6973 28.8535 35.6973 28.7021C35.6973 28.5506 35.5699 28.4277 35.4122 28.4277Z" fill="#50D1FE"/>
<path d="M35.5397 29.8284L34.1139 29.1425C33.9731 29.0747 33.802 29.1296 33.7313 29.2651C33.6608 29.4007 33.7179 29.5656 33.8587 29.6333L35.2845 30.3193C35.3255 30.3391 35.3691 30.3484 35.4119 30.3484C35.5166 30.3484 35.6172 30.293 35.6674 30.1967C35.7378 30.0611 35.6805 29.8965 35.5397 29.8284Z" fill="#50D1FE"/>
<path d="M16.7502 27.5757L18.1759 28.2617C18.217 28.2814 18.2603 28.2905 18.3031 28.2905C18.4078 28.2905 18.5084 28.2351 18.5586 28.1388C18.629 28.0032 18.572 27.8383 18.4311 27.7705L17.0054 27.0846C16.8645 27.0168 16.6935 27.0717 16.6227 27.2072C16.552 27.343 16.6093 27.5077 16.7502 27.5757Z" fill="#50D1FE"/>
<path d="M18.3034 28.4277H16.8777C16.72 28.4277 16.5925 28.5506 16.5925 28.7021C16.5925 28.8535 16.72 28.9765 16.8777 28.9765H18.3034C18.4611 28.9765 18.5885 28.8535 18.5885 28.7021C18.5885 28.5506 18.4611 28.4277 18.3034 28.4277Z" fill="#50D1FE"/>
<path d="M18.1759 29.1425L16.7502 29.8284C16.6093 29.8962 16.5523 30.0611 16.6227 30.1967C16.6726 30.293 16.7733 30.3484 16.8779 30.3484C16.9207 30.3484 16.9643 30.3391 17.0051 30.3196L18.4309 29.6336C18.5717 29.5658 18.6287 29.4009 18.5583 29.2654C18.4876 29.1298 18.3165 29.0747 18.1759 29.1425Z" fill="#50D1FE"/>
<path d="M30.4221 24.9668C29.7592 24.9668 27.9984 24.9668 27.9984 26.6132C27.9984 27.8992 29.0856 28.9455 30.4221 28.9455C31.7586 28.9455 32.8459 27.8992 32.8459 26.6132C32.8459 24.9668 31.0851 24.9668 30.4221 24.9668ZM30.4221 28.3967C29.4002 28.3967 28.5687 27.5966 28.5687 26.6132C28.5687 26.4425 28.5906 26.2872 28.6485 26.15C28.9083 26.4332 29.2852 26.6132 29.7093 26.6132C30.3848 26.6132 30.9479 26.1596 31.0948 25.5527C32.0543 25.6701 32.2756 26.0649 32.2756 26.6132C32.2756 27.5966 31.4441 28.3967 30.4221 28.3967Z" fill="#50D1FE"/>
<path d="M24.2915 26.6132C24.2915 24.9668 22.5307 24.9668 21.8677 24.9668C21.2048 24.9668 19.444 24.9668 19.444 26.6132C19.444 27.8992 20.5312 28.9455 21.8677 28.9455C23.2042 28.9455 24.2915 27.8992 24.2915 26.6132ZM21.8677 28.3967C20.8458 28.3967 20.0143 27.5966 20.0143 26.6132C20.0143 26.4425 20.0362 26.2872 20.0941 26.15C20.3539 26.4332 20.7308 26.6132 21.1549 26.6132C21.8304 26.6132 22.3935 26.1596 22.5404 25.5527C23.4999 25.6701 23.7212 26.0649 23.7212 26.6132C23.7212 27.5966 22.8897 28.3967 21.8677 28.3967Z" fill="#50D1FE"/>
<path d="M29.7093 31.8265H22.5806C22.4229 31.8265 22.2954 31.9494 22.2954 32.1009C22.2954 32.2524 22.4229 32.3753 22.5806 32.3753H29.7093C29.8669 32.3753 29.9944 32.2524 29.9944 32.1009C29.9944 31.9494 29.8669 31.8265 29.7093 31.8265Z" fill="#50D1FE"/>
<path d="M33.0093 22.4644C29.9522 21.9623 27.7914 23.6429 27.701 23.7148C27.5795 23.8111 27.5627 23.9837 27.6625 24.1006C27.7187 24.1665 27.8002 24.2005 27.8826 24.2005C27.9465 24.2005 28.0104 24.1802 28.0637 24.1382C28.0839 24.1223 30.1193 22.5467 32.9135 23.0055C33.0683 23.0319 33.216 22.9306 33.2422 22.7811C33.269 22.6315 33.1647 22.49 33.0093 22.4644Z" fill="#50D1FE"/>
<path d="M24.1133 21.6473C24.2684 21.6728 24.4158 21.5724 24.442 21.4229C24.4688 21.2736 24.3645 21.1317 24.2091 21.1062C21.1523 20.6049 18.9912 22.2847 18.9008 22.3566C18.7793 22.4529 18.7625 22.6255 18.8623 22.7424C18.9185 22.8082 19 22.8423 19.0824 22.8423C19.1463 22.8423 19.2102 22.822 19.2635 22.78C19.2837 22.7641 21.3194 21.1885 24.1133 21.6473Z" fill="#50D1FE"/>
<path d="M38.0837 26.2927C38.1813 26.2647 38.256 26.1892 38.2796 26.094C38.3036 25.9988 38.2731 25.8989 38.1995 25.8312C37.8736 25.5321 37.2061 24.6255 36.7846 24.0364C38.5956 20.4249 37.1787 14.0756 37.1165 13.8034C37.0843 13.661 36.9406 13.5669 36.7923 13.5916C32.5085 14.2611 29.5242 16.8376 28.9106 17.4047C28.7289 17.3677 28.549 17.3342 28.3719 17.306L28.3705 17.3054H28.3685C27.5547 17.1756 26.7934 17.1323 26.1446 17.1323C25.4959 17.1323 24.7346 17.1759 23.9208 17.3054H23.9188L23.9174 17.306C23.7403 17.3342 23.5604 17.3677 23.3787 17.4047C22.7657 16.8376 19.7813 14.2611 15.4975 13.5916C15.351 13.5669 15.2058 13.6613 15.1733 13.8034C15.1112 14.0756 13.6949 20.4252 15.5052 24.0364C15.0479 24.6752 14.3977 25.5485 14.0903 25.8309C14.0168 25.8987 13.9863 25.9985 14.0102 26.0938C14.0339 26.189 14.1089 26.2647 14.2064 26.2924C14.2329 26.3001 14.5392 26.4002 15.0402 26.3097C14.7912 26.8206 14.434 27.4473 14.1251 27.6531C14.0299 27.7165 13.984 27.8292 14.0091 27.9382C14.0345 28.0471 14.1254 28.1305 14.2398 28.1492C14.2455 28.15 14.6986 28.2266 15.104 28.4697C14.9888 28.5962 14.7944 28.7545 14.5038 28.8242C14.4231 28.8437 14.3553 28.8958 14.3182 28.9671C14.2811 29.0385 14.2777 29.1222 14.3099 29.1957C14.359 29.3087 15.5198 31.9725 16.5606 33.0706C20.0847 36.7902 24.0782 37.3453 26.1449 37.3453C28.2117 37.3453 32.2052 36.7902 35.7296 33.0714C36.7709 31.9733 37.9318 29.3093 37.9805 29.1965C38.0124 29.1227 38.0096 29.0393 37.9722 28.968C37.9349 28.8966 37.8673 28.8442 37.7866 28.825C37.4941 28.7548 37.3002 28.5973 37.1858 28.471C37.5896 28.2293 38.0458 28.1506 38.0509 28.1495C38.165 28.1305 38.2562 28.0468 38.2811 27.9382C38.3059 27.8295 38.2605 27.717 38.1653 27.6534C37.857 27.4479 37.4995 26.8209 37.2503 26.31C37.7515 26.4005 38.0572 26.3004 38.0837 26.2927ZM35.9451 21.1079C35.9152 21.0187 35.8399 20.9506 35.7455 20.927C35.5839 20.8867 35.3831 20.87 35.1849 20.8744C35.3535 20.6252 35.6406 20.3393 35.857 20.1648C35.9403 20.0973 35.9768 19.99 35.9506 19.8885C35.924 19.7867 35.8399 19.7082 35.7336 19.6863C35.4333 19.6245 35.0874 19.5932 34.705 19.5932C34.4062 19.5932 34.1327 19.6122 33.924 19.6328C34.0161 19.5046 34.1624 19.3894 34.2548 19.334C34.3532 19.2761 34.4051 19.1666 34.3871 19.0568C34.3691 18.9471 34.2842 18.859 34.1718 18.8332C33.7994 18.7476 33.4535 18.7042 33.1439 18.7042C32.8253 18.7042 32.6032 18.7495 32.4643 18.7923C32.421 18.7649 32.3768 18.7407 32.3335 18.7144C32.863 18.1571 34.3098 16.7459 35.8995 16.1439C36.1154 17.0508 36.6862 19.9412 35.9668 22.5284C35.8704 22.3456 35.7703 22.1651 35.6623 21.9895L35.6614 21.9875C35.6429 21.7299 35.8205 21.455 35.8941 21.3674C35.956 21.2947 35.9754 21.197 35.9451 21.1079ZM36.6132 14.1785C36.8516 15.3696 37.7393 20.4098 36.4122 23.4961C36.384 23.4245 36.3538 23.3537 36.3238 23.2829C37.5565 19.9014 36.425 15.8805 36.376 15.7096C36.3552 15.6374 36.3047 15.5768 36.2366 15.5414C36.1681 15.506 36.0874 15.4991 36.0139 15.5219C34.0731 16.1242 32.3392 17.88 31.8313 18.4296C31.0888 18.0377 30.3266 17.7565 29.5818 17.5603C30.5154 16.7693 33.1239 14.8016 36.6132 14.1785ZM31.5556 18.9087C31.3526 19.4821 31.1013 19.8045 30.9479 19.9604C30.4213 19.5159 29.8832 18.6782 29.5596 18.125C30.2228 18.3083 30.898 18.5618 31.5556 18.9087ZM27.9642 17.8012C27.7765 18.5163 27.2 20.4252 26.1449 21.5367C25.0899 20.4249 24.5133 18.5163 24.3257 17.8012C24.9872 17.7126 25.6066 17.6808 26.1449 17.6808C26.6833 17.6808 27.3026 17.7126 27.9642 17.8012ZM15.6766 14.1785C19.166 14.8016 21.7745 16.769 22.7081 17.56C21.9638 17.7562 21.2011 18.0377 20.4585 18.4296C19.9507 17.88 18.217 16.1242 16.276 15.5216C16.2027 15.4988 16.122 15.5057 16.0533 15.5411C15.9851 15.5765 15.9347 15.6374 15.9139 15.7093C15.8645 15.8805 14.7331 19.9006 15.9663 23.2821C15.9367 23.3532 15.9059 23.4242 15.8776 23.4959C14.5523 20.4115 15.4385 15.3699 15.6766 14.1785ZM22.7303 18.125C22.4069 18.6779 21.8689 19.5153 21.3422 19.9601C21.1879 19.8037 20.9373 19.4813 20.7346 18.9089C21.3918 18.5621 22.067 18.3083 22.7303 18.125ZM18.0356 19.3337C18.095 19.3688 18.2629 19.4904 18.3661 19.6325C18.1571 19.6116 17.8839 19.5927 17.5851 19.5927C17.2024 19.5927 16.8566 19.624 16.5569 19.686C16.4505 19.7079 16.3664 19.7864 16.3399 19.8882C16.3136 19.99 16.3501 20.0973 16.4334 20.1645C16.6501 20.3393 16.9373 20.6252 17.1055 20.8741C16.909 20.8691 16.7069 20.8862 16.5449 20.9268C16.4511 20.9501 16.3764 21.0181 16.3461 21.1068C16.3159 21.1951 16.3347 21.2931 16.3955 21.3655C16.4699 21.4541 16.6484 21.7304 16.6282 21.9886C16.5201 22.1645 16.42 22.3448 16.3233 22.5273C15.6042 19.9403 16.1748 17.0502 16.3903 16.1431C17.9778 16.7446 19.426 18.1563 19.9564 18.7138C19.913 18.7402 19.8688 18.7643 19.8258 18.7915C19.6869 18.7487 19.4648 18.7034 19.1463 18.7034C18.8363 18.7034 18.4904 18.7468 18.1186 18.8324C18.0063 18.8582 17.9216 18.9465 17.9033 19.056C17.8851 19.1663 17.9373 19.2758 18.0356 19.3337ZM36.8667 25.6001C36.7621 25.5439 36.6315 25.557 36.5405 25.6328C36.4498 25.7088 36.4182 25.8314 36.4621 25.9393C36.5189 26.08 36.9449 27.1125 37.4593 27.7406C37.2004 27.8306 36.8818 27.9747 36.6104 28.1961C36.5123 28.2762 36.4824 28.4099 36.5368 28.5221C36.5479 28.5446 36.7766 29.0006 37.3349 29.2508C37.0139 29.9538 36.1005 31.8663 35.3084 32.7018C31.9314 36.2645 28.1176 36.7965 26.1449 36.7965C24.1723 36.7965 20.3584 36.2645 16.9815 32.7015C16.1905 31.8669 15.2766 29.9538 14.9549 29.2508C15.5135 29.0006 15.7425 28.5448 15.7533 28.5223C15.8084 28.4101 15.7781 28.2765 15.68 28.1964C15.4086 27.9747 15.0901 27.8306 14.8306 27.7409C15.3456 27.1125 15.771 26.0803 15.828 25.9393C15.8714 25.8314 15.84 25.7091 15.7493 25.6331C15.6584 25.557 15.5281 25.5442 15.4231 25.6004C15.2326 25.7027 15.0496 25.7538 14.8945 25.7777C15.4551 25.0996 16.197 24.0369 16.3345 23.8391C16.3561 23.8147 16.3738 23.7864 16.3858 23.7549C16.5897 23.2204 16.848 22.7021 17.1531 22.2136C17.1811 22.1692 17.1942 22.1193 17.1933 22.0696C17.2213 21.8298 17.1608 21.6034 17.0818 21.4229C17.2963 21.4278 17.4716 21.4613 17.4733 21.4618C17.558 21.478 17.6467 21.4569 17.7134 21.4031C17.7799 21.3496 17.8175 21.2698 17.8155 21.1863C17.8067 20.8296 17.5135 20.4395 17.2404 20.1516C17.3504 20.145 17.4653 20.1417 17.5848 20.1417C18.1742 20.1417 18.669 20.2238 18.6738 20.2246C18.8235 20.2499 18.9675 20.1579 19.0009 20.0153C19.067 19.7362 18.9595 19.4791 18.7984 19.2725C18.9202 19.2593 19.0359 19.2527 19.146 19.2527C19.4674 19.2527 19.6442 19.3101 19.6961 19.3298C19.6975 19.3307 19.6992 19.3318 19.7006 19.3326C19.797 19.3929 19.921 19.3918 20.0163 19.3293C20.0884 19.2821 20.1617 19.2393 20.2347 19.1946C20.6117 20.1851 21.1212 20.5127 21.1839 20.5498C21.2803 20.6068 21.4032 20.6033 21.4962 20.5407C22.3613 19.9596 23.2396 18.3942 23.4802 17.9445C23.574 17.9252 23.667 17.9069 23.7597 17.8901C23.9559 18.6609 24.6231 20.9257 25.9493 22.1275C26.0041 22.1772 26.0745 22.2021 26.1449 22.2021C26.2154 22.2021 26.2855 22.1772 26.3405 22.1275C27.6665 20.9257 28.334 18.6609 28.5302 17.8901C28.6229 17.9069 28.7158 17.925 28.8096 17.9445C29.0503 18.3942 29.9285 19.9596 30.7937 20.5407C30.8863 20.6035 31.0098 20.6068 31.1059 20.5498C31.1686 20.5127 31.6788 20.1851 32.0555 19.1946C32.1284 19.2393 32.202 19.2821 32.2742 19.3296C32.368 19.3916 32.4906 19.3916 32.5855 19.3337C32.6346 19.3139 32.8122 19.2527 33.1441 19.2527C33.2542 19.2527 33.3703 19.2593 33.4917 19.2725C33.3309 19.4788 33.2231 19.7359 33.2887 20.015C33.3226 20.1577 33.4672 20.2499 33.6161 20.2246C33.6212 20.2238 34.1153 20.1417 34.7053 20.1417C34.8248 20.1417 34.9397 20.145 35.0501 20.1516C34.7766 20.4395 34.484 20.8294 34.4749 21.1863C34.4729 21.2698 34.5106 21.3496 34.577 21.4031C34.6434 21.4569 34.7316 21.478 34.8171 21.4618C34.8191 21.4615 34.9939 21.4278 35.2083 21.4229C35.1296 21.6031 35.0692 21.8284 35.0963 22.0671C35.0954 22.1176 35.1088 22.1684 35.1373 22.2136C35.4416 22.7004 35.6999 23.219 35.9041 23.7549C35.9158 23.7859 35.9332 23.8136 35.9545 23.8377C36.0894 24.032 36.8334 25.098 37.3954 25.7777C37.24 25.7535 37.0572 25.7022 36.8667 25.6001Z" stroke="white" stroke-width="2.63188" mask="url(#path-3-inside-1)"/>
<path d="M33.9867 28.2905C34.0295 28.2905 34.0731 28.2812 34.1139 28.2617L35.5397 27.5757C35.6805 27.5079 35.7375 27.343 35.6671 27.2075C35.5967 27.0719 35.4253 27.0171 35.2845 27.0848L33.8587 27.7708C33.7179 27.8386 33.6608 28.0035 33.7313 28.139C33.7814 28.2351 33.8821 28.2905 33.9867 28.2905Z" stroke="white" stroke-width="2.63188" mask="url(#path-3-inside-1)"/>
<path d="M35.4122 28.4277H33.9865C33.8288 28.4277 33.7013 28.5506 33.7013 28.7021C33.7013 28.8535 33.8288 28.9765 33.9865 28.9765H35.4122C35.5699 28.9765 35.6973 28.8535 35.6973 28.7021C35.6973 28.5506 35.5699 28.4277 35.4122 28.4277Z" stroke="white" stroke-width="2.63188" mask="url(#path-3-inside-1)"/>
<path d="M35.5397 29.8284L34.1139 29.1425C33.9731 29.0747 33.802 29.1296 33.7313 29.2651C33.6608 29.4007 33.7179 29.5656 33.8587 29.6333L35.2845 30.3193C35.3255 30.3391 35.3691 30.3484 35.4119 30.3484C35.5166 30.3484 35.6172 30.293 35.6674 30.1967C35.7378 30.0611 35.6805 29.8965 35.5397 29.8284Z" stroke="white" stroke-width="2.63188" mask="url(#path-3-inside-1)"/>
<path d="M16.7502 27.5757L18.1759 28.2617C18.217 28.2814 18.2603 28.2905 18.3031 28.2905C18.4078 28.2905 18.5084 28.2351 18.5586 28.1388C18.629 28.0032 18.572 27.8383 18.4311 27.7705L17.0054 27.0846C16.8645 27.0168 16.6935 27.0717 16.6227 27.2072C16.552 27.343 16.6093 27.5077 16.7502 27.5757Z" stroke="white" stroke-width="2.63188" mask="url(#path-3-inside-1)"/>
<path d="M18.3034 28.4277H16.8777C16.72 28.4277 16.5925 28.5506 16.5925 28.7021C16.5925 28.8535 16.72 28.9765 16.8777 28.9765H18.3034C18.4611 28.9765 18.5885 28.8535 18.5885 28.7021C18.5885 28.5506 18.4611 28.4277 18.3034 28.4277Z" stroke="white" stroke-width="2.63188" mask="url(#path-3-inside-1)"/>
<path d="M18.1759 29.1425L16.7502 29.8284C16.6093 29.8962 16.5523 30.0611 16.6227 30.1967C16.6726 30.293 16.7733 30.3484 16.8779 30.3484C16.9207 30.3484 16.9643 30.3391 17.0051 30.3196L18.4309 29.6336C18.5717 29.5658 18.6287 29.4009 18.5583 29.2654C18.4876 29.1298 18.3165 29.0747 18.1759 29.1425Z" stroke="white" stroke-width="2.63188" mask="url(#path-3-inside-1)"/>
<path d="M30.4221 24.9668C29.7592 24.9668 27.9984 24.9668 27.9984 26.6132C27.9984 27.8992 29.0856 28.9455 30.4221 28.9455C31.7586 28.9455 32.8459 27.8992 32.8459 26.6132C32.8459 24.9668 31.0851 24.9668 30.4221 24.9668ZM30.4221 28.3967C29.4002 28.3967 28.5687 27.5966 28.5687 26.6132C28.5687 26.4425 28.5906 26.2872 28.6485 26.15C28.9083 26.4332 29.2852 26.6132 29.7093 26.6132C30.3848 26.6132 30.9479 26.1596 31.0948 25.5527C32.0543 25.6701 32.2756 26.0649 32.2756 26.6132C32.2756 27.5966 31.4441 28.3967 30.4221 28.3967Z" stroke="white" stroke-width="2.63188" mask="url(#path-3-inside-1)"/>
<path d="M24.2915 26.6132C24.2915 24.9668 22.5307 24.9668 21.8677 24.9668C21.2048 24.9668 19.444 24.9668 19.444 26.6132C19.444 27.8992 20.5312 28.9455 21.8677 28.9455C23.2042 28.9455 24.2915 27.8992 24.2915 26.6132ZM21.8677 28.3967C20.8458 28.3967 20.0143 27.5966 20.0143 26.6132C20.0143 26.4425 20.0362 26.2872 20.0941 26.15C20.3539 26.4332 20.7308 26.6132 21.1549 26.6132C21.8304 26.6132 22.3935 26.1596 22.5404 25.5527C23.4999 25.6701 23.7212 26.0649 23.7212 26.6132C23.7212 27.5966 22.8897 28.3967 21.8677 28.3967Z" stroke="white" stroke-width="2.63188" mask="url(#path-3-inside-1)"/>
<path d="M29.7093 31.8265H22.5806C22.4229 31.8265 22.2954 31.9494 22.2954 32.1009C22.2954 32.2524 22.4229 32.3753 22.5806 32.3753H29.7093C29.8669 32.3753 29.9944 32.2524 29.9944 32.1009C29.9944 31.9494 29.8669 31.8265 29.7093 31.8265Z" stroke="white" stroke-width="2.63188" mask="url(#path-3-inside-1)"/>
<path d="M33.0093 22.4644C29.9522 21.9623 27.7914 23.6429 27.701 23.7148C27.5795 23.8111 27.5627 23.9837 27.6625 24.1006C27.7187 24.1665 27.8002 24.2005 27.8826 24.2005C27.9465 24.2005 28.0104 24.1802 28.0637 24.1382C28.0839 24.1223 30.1193 22.5467 32.9135 23.0055C33.0683 23.0319 33.216 22.9306 33.2422 22.7811C33.269 22.6315 33.1647 22.49 33.0093 22.4644Z" stroke="white" stroke-width="2.63188" mask="url(#path-3-inside-1)"/>
<path d="M24.1133 21.6473C24.2684 21.6728 24.4158 21.5724 24.442 21.4229C24.4688 21.2736 24.3645 21.1317 24.2091 21.1062C21.1523 20.6049 18.9912 22.2847 18.9008 22.3566C18.7793 22.4529 18.7625 22.6255 18.8623 22.7424C18.9185 22.8082 19 22.8423 19.0824 22.8423C19.1463 22.8423 19.2102 22.822 19.2635 22.78C19.2837 22.7641 21.3194 21.1885 24.1133 21.6473Z" stroke="white" stroke-width="2.63188" mask="url(#path-3-inside-1)"/>
</svg>
