<svg width="20" height="17" viewBox="0 0 20 17" fill="none" xmlns="http://www.w3.org/2000/svg">
<path d="M17.5627 2.1653C16.54 1.17667 15.1535 0.621353 13.7078 0.621353C12.2622 0.621353 10.8757 1.17667 9.85292 2.1653L9.66292 2.34915L9.47293 2.1653C8.45105 1.17523 7.06458 0.618539 5.61854 0.617677C4.17249 0.616815 2.78531 1.17186 1.76217 2.1607C0.739029 3.14955 0.163734 4.49119 0.162843 5.89049C0.161952 7.28979 0.735539 8.63212 1.75742 9.62218L7.99861 15.6634L8.01761 15.6837L8.50398 16.1561C8.8112 16.4517 9.22683 16.6177 9.66008 16.6177C10.0933 16.6177 10.509 16.4517 10.8162 16.1561L17.557 9.62953C18.0654 9.14063 18.469 8.55935 18.7446 7.91908C19.0202 7.2788 19.1623 6.59215 19.1628 5.89856C19.1634 5.20498 19.0223 4.51812 18.7477 3.87745C18.4731 3.23678 18.0704 2.65492 17.5627 2.1653Z" fill="#FAC714"/>
</svg>
