<svg width="96" height="56" viewBox="0 0 96 56" fill="none" xmlns="http://www.w3.org/2000/svg">
<path d="M0.169189 37.3397C0.213575 36.6215 0.25796 35.9097 0.296004 35.1915C0.51159 31.3845 0.923739 27.603 1.70365 23.8659C1.72267 23.7769 1.75438 23.6879 1.78608 23.5735C3.09862 23.5863 4.41115 23.4719 5.68564 23.8977C7.02354 24.3426 7.99368 25.2069 8.5263 26.5225C9.67397 29.3635 10.8914 32.179 11.7157 35.1407C11.722 35.1598 11.7347 35.1725 11.7728 35.2233C11.8171 35.1089 11.8615 35.0199 11.8932 34.9246C12.7683 31.9693 14.0491 29.1664 15.2538 26.3382C15.647 25.4103 16.224 24.5841 16.9278 23.8468C17.118 23.6498 17.3082 23.5354 17.5936 23.5672C18.272 23.6435 18.9759 23.6244 19.629 23.7833C20.8654 24.082 21.677 24.94 22.0258 26.1412C22.2921 27.05 22.4569 27.997 22.5394 28.9376C22.7993 31.8167 23.0213 34.6958 23.2178 37.5749C23.3129 38.9795 23.3002 40.3904 23.3383 41.7632C23.2812 41.8077 23.2685 41.8331 23.2559 41.8331C22.3174 41.8204 21.3727 41.8776 20.4406 41.7696C19.0773 41.6107 18.234 40.5747 18.1896 39.2019C18.1072 36.8948 18.0247 34.5878 17.9296 32.2807C17.8979 31.5498 17.8155 30.8125 17.6823 30.0753C17.5936 30.3295 17.5111 30.5837 17.4224 30.8443C16.5791 33.4056 15.7611 35.9733 14.8734 38.5155C14.5056 39.5705 13.9793 40.5684 13.5292 41.5916C13.4404 41.795 13.3072 41.8649 13.0853 41.8522C12.7619 41.8331 12.4322 41.8395 12.1025 41.8458C11.0753 41.884 10.2637 41.4518 9.61691 40.6828C8.82431 39.7294 8.3551 38.6108 7.98099 37.4478C7.25181 35.1852 6.54798 32.9162 5.82514 30.6473C5.76173 30.4376 5.6793 30.2342 5.55883 30.0308C5.17204 33.9458 5.01986 37.8672 4.96914 41.8013C4.93109 41.814 4.89305 41.8395 4.855 41.8395C4.17654 41.8395 3.50442 41.8649 2.82596 41.8331C1.53245 41.7823 0.486227 40.8544 0.232597 39.5832C0.219915 39.5133 0.188212 39.4434 0.169189 39.3735C0.169189 38.6935 0.169189 38.0198 0.169189 37.3397Z" fill="white"/>
<path d="M43.9838 0.223152C44.1233 0.25493 44.2691 0.280353 44.415 0.312131C45.6197 0.547287 46.3362 1.34173 46.5074 2.65734C46.5455 2.96241 46.5708 3.26748 46.5708 3.57254C46.5772 6.369 46.5772 9.16546 46.5708 11.9619C46.5645 13.0233 46.4503 14.072 46.1523 15.0952C45.55 17.1544 44.2184 18.4891 42.145 19.0293C40.2554 19.5187 38.3532 19.6585 36.47 18.9721C33.5406 17.9044 31.6447 15.0889 31.7335 11.9683C31.7842 10.087 32.2407 8.32652 33.4898 6.8838C35.1638 4.9517 37.288 4.29072 39.7735 4.88179C40.6232 5.07882 41.3143 5.56184 41.7772 6.32451C41.7962 6.35629 41.8216 6.38171 41.885 6.45798C41.8977 6.33087 41.904 6.26095 41.904 6.19104C41.904 4.23988 41.904 2.29507 41.904 0.343909C41.904 0.299419 41.8977 0.261286 41.8913 0.216797C42.5888 0.223152 43.2863 0.223152 43.9838 0.223152ZM41.8723 12.2034C41.7645 11.5806 41.7075 10.837 41.4919 10.1379C41.0797 8.79683 40.0779 8.31381 38.7527 8.39007C37.8016 8.44728 37.2245 9.07012 36.8821 9.89635C36.2988 11.3136 36.3432 12.75 36.9265 14.1546C37.2499 14.9427 37.8713 15.4384 38.7019 15.6418C40.2174 16.0168 41.2953 15.3749 41.6441 13.8559C41.7582 13.3601 41.7899 12.839 41.8723 12.2034Z" fill="white"/>
<path d="M95.2807 37.6575C95.2236 37.9245 95.1792 38.1978 95.1158 38.4583C94.71 40.0663 93.6638 41.1213 92.161 41.6933C90.0432 42.4941 87.881 42.4941 85.7315 41.8268C84.5711 41.4645 83.7215 40.7019 83.5503 39.4307C83.4552 38.7316 83.5313 38.0071 83.5313 37.2762C83.5947 37.3016 83.6644 37.327 83.7215 37.3652C85.2116 38.3694 86.8855 38.6045 88.6229 38.5219C88.9589 38.5028 89.295 38.4393 89.6184 38.363C89.7959 38.3185 89.9798 38.2295 90.1256 38.1215C90.6646 37.7147 90.6012 36.8758 89.9671 36.6597C89.276 36.4245 88.5405 36.2974 87.824 36.1385C87.0948 35.9797 86.3402 35.9034 85.6301 35.6746C83.7151 35.0517 82.9669 33.6344 83.1445 31.6642C83.303 29.9037 84.2541 28.6453 85.7822 27.8382C87.9571 26.6942 90.2398 26.5925 92.5732 27.3106C93.1629 27.495 93.6892 27.8127 94.1203 28.2703C94.5895 28.7597 94.8749 29.3444 94.9002 30.0308C94.9256 30.6219 94.9066 31.2066 94.9066 31.8358C94.8115 31.7977 94.7417 31.785 94.6847 31.7532C93.1756 30.7935 91.5016 30.552 89.7642 30.6537C89.3394 30.6791 88.9082 30.7871 88.5024 30.9143C88.2995 30.9778 88.0966 31.1558 87.9634 31.3337C87.6908 31.7087 87.824 32.1981 88.2678 32.3379C88.9272 32.5476 89.612 32.6875 90.2905 32.8464C91.007 33.0116 91.7552 33.1006 92.4464 33.3294C93.9999 33.8505 95.0144 34.8738 95.23 36.5707C95.2363 36.6216 95.2617 36.6724 95.2807 36.7169C95.2807 37.022 95.2807 37.3397 95.2807 37.6575Z" fill="white"/>
<path d="M0.169183 3.59161C0.245272 3.39459 0.295998 3.19121 0.391109 3.0069C0.91105 1.99 1.79241 1.57689 2.88302 1.57054C5.65393 1.55782 8.4185 1.56418 11.1894 1.56418C12.3751 1.56418 13.5545 1.56418 14.7402 1.56418C14.8544 1.56418 14.9685 1.56418 15.1587 1.56418C15.127 2.28872 15.1777 3.0069 15.0446 3.68694C14.8353 4.70384 13.6623 5.53006 12.5463 5.54913C11.8171 5.56184 11.088 5.55549 10.3588 5.55549C10.2446 5.55549 10.1305 5.55549 9.96564 5.55549C9.96564 10.0552 9.96564 14.5296 9.96564 18.9594C9.00185 18.9594 8.0761 19.0357 7.16937 18.9403C5.90122 18.8132 5.18471 17.9044 5.17837 16.5697C5.17203 13.0551 5.17837 9.54043 5.17203 6.01944C5.17203 5.87962 5.17203 5.74615 5.17203 5.55549C3.49173 5.55549 1.82412 5.55549 0.162842 5.55549C0.169183 4.90722 0.169183 4.24624 0.169183 3.59161Z" fill="white"/>
<path d="M95.2806 15.0316C95.2235 15.2859 95.1792 15.5464 95.1094 15.8007C94.6846 17.4023 93.613 18.4065 92.0976 18.934C90.1573 19.6077 88.1726 19.6077 86.2134 19.0166C85.0784 18.6734 84.2414 17.9679 84.0448 16.7349C83.937 16.0549 83.9687 15.3494 83.9307 14.5995C84.0765 14.663 84.1463 14.6821 84.2033 14.7202C85.592 15.6545 87.1454 15.896 88.7687 15.8261C89.1935 15.807 89.6247 15.7117 90.0368 15.6036C90.3475 15.521 90.5694 15.3049 90.6392 14.9681C90.7406 14.4914 90.6075 14.1546 90.1319 14.0148C89.4091 13.805 88.6545 13.6716 87.919 13.5063C87.2596 13.3601 86.5811 13.2775 85.947 13.0614C84.197 12.4703 83.5122 11.1484 83.639 9.35611C83.7531 7.68459 84.6091 6.45797 86.0422 5.66352C88.2043 4.46867 90.487 4.34791 92.8077 5.14236C93.8476 5.49827 94.6465 6.19739 94.8494 7.33504C94.9699 8.00237 94.9319 8.70149 94.9699 9.43874C94.8368 9.38789 94.767 9.37518 94.7099 9.3434C93.3086 8.43455 91.7488 8.20575 90.1319 8.26931C89.7261 8.28837 89.314 8.371 88.9208 8.47269C88.7179 8.52353 88.5087 8.657 88.3565 8.80318C87.9888 9.1718 88.0839 9.7438 88.5785 9.90269C89.2252 10.1124 89.9037 10.2395 90.5694 10.3984C91.305 10.5764 92.0722 10.6717 92.776 10.9323C94.1456 11.4344 95.0143 12.4068 95.2109 13.9067C95.2172 13.9703 95.2489 14.0275 95.2679 14.0847C95.2806 14.3961 95.2806 14.7139 95.2806 15.0316Z" fill="white"/>
<path d="M63.6403 55.898C63.2979 55.7836 63.1521 55.5421 63.1141 55.1925C62.9872 54.0612 62.8224 52.9299 62.7083 51.7923C62.6766 51.4745 62.5941 51.3538 62.2581 51.3855C61.7571 51.43 61.5416 51.2012 61.5542 50.7309C61.5606 50.3432 61.7508 50.1462 62.1312 50.1208C62.2454 50.1144 62.3595 50.1081 62.4863 50.0954C62.4736 49.8538 62.4483 49.6441 62.4483 49.4344C62.4356 49.0276 62.6512 48.8052 63.057 48.7861C63.4374 48.767 63.6594 48.9704 63.7038 49.3645C63.7291 49.5869 63.7545 49.803 63.7798 50.0318C64.4012 50.0318 65.0099 50.0318 65.6187 50.0318C65.7138 50.0318 65.8089 50.0254 65.904 50.0191C67.058 50 67.597 50.839 67.1151 51.8876C66.779 52.6122 66.2971 53.216 65.6504 53.6863C65.327 53.9151 65.0607 53.9214 64.8387 53.6672C64.6422 53.4511 64.6612 53.038 64.8831 52.7965C65.1177 52.5423 65.3714 52.2944 65.606 52.0402C65.6884 51.9448 65.7645 51.8368 65.8216 51.7287C65.9801 51.4364 65.8913 51.2966 65.5552 51.2966C65.029 51.2966 64.5027 51.2966 63.932 51.2966C63.9954 51.8876 64.0525 52.3897 64.1096 52.8918C64.1983 53.6672 64.2934 54.4426 64.3886 55.2243C64.4329 55.6056 64.2047 55.7772 63.9003 55.898C63.8115 55.898 63.7228 55.898 63.6403 55.898Z" fill="white"/>
<path d="M58.7896 27.2979C59.2524 27.2979 59.7026 27.2916 60.1528 27.2979C60.8186 27.3106 61.4907 27.2788 62.1438 27.3805C63.1964 27.5458 63.9573 28.3529 64.1538 29.4016C64.5279 31.3464 65.0669 33.2467 65.7897 35.0899C65.8405 35.217 65.8912 35.3441 65.98 35.5475C66.0624 35.3695 66.1195 35.2551 66.1702 35.1407C67.0896 32.9162 67.8061 30.6282 68.3324 28.283C68.4085 27.9589 68.5289 27.8572 68.8523 27.8763C69.4547 27.9081 70.057 27.8636 70.6594 27.9208C71.8705 28.0415 72.8787 28.9694 73.1704 30.1516C73.6015 31.8994 74.2166 33.5899 74.9267 35.2424C74.9648 35.325 75.0092 35.4013 75.0853 35.5411C76.1759 32.8527 76.7973 30.1071 77.2538 27.2852C77.8181 27.2852 78.3761 27.2788 78.9278 27.2852C79.3716 27.2916 79.8218 27.2788 80.253 27.3551C81.3499 27.5585 81.9333 28.4292 81.7304 29.5224C81.3499 31.5498 80.6715 33.4819 79.9359 35.3949C79.156 37.4224 78.2937 39.4053 77.1587 41.2611C76.6704 42.0492 76.6704 42.0556 75.751 42.0429C75.2882 42.0365 74.8189 42.0174 74.3624 41.9539C73.7347 41.8585 73.2591 41.509 72.9294 40.9561C71.9846 39.3799 71.3252 37.6702 70.6975 35.9542C70.6024 35.6873 70.5136 35.414 70.3931 35.0771C70.3424 35.217 70.3107 35.2932 70.2853 35.3759C69.6195 37.4923 68.7572 39.5197 67.5905 41.4137C67.3052 41.884 66.9881 42.1509 66.4048 42.0619C66.0434 42.0047 65.6693 42.0429 65.2952 42.0238C64.5216 41.992 63.9319 41.6552 63.5197 40.9878C62.6574 39.6023 61.9472 38.1342 61.3385 36.6216C60.1465 33.6599 59.2651 30.6092 58.8022 27.4441C58.7959 27.4187 58.7959 27.3805 58.7896 27.2979Z" fill="white"/>
<path d="M49.8301 42.278C46.5836 42.1636 44.1044 40.8798 42.7601 37.899C41.752 35.6619 41.9549 33.3802 42.9187 31.1558C43.0074 30.9588 43.0138 30.7935 42.944 30.5901C42.4558 29.122 42.4621 27.6539 43.0455 26.2111C43.1913 25.8552 43.4386 25.5438 43.6669 25.226C43.7176 25.1561 43.8825 25.1116 43.9776 25.137C45.3282 25.4548 46.5392 26.0523 47.5538 27.0119C47.6806 27.1327 47.7884 27.1645 47.9722 27.1263C49.2341 26.8403 50.5022 26.8022 51.7704 27.0882C51.8781 27.1136 52.0493 27.0691 52.1318 26.9929C53.1526 26.0713 54.3384 25.4802 55.6572 25.137C55.8348 25.0926 55.9362 25.118 56.063 25.2578C56.6908 25.9633 56.9064 26.834 57.0332 27.7301C57.1663 28.6962 57.0459 29.6495 56.7542 30.5838C56.7098 30.7236 56.7478 30.9206 56.8112 31.0541C58.0984 33.7489 57.6926 37.4986 55.8665 39.704C54.7315 41.0705 53.2414 41.8014 51.5231 42.0937C50.9397 42.1954 50.35 42.2208 49.8301 42.278ZM47.0782 34.4607C47.0972 35.325 47.1923 36.1703 47.5918 36.9521C48.0674 37.88 48.8536 38.3185 49.8681 38.3503C50.8573 38.3757 51.5865 37.9181 52.0747 37.0728C52.3791 36.5517 52.5312 35.9797 52.5756 35.3886C52.6644 34.2446 52.5693 33.1197 51.9669 32.1091C51.0095 30.5139 48.9043 30.4249 47.8137 31.9248C47.2621 32.6748 47.0592 33.5391 47.0782 34.4607ZM44.5102 27.031C44.2692 27.7301 44.2566 28.3784 44.3136 29.0584C44.8716 28.639 45.3916 28.2513 45.9622 27.8191C45.474 27.5522 45.0048 27.2979 44.5102 27.031ZM55.3782 28.9949C55.429 28.3148 55.4036 27.6983 55.169 27.031C54.6808 27.2979 54.2306 27.5458 53.7613 27.8C54.3257 28.2131 54.8329 28.5881 55.3782 28.9949Z" fill="white"/>
<path d="M22.1843 19.4297C18.9251 19.4234 16.1479 17.504 15.2348 14.5423C14.6388 12.6038 14.8227 10.6972 15.6279 8.84134C15.7104 8.64432 15.7294 8.47907 15.6597 8.26934C15.1968 6.87746 15.1968 5.48559 15.7104 4.10008C15.7167 4.08736 15.7167 4.08101 15.7231 4.0683C15.9703 3.69332 16.2176 3.31834 16.4713 2.94336C16.8263 3.03234 17.1878 3.10225 17.5365 3.22301C18.5066 3.5535 19.3753 4.0683 20.1299 4.77377C20.2694 4.90088 20.3835 4.93901 20.5801 4.89452C21.7404 4.63394 22.9008 4.60217 24.0675 4.85003C24.1943 4.87546 24.3845 4.83097 24.4796 4.74199C25.4688 3.84585 26.6228 3.28021 27.9036 2.96878C28.0114 2.94336 28.189 3.01327 28.2651 3.09589C28.8865 3.75052 29.083 4.5831 29.2098 5.43475C29.3557 6.39444 29.2225 7.32871 28.9435 8.25663C28.8991 8.39645 28.9435 8.58711 29.0006 8.72694C30.1292 11.5425 29.9517 14.2499 28.2017 16.7477C27.1237 18.2857 25.5005 18.9976 23.6744 19.2708C23.1798 19.3535 22.6789 19.3789 22.1843 19.4297ZM24.9298 12.2416C24.9171 11.3899 24.8094 10.551 24.3909 9.78832C23.8329 8.77143 22.7106 8.25662 21.6643 8.54898C20.802 8.79049 20.263 9.40699 19.9523 10.2078C19.4197 11.5933 19.5338 12.9788 20.1299 14.3071C20.5484 15.2414 21.3536 15.6482 22.3491 15.6609C23.3193 15.6736 24.0104 15.1969 24.467 14.358C24.8284 13.697 24.9362 12.9788 24.9298 12.2416ZM18.551 5.59999C18.0882 5.35212 17.657 5.11697 17.2258 4.88181C17.1878 4.90088 17.1497 4.9263 17.1117 4.94537C17.0673 5.53008 17.0293 6.11479 16.9849 6.76942C17.5429 6.35631 18.0121 6.00675 18.551 5.59999ZM26.0648 5.57457C26.5911 5.96226 27.054 6.30546 27.5169 6.64866C27.6373 6.15928 27.5549 5.29492 27.3266 4.89452C26.9208 5.11697 26.5087 5.33941 26.0648 5.57457Z" fill="white"/>
<path d="M39.1967 37.5622C39.1587 38.2359 39.1841 38.8524 39.0826 39.4498C38.9241 40.3523 38.3471 40.9752 37.5735 41.4264C36.7936 41.8776 35.9313 42.0874 35.0436 42.1891C33.6486 42.3543 32.26 42.3289 30.903 41.9221C28.3667 41.1531 26.7308 39.4816 26.1158 36.9012C25.488 34.251 25.9319 31.7532 27.6122 29.5732C28.9564 27.8255 30.7826 26.9547 32.9701 26.8594C34.5173 26.7895 36.001 27.0564 37.3643 27.8382C39.7294 29.1919 40.3825 31.6833 40.002 33.6535C39.8308 34.537 39.3109 35.1534 38.5183 35.5602C37.6369 36.0114 36.6795 36.1958 35.7093 36.2466C34.2256 36.3229 32.7355 36.3356 31.2454 36.3737C31.1186 36.3801 30.9918 36.3737 30.8333 36.3737C30.9347 36.9711 31.1947 37.4351 31.6322 37.7974C32.1395 38.2168 32.7482 38.4075 33.3823 38.4774C34.8787 38.6363 36.3561 38.5473 37.8081 38.1469C38.1822 38.0452 38.5246 37.8482 38.886 37.6957C38.9495 37.6512 39.0382 37.6258 39.1967 37.5622ZM30.6875 33.1133C31.7147 33.1133 32.7292 33.1324 33.7374 33.1006C34.1305 33.0879 34.53 32.9989 34.9104 32.8781C35.3225 32.751 35.4684 32.4777 35.443 32.0519C35.3986 31.4354 35.0372 31.0477 34.5046 30.8062C32.6721 29.98 30.8333 31.0859 30.6875 33.1133Z" fill="white"/>
<path d="M63.5959 20.0589C64.1793 20.0144 64.7373 19.9763 65.2889 19.9255C65.606 19.9 65.9167 19.8683 66.2274 19.8111C67.1151 19.6458 67.6287 19.042 67.9647 18.2539C67.9964 18.1713 67.952 18.0315 67.9013 17.9489C65.6757 14.2372 64.1095 10.265 63.095 6.06394C63.0189 5.75251 62.9809 5.42838 62.9111 5.03433C63.9891 5.06611 65.0226 5.00891 66.0244 5.16144C67.1404 5.33304 67.8823 6.03216 68.1486 7.19523C68.6305 9.32435 69.3533 11.3772 70.184 13.3919C70.2093 13.4555 70.2474 13.519 70.3108 13.6398C70.3869 13.4745 70.4503 13.3601 70.501 13.2394C71.598 10.7035 72.3208 8.05959 72.7203 5.32669C72.733 5.23136 72.8408 5.07882 72.9042 5.07882C73.7411 5.06611 74.5781 5.02798 75.4024 5.10424C76.6959 5.225 77.2412 6.00038 77.051 7.29692C76.8228 8.82226 76.3535 10.2777 75.8082 11.714C74.5337 15.0571 72.8344 18.184 70.8688 21.1648C70.6088 21.5588 70.2854 21.9211 69.9684 22.2707C69.2265 23.0969 68.2881 23.5354 67.1848 23.5926C66.5317 23.6244 65.8786 23.6498 65.2382 23.4274C64.1793 23.0651 63.6023 22.277 63.5896 21.1648C63.5896 20.8089 63.5959 20.4466 63.5959 20.0589Z" fill="white"/>
<path d="M56.8873 10.284C56.8873 9.98533 56.9064 9.70568 56.881 9.43875C56.8366 9.00021 56.583 8.68879 56.1708 8.54897C55.8475 8.44092 55.4987 8.34559 55.1563 8.32017C54.0467 8.23754 52.9371 8.23754 51.8464 8.49177C51.0602 8.67608 50.3691 9.05106 49.7667 9.59128C49.6842 9.66755 49.5955 9.73746 49.4687 9.83915C49.456 9.70568 49.437 9.62941 49.437 9.55315C49.437 9.14004 49.4496 8.72692 49.4306 8.31381C49.3862 7.25243 49.8618 6.45798 50.6797 5.84784C51.5294 5.21229 52.5186 4.91993 53.5584 4.78011C54.8456 4.60215 56.1264 4.60215 57.3946 4.91993C59.7343 5.50464 61.2181 7.11896 61.4527 9.50866C61.6429 11.4789 61.6492 13.4618 61.3449 15.4321C61.2942 15.7625 61.199 16.093 61.0976 16.4108C60.6918 17.6502 59.8865 18.5272 58.6374 18.9022C56.4879 19.5441 54.313 19.6267 52.1508 18.9467C51.3455 18.6925 50.6354 18.2666 50.0203 17.6756C48.3781 16.1121 48.5619 12.7055 50.7432 11.4217C51.8274 10.7861 53.0131 10.5128 54.2369 10.3984C55.0168 10.3285 55.7967 10.3285 56.5766 10.2968C56.6844 10.3031 56.7859 10.2968 56.8873 10.284ZM57.0332 13.2521C56.3167 13.2839 55.6699 13.2902 55.0232 13.3538C54.7125 13.3856 54.4018 13.4873 54.1164 13.6144C53.6155 13.8432 53.4443 14.2753 53.476 14.8156C53.5077 15.3367 53.7423 15.7435 54.2432 15.8579C54.7378 15.9723 55.2641 16.0295 55.765 15.9914C56.4118 15.9469 56.8366 15.5274 56.9381 14.8855C57.0205 14.3707 57.0015 13.8432 57.0332 13.2521Z" fill="white"/>
<path d="M50.4262 49.4789C50.3882 50.0509 50.3565 50.5848 50.3184 51.125C50.2487 52.0593 50.0838 52.9681 49.6844 53.8261C49.6083 53.985 49.5195 54.1439 49.4181 54.2964C48.8157 55.1989 47.6934 55.2625 46.9832 54.4235C46.6281 54.0104 46.4506 53.5147 46.3681 52.9872C46.1652 51.697 46.3491 50.4767 47.0973 49.3836C47.9153 48.1887 49.2151 47.6803 50.6101 47.9917C51.9544 48.2904 52.8738 49.3009 53.1084 50.7437C53.2796 51.8305 53.2288 52.8982 52.7152 53.896C52.3285 54.646 51.7388 55.1671 50.9081 55.3642C50.534 55.4531 50.2423 55.2688 50.1155 54.9066C49.9887 54.5379 50.1092 54.1947 50.4453 54.0486C51.2252 53.7117 51.5993 53.0825 51.7071 52.2817C51.8022 51.608 51.7958 50.928 51.4978 50.2924C51.2886 49.8475 50.9652 49.5615 50.4262 49.4789ZM48.9996 49.5552C48.9742 49.5297 48.9488 49.5107 48.9235 49.4853C48.7079 49.6823 48.4479 49.8539 48.2831 50.089C47.7314 50.8644 47.5792 51.7542 47.687 52.6885C47.7124 52.8982 47.8075 53.1206 47.928 53.2986C48.0992 53.5465 48.3591 53.5211 48.5177 53.2541C48.5938 53.127 48.6572 52.9872 48.6825 52.8474C48.7967 52.1292 48.9171 51.411 48.9996 50.6865C49.0313 50.3115 48.9996 49.9301 48.9996 49.5552Z" fill="white"/>
<path d="M78.5158 1.92645C78.8456 1.95187 79.1563 1.9773 79.467 2.00908C79.9425 2.05356 80.4181 2.07263 80.8809 2.1489C82.1681 2.36499 82.8973 3.49628 82.6373 4.83731C82.352 6.29909 82.0476 7.75452 81.7686 9.22266C81.7243 9.4451 81.6418 9.48959 81.4326 9.45781C81.0775 9.40697 80.7161 9.40697 80.361 9.34977C79.4162 9.19724 78.8012 8.53626 78.611 7.47487C78.5729 7.26514 78.5475 7.05541 78.5412 6.84567C78.5158 5.30127 78.5032 3.75686 78.4905 2.21245C78.4968 2.12983 78.5095 2.04721 78.5158 1.92645Z" fill="white"/>
<path d="M20.2695 53.5592C20.2695 53.9087 20.2885 54.1884 20.2632 54.4744C20.2188 55.1226 19.8447 55.5675 19.2106 55.6946C18.9062 55.7582 18.5765 55.7836 18.2722 55.7455C17.2196 55.6184 16.7377 54.9765 16.7821 53.8388C16.8201 52.8473 17.4796 52.1609 18.4497 52.0974C18.6019 52.0847 18.7604 52.0974 18.938 52.0974C18.938 51.8241 18.938 51.5826 18.938 51.2839C18.7477 51.2839 18.5638 51.2839 18.38 51.2839C18.139 51.2839 17.8917 51.2902 17.6508 51.2775C17.2513 51.2521 17.0738 51.0487 17.0674 50.6356C17.0611 50.2225 17.2323 49.9937 17.6254 49.9683C18.0566 49.9428 18.4878 49.9619 18.938 49.9619C18.938 49.6568 18.938 49.3963 18.938 49.0912C18.5385 49.0912 18.1454 49.0975 17.7459 49.0912C17.2577 49.0848 17.0484 48.8497 17.0738 48.373C17.0991 47.9726 17.2894 47.7756 17.6952 47.7756C18.7097 47.7692 19.7242 47.7692 20.7387 47.7756C21.1762 47.7756 21.3855 47.998 21.3855 48.4239C21.3855 48.8433 21.1762 49.0721 20.7514 49.0912C20.6182 49.0975 20.4788 49.0912 20.3139 49.0912C20.3139 49.3772 20.3139 49.6441 20.3139 49.9301C20.5105 49.9428 20.7007 49.9492 20.8846 49.9746C21.227 50.0318 21.3918 50.2543 21.3855 50.6356C21.3791 51.0169 21.2016 51.2267 20.8592 51.2712C20.2822 51.3474 20.2949 51.3474 20.2822 51.9512C20.2758 52.1927 20.3519 52.3135 20.5865 52.3834C20.7894 52.4406 20.9797 52.5423 21.1636 52.6376C21.4933 52.8092 21.5947 53.1524 21.4299 53.502C21.284 53.8134 21.0811 53.8706 20.688 53.7117C20.5865 53.6672 20.4724 53.6291 20.2695 53.5592ZM18.9633 53.8197C18.976 53.8197 18.9887 53.8134 19.0014 53.8134C18.9633 53.6481 18.9443 53.3494 18.8745 53.3431C18.6716 53.3113 18.4497 53.3749 18.2405 53.4257C18.1771 53.4384 18.12 53.5147 18.082 53.5782C17.9361 53.807 17.8537 54.0994 18.0566 54.2773C18.2214 54.4172 18.5195 54.468 18.7477 54.4489C19.0267 54.4172 18.9443 54.1248 18.9633 53.9278C18.9633 53.8833 18.9633 53.8515 18.9633 53.8197Z" fill="white"/>
<path d="M25.2407 50.7564C25.4372 50.6674 25.5831 50.5975 25.7352 50.5403C26.4264 50.2734 27.0605 50.6102 27.1936 51.3347C27.2634 51.7161 27.2507 52.1101 27.2697 52.5042C27.2887 52.841 27.2697 53.1842 27.3078 53.5147C27.3458 53.9278 27.5614 54.0295 27.9101 53.8134C28.0623 53.7181 28.2018 53.6037 28.335 53.4829C28.6583 53.2033 28.8866 53.1715 29.1846 53.3876C29.4446 53.5719 29.5777 54.0041 29.4065 54.3028C29.0071 55.0083 28.4744 55.5676 27.6502 55.7392C26.9654 55.879 26.3123 55.5421 26.122 54.8748C25.9762 54.3664 25.9572 53.8198 25.9064 53.2859C25.8811 53.0126 25.9191 52.733 25.9001 52.4597C25.8684 52.072 25.5958 51.9131 25.2914 52.1546C25.0251 52.3643 24.7715 52.6694 24.6573 52.9872C24.3974 53.7308 24.2262 54.5125 24.0106 55.2752C23.9028 55.6693 23.6238 55.8472 23.2307 55.8091C22.7297 55.7646 22.4571 55.3832 22.5902 54.8557C22.9009 53.6164 23.2116 52.3771 23.554 51.1441C23.8267 50.1653 24.131 49.1993 24.4417 48.2332C24.5939 47.7502 24.9997 47.5595 25.4689 47.7057C25.8557 47.8265 26.0396 48.1188 25.9255 48.5129C25.7416 49.1548 25.5323 49.784 25.3358 50.4195C25.2977 50.5085 25.2787 50.6102 25.2407 50.7564Z" fill="white"/>
<path d="M78.3318 51.8241C78.9151 52.5232 79.5111 53.2287 80.0882 53.9405C80.215 54.093 80.3354 54.2646 80.4052 54.4426C80.5193 54.7413 80.3798 55.1099 80.1389 55.2561C79.8535 55.4277 79.5365 55.415 79.3019 55.1544C78.8073 54.6142 78.3444 54.0549 77.8689 53.502C77.7421 53.3494 77.6279 53.1842 77.4757 52.9935C77.387 53.0889 77.3109 53.1715 77.2348 53.2541C76.5817 54.0104 75.8462 54.6714 74.9902 55.1926C74.7492 55.3387 74.5019 55.4468 74.2166 55.3133C73.9249 55.1735 73.8171 54.9193 73.7981 54.6206C73.7727 54.2964 73.9122 54.0422 74.1912 53.8833C75.7003 52.9999 76.7592 51.7097 77.5518 50.178C77.5582 50.1717 77.5645 50.1589 77.5645 50.1526C77.8499 49.5488 77.8055 49.4725 77.1397 49.4725C76.4549 49.4725 75.7637 49.4789 75.0789 49.4725C74.4132 49.4662 74.1025 49.0467 74.2737 48.3984C74.3561 48.0743 74.5717 47.9091 74.8887 47.9027C76.1061 47.8964 77.3172 47.8836 78.5347 47.9027C79.1878 47.9154 79.7014 48.5955 79.4921 49.2628C79.2702 49.9746 78.9214 50.642 78.6171 51.3284C78.5473 51.4809 78.4459 51.6334 78.3318 51.8241Z" fill="white"/>
<path d="M41.1054 48.0934C41.6887 48.2078 42.2974 48.2522 42.8618 48.4429C44.0094 48.8242 44.6181 49.6886 44.7259 50.8771C44.7703 51.3538 44.7386 51.8495 44.6689 52.3325C44.5484 53.1524 44.1236 53.8134 43.4388 54.2901C42.3165 55.0718 41.0483 55.3197 39.7167 55.3133C39.33 55.3133 39.1144 55.0082 39.1144 54.5633C39.1207 54.1502 39.33 53.9214 39.7484 53.8769C40.1669 53.8325 40.5918 53.8134 41.0039 53.7308C41.321 53.6672 41.6316 53.5528 41.9297 53.413C42.8427 52.9935 43.331 52.0783 43.2042 51.0805C43.1027 50.2924 42.5764 49.8475 41.657 49.7204C40.8834 49.6187 40.1479 49.7712 39.4187 50C39.1905 50.0699 38.9622 50.1526 38.7276 50.2288C38.2837 50.3687 37.9921 50.2415 37.8399 49.8348C37.675 49.3962 37.8145 48.9831 38.2013 48.8179C39.1207 48.4238 40.0908 48.2205 41.0927 48.1823C41.0927 48.1506 41.099 48.1251 41.1054 48.0934Z" fill="white"/>
<path d="M30.8079 50.9406C30.8079 50.0636 30.8015 49.1801 30.8079 48.3031C30.8142 47.712 31.1693 47.4387 31.7463 47.5531C32.0697 47.6167 32.2472 47.8137 32.2599 48.1378C32.2726 48.5001 32.2726 48.856 32.2726 49.2183C32.2726 50.394 32.2726 51.5698 32.2726 52.7456C32.2726 52.8537 32.2726 52.9553 32.2726 53.0634C32.3043 54.1311 32.7735 54.5061 33.7817 54.1375C34.4411 53.896 35.0498 53.521 35.6712 53.1841C36.0707 52.9681 36.337 52.9617 36.5843 53.235C36.8569 53.5337 36.895 53.9977 36.5779 54.271C35.4429 55.2497 34.1685 55.9425 32.615 55.8026C31.5751 55.7073 30.9664 55.0781 30.8713 54.0231C30.7888 53.0952 30.8205 52.1609 30.8015 51.233C30.8015 51.1313 30.8079 51.036 30.8079 50.9406Z" fill="white"/>
<path d="M14.8672 51.6652C14.956 50.6038 15.0384 49.5615 15.1398 48.5192C15.1969 47.9281 15.7232 47.6294 16.2748 47.8455C16.5411 47.9536 16.6109 48.1824 16.5919 48.4429C16.5475 49.034 16.4841 49.6251 16.4397 50.2098C16.3319 51.6398 16.3953 53.0634 16.5602 54.4871C16.5665 54.5634 16.5792 54.6333 16.5855 54.7095C16.6299 55.2625 16.4968 55.4849 16.0846 55.5294C15.5266 55.593 15.1906 55.3642 15.1398 54.843C15.0384 53.788 14.956 52.7202 14.8672 51.6652Z" fill="white"/>
<path d="M57.4896 55.3197C56.7161 55.3197 55.9488 55.326 55.1753 55.3197C54.5095 55.3133 54.1671 54.8239 54.4207 54.2074C54.4841 54.0485 54.6807 53.9278 54.8455 53.8261C54.9343 53.7689 55.0738 53.788 55.1879 53.788C56.7287 53.788 58.2695 53.7816 59.8167 53.788C60.4698 53.7943 60.7488 54.1693 60.6029 54.8112C60.5205 55.1544 60.2986 55.3197 59.8738 55.326C59.0748 55.3197 58.2822 55.3197 57.4896 55.3197Z" fill="white"/>
<path d="M57.458 49.5933C56.7605 49.5933 56.063 49.5996 55.3656 49.5933C54.6998 49.5869 54.351 49.0975 54.611 48.481C54.6808 48.3094 54.909 48.1442 55.0929 48.0933C55.3529 48.0234 55.6382 48.0552 55.9109 48.0552C57.1346 48.0552 58.3584 48.0489 59.5885 48.0552C60.1972 48.0616 60.4191 48.284 60.4128 48.8433C60.4065 49.339 60.1782 49.5869 59.6773 49.5933C58.9354 49.606 58.1935 49.5933 57.458 49.5933Z" fill="white"/>
<path d="M70.6148 52.3325C70.1076 52.3325 69.6003 52.3389 69.0994 52.3325C68.6048 52.3262 68.3639 52.0719 68.3575 51.5826C68.3512 51.0805 68.5921 50.8136 69.1057 50.8072C70.1393 50.8008 71.1728 50.8008 72.2064 50.8072C72.7009 50.8136 72.9229 51.0614 72.9229 51.5699C72.9229 52.072 72.6883 52.3262 72.2 52.3325C71.6674 52.3389 71.1411 52.3325 70.6148 52.3325Z" fill="white"/>
<path d="M35.7156 48.373C35.7156 48.5129 35.7219 48.6463 35.7156 48.7862C35.7093 49.034 35.5951 49.1802 35.3288 49.1739C35.0752 49.1675 34.9611 49.0404 34.9611 48.7989C34.9547 48.5129 34.9547 48.2269 34.9611 47.9409C34.9674 47.7057 35.0752 47.5659 35.3288 47.5659C35.6015 47.5659 35.7093 47.7057 35.7219 47.9536C35.7219 48.0998 35.7156 48.2332 35.7156 48.373Z" fill="white"/>
<path d="M34.3523 48.3857C34.3523 48.5255 34.3523 48.659 34.3523 48.7988C34.3587 49.0467 34.2382 49.1675 33.9909 49.1738C33.75 49.1738 33.6105 49.0658 33.6041 48.8179C33.5978 48.5192 33.5978 48.2268 33.6041 47.9281C33.6105 47.6866 33.7373 47.5658 33.9909 47.5722C34.2382 47.5786 34.3587 47.6993 34.3587 47.9408C34.3523 48.0934 34.3523 48.2395 34.3523 48.3857Z" fill="white"/>
</svg>
