<svg width="15" height="19" viewBox="0 0 15 19" fill="none" xmlns="http://www.w3.org/2000/svg">
<path fill-rule="evenodd" clip-rule="evenodd" d="M7.24112 0.688965C10.9989 0.688965 14.0455 3.6611 14.0455 7.32637C14.0455 10.9916 7.24112 18.8339 7.24112 18.8339C7.24112 18.8339 0.436768 10.9916 0.436768 7.32637C0.436768 3.6611 3.4833 0.688965 7.24112 0.688965ZM7.24475 4.44859C7.84765 4.44859 8.43703 4.62737 8.93833 4.96233C9.43963 5.29728 9.83032 5.77338 10.061 6.33039C10.2918 6.88741 10.3521 7.50032 10.2345 8.09164C10.1169 8.68296 9.82658 9.22613 9.40026 9.65245C8.97394 10.0788 8.43076 10.3691 7.83944 10.4867C7.24812 10.6043 6.63521 10.544 6.0782 10.3132C5.52118 10.0825 5.04509 9.69182 4.71013 9.19052C4.37517 8.68923 4.19639 8.09985 4.19639 7.49695C4.19639 6.68847 4.51756 5.91311 5.08924 5.34144C5.66092 4.76976 6.43628 4.44859 7.24475 4.44859Z" fill="#F63A5F"/>
</svg>
