<svg width="13" height="17" viewBox="0 0 13 17" fill="none" xmlns="http://www.w3.org/2000/svg">
<path fill-rule="evenodd" clip-rule="evenodd" d="M6.16284 0.617676C9.47644 0.617676 12.1628 3.23847 12.1628 6.47047C12.1628 9.70247 6.16284 16.6177 6.16284 16.6177C6.16284 16.6177 0.162842 9.70247 0.162842 6.47047C0.162842 3.23847 2.84924 0.617676 6.16284 0.617676ZM6.16604 3.93287C6.69768 3.93287 7.21738 4.09052 7.65942 4.38588C8.10146 4.68124 8.44598 5.10106 8.64942 5.59223C8.85287 6.08339 8.90611 6.62385 8.80239 7.14527C8.69868 7.66669 8.44267 8.14566 8.06675 8.52158C7.69082 8.89751 7.21186 9.15351 6.69044 9.25723C6.16902 9.36094 5.62856 9.30771 5.13739 9.10426C4.64622 8.90081 4.22641 8.5563 3.93104 8.11426C3.63568 7.67222 3.47804 7.15251 3.47804 6.62088C3.47804 5.90798 3.76124 5.22427 4.26534 4.72018C4.76944 4.21608 5.45314 3.93287 6.16604 3.93287Z" fill="#FAC714"/>
</svg>
