<svg width="14" height="19" viewBox="0 0 14 19" fill="none" xmlns="http://www.w3.org/2000/svg">
<path fill-rule="evenodd" clip-rule="evenodd" d="M7.07193 0.101562C10.8297 0.101562 13.8763 3.07369 13.8763 6.73897C13.8763 10.4042 7.07193 18.2465 7.07193 18.2465C7.07193 18.2465 0.267578 10.4042 0.267578 6.73897C0.267578 3.07369 3.31411 0.101562 7.07193 0.101562ZM7.07556 3.86119C7.67847 3.86119 8.26784 4.03997 8.76914 4.37492C9.27044 4.70988 9.66113 5.18598 9.89186 5.74299C10.1226 6.3 10.183 6.91292 10.0653 7.50424C9.94771 8.09556 9.65739 8.63873 9.23107 9.06505C8.80475 9.49137 8.26157 9.78169 7.67025 9.89931C7.07893 10.0169 6.46602 9.95656 5.90901 9.72584C5.35199 9.49512 4.8759 9.10442 4.54094 8.60312C4.20598 8.10182 4.0272 7.51245 4.0272 6.90954C4.0272 6.10107 4.34838 5.32571 4.92005 4.75404C5.49173 4.18236 6.26709 3.86119 7.07556 3.86119Z" fill="#50D1FE"/>
</svg>
