<svg width="148" height="148" viewBox="0 0 148 148" fill="none" xmlns="http://www.w3.org/2000/svg">
<circle cx="73.7645" cy="73.7196" r="72.8983" fill="#F5F5F5" stroke="#EFEFEF"/>
<g opacity="0.5">
<path d="M89.9989 80.1111C88.4125 79.1876 87.2227 77.7364 86.6939 76.0214C84.8431 69.9529 79.6874 65.9951 73.7385 65.9951C67.7896 65.9951 62.6338 70.0848 60.783 76.0214C60.2543 77.7364 59.0645 79.1876 57.4781 80.1111C48.2242 85.3881 46.9022 95.942 46.9022 101.747C46.9022 105.704 49.6784 108.871 54.1731 109.926C60.3864 111.509 68.8471 109.003 72.5487 102.274C72.9453 101.615 73.4741 101.483 73.7385 101.483C74.0029 101.483 74.6639 101.615 75.0605 102.274C77.9688 107.683 84.0499 110.322 89.6023 110.322C90.9243 110.322 92.2462 110.19 93.436 109.926C97.9308 108.739 100.707 105.704 100.707 101.747C100.575 95.8101 99.2528 85.3881 89.9989 80.1111ZM92.3784 106.1C87.7515 107.288 81.1416 105.441 78.4976 100.427C77.5722 98.7125 75.7215 97.5251 73.7385 97.5251C71.7555 97.5251 69.9047 98.5805 68.9793 100.427C66.3354 105.309 59.7255 107.156 55.0985 105.968C53.5121 105.573 50.8682 104.517 50.8682 101.615C50.8682 96.6017 51.9258 87.7627 59.4611 83.4092C61.9728 81.958 63.6914 79.7153 64.6168 77.0768C65.9388 72.7233 69.6403 69.8209 73.7385 69.8209C77.8366 69.8209 81.5382 72.7233 82.8602 77.0768C83.6534 79.7153 85.5041 82.0899 88.0159 83.4092C95.5512 87.6308 96.6088 96.6017 96.6088 101.615C96.6088 104.517 93.9648 105.704 92.3784 106.1Z" fill="#FAC714"/>
<path d="M55.0986 70.7444C54.5698 67.4462 52.8512 64.1481 50.0751 61.3777C44.3906 55.7049 36.1943 54.5176 31.8317 58.8711C29.5843 61.1139 28.7912 64.28 29.3199 67.842C29.8487 71.1401 31.5673 74.4383 34.3435 77.2087C37.6484 80.5068 41.8788 82.3537 45.7125 82.3537C48.3565 82.3537 50.8683 81.4303 52.5869 79.7152C54.702 77.3406 55.6274 74.1744 55.0986 70.7444ZM49.6785 76.8129C46.9023 79.5833 41.0856 78.396 36.9875 74.3063C34.8723 72.1955 33.5503 69.689 33.1537 67.1824C32.7571 64.9397 33.2859 62.9608 34.6079 61.6416C35.6655 60.5862 37.1196 60.0585 38.706 60.0585C41.4822 60.0585 44.655 61.5096 47.2989 64.0162C49.4141 66.127 50.7361 68.6336 51.1327 71.1401C51.5293 73.5148 51.0005 75.4937 49.6785 76.8129Z" fill="#FAC714"/>
<path d="M115.646 58.8709C111.283 54.5174 103.087 55.5728 97.4023 61.3775C94.7583 64.016 92.9075 67.3141 92.3788 70.7442C91.85 74.3061 92.7754 77.4723 94.8905 79.7151C96.7413 81.562 99.1209 82.3535 101.765 82.3535C105.599 82.3535 109.829 80.6385 113.134 77.2085C115.778 74.57 117.629 71.2719 118.157 67.8418C118.818 64.2799 117.893 61.1137 115.646 58.8709ZM114.324 67.1822C113.927 69.6888 112.605 72.1953 110.49 74.3061C106.392 78.3958 100.575 79.4512 97.7989 76.8127C96.4769 75.4935 96.0803 73.6465 96.3447 71.2719C96.7413 68.7653 98.0633 66.2587 100.178 64.1479C102.69 61.6414 105.995 60.1902 108.771 60.1902C110.358 60.1902 111.812 60.7179 112.869 61.7733C114.191 62.9606 114.588 64.9395 114.324 67.1822Z" fill="#FAC714"/>
<path d="M57.0816 64.6758C58.6679 65.4673 60.2543 65.995 61.9729 65.995C62.8983 65.995 63.9559 65.8631 64.8813 65.5992C70.8302 63.6204 74.0029 55.8368 71.8878 48.1852C70.698 43.9636 68.054 40.4016 64.7491 38.5547C62.2373 37.2354 59.4611 36.9716 56.9494 37.7631C51.0004 39.742 47.8277 47.5256 49.9429 55.1772C51.0004 59.3988 53.6444 62.8288 57.0816 64.6758ZM58.1391 41.457C58.6679 41.3251 59.3289 41.1932 59.8577 41.1932C61.0475 41.1932 62.1051 41.5889 62.8983 41.9847C65.2779 43.304 67.2608 45.9425 68.054 49.1086C69.5082 54.6495 67.5252 60.3223 63.5593 61.6415C61.7085 62.3011 59.9899 61.6415 58.9323 61.1138C56.5528 59.7946 54.5698 57.1561 53.7766 53.9899C52.1902 48.449 54.1732 42.7763 58.1391 41.457Z" fill="#FAC714"/>
<path d="M82.7277 65.4675C83.6531 65.7313 84.5785 65.8633 85.6361 65.8633C87.2225 65.8633 88.941 65.4675 90.5274 64.544C93.8324 62.6971 96.4764 59.267 97.6661 54.9135C99.7813 47.2619 96.6086 39.4783 90.6596 37.4994C88.1479 36.7079 85.3717 36.9717 82.8599 38.291C79.555 40.1379 76.911 43.568 75.7212 47.9215C73.4738 55.7051 76.6466 63.4886 82.7277 65.4675ZM79.4228 49.1088C80.3482 45.9426 82.1989 43.1722 84.5785 41.9849C85.3717 41.5891 86.4293 41.1933 87.6191 41.1933C88.1479 41.1933 88.6767 41.3253 89.3376 41.4572C93.3036 42.7764 95.2866 48.4492 93.8324 53.99C92.907 57.1562 91.0562 59.9267 88.6767 61.114C87.6191 61.6417 85.9005 62.3013 84.0497 61.6417C79.9516 60.4544 77.9686 54.6497 79.4228 49.1088Z" fill="#FAC714"/>
</g>
</svg>
