<svg width="161" height="90" viewBox="0 0 161 90" fill="none" xmlns="http://www.w3.org/2000/svg">
<path opacity="0.15" d="M1.84452 54.5979C-3.26572 61.4185 7.31907 64.8674 6.06044 62.2934C5.41129 60.6764 6.83238 58.6038 9.47011 56.5685C15.6827 51.5585 27.8752 46.8516 32.5019 46.6841C27.4449 59.9047 21.3276 73.8514 16.3779 79.6687C12.9725 83.6269 9.82631 82.7119 8.84247 77.3614C8.29438 73.7512 6.07684 75.43 6.23544 78.0701C6.86326 88.5203 17.4745 92.4093 24.6658 83.4764C31.03 75.4765 37.365 59.6399 41.8191 45.5723C46.2126 45.198 50.7359 45.147 54.6257 45.5758C48.9663 63.4693 47.3439 80.5684 48.341 86.1389C49.0982 91.3926 58.9985 90.7978 57.6648 85.1372C56.1022 77.503 57.2193 70.3703 58.6135 62.3378C59.4227 57.4316 60.749 51.9423 62.4052 46.4332C65.0981 47.1546 67.6877 47.9926 69.9604 49.0705C73.3332 50.0823 73.4451 46.4324 67.903 44.2261C66.5499 43.7554 64.9835 43.4079 63.417 43.0604C67.1629 31.9058 72.0352 21.1251 76.5822 14.1175C79.6751 8.63249 76.9953 8.13107 73.6405 11.0926C67.2343 16.5559 59.0491 32.8348 55.9543 41.9631C51.6179 41.4509 48.1946 41.4357 42.7978 41.6495C43.7964 38.0567 48.3359 19.8992 45.6053 14.8745C44.8461 13.2641 42.6329 13.1763 41.2759 19.9922C40.5942 23.3451 37.8095 32.1236 34.1076 42.1716C20.2869 43.6643 6.95476 47.7773 1.84452 54.5979ZM99.1158 53.6118C102.526 53.4069 111.181 50.4581 117.024 44.8079C117.651 44.2182 118.251 43.1886 117.422 42.2448C109.079 46.7204 103.718 49.3609 100.948 49.1961C99.9581 49.2555 100.343 46.4724 100.53 45.9092C100.802 41.256 95.9027 40.5568 95.6232 39.58C95.4207 38.0465 93.7178 37.2656 91.4341 37.8444C82.3898 39.823 76.2484 55.2063 78.3875 63.2474C81.4948 74.5423 94.9983 67.7695 99.1158 53.6118ZM93.6223 54.0522C93.3828 59.2554 85.9276 69.308 85.4891 60.1712C85.2115 55.5511 88.489 47.6262 92.5369 45.175C92.1654 48.1781 90.8897 52.6707 93.6223 54.0522ZM111.159 27.4963C112.945 27.8305 115.249 27.5817 112.573 25.3137C111.984 24.6867 111.271 23.8463 111.781 23.1533C113.389 20.5175 120.517 17.8812 129.018 16.0457C123.077 31.0859 115.9 51.2786 116.087 61.7554C116.488 66.5889 119.819 70.5839 124.226 70.4296C131.293 70.4467 146.544 43.1449 147.852 39.2022C147.826 38.7622 146.079 39.088 145.776 39.5478C139.271 48.881 127.966 64.6849 126.093 62.9206C122.109 59.0752 131.58 31.127 137.869 14.5204C145.419 13.4044 152.473 13.2015 158.369 13.9512C160.189 14.8355 162.16 12.7299 160.127 11.9688C156.514 10.6403 148.845 9.77623 139.618 10.5514C141.036 6.60213 141.8 6.44586 142.09 5.76602C142.845 3.62309 137.408 -2.34308 134.682 1.90546L130.817 11.08C117.767 12.5265 108.051 16.2013 106.199 20.287C105.025 22.7864 106.459 26.4538 111.159 27.4963Z" fill="#F63A5F"/>
</svg>
