<svg width="171" height="78" viewBox="0 0 171 78" fill="none" xmlns="http://www.w3.org/2000/svg">
<path opacity="0.15" d="M27.6803 31.3774C30.3483 22.4955 32.3484 -3.01668 18.123 0.929129C13.4524 2.20332 8.84357 6.34421 7.12125 10.7533C6.07643 13.576 8.89259 14.5109 9.56348 12.8146C10.892 9.20194 19.9426 1.81342 21.2125 8.25072C24.4279 23.1823 12.0332 57.599 2.31644 70.4371C-2.59362 76.9145 6.28826 79.5825 9.69366 75.6243C13.5235 69.543 17.4785 60.0318 20.8264 51.4403C32.4034 25.4632 51.1469 12.1932 59.883 6.92114C54.8875 17.4885 42.776 45.5953 41.3845 61.0244C39.8524 77.7869 58.5595 76.7734 69.1628 63.9924C71.6377 61.0837 71.1184 59.7901 68.4476 61.2754C63.7727 64.3162 48.2542 74.3013 50.0748 60.5024C51.2972 49.6097 59.253 25.8374 66.3448 9.73454C69.145 3.05271 62.5005 -0.964106 57.0556 2.123C52.1474 4.95706 36.6468 18.9155 27.6803 31.3774ZM92.5132 46.0296C85.5239 50.9759 81.8627 47.0007 82.4364 40.011C91.2607 38.0457 93.8518 29.7204 94.0033 26.7305C93.959 22.3172 91.3694 21.4791 88.296 21.7742C78.1955 22.7122 73.4025 34.8129 74.5142 44.1301C75.3795 53.0206 83.6543 56.6082 91.3234 51.9523C99.3092 47.0565 106.685 35.6838 111.259 29.1163C111.846 27.8666 109.993 26.4323 108.889 28.265C105.867 33.0834 98.8688 41.563 92.5132 46.0296ZM89.1609 25.1446C91.8297 27.3027 87.7756 35.1638 82.8915 36.5613C83.8745 30.8718 86.3404 25.9765 89.1609 25.1446ZM146.17 22.8237C143.488 25.9656 143.348 32.8189 147.55 34.7744C143.516 42.9656 137.526 49.839 136.027 46.9483C133.668 38.9204 140.751 20.8309 141.092 19.1544C141.296 17.0445 135.706 17.7116 134.232 18.9041C127.52 28.4705 117.351 46.6351 116.372 45.0379C115.639 43.8675 116.058 32.4711 124.554 21.3623C125.273 16.7927 117.386 17.8186 115.971 20.0011C111.114 27.3585 104.665 44.9684 110.557 53.0048C112.08 54.4589 117.087 53.2749 118.412 51.429C122.087 46.4609 127.446 36.4238 130.499 30.2788C128.793 36.7845 126.985 45.2835 128.719 50.2577C129.7 53.7316 135.229 55.7178 138.003 54.1159C142.368 51.4249 147.555 44.0477 151.796 35.6233C155.673 35.832 166.015 31.5675 170.454 26.4432C171.062 25.5235 171.139 24.9669 169.966 23.823C165.887 27.6008 158.599 31.2403 153.602 30.7676C156.156 23.659 151.826 17.7367 146.17 22.8237Z" fill="#86D68E"/>
</svg>
