<svg width="378" height="134" viewBox="0 0 378 134" fill="none" xmlns="http://www.w3.org/2000/svg">
<path opacity="0.25" d="M67.9367 83.4902C76.9772 60.6864 99.781 26.8182 108.282 19.5318C104.099 28.3024 85.2082 66.7584 88.4466 83.76C90.3356 94.5547 105.313 97.7931 114.219 92.5307C126.093 85.3792 118.537 84.9744 114.893 87.4032C105.448 91.991 101.265 88.3478 99.646 83.2203C94.9234 67.9728 115.703 25.3339 118.267 21.016C118.807 15.6187 116.243 9.00697 107.877 12.92C103.829 14.8091 79.0012 45.1691 66.9922 65.1392C69.0162 48.2726 75.7628 24.7942 82.5095 11.7056C83.7239 9.14191 80.6204 -2.73223 75.0882 1.31577C71.31 17.9126 27.0519 79.0374 10.0503 85.784C2.76389 88.7526 5.46255 81.0614 8.83589 77.1483C10.1852 75.1243 7.75642 73.64 5.05775 76.7435C-3.98278 86.7286 1.95429 98.3328 10.9948 97.1184C28.6711 95.7691 48.3714 57.7179 68.0716 29.247C62.6743 44.3595 54.8482 70.9414 56.1975 80.3867C56.1975 86.1888 66.5874 89.0224 67.9367 83.4902ZM157.072 14.2694C152.349 8.19737 146.142 15.3488 145.198 17.6427C142.769 21.6907 143.309 27.4928 146.412 29.112C148.166 29.112 155.587 16.968 157.072 14.2694ZM133.863 41.5259C116.592 70.2667 130.49 70.5366 135.078 67.9728C142.094 63.9248 163.953 49.352 163.279 44.6294C162.874 42.4704 142.634 59.607 136.832 59.7419C134.538 58.3926 138.721 47.0582 142.634 43.28C144.928 40.9862 143.713 38.8272 139.935 38.8272C138.451 38.8272 135.213 39.9067 133.863 41.5259ZM234.566 44.4944C235.51 43.28 236.05 39.6368 233.621 42.0656C224.041 49.8918 215.405 54.0747 207.309 58.6624C204.476 47.7328 202.586 36.6683 210.682 32.7552C212.976 31.6758 213.381 29.7867 210.548 29.3819C204.88 28.5723 197.324 31.9456 195.165 40.3115C185.855 47.0582 174.925 59.0672 172.361 61.7659C169.663 56.0987 171.417 41.391 178.568 37.343C179.378 36.9382 179.243 35.184 177.624 35.319C163.051 35.9936 155.9 52.3206 168.044 64.5995C154.01 75.3942 159.543 82.0059 165.075 81.0614C168.313 80.5216 172.361 77.0134 174.385 68.7824C175.87 63.3851 186.125 52.8603 194.895 44.8992C195.03 52.8603 200.158 59.0672 200.832 62.1707C196.784 64.7344 193.006 67.4331 189.903 70.8064C179.918 81.3312 190.308 92.1259 201.507 84.8395C209.333 79.9819 211.357 70.6715 208.793 62.5755C219.723 55.6939 232.002 48.8123 234.566 44.4944ZM192.871 74.8544C194.625 72.6955 197.459 70.2667 200.967 67.703C200.293 72.5606 197.594 76.7435 195.165 78.6326C191.117 82.0059 187.474 81.0614 192.871 74.8544ZM261.882 14.2694C257.16 8.19737 250.953 15.3488 250.008 17.6427C247.579 21.6907 248.119 27.4928 251.223 29.112C252.977 29.112 260.398 16.968 261.882 14.2694ZM238.674 41.5259C221.402 70.2667 235.3 70.5366 239.888 67.9728C246.905 63.9248 268.764 49.352 268.089 44.6294C267.684 42.4704 247.444 59.607 241.642 59.7419C239.348 58.3926 243.531 47.0582 247.444 43.28C249.738 40.9862 248.524 38.8272 244.746 38.8272C243.261 38.8272 240.023 39.9067 238.674 41.5259ZM288.102 65.9488C288.236 72.4256 293.499 75.3942 299.436 73.1003C307.532 69.9968 324.399 50.2966 326.018 45.7088C326.153 45.304 323.724 45.5739 323.184 46.1136C318.327 51.7808 302.674 67.1632 299.031 67.1632C294.983 67.1632 300.515 52.3206 303.214 45.7088C304.294 42.6054 306.452 35.184 301.73 35.184C292.419 35.184 277.712 57.7179 273.529 62.8454C275.688 55.1542 279.601 48.1376 281.085 42.7403C282.704 37.4779 282.164 36.6683 277.577 36.6683C275.553 36.6683 269.886 38.8272 269.886 40.4464C270.425 45.8438 263.004 65.1392 260.17 72.1558C258.956 77.0134 263.004 78.9024 269.616 78.9024C274.338 69.4571 283.109 55.424 292.015 46.1136C292.689 45.439 293.229 46.1136 293.094 46.6534C291.745 50.4315 287.832 59.3371 288.102 65.9488ZM342.567 32.6203C331.503 32.7552 323.811 50.4315 321.787 58.7974C320.303 64.4646 325.431 67.8379 327.05 67.8379C334.606 68.3776 343.647 55.424 347.695 51.2411C347.83 54.2096 346.615 61.9008 345.671 62.5755C333.527 73.5051 314.636 93.2054 305.865 111.961C302.492 118.843 296.825 133.146 310.588 133.146C338.924 128.963 351.878 82.9504 353.767 63.3851C354.711 57.1782 374.816 47.328 376.975 45.8438C377.245 45.7088 376.705 44.8992 376.3 44.8992C371.983 44.6294 356.735 53.1302 354.846 54.8843C354.576 55.1542 354.711 45.304 354.171 41.5259C353.497 35.7238 346.615 32.6203 342.567 32.6203ZM309.913 128.018C301.817 121.676 332.177 80.7915 345.671 67.2982C341.488 87.1334 323.002 121.946 309.913 128.018ZM331.098 56.5035C334.741 47.5979 341.623 38.4224 344.726 38.4224C346.48 38.4224 347.964 43.415 347.83 43.8198C345.536 49.0822 335.416 58.9323 331.368 60.6864C330.153 60.6864 330.153 58.7974 331.098 56.5035Z" fill="#C6C6C6"/>
</svg>
