<svg width="451" height="124" viewBox="0 0 451 124" fill="none" xmlns="http://www.w3.org/2000/svg">
<path opacity="0.25" d="M37.6818 18.3894C30.5303 33.7718 5.29778 85.4513 0.710042 107.445C-0.234492 110.954 4.08338 115.676 8.13138 112.978C28.3714 99.2145 53.8738 97.5953 68.3116 98.4049C74.7884 98.8097 71.2802 95.3014 67.2322 94.6267C53.7388 91.6582 27.157 93.5473 12.854 98.8097C13.9335 90.039 31.7447 53.3371 43.4839 34.3115C50.7703 22.5723 40.9202 11.3729 37.6818 18.3894ZM73.087 77.0854C64.1814 82.6177 59.9985 77.4902 61.2129 68.9894C72.1425 67.2353 75.9206 57.2502 76.3254 53.607C76.5953 48.2097 73.4918 46.9953 69.7137 47.1302C57.2998 47.535 50.5531 61.9729 51.2278 73.4422C51.6326 84.3718 61.4827 89.3643 71.1979 84.2369C81.3179 78.8395 91.1681 65.4811 97.2401 57.7899C98.0497 56.3057 95.8907 54.4166 94.4065 56.5755C90.3585 62.2427 81.183 72.0929 73.087 77.0854ZM70.5233 51.3131C73.6268 54.1467 68.0945 63.4571 62.0225 64.8065C63.6417 57.9249 67.015 52.1227 70.5233 51.3131ZM88.0172 38.0897C90.1761 38.6294 93.0097 38.4945 89.9062 35.5259C89.2316 34.7163 88.422 33.6369 89.0966 32.8273C91.2556 29.7238 100.161 27.0251 110.686 25.4059C102.32 43.3521 92.0652 67.5051 91.5254 80.3238C91.6604 86.2609 95.4385 91.3883 100.836 91.5233C109.472 92.063 130.116 59.8139 132.005 55.0913C132.005 54.5515 129.847 54.8214 129.442 55.3611C120.806 66.2907 105.828 84.7766 103.669 82.4827C99.0817 77.4902 112.71 44.0267 121.616 24.1915C130.926 23.3819 139.562 23.6518 146.713 25.0011C148.872 26.2155 151.436 23.7867 149.007 22.7073C144.689 20.8182 135.379 19.199 124.044 19.4689C126.068 14.7462 127.013 14.6113 127.418 13.8017C128.497 11.2379 122.29 3.54674 118.647 8.53927L113.25 19.4689C97.1926 20.2785 85.0486 24.0566 82.4849 28.9142C80.8657 31.8827 82.35 36.4705 88.0172 38.0897ZM140.918 37.5499C144.831 35.1211 162.508 15.0161 150.094 13.3969C145.101 12.7222 144.292 15.0161 145.371 17.175C146.721 19.8737 145.371 26.7553 139.164 36.0657C137.815 38.2246 138.625 39.0342 140.918 37.5499ZM183.181 79.6491C183.451 71.2833 206.929 60.2187 209.628 57.655C209.898 57.2502 209.898 56.0358 208.953 56.3057C197.484 60.6235 188.039 66.4257 181.022 72.3627C177.379 65.3462 179.808 52.3926 187.364 48.2097C188.174 47.8049 188.039 46.3206 186.419 46.1857C180.617 45.9158 171.307 51.3131 170.362 61.703C169.958 66.0209 171.307 71.2833 177.244 76.0059C173.196 79.919 170.092 83.6971 168.338 87.0705C164.56 94.087 169.013 99.6193 176.164 94.7617C179.268 92.6027 183.856 85.7211 183.181 79.6491ZM265.875 68.1798C270.193 69.3942 278.289 68.5846 289.893 63.0523C302.712 57.1153 298.124 54.2817 295.965 55.9009C293.671 58.0598 276.94 65.3462 269.518 62.3777C278.964 52.9323 300.283 29.4539 305.815 12.1825C307.974 5.16594 304.601 2.33234 301.632 1.25287C295.156 -0.906061 286.655 6.78514 275.725 25.6758C259.803 52.9323 241.587 95.3014 245.5 115.541C246.31 119.724 249.278 125.122 254.541 123.368C256.835 122.423 261.422 119.05 264.256 111.898C268.844 99.3494 269.923 80.1889 265.875 68.1798ZM297.18 6.38034C302.847 -0.231395 300.418 11.5078 298.394 15.8257C292.997 27.6998 279.099 44.8363 269.923 56.9803C276.13 42.4075 290.703 13.9366 297.18 6.38034ZM263.581 71.9579C263.446 72.4977 265.2 107.31 254.406 117.43C251.842 111.628 263.581 71.6881 263.581 71.9579ZM327.787 25.1361C323.065 19.0641 316.858 26.2155 315.913 28.5094C313.484 32.5574 314.024 38.3595 317.128 39.9787C318.882 39.9787 326.303 27.8347 327.787 25.1361ZM304.579 52.3926C287.307 81.1334 301.206 81.4033 305.793 78.8395C312.81 74.7915 334.669 60.2187 333.994 55.4961C333.59 53.3371 313.35 70.4737 307.547 70.6086C305.254 69.2593 309.436 57.9249 313.35 54.1467C315.643 51.8529 314.429 49.6939 310.651 49.6939C309.167 49.6939 305.928 50.7734 304.579 52.3926ZM354.007 76.8155C354.142 83.2923 359.404 86.2609 365.341 83.967C373.437 80.8635 390.304 61.1633 391.923 56.5755C392.058 56.1707 389.629 56.4406 389.089 56.9803C384.232 62.6475 368.579 78.0299 364.936 78.0299C360.888 78.0299 366.42 63.1873 369.119 56.5755C370.199 53.4721 372.358 46.0507 367.635 46.0507C358.324 46.0507 343.617 68.5846 339.434 73.7121C341.593 66.0209 345.506 59.0043 346.99 53.607C348.609 48.3446 348.07 47.535 343.482 47.535C341.458 47.535 335.791 49.6939 335.791 51.3131C336.33 56.7105 328.909 76.0059 326.075 83.0225C324.861 87.8801 328.909 89.7691 335.521 89.7691C340.243 80.3238 349.014 66.2907 357.92 56.9803C358.594 56.3057 359.134 56.9803 358.999 57.5201C357.65 61.2982 353.737 70.2038 354.007 76.8155ZM406.583 70.0689C406.448 75.7361 406.853 80.9985 408.337 84.2369C411.306 90.7137 417.513 92.4678 426.553 85.3163C438.158 76.2758 451.381 55.0913 450.571 54.0118C450.167 53.4721 448.547 54.0118 448.143 54.8214C441.261 65.6161 434.379 73.3073 429.117 77.4902C414.409 89.3643 413.87 72.4977 416.029 59.1393C426.688 46.4555 436.808 34.0417 444.769 18.9291C447.198 14.2065 448.143 10.1585 447.198 7.05501C443.69 3.14194 435.459 3.007 431.816 5.84061C422.505 13.127 412.25 33.9067 409.012 51.3131C396.463 41.463 382.43 71.4182 386.478 79.6491C388.367 82.4827 390.931 83.2923 393.225 82.7526C395.384 82.2129 397.678 80.4587 406.583 70.0689ZM440.451 10.8331C444.634 15.5558 427.093 38.0897 417.108 52.1227C421.291 34.8513 430.331 17.9846 440.451 10.8331ZM408.202 56.0358C407.528 59.1393 407.123 61.5681 406.853 64.5366C404.289 67.5051 401.051 71.4182 397.273 73.3073C390.931 76.1409 402.265 53.7419 408.202 56.0358Z" fill="#50D1FE"/>
</svg>
