<?xml version="1.0" standalone="no"?>
<!DOCTYPE svg PUBLIC "-//W3C//DTD SVG 1.1//EN" "http://www.w3.org/Graphics/SVG/1.1/DTD/svg11.dtd" >
<svg>
<metadata>
Created by FontForge 20090622 at Wed Sep 18 17:11:11 2019
 By deploy user
Copyright (c) 2017 by Majestype. All rights reserved.
</metadata>
<defs>
<font id="QuenteScript-Bold" horiz-adv-x="273" >
  <font-face 
    font-family="Quente Script Bold"
    font-weight="700"
    font-stretch="squinchy"
    units-per-em="1000"
    panose-1="0 0 0 0 0 0 0 0 0 0"
    ascent="590"
    descent="-410"
    x-height="247"
    cap-height="525.5"
    bbox="-467.19 -493.519 2109.29 675.789"
    underline-thickness="50"
    underline-position="-50"
    unicode-range="U+000D-U+FB00"
  />
<missing-glyph horiz-adv-x="301" 
 />
    <glyph glyph-name="a_a" unicode="aa" horiz-adv-x="691" 
d="M261 166q-8 -19 -14.5 -41t-9 -39.5t1.5 -28t18 -6.5q13 3 27.5 12.5t29 22.5t28.5 28t26 30q6 20 15.5 38.5t22 32.5t27.5 22.5t33 8.5q8 0 22 -4.5t24 -13.5q5 -3 5.5 -11t-2 -14t-7.5 -8t-12 7q-8 11 -18.5 3.5t-20 -24t-17.5 -37.5t-10.5 -37.5t1 -23t16.5 6.5
q23 22 47 50.5t49 73.5q6 10 16.5 15t21 3.5t18.5 -9.5t8 -23q-1 -10 -5.5 -27l-9.5 -35.5t-8.5 -35.5t-1 -28t12.5 -13.5t32 9.5q16 8 35 24t38 35l37 37.5l31 32.5q11 12 11.5 0t-11.5 -29q-12 -16 -29 -35.5t-36.5 -39t-39 -37t-35.5 -29.5q-33 -25 -56.5 -29.5t-37 6.5
t-17.5 35.5t2 57.5q2 19 7 38q-30 -50 -61.5 -85t-60.5 -37q-23 -2 -37.5 17.5t-11.5 56.5q-35 -42 -68 -69.5t-60 -27.5q-32 0 -46 28t-6 74q-26 -35 -50 -59t-47 -31q-15 -4 -30 3.5t-24 27.5q-9 27 1.5 68.5t33.5 80t54 66.5t63 28q27 0 46 -10t30.5 -26t13.5 -36.5
t-5 -39.5zM214 190q0 8 -1 17.5t-4 16.5t-8.5 9.5t-14.5 -3.5q-20 -14 -39.5 -38.5t-34.5 -50t-22.5 -47t-3.5 -27.5q5 -8 22 3t37 31.5t39 45.5t30 43z" />
    <glyph glyph-name="b_b" unicode="bb" horiz-adv-x="623" 
d="M315 109q10 52 31.5 108t49.5 107.5t60.5 95.5t64.5 73t61.5 39t52.5 -5q18 -12 19.5 -37.5t-10 -59.5t-35.5 -73t-57 -79.5t-74.5 -79.5t-88.5 -71q-4 -17 -6 -38t0 -36q1 -21 6.5 -39t14.5 -23.5t21 6.5t28 51q-19 19 -17.5 38.5t14.5 34t31 22.5t32 5.5t18 -18.5
t-11 -48q16 -9 40.5 -2.5t50.5 23t50 39t39 45.5q2 2 10 1t8 -4q-11 -33 -38.5 -62t-60 -49.5t-65 -30t-53.5 -2.5q-11 -32 -34 -57t-58 -31q-17 -3 -34.5 2.5t-32 17.5t-23.5 31t-9 45v21q-31 -19 -61 -27.5t-50 -1.5q-9 -25 -23.5 -47.5t-31 -38t-34.5 -22t-33 0.5
q-41 19 -54.5 59.5t-7.5 94t29 114.5t55.5 120t72 111.5t79 89t75.5 52t62 0.5q21 -12 20.5 -37t-15.5 -57.5t-41 -70t-57.5 -75t-64 -72l-60 -61.5t-47 -43.5t-24.5 -17.5q-8 -24 -12 -52t-4.5 -52.5t3 -41.5t11.5 -19q4 -1 8.5 -1.5t9.5 6t12.5 24t18.5 52.5
q-3 19 -4.5 39t4.5 37.5t23 30t52 15.5q10 -1 12 -14t0 -29.5t-6.5 -31.5t-8.5 -21q13 -8 31.5 -2.5t37.5 17.5q15 3 28 12zM340 501q-72 -56 -132 -140.5t-95 -178.5q77 69 124 128.5t71.5 103t30.5 67t1 20.5zM565 433q-21 -22 -44.5 -51t-45.5 -62.5t-41 -70.5t-32 -74
q34 28 64 61t55 65.5t44 63.5t32 56q13 27 14.5 36.5t-4.5 8t-18 -11.5z" />
    <glyph glyph-name="c_c" unicode="cc" horiz-adv-x="562" 
d="M203 193q2 46 -21 42t-65 -57q-24 -30 -37 -59t-16 -52t3 -38.5t21 -19.5q10 -3 32 3.5t50.5 23t61.5 43t66 64.5q13 32 35.5 62t49.5 42q23 10 38.5 3t22.5 -39q1 -8 -3 -13.5t-11 -10t-14.5 -8t-11.5 -6.5q-13 -8 -23.5 -24t-16.5 -34.5t-7 -37t6 -31.5t23.5 -18
t44.5 3q22 6 52.5 25t61.5 44t58.5 53t43.5 54q10 14 16 15.5t8 -3.5t0.5 -13.5t-6.5 -14.5q-20 -28 -46 -58.5t-56 -59t-63.5 -52t-69.5 -36.5q-41 -15 -69.5 -11.5t-46.5 19.5t-25 42t-4 55q-36 -39 -73 -68.5t-70 -47.5t-59.5 -24.5t-41.5 0.5q-23 11 -35.5 30t-14.5 43
q-2 25 4.5 55.5t19.5 61t33 57.5t45.5 46t55 27t63.5 0q9 -2 12.5 -10t3 -18.5t-3 -20.5t-5.5 -17q-6 -8 -16 -11z" />
    <glyph glyph-name="d_d" unicode="dd" horiz-adv-x="704" 
d="M432 39q-30 -33 -54.5 -40.5t-45.5 23.5q-5 10 -3 30q-31 -27 -63 -46t-59 -18.5t-45 24.5t-20 82l-47 -55q-29 -33 -54 -40.5t-46 23.5q-6 14 -1.5 40t15.5 55t28 57t37.5 46.5t42.5 23.5t43 -12q11 48 28 97t39.5 93.5t50 82t59.5 63.5q10 8 24.5 11.5t30 3t29.5 -6
t24 -16.5q6 -21 -3 -51.5t-28 -65t-46 -72.5l-55.5 -74.5l-56.5 -69.5l-49 -59q-8 -48 -3 -84t20 -43q20 -8 49 8.5t64 55.5q11 32 29.5 66.5t41 58.5t47.5 31.5t49 -13.5q3 17 11 49.5t20.5 69t31 73.5t42.5 63.5t55 37.5t69 -3q17 -5 23.5 -15t5.5 -24t-7 -30t-14 -33
q-22 -42 -44.5 -75.5t-46.5 -64l-50 -61l-56 -65.5q-6 -38 -7 -72t8 -55.5t29.5 -26t56.5 16.5q13 8 32.5 24t41 38.5t43.5 50.5t40 60q2 5 9 7t9 -1q3 -3 -12.5 -30t-41 -63.5t-58.5 -75t-65 -63.5q-39 -31 -67 -34t-46.5 14.5t-27 52.5t-7.5 81zM399 523q-27 -21 -51 -50
t-44.5 -63t-37.5 -71.5t-30 -74.5l-13 -35l57.5 80l59 85.5t45 76t14.5 52.5zM686 479q-19 -14 -37.5 -40.5t-36 -61t-32 -75t-25.5 -81.5l48 66.5t46.5 65.5t37 60.5t20.5 50.5q4 19 -3 21t-18 -6zM498 218q-11 4 -26.5 -11t-30.5 -38.5t-27 -49t-15.5 -43t3.5 -20t30 21.5
q16 16 25 26.5l25 29.5q2 17 7 42t9 42zM152 190q-14 4 -29.5 -8.5t-28.5 -32t-22.5 -41.5t-11.5 -36t5 -15.5t28 19.5l14 14.5l11.5 13l11.5 14t14 16.5q2 17 3 28t5 28z" />
    <glyph glyph-name="e_e" unicode="ee" horiz-adv-x="506" 
d="M428 41q23 14 46.5 33.5t44.5 40.5t39 41.5t29 36.5q4 6 8.5 7t8 -1.5t5 -6.5t-0.5 -8l-38.5 -49t-46.5 -55.5t-52.5 -52t-55.5 -39.5q-27 -14 -53 -15t-47 10t-34.5 33t-14.5 52q0 2 -0.5 4.5t-0.5 4.5q-35 -43 -75.5 -76.5t-82.5 -38.5q-22 -2 -38.5 9.5t-27.5 31
t-16 44t-3 47.5q3 35 15.5 71t32.5 65t46.5 47.5t58.5 18.5q23 0 35.5 -13.5t15.5 -33.5t-3.5 -43.5t-22 -44.5t-39 -36t-55.5 -17q-6 -2 -9.5 -17t-3 -33t6.5 -32.5t19 -14.5q12 0 30.5 11t39.5 28.5t42.5 38t39.5 39.5q6 25 17 49t28 42.5t39 30.5t49 13q21 1 36 -8.5
t13 -39.5q-1 -10 -7.5 -27.5t-19.5 -35t-34 -32t-51 -19.5q-3 -24 1 -42t15 -27t29 -7.5t42 16.5zM112 135q13 3 29 19.5t28 37.5t16.5 40t-4.5 27q-7 0 -18.5 -16t-22 -37t-19 -41.5t-9.5 -29.5zM410 232q-20 -5 -37 -33.5t-26 -66.5q16 4 31.5 17t25 29t12.5 31t-6 23z
" />
    <glyph glyph-name="f_f" unicode="ff" horiz-adv-x="524" 
d="M104 107q11 -33 13.5 -75t-2 -85.5t-14 -86t-22.5 -77.5q-16 -40 -31 -60t-28 -25q-8 -3 -19 -4t-22 0.5t-19.5 8t-11.5 18.5q-11 37 -8 87t16 108t35 121.5t49.5 127.5t58.5 126t63 117q61 106 116 158.5t91 40.5q17 -6 27 -26t-2 -59q-15 -48 -48.5 -102.5
t-72.5 -105.5t-77.5 -94.5t-64.5 -69.5q22 -8 47 -6t50 10t48 19.5t41 23.5q26 58 56 113.5l61 108.5q61 106 110.5 151t84.5 33q17 -6 27.5 -24t-1.5 -57q-10 -29 -32.5 -65t-54 -75t-70 -78t-80.5 -74l-19 -39t-16 -36q21 -9 53 -5.5t63.5 12.5t57 19.5t31.5 16.5
q6 4 13 2.5t6 -8t-15 -19t-50 -28.5q-64 -31 -109 -38t-68 0q23 -67 17 -135t-32 -138q-16 -40 -31.5 -59.5t-28.5 -24.5q-25 -9 -40.5 1.5t-24 29.5t-11 41t-1.5 36q7 71 30 147t57 154q-21 -13 -45 -25t-49.5 -20t-51 -10.5t-50.5 3.5zM357 540q7 39 -2.5 39t-28.5 -26
t-45.5 -72t-53.5 -98l-52 -103.5t-41 -89.5q42 44 80.5 97t68.5 103t50 90.5t24 59.5zM87 79q0 1 -6.5 -20.5t-15.5 -54l-19 -72t-17.5 -76t-11 -65t1.5 -39.5q20 19 32.5 50t20 67t11 73t4.5 67t0.5 49.5t-0.5 20.5zM348 79q0 1 -5.5 -17.5l-14 -46.5t-17.5 -62t-15.5 -66
t-9 -57.5t2.5 -36.5q20 19 32 47.5t18.5 59.5t8.5 63t2 57t-1 41.5t-1 17.5zM634 541q2 19 -4.5 19t-20 -14.5t-32 -40.5t-39 -59.5l-43 -72t-42.5 -76.5q35 36 67 74t57 72t40 60t17 38z" />
    <glyph glyph-name="g_g" unicode="gg" horiz-adv-x="684" 
d="M515 290q11 0 25.5 -4.5t27 -12.5t22 -20.5t11.5 -28.5q1 -11 2 -28t1.5 -33t0.5 -27.5t1 -10.5q5 5 26 17.5t46.5 25t50 22.5t36.5 9q2 0 4.5 -3t0.5 -4q-4 -3 -18 -10.5l-32.5 -18t-39 -23.5t-38.5 -26.5t-30 -27t-14 -24.5q-4 -36 -14 -86.5t-28.5 -105t-44 -109.5
t-60 -100.5t-78 -76.5t-95.5 -39q-38 0 -51.5 16.5t-12 40.5t12 50.5t19.5 45.5q25 52 61 105t76 101.5t80.5 91t74.5 72.5q3 2 5.5 12t5 23.5t3.5 27t1 21.5q-11 -12 -28.5 -33t-38 -41.5t-43 -35.5t-43.5 -13q-5 0 -13 4.5t-15 13t-11 21t0 28.5q4 14 10.5 33.5t15.5 39.5
l-41.5 -26.5l-33.5 -21.5l-28 -19.5l-26 -19.5q-7 -41 -18.5 -88t-27 -94.5t-35.5 -93.5t-43.5 -86t-51 -72t-57.5 -51q-28 -17 -51.5 -17t-40.5 11t-26.5 30t-9.5 40q1 45 26 97.5t66 106t94 106t110 97.5q3 21 4.5 42t2.5 42l-29 -32.5t-39 -41t-43.5 -35t-43.5 -12.5
q-5 0 -11.5 4t-12 12.5t-8 20.5t1.5 28q6 23 19 55.5t32.5 62.5t45 51.5t56.5 21.5t50 -18.5t29.5 -44.5t13 -55t0.5 -51l30 20l39 25l42 26t38 22q20 32 46.5 55t58.5 24zM272 -419q24 11 51.5 38.5t54.5 65.5t52 83t46.5 91t37 90.5t23.5 81.5q-25 -25 -58.5 -65t-68 -86
t-66 -94t-52.5 -89.5t-28 -72.5t8 -43zM-60 -302q-5 -20 -6 -34t4 -19.5t16 -1.5t31 20q75 65 124.5 160.5t75.5 199.5q-46 -39 -86.5 -79.5t-73 -81.5t-54.5 -82.5t-31 -81.5zM87 114q-3 -9 -3 -15.5t7 -6.5q11 5 27 18.5t32 30.5t30 34.5t21 31.5q1 1 -0.5 6.5t-4.5 11.5
t-7.5 11.5t-9.5 5.5q-9 0 -22.5 -13t-26.5 -33t-25 -42t-18 -40zM432 118q-3 -10 -1.5 -20t8.5 -10q11 5 26.5 18t31 29t29 33t20.5 31q0 1 -2 8t-6 14.5t-9 14t-10 6.5q-9 0 -21.5 -12.5t-24.5 -31.5t-23 -40.5t-18 -39.5z" />
    <glyph glyph-name="h_h" unicode="hh" horiz-adv-x="757" 
d="M601 -90q-26 0 -36.5 16t-10.5 41t7 56t17 60l18.5 53.5t11.5 37t-3 10t-26 -27.5l-76.5 -103.5t-30.5 -54.5q-3 -12 -18 -16.5t-31 -0.5t-27 16t-6 33l2.5 15l3.5 20q-84 -81 -138 -96.5t-71 16.5q-10 20 -8.5 47t8.5 54t16 50.5l13.5 36t0 10t-24.5 -26.5l-76 -102
t-30 -53q-3 -12 -19.5 -17t-34.5 -2.5t-30.5 14t-7.5 32.5q3 23 14 71.5t31 108.5t49.5 124t68.5 117t88.5 88.5t109.5 39.5q31 2 31.5 -22t-18.5 -62.5t-53 -85.5t-71 -91.5t-71.5 -81t-55.5 -53.5q-8 -27 -13.5 -49.5t-8.5 -40.5q9 6 32 31.5l48.5 54.5t48.5 52t33 23
q9 0 17 -4.5t13.5 -11.5t8 -14t1.5 -12q-4 -13 -8 -23l-18 -50.5t-16 -54t-5 -42.5t15 -17q10 0 25.5 6.5t33 17.5t37 26.5t37.5 32.5q2 2 3 -0.5t3 -4.5q9 39 24.5 90t37 104.5t49.5 104.5t62.5 90.5t75.5 63.5t89 23q32 -1 36 -22.5t-11 -56t-45 -77.5t-67 -87t-77 -84.5
t-74 -68.5q-8 -27 -13.5 -49t-8.5 -40q5 5 17 18.5l28 31.5l34 37.5l34 35.5t29 26.5t20 10.5q9 0 17.5 -5t15 -12.5t9.5 -15t2 -12.5q-4 -13 -8 -23l-19 -53t-18.5 -59.5t-7.5 -48.5t14 -20q12 0 40 23.5t60 56.5t62 67.5t45 57.5q1 2 7.5 0t6.5 -6q-3 -10 -19.5 -36
t-41.5 -59.5t-55 -68.5t-59 -64.5t-54 -47.5t-40 -16zM734 544q-36 -12 -68 -44.5t-59.5 -77t-49.5 -96t-38 -100.5q60 60 101.5 117.5t67 102t36.5 71.5t10 27zM347 544q-36 -12 -68 -44.5t-59.5 -77t-49.5 -96t-38 -100.5q60 60 101.5 117.5t67 102t36.5 71.5t10 27z" />
    <glyph glyph-name="i_i" unicode="ii" horiz-adv-x="380" 
d="M271 229q10 6 20.5 9t18.5 3q21 0 29.5 -13t-4.5 -26q-11 -11 -25 -32t-24.5 -43.5t-15.5 -40.5t1 -22q17 6 38.5 19.5t44.5 30l45.5 34l40 30.5t28.5 20t12 3q1 -9 -12 -25t-34.5 -35.5t-48.5 -40.5l-53 -40.5t-49 -34.5t-36 -22q-10 -6 -23 -4.5t-20.5 14.5t-6.5 39
t19 70l-37.5 -28.5l-37.5 -27t-34 -22.5l-26 -16q-13 -7 -29.5 -2.5t-22 29.5t8 73t61.5 128q19 12 35 12q22 0 33 -14t-2 -27q-11 -11 -24.5 -32.5t-23.5 -44.5t-14 -41.5t2 -22.5q13 6 29.5 16t34.5 22.5l36.5 26l36.5 25.5q6 12 13.5 25.5zM466 486q-4 -8 -19 -33.5
l-32.5 -54t-33 -50.5t-20.5 -22q-13 7 -19.5 29.5t6.5 45.5q3 6 17 26.5t32 39t37 27.5t32 -8zM246 431q-4 -8 -14.5 -25l-22.5 -35t-22.5 -31.5t-15.5 -13.5q-6 3 -11 11t-7.5 18.5t-1 22.5t8.5 23q3 6 11.5 18t21 20t26.5 8.5t27 -16.5z" />
    <glyph glyph-name="j_j" unicode="jj" horiz-adv-x="419" 
d="M82 273q4 18 17 20.5t26.5 -3t22.5 -16t6 -19.5l-50 -159q48 37 90 66q29 20 53 35t41 23q8 8 16 8t17.5 -4t17 -9.5t11.5 -11.5t2 -12q-8 -27 -19 -52t-24 -61l-8 -21q108 87 192 130q10 0 5 -14l-61.5 -44l-53 -38.5t-49.5 -38.5t-50 -44q-29 -80 -54 -142.5
l-43 -104.5q-10 -24 -27 -49.5t-37.5 -46.5t-43.5 -33t-45 -8q-26 5 -34 25.5t-3 48.5q6 28 24 61.5t45.5 69.5t62.5 73t74 73l15 37l32 104.5l18 56.5q2 5 3 9t-7 -1l-30 -22.5l-34 -25.5l-55 -43l-60 -49q-24 -68 -50.5 -133t-58 -123t-69.5 -106t-83 -82
q-20 -15 -40.5 -19.5t-38 -1.5t-29.5 13.5t-15 27.5q-6 38 17 86t66 100.5t101 107.5t120 106l38 125.5t23 78t11.5 40t4.5 12.5zM-248 -348q2 -11 21 -5t51 39q15 15 35.5 42.5t42.5 63.5t43.5 78.5t38.5 86.5q-51 -45 -94 -90.5t-74.5 -86t-48.5 -74t-15 -54.5zM116 -165
q-57 -68 -74 -114.5t-8 -54.5q5 -4 16.5 5.5t29 37t41 74.5t53.5 118l-28.5 -31.5zM255 491q-6 -14 -20 -33t-28.5 -35t-26.5 -26t-14 -6q-12 10 -12.5 31.5t6.5 43.5t20.5 38.5t30.5 16.5q8 0 22 -8.5t22 -21.5zM426 414q-6 -15 -19 -35t-26.5 -37t-24 -27.5t-12.5 -6.5
q-11 10 -12 32.5t6 45.5t21 40.5t34 17.5q8 0 16.5 -8.5t16.5 -21.5z" />
    <glyph glyph-name="k_k" unicode="kk" horiz-adv-x="715" 
d="M517 287q-52 -87 -75 -169q14 22 37.5 44.5t47.5 41t43.5 30.5t26.5 13q20 3 27 -9t5 -23q-3 -14 -24 -30.5t-46 -33t-46 -32t-25 -28.5q-5 -45 24 -50t85 20q26 12 51.5 26.5l48 28.5t39.5 26t27 18q20 13 25 11.5t-17 -27.5l-60.5 -52t-68.5 -51t-68.5 -38t-60.5 -15
q-29 0 -44 13t-22 29.5t-9 33l-3 24.5q-7 -20 -13.5 -49.5t-11.5 -61t-7.5 -60t-0.5 -47.5q-20 -3 -31 10.5t-15.5 36t-4 51t4 57t8 53t8.5 38.5q-63 -71 -116 -115t-87 -44q-29 0 -45.5 17.5t-25 40t-11.5 44t-4 29.5q-14 -41 -22.5 -91.5t-5.5 -88.5q-19 -13 -30.5 -10
t-17 16.5t-6.5 34t0.5 43t4.5 43t6 34.5q13 64 34 128t47 122t54.5 106.5t56.5 81.5q18 22 35.5 29t30 2.5t18.5 -19t0 -36.5q-13 -32 -37.5 -68.5l-53 -80.5t-57 -97t-50.5 -119q14 22 37.5 43t47.5 38t43.5 27.5t26.5 10.5q9 0 18.5 -2t7.5 -13q-3 -28 -23 -47
t-43.5 -33.5l-43.5 -26t-24 -24.5q-1 -42 11 -59.5t31.5 -17t46 15.5t55 38.5t56.5 52l53 55.5q14 45 34 93.5t42.5 94.5t46 85.5t45.5 65.5q18 22 35 29t29 2.5t17.5 -19.5t-0.5 -37q-8 -26 -21 -49.5t-29 -47.5l-34.5 -49.5t-37.5 -56.5z" />
    <glyph glyph-name="l_l" unicode="ll" horiz-adv-x="456" 
d="M349 -136q7 -4 11 -9.5t3.5 -9.5t-5.5 -5.5t-16 1.5q-21 6 -39 20t-31 33.5t-21 43t-11 47.5q-37 -42 -71.5 -64t-64 -25t-51.5 14t-35 54q-13 38 -10 92.5t18 114.5t40 121t55.5 113t65.5 90t69 52q11 5 23.5 7t23.5 -2t18.5 -15t8.5 -32q-5 -33 -24 -78t-49.5 -92.5
t-70 -92t-84.5 -75.5q-14 -53 -20 -90t-7 -70q-1 -35 7 -52t20.5 -20t29.5 5.5t35.5 23t36.5 33.5t33 37q0 14 0.5 28.5t2.5 24.5q8 65 30 136.5t57 143.5l21.5 43.5t28.5 48.5t35.5 46t43.5 37q18 12 37 17t34 2t23.5 -14.5t5.5 -33.5q-10 -40 -34.5 -97.5t-58.5 -121.5
t-75.5 -129.5t-84.5 -120.5q-8 -84 7.5 -125.5t38.5 -54.5zM314 114q49 67 89 135.5t67 124t38 90.5t4 37q-2 1 -3 1t-6 -4q-37 -33 -68.5 -86t-56 -109.5t-41 -107.5t-23.5 -81zM113 206q26 22 55 61.5t54 82t43.5 81t24.5 58.5q4 11 1.5 14.5t-10.5 -4.5
q-27 -26 -52.5 -62.5t-47.5 -77t-39.5 -80.5t-28.5 -73z" />
    <glyph glyph-name="m_m" unicode="mm" horiz-adv-x="970" 
d="M653 56q1 6 2 15t3.5 23.5t7 35.5t12.5 52l-26 -27t-26.5 -35t-33.5 -57t-46 -93q-7 -15 -20.5 -19t-26 0t-21 15t-5.5 25q8 35 18.5 62.5l21.5 54.5l-14 -14l-38 -41.5t-33 -33.5q-35 -32 -58 -34.5t-36.5 9.5t-19 32t-3.5 34q1 13 5.5 28.5t11 35t16.5 44.5t24 57
q0 1 -1 5t-4 2q-30 -23 -55 -57t-45 -66t-35.5 -53.5t-25.5 -18.5q-26 0 -31.5 22t0.5 55q2 13 6 26.5l9 30.5q-34 -38 -61.5 -85t-47.5 -98q-5 -13 -9 -20.5t-8.5 -11t-10 -5t-14.5 -2.5q-5 1 -12 2t-14 3q-9 5 -17 10t-5 20q6 28 18 58.5l25.5 66t26 76t19.5 87.5
q1 5 10 7.5t20.5 1.5t23.5 -7t18 -18l-11 -36.5l-11.5 -36t-10 -27.5t-4.5 -12q0 -2 2 -2q8 0 19 15.5t25.5 34t33.5 34t43 15.5q16 0 18.5 -12t-1.5 -26q-2 -5 -5.5 -17l-7.5 -24.5t-5.5 -22t1.5 -9.5q19 30 40.5 56t42 47t37 36t26.5 22q14 9 26 7.5t20 -10t12 -20
t1 -21.5q-1 -4 -7.5 -20l-15 -37.5t-17 -45.5t-12.5 -44t-2.5 -33.5t13.5 -13.5q9 0 26.5 12.5t36.5 30.5l38 37.5t31 33.5q14 17 20.5 45.5t11.5 59.5q1 5 9 8.5t19.5 5.5t23 2t19.5 -1q4 -1 2 -13t-6.5 -30t-11 -38.5l-12.5 -38l-10 -29l-4 -11.5q0 -2 0.5 -3t1.5 1
q8 12 25 34t37.5 42.5t41.5 34t36 9.5q13 -4 14 -20t-3.5 -34.5t-10.5 -35.5t-7 -22q-1 -2 0 -5.5t3 -3.5l27 37l35 46l34 43t24 29q7 7 20 9t24.5 0t19.5 -7t7 -12q-1 -4 -8 -21.5t-15.5 -42l-17.5 -51.5t-13.5 -50.5t-3 -38.5t12.5 -15q9 0 32 18.5t49 43l49 48t31 33.5
q6 5 14.5 3t6.5 -6q-1 -6 -19 -29.5t-43.5 -53t-54.5 -58t-51 -45.5q-19 -15 -37 -17t-31.5 5.5t-21 23.5t-5.5 39q3 40 38 147q0 1 -1.5 5t-3.5 2q-16 -22 -32 -48l-31.5 -50.5t-31 -45t-30.5 -30.5q-8 -5 -17 -4.5t-16.5 4t-12 9.5t-3.5 12z" />
    <glyph glyph-name="n_n" unicode="nn" horiz-adv-x="752" 
d="M258 -36q-32 -1 -47 13t-19 36t1 49t13.5 53t17.5 48t13 34q1 3 -2 5t-6 -1q-27 -27 -51.5 -60.5t-45.5 -67.5t-39 -67t-31 -59q-37 0 -57 9.5t-13 36.5q8 19 21 54t25.5 72.5t21 70t7.5 47.5q0 9 16.5 17t35.5 8q23 1 30.5 -6t-1.5 -34q-8 -28 -24 -65t-29 -77l24 33
t33.5 44.5t40 47.5t43.5 43.5t43 32t39 12.5q9 0 13 -5.5t4.5 -13t-1.5 -15.5t-4 -14q-1 -3 -8.5 -22l-17.5 -45.5l-20.5 -56t-17 -54.5t-7.5 -41.5t9 -16.5q9 0 30 18.5t46 45l49.5 54.5l41.5 48q5 20 7.5 35.5t1.5 26.5q-1 9 10.5 15t26.5 7.5t28 -1.5t16 -13
q2 -12 -3.5 -32t-14.5 -41.5l-19 -43.5t-16 -39l38.5 46.5t51.5 59t53 51t43 23.5q9 1 17 -5.5t13.5 -15.5t8 -18.5t0.5 -15.5l-13 -31.5t-21.5 -56.5t-14 -54t10.5 -24q10 0 32 16t46.5 38.5t48 46.5t37.5 40q3 3 11 4.5t7 -0.5q-3 -9 -16.5 -27.5t-32.5 -41t-41.5 -46
t-45 -43t-42 -32.5t-31.5 -13q-27 0 -40 12t-16 31.5t1.5 43.5t11.5 47.5t15 43.5l13 32q0 3 -2.5 5t-6.5 -1q-26 -24 -48.5 -52.5t-42 -59.5t-35.5 -61t-29 -57q-37 0 -54.5 11.5t-10.5 38.5q7 18 16.5 45t17.5 56q-19 -26 -42 -54t-45.5 -52t-43 -39.5t-33.5 -15.5z" />
    <glyph glyph-name="o_o" unicode="oo" horiz-adv-x="535" 
d="M186 124q-18 -66 -47 -99.5t-52 -40.5q-19 -6 -34 -2t-25.5 15t-16.5 28t-7 37q-1 29 6 59t19.5 57t29.5 47.5t35 31.5q19 10 29 9.5t16 -6t11.5 -12t16.5 -7.5q21 -1 29.5 -10t10 -20t-1 -21t-3.5 -12q-3 -8 4.5 -12.5t20 -6t27.5 1t27 8.5q16 34 42.5 59.5t58.5 29.5
q21 3 24.5 -6t-3 -22.5t-21 -29.5t-30.5 -27q-7 -11 -13 -32.5t-9 -43.5t-1 -39t13 -19q5 -1 12 3.5t13.5 13t11.5 20t6 23.5q-11 8 -12.5 22t3.5 29t14 28t19 18q21 11 29.5 3.5t10.5 -21t2 -26.5t3 -13q19 -2 57.5 10t95.5 44q5 -7 2.5 -13t-7.5 -10q-21 -18 -45.5 -31
t-47.5 -22t-42.5 -13t-31.5 -4q-10 -32 -26.5 -56.5t-35 -40t-38.5 -19.5t-36 5q-17 10 -26 28.5t-12 39.5t-1.5 41.5t6.5 35.5q-11 -5 -34.5 -8.5t-45.5 -1.5zM148 129q-20 7 -23 28t4 40q-12 -8 -22 -23.5t-17.5 -34.5t-12 -39.5t-5.5 -39.5q-1 -23 9 -25t23.5 9.5t26 34
t17.5 50.5z" />
    <glyph glyph-name="p_p" unicode="pp" horiz-adv-x="767" 
d="M825 186q8 2 14 0t7.5 -6.5t-3 -9.5t-16.5 -8q-48 -14 -84 -29l-65 -28q-5 -10 -11 -19.5l-12 -19.5q-24 -38 -53 -61.5t-54.5 -33.5t-44.5 -7t-22 19q-7 31 29.5 63.5t98.5 61.5q5 10 8.5 21t5.5 22q4 19 5.5 37t-2 27.5t-15 6t-33.5 -27.5t-44.5 -54.5t-44.5 -64.5
t-42.5 -70t-36.5 -72q-7 -15 -16.5 -41.5l-19 -52t-17.5 -44t-11 -18.5q-10 0 -19.5 5t-13.5 21.5t2 47.5t28 82q11 26 23.5 61l26 73.5l26.5 78l25 74.5q-33 -25 -69 -49l-70 -47q-22 -48 -54 -81.5t-59.5 -48t-44 -7.5t-6.5 39q5 16 14.5 29t21.5 26.5t26.5 28t28.5 32.5
q7 16 11 31.5t5.5 28t0.5 20.5t-5 9q-11 3 -27 -10t-35 -36t-39.5 -53t-39 -61t-33.5 -60.5t-24 -50.5l-34 -85.5l-28 -73.5t-20 -51.5t-9 -19.5q-17 4 -25.5 17.5t-8 38t11 62t32.5 88.5q13 30 27 70l28 83l27.5 84l25 74t20.5 53t14 20q42 0 50 -15t-3 -44t-33.5 -71.5
t-40.5 -97.5q8 21 28.5 53t47.5 61.5t57.5 50t58.5 17.5t39 -30t5 -72q43 24 78 47t66 46q11 32 20.5 51.5t14.5 19.5q42 0 48.5 -18t-6 -50.5t-36 -78t-41.5 -100.5q70 105 120 152.5t91 25.5q17 -9 23 -32.5t3 -57.5q-2 -10 -3.5 -19t-3.5 -17l66 23.5t69 21.5zM523 -2
q6 2 22 15t32 33l12 16q-24 -15 -37.5 -27t-20 -20.5t-8 -12.5t-0.5 -4z" />
    <glyph glyph-name="q_q" unicode="qq" horiz-adv-x="623" 
d="M661 -149q5 -11 -3 -12.5t-13 6.5q-16 27 -47 21.5t-64.5 -38.5t-63.5 -90t-43 -131q-4 -11 -18 -8t-28 18t-22.5 40.5t-2.5 59.5q5 38 20 86.5t35 99t43 99t44 86.5q4 6 6.5 11.5t6.5 11.5l-1 -1l-12 -12.5t-13 -12.5v-1l-28 -27.5t-29.5 -27t-27 -21t-18.5 -8.5
q-24 0 -40.5 17.5t-9.5 42.5q9 34 24 67.5t31 57.5l-65 -55t-52 -47.5t-41 -45t-34 -48.5q-19 -32 -36 -71.5t-31 -79t-24.5 -73.5l-16.5 -55q-7 -25 -17.5 -32t-20 0t-16 24.5t-6.5 42.5q7 40 25 91t40 103.5t45 100l40 80.5l-32 -35.5t-36 -36t-34 -27.5t-28 -11
q-24 0 -40.5 17.5t-9.5 42.5q18 64 40 104.5t44 62.5t42.5 27.5t35.5 -1.5q25 -12 26 -42q-1 -20 -8.5 -26t-12.5 6q-1 5 0 15t-3 13q-6 5 -15.5 -4t-20 -25.5t-20.5 -36.5t-17 -38t-8.5 -30.5t4.5 -12.5q8 0 20.5 9t27.5 23t30 31l27.5 32.5t21 27.5t9.5 16l9 38
q1 8 9 11.5t19 3.5q8 0 18 -1.5t17.5 -6t9.5 -12.5t-6 -20q-13 -19 -35.5 -64.5l-49.5 -103.5l80.5 76l77.5 68t68.5 53t52.5 30q7 3 16 3.5t17.5 -2.5t14 -10t7.5 -19q0 -26 -8.5 -36.5t-14.5 3.5q-1 5 0.5 10t-0.5 10q-4 10 -15.5 0t-25 -30.5t-28 -47.5t-25 -51
t-15 -40.5t1.5 -15.5q9 1 30.5 19.5t44 42t40 45t18.5 27.5l4 20q1 8 11.5 12t21.5 4q7 0 16.5 -2t15.5 -6.5t7.5 -12.5t-6.5 -20q-10 -15 -25 -44.5l-33 -67t-36.5 -81l-35.5 -87t-30.5 -84t-21.5 -72.5q6 17 22 37.5t37.5 39.5t45.5 33.5t46.5 19t42 -4t31.5 -34.5z
M534 136q2 0 2 3q-2 -2 -2 -3z" />
    <glyph glyph-name="r_r" unicode="rr" horiz-adv-x="528" 
d="M128 178q-11 -3 -26.5 -4t-31.5 0q-4 -1 -10 1q-46 5 -60.5 28t-5 48.5t39 45.5t71.5 20q19 0 26.5 -9t6.5 -24.5t-10 -35t-23 -40.5q16 1 34.5 4t35 4t29 -0.5t17.5 -9.5q-13 -17 -31 -44t-33.5 -57t-26.5 -58.5t-9 -49.5q11 0 33 15.5t49 41t55.5 58.5t52.5 69
q-23 15 -28.5 43.5t3.5 55.5t32 44.5t58 9.5q19 -4 21 -21.5t-3.5 -38t-15 -39.5t-14.5 -26q12 1 27 3t28.5 2t24.5 -2.5t15 -10.5q-13 -17 -26.5 -39t-25 -45t-18 -46.5t-4.5 -44.5q9 -6 34.5 10.5t57.5 43t65.5 58.5l58.5 58q3 2 5.5 -1.5t0.5 -10.5q-3 -13 -20.5 -36
t-42.5 -49t-55 -52.5t-57.5 -47.5t-50.5 -34.5t-34 -13.5q-24 1 -37 14.5t-10.5 42t22.5 71.5t61 103q-2 -1 -9 -4t-30 -2q-28 -39 -64.5 -84t-73.5 -83.5t-69.5 -63.5t-52.5 -24q-24 1 -37.5 18t-11 50t24.5 80.5t68 108.5zM86 253q4 18 -2 24.5t-16 3.5t-20 -13.5
t-14 -26.5q-3 -15 7 -24t29 -10q4 9 9 22t7 24zM346 296q-6 -6 -12 -18.5t-9.5 -26t-3 -25.5t7.5 -16q16 27 22.5 44.5t6.5 28t-4 13.5t-8 0z" />
    <glyph glyph-name="s_s" unicode="ss" horiz-adv-x="481" 
d="M578 202q-7 -12 -26.5 -27.5t-46 -32.5l-57.5 -36l-61 -38q7 -23 7.5 -46.5t-6 -45t-20 -41t-35.5 -32.5q-31 -20 -59 -17.5t-43 20t-13.5 45t29.5 56.5q17 19 37.5 34.5t43.5 29.5q-2 9 -9 21.5t-14.5 29t-14 36t-6.5 41.5l-49.5 -47t-47 -49t-36.5 -45t-19 -36
q-11 -46 -31 -67t-38 -24q-15 -3 -28.5 4.5t-15 23.5t12.5 40t53 54q-34 34 -42 71.5t3.5 69t40 53t69.5 23.5q9 1 10.5 -6t-3.5 -9q-20 -11 -32.5 -35t-18 -51t-4.5 -53t9 -42q7 7 24.5 26t41 42l50.5 47.5t53 43.5q6 23 18.5 39.5t28.5 26.5t33.5 13.5t33.5 1.5t15 -10.5
t-14 -14.5q-23 -11 -32.5 -31t-10.5 -45.5t4.5 -55.5t13.5 -60l93 52.5t102 70.5q7 7 10 6t3 -5t-1.5 -10t-4.5 -9zM269 -23q-15 -17 -18.5 -27t0.5 -13.5t14 0t21 12.5q14 11 26.5 32.5t16.5 48.5q-20 -14 -35 -27.5t-25 -25.5z" />
    <glyph glyph-name="t_t" unicode="tt" horiz-adv-x="398" 
d="M15 86q6 33 18 73.5t27.5 84l32.5 87t34 82.5q-62 -9 -103 -20.5t-50 -23.5q-4 -5 -1 -10t7 -10q9 -8 10 -12.5t-2 -6t-9 -0.5t-13 3q-25 8 -33 24.5t1 33.5q15 25 71.5 40t139.5 24l47 101q10 14 23 11t24 -13.5t17 -25t2 -23.5q-2 -5 -9 -10.5t-19 -31.5q34 2 61.5 2.5
t60.5 0.5l54 113q10 14 23 12.5t24 -10.5t17.5 -22t2.5 -23q-1 -2 -3 -4.5t-6.5 -9.5t-12 -20.5t-18.5 -35.5q126 -3 164 -19q6 -3 6.5 -7t-3 -7t-9 -4.5t-11.5 1.5q-29 5 -68.5 7t-92.5 1l-39 -88.5l-40.5 -98t-35.5 -96t-25.5 -82.5t-9 -58t13.5 -22q7 0 21 12.5t32 32
t38 43.5l39 47l34.5 42.5l24.5 30.5q3 3 11 4.5t7 -1.5q-3 -9 -17 -32.5t-34 -54t-44.5 -63t-49 -60t-47 -44.5t-38.5 -16q-23 0 -36 15t-19 36.5t-6 46t5 44.5q-17 -22 -33.5 -41t-32 -33t-29.5 -22t-25 -7q-18 -1 -32 9.5t-23 27.5t-13 37.5t-1 38.5zM338 435
q-35 -2 -63.5 -4t-63.5 -6l-34.5 -79t-34.5 -87t-29 -84.5t-19 -72.5t-3.5 -51t16.5 -19t44 33.5t70 82.5q11 33 25.5 70l30 74.5l31 74t30.5 68.5z" />
    <glyph glyph-name="u_u" unicode="uu" horiz-adv-x="767" 
d="M99 281q7 7 22 7.5t29 -3.5t22 -11t0 -16l-20 -28t-23 -35.5t-23 -41t-20 -43.5q-11 -27 0.5 -27.5t34.5 18t52 52.5t54 75q12 11 27 10.5t27.5 -6.5t20 -14.5t5.5 -12.5q-4 -8 -15.5 -34t-21.5 -54.5t-12.5 -51t12.5 -22.5q23 0 52 24t66 60q11 23 25 49.5t32 53.5
q12 13 26 15t26 -2t19.5 -9.5t6.5 -6.5q-3 -5 -11 -17l-18 -28t-19.5 -34.5t-16.5 -36.5q-12 -30 -1.5 -32.5t32 14t47.5 47t45 65.5q13 12 26.5 11.5t25 -6.5t18 -14.5t4.5 -12.5l-7.5 -19t-11 -32l-11 -37.5t-7 -35.5t1 -26.5t12.5 -10.5q20 0 50 22t60.5 51.5t57.5 59.5
l40 45q19 8 15 -6.5t-23 -41t-48.5 -59.5t-63 -61.5t-66 -48t-56.5 -17.5q-25 2 -37 15t-15.5 32t-1 41t7.5 41q3 15 8 31l-27.5 -28l-32.5 -32.5t-34 -31t-32 -23.5q-16 -9 -30.5 -10t-24.5 6t-14 22t2 36q-35 -34 -72 -57.5t-65 -21.5q-27 1 -34.5 22t-4.5 49t12.5 57.5
l15.5 48.5l-25.5 -35.5t-37.5 -47.5t-44 -44t-45 -26q-3 -1 -14 -2.5t-22.5 2.5t-19.5 15t-6 34q3 24 11.5 53t21.5 59.5t28.5 59t32.5 50.5z" />
    <glyph glyph-name="v_v" unicode="vv" horiz-adv-x="583" 
d="M287 234q13 -17 30 -24.5t35 -0.5q2 0 3 1q13 10 27.5 13t25 0.5t15 -10t-1.5 -19.5q-26 -53 -36.5 -87.5t-8.5 -55.5q2 -14 10 -15t16 7q28 30 56.5 69.5t51 79.5t36.5 76.5t13 60.5q-1 12 7.5 15.5t18 -1.5t15 -19t-1.5 -38q-5 -19 -18.5 -47.5t-32.5 -61t-42 -66
t-47.5 -62t-48.5 -50t-44 -30.5q-23 -10 -41 1.5t-20 53.5q-2 29 6 69.5t22 82.5q-34 0 -63 26q-25 -43 -58.5 -87t-68 -79.5t-65.5 -57.5t-50 -21q-10 0 -13.5 6.5t-2.5 15t4 18t5 17.5q1 5 9 28.5t15 52.5t9.5 57t-6.5 42q14 17 30.5 24t30 5.5t22 -11t7.5 -25.5
q-1 -18 -6 -39t-11 -40.5t-12.5 -37.5t-9.5 -30l71 81t69 103q-12 15 -16 33t-1 35t12.5 31t24.5 20q26 11 35.5 -1.5t9 -34t-6 -43.5t-9.5 -30z" />
    <glyph glyph-name="w_w" unicode="ww" horiz-adv-x="983" 
d="M864 222q19 12 32.5 9t21 -16t7.5 -32.5t-9 -39.5q9 -3 28 1t41.5 11.5t45 17.5t37.5 20q15 -15 3 -23q-15 -11 -39.5 -23t-50 -22.5t-48.5 -17t-36 -4.5q-32 -56 -57.5 -86.5t-56.5 -47.5q-10 -5 -23.5 -4t-26 7t-22.5 15.5t-13 21.5q-7 21 -5.5 50.5t6.5 58.5l4 21
l4 20l-27.5 -46l-32 -50.5t-32.5 -47.5t-28 -37q-18 -15 -33.5 -16t-27.5 6.5t-19.5 23t-8.5 33.5q-2 43 12.5 91t34.5 89q-26 -3 -51 -1t-48 13q-13 -33 -34 -75t-44 -81t-46 -67.5t-40 -34.5q-11 -4 -24.5 -2.5t-25.5 7.5t-21 15t-12 21q-5 16 -4 35.5t4 40.5t8 42t9 41
l-26 -43l-28.5 -45.5t-29 -42.5t-26.5 -34q-29 -25 -50 -14t-27 44q-6 30 -1 63.5t16 66t26.5 61.5t30.5 49q5 7 19 10t27.5 1.5t23.5 -8.5t8 -20q-29 -37 -45 -70t-24 -58.5t-9 -42t1 -20.5q3 -6 16.5 10.5t33.5 45l44.5 64t49.5 66.5q5 4 16 6.5t22 2t19.5 -4t7.5 -10.5
q-2 -6 -11.5 -28.5t-18.5 -53.5t-13 -65t4 -62q6 -13 23.5 4.5t38.5 50.5t42 73t33 73q-11 11 -15.5 26t-3 30t7.5 29t15 24q19 12 33 8.5t21.5 -16.5t7 -32.5t-9.5 -39.5q13 -5 39 -12.5t58 -8.5l19 28q5 7 19.5 10t29.5 1.5t25.5 -8.5t8.5 -20q-32 -36 -50.5 -74
t-28.5 -70t-12 -54t0 -26q3 -6 21.5 19.5t44 64.5l55 82.5t54.5 74.5q5 4 16 6t22 1.5t19 -4t7 -10.5l-11 -32t-18 -60t-14.5 -70.5t0.5 -62.5q9 -21 34 3t56 78q-14 7 -18 21.5t-2 30.5t9 31.5t16 25.5z" />
    <glyph glyph-name="x_x" unicode="xx" horiz-adv-x="671" 
d="M486 249q-20 -58 -23.5 -91t13.5 -58l44 53.5l38 44t35.5 38.5l36.5 37q4 7 12 9.5t13 0.5t5 -8.5t-10 -17.5q-22 -22 -61.5 -70t-86.5 -111q22 -12 47.5 -15t55.5 8t64 40.5t73 82.5q6 7 13.5 10.5t12.5 2.5t5 -7t-8 -17q-48 -65 -92.5 -106t-83.5 -60.5t-72.5 -19
t-60.5 18.5q-20 -28 -35.5 -53t-25.5 -44q-6 -3 -13 1t-11.5 11t-5.5 16t5 17l57 76q-30 35 -36 87q-41 -56 -75 -90t-62 -51t-49.5 -19.5t-36.5 5.5q-11 5 -23 18t-24 30l-52.5 -65.5l-42.5 -56.5q-6 -3 -14 -1.5t-14 6t-7.5 11.5t4.5 16l107 126q-10 20 -17.5 42.5t-12 46
t-4.5 47t5 46.5q3 14 18.5 25t32.5 15.5t29 2t8 -14.5q-15 -36 -15 -74.5t11 -71.5l52.5 61.5l42 48.5t37.5 39.5l37 34.5q17 16 26.5 18.5t12 -3t-2 -15t-14.5 -17.5q-5 -3 -20.5 -20.5l-39 -45l-53 -63l-62.5 -75.5q10 -18 20 -30t17 -17q8 -5 23 -4.5t37.5 14t52 43
t66.5 80.5q1 13 2.5 26t5.5 27q3 14 19 25t33 16t29 2.5t8 -14.5z" />
    <glyph glyph-name="y_y" unicode="yy" horiz-adv-x="683" 
d="M782 192l-66.5 -57.5l-50 -45l-42.5 -38.5t-44 -37l-22 -65q-11 -32 -26.5 -82.5t-37 -106t-50.5 -108t-66 -88.5q-27 -27 -53.5 -36t-48 -7t-37.5 12.5t-22 22.5q-27 51 -10 106.5t61.5 112.5t108.5 113t130 108l41 137q-11 -19 -31.5 -50t-44.5 -58.5t-48 -43.5t-40 -6
q-14 3 -21 16.5t-8.5 33.5t2 46t11.5 53l-71.5 -56.5t-44.5 -38.5q-8 -8 -13.5 -18.5t-9.5 -21.5l-14 -38l-21 -65.5t-28.5 -81t-38 -85.5t-48.5 -77.5t-60 -58t-74 -27.5q-29 -3 -46.5 10.5t-21.5 40.5t8 65t43 83q27 41 67 81.5t77 74.5l64.5 58t29.5 32l34 130
q-7 -13 -18.5 -31.5t-26 -38.5t-31 -39t-33 -32.5t-32 -18.5t-28.5 3q-14 3 -20 19.5t-5.5 40.5t7 54.5t16.5 61.5t23 60t27 52q14 18 31 17t31 -8.5t21 -17t2 -9.5q-3 0 -12 -11t-20 -29t-22 -41t-19 -46t-11 -44.5t2 -36.5q13 9 25 20t25 27.5t27.5 41.5t33.5 62
q7 15 19.5 20.5t24.5 5t22 -4.5t13 -6q12 -24 -16 -128q8 3 22 12.5t30.5 22.5l35.5 28l37 28q8 20 14 31.5t17 27.5q14 18 29.5 17t27.5 -9t18 -17.5t1 -9.5t-17.5 -19.5t-23.5 -46t-17 -54.5t2 -45q17 5 51 47.5t68 117.5q8 15 19.5 20t23 4t20.5 -5.5t12 -6.5
q3 -6 1.5 -19.5t-5.5 -32.5t-10 -42.5l-13 -48.5l98 74.5t79 57.5q6 2 8 -2.5t-1 -11.5zM311 -236q-27 -35 -43.5 -69t-17.5 -76q0 -20 5.5 -28.5t14.5 -9.5t19.5 4t19.5 14q25 24 51.5 66.5t51 92t45.5 101l37 92.5q-35 -32 -77.5 -76zM143 -75q0 3 2.5 9.5t-0.5 6.5
l-57.5 -60l-61.5 -67.5t-55.5 -68.5t-38.5 -64q-3 -7 -6.5 -20t-3 -24.5t6.5 -16.5t22 3q34 19 63.5 57t54.5 82.5t43.5 88.5z" />
    <glyph glyph-name="z_z" unicode="&#x7a;&#x7a;" horiz-adv-x="617" 
d="M507 303q14 2 28.5 -6.5t24.5 -22.5t13.5 -30.5t-4.5 -28.5q-26 -39 -55.5 -65t-53 -42.5l-35.5 -25.5t-3 -14q11 -7 16 -12t13 -15q65 50 132.5 93t127.5 72q15 7 21 6t6.5 -6.5t-4 -12.5t-10.5 -13q-72 -34 -136.5 -77t-120.5 -89q11 -28 15 -61.5t-7.5 -71t-41 -78
t-84.5 -81.5q-17 -12 -40 -21t-46.5 -10.5t-43 8t-29.5 35.5q-3 8 -1.5 17t4.5 19q7 22 28.5 51.5t53 63t71 69t83.5 70.5q-11 15 -31 19t-50 1q-8 -1 -13 5t-5.5 14.5t2.5 17.5t12 15q55 35 83.5 63t38.5 47.5t6 29.5t-13 9q-27 -6 -59.5 -25t-70 -47.5t-80 -65
l-87.5 -78.5q24 -28 32.5 -61.5t-0.5 -70.5t-36.5 -77t-76.5 -81q-18 -15 -42 -26.5t-48.5 -17t-45.5 -3.5t-33.5 14t-13 34t17.5 58q23 46 75.5 108t118.5 126q-11 5 -25.5 5.5t-33.5 -0.5q-5 0 -9.5 3.5t-7 9t-2.5 11.5t3 10q25 32 32 61.5t5.5 52.5t-6 38t-3.5 20
q5 22 24 32.5t35 8.5q9 -1 25.5 -3.5t35 -6t37 -9t31 -13t16.5 -17t-5 -21.5q-5 -6 -19 -19l-31 -29l-35 -33t-32 -32t-21 -26t-1 -14q2 -2 5 -3.5t5 -3.5q49 46 101 89t101.5 77t94 56t77.5 27zM-50 -205q-14 -26 -9 -33.5t18 -5t28.5 11t22.5 15.5q23 17 50.5 46.5
t48.5 62t31 63.5t-2 52l-62.5 -61t-54 -58t-43 -51.5t-28.5 -41.5zM255 -207q-12 -18 -14.5 -27.5t3.5 -12t18.5 3t29.5 17.5q33 24 61.5 52.5t49 57.5t31 57t7.5 51q-66 -58 -114 -111t-72 -88zM167 219q4 6 1.5 12.5t-8.5 11.5t-14 7.5t-15 1.5q-7 -2 -10.5 -6t-2.5 -14
q2 -17 -1.5 -34.5t-10 -34.5t-14.5 -32.5t-15 -27.5q29 29 52 62z" />
    <glyph glyph-name="i_t" unicode="it" horiz-adv-x="389" 
d="M85 229q9 6 20.5 10.5t19.5 4.5q10 0 20 -2.5t16 -7t7 -10.5t-5 -12q-11 -11 -21.5 -29.5t-18 -37.5t-9.5 -34t4 -19q14 4 25.5 11t23.5 16l25.5 19.5t30.5 22.5q22 65 51 134t57 129q-14 -2 -30.5 -5.5t-33 -8t-31 -10t-24.5 -11.5q-14 -14 -22 -27.5t-13.5 -24.5
t-10.5 -18.5t-14 -8.5q-6 -1 -13 9.5t-11.5 26t-4.5 32.5t7 30q9 15 30 24.5t50 15t64.5 8.5l73.5 6l42 86q10 14 23 12t23.5 -12t16.5 -23.5t2 -22.5q-1 -2 -3.5 -4t-5.5 -6l-7.5 -10.5t-10.5 -18.5q64 1 110.5 -4t69.5 -15q6 -3 6.5 -7.5t-2.5 -7.5t-9 -4t-12 2
q-40 7 -83 8.5t-95 -2.5q-18 -37 -37.5 -83.5l-38 -94.5t-34 -94t-24 -81.5t-8.5 -56.5t12 -20q7 1 20.5 13t30.5 30.5l36 40.5l36.5 44l32.5 40.5l24 29.5q3 3 11 4.5t7 -1.5q-3 -9 -17 -32.5t-34 -54t-44.5 -63t-49 -60t-47 -44.5t-38.5 -16q-30 1 -46.5 23.5t-17.5 55.5
q1 20 7 46t14 53l-36 -26t-35 -24l-31.5 -20t-24.5 -14q-8 -5 -20 -6.5t-22.5 3t-16.5 17t-2.5 36.5t18.5 61t47 90z" />
    <glyph glyph-name="S_t" unicode="St" horiz-adv-x="736" 
d="M330 288q-14 31 19.5 58t100.5 46q15 16 20.5 31.5t4.5 28t-6.5 19.5t-12.5 6q-34 7 -79.5 -9.5t-90.5 -47t-84 -69.5t-59 -76t-16 -67t45 -42q37 -12 79 -10.5t81 1.5t70 -7.5t45 -35.5q15 -29 9 -62.5t-27 -66.5t-55 -64t-75 -55.5t-86.5 -40.5t-90.5 -19q-5 0 -8 5
t-3 10.5t4.5 10.5t15.5 7q44 7 84.5 32t72.5 57.5t53.5 68t29.5 65.5q4 22 -7 34t-32.5 17.5t-50 6t-58 0.5t-57 0.5t-46.5 6.5q-46 13 -65 39.5t-16 60t24.5 71t56.5 73t79.5 66t94 50t100 24t97.5 -11.5q32 -11 38.5 -35t-7.5 -55l73 15t75 12l56 113q10 14 23 12.5
t23.5 -10.5t16.5 -22t2 -22q-8 -16 -17 -29.5t-16 -30.5q73 7 125.5 6t72.5 -9q6 -3 6.5 -7.5t-3 -7.5t-9 -4t-11.5 2q-34 4 -84 -0.5t-113 -13.5q-18 -38 -36.5 -83.5l-36 -91t-31.5 -88.5t-21.5 -76.5t-7.5 -53t12 -19.5q9 0 24 12t33 30.5t38 41.5l38 45l33 41l24 30
q2 3 10.5 4.5t7.5 -1.5q-4 -9 -18 -32.5t-34 -54t-44.5 -63t-49 -60t-47 -44.5t-38.5 -16q-30 1 -50.5 26.5t-21.5 58.5q2 34 14 79t30 95t40 102.5t45 101.5q-46 -9 -84 -18t-79 -20q-20 -22 -46 -40.5t-50 -29t-42.5 -12t-23.5 10.5z" />
    <glyph glyph-name=".notdef" horiz-adv-x="301" 
 />
    <glyph glyph-name="NULL" horiz-adv-x="0" 
 />
    <glyph glyph-name="NULL" horiz-adv-x="0" 
 />
    <glyph glyph-name="nonmarkingreturn" unicode="&#xd;" horiz-adv-x="301" 
 />
    <glyph glyph-name="space" unicode=" " horiz-adv-x="301" 
 />
    <glyph glyph-name="s" unicode="s" horiz-adv-x="247" 
d="M132 22q2 -17 -2.5 -34.5t-13 -32.5t-18 -27t-18.5 -18q-20 -14 -35.5 -14t-24 9.5t-9 25.5t10.5 36q19 37 66 82q-33 26 -43 54t-8 52q3 29 15.5 51t30.5 36.5t37.5 21.5t35.5 6q9 -1 10.5 -7t-3.5 -8q-21 -12 -35 -34t-20 -47.5t-4 -52t12 -45.5q39 33 91 64t116 55
q5 2 6 -3t-1 -7q-5 -5 -21.5 -14.5l-38 -22.5l-45.5 -28.5t-44 -32t-33.5 -33.5t-13.5 -32z" />
    <glyph glyph-name="d" unicode="d" horiz-adv-x="371" 
d="M148 93l-41 -46.5t-27 -27.5t-18 -14.5t-13 -5.5q-13 -3 -26 2t-24 21q-7 15 -4.5 41.5t13.5 56t28.5 57.5t38.5 46.5t44.5 22.5t46.5 -14q9 48 27 99.5t41 97.5t49 83t52 57q10 8 25.5 11.5t32 2.5t31.5 -6.5t25 -16.5q10 -33 -18 -88q-45 -85 -99 -156t-114 -142
q-6 -37 -7 -75.5t8.5 -63t32 -27.5t63.5 30q29 23 66 65.5t75 102.5q2 5 9 7t9 -1t-13.5 -30t-41 -63.5t-58.5 -75t-65 -63.5q-51 -40 -84.5 -34t-50.5 42q-8 18 -11 45.5t-2 59.5zM399 532q-28 -20 -54.5 -52t-49 -72.5t-40 -87t-29.5 -94.5l62.5 87t63 92t44 79t3.5 48z
M160 197q-11 4 -24.5 -5t-26.5 -25t-23.5 -35.5t-16 -35t-4 -24t13.5 -3.5q21 11 39 29.5t32 35.5q2 17 4 31.5t6 31.5z" />
    <glyph glyph-name="p" unicode="p" horiz-adv-x="393" 
d="M451 192q8 2 14 -0.5t7.5 -7t-3 -9.5t-16.5 -7q-35 -7 -74.5 -24.5l-74.5 -34.5q-11 -22 -25.5 -44.5t-31.5 -41.5t-38 -32.5t-45 -16.5q-18 -3 -29.5 3.5t-11.5 19.5q-1 29 30.5 59.5t80.5 56.5l10 29.5t8 30.5q6 29 4 41.5t-9.5 13t-18.5 -8.5t-24 -23
q-35 -39 -70.5 -92t-65.5 -110t-52 -114t-30 -103q-2 -23 -10 -36t-15 -11q-33 8 -34 59t43 154q13 30 26.5 71l27.5 84.5l27.5 86.5t26 77t24 55t20.5 22q40 1 47 -15t-3.5 -47t-32.5 -74t-41 -94q13 20 38 49.5t50 55.5q46 46 77.5 55.5t49 -4.5t20 -47t-10.5 -72
q30 11 61.5 24t73.5 22zM180 13q5 3 17 18t20 32q-26 -17 -35.5 -31t-1.5 -19z" />
    <glyph glyph-name="a" unicode="a" horiz-adv-x="336" 
d="M261 166q-8 -19 -14.5 -41t-9 -39.5t1.5 -28t18 -6.5q19 5 39.5 21.5t40 37t36 41.5t26.5 35q6 9 12 12.5t10 2t4 -7.5t-6 -16q-24 -36 -49.5 -69.5t-50.5 -59t-48.5 -41t-43.5 -15.5q-32 0 -46 28t-6 74q-26 -35 -50 -59t-47 -31q-15 -4 -30 3.5t-24 27.5
q-9 27 1.5 68.5t33.5 80t54 66.5t63 28q27 0 46 -10t30.5 -26t13.5 -36.5t-5 -39.5zM214 190q0 8 -1 17.5t-4 16.5t-8.5 9.5t-14.5 -3.5q-20 -14 -39.5 -38.5t-34.5 -50t-22.5 -47t-3.5 -27.5q5 -8 22 3t37 31.5t39 45.5t30 43z" />
    <glyph glyph-name="l" unicode="l" horiz-adv-x="198" 
d="M328 505q-5 -39 -24 -85t-49.5 -92t-70 -88t-84.5 -73q-20 -77 -24.5 -132t0.5 -92t17.5 -57.5t27.5 -29.5q7 -4 11 -9.5t4 -9.5t-5.5 -6t-16.5 1q-42 10 -65.5 42t-33 75.5t-7 93.5t11.5 97q9 44 29 101.5t47.5 113.5t61.5 104.5t71 74.5q17 12 35 17.5t32.5 2.5
t23.5 -15t8 -34zM124 238l-6.5 -15t-6.5 -17q26 22 55 61.5t54 82t43.5 81t24.5 58.5q4 11 1.5 14.5t-10.5 -4.5q-24 -21 -46 -53.5t-42 -69t-37 -73z" />
    <glyph glyph-name="k" unicode="k" horiz-adv-x="361" 
d="M203 332q-37 -49 -65.5 -99t-46.5 -99q21 22 43.5 41.5t42.5 34t35 23t21 8.5q20 0 32.5 -8t8.5 -19q-6 -17 -30 -34.5t-52 -34t-51 -32t-27 -28.5q-2 -23 5.5 -34.5t23 -14t38 3.5t50.5 18q26 12 53.5 28.5t52.5 33.5l44.5 31t29.5 20q20 13 25 11.5t-16 -27.5
q-25 -24 -57.5 -51.5t-68 -51.5t-71 -41.5t-65.5 -20.5q-18 -2 -33 5.5t-26 20.5t-18 28t-10 28q-11 -38 -19 -74t-14 -69q-5 -19 -16 -19t-19 14q-5 7 -6 23t0 28q3 51 15.5 106t30.5 108.5t40 104.5t45 95t44.5 78.5t39.5 55.5q18 22 34.5 28.5t28 1t16.5 -20.5t-1 -37
q-9 -31 -31 -74.5t-56 -88.5z" />
    <glyph glyph-name="m" unicode="m" horiz-adv-x="495" 
d="M168 56q1 6 2 15.5t3.5 24t7 36t12.5 52.5q-14 -14 -26 -27.5t-26.5 -35.5t-33.5 -57.5t-46 -93.5q-7 -15 -20.5 -19t-26 0t-21 15t-5.5 25q10 40 22.5 71.5l25 62t23.5 65.5t18 82q1 5 9 8.5t19.5 5.5t23 2t19.5 -1q4 -1 2 -13t-6.5 -30t-11 -38.5l-12.5 -38l-10 -29
l-4 -11.5q0 -2 0.5 -3t1.5 1q8 12 25 34t37.5 42.5t41.5 34t36 9.5q13 -3 14 -19t-3.5 -35t-10.5 -36t-7 -22q-1 -2 0 -5.5t3 -3.5l27 37l35 46l34 43t24 29q7 7 20 9t24.5 0t19.5 -7t7 -12q-1 -4 -7.5 -21.5l-15 -42t-17 -52t-12.5 -50.5t-2.5 -38.5t12.5 -15.5
q13 0 38.5 18.5t52 43t49.5 48.5t31 34q6 5 14.5 3t6.5 -6q-1 -6 -20.5 -30t-47 -53.5t-58 -59t-52.5 -46.5q-19 -14 -37.5 -16t-32.5 6t-22 24.5t-6 39.5q3 40 38 147q0 1 -1.5 5t-3.5 2q-18 -24 -31 -44l-25 -38.5l-24.5 -38l-28.5 -43.5q-8 -12 -19.5 -14.5t-22 0.5
t-17.5 10t-6 15z" />
    <glyph glyph-name="e" unicode="e" horiz-adv-x="265" 
d="M178 41q22 14 45.5 33.5t44.5 40.5t39 41.5t29 36.5q4 6 8.5 7t8 -1.5t5 -6.5t-0.5 -8l-38.5 -49t-46.5 -55.5t-52.5 -52t-55.5 -39.5q-27 -14 -53 -15t-47 10t-34 33t-14 52q-2 32 6.5 66t26 62.5t43.5 47t61 19.5q21 1 36 -8.5t13 -39.5q-1 -10 -7.5 -27.5t-19.5 -35
t-34 -32t-51 -19.5q-3 -24 1 -42t15 -27t29 -7.5t43 16.5zM159 232q-20 -5 -37 -33.5t-26 -66.5q17 4 32 17t25 29t12.5 31t-6.5 23z" />
    <glyph glyph-name="v" unicode="v" horiz-adv-x="292" 
d="M47 194q14 17 30.5 24t30 5.5t22 -11t7.5 -25.5q-1 -18 -5.5 -39.5t-11 -43t-13 -40.5l-10.5 -31q11 9 23 23q25 27 50.5 65.5t45.5 78t32.5 74.5t11.5 55q-1 12 9 15.5t20.5 -1.5t17 -19t0.5 -38q-8 -30 -27 -66.5t-44.5 -73.5t-54 -71.5t-56.5 -61.5t-52.5 -43
t-40.5 -15q-10 0 -14 6.5t-4.5 15.5t2 19l4.5 18q1 5 9 28.5t15 52.5t9.5 57t-6.5 42z" />
    <glyph glyph-name="b" unicode="b" horiz-adv-x="320" 
d="M221 178q10 -1 12 -14t0 -29.5t-6.5 -31.5t-8.5 -21q16 -9 40.5 -2.5t50 23t49.5 39t40 45.5q2 2 10 1t8 -4q-12 -33 -39.5 -62t-60 -49.5t-64.5 -30t-53 -2.5q-9 -25 -23.5 -47.5t-31 -38t-34.5 -22t-33 0.5q-41 19 -54.5 59.5t-7.5 94t29 114.5t55.5 120t72 111.5
t79 89t75.5 52t62 0.5q21 -12 20.5 -37t-15.5 -57.5t-41 -70t-57.5 -75t-64 -72l-60 -61.5t-47 -43.5t-24.5 -17.5q-8 -24 -12 -52t-4.5 -52.5t3 -41.5t11.5 -19q4 -1 8.5 -1.5t9.5 6t12.5 24t18.5 52.5q-3 19 -4.5 39t4.5 37.5t23 30t52 15.5zM340 501q-72 -56 -132 -140.5
t-95 -178.5q77 69 124 128.5t71.5 103t30.5 67t1 20.5z" />
    <glyph glyph-name="t" unicode="t" horiz-adv-x="206" 
d="M-26 330q-32 9 -41 30t0 38q7 13 27 25t49.5 21t68 15.5t83.5 8.5l40 81q10 14 22.5 12t23 -11t16.5 -21t3 -19q-1 -2 -3 -4t-5 -6t-7 -11.5t-10 -20.5q63 2 112 -5.5t73 -18.5q7 -3 7.5 -7.5t-3 -7.5t-9.5 -4t-12 2q-80 15 -186 6l-35.5 -80.5l-36 -88.5t-32.5 -88
t-24.5 -79t-11.5 -61.5t7 -34.5q6 -6 27.5 13t50 50.5t59 69.5l54.5 68q2 3 10.5 4t8.5 -2q-4 -9 -18 -32.5t-34 -54t-44.5 -63t-49 -60t-47 -44.5t-38.5 -16q-30 1 -49 25.5t-20 57.5q1 36 15 85t34.5 104t45 111.5l47.5 106.5q-59 -9 -103.5 -23.5t-56.5 -31.5
q-4 -5 -1 -10t7 -10q9 -8 10 -12.5t-2.5 -6.5t-9.5 -2t-12 2z" />
    <glyph glyph-name="r" unicode="r" horiz-adv-x="282" 
d="M92 -66q-20 -1 -36.5 11.5t-15.5 42t26 76.5t87 114q-6 -3 -22 -4.5t-35.5 0t-40 7t-35.5 15t-23 24.5t-2 37q4 15 18.5 28t33 22t37.5 11t31 -6q11 -7 13 -19.5t-1.5 -27.5t-11 -30.5t-15.5 -27.5q17 1 36.5 3.5t37.5 3.5t31.5 -1t18.5 -10q-12 -15 -27.5 -36.5
t-30.5 -44.5t-27 -46.5t-16 -44.5q-2 -16 5 -19t21 4q18 9 44.5 30.5t55 48l56.5 54.5l49 49q3 2 6.5 -2.5t-0.5 -10.5q-12 -20 -32 -46t-44.5 -53.5t-51.5 -54t-52.5 -48t-48.5 -35t-39 -14.5zM82 284q-10 5 -21 -6t-16 -27t0 -30t28 -15q4 9 8 21t5.5 23.5t0.5 20.5t-5 13
z" />
    <glyph glyph-name="c" unicode="c" horiz-adv-x="290" 
d="M221 193q2 46 -21 42t-65 -57q-24 -30 -37 -59t-16 -52t3 -38.5t21 -19.5q12 -3 38.5 6t61 31t73 57t74.5 85q10 13 15.5 14t7 -4.5t-1 -14.5t-8.5 -15q-41 -57 -87 -102t-88.5 -73.5t-77.5 -40t-54 -2.5q-23 11 -35.5 30t-14.5 43q-2 25 4.5 55.5t19.5 61t33 57.5
t45.5 46t55 27t63.5 0q9 -2 12.5 -10t3 -18.5t-3 -20.5t-5.5 -17q-6 -8 -16 -11z" />
    <glyph glyph-name="i" unicode="i" horiz-adv-x="195" 
d="M249 426q-4 -8 -15 -26t-23.5 -36.5t-24 -33t-16.5 -14.5q-9 4 -14 14t-6 22t1.5 25t9.5 24q3 6 12 17t21.5 18.5t27 7t27.5 -17.5zM77 224q8 9 22.5 14.5t22.5 5.5q21 0 27 -10t-7 -23q-11 -11 -21.5 -29.5t-17.5 -38t-8.5 -35t4.5 -19.5q11 0 29.5 9.5t40 23.5
l43.5 29.5l40.5 28t30 19t12.5 2.5q1 -9 -10.5 -23t-30 -30.5t-42.5 -34.5l-47.5 -34.5l-44.5 -30t-34 -20.5q-8 -5 -21 -7t-25 2t-19.5 16t-5.5 35.5t16 60t46 89.5z" />
    <glyph glyph-name="h" unicode="h" horiz-adv-x="377" 
d="M203 -90q-26 0 -36.5 16t-10.5 41t7 56t17 60l18.5 53.5t11.5 37t-3 10t-26 -27.5l-76 -103.5t-30 -54.5q-3 -12 -18 -16.5t-31 -0.5t-27 16t-6 33q3 23 14.5 72.5t31.5 111t49 126t67 118t85 87t104 32.5q32 -1 36 -22.5t-11 -56t-45 -77.5t-67 -87t-77 -84.5t-74 -68.5
q-8 -27 -13.5 -49t-8.5 -40q5 5 17.5 18.5l28 31.5l33.5 37.5l34 35.5t29 26.5t20 10.5q9 0 18 -5t15 -12.5t9.5 -15t2.5 -12.5q-4 -13 -8 -23l-19 -53t-18.5 -59.5t-7.5 -48.5t14 -20q12 0 39.5 23.5t59.5 56.5t62 67.5t45 57.5q1 2 7.5 0t6.5 -6q-3 -10 -19.5 -36
t-41.5 -59.5t-55 -68.5t-59 -64.5t-54 -47.5t-40 -16zM336 544q-36 -12 -68 -44.5t-59.5 -77t-49.5 -96t-38 -100.5q60 60 101.5 117.5t67 102t36.5 71.5t10 27z" />
    <glyph glyph-name="u" unicode="u" horiz-adv-x="407" 
d="M96 249q12 13 25 14.5t25 -1.5t21 -9l12 -8q-8 -8 -18 -22.5t-21 -32.5t-21.5 -37.5t-17.5 -35.5q-12 -30 -3 -33.5t29 11.5t47 44.5t50 65.5q12 12 26 11.5t25 -6.5t18 -14t5 -12q-2 -5 -8 -19l-13 -31.5t-13.5 -37t-9.5 -35t-1 -26t12 -10.5q13 0 32.5 10t41.5 26
t44.5 34.5t42 36.5l34 32l20.5 20q16 8 10.5 -5.5t-24.5 -38.5t-48.5 -56.5t-62.5 -58.5t-65.5 -45t-57.5 -16q-27 1 -37 20t-10.5 45.5t6 54.5t12.5 46l-49 -54.5t-62 -55.5q-21 -16 -39 -18.5t-30.5 5t-17 24t1.5 37.5q10 36 34 84t55 97z" />
    <glyph glyph-name="w" unicode="w" horiz-adv-x="495" 
d="M362 222q20 16 36.5 15t25.5 -13.5t10 -33t-9 -44.5q17 -3 37.5 1t41 11.5t39.5 18.5t34 23q8 -8 8 -13t-5 -11q-16 -17 -40.5 -31t-49.5 -23.5t-48 -15t-36 -3.5q-32 -56 -68 -99.5t-67 -60.5q-10 -5 -23 -4t-25 7t-21.5 15.5t-12.5 21.5q-5 17 -4 39t5.5 46t11.5 48.5
t14 46.5l-27 -45.5l-31.5 -51l-33 -49t-29.5 -39.5q-5 -6 -15 -10.5t-21 -6t-21 0t-15 6.5q-18 28 -17 69t14 83.5t32.5 81t37.5 62.5q5 7 19 11t28 3t23.5 -8.5t6.5 -22.5q-31 -36 -49.5 -72t-27.5 -65t-10.5 -49t0.5 -24q3 -6 21.5 17.5l44.5 59.5l55.5 77.5t54.5 72.5
q5 4 16 6t21.5 2t18 -3.5t6.5 -10.5q-2 -6 -14 -35t-24.5 -67.5t-20.5 -78.5t-2 -68q4 -10 16.5 -5t28 20t33.5 38.5t33 50.5q-14 7 -20.5 21.5t-6.5 30.5t5.5 31.5t15.5 25.5z" />
    <glyph glyph-name="j" unicode="j" horiz-adv-x="215" 
d="M-9 -9l41 125.5l23.5 73t11 34.5t3.5 10q5 18 17.5 21.5t25 -1.5t21 -15t5.5 -19q-4 -15 -10.5 -34.5l-13.5 -41l-14.5 -43.5l-14.5 -41q8 3 25.5 13.5t38.5 24.5l44 30l43 29l34 21.5t19 8.5t4.5 -6t-0.5 -8q-1 -2 -15 -12.5l-35 -26l-45 -33l-46 -34l-39 -29t-22 -16.5
l-12 -7q-11 -8 -18 -18.5t-12 -21.5l-16 -40q-53 -135 -113.5 -227t-142.5 -135q-26 -13 -52 -17t-45.5 1t-29.5 20t-2 40q14 45 48.5 91.5t80.5 92t98.5 89.5l102.5 85q4 3 7 7t5 9zM-40 -83q2 2 1.5 2.5t-5.5 0.5l-64.5 -61t-76.5 -79t-69 -84t-41 -76q-8 -24 3 -23.5
t29 12.5t37 29.5t28 26.5q51 54 89.5 118t68.5 134zM253 454q-6 -14 -21.5 -34t-32.5 -37.5t-31 -28.5t-16 -7q-11 8 -11 29.5t8.5 44.5t25 41.5t38.5 20.5q7 1 19.5 -7t20.5 -22z" />
    <glyph glyph-name="q" unicode="q" horiz-adv-x="289" 
d="M319 -149q5 -12 -3 -13t-13 7q-16 27 -47 21.5t-64.5 -38.5t-63.5 -90t-43 -131q-4 -11 -17.5 -9.5t-27 13.5t-22 34.5t-2.5 54.5q8 55 26.5 114.5t41 115t46 103.5l40.5 81l-31 -34.5t-33.5 -34t-31.5 -25.5t-27 -10t-23.5 4.5t-19.5 13t-12.5 19.5t-1.5 23
q15 73 47 118.5t64 63.5t57.5 10.5t28.5 -39.5q-1 -20 -9.5 -27t-13.5 5q-1 5 0 15t-3 13q-6 6 -16 -3.5t-20.5 -25t-20 -32t-13.5 -24.5q-15 -30 -20.5 -51t3.5 -21q8 0 22.5 11.5t32 28.5t35.5 37.5l33 39t25 32t11 17.5l3 21q1 8 9 11.5t19 3.5q8 0 17 -1.5t15 -6
t7 -12.5t-7 -20q-10 -14 -25 -43l-33.5 -67.5l-38.5 -83.5l-38.5 -90t-34 -87t-25.5 -76q9 17 26 36t38 34.5t44 26.5t44 12.5t38.5 -9t27.5 -36.5z" />
    <glyph glyph-name="f" unicode="f" horiz-adv-x="257" 
d="M97 107q11 -33 15.5 -75t2.5 -85.5t-9.5 -86t-20.5 -77.5q-16 -40 -37.5 -60t-34.5 -25q-15 -5 -26.5 -1t-19.5 13.5t-13.5 21.5t-7.5 24q-7 37 -1.5 87t20.5 107.5t38 119t50 123t57 120t60 109.5q61 106 108.5 149.5t83.5 31.5q8 -3 16 -8.5t13.5 -15.5t6.5 -24t-5 -33
q-15 -48 -49.5 -102.5t-74.5 -105.5t-79.5 -94.5t-65.5 -69.5q21 -8 51.5 -4t60.5 13.5t54 21t30 17.5q6 4 13 2.5t6 -8t-14.5 -19t-49.5 -28.5q-65 -31 -109.5 -38t-68.5 0zM329 565q-12 -14 -28.5 -39.5t-35 -58.5l-38 -70l-38 -74l-35 -71.5t-27.5 -61.5l56 73.5l60 80
l54.5 79.5t40.5 72q6 12 11 31.5t6 34t-4.5 18.5t-21.5 -14zM80 79q0 1 -6.5 -21t-15.5 -56l-19 -74.5t-17.5 -78.5t-11 -67t1.5 -40q20 19 32.5 51t20 69t11 75t4.5 69.5t0.5 51.5t-0.5 21z" />
    <glyph glyph-name="y" unicode="y" horiz-adv-x="371" 
d="M81 42q21 10 57.5 48.5t70.5 112.5q7 16 19.5 21t25.5 5t23.5 -4t13.5 -6q3 -6 1 -21t-6.5 -36.5t-11 -47.5l-13.5 -52q7 3 22.5 13.5t34 24.5l39 30l38.5 29.5t32 23t20 10.5q7 2 8.5 -2.5t-0.5 -11.5q-1 -2 -14 -13l-32 -26.5l-42.5 -34.5l-45 -36.5l-39 -31.5
l-25.5 -20q-17 -15 -25 -40l-14 -38l-22 -63t-30 -75.5t-38 -79.5t-46 -74.5t-54.5 -61.5t-63.5 -40q-38 -15 -66 -7.5t-42 30t-10.5 57t29.5 73.5q26 38 57 72t62 63l59 53l48 42l53 47l7 7t6 9l37 145q-11 -19 -30.5 -50t-43.5 -59.5t-49 -46t-45 -9.5q-23 6 -28.5 35.5
t1 70t22.5 84t37 77.5q15 17 30 16.5t26.5 -8t17 -17t-0.5 -9.5q-5 0 -16.5 -19.5t-23 -47.5t-18.5 -58.5t-2 -52.5zM150 -75q0 4 -4 4q-14 -15 -42.5 -42.5l-63 -63t-69 -76t-59.5 -81.5q-11 -18 -14 -32t2 -21.5t18.5 -6.5t34.5 14q34 20 64.5 59t56 83.5t45 88.5t31.5 74
z" />
    <glyph glyph-name="x" unicode="x" horiz-adv-x="336" 
d="M-6 -108q-6 -3 -15.5 0.5t-16.5 11t-9.5 17.5t5.5 21l65 74.5l59 63.5q-14 32 -17 72t8 84q3 14 18 24.5t31 15t27.5 1.5t7.5 -15q-15 -42 -21 -71t-1 -55q59 60 99.5 96t71.5 58q27 10 37 2t10 -20t-6.5 -21.5t-13.5 -1.5q-7 6 -25.5 -2t-44 -27.5t-56.5 -48t-63 -62.5
q15 -28 43 -39.5t63 -3.5t75.5 38.5t81.5 87.5q6 7 13.5 10.5t12 2.5t5 -7t-8.5 -17q-63 -82 -115 -123.5t-93.5 -52t-73 4.5t-52.5 45q-19 -21 -36 -44.5t-30.5 -45.5t-22.5 -41t-12 -32z" />
    <glyph glyph-name="z" unicode="z" horiz-adv-x="354" 
d="M-114 -166q19 21 46.5 45t60.5 50l70.5 53.5l77.5 55.5q-9 8 -28 6t-33 -8q-8 -4 -17 -0.5t-16 10.5t-10 15.5t2 15.5q21 30 27.5 57.5t6 49.5t-4.5 36.5t-4 19.5q3 25 23 36t36 9q9 -1 25.5 -3.5t35.5 -6.5t37 -10t31 -13.5t17 -17.5t-5 -22q-8 -10 -31.5 -29.5
l-47.5 -41t-40.5 -39.5t-9.5 -25q10 -2 20 -9t12 -11q66 45 130 84t118 65q29 14 40.5 10t-1.5 -15q-73 -35 -142.5 -78t-132.5 -88q13 -26 11 -63t-18 -76t-45.5 -76t-70.5 -65l-32.5 -20t-39 -19.5t-41 -12.5t-36.5 0q-18 4 -29.5 18.5t-15 33t2 40t21.5 39.5zM-85 -199
q-19 -25 -5 -31.5t43 7.5q34 17 68.5 45t63 61t47 67.5t20.5 64.5q-86 -64 -148.5 -121.5t-88.5 -92.5zM176 220q6 10 -3 19t-21.5 12t-23.5 -1t-9 -19q2 -14 -1 -30.5t-8.5 -33t-12.5 -31t-13 -24.5q29 28 55 58.5t37 49.5z" />
    <glyph glyph-name="C" unicode="C" horiz-adv-x="531" 
d="M478 439q-48 -2 -93.5 -19t-86.5 -44t-77 -62t-64 -75q-19 -26 -38 -62.5t-33.5 -76t-20.5 -79.5t2.5 -73t33.5 -55t73 -26q51 -5 119.5 15t159.5 76q11 9 15.5 2.5t-0.5 -12.5q-32 -35 -74.5 -60t-87.5 -39.5t-88.5 -19.5t-77.5 1q-64 11 -100 43.5t-48.5 78.5t-4.5 102
t33 113.5t65 112.5t90.5 99.5t109 74.5t121.5 37q10 1 25.5 -1t31 -7t30.5 -12t25 -15q19 -15 17 -41.5t-19 -58.5t-47 -67t-66.5 -66.5t-77 -57t-78.5 -38.5q-14 -5 -23.5 -4t-12 5.5t3.5 11.5t24 15q41 17 77 45t65 60t51 64t35 57.5t16 41.5t-5 16z" />
    <glyph glyph-name="D" unicode="D" horiz-adv-x="653" 
d="M-42 366q17 38 59 64.5t97 41t117 16.5t120.5 -9.5t106.5 -36.5t75 -65q35 -53 38.5 -106t-16.5 -104q45 12 89 20t87 10q6 0 8 -3t2 -7t-1.5 -8.5t-3.5 -6.5q-51 -7 -101 -19t-100 -29q-29 -52 -75.5 -100t-100 -87.5t-109 -69.5t-101.5 -46.5t-78 -18.5t-39 14
q-6 14 2.5 36t31.5 49l10 13.5t15 22.5l16 27t15 28q19 39 42 99.5t42.5 124.5t32 123.5t11.5 95.5q0 5 4 9q-72 2 -145 -21t-130 -74q-14 -12 -19 -11t-6 7t1 13t3 8zM464 143q25 51 24 99.5t-22.5 89t-62.5 68.5t-95 38q15 -10 18.5 -34.5t-2 -59t-17.5 -76.5t-28.5 -86
t-35 -87.5t-36.5 -80.5l51 30.5t58 31.5t67.5 33t80.5 34zM117 -101q-20 -19 -18.5 -28.5t27.5 0.5q31 13 70 33t79 45.5t78.5 57.5t70.5 71q-63 -28 -115 -55t-91 -51t-64.5 -43t-36.5 -30z" />
    <glyph glyph-name="E" unicode="E" horiz-adv-x="490" 
d="M538 388q-29 23 -72 30.5t-90 3.5t-93.5 -18t-83 -35t-58 -46.5t-19.5 -52.5t33 -54t100 -50q18 7 36 11t32 6l31 2.5t26 -4t-1.5 -20t-52.5 -44.5l-20.5 5.5t-19.5 6.5q-38 -14 -77.5 -38.5t-72 -53.5t-54.5 -59t-25.5 -54.5t15.5 -40t69 -16.5q25 0 54 3.5t62 13.5
t71.5 28t83.5 46q11 9 15.5 2.5t-0.5 -12.5q-33 -35 -75 -60t-87 -39.5t-88.5 -19.5t-78.5 1q-40 7 -69.5 21t-45.5 40q-17 28 -13 55.5t22 52.5t46.5 48t60.5 42.5t65 35.5l59 28q-39 0 -71.5 5.5t-55 22t-34 47t-9.5 80.5q1 40 22.5 68.5t56 47.5t78 29.5t89 13.5t90 -1
t80.5 -13t60 -22.5t29 -29.5q2 -5 2 -10t-2 -8t-7 -2t-13 7z" />
    <glyph glyph-name="B" unicode="B" horiz-adv-x="570" 
d="M276 233q26 13 52 29t49 33t41 33.5t28 31.5q15 20 13.5 38.5t-18 33t-47 23t-73.5 8.5t-92 -7t-98 -21t-94 -36t-79 -53q-14 -12 -19 -11t-6 7t1 13t3 8q16 29 61.5 56.5t105.5 49t128 34.5t130 13t111.5 -16t71.5 -53q23 -38 5 -74t-61 -68t-103.5 -61t-122.5 -54
q42 -5 88.5 -15.5t78.5 -30.5q57 21 115.5 35t118.5 17q6 0 7.5 -2.5t0.5 -6t-3.5 -7.5t-3.5 -6q-54 -7 -105.5 -21t-99.5 -32q21 -26 16 -54.5t-23 -55.5t-42 -49.5t-42 -36.5q-26 -21 -60.5 -40.5t-71.5 -35t-73.5 -27t-67.5 -17t-53.5 -4t-31.5 11.5q-9 20 13 56
q21 37 40 65.5t37 58.5t34 67t31 92q-21 -3 -45 -7t-42 4q-5 3 -6.5 7.5t3.5 12.5t17.5 19.5t35.5 27.5q10 -3 22 -6t33 -5q20 64 32.5 122.5t11.5 95.5q0 5 5.5 9t14 5t17 -1t14.5 -8q11 0 19.5 -4t10.5 -12q2 -28 -5.5 -69t-27.5 -110zM96 -108q-14 -17 -9 -25t31 -1
q18 5 44.5 15.5t55.5 25.5t58 34t52.5 42t39 49.5t17.5 55.5q-64 -30 -114.5 -61.5t-87 -58.5t-58.5 -47.5t-29 -28.5zM249 156l-12 -30.5l-14.5 -35.5l-14.5 -36l-12 -31q34 23 77 48t89 45q-13 12 -44.5 22t-68.5 18z" />
    <glyph glyph-name="A" unicode="A" horiz-adv-x="478" 
d="M233 -123q3 33 0 58.5t-11.5 47t-23 41.5t-34.5 43q-20 2 -31 4.5t-27 7.5l-39.5 -79.5t-40 -88t-31 -81.5t-12.5 -59q-4 -16 -15 -17.5t-21 8.5t-16.5 28.5t-1.5 42.5q6 19 20.5 51.5t33 70l39 75.5t38.5 68q-10 8 -11.5 19t3 19t14 11.5t23.5 -3.5q38 61 81 121.5
t85 110t80.5 83t67.5 41.5q39 5 57 -16.5t7 -59.5q-6 -19 -17.5 -50.5l-26.5 -73l-31.5 -90.5t-30.5 -103q29 5 58 15t55 22.5t47.5 26t34.5 25.5q16 -5 4.5 -21.5t-42 -36.5t-74.5 -38.5t-92 -25.5q-16 -63 -26 -128.5t-9 -131.5q-5 -25 -19 -23t-29 17t-26 35.5t-10 33.5z
M274 102q27 91 61.5 178.5t63.5 153.5q6 14 -4.5 12.5t-22.5 -9.5q-34 -25 -67.5 -62t-64.5 -78.5t-58.5 -85t-49.5 -82.5q7 -4 12 -8l11 -9q47 -10 119 -10zM264 68q-18 -1 -34.5 -1h-27.5q13 -16 25 -32.5t22 -32.5l4 20t5 21z" />
    <glyph glyph-name="F" unicode="F" horiz-adv-x="389" 
d="M67 311q-33 1 -50 8.5t-22.5 18.5t-1.5 23.5t12 24.5t18.5 21.5t17.5 14.5q50 32 115.5 52t136 29.5t141 9t129.5 -9.5q23 -4 34.5 -14.5t13 -23t-5.5 -24t-22 -16.5q-17 14 -66.5 18t-114.5 2q-28 -19 -57 -54.5t-55 -78t-48.5 -88.5t-37.5 -86q29 3 47 6t32.5 6.5
t28 9.5t33.5 16q10 -11 3 -23t-28 -24t-55 -22.5t-78 -17.5q-11 -30 -22.5 -70t-20.5 -81t-13.5 -79t-1.5 -63q-25 -5 -35.5 17.5t-11.5 58.5t5 79t14 79q3 12 5.5 23.5t5.5 21.5q-41 -4 -63 0.5t-30.5 13.5t-7 20.5t7.5 21.5q27 -4 53.5 -2.5t57.5 2.5q9 27 23.5 64.5
t34.5 78.5t45 82t55 75q-72 -7 -138 -19t-107 -37q-18 -11 -12 -29t36 -35z" />
    <glyph glyph-name="S" unicode="S" horiz-adv-x="482" 
d="M436 499q36 -12 39.5 -40.5t-16.5 -63t-60 -70.5t-92 -64q-12 -6 -22.5 -8t-14.5 1t0 9.5t20 17.5q46 28 74 57t41 55q20 38 5.5 59.5t-65.5 13.5q-37 -9 -78.5 -31t-79 -51t-67 -61.5t-43 -61.5t-8 -52t38.5 -33q37 -11 80.5 -11.5t84 -2t73 -11t46.5 -37.5
q15 -29 9 -62.5t-27 -66.5t-55 -64t-75 -55.5t-86.5 -40.5t-90.5 -19q-5 0 -8 5t-3 10.5t4.5 10.5t15.5 7q44 7 84.5 32.5t73 58.5t54 69.5t27.5 66.5q5 29 -13.5 40.5t-50.5 14.5t-72 2t-78 2t-68 15t-42 41q-15 35 -2 77t45.5 83.5t79.5 78t101.5 60t111.5 30.5t109 -11z
" />
    <glyph glyph-name="G" unicode="G" horiz-adv-x="560" 
d="M653 226q2 5 9.5 0.5t5.5 -9.5q-20 -48 -56.5 -88.5t-82.5 -76.5t-98 -69l-103 -67q-14 -42 -30.5 -86.5t-36.5 -86t-43.5 -78t-51.5 -64.5q-15 -15 -33 -26t-36.5 -14t-36.5 4.5t-34 29.5q-21 30 -6 71t52.5 85t89.5 87.5t103 80.5q13 31 21.5 55t20.5 51
q-36 -32 -79 -60t-84 -47q-75 -33 -118 -12.5t-48 102.5q-3 43 11 91.5t42 97t68 94.5t88.5 85t105 68.5t116.5 44.5q55 14 84 -7.5t28.5 -63t-32.5 -95t-100 -102.5q-12 -8 -25 -10.5t-21 0.5t-7 10t17 17q22 14 45 37.5t41.5 48.5t28.5 48.5t7 38t-22.5 16.5t-61.5 -15
q-72 -30 -140 -83.5t-117 -117.5t-72 -130.5t-5 -121.5q5 -14 26 -13t51 12.5t65 32.5t68 46.5t60 55t41 58.5q9 5 18.5 4t16.5 -4.5t11 -8t1 -7.5l-17 -21q-11 -22 -23.5 -58.5l-27.5 -81.5l88.5 55.5t82.5 57t73.5 63.5t61.5 76zM52 -393q30 14 56.5 39t49 57.5t42 69
t35.5 74.5q-38 -31 -75 -65.5t-64 -66.5t-41.5 -59.5t-7.5 -43.5z" />
    <glyph glyph-name="H" unicode="H" horiz-adv-x="558" 
d="M-94 144q19 22 50 39t71 28.5t85.5 18.5t92.5 9q29 67 50 120.5t27 76.5t12.5 35t12.5 15.5t10.5 1.5t6.5 -8q8 -18 4.5 -53t-12 -73t-18.5 -70.5t-14 -44.5q37 -1 63.5 -3t55.5 -7q12 30 33 69.5t45 78.5t50 72t49 50q12 9 22 12.5t14.5 0.5t2.5 -13.5t-14 -28.5
q-34 -46 -69.5 -113t-65.5 -142l21 -6t19 -7q18 -9 27 -18.5t10.5 -17t-4.5 -10.5t-17 1q-15 8 -32 15t-35 13q-14 -37 -24.5 -73t-18.5 -69q-13 -54 -21 -103.5t0 -102.5q3 -20 -9 -29.5t-28.5 -10t-31.5 8.5t-16 27q-2 19 1.5 56t13 85.5t25.5 105.5t39 117q-26 5 -56 6.5
t-60 0.5q-18 -47 -39 -95.5t-43.5 -92.5t-46.5 -82t-47 -64q-26 -29 -55 -36.5t-53 1.5t-40 33.5t-16 60.5q0 9 3.5 15.5t7.5 8.5t8 -2.5t5 -16.5q5 -37 23.5 -44t43.5 19q18 19 38.5 50t41.5 70l42.5 82.5l41.5 87.5q-16 0 -43 -6t-57.5 -16.5t-61 -24.5t-52.5 -30
q-19 -13 -28.5 -26t-5.5 -24q4 -9 -8 -7t-24 12t-16.5 27.5t14.5 39.5z" />
    <glyph glyph-name="I" unicode="I" horiz-adv-x="461" 
d="M225 215q7 1 13 -0.5t7 -6t-3.5 -12.5t-18.5 -20q-31 -24 -58.5 -39t-51.5 -18q-31 -6 -56 13q-30 25 -39.5 60.5t-3 74t26.5 78t50 74t68 61t79 39.5q43 13 76 6.5t55 -28.5t33 -56t12 -75q1 -60 -11 -123.5t-34 -125t-52.5 -118t-65 -102t-72 -78t-74.5 -46.5
q-26 -10 -53.5 -8t-51 16.5t-39.5 40.5t-18 63q0 9 3.5 15.5t8.5 8.5t10 -2t7 -16q4 -33 22.5 -43t41.5 -7q40 6 76 29.5t68 58.5t58.5 80t47.5 93.5t35 99t21 97.5q3 18 5.5 48t0 60.5t-12 55t-30.5 30.5q-18 5 -41.5 -5t-47.5 -30.5t-47.5 -49t-41.5 -60.5t-29 -64.5
t-11 -60.5q0 -30 11 -43t30 -12.5t44 13t53 34.5z" />
    <glyph glyph-name="J" unicode="J" horiz-adv-x="486" 
d="M471 385q-7 -57 -25 -122t-44.5 -130t-60 -125.5t-71.5 -109.5t-79 -81t-83 -40q-47 -9 -80 5.5t-50 43t-18.5 67.5t14.5 79.5t49 79t85 65.5q26 14 39.5 15t16.5 -4.5t-4 -14.5t-20 -16q-38 -19 -66 -45.5t-44.5 -54.5t-21.5 -55t2.5 -46.5t27 -28.5t51.5 -1q30 6 64 34
t68 69.5t66 94.5t60 110t49 114.5t33 109.5q1 6 8.5 11.5t15.5 6.5t14 -5.5t4 -25.5zM66 371q12 25 41.5 45t68.5 35t84.5 25.5t90 17.5t84.5 9.5t69 2.5q39 -1 74.5 -4.5t63.5 -11t46.5 -19.5t22.5 -29q2 -6 -1.5 -13t-9.5 -12.5t-13 -8t-13 -0.5q15 17 -7 28.5t-67.5 17
t-107 4t-124 -9.5t-119.5 -24t-93 -39q-29 -18 -35.5 -33t0.5 -32q2 -5 -1 -9.5t-9 -4.5q-12 1 -22.5 7.5t-17 16.5t-8.5 21t3 20z" />
    <glyph glyph-name="K" unicode="K" horiz-adv-x="497" 
d="M505 520q-10 21 -1.5 26t22.5 -2.5t26.5 -24.5t11.5 -38q-2 -34 -30 -78t-74 -87.5t-105 -82.5t-123 -63q36 -21 69 -51.5t60.5 -66t49 -73t35.5 -72.5q6 -17 6.5 -29.5t-3 -19t-9.5 -5.5t-11 11q-24 49 -59 93t-73.5 80t-76 62t-67.5 39q-17 -44 -35.5 -85.5t-37 -77.5
t-36.5 -66t-36 -51q-24 -29 -52 -40t-52 -4t-40.5 31t-18.5 66q0 9 3 15.5t7 8.5t8 -2.5t6 -16.5q6 -37 25 -44t43 19q16 18 33.5 45t35 59.5t35 70l34.5 76.5q-30 -5 -51.5 -4.5t-20.5 5.5q1 15 10.5 28t20.5 22.5t20 14.5t9 4q19 1 39 -7q19 46 34.5 88l29.5 80q2 6 1 15
t-3 19t-3.5 18.5t0.5 13.5q5 16 18 40t27.5 42t26 23.5t14.5 -16.5q6 -27 -0.5 -68t-18.5 -87.5t-28 -94.5l-29 -88q30 8 69 30.5t79 53t77.5 65.5t64.5 69t40 63.5t4 48.5z" />
    <glyph glyph-name="L" unicode="L" horiz-adv-x="275" 
d="M241 476q9 19 24.5 15.5t26.5 -22.5t11.5 -48.5t-19.5 -62.5q-22 -35 -46.5 -79.5l-49 -92.5l-47.5 -95.5t-41 -89t-29.5 -73.5t-13.5 -48q40 15 93.5 24.5t110 14t109 2.5t90.5 -10q11 -2 20.5 -7t12.5 -10t-2 -8.5t-23 -2.5q-40 2 -93.5 0t-113 -13.5t-121.5 -34
t-118 -60.5q-11 -8 -22 -6t-19.5 9t-12.5 17.5t-1 20.5q8 41 28 97.5t46 120.5l55.5 130.5l57.5 126l51 108z" />
    <glyph glyph-name="V" unicode="V" horiz-adv-x="508" 
d="M13 397q-17 -3 -29.5 0.5t-14.5 9.5t9.5 13t43.5 11q98 11 147.5 -15t62 -83t-6 -141.5t-56.5 -190.5l-19 -50.5t-22 -52.5q30 22 70 59.5t83 86.5t86.5 107t82.5 120t70.5 125.5t50.5 124.5q0 12 6 18.5t13.5 5t13 -13.5t2.5 -38q-34 -81 -76.5 -158t-88 -146.5
t-91.5 -130t-88 -109.5t-77.5 -84.5t-59.5 -54.5q-14 -11 -26.5 -11.5t-21.5 5.5t-14.5 17.5t-5.5 25.5q-1 24 9 63t24 85.5l28.5 97t24.5 98.5t11 90t-12 71t-43.5 42t-85.5 3z" />
    <glyph glyph-name="O" unicode="O" horiz-adv-x="600" 
d="M-48 -54q-4 -14 -14 -11t-13 15q-1 71 21.5 142t60.5 136.5t88.5 121.5t105.5 96t111.5 60.5t107.5 15.5q48 -5 78 -26t44 -52q21 -48 16 -116t-30.5 -141t-67.5 -143.5t-94.5 -124t-112 -83t-119.5 -20.5t-89 52t-33.5 103t13 130t51.5 134q-50 -67 -83.5 -141
t-40.5 -148zM329 435q14 0 24 -3.5t13 -8.5t-3 -10t-25 -8q-37 -7 -71.5 -34t-64 -67t-53.5 -89t-40 -99.5t-23.5 -98.5t-4 -85.5t18.5 -61t44 -25.5q37 -2 75.5 23.5t74.5 70t67.5 102t56 117.5t39.5 118.5t17.5 104.5t-9.5 75t-41 30q-32 1 -71.5 -15.5t-82.5 -45.5
q27 10 59 10z" />
    <glyph glyph-name="Q" unicode="Q" horiz-adv-x="540" 
d="M468 -168q6 0 8.5 -5t1 -10.5t-7.5 -10.5t-16 -5q-73 2 -132.5 13.5t-107.5 31.5q-42 -29 -81.5 -40t-73.5 4q-30 13 -46 39t-20 61.5t3 78t23 89.5q-10 50 -6 102.5t21.5 102.5t46.5 95t69 81q26 23 58.5 42t67 30.5t69.5 14t66 -7t55.5 -32.5t39.5 -62q12 -33 10 -78.5
t-16.5 -96.5t-39.5 -105t-57 -106t-70 -98.5t-79 -81.5q45 -23 98 -35.5t116 -10.5zM370 409q14 0 24.5 -4t13 -9t-4.5 -9t-27 -5q-44 -2 -87 -31t-82 -72.5t-71 -95t-52 -98.5q12 -52 39 -92t73 -77q25 30 60.5 78t70.5 105t66 117t47.5 114t13.5 97t-34 66
q-27 15 -63.5 8.5t-75.5 -28t-76.5 -55t-67 -72.5t-47.5 -80t-17 -78q25 48 59 89t72.5 70.5t80.5 46t85 15.5zM52 -9q-14 -54 -9.5 -93.5t27.5 -53.5q12 -8 35.5 0.5t49.5 31.5q-21 13 -36.5 25.5t-27 26t-21 29t-18.5 34.5z" />
    <glyph glyph-name="R" unicode="R" horiz-adv-x="512" 
d="M138 42q-21 -3 -37 0t-11 16q3 8 16 23t39 33q4 -2 11 -2.5t11 -1.5q18 40 35 86.5t30.5 91t21 80.5t7.5 55q0 9 12.5 13t27.5 2t26.5 -12.5t8.5 -30.5q2 -9 -5.5 -38.5t-20 -68.5t-28 -80.5t-30.5 -74.5q33 22 70.5 56t69.5 71.5t53 76t21.5 69.5t-25 51t-87.5 21
q-43 1 -92 -7.5t-98 -25t-94 -41t-79 -55.5q-13 -12 -18.5 -11t-6 7t1 13t2.5 8q16 29 59.5 57t101 51t122 37.5t124 15t107 -14.5t69.5 -52q16 -27 9.5 -61t-28.5 -69.5t-56 -71.5t-73 -68t-79.5 -57.5t-75.5 -40.5q13 -3 36.5 -17t52 -35.5t60.5 -48.5t61.5 -56.5t54 -59
t38.5 -55.5q11 -20 10.5 -28t-7.5 -7t-18 8.5t-21 19.5q-20 24 -58 57.5t-83 67t-90.5 61.5t-78.5 41q-45 -85 -85.5 -144.5t-78.5 -86.5q-8 -5 -16.5 -7.5t-14.5 -2.5t-9 4t2 12q5 12 18.5 29.5t32 44.5t40 64.5t42.5 88.5z" />
    <glyph glyph-name="P" unicode="P" horiz-adv-x="517" 
d="M231 70l-46.5 -84t-49.5 -80.5t-50 -66t-49 -41.5q-20 -8 -26.5 -1t7.5 29q10 9 24 30t29.5 49.5l33 63.5t34.5 73q-21 -3 -34.5 0t-8.5 16q1 1 4.5 2t11 4t19 9t26.5 18l41 100t35.5 96.5t24.5 81t9 54.5q0 6 7.5 10.5t18.5 5t22.5 -3t19.5 -13.5q9 -12 7.5 -36.5
t-9.5 -54.5t-20 -63t-23.5 -61.5t-21 -49.5l-12.5 -28q40 22 80 55.5t72 71t51.5 75t18 68.5t-29 51.5t-88.5 23.5q-42 3 -91.5 -4.5t-98 -24t-94 -41t-79.5 -55.5q-13 -12 -18.5 -11t-6 7t1 13t2.5 8q16 29 59.5 57t101 51t122 37.5t124 15t107 -14.5t69.5 -52
q22 -47 2 -101.5t-67.5 -108t-116.5 -100.5t-145 -80z" />
    <glyph glyph-name="T" unicode="T" horiz-adv-x="408" 
d="M287 419q-104 0 -186 -15.5t-123 -37.5q-18 -9 -22.5 -19t0 -17.5t16 -12t27.5 -2.5q6 0 8.5 -3.5t1.5 -8t-6 -8.5t-14 -4q-32 -1 -51 12.5t-25.5 33t1 40.5t29.5 35q50 33 129 52t169.5 25t184 -1.5t173.5 -26.5q25 -8 33 -22t6 -28t-10.5 -24.5t-16.5 -10.5
q-14 11 -40.5 19t-58.5 13.5t-66.5 8t-65.5 2.5q-6 -21 -20.5 -68t-36.5 -107t-50 -127.5t-61 -130t-69 -114t-74 -79.5q-12 -3 -18 6t4 21q31 34 58.5 83t51.5 105.5t44 116.5t35.5 115.5t26 102t16.5 76.5z" />
    <glyph glyph-name="U" unicode="U" horiz-adv-x="568" 
d="M358 -181q-16 63 -4.5 147t42.5 178l-30.5 -37.5t-29.5 -35.5l-86 -99t-75.5 -79t-60 -55.5t-37.5 -27.5q-21 -11 -36.5 -4.5t-25 21t-14 33.5t-3.5 34q4 34 18.5 76t33.5 87l39 90.5t34.5 87t20.5 76t-3 57.5t-37 32.5t-80 -0.5q-16 -3 -27.5 0.5t-12.5 9.5t11.5 12.5
t44.5 10.5q97 11 147.5 -18t44.5 -101q-2 -25 -15.5 -60.5t-32.5 -75.5l-39.5 -82t-36.5 -80t-24.5 -69.5t-3.5 -50.5q13 7 54.5 36t95 78t111 117.5t101.5 154.5q21 53 46.5 106.5t51.5 97.5q12 14 33 22.5t40 9t31 -7t8 -24.5q-23 -15 -51 -59t-56 -103.5t-54 -129.5
t-43.5 -137.5t-24 -127t2.5 -97.5q4 -23 13.5 -28.5t19.5 -1t19 16t13 23.5q3 5 7 7t8 -0.5t5.5 -8t-1.5 -15.5q-11 -35 -33 -50.5t-45 -15.5t-44 15.5t-30 44.5z" />
    <glyph glyph-name="N" unicode="N" horiz-adv-x="613" 
d="M262 209q33 40 74.5 81t82 75.5t74.5 59t51 33.5q19 9 38 7t32 -12.5t17 -28.5t-7 -40q-27 -53 -55.5 -116.5t-53 -125.5t-42.5 -117t-24 -92q-6 -31 1 -46t21.5 -19t35 0.5t41 13t38.5 18.5l29 16q19 9 21 1.5t-16 -26.5q-26 -27 -56 -45.5t-59.5 -26t-56.5 -5t-46 16
t-28.5 39t-3.5 63.5q5 35 18 77.5t31 88t38.5 91.5l40.5 88l38 77t31 58q-31 -16 -77 -45.5t-98 -75.5t-105 -110.5t-98 -150.5q-26 -57 -55.5 -115t-58.5 -98q-12 -13 -30.5 -14.5t-32 6t-16.5 23t15 36.5q24 28 50 70t50.5 92t45.5 104.5t36 107t21.5 99t1.5 80.5
q-3 22 -18.5 24t-33.5 -7t-34.5 -24.5t-21.5 -27.5q-3 -6 -8 -7t-9.5 2t-6 9.5t2.5 15.5q14 29 43.5 52.5t61.5 30.5q33 7 53 -5.5t30 -37t12 -57.5t-1 -66.5t-10 -64t-14 -50.5z" />
    <glyph glyph-name="W" unicode="W" horiz-adv-x="640" 
d="M768 509q33 8 55 -6t32 -38.5t5.5 -53t-25.5 -49.5q-7 -9 -13 -11t-10 -0.5t-5 6t3 9.5q8 11 13.5 26.5t5.5 28.5t-7.5 19.5t-24.5 0.5q-33 -13 -72 -49t-79 -85.5t-78.5 -106.5t-70 -111t-54.5 -99.5t-31 -71.5q-18 -23 -32.5 -27.5t-31.5 2.5q-20 8 -27.5 37t-7 69
t7 86.5t15 89t17.5 76t15 49.5q5 14 -2 16t-22 -15q-30 -34 -68.5 -86.5t-77 -112t-72.5 -120t-55 -111.5q-5 -12 -14.5 -21t-21.5 -11t-25.5 4.5t-26.5 25.5q-11 19 -4.5 58.5t24 90t41 106.5l46 107.5l39.5 93t21 63.5q6 32 0 48t-19.5 21t-32 1t-37 -11.5t-35 -17
t-25.5 -15.5q-23 -17 -29.5 -9t16.5 33q20 21 46 37t52.5 23.5t51.5 5.5t44.5 -15t30 -39t8.5 -66q-5 -50 -27.5 -106.5t-49.5 -113.5l-51.5 -110.5t-33.5 -96.5l12 22l13 23q22 39 55.5 89.5l72 103.5l77 102.5t71.5 85.5q9 9 23 12.5t27.5 1t23.5 -10t12 -20.5
q-3 -32 -14.5 -79.5t-23 -102t-18.5 -110t-1 -103.5l35 73.5t51.5 104.5t64 117t72 111t77.5 87t79 45z" />
    <glyph glyph-name="X" unicode="X" horiz-adv-x="483" 
d="M452 -64q13 -1 12.5 -7.5t-8.5 -14.5q-29 -33 -66 -52.5t-71.5 -21t-60 19.5t-30.5 69q-5 42 -1 95t10 109q-86 -91 -151 -177.5t-110 -155.5q-24 -36 -40.5 -43.5t-22.5 3t-2 33t20 45.5q60 91 140.5 177.5l171.5 176.5q2 26 3.5 49.5t1.5 44.5q0 55 -13 86t-34 41.5
t-47 1.5t-52 -34t-50 -64t-40 -88q-1 -5 -6 -7.5t-10 -2t-9 4.5t-2 12q10 53 38.5 101.5t66 83.5t77.5 52.5t74.5 11t57 -42t23.5 -106.5q0 -34 -3 -71q94 88 177.5 148.5t143.5 86.5q11 4 18 1.5t8 -9t-6 -15t-25 -16.5q-83 -47 -163 -111.5t-157 -140.5l-9.5 -97t-6 -90
t2.5 -73.5t18 -47.5q15 -17 48 -10t84 45z" />
    <glyph glyph-name="Y" unicode="Y" horiz-adv-x="554" 
d="M61 -221q-7 6 -8 14t3 13t11.5 5t17.5 -8q38 -12 73 0.5t66.5 42t60 71.5t53.5 89.5t46.5 96l39.5 90.5q-18 -26 -47 -60t-64 -65t-74 -53.5t-79 -25.5q-42 -3 -61.5 14.5t-22.5 48.5t6.5 71.5t24.5 85t32.5 88.5t30.5 81q15 43 5 68.5t-35.5 31.5t-63 -7t-78.5 -46
q-18 -14 -28.5 -14.5t-13.5 6.5t1.5 18t17.5 20q65 46 117.5 59t88 0.5t52 -47t8.5 -83.5q-6 -38 -19 -81.5l-26 -85l-24.5 -78t-13.5 -62t7 -36.5t36 0q36 15 71 43t66 62t57.5 71.5t46 72t31.5 62.5t15 44q4 13 18 18.5t28.5 3.5t23.5 -11.5t4 -25.5q-9 -29 -26 -90
t-45.5 -135.5t-71 -153t-102.5 -142.5q-21 -23 -51 -48.5t-64.5 -42t-70.5 -17t-70 26.5z" />
    <glyph glyph-name="Z" unicode="Z" horiz-adv-x="474" 
d="M211 20q18 2 21 -8t-7 -15q-69 -7 -120.5 -35t-84 -59.5t-44 -58t-1.5 -30.5q14 -7 45.5 -0.5t70.5 22.5t81.5 39t78.5 50t61.5 55.5t30.5 55.5q4 20 -13.5 29t-44 10t-55.5 -4t-47 -11q-11 -4 -17.5 2.5t-9 17.5t-0.5 22.5t8 18.5q15 2 38.5 16t49.5 35t52.5 46.5
t48.5 51.5t36.5 50t16.5 41q3 22 -8 34.5t-30.5 15.5t-46.5 -4t-55 -25q-26 -17 -56 -45t-54.5 -61t-40 -66t-12.5 -59q1 -11 -3 -14.5t-9.5 -2.5t-10.5 6.5t-5 14.5q0 41 16 83.5t42 81.5t59 72t69 55q45 29 94.5 34.5t86 -9.5t51 -49.5t-9.5 -85.5q-10 -21 -26.5 -43
t-37.5 -43q-14 -14 -41.5 -35.5l-58.5 -44t-60 -41.5t-45 -28q40 13 76 9.5t61.5 -18t38 -37.5t4.5 -49q-14 -46 -52.5 -89t-87 -77.5t-100 -59t-90.5 -34.5q-41 -11 -70 -9t-47.5 11.5t-27.5 24.5t-10 32q-2 40 24.5 76t70 64.5t98.5 47.5t109 26z" />
    <glyph glyph-name="one" unicode="1" horiz-adv-x="212" 
d="M70 -161q-13 -6 -27.5 0t-27 18t-19.5 26.5t-5 24.5q10 54 28.5 114t40.5 120t46 117.5l45 106.5q3 7 -7.5 1.5t-24.5 -16.5l-27.5 -22.5t-17.5 -14.5q-2 -2 -5 -1t-5.5 4l-5 6t-2.5 4q-1 6 19 26.5t45.5 43t49.5 40t32 18.5q9 1 18.5 -3t17 -11t10 -16.5t-1.5 -18.5
q-6 -12 -21 -46t-34 -82.5l-39.5 -106t-38 -116.5t-29.5 -115t-14 -101z" />
    <glyph glyph-name="two" unicode="2" horiz-adv-x="445" 
d="M183 158q-7 -4 -18 -8.5t-23.5 -6t-27 2.5t-28.5 18q-23 21 -24 51t13.5 62.5t42 63.5t61.5 54.5t71.5 35.5t73.5 6q42 -8 69 -32t32 -68q4 -40 -7.5 -87.5t-35.5 -96t-58 -94t-74 -82.5q11 -10 27 -21t34.5 -18t39 -6t39.5 16q16 5 21 -2.5t-2 -15.5q-26 -35 -49 -47
t-47 -7.5t-51.5 21l-61.5 38.5q-14 -9 -35.5 -20t-46 -19.5t-49.5 -13t-46.5 -1t-36.5 16.5t-20 40q-5 28 9 61t44.5 52t77.5 13.5t108 -53.5q52 56 85 126.5t51 137.5q10 39 9 71t-15 40q-20 10 -49 -0.5t-58 -34.5t-52.5 -56t-31.5 -65q-3 -9 -3.5 -19.5t2.5 -18t11 -10.5
t24 3q22 8 26.5 -2.5t-21.5 -24.5zM50 -79q29 -1 53 9t53 33l-32 14q-39 17 -65 10.5t-36.5 -21t-4.5 -30t32 -15.5z" />
    <glyph glyph-name="three" unicode="3" horiz-adv-x="353" 
d="M237 382q-14 7 -35 5t-44 -11.5t-45 -25.5t-39 -37q-19 -23 -26 -12.5t11 41.5q15 27 41 49t55.5 36t60.5 18t57.5 -4t45 -30.5t24.5 -61.5q2 -17 -5.5 -38.5t-21.5 -44t-34.5 -44.5t-44.5 -39q41 -32 54 -68.5t5.5 -72.5t-32 -68t-58 -55.5t-73 -35.5t-78 -6.5t-71.5 31
t-53 76.5q-6 13 -4.5 19.5t6 8.5t9 -0.5t6.5 -7.5q11 -35 34 -48.5t52 -12.5t60.5 14.5t59.5 34.5t49.5 45.5t30 48.5t1.5 43.5t-36 30.5q-23 -14 -49.5 -24.5t-56.5 -19.5q-25 -8 -36 -2.5t-11.5 17.5t8.5 27t25 26q10 8 24.5 12.5t29.5 6t30.5 1t27.5 -1.5q17 12 34.5 37
t27.5 53t8 53.5t-24 36.5z" />
    <glyph glyph-name="four" unicode="4" horiz-adv-x="425" 
d="M-23 98q0 13 17 18.5t60 3.5q12 8 25.5 26t26.5 42t25.5 53t23.5 59q4 7 -1.5 10.5t-6.5 11.5q-2 9 2.5 20t12 25.5l16 31t15.5 35.5q18 4 32.5 -1.5t24.5 -15.5t14.5 -20t2.5 -14q-12 -38 -30.5 -79t-39 -78t-39.5 -66.5t-31 -45.5q30 -8 63.5 -9t72.5 7l78 184t65 141
q10 22 21.5 16t18.5 -25.5t8 -44.5t-9 -41q-17 -27 -39.5 -78.5l-53.5 -126.5q12 -1 12 -12t-6 -17l-23 -10q-29 -72 -40 -132t-14 -114q-12 -6 -27.5 -2.5t-29 11.5t-22 18.5t-5.5 20.5q4 32 16.5 76.5t34.5 98.5q-47 -12 -88.5 -9t-83.5 5q-17 -8 -33.5 -14t-30 -5
t-23 11.5t-12.5 34.5z" />
    <glyph glyph-name="five" unicode="5" horiz-adv-x="356" 
d="M117 409q12 4 36 8.5t53 7.5t59.5 4t56 -1t42.5 -7.5t18 -15.5q0 -8 -5 -19.5t-12.5 -21t-15 -16t-12.5 -4.5q-2 1 -18.5 3t-40.5 3.5t-51.5 1t-51.5 -5.5l2 -4q-12 -8 -24 -23.5t-22 -33.5t-16.5 -35t-5.5 -27q3 -28 18.5 -45t38 -28.5t48 -19t47 -16t36 -20.5t15.5 -32
q-3 -31 -25 -64t-54.5 -60t-70.5 -44t-73.5 -15t-64 26.5t-40.5 80.5q-3 13 -1 20t6.5 8.5t8.5 -1.5t6 -9q10 -34 40.5 -41.5t68 2t74.5 31t60 45.5q11 12 3.5 20t-27 15t-46.5 15.5t-54.5 21.5t-51 33.5t-36.5 51.5q-9 22 -3.5 49.5t18.5 54.5t30.5 51t32.5 39q0 5 0.5 8.5
t3.5 8.5z" />
    <glyph glyph-name="six" unicode="6" horiz-adv-x="348" 
d="M70 63q39 9 78.5 6t72 -15t54 -32t24.5 -46q2 -24 -17.5 -48.5t-50.5 -43t-69 -29.5t-72 -9q-52 5 -77.5 30.5t-31.5 61.5t2.5 78t24.5 80q31 84 96 172t162 165q13 8 28 4t27 -13t19 -19t4 -13l-42 -48.5l-44 -51.5q-2 -3 -7.5 -3.5l-11.5 -1t-11 -1t-7 -2.5
q-56 -50 -91.5 -103.5t-59.5 -117.5zM196 4q-18 20 -52 28.5t-82 0.5q-8 -22 -12 -47t-1 -46.5t15 -36.5t37 -16q24 -2 47.5 10.5t39 31t19.5 39.5t-11 36z" />
    <glyph glyph-name="seven" unicode="7" horiz-adv-x="379" 
d="M238 451q16 -4 33.5 -13.5t30.5 -25t20 -36.5t3 -48q-2 -13 -5 -23.5l-6.5 -22t-8.5 -25l-12 -31.5q27 3 48.5 4.5t40.5 -0.5q10 -1 9.5 -10.5t-7 -19.5t-16 -18t-17.5 -6q-10 2 -26 1t-51 -8q-20 -48 -47 -100.5t-54 -100l-51 -86l-37 -59.5q-12 -19 -29.5 -32.5
t-30 -15.5t-14.5 10t17 45q17 28 36.5 65.5l40 80l40.5 87.5l38 89q-42 -11 -83.5 -24.5t-72.5 -30.5q-17 -9 -24.5 -1.5t-7.5 21t7 28.5t18 20q32 14 81.5 24.5l101.5 21.5l18 46t14 41q32 109 1 115q-11 2 -27.5 -7.5t-34 -24.5t-34.5 -34t-29 -37q-7 -10 -13.5 -11
t-12 3.5t-8 11.5t-1.5 14q3 24 20.5 48t42.5 42t51.5 28t47.5 5z" />
    <glyph glyph-name="eight" unicode="8" horiz-adv-x="369" 
d="M392 283q-13 -28 -34.5 -58t-48 -58t-56 -51t-58.5 -36q13 -12 25.5 -28.5t21.5 -35.5t11.5 -38.5t-4.5 -36.5q-12 -27 -39 -48t-59.5 -32.5t-66 -11t-57.5 18.5q-24 19 -32 45t-0.5 55.5t30 60t59.5 57.5l16 11.5t17 10.5q-21 21 -38 47t-25 56q-12 33 -6 66.5t24.5 64
t47.5 55t64.5 39.5t74 18.5t76.5 -8.5q27 -9 43 -27t22.5 -41t4 -48t-12.5 -47zM161 126l34.5 14.5t32.5 8.5q40 35 72 79.5t48 89.5q4 13 3 26t-7 22.5t-15.5 15.5t-20.5 6q-34 0 -64 -11.5t-53.5 -30.5t-40 -43t-23.5 -48q-5 -15 -4.5 -33t5 -35.5t13 -33t20.5 -27.5z
M189 -10q0 7 -6 21.5t-14 28.5t-16 24t-12 8q-16 -6 -35.5 -20t-33.5 -32.5t-19 -39.5t8 -41q12 -14 33 -13.5t42 10t36.5 24.5t16.5 30z" />
    <glyph glyph-name="nine" unicode="9" horiz-adv-x="388" 
d="M57 -133q35 24 73.5 64t72.5 89t61 102.5t40 105.5q-21 -28 -49 -54.5t-59 -43.5t-62 -20.5t-58 14.5q-36 24 -43 66t10.5 86.5t56.5 84t93 59.5q38 12 77 8t68 -37q22 -25 32 -59.5t10.5 -71.5t-7.5 -73.5t-22 -65.5q-26 -55 -62 -102.5t-75 -84.5t-77 -62.5t-69 -37.5
q-9 -5 -16.5 -3.5t-11 7t-0.5 13.5t17 16zM121 185q13 -13 42.5 -6.5t61 27.5t59 54t38.5 74q-3 22 -12 33.5t-22.5 13.5t-29.5 -3t-34 -15q-29 -17 -53 -42.5t-39 -52t-19 -49t8 -34.5z" />
    <glyph glyph-name="zero" unicode="0" horiz-adv-x="403" 
d="M268 424q51 -5 79 -31.5t37.5 -67.5t3 -91.5t-24.5 -101.5t-45.5 -98.5t-60 -83t-67.5 -54t-69 -12.5q-36 7 -59.5 29.5t-36.5 55t-15.5 72t4 80t21.5 80t37 72.5q17 36 39 66t47 50t52.5 29.5t57.5 5.5zM222 351q10 0 16.5 -4t8 -8.5t-3.5 -8.5t-18 -5q-30 -6 -56.5 -37
t-47 -75t-33.5 -93.5t-15.5 -91.5t6.5 -70.5t32 -29.5t46.5 18t46 51t42.5 73.5t35 84.5t24.5 85t10.5 75t-8 53.5t-29 21.5t-37.5 -10t-39.5 -31q5 2 9 2h11z" />
    <glyph glyph-name="equal" unicode="=" horiz-adv-x="454" 
d="M105 192q33 15 75 22t82.5 8t74 -2t51.5 -7q8 -1 9.5 -13t-3 -25t-14 -22t-22.5 -3q-9 3 -39.5 5t-70 1t-81.5 -6t-73 -15q-14 -5 -17 2t0 17.5t11 22t17 15.5zM100 83q28 9 63 14.5t69 7.5t64 0t48 -8q13 -3 14.5 -16.5t-4.5 -27.5t-17 -22.5t-22 -2.5q-9 4 -32.5 8.5
t-54.5 6t-66 -1.5t-66 -12q-15 -5 -20 2t-2.5 17.5t10 21t16.5 13.5z" />
    <glyph glyph-name="period" unicode="." horiz-adv-x="272" 
d="M173 -4q-6 -6 -15 -9.5t-17 -4.5t-14 0t-7 4q-9 8 -11.5 21t1 25t14.5 21t29 9q13 0 21 -7.5t10.5 -18t0 -22t-11.5 -18.5z" />
    <glyph glyph-name="comma" unicode="," horiz-adv-x="249" 
d="M79 -92q-8 -3 -12 -0.5t-5.5 7t-0.5 9.5t4 7q9 6 19 19.5t19 30t16 33t10 27.5q2 10 11 15t19.5 5.5t20 -3.5t12.5 -10q5 -11 -8.5 -32.5t-34 -44t-41 -41t-29.5 -22.5z" />
    <glyph glyph-name="hyphen" unicode="-" horiz-adv-x="501" 
d="M132 149q28 9 63 14.5t69 7.5t64 0t48 -8q13 -3 14.5 -16t-4.5 -26.5t-17 -22t-22 -2.5q-9 4 -32.5 8.5t-54.5 6t-66 -1.5t-66 -12q-15 -5 -20 1.5t-2.5 17t10 20.5t16.5 13z" />
    <glyph glyph-name="plus" unicode="+" horiz-adv-x="505" 
d="M182 2q5 22 14 52.5l20 69.5q-23 -4 -41 -9t-39 -12q-14 -5 -18 3.5t-1 20.5t10.5 24t16.5 14q20 5 41 8t46 5l25 94q3 8 14.5 9t23.5 -2t20 -8.5t4 -10.5l-25 -79q32 2 53.5 0t38.5 -6q9 -1 7.5 -9.5t-8 -18t-15 -16t-14.5 -3.5q-19 6 -76 2q-12 -41 -20.5 -77.5
t-13.5 -65.5q-3 -15 -13 -18t-21 1.5t-20 13.5t-9 18z" />
    <glyph glyph-name="slash" unicode="/" horiz-adv-x="360" 
d="M48 -154q2 14 12 47l25 79l33.5 101.5l39 112.5l41 113.5t39.5 104l34.5 84t26.5 53.5q10 9 21.5 7t21 -10.5t15 -20.5t2.5 -24q-12 -24 -34.5 -75l-50.5 -116.5l-58 -138.5l-56.5 -140l-46.5 -121.5t-27 -82.5q-5 -18 -12.5 -23.5t-14.5 -1t-11 18t0 33.5z" />
    <glyph glyph-name="grave" unicode="`" horiz-adv-x="174" 
d="M96 426q7 -4 12.5 -14t9.5 -22t6.5 -24.5t3.5 -22.5q1 -8 -3.5 -11.5t-9.5 3.5q-8 8 -22.5 25t-41.5 34q-7 4 -5.5 11t8.5 12.5t18 8.5t24 0z" />
    <glyph glyph-name="circumflex" unicode="&#x2c6;" horiz-adv-x="232" 
d="M187 345q0 -7 -3.5 -12.5t-9.5 0.5q-8 7 -21 16.5t-28 18.5q-20 -7 -40.5 -16.5t-28.5 -15.5q-9 -6 -10 -1t2 12q17 23 37.5 40.5t40.5 30.5q10 6 16 0q16 -13 28 -34t17 -39z" />
    <glyph glyph-name="ring" unicode="&#x2da;" horiz-adv-x="179" 
d="M133 389q1 -23 -8.5 -35.5t-22.5 -17.5t-26 -3t-19 9q-16 21 -10.5 39t20.5 27t34.5 5.5t31.5 -24.5zM104 379q-4 9 -10 10t-11.5 -2.5t-7 -10.5t3.5 -14q2 -3 6 -3.5t8.5 1.5t7.5 6.5t3 12.5z" />
    <glyph glyph-name="acute" unicode="&#xb4;" horiz-adv-x="193" 
d="M159 374q-3 -7 -16 -13.5t-28.5 -12t-31.5 -9.5t-25 -5q-7 0 -11.5 4t2.5 9l31.5 23t37.5 43q6 10 14.5 8.5t15 -8.5t10.5 -18t1 -21z" />
    <glyph glyph-name="dieresis" unicode="&#xa8;" horiz-adv-x="262" 
d="M111 385q-5 -13 -14.5 -21.5t-19 -12.5t-17 -4.5t-9.5 3.5q-7 7 -9 17.5t1.5 20t12.5 16.5t25 7q7 0 14.5 -7.5t15.5 -18.5zM217 382q-5 -13 -14.5 -21.5t-19 -12.5t-17 -4.5t-8.5 3.5q-8 7 -10 17.5t1.5 20t12.5 16t25 6.5q7 0 14.5 -7t15.5 -18z" />
    <glyph glyph-name="caron" unicode="&#x2c7;" horiz-adv-x="232" 
d="M45 403q0 7 3.5 12.5t9.5 -0.5l19 -17t31 -21q50 22 68 35q9 6 10 0.5t-2 -12.5q-17 -22 -37.5 -40t-40.5 -31q-6 -3 -9.5 -2.5t-6.5 2.5q-16 13 -28 34.5t-17 39.5z" />
    <glyph glyph-name="tilde" unicode="&#x2dc;" horiz-adv-x="240" 
d="M65 351q-11 -8 -15.5 -5t-3.5 12t8.5 20t20.5 20q17 11 28.5 7t22 -11t22 -10t29.5 11q10 7 14.5 4t3 -11.5t-9 -20t-20.5 -21.5q-18 -14 -29.5 -9.5t-21 12t-20.5 11.5t-29 -9z" />
    <glyph glyph-name="Aacute" unicode="&#xc1;" horiz-adv-x="478" 
d="M233 -123q3 33 0 58.5t-11.5 47t-23 41.5t-34.5 43q-20 2 -31 4.5t-27 7.5l-39.5 -79.5t-40 -88t-31 -81.5t-12.5 -59q-4 -16 -15 -17.5t-21 8.5t-16.5 28.5t-1.5 42.5q6 19 20.5 51.5t33 70l39 75.5t38.5 68q-10 8 -11.5 19t3 19t14 11.5t23.5 -3.5q38 61 81 121.5
t85 110t80.5 83t67.5 41.5q39 5 57 -16.5t7 -59.5q-6 -19 -17.5 -50.5l-26.5 -73l-31.5 -90.5t-30.5 -103q29 5 58 15t55 22.5t47.5 26t34.5 25.5q16 -5 4.5 -21.5t-42 -36.5t-74.5 -38.5t-92 -25.5q-16 -63 -26 -128.5t-9 -131.5q-5 -25 -19 -23t-29 17t-26 35.5t-10 33.5z
M274 102q27 91 61.5 178.5t63.5 153.5q6 14 -4.5 12.5t-22.5 -9.5q-34 -25 -67.5 -62t-64.5 -78.5t-58.5 -85t-49.5 -82.5q7 -4 12 -8l11 -9q47 -10 119 -10zM264 68q-18 -1 -34.5 -1h-27.5q13 -16 25 -32.5t22 -32.5l4 20t5 21zM500 622q-3 -7 -16 -13.5t-28.5 -12
t-31.5 -9.5t-25 -5q-7 0 -11.5 4t2.5 9l31.5 23t37.5 43q6 10 14.5 8.5t15 -8.5t10.5 -18t1 -21z" />
    <glyph glyph-name="Acircumflex" unicode="&#xc2;" horiz-adv-x="478" 
d="M472 592q0 -7 -4 -12.5t-10 0.5l-18.5 16.5t-30.5 20.5q-20 -8 -40 -18t-29 -16t-10 -0.5t2 12.5q17 23 37.5 40.5t40.5 30.5q10 5 17 0q15 -13 27 -34.5t18 -39.5zM233 -123q3 33 0 58.5t-11.5 47t-23 41.5t-34.5 43q-20 2 -31 4.5t-27 7.5l-39.5 -79.5t-40 -88
t-31 -81.5t-12.5 -59q-4 -16 -15 -17.5t-21 8.5t-16.5 28.5t-1.5 42.5q6 19 20.5 51.5t33 70l39 75.5t38.5 68q-10 8 -11.5 19t3 19t14 11.5t23.5 -3.5q38 61 81 121.5t85 110t80.5 83t67.5 41.5q39 5 57 -16.5t7 -59.5q-6 -19 -17.5 -50.5l-26.5 -73l-31.5 -90.5
t-30.5 -103q29 5 58 15t55 22.5t47.5 26t34.5 25.5q16 -5 4.5 -21.5t-42 -36.5t-74.5 -38.5t-92 -25.5q-16 -63 -26 -128.5t-9 -131.5q-5 -25 -19 -23t-29 17t-26 35.5t-10 33.5zM274 102q27 91 61.5 178.5t63.5 153.5q6 14 -4.5 12.5t-22.5 -9.5q-34 -25 -67.5 -62
t-64.5 -78.5t-58.5 -85t-49.5 -82.5q7 -4 12 -8l11 -9q47 -10 119 -10zM264 68q-18 -1 -34.5 -1h-27.5q13 -16 25 -32.5t22 -32.5l4 20t5 21z" />
    <glyph glyph-name="Atilde" unicode="&#xc3;" horiz-adv-x="478" 
d="M233 -123q3 33 0 58.5t-11.5 47t-23 41.5t-34.5 43q-20 2 -31 4.5t-27 7.5l-39.5 -79.5t-40 -88t-31 -81.5t-12.5 -59q-4 -16 -15 -17.5t-21 8.5t-16.5 28.5t-1.5 42.5q6 19 20.5 51.5t33 70l39 75.5t38.5 68q-10 8 -11.5 19t3 19t14 11.5t23.5 -3.5q38 61 81 121.5
t85 110t80.5 83t67.5 41.5q39 5 57 -16.5t7 -59.5q-6 -19 -17.5 -50.5l-26.5 -73l-31.5 -90.5t-30.5 -103q29 5 58 15t55 22.5t47.5 26t34.5 25.5q16 -5 4.5 -21.5t-42 -36.5t-74.5 -38.5t-92 -25.5q-16 -63 -26 -128.5t-9 -131.5q-5 -25 -19 -23t-29 17t-26 35.5t-10 33.5z
M274 102q27 91 61.5 178.5t63.5 153.5q6 14 -4.5 12.5t-22.5 -9.5q-34 -25 -67.5 -62t-64.5 -78.5t-58.5 -85t-49.5 -82.5q7 -4 12 -8l11 -9q47 -10 119 -10zM264 68q-18 -1 -34.5 -1h-27.5q13 -16 25 -32.5t22 -32.5l4 20t5 21zM378 599q-11 -8 -15.5 -5t-3.5 12t8.5 20
t20.5 20q17 11 28.5 7t22 -11t22 -10t29.5 11q10 7 14.5 4t3 -11.5t-9 -20t-20.5 -21.5q-18 -14 -29.5 -9.5t-21 12t-20.5 11.5t-29 -9z" />
    <glyph glyph-name="Adieresis" unicode="&#xc4;" horiz-adv-x="478" 
d="M233 -123q3 33 0 58.5t-11.5 47t-23 41.5t-34.5 43q-20 2 -31 4.5t-27 7.5l-39.5 -79.5t-40 -88t-31 -81.5t-12.5 -59q-4 -16 -15 -17.5t-21 8.5t-16.5 28.5t-1.5 42.5q6 19 20.5 51.5t33 70l39 75.5t38.5 68q-10 8 -11.5 19t3 19t14 11.5t23.5 -3.5q38 61 81 121.5
t85 110t80.5 83t67.5 41.5q39 5 57 -16.5t7 -59.5q-6 -19 -17.5 -50.5l-26.5 -73l-31.5 -90.5t-30.5 -103q29 5 58 15t55 22.5t47.5 26t34.5 25.5q16 -5 4.5 -21.5t-42 -36.5t-74.5 -38.5t-92 -25.5q-16 -63 -26 -128.5t-9 -131.5q-5 -25 -19 -23t-29 17t-26 35.5t-10 33.5z
M274 102q27 91 61.5 178.5t63.5 153.5q6 14 -4.5 12.5t-22.5 -9.5q-34 -25 -67.5 -62t-64.5 -78.5t-58.5 -85t-49.5 -82.5q7 -4 12 -8l11 -9q47 -10 119 -10zM264 68q-18 -1 -34.5 -1h-27.5q13 -16 25 -32.5t22 -32.5l4 20t5 21zM401 633q-5 -13 -14.5 -21.5t-19 -12.5
t-17 -4.5t-9.5 3.5q-7 7 -9 17.5t1.5 20t12.5 16.5t25 7q7 0 14.5 -7.5t15.5 -18.5zM507 630q-5 -13 -14.5 -21.5t-19 -12.5t-17 -4.5t-8.5 3.5q-8 7 -10 17.5t1.5 20t12.5 16t25 6.5q7 0 14.5 -7t15.5 -18z" />
    <glyph glyph-name="Aring" unicode="&#xc5;" horiz-adv-x="478" 
d="M233 -123q3 33 0 58.5t-11.5 47t-23 41.5t-34.5 43q-20 2 -31 4.5t-27 7.5l-39.5 -79.5t-40 -88t-31 -81.5t-12.5 -59q-4 -16 -15 -17.5t-21 8.5t-16.5 28.5t-1.5 42.5q6 19 20.5 51.5t33 70l39 75.5t38.5 68q-10 8 -11.5 19t3 19t14 11.5t23.5 -3.5q38 61 81 121.5
t85 110t80.5 83t67.5 41.5q39 5 57 -16.5t7 -59.5q-6 -19 -17.5 -50.5l-26.5 -73l-31.5 -90.5t-30.5 -103q29 5 58 15t55 22.5t47.5 26t34.5 25.5q16 -5 4.5 -21.5t-42 -36.5t-74.5 -38.5t-92 -25.5q-16 -63 -26 -128.5t-9 -131.5q-5 -25 -19 -23t-29 17t-26 35.5t-10 33.5z
M274 102q27 91 61.5 178.5t63.5 153.5q6 14 -4.5 12.5t-22.5 -9.5q-34 -25 -67.5 -62t-64.5 -78.5t-58.5 -85t-49.5 -82.5q7 -4 12 -8l11 -9q47 -10 119 -10zM264 68q-18 -1 -34.5 -1h-27.5q13 -16 25 -32.5t22 -32.5l4 20t5 21zM477 636q1 -23 -8.5 -35.5t-22.5 -17.5
t-26 -3t-19 9q-16 21 -10.5 39t20.5 27t34.5 5.5t31.5 -24.5zM448 626q-4 9 -10 10t-11.5 -2.5t-7 -10.5t3.5 -14q2 -3 6 -3.5t8.5 1.5t7.5 6.5t3 12.5z" />
    <glyph glyph-name="Eacute" unicode="&#xc9;" horiz-adv-x="505" 
d="M506 626q-3 -7 -16.5 -14.5t-29.5 -13.5t-32 -10.5t-25 -6.5q-8 0 -12.5 4.5t3.5 9.5l31.5 22.5t37.5 43.5q4 7 12.5 6t16.5 -7t12.5 -15t1.5 -19zM538 388q-29 23 -72 30.5t-90 3.5t-93.5 -18t-83 -35t-58 -46.5t-19.5 -52.5t33 -54t100 -50q18 7 36 11t32 6l31 2.5
t26 -4t-1.5 -20t-52.5 -44.5l-20.5 5.5t-19.5 6.5q-38 -14 -77.5 -38.5t-72 -53.5t-54.5 -59t-25.5 -54.5t15.5 -40t69 -16.5q25 0 54 3.5t62 13.5t71.5 28t83.5 46q11 9 15.5 2.5t-0.5 -12.5q-33 -35 -75 -60t-87 -39.5t-88.5 -19.5t-78.5 1q-40 7 -69.5 21t-45.5 40
q-17 28 -13 55.5t22 52.5t46.5 48t60.5 42.5t65 35.5l59 28q-39 0 -71.5 5.5t-55 22t-34 47t-9.5 80.5q1 40 22.5 68.5t56 47.5t78 29.5t89 13.5t90 -1t80.5 -13t60 -22.5t29 -29.5q2 -5 2 -10t-2 -8t-7 -2t-13 7z" />
    <glyph glyph-name="Ecircumflex" unicode="&#xca;" horiz-adv-x="505" 
d="M500 592q0 -7 -3.5 -12.5t-9.5 0.5l-18.5 16t-30.5 20q-23 -8 -41.5 -17.5t-27.5 -15.5t-10 -0.5t2 12.5q17 23 37.5 40.5t40.5 30.5q11 5 16 0q16 -13 28 -34.5t17 -39.5zM538 388q-29 23 -72 30.5t-90 3.5t-93.5 -18t-83 -35t-58 -46.5t-19.5 -52.5t33 -54t100 -50
q18 7 36 11t32 6l31 2.5t26 -4t-1.5 -20t-52.5 -44.5l-20.5 5.5t-19.5 6.5q-38 -14 -77.5 -38.5t-72 -53.5t-54.5 -59t-25.5 -54.5t15.5 -40t69 -16.5q25 0 54 3.5t62 13.5t71.5 28t83.5 46q11 9 15.5 2.5t-0.5 -12.5q-33 -35 -75 -60t-87 -39.5t-88.5 -19.5t-78.5 1
q-40 7 -69.5 21t-45.5 40q-17 28 -13 55.5t22 52.5t46.5 48t60.5 42.5t65 35.5l59 28q-39 0 -71.5 5.5t-55 22t-34 47t-9.5 80.5q1 40 22.5 68.5t56 47.5t78 29.5t89 13.5t90 -1t80.5 -13t60 -22.5t29 -29.5q2 -5 2 -10t-2 -8t-7 -2t-13 7z" />
    <glyph glyph-name="Edieresis" unicode="&#xcb;" horiz-adv-x="505" 
d="M430 633q-5 -13 -14.5 -22t-19 -14t-17.5 -6t-9 3q-8 7 -11 17.5t-1 20.5t10 17.5t24 7.5q7 0 18.5 -6.5t19.5 -17.5zM536 630q-5 -13 -14 -22t-19 -14t-17.5 -6t-9.5 3q-8 7 -11 18t-1 21t10.5 17.5t24.5 7.5q7 0 18 -7t19 -18zM538 388q-29 23 -72 30.5t-90 3.5
t-93.5 -18t-83 -35t-58 -46.5t-19.5 -52.5t33 -54t100 -50q18 7 36 11t32 6l31 2.5t26 -4t-1.5 -20t-52.5 -44.5l-20.5 5.5t-19.5 6.5q-38 -14 -77.5 -38.5t-72 -53.5t-54.5 -59t-25.5 -54.5t15.5 -40t69 -16.5q25 0 54 3.5t62 13.5t71.5 28t83.5 46q11 9 15.5 2.5
t-0.5 -12.5q-33 -35 -75 -60t-87 -39.5t-88.5 -19.5t-78.5 1q-40 7 -69.5 21t-45.5 40q-17 28 -13 55.5t22 52.5t46.5 48t60.5 42.5t65 35.5l59 28q-39 0 -71.5 5.5t-55 22t-34 47t-9.5 80.5q1 40 22.5 68.5t56 47.5t78 29.5t89 13.5t90 -1t80.5 -13t60 -22.5t29 -29.5
q2 -5 2 -10t-2 -8t-7 -2t-13 7z" />
    <glyph glyph-name="Iacute" unicode="&#xcd;" horiz-adv-x="472" 
d="M443 626q-3 -7 -15.5 -14.5t-28 -13.5t-30.5 -10.5t-24 -6.5q-8 0 -12.5 4.5t3.5 9.5q10 8 30.5 22.5t37.5 43.5q4 7 12 6t15 -7t11 -15t1 -19zM225 215q7 1 13 -0.5t7 -6t-3.5 -12.5t-18.5 -20q-31 -24 -58.5 -39t-51.5 -18q-31 -6 -56 13q-30 25 -39.5 60.5t-3 74
t26.5 78t50 74t68 61t79 39.5q43 13 76 6.5t55 -28.5t33 -56t12 -75q1 -60 -11 -123.5t-34 -125t-52.5 -118t-65 -102t-72 -78t-74.5 -46.5q-26 -10 -53.5 -8t-51 16.5t-39.5 40.5t-18 63q0 9 3.5 15.5t8.5 8.5t10 -2t7 -16q4 -33 22.5 -43t41.5 -7q40 6 76 29.5t68 58.5
t58.5 80t47.5 93.5t35 99t21 97.5q3 18 5.5 48t0 60.5t-12 55t-30.5 30.5q-18 5 -41.5 -5t-47.5 -30.5t-47.5 -49t-41.5 -60.5t-29 -64.5t-11 -60.5q0 -30 11 -43t30 -12.5t44 13t53 34.5z" />
    <glyph glyph-name="Icircumflex" unicode="&#xce;" horiz-adv-x="472" 
d="M431 592q0 -7 -3.5 -12.5t-9.5 0.5l-18.5 16.5t-30.5 20.5q-25 -9 -43 -18.5t-26 -15.5q-9 -6 -10 -0.5t2 12.5q17 23 37.5 40.5t40.5 30.5q10 5 16 0q16 -13 28 -34.5t17 -39.5zM225 215q7 1 13 -0.5t7 -6t-3.5 -12.5t-18.5 -20q-31 -24 -58.5 -39t-51.5 -18
q-31 -6 -56 13q-30 25 -39.5 60.5t-3 74t26.5 78t50 74t68 61t79 39.5q43 13 76 6.5t55 -28.5t33 -56t12 -75q1 -60 -11 -123.5t-34 -125t-52.5 -118t-65 -102t-72 -78t-74.5 -46.5q-26 -10 -53.5 -8t-51 16.5t-39.5 40.5t-18 63q0 9 3.5 15.5t8.5 8.5t10 -2t7 -16
q4 -33 22.5 -43t41.5 -7q40 6 76 29.5t68 58.5t58.5 80t47.5 93.5t35 99t21 97.5q3 18 5.5 48t0 60.5t-12 55t-30.5 30.5q-18 5 -41.5 -5t-47.5 -30.5t-47.5 -49t-41.5 -60.5t-29 -64.5t-11 -60.5q0 -30 11 -43t30 -12.5t44 13t53 34.5z" />
    <glyph glyph-name="Idieresis" unicode="&#xcf;" horiz-adv-x="472" 
d="M338 633q-5 -13 -14.5 -22t-19 -14t-17.5 -6t-10 3q-8 7 -11 17.5t-1 20.5t10.5 17.5t24.5 7.5q7 0 18.5 -6.5t19.5 -17.5zM445 630q-5 -13 -15 -22t-19.5 -14t-17.5 -6t-10 3q-7 7 -10.5 18t-1 21t10.5 17.5t24 7.5q7 0 19 -7t20 -18zM225 215q7 1 13 -0.5t7 -6
t-3.5 -12.5t-18.5 -20q-31 -24 -58.5 -39t-51.5 -18q-31 -6 -56 13q-30 25 -39.5 60.5t-3 74t26.5 78t50 74t68 61t79 39.5q43 13 76 6.5t55 -28.5t33 -56t12 -75q1 -60 -11 -123.5t-34 -125t-52.5 -118t-65 -102t-72 -78t-74.5 -46.5q-26 -10 -53.5 -8t-51 16.5t-39.5 40.5
t-18 63q0 9 3.5 15.5t8.5 8.5t10 -2t7 -16q4 -33 22.5 -43t41.5 -7q40 6 76 29.5t68 58.5t58.5 80t47.5 93.5t35 99t21 97.5q3 18 5.5 48t0 60.5t-12 55t-30.5 30.5q-18 5 -41.5 -5t-47.5 -30.5t-47.5 -49t-41.5 -60.5t-29 -64.5t-11 -60.5q0 -30 11 -43t30 -12.5t44 13
t53 34.5z" />
    <glyph glyph-name="Oacute" unicode="&#xd3;" horiz-adv-x="625" 
d="M562 626q-3 -7 -16.5 -14.5t-29.5 -13.5t-32 -10.5t-25 -6.5q-8 0 -12.5 4.5t3.5 9.5q10 8 31 22.5t37 43.5q4 7 12.5 6t16.5 -7t13 -15t2 -19zM-48 -54q-4 -14 -14 -11t-13 15q-1 71 21.5 142t60.5 136.5t88.5 121.5t105.5 96t111.5 60.5t107.5 15.5q48 -5 78 -26
t44 -52q21 -48 16 -116t-30.5 -141t-67.5 -143.5t-94.5 -124t-112 -83t-119.5 -20.5t-89 52t-33.5 103t13 130t51.5 134q-50 -67 -83.5 -141t-40.5 -148zM329 435q14 0 24 -3.5t13 -8.5t-3 -10t-25 -8q-37 -7 -71.5 -34t-64 -67t-53.5 -89t-40 -99.5t-23.5 -98.5t-4 -85.5
t18.5 -61t44 -25.5q37 -2 75.5 23.5t74.5 70t67.5 102t56 117.5t39.5 118.5t17.5 104.5t-9.5 75t-41 30q-32 1 -71.5 -15.5t-82.5 -45.5q27 10 59 10z" />
    <glyph glyph-name="Ocircumflex" unicode="&#xd4;" horiz-adv-x="625" 
d="M535 592q0 -7 -4 -12.5t-10 0.5l-18.5 17t-30.5 21q-24 -8 -42 -18.5t-27 -16.5t-10 -0.5t2 12.5q17 23 37.5 40.5t40.5 30.5q10 5 17 0q15 -13 27 -34.5t18 -39.5zM-48 -54q-4 -14 -14 -11t-13 15q-1 71 21.5 142t60.5 136.5t88.5 121.5t105.5 96t111.5 60.5t107.5 15.5
q48 -5 78 -26t44 -52q21 -48 16 -116t-30.5 -141t-67.5 -143.5t-94.5 -124t-112 -83t-119.5 -20.5t-89 52t-33.5 103t13 130t51.5 134q-50 -67 -83.5 -141t-40.5 -148zM329 435q14 0 24 -3.5t13 -8.5t-3 -10t-25 -8q-37 -7 -71.5 -34t-64 -67t-53.5 -89t-40 -99.5
t-23.5 -98.5t-4 -85.5t18.5 -61t44 -25.5q37 -2 75.5 23.5t74.5 70t67.5 102t56 117.5t39.5 118.5t17.5 104.5t-9.5 75t-41 30q-32 1 -71.5 -15.5t-82.5 -45.5q27 10 59 10z" />
    <glyph glyph-name="Otilde" unicode="&#xd5;" horiz-adv-x="625" 
d="M445 597q-11 -8 -16 -5.5t-3.5 10t8.5 18t20 18.5q18 11 29 7t21.5 -10.5t22.5 -9.5t30 11q10 7 14.5 5t3 -9.5t-9.5 -18t-21 -20.5q-12 -9 -20.5 -9.5t-15.5 2.5t-13.5 9t-13.5 9t-15.5 2.5t-20.5 -9.5zM-48 -54q-4 -14 -14 -11t-13 15q-1 71 21.5 142t60.5 136.5
t88.5 121.5t105.5 96t111.5 60.5t107.5 15.5q48 -5 78 -26t44 -52q21 -48 16 -116t-30.5 -141t-67.5 -143.5t-94.5 -124t-112 -83t-119.5 -20.5t-89 52t-33.5 103t13 130t51.5 134q-50 -67 -83.5 -141t-40.5 -148zM329 435q14 0 24 -3.5t13 -8.5t-3 -10t-25 -8
q-37 -7 -71.5 -34t-64 -67t-53.5 -89t-40 -99.5t-23.5 -98.5t-4 -85.5t18.5 -61t44 -25.5q37 -2 75.5 23.5t74.5 70t67.5 102t56 117.5t39.5 118.5t17.5 104.5t-9.5 75t-41 30q-32 1 -71.5 -15.5t-82.5 -45.5q27 10 59 10z" />
    <glyph glyph-name="Odieresis" unicode="&#xd6;" horiz-adv-x="625" 
d="M594 630q-5 -13 -14.5 -22.5t-19 -14.5t-17 -6.5t-8.5 2.5q-8 7 -11 18t-1 21.5t10 18t24 7.5q7 0 18 -6.5t19 -17.5zM488 633q-5 -13 -14.5 -22.5t-19 -15t-17 -6.5t-8.5 3q-8 7 -11 17.5t-1 21t10 18t24 7.5q7 0 18 -6t19 -17zM-48 -54q-4 -14 -14 -11t-13 15
q-1 71 21.5 142t60.5 136.5t88.5 121.5t105.5 96t111.5 60.5t107.5 15.5q48 -5 78 -26t44 -52q21 -48 16 -116t-30.5 -141t-67.5 -143.5t-94.5 -124t-112 -83t-119.5 -20.5t-89 52t-33.5 103t13 130t51.5 134q-50 -67 -83.5 -141t-40.5 -148zM329 435q14 0 24 -3.5t13 -8.5
t-3 -10t-25 -8q-37 -7 -71.5 -34t-64 -67t-53.5 -89t-40 -99.5t-23.5 -98.5t-4 -85.5t18.5 -61t44 -25.5q37 -2 75.5 23.5t74.5 70t67.5 102t56 117.5t39.5 118.5t17.5 104.5t-9.5 75t-41 30q-32 1 -71.5 -15.5t-82.5 -45.5q27 10 59 10z" />
    <glyph glyph-name="cedilla" unicode="&#xb8;" horiz-adv-x="203" 
d="M49 -222l50.5 29.5t16 11t-5.5 2t-15 3.5q-10 5 -12 17t0 24q2 8 6 8t6 -7q4 -12 13 -17t19.5 -7.5t19 -6t10.5 -13.5q1 -5 -2 -12q-7 -12 -31 -24.5t-66 -21.5q-7 0 -11.5 4t2.5 10z" />
    <glyph glyph-name="Uacute" unicode="&#xda;" horiz-adv-x="568" 
d="M508 626q-3 -7 -15.5 -14.5t-28 -13.5t-31 -10.5t-24.5 -6.5q-8 0 -12.5 4.5t3.5 9.5q10 8 30.5 22.5t37.5 43.5q4 7 12 6t15 -7t11.5 -15t1.5 -19zM358 -181q-16 63 -4.5 147t42.5 178l-30.5 -37.5t-29.5 -35.5l-86 -99t-75.5 -79t-60 -55.5t-37.5 -27.5
q-21 -11 -36.5 -4.5t-25 21t-14 33.5t-3.5 34q4 34 18.5 76t33.5 87l39 90.5t34.5 87t20.5 76t-3 57.5t-37 32.5t-80 -0.5q-16 -3 -27.5 0.5t-12.5 9.5t11.5 12.5t44.5 10.5q97 11 147.5 -18t44.5 -101q-2 -25 -15.5 -60.5t-32.5 -75.5l-39.5 -82t-36.5 -80t-24.5 -69.5
t-3.5 -50.5q13 7 54.5 36t95 78t111 117.5t101.5 154.5q21 53 46.5 106.5t51.5 97.5q12 14 33 22.5t40 9t31 -7t8 -24.5q-23 -15 -51 -59t-56 -103.5t-54 -129.5t-43.5 -137.5t-24 -127t2.5 -97.5q4 -23 13.5 -28.5t19.5 -1t19 16t13 23.5q3 5 7 7t8 -0.5t5.5 -8t-1.5 -15.5
q-11 -35 -33 -50.5t-45 -15.5t-44 15.5t-30 44.5z" />
    <glyph glyph-name="Ucircumflex" unicode="&#xdb;" horiz-adv-x="568" 
d="M467 592q0 -7 -3.5 -12.5t-9.5 0.5l-18.5 16.5t-30.5 20.5q-24 -10 -42.5 -19t-26.5 -15q-9 -6 -10 -0.5t2 12.5q17 23 37.5 40.5t40.5 30.5q10 5 16 0q16 -13 28 -34.5t17 -39.5zM358 -181q-16 63 -4.5 147t42.5 178l-30.5 -37.5t-29.5 -35.5l-86 -99t-75.5 -79
t-60 -55.5t-37.5 -27.5q-21 -11 -36.5 -4.5t-25 21t-14 33.5t-3.5 34q4 34 18.5 76t33.5 87l39 90.5t34.5 87t20.5 76t-3 57.5t-37 32.5t-80 -0.5q-16 -3 -27.5 0.5t-12.5 9.5t11.5 12.5t44.5 10.5q97 11 147.5 -18t44.5 -101q-2 -25 -15.5 -60.5t-32.5 -75.5l-39.5 -82
t-36.5 -80t-24.5 -69.5t-3.5 -50.5q13 7 54.5 36t95 78t111 117.5t101.5 154.5q21 53 46.5 106.5t51.5 97.5q12 14 33 22.5t40 9t31 -7t8 -24.5q-23 -15 -51 -59t-56 -103.5t-54 -129.5t-43.5 -137.5t-24 -127t2.5 -97.5q4 -23 13.5 -28.5t19.5 -1t19 16t13 23.5q3 5 7 7
t8 -0.5t5.5 -8t-1.5 -15.5q-11 -35 -33 -50.5t-45 -15.5t-44 15.5t-30 44.5z" />
    <glyph glyph-name="Udieresis" unicode="&#xdc;" horiz-adv-x="568" 
d="M510 630q-5 -13 -14 -22.5t-18.5 -14.5t-17 -6.5t-9.5 2.5q-8 7 -11 18.5t-1 22t10.5 18.5t24.5 8q7 0 17.5 -7.5t18.5 -18.5zM404 633q-5 -13 -14 -22.5t-18.5 -15t-17.5 -6.5t-9 3q-8 7 -11 18t-1 21.5t10 18.5t24 8q7 0 18 -7t19 -18zM358 -181q-16 63 -4.5 147
t42.5 178l-30.5 -37.5t-29.5 -35.5l-86 -99t-75.5 -79t-60 -55.5t-37.5 -27.5q-21 -11 -36.5 -4.5t-25 21t-14 33.5t-3.5 34q4 34 18.5 76t33.5 87l39 90.5t34.5 87t20.5 76t-3 57.5t-37 32.5t-80 -0.5q-16 -3 -27.5 0.5t-12.5 9.5t11.5 12.5t44.5 10.5q97 11 147.5 -18
t44.5 -101q-2 -25 -15.5 -60.5t-32.5 -75.5l-39.5 -82t-36.5 -80t-24.5 -69.5t-3.5 -50.5q13 7 54.5 36t95 78t111 117.5t101.5 154.5q21 53 46.5 106.5t51.5 97.5q12 14 33 22.5t40 9t31 -7t8 -24.5q-23 -15 -51 -59t-56 -103.5t-54 -129.5t-43.5 -137.5t-24 -127
t2.5 -97.5q4 -23 13.5 -28.5t19.5 -1t19 16t13 23.5q3 5 7 7t8 -0.5t5.5 -8t-1.5 -15.5q-11 -35 -33 -50.5t-45 -15.5t-44 15.5t-30 44.5z" />
    <glyph glyph-name="agrave" unicode="&#xe0;" horiz-adv-x="333" 
d="M261 166q-8 -19 -14.5 -41t-9 -39.5t1.5 -28t18 -6.5q19 5 39.5 21.5t40 37t36 41.5t26.5 35q6 9 12 12.5t10 2t4 -7.5t-6 -16q-24 -36 -49.5 -69.5t-50.5 -59t-48.5 -41t-43.5 -15.5q-32 0 -46 28t-6 74q-26 -35 -50 -59t-47 -31q-15 -4 -30 3.5t-24 27.5
q-9 27 1.5 68.5t33.5 80t54 66.5t63 28q27 0 46 -10t30.5 -26t13.5 -36.5t-5 -39.5zM214 190q0 8 -1 17.5t-4 16.5t-8.5 9.5t-14.5 -3.5q-20 -14 -39.5 -38.5t-34.5 -50t-22.5 -47t-3.5 -27.5q5 -8 22 3t37 31.5t39 45.5t30 43zM187 426q7 -4 12.5 -14t9.5 -22t6.5 -24.5
t3.5 -22.5q1 -8 -3.5 -11.5t-9.5 3.5q-8 8 -22.5 25t-41.5 34q-7 4 -5.5 11t8.5 12.5t18 8.5t24 0z" />
    <glyph glyph-name="aacute" unicode="&#xe1;" horiz-adv-x="333" 
d="M261 166q-8 -19 -14.5 -41t-9 -39.5t1.5 -28t18 -6.5q19 5 39.5 21.5t40 37t36 41.5t26.5 35q6 9 12 12.5t10 2t4 -7.5t-6 -16q-24 -36 -49.5 -69.5t-50.5 -59t-48.5 -41t-43.5 -15.5q-32 0 -46 28t-6 74q-26 -35 -50 -59t-47 -31q-15 -4 -30 3.5t-24 27.5
q-9 27 1.5 68.5t33.5 80t54 66.5t63 28q27 0 46 -10t30.5 -26t13.5 -36.5t-5 -39.5zM214 190q0 8 -1 17.5t-4 16.5t-8.5 9.5t-14.5 -3.5q-20 -14 -39.5 -38.5t-34.5 -50t-22.5 -47t-3.5 -27.5q5 -8 22 3t37 31.5t39 45.5t30 43zM250 374q-3 -7 -16 -13.5t-28.5 -12
t-31.5 -9.5t-25 -5q-7 0 -11.5 4t2.5 9l31.5 23t37.5 43q6 10 14.5 8.5t15 -8.5t10.5 -18t1 -21z" />
    <glyph glyph-name="acircumflex" unicode="&#xe2;" horiz-adv-x="333" 
d="M261 166q-8 -19 -14.5 -41t-9 -39.5t1.5 -28t18 -6.5q19 5 39.5 21.5t40 37t36 41.5t26.5 35q6 9 12 12.5t10 2t4 -7.5t-6 -16q-24 -36 -49.5 -69.5t-50.5 -59t-48.5 -41t-43.5 -15.5q-32 0 -46 28t-6 74q-26 -35 -50 -59t-47 -31q-15 -4 -30 3.5t-24 27.5
q-9 27 1.5 68.5t33.5 80t54 66.5t63 28q27 0 46 -10t30.5 -26t13.5 -36.5t-5 -39.5zM214 190q0 8 -1 17.5t-4 16.5t-8.5 9.5t-14.5 -3.5q-20 -14 -39.5 -38.5t-34.5 -50t-22.5 -47t-3.5 -27.5q5 -8 22 3t37 31.5t39 45.5t30 43zM256 345q0 -7 -3.5 -12.5t-9.5 0.5
q-8 7 -21 16.5t-28 18.5q-20 -7 -40.5 -16.5t-28.5 -15.5q-9 -6 -10 -1t2 12q17 23 37.5 40.5t40.5 30.5q10 6 16 0q16 -13 28 -34t17 -39z" />
    <glyph glyph-name="atilde" unicode="&#xe3;" horiz-adv-x="333" 
d="M261 166q-8 -19 -14.5 -41t-9 -39.5t1.5 -28t18 -6.5q19 5 39.5 21.5t40 37t36 41.5t26.5 35q6 9 12 12.5t10 2t4 -7.5t-6 -16q-24 -36 -49.5 -69.5t-50.5 -59t-48.5 -41t-43.5 -15.5q-32 0 -46 28t-6 74q-26 -35 -50 -59t-47 -31q-15 -4 -30 3.5t-24 27.5
q-9 27 1.5 68.5t33.5 80t54 66.5t63 28q27 0 46 -10t30.5 -26t13.5 -36.5t-5 -39.5zM214 190q0 8 -1 17.5t-4 16.5t-8.5 9.5t-14.5 -3.5q-20 -14 -39.5 -38.5t-34.5 -50t-22.5 -47t-3.5 -27.5q5 -8 22 3t37 31.5t39 45.5t30 43zM134 351q-11 -8 -15.5 -5t-3.5 12t8.5 20
t20.5 20q17 11 28.5 7t22 -11t22 -10t29.5 11q10 7 14.5 4t3 -11.5t-9 -20t-20.5 -21.5q-18 -14 -29.5 -9.5t-21 12t-20.5 11.5t-29 -9z" />
    <glyph glyph-name="adieresis" unicode="&#xe4;" horiz-adv-x="333" 
d="M261 166q-8 -19 -14.5 -41t-9 -39.5t1.5 -28t18 -6.5q19 5 39.5 21.5t40 37t36 41.5t26.5 35q6 9 12 12.5t10 2t4 -7.5t-6 -16q-24 -36 -49.5 -69.5t-50.5 -59t-48.5 -41t-43.5 -15.5q-32 0 -46 28t-6 74q-26 -35 -50 -59t-47 -31q-15 -4 -30 3.5t-24 27.5
q-9 27 1.5 68.5t33.5 80t54 66.5t63 28q27 0 46 -10t30.5 -26t13.5 -36.5t-5 -39.5zM214 190q0 8 -1 17.5t-4 16.5t-8.5 9.5t-14.5 -3.5q-20 -14 -39.5 -38.5t-34.5 -50t-22.5 -47t-3.5 -27.5q5 -8 22 3t37 31.5t39 45.5t30 43zM169 385q-5 -13 -14.5 -21.5t-19 -12.5
t-17 -4.5t-9.5 3.5q-7 7 -9 17.5t1.5 20t12.5 16.5t25 7q7 0 14.5 -7.5t15.5 -18.5zM275 382q-5 -13 -14.5 -21.5t-19 -12.5t-17 -4.5t-8.5 3.5q-8 7 -10 17.5t1.5 20t12.5 16t25 6.5q7 0 14.5 -7t15.5 -18z" />
    <glyph glyph-name="aring" unicode="&#xe5;" horiz-adv-x="333" 
d="M261 166q-8 -19 -14.5 -41t-9 -39.5t1.5 -28t18 -6.5q19 5 39.5 21.5t40 37t36 41.5t26.5 35q6 9 12 12.5t10 2t4 -7.5t-6 -16q-24 -36 -49.5 -69.5t-50.5 -59t-48.5 -41t-43.5 -15.5q-32 0 -46 28t-6 74q-26 -35 -50 -59t-47 -31q-15 -4 -30 3.5t-24 27.5
q-9 27 1.5 68.5t33.5 80t54 66.5t63 28q27 0 46 -10t30.5 -26t13.5 -36.5t-5 -39.5zM214 190q0 8 -1 17.5t-4 16.5t-8.5 9.5t-14.5 -3.5q-20 -14 -39.5 -38.5t-34.5 -50t-22.5 -47t-3.5 -27.5q5 -8 22 3t37 31.5t39 45.5t30 43zM232 389q1 -23 -8.5 -35.5t-22.5 -17.5
t-26 -3t-19 9q-16 21 -10.5 39t20.5 27t34.5 5.5t31.5 -24.5zM203 379q-4 9 -10 10t-11.5 -2.5t-7 -10.5t3.5 -14q2 -3 6 -3.5t8.5 1.5t7.5 6.5t3 12.5z" />
    <glyph glyph-name="ccedilla" unicode="&#xe7;" horiz-adv-x="290" 
d="M221 193q2 46 -21 42t-65 -57q-24 -30 -37 -59t-16 -52t3 -38.5t21 -19.5q12 -3 38.5 6t61 31t73 57t74.5 85q10 13 15.5 14t7 -4.5t-1 -14.5t-8.5 -15q-41 -57 -87 -102t-88.5 -73.5t-77.5 -40t-54 -2.5q-23 11 -35.5 30t-14.5 43q-2 25 4.5 55.5t19.5 61t33 57.5
t45.5 46t55 27t63.5 0q9 -2 12.5 -10t3 -18.5t-3 -20.5t-5.5 -17q-6 -8 -16 -11zM47 -135l50.5 29.5t16 11t-5.5 2t-15 3.5q-10 5 -12 17t0 24q2 8 6 8t6 -7q4 -12 13 -17t19.5 -7.5t19 -6t10.5 -13.5q1 -5 -2 -12q-7 -12 -31 -24.5t-66 -21.5q-7 0 -11.5 4t2.5 10z" />
    <glyph glyph-name="egrave" unicode="&#xe8;" horiz-adv-x="253" 
d="M176 41q22 14 45.5 33.5t44.5 40.5t39 41.5t29 36.5q4 6 8.5 7t8 -1.5t5 -6.5t-0.5 -8l-38.5 -49t-46.5 -55.5t-52.5 -52t-55.5 -39.5q-27 -14 -53 -15t-47 10t-34 33t-14 52q-2 32 6.5 66t26 62.5t43.5 47t61 19.5q21 1 36 -8.5t13 -39.5q-1 -10 -7.5 -27.5t-19.5 -35
t-34 -32t-51 -19.5q-3 -24 1 -42t15 -27t29 -7.5t43 16.5zM157 232q-20 -5 -37 -33.5t-26 -66.5q17 4 32 17t25 29t12.5 31t-6.5 23zM142 426q7 -4 12.5 -14t9.5 -22t6.5 -24.5t3.5 -22.5q1 -8 -3.5 -11.5t-9.5 3.5q-8 8 -22.5 25t-41.5 34q-7 4 -5.5 11t8.5 12.5t18 8.5
t24 0z" />
    <glyph glyph-name="eacute" unicode="&#xe9;" horiz-adv-x="253" 
d="M176 41q22 14 45.5 33.5t44.5 40.5t39 41.5t29 36.5q4 6 8.5 7t8 -1.5t5 -6.5t-0.5 -8l-38.5 -49t-46.5 -55.5t-52.5 -52t-55.5 -39.5q-27 -14 -53 -15t-47 10t-34 33t-14 52q-2 32 6.5 66t26 62.5t43.5 47t61 19.5q21 1 36 -8.5t13 -39.5q-1 -10 -7.5 -27.5t-19.5 -35
t-34 -32t-51 -19.5q-3 -24 1 -42t15 -27t29 -7.5t43 16.5zM157 232q-20 -5 -37 -33.5t-26 -66.5q17 4 32 17t25 29t12.5 31t-6.5 23zM256 374q-3 -7 -16 -13.5t-28.5 -12t-31.5 -9.5t-25 -5q-7 0 -11.5 4t2.5 9l31.5 23t37.5 43q6 10 14.5 8.5t15 -8.5t10.5 -18t1 -21z" />
    <glyph glyph-name="ecircumflex" unicode="&#xea;" horiz-adv-x="253" 
d="M176 41q22 14 45.5 33.5t44.5 40.5t39 41.5t29 36.5q4 6 8.5 7t8 -1.5t5 -6.5t-0.5 -8l-38.5 -49t-46.5 -55.5t-52.5 -52t-55.5 -39.5q-27 -14 -53 -15t-47 10t-34 33t-14 52q-2 32 6.5 66t26 62.5t43.5 47t61 19.5q21 1 36 -8.5t13 -39.5q-1 -10 -7.5 -27.5t-19.5 -35
t-34 -32t-51 -19.5q-3 -24 1 -42t15 -27t29 -7.5t43 16.5zM157 232q-20 -5 -37 -33.5t-26 -66.5q17 4 32 17t25 29t12.5 31t-6.5 23zM232 345q0 -7 -3.5 -12.5t-9.5 0.5q-8 7 -21 16.5t-28 18.5q-20 -7 -40.5 -16.5t-28.5 -15.5q-9 -6 -10 -1t2 12q17 23 37.5 40.5
t40.5 30.5q10 6 16 0q16 -13 28 -34t17 -39z" />
    <glyph glyph-name="edieresis" unicode="&#xeb;" horiz-adv-x="253" 
d="M176 41q22 14 45.5 33.5t44.5 40.5t39 41.5t29 36.5q4 6 8.5 7t8 -1.5t5 -6.5t-0.5 -8l-38.5 -49t-46.5 -55.5t-52.5 -52t-55.5 -39.5q-27 -14 -53 -15t-47 10t-34 33t-14 52q-2 32 6.5 66t26 62.5t43.5 47t61 19.5q21 1 36 -8.5t13 -39.5q-1 -10 -7.5 -27.5t-19.5 -35
t-34 -32t-51 -19.5q-3 -24 1 -42t15 -27t29 -7.5t43 16.5zM157 232q-20 -5 -37 -33.5t-26 -66.5q17 4 32 17t25 29t12.5 31t-6.5 23zM142 385q-5 -13 -14.5 -21.5t-19 -12.5t-17 -4.5t-9.5 3.5q-7 7 -9 17.5t1.5 20t12.5 16.5t25 7q7 0 14.5 -7.5t15.5 -18.5zM248 382
q-5 -13 -14.5 -21.5t-19 -12.5t-17 -4.5t-8.5 3.5q-8 7 -10 17.5t1.5 20t12.5 16t25 6.5q7 0 14.5 -7t15.5 -18z" />
    <glyph glyph-name="dotlessi" unicode="&#x131;" horiz-adv-x="190" 
d="M77 224q8 9 22.5 14.5t22.5 5.5q21 0 27 -10t-7 -23q-11 -11 -21.5 -29.5t-17.5 -37t-8.5 -33.5t4.5 -19q25 9 58 29l63.5 40l52 33t22.5 7q1 -9 -10.5 -23t-30 -30.5t-42.5 -34.5l-47.5 -34.5l-44.5 -30t-34 -20.5q-8 -5 -21 -7t-25 2t-19.5 16t-5.5 35.5t16 60t46 89.5
z" />
    <glyph glyph-name="iacute" unicode="&#xed;" horiz-adv-x="190" 
d="M77 224q8 9 22.5 14.5t22.5 5.5q21 0 27 -10t-7 -23q-11 -11 -21.5 -29.5t-17.5 -37t-8.5 -33.5t4.5 -19q25 9 58 29l63.5 40l52 33t22.5 7q1 -9 -10.5 -23t-30 -30.5t-42.5 -34.5l-47.5 -34.5l-44.5 -30t-34 -20.5q-8 -5 -21 -7t-25 2t-19.5 16t-5.5 35.5t16 60t46 89.5
zM218 374q-3 -7 -16 -13.5t-28.5 -12t-31.5 -9.5t-25 -5q-7 0 -11.5 4t2.5 9l31.5 23t37.5 43q6 10 14.5 8.5t15 -8.5t10.5 -18t1 -21z" />
    <glyph glyph-name="icircumflex" unicode="&#xee;" horiz-adv-x="190" 
d="M77 224q8 9 22.5 14.5t22.5 5.5q21 0 27 -10t-7 -23q-11 -11 -21.5 -29.5t-17.5 -37t-8.5 -33.5t4.5 -19q25 9 58 29l63.5 40l52 33t22.5 7q1 -9 -10.5 -23t-30 -30.5t-42.5 -34.5l-47.5 -34.5l-44.5 -30t-34 -20.5q-8 -5 -21 -7t-25 2t-19.5 16t-5.5 35.5t16 60t46 89.5
zM226 345q0 -7 -3.5 -12.5t-9.5 0.5q-8 7 -21 16.5t-28 18.5q-20 -7 -40.5 -16.5t-28.5 -15.5q-9 -6 -10 -1t2 12q17 23 37.5 40.5t40.5 30.5q10 6 16 0q16 -13 28 -34t17 -39z" />
    <glyph glyph-name="idieresis" unicode="&#xef;" horiz-adv-x="190" 
d="M77 224q8 9 22.5 14.5t22.5 5.5q21 0 27 -10t-7 -23q-11 -11 -21.5 -29.5t-17.5 -37t-8.5 -33.5t4.5 -19q25 9 58 29l63.5 40l52 33t22.5 7q1 -9 -10.5 -23t-30 -30.5t-42.5 -34.5l-47.5 -34.5l-44.5 -30t-34 -20.5q-8 -5 -21 -7t-25 2t-19.5 16t-5.5 35.5t16 60t46 89.5
zM141 385q-5 -13 -14.5 -21.5t-19 -12.5t-17 -4.5t-9.5 3.5q-7 7 -9 17.5t1.5 20t12.5 16.5t25 7q7 0 14.5 -7.5t15.5 -18.5zM247 382q-5 -13 -14.5 -21.5t-19 -12.5t-17 -4.5t-8.5 3.5q-8 7 -10 17.5t1.5 20t12.5 16t25 6.5q7 0 14.5 -7t15.5 -18z" />
    <glyph glyph-name="ntilde" unicode="&#xf1;" horiz-adv-x="382" 
d="M184 43q-1 18 3.5 39t10.5 40.5t12.5 36l10.5 27.5q1 3 -1.5 5.5t-6.5 -1.5q-25 -26 -49 -57.5t-45.5 -64t-40 -64t-31.5 -57.5q-37 0 -57 11.5t-13 38.5q8 19 20.5 53l24.5 69t20 66.5t7 46.5q0 4 7 9t16 9.5t18.5 7t15.5 2.5q26 0 30.5 -8t-4.5 -37q-8 -30 -26 -68
t-30 -81q12 14 36 48t54 69t61.5 61.5t57.5 26.5q13 0 17.5 -9t4 -21.5t-4 -25.5t-6.5 -22q-8 -18 -18 -45.5t-16.5 -52.5t-7 -43t10.5 -18q10 0 34 18.5t52 44t53.5 51.5t39.5 42q3 3 12.5 4t8.5 -1q-5 -13 -27.5 -43t-53 -62.5t-62.5 -60.5t-54 -37q-33 -13 -58 2t-26 51z
M206 351q-11 -8 -15.5 -5t-3.5 12t8.5 20t20.5 20q17 11 28.5 7t22 -11t22 -10t29.5 11q10 7 14.5 4t3 -11.5t-9 -20t-20.5 -21.5q-18 -14 -29.5 -9.5t-21 12t-20.5 11.5t-29 -9z" />
    <glyph glyph-name="ograve" unicode="&#xf2;" 
d="M175 100q-17 -47 -46 -79.5t-59 -44.5t-55 -1.5t-33 49.5q-6 28 2.5 64.5t27 70t45 58.5t57.5 30q16 3 26 -2t11 -16q1 -3 8 -7t15 -10.5t14 -16.5t4 -26q-1 -2 -2 -7t-1 -10t1 -9t4 -4q19 -2 56.5 12.5t96.5 41.5q5 -7 2.5 -13t-7.5 -10q-21 -18 -45.5 -31t-47.5 -22
t-42.5 -13t-31.5 -4zM125 99q-9 5 -11.5 14.5t-2 21t3.5 23.5t5 22q-14 -8 -27 -23.5t-23 -34.5t-16 -38.5t-6 -35.5q0 -31 11 -33.5t25 10.5t26.5 34.5t14.5 39.5zM179 426q7 -4 12.5 -14t9.5 -22t6.5 -24.5t3.5 -22.5q1 -8 -3.5 -11.5t-9.5 3.5q-8 8 -22.5 25t-41.5 34
q-7 4 -5.5 11t8.5 12.5t18 8.5t24 0z" />
    <glyph glyph-name="oacute" unicode="&#xf3;" 
d="M175 100q-17 -47 -46 -79.5t-59 -44.5t-55 -1.5t-33 49.5q-6 28 2.5 64.5t27 70t45 58.5t57.5 30q16 3 26 -2t11 -16q1 -3 8 -7t15 -10.5t14 -16.5t4 -26q-1 -2 -2 -7t-1 -10t1 -9t4 -4q19 -2 56.5 12.5t96.5 41.5q5 -7 2.5 -13t-7.5 -10q-21 -18 -45.5 -31t-47.5 -22
t-42.5 -13t-31.5 -4zM125 99q-9 5 -11.5 14.5t-2 21t3.5 23.5t5 22q-14 -8 -27 -23.5t-23 -34.5t-16 -38.5t-6 -35.5q0 -31 11 -33.5t25 10.5t26.5 34.5t14.5 39.5zM244 374q-3 -7 -16 -13.5t-28.5 -12t-31.5 -9.5t-25 -5q-7 0 -11.5 4t2.5 9l31.5 23t37.5 43q6 10 14.5 8.5
t15 -8.5t10.5 -18t1 -21z" />
    <glyph glyph-name="ocircumflex" unicode="&#xf4;" 
d="M175 100q-17 -47 -46 -79.5t-59 -44.5t-55 -1.5t-33 49.5q-6 28 2.5 64.5t27 70t45 58.5t57.5 30q16 3 26 -2t11 -16q1 -3 8 -7t15 -10.5t14 -16.5t4 -26q-1 -2 -2 -7t-1 -10t1 -9t4 -4q19 -2 56.5 12.5t96.5 41.5q5 -7 2.5 -13t-7.5 -10q-21 -18 -45.5 -31t-47.5 -22
t-42.5 -13t-31.5 -4zM125 99q-9 5 -11.5 14.5t-2 21t3.5 23.5t5 22q-14 -8 -27 -23.5t-23 -34.5t-16 -38.5t-6 -35.5q0 -31 11 -33.5t25 10.5t26.5 34.5t14.5 39.5zM253 345q0 -7 -3.5 -12.5t-9.5 0.5q-8 7 -21 16.5t-28 18.5q-20 -7 -40.5 -16.5t-28.5 -15.5q-9 -6 -10 -1
t2 12q17 23 37.5 40.5t40.5 30.5q10 6 16 0q16 -13 28 -34t17 -39z" />
    <glyph glyph-name="otilde" unicode="&#xf5;" 
d="M175 100q-17 -47 -46 -79.5t-59 -44.5t-55 -1.5t-33 49.5q-6 28 2.5 64.5t27 70t45 58.5t57.5 30q16 3 26 -2t11 -16q1 -3 8 -7t15 -10.5t14 -16.5t4 -26q-1 -2 -2 -7t-1 -10t1 -9t4 -4q19 -2 56.5 12.5t96.5 41.5q5 -7 2.5 -13t-7.5 -10q-21 -18 -45.5 -31t-47.5 -22
t-42.5 -13t-31.5 -4zM125 99q-9 5 -11.5 14.5t-2 21t3.5 23.5t5 22q-14 -8 -27 -23.5t-23 -34.5t-16 -38.5t-6 -35.5q0 -31 11 -33.5t25 10.5t26.5 34.5t14.5 39.5zM137 351q-11 -8 -15.5 -5t-3.5 12t8.5 20t20.5 20q17 11 28.5 7t22 -11t22 -10t29.5 11q10 7 14.5 4
t3 -11.5t-9 -20t-20.5 -21.5q-18 -14 -29.5 -9.5t-21 12t-20.5 11.5t-29 -9z" />
    <glyph glyph-name="odieresis" unicode="&#xf6;" 
d="M175 100q-17 -47 -46 -79.5t-59 -44.5t-55 -1.5t-33 49.5q-6 28 2.5 64.5t27 70t45 58.5t57.5 30q16 3 26 -2t11 -16q1 -3 8 -7t15 -10.5t14 -16.5t4 -26q-1 -2 -2 -7t-1 -10t1 -9t4 -4q19 -2 56.5 12.5t96.5 41.5q5 -7 2.5 -13t-7.5 -10q-21 -18 -45.5 -31t-47.5 -22
t-42.5 -13t-31.5 -4zM125 99q-9 5 -11.5 14.5t-2 21t3.5 23.5t5 22q-14 -8 -27 -23.5t-23 -34.5t-16 -38.5t-6 -35.5q0 -31 11 -33.5t25 10.5t26.5 34.5t14.5 39.5zM181 385q-5 -13 -14.5 -21.5t-19 -12.5t-17 -4.5t-9.5 3.5q-7 7 -9 17.5t1.5 20t12.5 16.5t25 7
q7 0 14.5 -7.5t15.5 -18.5zM287 382q-5 -13 -14.5 -21.5t-19 -12.5t-17 -4.5t-8.5 3.5q-8 7 -10 17.5t1.5 20t12.5 16t25 6.5q7 0 14.5 -7t15.5 -18z" />
    <glyph glyph-name="ugrave" unicode="&#xf9;" horiz-adv-x="409" 
d="M86 249q12 13 25 14.5t25 -1.5t21 -9l12 -8q-8 -8 -18 -22.5t-21 -32.5t-21.5 -37.5t-17.5 -35.5q-12 -30 -3 -33.5t29 11.5t47 44.5t50 65.5q12 12 26 11.5t25 -6.5t18 -14t5 -12q-2 -5 -8 -19l-13 -31.5t-13.5 -37t-9.5 -35t-1 -26t12 -10.5q13 0 32.5 10t41.5 26
t44.5 34.5t42 36.5l34 32l20.5 20q16 8 10.5 -5.5t-24.5 -38.5t-48.5 -56.5t-62.5 -58.5t-65.5 -45t-57.5 -16q-27 1 -37 20t-10.5 45.5t6 54.5t12.5 46l-49 -54.5t-62 -55.5q-21 -16 -39 -18.5t-30.5 5t-17 24t1.5 37.5q10 36 34 84t55 97zM219 426q7 -4 12.5 -14t9.5 -22
t6.5 -24.5t3.5 -22.5q1 -8 -3.5 -11.5t-9.5 3.5q-8 8 -22.5 25t-41.5 34q-7 4 -5.5 11t8.5 12.5t18 8.5t24 0z" />
    <glyph glyph-name="uacute" unicode="&#xfa;" horiz-adv-x="409" 
d="M86 249q12 13 25 14.5t25 -1.5t21 -9l12 -8q-8 -8 -18 -22.5t-21 -32.5t-21.5 -37.5t-17.5 -35.5q-12 -30 -3 -33.5t29 11.5t47 44.5t50 65.5q12 12 26 11.5t25 -6.5t18 -14t5 -12q-2 -5 -8 -19l-13 -31.5t-13.5 -37t-9.5 -35t-1 -26t12 -10.5q13 0 32.5 10t41.5 26
t44.5 34.5t42 36.5l34 32l20.5 20q16 8 10.5 -5.5t-24.5 -38.5t-48.5 -56.5t-62.5 -58.5t-65.5 -45t-57.5 -16q-27 1 -37 20t-10.5 45.5t6 54.5t12.5 46l-49 -54.5t-62 -55.5q-21 -16 -39 -18.5t-30.5 5t-17 24t1.5 37.5q10 36 34 84t55 97zM318 374q-3 -7 -16 -13.5
t-28.5 -12t-31.5 -9.5t-25 -5q-7 0 -11.5 4t2.5 9l31.5 23t37.5 43q6 10 14.5 8.5t15 -8.5t10.5 -18t1 -21z" />
    <glyph glyph-name="ucircumflex" unicode="&#xfb;" horiz-adv-x="409" 
d="M86 249q12 13 25 14.5t25 -1.5t21 -9l12 -8q-8 -8 -18 -22.5t-21 -32.5t-21.5 -37.5t-17.5 -35.5q-12 -30 -3 -33.5t29 11.5t47 44.5t50 65.5q12 12 26 11.5t25 -6.5t18 -14t5 -12q-2 -5 -8 -19l-13 -31.5t-13.5 -37t-9.5 -35t-1 -26t12 -10.5q13 0 32.5 10t41.5 26
t44.5 34.5t42 36.5l34 32l20.5 20q16 8 10.5 -5.5t-24.5 -38.5t-48.5 -56.5t-62.5 -58.5t-65.5 -45t-57.5 -16q-27 1 -37 20t-10.5 45.5t6 54.5t12.5 46l-49 -54.5t-62 -55.5q-21 -16 -39 -18.5t-30.5 5t-17 24t1.5 37.5q10 36 34 84t55 97zM302 345q0 -7 -3.5 -12.5
t-9.5 0.5q-8 7 -21 16.5t-28 18.5q-20 -7 -40.5 -16.5t-28.5 -15.5q-9 -6 -10 -1t2 12q17 23 37.5 40.5t40.5 30.5q10 6 16 0q16 -13 28 -34t17 -39z" />
    <glyph glyph-name="udieresis" unicode="&#xfc;" horiz-adv-x="409" 
d="M86 249q12 13 25 14.5t25 -1.5t21 -9l12 -8q-8 -8 -18 -22.5t-21 -32.5t-21.5 -37.5t-17.5 -35.5q-12 -30 -3 -33.5t29 11.5t47 44.5t50 65.5q12 12 26 11.5t25 -6.5t18 -14t5 -12q-2 -5 -8 -19l-13 -31.5t-13.5 -37t-9.5 -35t-1 -26t12 -10.5q13 0 32.5 10t41.5 26
t44.5 34.5t42 36.5l34 32l20.5 20q16 8 10.5 -5.5t-24.5 -38.5t-48.5 -56.5t-62.5 -58.5t-65.5 -45t-57.5 -16q-27 1 -37 20t-10.5 45.5t6 54.5t12.5 46l-49 -54.5t-62 -55.5q-21 -16 -39 -18.5t-30.5 5t-17 24t1.5 37.5q10 36 34 84t55 97zM222 385q-5 -13 -14.5 -21.5
t-19 -12.5t-17 -4.5t-9.5 3.5q-7 7 -9 17.5t1.5 20t12.5 16.5t25 7q7 0 14.5 -7.5t15.5 -18.5zM328 382q-5 -13 -14.5 -21.5t-19 -12.5t-17 -4.5t-8.5 3.5q-8 7 -10 17.5t1.5 20t12.5 16t25 6.5q7 0 14.5 -7t15.5 -18z" />
    <glyph glyph-name="yacute" unicode="&#xfd;" horiz-adv-x="355" 
d="M74 42q21 10 57.5 48.5t70.5 112.5q7 16 19.5 21t25.5 5t23.5 -4t13.5 -6q3 -6 1 -21t-6.5 -36.5t-11 -47.5l-13.5 -52q7 3 22.5 13.5t34 24.5l39 30l38.5 29.5t32 23t20 10.5q7 2 8.5 -2.5t-0.5 -11.5q-1 -2 -14 -13l-32 -26.5l-42.5 -34.5l-45 -36.5l-39 -31.5
l-25.5 -20q-17 -15 -25 -40l-14 -38l-22 -63t-30 -75.5t-38 -79.5t-46 -74.5t-54.5 -61.5t-63.5 -40q-38 -15 -66 -7.5t-42 30t-10.5 57t29.5 73.5q26 38 57 72t62 63l59 53l48 42l53 47l7 7t6 9l37 145q-11 -19 -30.5 -50t-43.5 -59.5t-49 -46t-45 -9.5q-23 6 -28.5 35.5
t1 70t22.5 84t37 77.5q15 17 30 16.5t26.5 -8t17 -17t-0.5 -9.5q-5 0 -16.5 -19.5t-23 -47.5t-18.5 -58.5t-2 -52.5zM143 -75q0 4 -4 4q-14 -15 -42.5 -42.5l-63 -63t-69 -76t-59.5 -81.5q-11 -18 -14 -32t2 -21.5t18.5 -6.5t34.5 14q34 20 64.5 59t56 83.5t45 88.5t31.5 74
zM297 374q-3 -7 -16 -13.5t-28.5 -12t-31.5 -9.5t-25 -5q-7 0 -11.5 4t2.5 9l31.5 23t37.5 43q6 10 14.5 8.5t15 -8.5t10.5 -18t1 -21z" />
    <glyph glyph-name="ydieresis" unicode="&#xff;" horiz-adv-x="355" 
d="M74 42q21 10 57.5 48.5t70.5 112.5q7 16 19.5 21t25.5 5t23.5 -4t13.5 -6q3 -6 1 -21t-6.5 -36.5t-11 -47.5l-13.5 -52q7 3 22.5 13.5t34 24.5l39 30l38.5 29.5t32 23t20 10.5q7 2 8.5 -2.5t-0.5 -11.5q-1 -2 -14 -13l-32 -26.5l-42.5 -34.5l-45 -36.5l-39 -31.5
l-25.5 -20q-17 -15 -25 -40l-14 -38l-22 -63t-30 -75.5t-38 -79.5t-46 -74.5t-54.5 -61.5t-63.5 -40q-38 -15 -66 -7.5t-42 30t-10.5 57t29.5 73.5q26 38 57 72t62 63l59 53l48 42l53 47l7 7t6 9l37 145q-11 -19 -30.5 -50t-43.5 -59.5t-49 -46t-45 -9.5q-23 6 -28.5 35.5
t1 70t22.5 84t37 77.5q15 17 30 16.5t26.5 -8t17 -17t-0.5 -9.5q-5 0 -16.5 -19.5t-23 -47.5t-18.5 -58.5t-2 -52.5zM143 -75q0 4 -4 4q-14 -15 -42.5 -42.5l-63 -63t-69 -76t-59.5 -81.5q-11 -18 -14 -32t2 -21.5t18.5 -6.5t34.5 14q34 20 64.5 59t56 83.5t45 88.5t31.5 74
zM198 385q-5 -13 -14.5 -21.5t-19 -12.5t-17 -4.5t-9.5 3.5q-7 7 -9 17.5t1.5 20t12.5 16.5t25 7q7 0 14.5 -7.5t15.5 -18.5zM304 382q-5 -13 -14.5 -21.5t-19 -12.5t-17 -4.5t-8.5 3.5q-8 7 -10 17.5t1.5 20t12.5 16t25 6.5q7 0 14.5 -7t15.5 -18z" />
    <glyph glyph-name="scaron" unicode="&#x161;" horiz-adv-x="247" 
d="M132 22q2 -17 -2.5 -34.5t-13 -32.5t-18 -27t-18.5 -18q-20 -14 -35.5 -14t-24 9.5t-9 25.5t10.5 36q19 37 66 82q-33 26 -43 54t-8 52q3 29 15.5 51t30.5 36.5t37.5 21.5t35.5 6q9 -1 10.5 -7t-3.5 -8q-21 -12 -35 -34t-20 -47.5t-4 -52t12 -45.5q39 33 91 64t116 55
q5 2 6 -3t-1 -7q-5 -5 -21.5 -14.5l-38 -22.5l-45.5 -28.5t-44 -32t-33.5 -33.5t-13.5 -32zM109 403q0 7 3.5 12.5t9.5 -0.5l19 -17t31 -21q50 22 68 35q9 6 10 0.5t-2 -12.5q-17 -22 -37.5 -40t-40.5 -31q-6 -3 -9.5 -2.5t-6.5 2.5q-16 13 -28 34.5t-17 39.5z" />
    <glyph glyph-name="zcaron" unicode="&#x17e;" horiz-adv-x="348" 
d="M-118 -166q19 21 46.5 45t60.5 50l70.5 53.5l77.5 55.5q-9 8 -28 6t-33 -8q-8 -4 -17 -0.5t-16 10.5t-10 15.5t2 15.5q21 30 27.5 57.5t6 49.5t-4.5 36.5t-4 19.5q3 25 23 36t36 9q9 -1 25.5 -3.5t35.5 -6.5t37 -10t31 -13.5t17 -17.5t-5 -22q-8 -10 -31.5 -29.5
l-47.5 -41t-40.5 -39.5t-9.5 -25q10 -2 20 -9t12 -11q66 45 130 84t118 65q29 14 40.5 10t-1.5 -15q-73 -35 -142.5 -78t-132.5 -88q13 -26 11 -63t-18 -76t-45.5 -76t-70.5 -65l-32.5 -20t-39 -19.5t-41 -12.5t-36.5 0q-18 4 -29.5 18.5t-15 33t2 40t21.5 39.5zM-89 -199
q-19 -25 -5 -31.5t43 7.5q34 17 68.5 45t63 61t47 67.5t20.5 64.5q-86 -64 -148.5 -121.5t-88.5 -92.5zM172 220q6 10 -3 19t-21.5 12t-23.5 -1t-9 -19q2 -14 -1 -30.5t-8.5 -33t-12.5 -31t-13 -24.5q29 28 55 58.5t37 49.5zM146 403q0 7 3.5 12.5t9.5 -0.5l19 -17t31 -21
q50 22 68 35q9 6 10 0.5t-2 -12.5q-17 -22 -37.5 -40t-40.5 -31q-6 -3 -9.5 -2.5t-6.5 2.5q-16 13 -28 34.5t-17 39.5z" />
    <glyph glyph-name="exclam" unicode="!" horiz-adv-x="360" 
d="M166 133q5 16 15.5 47l23 68.5l26.5 79l27 79l23 68l16 47.5q11 8 29.5 6.5t34.5 -8.5t25 -17t2 -18q-7 -9 -19.5 -31.5l-29 -53l-35.5 -66.5l-37 -73l-34 -72t-27 -63q-5 -12 -13 -15.5t-15 -1.5t-11 8.5t-1 15.5zM160 56q19 0 24 -14t-1 -30.5t-20 -31t-33 -15.5
q-11 -1 -18 11t-6 27.5t13.5 31t40.5 21.5z" />
    <glyph glyph-name="question" unicode="?" horiz-adv-x="391" 
d="M213 130q-5 -20 -14 -19.5t-10 19.5q0 33 19 68t44 68.5l48.5 63.5t32.5 53q4 12 7.5 29.5t1.5 34t-11.5 27.5t-31.5 10q-12 0 -29 -9.5t-33 -27t-26.5 -40.5t-9.5 -50q0 -14 -5 -20.5t-10.5 -3t-9.5 16.5t-1 38q2 42 28 75.5t63 49.5q39 16 73 11.5t57 -25t31 -53
t-7 -71.5q-15 -38 -45.5 -73t-63.5 -66.5l-61 -58t-37 -47.5zM181 56q20 0 25 -14.5t-0.5 -31.5t-20 -31t-34.5 -14q-12 0 -19.5 12.5t-6 28t14 30.5t41.5 20z" />
    <glyph glyph-name="at" unicode="@" horiz-adv-x="629" 
d="M469 34q-39 -32 -66.5 -39t-42 6.5t-13.5 45.5t19 79q-26 -45 -57.5 -73.5t-57.5 -36.5q-28 -8 -39.5 5t-11.5 36t8.5 50.5t20.5 48.5q10 18 23.5 35t28.5 30t30.5 21t30.5 8q6 0 16 -2t19 -7t15 -12.5t5 -18.5q2 2 7 3.5t7 3.5q10 -2 11 -16.5t-3 -34t-9.5 -42
t-8.5 -41.5t0 -31.5t17 -12.5q25 14 47 48t37 76.5t22 88t3 83.5t-21.5 62.5t-50.5 24.5q-43 0 -98.5 -32t-107.5 -83t-91.5 -115.5t-51.5 -128.5q-5 -26 -4.5 -55t9.5 -54.5t27.5 -44.5t48.5 -26q40 -9 85 -2.5t89.5 26t86.5 49.5t76 67q6 6 9.5 6t5 -3.5t1.5 -9t-3 -9.5
q-24 -39 -69.5 -75t-100.5 -61.5t-113.5 -38t-109.5 -4.5q-60 9 -89.5 42t-34.5 80t12 104t49 114.5t76.5 110.5t95 92t105 60.5t105.5 14.5q60 -7 93.5 -33t45.5 -62.5t5 -80t-26 -87t-48.5 -82.5t-63.5 -67zM378 193q-2 17 -12 17.5t-23 -9.5t-27.5 -27.5t-26 -37.5
t-18.5 -39.5t-5 -32.5q10 2 29 17t38 35t33 41t14 35q-3 0 -2 1z" />
    <glyph glyph-name="quotesingle" unicode="'" horiz-adv-x="135" 
d="M130 481q19 6 33 3t21.5 -10.5t7.5 -16.5t-9 -16q-19 -14 -32.5 -28.5t-23 -28t-16.5 -25.5t-12 -19q-7 -11 -14 -5t-6 19q1 16 6 35t12 37.5t15.5 33t17.5 21.5z" />
    <glyph glyph-name="quotedbl" unicode="&#x22;" horiz-adv-x="243" 
d="M132 481q13 4 26 1t21.5 -10t10.5 -15.5t-7 -15.5q-19 -14 -32.5 -28.5t-23 -28t-16.5 -25.5t-12 -19q-7 -11 -14 -5t-6 19q1 16 6.5 35t12.5 37.5t16 33t18 21.5zM239 481q13 4 26 1t21.5 -10t10.5 -15.5t-7 -15.5q-19 -14 -32.5 -28.5t-23 -28t-16.5 -25.5t-12 -19
q-7 -11 -14 -5t-6 19q1 16 6.5 35t12.5 37.5t16 33t18 21.5z" />
    <glyph glyph-name="AE" unicode="&#xc6;" horiz-adv-x="764" 
d="M813 388q-27 21 -64 29t-78.5 6.5t-83.5 -11t-78.5 -25.5t-63.5 -37t-38 -44q-8 -17 -13.5 -35t4 -36t39 -35.5t92.5 -33.5q18 7 36 11t33 6q8 1 19.5 2t21.5 0.5t15.5 -4t3 -11t-15.5 -20.5t-42 -33l-20.5 5.5t-18.5 6.5q-44 -16 -85.5 -42t-74 -55t-52.5 -58.5
t-21.5 -53.5t18.5 -39t69 -14q25 0 54 4t62 14t71.5 27.5t83.5 45.5q11 9 15.5 2.5t-0.5 -12.5q-32 -35 -74.5 -60t-87.5 -39.5t-88.5 -19.5t-77.5 1q-41 7 -70.5 21t-45.5 40q-13 21 -13.5 41.5t7.5 40.5q-13 26 -30 50t-38 44q-20 2 -34.5 4.5t-31.5 7.5l-32 -78.5
t-33 -86.5t-24.5 -80t-6.5 -58q-3 -16 -14 -17t-23 9t-21 27.5t-6 37.5q3 19 14.5 51.5l26 70t31 75.5l30.5 68q-11 8 -14 19t0.5 19t13 11.5t23.5 -3.5q31 61 67 121.5t72 110t70 83t62 41.5q9 3 21 -1.5t24 -13.5t23 -21t17 -25q54 21 119.5 26.5t124.5 -1.5t101 -23.5
t49 -39.5q2 -5 2 -10t-2 -8t-6.5 -2t-12.5 7zM327 431q-22 -16 -46 -46.5t-48.5 -71t-48.5 -88t-46 -96.5q8 -4 14 -8.5l13 -9.5q32 -7 61.5 -8.5t67.5 0.5q5 34 13.5 71l18.5 79q-2 11 -0.5 25t2.5 30q0 29 11.5 52t31.5 40q3 13 4.5 25.5t-2 19t-14.5 4t-32 -17.5z
M375 110q20 2 30.5 4t24.5 7l67 32q-33 -4 -64.5 -0.5t-53.5 17.5q-2 -19 -1.5 -31t-2.5 -29zM288 69q-21 -2 -39 -2h-38l28 -31.5t26 -33.5l16 20z" />
    <glyph glyph-name="oslash" unicode="&#xf8;" horiz-adv-x="280" 
d="M-10 -146q3 10 15 41.5l29 76.5q-14 3 -26.5 15t-17.5 32q-9 30 -2.5 67.5t24.5 71.5t46 58t64 26q7 0 12 1t10 0l25.5 55t15.5 26q6 5 9.5 2t4.5 -9.5t0 -14.5t-5 -12q-3 -2 -12 -19.5t-22 -45.5q4 -3 11 -7t13.5 -10.5t11 -16t3.5 -22.5q-1 -2 -2 -7t-1 -10t1 -9t4 -4
q9 -1 19 -1t28 4t48 14t78 29q3 -1 2 -7q-1 -2 -3 -3.5t-4 -3.5q-43 -28 -75 -41.5t-54.5 -19t-36.5 -6t-21 -1.5q-9 -26 -23.5 -49t-31.5 -40.5t-36 -28.5t-36 -14q-12 -31 -20.5 -55t-11.5 -38q-3 -11 -9 -18.5t-12 -10.5t-10 -2t-2 7zM51 15l35 87l35 85
q-13 -14 -28 -36.5t-26.5 -48t-17 -49t1.5 -38.5zM132 99q-8 4 -10.5 12t-2.5 18l-25.5 -59.5l-23.5 -59.5q8 4 17 15t18 23.5t16 26t11 24.5z" />
    <glyph glyph-name="Eth" unicode="&#xd0;" horiz-adv-x="687" 
d="M-42 366q17 38 59 64.5t97 41t117 16.5t120.5 -9.5t106.5 -36.5t75 -65q35 -53 38.5 -106t-16.5 -104l89 24t87 14q6 0 8 -3t2 -7t-1.5 -8.5t-3.5 -6.5q-51 -7 -101 -23l-100 -33q-29 -52 -75.5 -100t-100 -87.5t-109 -69.5t-101.5 -46.5t-78 -18.5t-39 14q-8 19 1 34.5
t30 45.5t51.5 84t63.5 149q-11 -2 -20.5 -5l-18.5 -6q-14 -5 -17 1.5t0.5 17.5t12.5 21.5t18 12.5l20.5 4l21.5 4q12 36 22 73t17.5 70.5t11.5 62.5t4 50q0 5 4 9q-72 2 -145 -21t-130 -74q-14 -12 -19 -11t-6 7t1 13t3 8zM457 141q25 51 25.5 100t-20.5 89.5t-60.5 69
t-93.5 38.5q15 -10 18.5 -34t-1.5 -58t-16.5 -75.5t-27.5 -84.5h49q21 -1 37.5 -2t26.5 -3q8 -1 5.5 -9t-9.5 -16.5t-16.5 -14t-14.5 -2.5q-5 2 -15 2.5t-25 1.5q-13 0 -27 -0.5t-28 -1.5l-26.5 -64.5t-27.5 -59.5l49 29.5l54 30t64 31.5t80 33zM117 -101
q-20 -19 -18.5 -28.5t27.5 0.5q31 13 69 32.5t76.5 45t76 57.5t69.5 71q-63 -28 -113.5 -55.5t-88.5 -51t-62.5 -42t-35.5 -29.5z" />
    <glyph glyph-name="eth" unicode="&#xf0;" horiz-adv-x="270" 
d="M163 363q15 11 26.5 18.5t28.5 16.5q-9 32 -24 42t-32 5.5t-34 -20t-30 -34.5q-12 -8 -15 -1.5t0 14.5q15 43 41.5 65t55.5 24.5t55.5 -14.5t40.5 -52q13 5 24.5 8.5t19.5 5.5q9 2 11.5 -4t1 -14t-5.5 -14.5t-8 -5.5l-35 -16q3 -26 -2 -68t-17.5 -90t-31 -95.5t-42 -85.5
t-51 -60.5t-57.5 -19.5q-15 1 -27.5 13t-20 32t-9.5 46.5t4 57.5q4 22 12 45t19.5 44t26.5 37.5t32 25.5q10 6 24 8.5t28 -1t26.5 -14t20.5 -30.5q2 7 4 21t3.5 31t1.5 35t-2 34q-17 -10 -29 -18t-29 -24q-9 -9 -13.5 -4.5t-4.5 15.5t3.5 23t9.5 18zM207 184q5 23 -4.5 32
t-25.5 5q-11 -3 -22.5 -14t-22 -27.5t-19 -37t-14.5 -41.5q-11 -42 -5 -64t17 -20q7 0 19.5 13.5t26.5 36t27.5 52.5t22.5 65z" />
    <glyph glyph-name="colon" unicode=":" horiz-adv-x="360" 
d="M177 -5q-6 -6 -14.5 -9t-16 -4.5t-13 0t-6.5 4.5q-9 8 -12 20.5t0 24t13.5 20t28.5 8.5q13 0 21 -7t10.5 -17.5t0 -21.5t-11.5 -18zM227 173q-6 -6 -14.5 -8.5t-16 -3t-13 1t-6.5 4.5q-9 8 -11.5 20t1 23t14.5 19t29 8q13 0 20.5 -7t9.5 -17.5t-1 -21.5t-12 -18z" />
    <glyph glyph-name="semicolon" unicode=";" horiz-adv-x="329" 
d="M231 184q-16 -15 -33 -19.5t-23 9.5q-9 8 -11.5 19t2 20.5t15.5 16.5t29 7q13 0 21 -5.5t11 -13.5t0.5 -17.5t-11.5 -16.5zM204 39q-2 -13 -17.5 -33t-35.5 -40t-40.5 -36.5t-31.5 -21.5q-8 -3 -12 -0.5t-5.5 7t-0.5 9.5t4 7q9 6 19 20t19 30.5t16 32.5t10 27
q4 13 14.5 17t22.5 2t22.5 -8t15.5 -13z" />
    <glyph glyph-name="divide" unicode="&#xf7;" horiz-adv-x="532" 
d="M259 -9q-6 -6 -15 -9.5t-17.5 -4.5t-15.5 0t-8 4q-8 8 -10.5 20.5t1.5 24.5t15 21t29 9q13 0 21 -7.5t11 -17.5t0.5 -21.5t-11.5 -18.5zM318 252q-6 -6 -15 -9t-17.5 -4.5t-14.5 -0.5t-7 4q-9 8 -11.5 20t1 23t14.5 19t29 8q13 0 21 -6.5t11 -16t0.5 -20t-11.5 -17.5z
M144 167q28 6 62.5 10t68.5 5.5t63 0t47 -5.5q9 -1 7.5 -10t-8 -19t-15 -16.5t-14.5 -3.5q-9 3 -32.5 4.5t-54.5 -1t-66 -8.5t-66 -16q-14 -5 -18 2.5t-1 19.5t10.5 24t16.5 14z" />
    <glyph glyph-name="germandbls" unicode="&#xdf;" horiz-adv-x="367" 
d="M3 -176q-14 0 -20 13.5t-7.5 30.5t0 33t2.5 22q3 32 9.5 68.5t16.5 75.5t23.5 78t30.5 77q10 23 26 55.5t36.5 64.5t44.5 58.5t50 38.5q13 6 30 6.5t32 -4t26.5 -14.5t15.5 -25q4 -17 -1 -37.5t-14 -41t-20 -39l-19 -31.5q-14 -25 -6 -43.5t22.5 -35t27.5 -33.5t10 -38
q-2 -12 -10 -28t-27.5 -32.5t-54.5 -33.5t-91 -32q-29 -8 -42.5 -6.5t-16.5 7t1.5 13t13.5 10.5q28 1 51 13t40 28t27 33t12 28q3 21 -7.5 38t-17 36.5t0 44.5t45.5 62q2 3 10 14t16.5 25.5t14.5 31t3 31.5q-5 26 -19.5 25t-28.5 -15q-16 -17 -33 -45t-31.5 -57t-26 -54.5
t-15.5 -35.5l-39.5 -99t-35.5 -99t-27.5 -90.5t-14.5 -73.5q0 -14 -6 -16t-7 -2z" />
    <glyph glyph-name="Thorn" unicode="&#xde;" horiz-adv-x="425" 
d="M46 256q-20 -12 -26 -10.5t-3 9t12 17.5t19 15q42 34 80 59q23 54 44.5 95t35.5 58q7 9 18.5 6t21 -12t14 -21.5t-1.5 -22.5l-14.5 -25t-15.5 -28q43 16 75 14t55.5 -14.5t39 -32t24.5 -37.5q15 -30 8.5 -65t-30 -69.5t-60.5 -66t-81.5 -56t-95 -39.5t-99.5 -15
l-15.5 -41.5t-16 -47.5t-12.5 -46.5t-6 -37.5q0 -7 -3.5 -11.5t-7.5 -7t-8 -3l-4 -0.5q-13 22 -6.5 75.5t25.5 122.5q-12 3 -23 7t-21 10q-8 4 -10 9.5t1 9t10 5t18 -1.5q8 -3 16 -4t18 -2q17 60 39.5 122l45.5 120q-16 -8 -31 -17.5t-29 -19.5zM81 59q34 11 72 30t74.5 42
t69.5 48.5t57 48.5t36.5 42.5t7.5 31.5q-24 39 -77 42.5t-125 -13.5q-31 -64 -61.5 -134.5t-53.5 -137.5z" />
    <glyph glyph-name="thorn" unicode="&#xfe;" horiz-adv-x="345" 
d="M31 229q-13 -7 -19.5 -7t-8 3.5t2 10.5t11.5 15q49 39 94 53q28 69 54 121.5t43 73.5q7 9 19.5 5.5t24 -13.5t17 -23.5t-0.5 -23.5l-29 -47t-33 -57l-16 -29q42 -8 68 -36.5t37 -59.5q14 -43 -2.5 -86.5t-51.5 -77.5t-83.5 -52t-99.5 -10q-6 -17 -12.5 -37.5l-12.5 -41
t-10.5 -39t-6.5 -31.5q-1 -7 -4.5 -11t-7.5 -6t-7.5 -2.5l-3.5 -0.5q-12 21 -7 70.5t22 114.5l-17 13q-9 10 -4.5 16t18.5 0q4 -2 10 -4q14 53 33.5 109l39.5 110q-17 -4 -32 -8t-25 -12zM76 36q32 10 67.5 31.5t64 45.5t46 46.5t13.5 36.5q-11 23 -39 39t-63 19l-13 -30
q-22 -49 -41 -99z" />
    <glyph glyph-name="lslash" unicode="&#x142;" horiz-adv-x="184" 
d="M-54 42q22 18 51.5 36.5t59.5 34.5t57 27.5t45 15.5q8 2 9.5 -4t-1.5 -14.5t-9.5 -15.5t-12.5 -7q-10 0 -32 -9.5t-49 -24.5t-55.5 -35.5t-52.5 -43.5q-11 -11 -16.5 -8.5t-6.5 11.5t2.5 20t10.5 17zM314 505q-5 -39 -24 -85t-49.5 -92t-70 -88t-84.5 -73
q-20 -77 -24.5 -132t0.5 -92t17.5 -57.5t27.5 -29.5q7 -4 11 -9.5t4 -9.5t-5.5 -6t-16.5 1q-42 10 -65.5 42t-33 75.5t-7 93.5t11.5 97q9 44 29 101.5t47.5 113.5t61.5 104.5t71 74.5q17 12 35 17.5t32.5 2.5t23.5 -15t8 -34zM110 238l-6.5 -15t-6.5 -17q26 22 55 61.5
t54 82t43.5 81t24.5 58.5q4 11 1.5 14.5t-10.5 -4.5q-24 -21 -46 -53.5t-42 -69t-37 -73z" />
    <glyph glyph-name="Lslash" unicode="&#x141;" horiz-adv-x="531" 
d="M-16 37q24 16 55 32t61.5 30t58.5 23.5t46 11.5q17 4 12 -6t-24 -19q-17 -5 -41 -15.5t-51.5 -25t-56 -33t-53.5 -39.5q-12 -10 -17 -7t-5.5 12t3.5 19.5t12 16.5zM247 476q9 19 24.5 15.5t26.5 -22.5t11.5 -48.5t-19.5 -62.5q-22 -35 -46.5 -79.5l-49 -92.5l-47.5 -95.5
t-41 -89t-29.5 -73.5t-13.5 -48q40 15 93.5 24.5t110 14t109 2.5t90.5 -10q11 -2 20.5 -7t12.5 -10t-2 -8.5t-23 -2.5q-40 2 -93.5 0t-113 -13.5t-121.5 -34t-118 -60.5q-11 -8 -22 -6t-19.5 9t-12.5 17.5t-1 20.5q8 41 28 97.5t46 120.5l55.5 130.5l57.5 126l51 108z" />
    <glyph glyph-name="oe" unicode="&#x153;" horiz-adv-x="382" 
d="M476 184l-48.5 -61.5t-59 -66t-65.5 -53.5t-69 -23q-11 0 -32.5 4t-35.5 20q-15 27 -18 53q-15 -21 -32 -37t-32 -27t-27.5 -16t-19.5 -5q-24 1 -34 15t-10 36.5t7.5 49t18 51.5t22 45t19.5 29q13 15 28.5 25.5t29 15t23 2.5t10.5 -12q1 -5 12 -10t20 -17q10 17 17 25.5
t6 4.5q1 4 11 10t24 11.5t30 8.5t29.5 -0.5t21.5 -14t6 -32.5q-1 -10 -5.5 -28.5t-16.5 -36.5t-32.5 -32t-51.5 -15q-3 0 -4.5 -13t0.5 -29t8.5 -29t18.5 -13q19 0 49 20t59 46.5t53 53t31 38.5t15 16.5t14.5 4.5t9.5 -4t0 -10zM60 20q8 -2 20 10t22.5 27t17.5 28t5 14
q10 18 13.5 32.5t2.5 25t-5 17.5t-9 12q-16 -24 -32 -51t-27 -51.5t-14.5 -42t6.5 -21.5zM228 130q9 -4 21 8.5t21 31t12.5 38t-2.5 30.5q-7 0 -15.5 -16t-16 -35t-13.5 -36.5z" />
    <glyph glyph-name="OE" unicode="&#x152;" horiz-adv-x="871" 
d="M920 388q-27 21 -64 29.5t-78.5 8t-83.5 -9.5t-77.5 -24.5t-62.5 -36t-38 -43.5q-8 -17 -14 -36t3 -38t38.5 -37.5t92.5 -34.5q19 7 36.5 11t32.5 6q8 1 19.5 2t21.5 0.5t15.5 -4t3 -11t-15.5 -20.5t-42 -33l-20.5 5.5t-18.5 6.5q-44 -16 -84.5 -42t-71.5 -55t-50.5 -59
t-21 -53.5t17.5 -38.5t64 -14q25 0 54 4t62 14t71.5 27.5t83.5 45.5q11 9 15.5 2.5t-0.5 -12.5q-32 -35 -74.5 -60t-87.5 -39.5t-88.5 -19.5t-77.5 1q-40 7 -70 21t-46 40l-1 3q-48 -42 -99.5 -64t-104.5 -14q-60 9 -89 52t-33.5 103t13 130t51.5 134q-50 -67 -83.5 -141.5
t-40.5 -147.5q-4 -14 -14 -11t-13 15q0 68 21.5 139t58.5 137t86 124t104.5 99t113 61t111.5 12q47 -7 77 -26.5t44 -50.5q54 17 116.5 20.5t117.5 -3.5t94 -23t46 -38q1 -5 1.5 -10t-2 -8t-7 -2t-12.5 7zM354 435q14 0 24 -3.5t13 -7.5t-3.5 -9t-25.5 -8
q-31 -5 -61.5 -31.5t-59 -66.5t-53 -89.5t-42 -101t-27.5 -100t-8.5 -87t15.5 -62.5t43 -25q48 -2 94.5 27t88.5 80q6 33 34 63t65.5 56t79 47l73.5 36q-39 0 -71.5 5.5t-55 22t-33.5 47t-9 80.5q1 41 23.5 69.5t57.5 47.5q-15 58 -67 61q-32 1 -71.5 -15.5t-83.5 -45.5
q14 5 29 7.5t31 2.5z" />
    <glyph glyph-name="paragraph" unicode="&#xb6;" horiz-adv-x="931" 
d="M517 308q-27 -49 -50.5 -103t-41 -106.5t-28.5 -100.5t-13 -85q0 -6 -5 -15t-10.5 -14.5t-11 -3.5t-7.5 19q-2 19 0.5 47t7.5 61t13.5 69t20.5 72q-9 -19 -29.5 -29.5t-43 -12.5t-42.5 5.5t-26 24.5q-10 28 -2.5 57.5t26 56.5t45 49.5t55 35.5t55.5 15t46 -12
q5 3 13.5 1.5t15.5 -6t11 -11.5t1 -14zM706 296q-22 6 -40.5 3.5t-40.5 -16.5q-23 -14 -43.5 -47.5t-38.5 -77t-32.5 -92t-25 -92t-16.5 -77.5t-7 -49q-1 -7 -7 -15t-13 -12.5t-13.5 -2.5t-8.5 15q-4 24 0.5 68.5t16 97.5t29 109t39.5 103.5t47.5 81.5t53.5 43q56 19 103 -9
q8 -5 9.5 -10.5t0 -11t-5.5 -8.5t-7 -1z" />
    <glyph glyph-name="periodcentered" unicode="&#xb7;" horiz-adv-x="340" 
d="M190 146q-13 -11 -25 -14t-15 3q-8 8 -12 21t-1.5 25.5t12 21.5t27.5 9q13 0 20 -7.5t8.5 -18t-2.5 -22t-12 -18.5z" />
    <glyph glyph-name="quoteright" unicode="&#x2019;" horiz-adv-x="241" 
d="M110 334q-13 -8 -17 -4.5t4 15.5q35 52 44.5 88.5t1.5 51.5q-6 12 0.5 22t34.5 6q23 -3 29 -16t1 -31.5t-18.5 -39.5t-28.5 -40t-29.5 -33.5t-21.5 -18.5z" />
    <glyph glyph-name="A.alt" horiz-adv-x="568" 
d="M-31 71q-12 14 -14 37t10 40q16 25 45 40.5t64.5 25t75.5 14t80 6.5q18 33 45 72.5t57 76.5t61.5 68t60.5 47.5t52.5 14.5t37.5 -31q7 -17 6.5 -38t-6 -43.5t-13 -44t-14.5 -39.5l-21 -59t-19 -58q4 -2 7 -3l6 -2q18 -8 27 -17.5t10.5 -17t-4.5 -11t-17 0.5q-10 5 -19 9
t-19 8q-18 -63 -28.5 -119.5t-11.5 -101.5t8.5 -75.5t30.5 -40.5q12 -6 15.5 -12t0.5 -10.5t-12 -5.5t-21 3q-164 52 -54 384q-32 8 -69 12.5t-66 0.5l-67 -123.5l-66.5 -117t-61.5 -96t-53 -61.5q-34 -29 -71 -29t-62 25q-22 22 -23 57.5t28 64.5q6 8 11.5 10.5t9.5 1.5
t5 -5.5t-3 -9.5q-8 -11 -13.5 -27.5t-4.5 -30t9.5 -20.5t28.5 1q28 9 60 42.5t67.5 82t73 107.5l76.5 120q-39 -8 -77.5 -20.5t-69 -29t-49 -34.5t-17.5 -36q1 -4 0.5 -8t-3.5 -5.5t-8 0.5t-12 10zM494 462q1 3 -10 2t-35.5 -19.5t-62.5 -61.5t-90 -125l-15 -24q36 -1 64 -4
t61 -10q20 63 41.5 120.5z" />
    <glyph glyph-name="B.alt" horiz-adv-x="615" 
d="M203 94q-12 -2 -30 -1.5t-25.5 7t2 22.5t52.5 46q11 -2 23 -7q13 42 28 83t30.5 78t31 69.5t30.5 56.5q-44 -4 -99 -14.5t-104.5 -27.5t-84 -41t-37.5 -54q-2 -21 38 -23.5t107 30.5q23 18 36 21.5t13.5 -3.5t-14 -23t-46.5 -37q-51 -33 -88.5 -40.5t-60 3t-29.5 35.5
t4 55q14 40 57 75.5t101.5 62.5t126 42.5t129.5 15.5t112.5 -18t75.5 -57q25 -41 11.5 -85.5t-54.5 -86.5t-102.5 -78.5t-131.5 -61.5q33 -2 71.5 -10t71.5 -22q49 15 102.5 25.5t110.5 12.5q8 0 12 -3t4 -7t-3 -8.5t-8 -6.5q-46 -2 -91 -11t-89 -24q23 -17 31 -43
q10 -34 -12 -72t-63.5 -72t-95 -61t-105.5 -40.5t-95.5 -10t-65.5 30.5q-6 14 -4 31t25 44q32 38 87 81q1 9 3 23l4.5 30.5t5.5 34.5t7 34h-5zM294 173q42 23 86.5 50.5t82 56t63 56t28 50.5t-23 39t-88.5 22q-29 -33 -69 -99.5t-79 -174.5zM211 -85q-8 -20 -16.5 -21.5
t-10.5 18.5v6q-16 -13 -27.5 -24.5t-19.5 -20.5q-15 -17 -7.5 -25.5t18.5 -8.5q22 1 62 17t83.5 40t82.5 52.5t59 54.5q11 14 14.5 33t-13.5 30q-65 -26 -120.5 -58t-97.5 -63q-2 -8 -3.5 -15t-3.5 -15zM235 5q34 22 73 43t83 38q-22 8 -51 14t-64 11l-7 -5
q-8 -26 -17 -50.5t-17 -50.5z" />
    <glyph glyph-name="C.alt" horiz-adv-x="529" 
d="M471 404q-10 14 -26 17.5t-42 -5.5q-33 -10 -73.5 -33.5t-80 -56t-75.5 -72t-61 -80.5q-40 -67 -47 -124.5t14.5 -93.5t69.5 -44.5t120 23.5q41 18 83.5 45t83 59.5t78 68t68.5 70.5q11 10 15.5 3t-0.5 -13q-22 -29 -56.5 -68t-77.5 -78.5t-90.5 -75.5t-95.5 -59
q-64 -31 -115.5 -34t-89 14.5t-59.5 52.5t-28 80.5t5 97.5t40 104q30 53 72.5 103t91 89.5t100 65t101.5 30.5q32 4 56.5 -11.5t36.5 -42.5q3 -7 2.5 -15.5t-3.5 -15t-7.5 -8t-9.5 6.5z" />
    <glyph glyph-name="D.alt" horiz-adv-x="687" 
d="M578 131q35 8 69.5 12.5t70.5 6.5q6 0 8 -3t2 -7t-1.5 -8.5t-2.5 -6.5q-45 -6 -87.5 -15t-83.5 -20q-31 -48 -76 -91.5t-94 -79t-98 -62t-90 -40.5t-69 -15t-35 14q-6 14 1 35.5t30 48.5q14 17 33 33t43 33q3 57 17.5 124t35.5 131.5t45 119t46 87.5q-18 4 -48 4
t-63.5 -4.5t-68 -13.5t-63 -23.5t-47.5 -34t-21 -45.5q-1 -11 9 -17t29 -6.5t46 6.5t60 24q23 18 36 21t13 -4t-14.5 -23t-46.5 -37q-52 -35 -89.5 -42.5t-59.5 3.5t-28 36.5t5 56.5q19 51 63.5 85.5t100 53t115 23t109.5 -4.5q69 -12 120 -46.5t78.5 -83t29 -107
t-28.5 -118.5zM471 103q31 48 53 97.5t22 91.5t-28 73.5t-95 43.5q-19 -20 -41 -59t-45 -92.5t-45.5 -119.5t-43.5 -138q51 31 103 55.5t120 47.5zM233 -56l-3.5 -14.5l-3.5 -14.5q-8 -20 -16.5 -21.5t-10.5 18.5v8q-37 -26 -51 -48q-12 -17 -3 -22t30 5q46 22 82.5 44.5
t66.5 45.5t56 48.5t51 54.5q-66 -29 -111 -52.5t-87 -51.5z" />
    <glyph glyph-name="E.alt" horiz-adv-x="517" 
d="M270 64q5 -1 4.5 -1.5t-7.5 -0.5q-2 2 -7.5 3.5l-11.5 3t-11 3t-8 2.5q-86 -40 -119 -75.5t-26 -61.5t45.5 -41t95.5 -14.5t124 18.5t131 58q13 8 15.5 2t-2.5 -12q-38 -35 -86.5 -60t-99 -39.5t-97 -19.5t-80.5 1q-28 5 -52.5 14t-42.5 24t-28 36t-8 50q1 28 15.5 50.5
t37.5 41.5t53.5 35t63.5 30q-66 40 -89 84t-15.5 87.5t39 83.5t76 72t96 53.5t97 27t80.5 -6.5t46.5 -47.5t-6 -96t-75.5 -151.5q-3 -5 -10.5 -8.5t-13.5 -4t-8.5 3t3.5 12.5q46 78 50 125t-18.5 69t-64 22t-85 -16.5t-81.5 -47.5t-54.5 -71t-3.5 -85.5t72 -91.5
q40 13 70 16q13 2 31 1.5t25.5 -8t-3.5 -24t-57 -45.5z" />
    <glyph glyph-name="F.alt" horiz-adv-x="463" 
d="M30 104q-10 -4 -15.5 -3t-7.5 4.5t-0.5 8.5t6.5 9q9 7 30 20.5t49.5 29.5t63 31.5t70.5 25.5q24 62 40.5 112.5l33.5 106.5q-34 -4 -66 -9.5t-61 -14.5l-28 -9t-28 -11.5t-21.5 -13t-8.5 -13.5q-1 -9 7 -15t19 -8q10 -2 5.5 -7t-8.5 -7q-29 -4 -44 1t-23 13
q-10 10 -7 22.5t12.5 25t21.5 23t20 15.5q43 28 102.5 45.5t126.5 25.5q5 15 11 25t10.5 11.5t7.5 -6t3 -26.5q81 8 159.5 6t140.5 -11q22 -6 25.5 -18.5t-4.5 -26.5t-23 -26.5t-30 -17.5q-14 10 -41 17.5t-63 12t-79.5 4.5t-89.5 -4q-8 -45 -22 -96.5t-33 -111.5q17 3 45 4
t51 -4q19 -5 30 -15.5t12 -22.5t-7.5 -23t-27.5 -17q-19 14 -47.5 17.5t-73.5 -4.5l-37 -97.5l-38 -94.5t-38.5 -81.5t-38.5 -59.5q-25 -29 -54 -38t-54.5 0t-43.5 35t-20 68q0 9 3 15.5t7 8.5t8 -2.5t6 -16.5q5 -37 24 -43.5t43 18.5q47 48 87.5 120.5t74.5 156.5
q-41 -11 -84.5 -27t-87.5 -37z" />
    <glyph glyph-name="G.alt" horiz-adv-x="535" 
d="M426 206q7 3 18.5 2.5t23 -4t21.5 -10t14 -16.5q-12 -15 -22 -23.5l-18.5 -15.5t-16 -15t-15.5 -21q-33 -57 -52.5 -111.5t-28.5 -104.5t-8.5 -94t8.5 -80q7 -27 -0.5 -30.5t-22.5 16.5q-21 26 -30.5 62.5t-10 78.5t7.5 87t22 88q-42 -39 -87.5 -72t-87 -54t-75.5 -25.5
t-53 14.5q-37 35 -42.5 89t13.5 116t59.5 126t95.5 120.5t122 99t139 60.5q55 14 87.5 -3.5t34.5 -54t-30.5 -86t-107.5 -100.5q-12 -8 -25 -11t-21 -1.5t-7 7.5t17 16q22 14 45 36.5t41.5 46t28.5 44.5t6 34t-25.5 13.5t-65.5 -16.5q-48 -20 -94 -52.5t-85.5 -73.5
t-71.5 -87.5t-52.5 -93.5t-27.5 -91.5t3 -82.5q4 -17 35 -10t74.5 29.5t92 56t89.5 69.5l20 39q-36 -10 -71.5 -15.5t-65.5 -8t-52.5 -2t-33.5 2.5q-13 4 -14 14t20 10q39 0 76.5 7.5t72.5 18.5t65.5 24l56.5 24q2 2 5.5 7t5.5 7z" />
    <glyph glyph-name="H.alt" horiz-adv-x="688" 
d="M191 333q7 1 14.5 1.5t11.5 -2t1 -8.5t-16 -18q-59 -39 -103 -46t-68 8.5t-24 48.5t30 73q26 34 72 63t96 43t95 8t69 -43q29 -44 32 -115t-20 -150q35 0 61.5 -3.5t56.5 -8.5q23 48 49 93t51 83.5t47 68l36 47.5q15 18 29 27.5t22 9.5t7.5 -10.5t-14.5 -32.5
q-17 -20 -36.5 -51.5t-40.5 -71t-42.5 -85t-41.5 -92.5q10 -2 18.5 -5.5l16.5 -6.5q18 -9 27 -19t10.5 -17.5t-4.5 -11t-17 0.5q-14 8 -30.5 14.5t-34.5 11.5q-17 -45 -29 -87t-16 -78q-3 -29 -0.5 -55.5t15.5 -41t38.5 -14t68.5 25.5q23 18 36 22.5t14 -2t-13 -22.5
t-45 -38q-53 -38 -92.5 -43.5t-64.5 12.5t-35 55.5t-4 85.5q5 41 21.5 93t36.5 98q-31 4 -55 4.5t-58 -1.5q-24 -68 -54 -132t-65 -116.5t-73.5 -89.5t-78.5 -50q-32 -9 -61.5 -5t-53 19.5t-38.5 43t-17 64.5q0 9 3.5 15.5t8.5 8.5t10 -2t7 -16q3 -27 19 -46.5t43 -19.5
q24 -1 60 26t75 72t77 103t67 119q-69 -10 -134 -31t-115 -53q-5 -3 -12 -8.5t-12.5 -12t-9 -13t-0.5 -10.5q3 -5 4 -10.5t-1.5 -8t-8 -1.5t-15.5 10q-7 7 -11 18t-4.5 22.5t2 22.5t7.5 19q17 26 51.5 44.5t79.5 30.5t96 19.5t101 10.5q32 78 38.5 144t-29.5 109
q-18 21 -45 21t-56 -11.5t-55.5 -30.5t-41.5 -36q-18 -21 -29.5 -43t-7.5 -34.5t27.5 -10t73.5 30.5z" />
    <glyph glyph-name="I.alt" horiz-adv-x="549" 
d="M98 183q-14 -13 -22 -29t-9 -28.5t7.5 -18.5t29.5 2q25 10 57 31.5t67 50.5t71.5 64t70 71.5t62.5 72.5t49 68q4 11 7 22l6 22q3 13 12 15.5t17 -1.5t13 -12t1 -15l-22 -37q-26 -112 -55.5 -211.5t-64.5 -177.5l98 52.5t90 60.5q23 19 33 22t11 -4t-6 -19t-18 -21
q-63 -51 -121.5 -84.5l-113.5 -65.5l-56 -113.5t-55 -96.5t-56.5 -75t-60.5 -48q-18 -9 -37.5 -9t-36 9t-27 25.5t-8.5 40.5q1 28 23.5 64.5t58 74t81 72t94.5 58.5q48 82 88 171t70 175q-33 -47 -77.5 -100t-91 -100t-90.5 -82t-76 -45q-34 -11 -58.5 -1.5t-32.5 33.5
t3.5 59t50.5 75q7 8 14.5 8.5t11.5 -3t4 -10t-6 -12.5zM99 -236q8 -5 26.5 14t42 50t49 69l48.5 71q-66 -47 -101.5 -84t-51 -63t-16 -40.5t2.5 -16.5z" />
    <glyph glyph-name="J.alt" horiz-adv-x="503" 
d="M101 468q-14 -11 -14.5 -20.5t8 -17t23 -14t30.5 -11t31.5 -7t25.5 -3.5q51 -5 107.5 1.5t111.5 22t104 38.5t85 53q8 4 16 4t13 -3.5t5 -9.5t-8 -12q-33 -28 -71 -50.5t-80 -40.5q1 -3 0.5 -6t-0.5 -7q-14 -62 -29.5 -117t-32.5 -104l135 29q29 6 39.5 3.5t9 -8.5
t-12.5 -12.5t-26 -8.5q-26 -4 -66.5 -13.5t-90.5 -23.5q-38 -101 -78 -177t-82.5 -131t-88.5 -90.5t-96 -54.5q-57 -22 -104.5 -18.5t-81.5 24t-51 54.5t-12 74q8 70 55 122.5t121 92t168.5 69.5t198.5 54q21 51 40.5 108t37.5 122q-42 -15 -84.5 -26.5t-82.5 -18.5
t-76 -7.5t-64 6.5q-33 8 -58 27t-30 42q-5 26 8 47.5t33 30.5q20 8 24 3.5t-10 -15.5zM-128 -249q9 -15 31.5 -19.5t49.5 -1.5t53.5 11t43.5 18q31 19 69.5 49.5t78 74t78 100t70.5 126.5q-61 -20 -124 -46t-120.5 -56t-106 -63t-80.5 -66t-44.5 -65.5t1.5 -61.5z" />
    <glyph glyph-name="K.alt" horiz-adv-x="466" 
d="M542 547q9 4 16.5 -4.5t10 -23.5t-2.5 -32t-22 -28q-27 -20 -68 -53.5l-88.5 -76t-97.5 -93t-95 -102.5q42 -17 94.5 -53.5t103 -81t94 -91t69.5 -82.5q21 -29 27.5 -43t1 -15.5t-20 9.5t-35.5 31l-81 73t-97.5 77.5t-105 68t-102.5 45.5q-4 -5 -6.5 -8.5t-4.5 -6t-4 -6
t-6 -8.5q-28 -60 -59.5 -115.5t-64.5 -103.5q-15 -16 -32.5 -16t-29.5 10t-14.5 27t13.5 35q24 28 52.5 75.5t54.5 101.5q-2 4 -2 8q-9 45 4.5 68.5t43.5 28.5q34 88 50.5 159t8.5 124q-3 22 -15.5 25.5t-27.5 -4t-29 -21.5t-21 -27q-3 -5 -7.5 -7t-8 0.5t-4.5 8t3 15.5
q14 29 43 52.5t61 30.5q40 9 59 -10.5t25 -51t2.5 -67.5t-8.5 -61q-3 -17 -8.5 -38.5t-12 -44t-13.5 -44l-13 -39.5q31 42 67.5 85.5t74.5 84l74.5 77.5t67.5 65.5l53.5 47.5t32.5 25z" />
    <glyph glyph-name="L.alt" horiz-adv-x="528" 
d="M387 111q23 75 38.5 143t21.5 116.5t1 71t-23 6.5q-29 -26 -85 -126q-34 -62 -65.5 -137l-63.5 -149q71 -16 140 -45.5t124 -60t90 -55.5t39 -32q3 -7 -2.5 -13t-24.5 5q-36 20 -82 42t-97 42.5t-104.5 38t-104.5 28.5q-18 -40 -37 -76.5t-38 -64.5t-38.5 -45t-39.5 -19
q-33 -3 -59 22.5t-40.5 62t-14 75t20.5 60.5q33 35 82 46t106 4l38.5 94t40.5 94t43 87.5t46 73.5q29 39 53.5 62t45 33.5t37 9.5t29.5 -10q20 -14 27.5 -39.5t6 -57.5t-10 -68.5t-20.5 -73.5t-25.5 -72l-24.5 -63t-19 -37t-12 -7t-4 12.5t5 21.5zM-10 -29q-7 -9 -6.5 -34.5
t5.5 -50.5t13 -41.5t16 -8.5q23 23 44.5 65t47.5 100q-49 6 -76 -2t-44 -28z" />
    <glyph glyph-name="M.alt" horiz-adv-x="714" 
d="M192 -39q1 2 6 10t11 16.5t11 16.5t6 10q13 30 31.5 67.5l38 77.5l38.5 80.5t33 74.5t20.5 59.5t2.5 37.5q-33 -17 -68.5 -50.5t-74.5 -80.5t-82 -107l-92 -130q-28 -60 -59.5 -115.5t-64.5 -103.5q-15 -15 -32.5 -15.5t-29.5 8.5t-13.5 25t14.5 34q24 27 50 68.5
t50.5 90t46 101.5t36.5 104t21.5 97t1.5 80q-2 18 -15 21t-29 -3.5t-30.5 -19t-19.5 -24.5q-3 -6 -7.5 -7.5t-8.5 0.5t-5.5 8t2.5 15q14 29 43 52.5t61 30.5q40 9 59 -10.5t25 -51t2.5 -67.5t-8.5 -61q-6 -29 -14 -58.5t-19 -58.5q9 16 25.5 41.5l36.5 55t42.5 59.5t44.5 56
t42 45t36 25q22 8 38.5 2t26 -20.5t13.5 -33.5t1 -37q-8 -55 -34.5 -120.5l-55.5 -131.5l68 94.5l66 86.5t54 65t31 30q27 13 46 4t31 -28t17 -42.5t4 -38.5q-13 -43 -33.5 -89l-41.5 -93t-39 -92.5t-25 -87.5q-5 -26 -0.5 -43t21.5 -22.5t47 1t76 29.5q23 18 36 21.5
t13 -3.5t-14.5 -23t-47.5 -36q-60 -38 -100.5 -43t-64 11t-31 48t-1.5 70q6 40 19.5 82.5t29.5 83t32.5 78l29.5 68.5t20.5 54.5t5.5 35.5q-26 -10 -56 -39t-61.5 -69t-63 -87l-60 -92t-51.5 -85l-38 -65q-9 -15 -24 -14t-27.5 11.5t-20 26t-1.5 29.5z" />
    <glyph glyph-name="N.alt" horiz-adv-x="565" 
d="M291 411q-15 -67 -21.5 -134t-6.5 -128.5t4.5 -113.5t12.5 -89q4 -22 8 -30.5t9.5 -6t13 15.5t18.5 35q1 2 9 27.5t23 66.5t36.5 93t49 106.5t60.5 107.5t71.5 96.5t81.5 72.5t91 36q13 2 15.5 -1.5t0 -9t-8 -11t-9.5 -6.5q-44 -15 -86.5 -63t-80 -112t-69.5 -135
t-56.5 -132t-39 -103.5t-17.5 -48.5q-15 -29 -38.5 -54t-49.5 -36.5t-52.5 -5.5t-45.5 39q-8 14 -11.5 55t-1 100t11.5 133t26 155q-33 -56 -64.5 -116l-63 -117l-63 -109t-64.5 -92.5t-67.5 -67t-72.5 -33.5q-35 3 -54 17.5t-23.5 37t5 52t32.5 61.5q7 9 14.5 11.5t13 1
t7 -5.5t-2.5 -10q-9 -11 -16 -27t-8 -29t6.5 -19.5t27.5 1.5q30 12 71.5 53.5t87 99t91 125.5t83.5 132t64.5 118t33.5 85q12 10 21 6t15 -14t7.5 -22.5t-1.5 -19.5z" />
    <glyph glyph-name="O.alt" horiz-adv-x="673" 
d="M524 526q61 -9 89.5 -46t31 -91t-17.5 -119.5t-56 -131.5t-84.5 -127.5t-102 -107.5t-109 -70.5t-106.5 -16.5q-52 8 -84.5 40t-47 78.5t-13 103.5t16.5 115t42.5 113t65 97t83 67t97.5 24q16 -2 27 -6q40 42 82.5 63t85.5 15zM197 -104q-4 -14 -14 -10.5t-13 15.5
q-10 58 -1.5 128.5t32 142t58.5 138t77 116.5q-36 -3 -69 -29t-61.5 -66.5t-50.5 -91.5t-35.5 -104t-18.5 -104t1.5 -91.5t25 -66.5t51.5 -29q37 -3 77.5 22.5t81 70t78 103t68.5 119.5t52.5 120t29 105.5t-0.5 75.5t-37 30q-32 1 -71 -26t-78 -73t-74.5 -106.5
t-61.5 -126.5t-39 -134t-7 -128z" />
    <glyph glyph-name="P.alt" horiz-adv-x="575" 
d="M31 311q-2 -10 8 -16.5t29 -6.5t46.5 6.5t60.5 23.5q23 18 36 20.5t13 -6t-15 -24.5t-48 -36q-49 -30 -83 -38t-54.5 1t-28 33.5t-4.5 60.5q4 48 40.5 85.5t90 63t117.5 38.5t125 12t111.5 -16t76.5 -46q30 -36 30.5 -75.5t-19.5 -79.5t-55.5 -78t-77.5 -70.5t-85 -57.5
t-78 -38l-39.5 -71l-37 -61t-38 -55.5t-42.5 -54.5q-13 -16 -26.5 -24t-22.5 -8t-11 8t9 25q10 9 24 30t29.5 49.5l33 63.5t34.5 73q-21 -3 -37 4t-8 18q2 2 20.5 7.5t44.5 18.5q21 49 39.5 100t32 96t21 80.5t7.5 54.5q0 9 14.5 13.5t31 2.5t29.5 -12t10 -30q1 -4 -5 -26.5
t-18.5 -59t-31 -84t-42.5 -100.5q50 29 97.5 72.5t79.5 90t41 89t-17 69.5q-17 18 -56.5 23.5t-88.5 0.5t-102 -19t-98 -34.5t-76.5 -47.5t-36.5 -58z" />
    <glyph glyph-name="Q.alt" horiz-adv-x="671" 
d="M522 526q55 -6 85.5 -33t39.5 -69t0.5 -95t-31.5 -109.5t-57 -113.5t-74 -107q62 -26 119 -58t101.5 -61.5t72 -51.5t30.5 -28q4 -7 -2 -13t-25 5l-69 37.5t-83 41.5t-91.5 41.5t-94.5 38.5q-32 -34 -67 -61t-71 -45t-71 -26t-67 -3q-53 8 -85.5 39.5t-47.5 78
t-13.5 103.5t17 115t43 112.5t65 97t83.5 68t98 24.5q16 -2 27 -6q40 41 82.5 62.5t85.5 15.5zM526 490q-23 1 -51.5 -14t-58.5 -42t-60 -65t-56.5 -82.5t-48.5 -94t-35 -100.5q-3 -11 -6 -17.5t-5 -16.5q23 4 49.5 3t54.5 -6t55 -13t50 -18q34 47 62 99t49 102.5t33 97
t13.5 82.5t-9.5 58.5t-36 26.5zM173 77q9 48 24.5 95.5t36.5 92.5t46 86t54 75q-37 -2 -70.5 -26t-61.5 -62t-50.5 -86.5t-36.5 -100t-20 -102t-1 -92t21 -71t45 -38.5q-17 19 -25.5 47.5t-8 57.5t10.5 53.5t30 35.5q2 11 3 17.5t3 17.5zM374 -27q-61 15 -102.5 20t-72.5 -4
q-2 -12 -3.5 -30.5l-3 -38.5t-2.5 -40t-1 -36q47 1 92 36.5t93 92.5z" />
    <glyph glyph-name="R.alt" horiz-adv-x="559" 
d="M271 68q47 -16 85 -45t71 -63t61.5 -70t55.5 -65q48 -56 79.5 -35.5t58.5 104.5q8 22 14.5 19.5t1.5 -33.5q-9 -68 -34 -106.5t-58 -49t-69 4.5t-66 54q-25 33 -51.5 72.5t-54 75.5t-56.5 64.5t-59 41.5l-35.5 -62l-30.5 -53.5t-31.5 -48.5t-37.5 -47q-14 -15 -28 -23
t-24 -8.5t-12.5 7t8.5 24.5q10 9 24 30t29.5 49.5l33 63.5t34.5 73q-21 -3 -37 4t-8 18q2 2 20.5 7.5t44.5 18.5q21 49 39.5 100t32 96t21 80.5t7.5 54.5q0 9 14.5 13.5t31 2.5t29.5 -12t10 -30q1 -4 -5 -26.5t-18.5 -59t-31 -84t-42.5 -100.5q50 29 97.5 72.5t79.5 90
t41 89t-17 69.5q-17 18 -56.5 23.5t-88.5 0.5t-102 -19t-98 -34.5t-76.5 -47.5t-36.5 -58q-2 -10 8 -16.5t29 -6.5t46.5 6.5t60.5 23.5q23 18 36 20.5t13 -6t-15 -24.5t-48 -36q-49 -30 -83 -38t-54.5 1t-28 33.5t-4.5 60.5q4 48 40 85.5t89.5 63t118 38.5t125.5 12
t111.5 -16t76.5 -46q31 -37 31.5 -76.5t-19.5 -78t-55.5 -76t-77.5 -69t-84.5 -57t-75.5 -41.5z" />
    <glyph glyph-name="S.alt" horiz-adv-x="498" 
d="M186 -230q-9 -1 -14.5 2t-5.5 9t7.5 13.5t25.5 16.5q64 37 93 73.5t33.5 70t-8.5 61.5t-32 47q-66 -56 -130 -93t-115 -58t-83 -29.5t-34 -7.5q-5 2 -6.5 7.5t0.5 11.5t7.5 11t13.5 7q79 14 158 62t150 116q-72 49 -104 97.5t-34 93.5t20.5 85.5t59 73.5t83 56t92 34.5
t85.5 9t64.5 -22t28 -57t-24.5 -95.5q-42 -88 -93.5 -155.5t-107.5 -119.5q58 -37 80 -77t6.5 -81.5t-69 -82.5t-146.5 -79zM456 484q-17 6 -44.5 -0.5t-58.5 -22t-62 -38.5t-56 -51.5t-40 -61t-13.5 -66t22 -66.5t67.5 -63q60 61 105 128.5t75 132.5l12.5 27t11.5 32.5
t0.5 30t-19.5 18.5z" />
    <glyph glyph-name="T.alt" horiz-adv-x="408" 
d="M285 404q-52 -7 -98 -16.5t-83 -21t-63.5 -24.5t-38.5 -25q-8 -1 -16 9.5t-10 26.5t5 33t30 28q46 17 102 31t116.5 24t122.5 15t119 3.5t106 -10t85 -25.5q24 -11 34 -30.5t6.5 -39t-20 -35t-44.5 -19.5q-8 -1 -13 2t-6.5 6.5t0 7t6.5 3.5q12 2 21.5 7.5t10.5 13.5
q-9 20 -37.5 30.5t-68.5 15t-86.5 3.5t-91.5 -3l-20.5 -71.5t-32.5 -104.5t-44.5 -122.5t-57 -125t-69 -112.5t-81.5 -85q-12 -3 -18 2.5t4 17.5q29 33 55 80t49 101.5t43 113t36 113.5t28 102.5z" />
    <glyph glyph-name="U.alt" horiz-adv-x="738" 
d="M306 443q-18 21 -44.5 22.5t-56 -8t-57.5 -28t-48 -38.5t-33.5 -43t-10 -37t29 -11.5t83.5 33.5q7 1 14.5 1.5t11.5 -2t1 -8.5t-16 -18q-59 -44 -103.5 -51.5t-68.5 9t-23.5 51.5t30.5 75q26 34 67.5 61t88 39.5t92 6.5t78.5 -38q37 -34 44.5 -77.5t-3 -92.5t-33.5 -102
l-47.5 -106t-44.5 -104t-25 -97q32 16 76 50.5t94 84t103.5 112t105.5 136.5q24 60 51.5 121t54.5 106q10 15 26.5 22.5t32.5 7.5t27.5 -8.5t11.5 -25.5q-21 -18 -48.5 -62.5t-55 -103.5t-53 -127.5t-43 -134.5t-24 -124t2.5 -96q5 -23 13.5 -29.5t17.5 -3.5t17.5 14
t12.5 23q2 5 6.5 7t8 -0.5t5.5 -8t-1 -15.5q-12 -35 -35 -50.5t-47 -15t-44 16.5t-26 43q-17 65 -2 149t48 184q-56 -73 -109.5 -134t-98.5 -106t-78.5 -73t-48.5 -36q-21 -11 -37 -3.5t-25.5 23.5t-14 36t-2.5 35q4 35 21.5 82t40 98.5l46 104.5t39.5 102.5t19 91t-14 70.5
z" />
    <glyph glyph-name="V.alt" horiz-adv-x="617" 
d="M807 538q-29 -5 -60.5 -34.5t-64.5 -75.5t-66.5 -104l-67 -120l-65.5 -123l-61.5 -113t-55.5 -91t-48 -56q-10 -7 -22.5 -13t-23.5 -6q-15 1 -26.5 12.5t-19.5 27t-11.5 33t-3.5 30.5q2 36 15 82t30 97.5l33.5 104.5t25 102.5t5.5 92t-25 72.5q-18 21 -46.5 22t-59 -10
t-59.5 -30t-48 -39t-29 -42t-3 -34.5t34 -10.5t83 30q7 1 14.5 1.5t11 -2t1 -8.5t-15.5 -18q-58 -45 -102 -52.5t-68 9.5t-25 52t27 75q24 34 64 61.5t86 41t91.5 8.5t81.5 -36q40 -35 53 -80.5t8.5 -97t-21.5 -107.5l-35.5 -111.5t-34 -108t-17.5 -98.5q48 41 88.5 107.5
t78.5 142l75.5 153t79.5 141t91 105t110 46.5q13 1 16 -2.5t0.5 -9t-8.5 -10.5t-10 -6z" />
    <glyph glyph-name="W.alt" horiz-adv-x="860" 
d="M861 554q0 3 2.5 5t6 2.5t6.5 0t4 -3.5q11 -59 4.5 -121.5t-25.5 -124.5t-47.5 -121.5t-62 -113.5t-69 -100t-68.5 -81q-16 -21 -34.5 -20.5t-35 11t-27 25t-10.5 21.5q-13 35 -8 90.5t20 117t34.5 122t35.5 105.5q6 15 -1.5 16.5t-22.5 -15.5q-27 -29 -58 -78.5
l-64 -107l-65.5 -116.5l-62 -109t-54.5 -84t-42 -40q-21 -11 -36.5 -3.5t-25.5 23.5t-14 36t-2 35q4 35 19.5 80t35 94l40 99t33 96t14 85.5t-15.5 66.5q-18 21 -46.5 22t-60 -9.5t-61.5 -29.5t-50 -39t-31 -42t-5 -35t33.5 -11t84.5 30q7 1 14.5 1.5t11.5 -1.5t1 -8
t-16 -18q-62 -44 -107 -51.5t-68 9t-21.5 51.5t31.5 75q26 34 67.5 61.5t87.5 40.5t91.5 7.5t79.5 -36.5q35 -33 44 -75t1 -88.5t-27.5 -95.5t-41 -98t-39.5 -96t-23 -88q43 55 84.5 120l84.5 132.5l89 134t99 124.5q4 7 15 11.5t23 4.5t22 -5.5t12 -18.5q-2 -22 -10 -56.5
l-18 -75l-20 -85t-17 -88t-8.5 -83.5t5.5 -72q100 102 158.5 199.5t87.5 178t35.5 136.5t3.5 75z" />
    <glyph glyph-name="X.alt" horiz-adv-x="608" 
d="M357 447q-19 21 -46 22t-55.5 -10t-56 -30.5t-46.5 -38.5q-10 -11 -18.5 -25t-11.5 -27.5t0.5 -24.5t16.5 -14t37.5 3.5t62.5 27.5l14.5 2t11 -1t1 -7.5t-15.5 -17.5q-59 -44 -104 -53t-69.5 7t-24.5 51t30 79q22 34 62 61t85 40t90.5 7t80.5 -39q28 -27 42.5 -62.5
t12.5 -83.5q102 94 194.5 148.5t171.5 55.5q8 0 13.5 -5t5.5 -10.5t-6 -10.5t-20 -5q-40 -1 -84 -20t-90.5 -52t-94.5 -78t-97 -97q0 -3 -0.5 -5.5t-0.5 -5.5q-6 -47 -14 -97t-11.5 -95.5t0 -82t19.5 -56.5t48.5 -20t86.5 28q13 0 12.5 -9.5t-11.5 -17.5q-56 -36 -98 -46.5
t-70.5 -0.5t-45.5 37t-23.5 65t-4 84t12.5 93q2 6 2.5 12.5t2.5 13.5q-50 -58 -93 -114l-78.5 -106l-62 -90.5l-42.5 -66.5q-17 -27 -30.5 -29t-21 11t-6.5 35.5t14 42.5q68 104 153 209t185 206q6 33 10 65t4 59.5t-6.5 50.5t-22.5 38z" />
    <glyph glyph-name="Y.alt" horiz-adv-x="702" 
d="M740 443q-79 -189 -130.5 -323t-81.5 -223.5t-41 -140.5t-9 -74t13.5 -23.5t26.5 9.5q14 8 19.5 -2t-14.5 -30q-18 -18 -33 -23t-28 -1.5t-23.5 13t-18.5 19.5q-13 17 -15.5 40t1.5 50.5t13.5 59.5t21.5 68l35 98.5t41 107.5l45.5 109.5l47.5 105.5q-18 -24 -45.5 -69.5
l-61 -97t-71.5 -101.5t-76 -82.5t-75 -39.5t-69 27q-21 23 -24 59.5t6 80.5t25 92.5l32.5 96t29 90t14 75t-11.5 51.5t-49 18q-20 -1 -42 -8.5t-43 -18.5t-40 -25t-34 -27q-12 -11 -22 -24.5t-14.5 -26t-1.5 -22t15.5 -12t37.5 3.5t65 24q7 1 14.5 1.5t11.5 -2t1 -8.5
t-17 -18q-63 -44 -108.5 -52.5t-68.5 7.5t-20.5 51t35.5 78q27 34 68.5 61t88 39.5t92 8t79.5 -34.5q21 -18 26 -51t-0.5 -74t-18 -87.5t-26.5 -92l-26.5 -86t-17.5 -71t0.5 -47t26.5 -12.5q24 4 59 39.5t74.5 86.5t79.5 110l73.5 111.5l56.5 90.5t28 47q4 13 18.5 18.5
t28.5 5t23.5 -6.5t3.5 -16z" />
    <glyph glyph-name="Z.alt" horiz-adv-x="447" 
d="M-173 -153q30 -11 72.5 -8t88.5 16.5t92.5 35t85.5 48.5t66.5 57t36 59.5t-6 57.5t-59.5 50q-2 -2 -12 -7t-23.5 -10.5t-28.5 -10.5t-28 -8q-15 -3 -11 11t17 32t29 32.5t24 11.5q22 -8 46 -3.5t47.5 17.5t45 32.5t38.5 42.5q23 31 38 62.5t17.5 57t-10 40t-43.5 10.5
q-20 -1 -44 -7.5t-48 -16.5t-46 -23t-37 -26q-22 -20 -38 -44.5t-12.5 -39t32.5 -12t96 36.5q7 1 15 1.5t11.5 -2t0 -8.5t-18.5 -18q-64 -45 -113 -51.5t-74.5 11.5t-25 53.5t35.5 75.5q21 24 56.5 46t75.5 38t80.5 24t71.5 4q51 -6 76 -31t29.5 -58t-10 -69.5t-44.5 -66.5
q-18 -18 -41.5 -35t-48.5 -32t-48.5 -26.5t-42.5 -19.5q65 -34 90.5 -70.5t21.5 -72.5t-33 -70t-74 -63t-100.5 -51t-112.5 -34t-111 -13t-96 12q-15 4 -19 10.5t-1 11.5t10 8t15 2z" />
    <glyph glyph-name="a.alt" horiz-adv-x="345" 
d="M263 181q-18 -34 -26.5 -66t-11 -57t1 -38.5t10.5 -10.5q16 8 41 33.5l51 54.5t48 56l31 38q14 14 20 10t-1 -19q-9 -19 -31 -49t-47.5 -61l-50 -58.5t-39.5 -41.5q-26 -25 -49 -21t-36.5 29t-14.5 68t18 97q-12 -25 -30 -52.5t-37.5 -51.5t-38 -41.5t-31.5 -21.5
q-30 -10 -41.5 9t-8.5 53t17.5 76.5t35.5 80t46.5 63t49.5 25.5q9 0 18.5 -4t17.5 -12t13 -20.5t5 -30.5q11 7 24 4.5t24.5 -9.5t18 -16t3.5 -16zM127 199q-11 -14 -24 -36t-23.5 -44.5t-16 -43.5t-1.5 -33q7 3 17.5 15t23.5 29.5t27.5 40l29.5 46.5q7 31 -0.5 42.5
t-32.5 -16.5z" />
    <glyph glyph-name="b.alt" horiz-adv-x="337" 
d="M169 338q-13 -27 -24 -54l-22 -55q37 40 66 49t48.5 -2.5t28.5 -39t6 -61.5q32 10 64.5 16.5t63.5 8.5q11 2 16.5 -8.5t-3.5 -15.5q-18 -1 -40.5 -5t-43.5 -9t-38 -11t-25 -10q-8 -32 -23.5 -67.5t-41.5 -65.5q-27 -29 -55 -32.5t-46 9.5t-22 38t17 53q15 20 39 36.5
t63 33.5q4 11 8.5 27.5t7 32.5t2 27.5t-7.5 12.5q-11 2 -40 -19t-71 -75q-18 -52 -32 -98.5l-25 -81t-19 -54.5t-13 -19q-14 4 -16 32t5.5 73t23 102t35.5 117.5t43.5 120.5t47.5 111t47 89t42 55q12 9 19.5 6.5t11.5 -13t5.5 -26.5t1 -32t-3.5 -29.5t-7 -20.5
q-24 -39 -49.5 -74.5t-43.5 -71.5zM121 14q7 -2 15.5 6.5t17.5 22.5t17 31t14 32q-22 -11 -38 -23.5t-25 -24.5t-9.5 -23.5t8.5 -20.5z" />
    <glyph glyph-name="c.alt" horiz-adv-x="290" 
d="M223 177q7 44 0.5 59t-20 10t-31 -25t-31.5 -45q-15 -27 -28.5 -59.5t-19 -62t-1 -51.5t25.5 -26q10 -2 34 9t55.5 35t66.5 60.5t67 84.5q10 14 15 15t6.5 -4.5t-0.5 -14.5t-7 -15q-41 -57 -84 -103.5t-83 -77t-73.5 -43t-55.5 -2.5q-25 11 -36 38t-9.5 62.5t13 76
t30.5 78.5t45 69.5t55 49.5q34 20 54.5 16t31 -22.5t11 -46t-5.5 -52.5q-1 -6 -5 -11.5t-8.5 -8.5t-8 -2t-3.5 9z" />
    <glyph glyph-name="d.alt" horiz-adv-x="381" 
d="M412 595q7 11 17 9.5t18 -11.5t12 -26t0 -34q-3 -9 -8 -26.5t-15 -39.5t-27 -48.5t-45 -53.5l-37.5 -67.5t-38.5 -77.5t-31.5 -81t-17.5 -77q-5 -38 10 -49t51 12q32 23 75.5 68t83.5 104q4 6 10 7t10.5 -1.5t6 -7.5t-2.5 -11l-37 -49.5t-45.5 -55.5t-51 -54t-52.5 -45
q-33 -24 -58.5 -27.5t-42 10t-23 43t0.5 71.5q-29 -44 -52 -63t-41.5 -22t-31.5 6t-22 22q-10 22 -4.5 56t20.5 69.5t37.5 67.5t48.5 50t52.5 18t49.5 -29q29 70 73.5 155t107.5 188zM221 228q-7 11 -18.5 8t-25 -15.5t-27.5 -31.5t-26 -39.5t-20 -39.5t-9 -32
q-2 -13 0.5 -18t8.5 -4.5t14 6.5t17 16q14 14 29.5 34t29.5 41q10 34 27 75z" />
    <glyph glyph-name="e.alt" horiz-adv-x="299" 
d="M136 -3q29 2 61.5 23.5t64 51t59 62t45.5 56.5q4 6 10 7.5t10.5 -0.5t6.5 -6t-1 -8l-56 -70.5t-69 -78t-78 -64t-83 -26.5q-41 9 -60.5 39t-22.5 69.5t9 82.5t34.5 77t53 52.5t64.5 9.5q19 -5 30.5 -20t9.5 -43q0 -11 -8.5 -29t-24.5 -35.5t-39 -30.5t-52 -13
q-11 -46 -1 -77t37 -29zM168 230q-16 -20 -33.5 -44.5t-25.5 -50.5q17 -1 31.5 11t24 28.5t13 34.5t-0.5 30z" />
    <glyph glyph-name="f.alt" horiz-adv-x="238" 
d="M4 -244q-22 -1 -33.5 27.5t-1.5 83.5q5 31 14.5 70t23 82.5t30 91t35.5 94.5q-19 -4 -32.5 -8t-26.5 -9q-7 -3 -8 4.5t1 18t6.5 19.5t9.5 11q26 7 68 13q20 48 42 92t44.5 81.5t45 67t43.5 49.5q8 7 17 9t17.5 0.5t16 -5t13.5 -5.5q18 -9 17 -34.5t-11 -55t-23 -56
t-19 -36.5q-2 -3 -6 -3.5t-7 2t-3 8t6 15.5q3 7 8 25.5t9 38t6 34t-1 14.5q-4 0 -8.5 -3t-6.5 -5q-35 -35 -65 -92.5t-63 -138.5q21 1 40 -1.5t32 -5.5q8 -2 8 -8t-15 -17q-25 -1 -42 -2.5t-38 -4.5q-20 -52 -37.5 -105.5t-31 -102.5t-22 -90.5t-11.5 -69.5
q-2 -12 -11.5 -36t-29.5 -57z" />
    <glyph glyph-name="g.alt" horiz-adv-x="337" 
d="M306 414q-81 -21 -122 -39.5t-55 -34t-8 -27.5t19 -21q15 -10 31 -15.5l30 -10.5t23.5 -12t12.5 -19.5t-2 -33.5t-21 -53q-11 -22 -26 -43q30 17 61 32t60 26.5t55 19.5t46 11q9 2 11 -5.5t-3 -9.5q-31 -10 -69.5 -27t-78 -38t-77.5 -45t-69 -49t-52 -49t-26 -45
q-4 -15 9 -26.5t33 -23l40.5 -24t31.5 -29t6.5 -38.5t-35.5 -52q-24 -24 -62.5 -44t-82.5 -33.5t-88 -20t-80 -4.5q-7 0 -11 4t-4.5 8.5t2 8.5t8.5 4q13 0 45.5 11t70.5 29t75 40.5t59 45t22.5 42.5t-34.5 34l-22 9t-22 12.5t-16 18t-4 25.5q2 13 16 26t24 27
q-21 15 -27.5 39t-3 52.5t15.5 58.5t28.5 57.5t35 49t36.5 32.5l1 1q-14 4 -21.5 11.5t-7.5 22.5q0 29 11 54t35 43.5t63 29.5t96 11q16 0 23.5 -4t8 -8.5t-4 -8t-10.5 -3.5zM150 105q16 22 28 46.5t20 50.5q5 17 0.5 24.5t-9.5 11.5q-18 -9 -36 -28.5t-33.5 -42.5t-27 -47
t-16.5 -42t-2 -28.5t17 -6.5q18 15 31.5 28.5t27.5 33.5z" />
    <glyph glyph-name="h.alt" horiz-adv-x="389" 
d="M260 7q-27 5 -40.5 19.5t-19 33.5t-4 39.5t5 37.5t7 27.5l3.5 10.5q-20 -19 -41.5 -46.5t-42 -57t-37.5 -58.5t-28 -51q-5 -11 -20 -15.5t-29 -1t-23.5 15t-4.5 32.5q2 17 10.5 53t22.5 83.5t33 102t42.5 109t51.5 104.5t60 89t67.5 62t73.5 23q51 0 65.5 -24.5
t3.5 -63.5t-43 -87t-74.5 -95.5t-89.5 -89t-89 -66.5q-8 -25 -13.5 -45.5t-10.5 -34.5l-6 -17.5t-5 -16.5q12 18 33 42t42.5 45t40.5 36t28 15q29 0 39 -11.5t10.5 -29t-5 -37t-7.5 -36t3.5 -26.5t27.5 -7q8 1 30 14t49 33t53 44t41 47q1 2 7.5 0t6.5 -6q-3 -10 -16.5 -29
t-33.5 -41.5t-44 -45t-48 -41t-45.5 -29.5t-36.5 -9zM360 588q-29 -5 -59.5 -38.5t-60.5 -84t-57.5 -112t-49.5 -122.5q84 64 132 128.5t71 115.5t26.5 82.5t-2.5 30.5z" />
    <glyph glyph-name="i.alt" horiz-adv-x="220" 
d="M230 413q3 -15 -4 -29t-18 -25.5t-22.5 -18.5t-15.5 -7q-6 2 -10 11.5t-5.5 20.5t-0.5 20.5t4 12.5l8.5 14t14.5 15t21.5 4t27.5 -18zM84 249q16 10 32.5 11t27 -5.5t13 -18.5t-9.5 -28q-14 -19 -27 -46t-22 -52t-11.5 -44.5t3.5 -23.5q12 0 32 12t42.5 30.5l46 39.5
l42.5 38t31 26.5t13 5.5q1 -9 -11.5 -26.5t-33 -40t-46.5 -46.5t-51.5 -45t-48 -35.5t-35.5 -18.5q-7 -2 -16 -1t-17.5 6.5t-15 16t-9.5 27.5q-4 32 10 86t61 132z" />
    <glyph glyph-name="j.alt" horiz-adv-x="227" 
d="M1 -9l45.5 133.5l25 75t11 33.5t2.5 9q6 19 18.5 20.5t24 -8t18 -25.5t1.5 -31q-9 -29 -22 -64l-27 -74q8 7 25.5 21t39.5 30l46 32.5l45 30t36 22t20 8.5t5.5 -6t-1.5 -8q-18 -15 -54.5 -41t-77.5 -59t-79 -72t-59 -81q-26 -67 -55 -118.5t-55 -86t-46.5 -52.5
t-30.5 -18q-5 0 -11.5 5.5t-11.5 15t-8 22.5t-1 27q2 17 19.5 49t42.5 67.5t52.5 68t48.5 51.5q5 3 8 10.5zM248 436q-4 -15 -15 -32.5t-23 -32.5t-22.5 -23.5t-12.5 -4.5q-9 8 -11.5 30.5t2 46t15.5 42t29 18.5q4 0 10.5 -4t13 -10.5t11 -14.5t3.5 -15z" />
    <glyph glyph-name="k.alt" horiz-adv-x="383" 
d="M265 170l-45.5 -25.5t-43.5 -34.5q-3 -36 13 -51t40 -16.5t51 6t46 18.5q22 12 43 29t38.5 35t32 35t23.5 31q1 3 7.5 0.5t6.5 -5.5q-8 -22 -31 -54t-51.5 -63t-58 -56.5t-51.5 -34.5q-27 -11 -49.5 -7t-40 18.5t-29 37t-15.5 48.5q-28 -33 -49 -66.5t-32 -59.5
q-4 -12 -18.5 -13.5t-28.5 5t-23.5 21t-4.5 35.5q2 17 9.5 50.5t20 78t29.5 96t39 103t47.5 100.5t55.5 89q34 45 77.5 75t85.5 29q23 -1 39 -11.5t23.5 -28t5 -41t-16.5 -50.5q-20 -37 -51.5 -77.5t-69 -78t-77 -68.5t-76.5 -50q-20 -57 -30.5 -95.5t-15.5 -65.5
q4 10 17 28.5t31 40.5l38.5 45l39 42t33 30.5t21.5 11.5q11 -1 16 -12t4.5 -25.5t-7 -28t-18.5 -20.5zM380 556q4 24 -7 25t-29 -11.5t-40 -35.5t-38 -47q-33 -50 -62 -107.5t-53 -120.5q33 26 70.5 61t70.5 74.5t57 81t31 80.5z" />
    <glyph glyph-name="l.alt" horiz-adv-x="281" 
d="M155 -23q16 12 38 31.5t49.5 49.5t60 72t70.5 99q3 3 9 0t5 -6q-4 -12 -21.5 -43.5t-43 -70t-57 -79t-65 -70t-66 -42.5t-59.5 3q-39 22 -52.5 68t-8 105t26.5 124t52 126t69 111.5t76 79.5q19 13 39 12.5t35.5 -11t24 -28.5t5.5 -40q-5 -33 -26 -70.5t-53 -75.5
t-72 -73.5t-82 -65.5q-12 -45 -17.5 -91t-2 -78.5t19 -45t46.5 8.5zM120 222q80 75 120.5 132t55 91.5t8 45.5t-21.5 -6q-52 -61 -95 -127t-67 -136z" />
    <glyph glyph-name="m.alt" horiz-adv-x="500" 
d="M97 123l31 43.5t42 56t42 48t32 20.5q7 0 14.5 -5t13.5 -13.5t8 -18.5t-1 -21q-6 -21 -14 -44.5t-14.5 -45t-12 -38t-6.5 -22.5q-1 -3 3 -3l29 50.5l31.5 52.5t30 44.5t24.5 25.5q20 13 34.5 9.5t22.5 -15t10.5 -27.5t-1.5 -29l-19 -61.5t-19 -67t-10 -53.5t8 -22
q9 0 25.5 14t37 35t42.5 46.5l41.5 49l34 42t20.5 25.5q6 4 14.5 2.5t6.5 -6.5q-1 -6 -18.5 -31.5t-43 -59l-54.5 -69t-54 -60.5q-11 -11 -24.5 -21.5t-27.5 -15.5t-29 -3.5t-29 13.5q-16 15 -18.5 41t3 57t14.5 64l17 63q0 2 -1.5 6t-3.5 2q-17 -23 -35 -56l-36 -64
t-33.5 -52t-25.5 -18q-4 -2 -11.5 1t-14.5 11t-11 20t0 29q2 8 10 35.5l17 58.5l16.5 57t9.5 32q-19 -21 -39.5 -49.5t-39.5 -60t-36 -64t-28 -60.5q-5 -13 -15 -19t-18 -6q-5 3 -13.5 5t-16 6t-12 9.5t-1.5 16.5q9 40 22 79.5t26 72.5l23.5 57.5l15.5 35.5q7 16 19 19
t23.5 -1t20 -10t7.5 -7q-19 -38 -31.5 -68.5t-24.5 -67.5z" />
    <glyph glyph-name="n.alt" horiz-adv-x="391" 
d="M254 -57q-29 0 -42 17t-15.5 42.5t3 56.5t14 60.5t17.5 53.5t13 36q1 2 -2 4.5t-6 -1.5q-50 -50 -86.5 -102.5t-62.5 -105.5q-20 1 -35.5 2.5t-25 6.5t-12 15t2.5 28q8 19 18 50t19 63t14.5 60.5t4.5 43.5q0 4 5 8.5t13 7.5t16 5t14 2q26 0 32.5 -8.5t-1.5 -37.5
q-9 -30 -27 -72t-30 -85q9 9 23 27l32 40.5l38.5 46t41 43t40.5 32t38 12.5q9 0 14 -6t7 -14.5t1.5 -17.5t-2.5 -15q-1 -4 -8 -22.5t-16 -45l-18.5 -56t-15.5 -54.5t-6.5 -41.5t9.5 -16.5q7 0 20.5 10.5t31 27.5t36.5 38l37.5 41.5l33.5 38l24 28.5q3 3 11 4.5t7 -0.5
q-3 -9 -17 -31t-34.5 -49.5l-44.5 -57.5t-47.5 -55t-44 -41t-32.5 -16z" />
    <glyph glyph-name="o.alt" 
d="M47 -53q-35 9 -48 38.5t-10 65.5t18 72t35 59q8 6 17.5 7.5t16.5 -1.5q7 26 21 46t33 22q24 4 37.5 -8.5t19 -35t3.5 -52t-11 -58.5q19 5 41 15.5t45.5 23.5t46 27.5t43.5 29.5q2 -2 2.5 -6.5t0.5 -7.5q-21 -20 -45 -39.5t-48.5 -36t-49.5 -27.5t-48 -14
q-8 -19 -19.5 -40t-26.5 -39t-33.5 -29.5t-40.5 -11.5zM131 68q-20 6 -30.5 18t-14.5 22q-24 -46 -25.5 -73t9.5 -33t28.5 9.5t32.5 56.5zM143 97q9 22 12 49t0.5 47t-10.5 27t-22 -11q-9 -13 -13.5 -31t-3 -35.5t10 -30.5t26.5 -15z" />
    <glyph glyph-name="p.alt" horiz-adv-x="392" 
d="M141 59q12 -16 30 -7.5t37.5 31.5t38.5 54.5t33.5 61t22.5 51.5t5 26q-5 7 -24.5 -4.5t-51 -44t-73 -86.5t-89.5 -132q-31 -73 -54.5 -142t-27.5 -120q-6 -19 -17 -17q-6 2 -14 9.5t-11 22.5q-4 18 -0.5 48t11.5 66.5t20 77t25 80t26 75l23 63t16.5 43.5t5.5 16
q19 0 34 -2.5t24.5 -9t11.5 -19t-5 -32.5q33 45 63.5 76t56.5 50t46.5 26t33.5 4q24 -7 29.5 -36t-3.5 -67t-30.5 -79.5t-50 -73.5t-62.5 -47.5t-68 -2.5q-16 6 -27 22q-11 17 -2 23.5t17 -4.5z" />
    <glyph glyph-name="q.alt" horiz-adv-x="373" 
d="M238 50q25 5 53 21t55 36.5t51.5 42.5l43 39.5t30 27.5t12.5 7q3 -13 -19 -42.5t-57.5 -63t-77.5 -64t-79 -45.5q12 -60 5 -130.5t-27 -134t-49.5 -111t-63.5 -60.5q-19 -8 -34.5 -6t-29.5 20q-21 29 -17 82.5t22 117t44 128.5l48 117l10 24l10 23q-11 -15 -25 -31
t-27.5 -29.5t-25.5 -22t-21 -8.5q-12 0 -24 4t-21.5 12t-14.5 21t-1 31q9 47 27 89t41 75t49 55t51 27t46 -8t35 -49l14 -4t12 -6.5t6.5 -12t-4.5 -18.5q-7 -12 -23.5 -47t-34.5 -83q6 -10 11 -24zM111 -298q-8 -52 -2 -66q5 -14 18 -4.5t28.5 35.5t31 65.5t26 84.5t13 92.5
t-8.5 90.5q-5 -2 -9.5 -2h-9.5q-30 -83 -53.5 -160t-33.5 -136zM230 250q-12 10 -29 -1.5t-35 -34.5t-35.5 -53t-29 -56.5t-16 -44t2.5 -16.5q13 2 33.5 24.5t42 52.5t41 60.5l31.5 48.5q-1 6 -2.5 12t-3.5 8z" />
    <glyph glyph-name="r.alt" horiz-adv-x="229" 
d="M85 -41q-8 9 -17 23t-11 36t8.5 51.5t42.5 70.5q11 16 33 40q-4 -1 -11.5 -3.5t-18 -5t-23 -2.5t-25.5 3q-46 12 -61 36t-6 48t38 42.5t71 18.5q19 0 26.5 -10t6 -26t-11.5 -37t-25 -43q18 1 36.5 3.5t34 4t26.5 -0.5t13 -9q-21 -26 -38 -58t-28 -64.5t-16.5 -63
t-3.5 -52.5q1 -9 -1 -15t-7 -7.5t-13 3t-19 17.5zM88 258q2 13 -4 18t-15 2.5t-18 -12t-13 -25.5q1 -17 8.5 -25.5t21.5 -11.5q7 13 12.5 28t7.5 26z" />
    <glyph glyph-name="s.alt" horiz-adv-x="205" 
d="M113 62q1 -25 -6.5 -55t-27 -55.5t-53 -42.5t-83.5 -17q-5 1 -5 13.5t12 14.5q30 1 47 15t24.5 36t9 49t0.5 54q-2 50 6 95.5t28 77t52 44.5t78 -1q13 -5 11 -14.5t-13 -10.5q-30 -1 -47.5 -15t-26 -40t-9 -63t2.5 -85z" />
    <glyph glyph-name="t.alt" horiz-adv-x="251" 
d="M346 220q1 2 5.5 2t9 -1.5t8 -3.5t3.5 -3q-5 -12 -30.5 -45t-61 -71t-75.5 -73t-74 -52q-30 -15 -51 -6t-33 31t-15.5 49.5t1.5 49.5q12 61 43 139.5t76 156.5q-63 -8 -117.5 -18.5t-96.5 -27.5q-11 -5 -13.5 2t0.5 18t10.5 22.5t16.5 14.5q43 14 101 25t128 16
q14 23 29 44.5t31 39.5q18 0 28 -6.5t12.5 -18t-1 -26t-11.5 -29.5q57 0 118 -4t115 -15q6 -2 9 -10t-6 -16q-18 4 -50 5.5t-69.5 1t-76.5 -3t-69 -6.5q-5 -5 -8 -11q-32 -53 -58.5 -113t-42 -112t-19 -88.5t9.5 -43.5t43 9.5t63.5 45.5t66 65t51.5 67z" />
    <glyph glyph-name="u.alt" horiz-adv-x="420" 
d="M103 252q12 13 25 11t24.5 -10.5t18.5 -18t6 -10.5q-20 -29 -37 -61.5t-27 -58.5t-10 -41t13 -9q4 2 19.5 20t37.5 47.5t48.5 69t53.5 86.5q13 13 27 11.5t26 -9t19 -17t5 -13.5q-18 -44 -30 -83t-17 -67.5t-1 -45t18 -16.5q13 0 30.5 12.5t37.5 31t40 41l37.5 43.5
l30 36.5t18.5 21.5q8 5 10.5 2.5t0.5 -7.5q-4 -11 -18.5 -34.5t-35 -52t-45.5 -57.5t-50.5 -51t-50 -32t-44.5 -1q-25 12 -35.5 32t-10.5 47t7.5 61t19.5 74q-7 -18 -27.5 -51.5t-46.5 -69.5t-54.5 -67.5t-50.5 -45.5q-19 -12 -34 -1t-20 33q-5 21 -2 52t13 65.5t25.5 69
t35.5 63.5z" />
    <glyph glyph-name="v.alt" horiz-adv-x="328" 
d="M198 196q-20 34 -19.5 63.5t27.5 60.5q20 3 30 -6.5t14.5 -25t4.5 -33.5t1 -32q1 -24 21.5 -34.5t47 -11t54 6t42.5 16.5q8 -8 9 -12t-6 -8q-13 -9 -38 -18.5t-53.5 -13.5t-56 0.5t-44.5 24.5l-49 -97t-50 -85t-49 -56t-45 -10q-14 6 -21 27.5t-8.5 51t1.5 64t9.5 66
t15.5 57t19 38.5q17 20 33 19.5t26.5 -11.5t14 -26.5t-3.5 -25.5q-13 -18 -24 -45t-17.5 -55t-8 -52t4.5 -35q22 18 40.5 44t33.5 54t26 55z" />
    <glyph glyph-name="w.alt" horiz-adv-x="501" 
d="M368 192q-5 6 -7.5 23t-2.5 37.5t4.5 39.5t14.5 29q21 4 31 -5t14.5 -25t5 -35t1.5 -33q4 -18 24.5 -27.5t46.5 -12t52.5 2t41.5 14.5q8 -8 8.5 -10.5t-6.5 -6.5q-13 -9 -37 -17t-52 -10.5t-54.5 3t-43.5 25.5q-17 -63 -42.5 -113.5t-53.5 -85t-55 -50.5t-46 -10
q-12 4 -19 17.5t-10 34t-2.5 45.5t3.5 52q-14 -24 -32 -51t-37.5 -46t-40 -24t-39.5 14q-18 28 -17 69t13 83t31 80.5t37 62.5q7 9 21.5 13t28.5 2t23.5 -9.5t7.5 -20.5q-4 -9 -11 -23.5t-18 -25.5q-6 -5 -11.5 -13.5t-8.5 -14.5q-17 -30 -27.5 -58.5t-15.5 -50.5t-6.5 -37
t0.5 -18q3 -5 15 6.5t28.5 33t35.5 51.5t36 62q6 26 14 43t17 27q17 18 31.5 17t24 -11t11.5 -25t-5 -26q-13 -19 -22.5 -43t-15.5 -48.5t-8.5 -48t-1.5 -40.5q2 -9 1 -14.5t1 -9.5q20 18 38.5 44t34 55t28.5 58t23 55z" />
    <glyph glyph-name="x.alt" horiz-adv-x="317" 
d="M0 -114q-6 -3 -16 0.5t-17.5 10t-10.5 15t3 17.5l15 14q44 74 62.5 135.5t24.5 105.5l-4 33l-4 35q-2 16 13 22.5t33 5.5t31.5 -9t9.5 -20q-2 -26 -2.5 -46t0 -35.5t1.5 -29.5l2 -28l43 43.5l33.5 33.5t31 28.5l34.5 29.5q20 -5 24 -8t-10 -17l-63 -63.5l-87 -90.5
q7 -36 20 -49t30 -9.5t38.5 21t46 43.5t51 57t55.5 61q6 7 13.5 10.5t12.5 2.5t5 -7t-9 -17q-75 -92 -128 -145.5t-89.5 -73t-59.5 -6t-38 57.5q-32 -35 -56 -69.5t-39 -58.5zM68 133q-8 -34 -18 -69t-22 -66l29 28.5t26 26.5q-7 33 -15 80z" />
    <glyph glyph-name="y.alt" horiz-adv-x="339" 
d="M-174 -225q19 -34 51 -41t70 9t79.5 53.5t79.5 93t69.5 128t51.5 157.5q-7 -13 -20.5 -34.5t-31.5 -46.5t-38 -49.5t-39 -42.5t-35.5 -27t-27.5 -2q-22 4 -27 33.5t1.5 69.5t22 84t36.5 78q9 12 20 18.5t21.5 8t19 -0.5t13.5 -6q6 -5 -0.5 -22.5t-17 -38t-21 -38.5
t-11.5 -23q-13 -34 -15.5 -64t2.5 -42l37.5 43t43.5 55.5t43.5 65t38.5 71.5q8 15 18 20t20 4.5t17.5 -4.5t10.5 -6q-9 -47 -21.5 -97.5t-28 -102t-34 -101.5t-40.5 -96q-20 -42 -46.5 -79.5t-57 -66.5t-64.5 -47t-68.5 -19.5t-68.5 15.5t-65 58q-12 15 -14 26.5t1.5 16.5
t10.5 2.5t14 -13.5z" />
    <glyph glyph-name="z.alt" horiz-adv-x="300" 
d="M67 -25q-21 -11 -40.5 -4t-22.5 41q-1 13 10 27.5t33.5 35.5l56.5 50.5t79 72.5q-12 -5 -28 -9.5t-32 -7.5t-29 -3t-18 4q-19 13 -15 33.5t18 41t32 38t28 24.5q7 6 11 3.5t5.5 -8.5t1.5 -13.5v-11.5q-2 -18 -9 -38.5t-17 -35.5q16 2 35.5 5.5t41.5 13.5q17 8 22.5 -5
t-3.5 -30q-11 -14 -32 -35.5l-43.5 -45.5l-43.5 -47.5t-31 -40.5q29 18 61 32.5t64 16.5q30 2 42 -16.5t13 -40.5q2 -23 -10 -56t-34.5 -68t-53 -69t-66 -60.5t-74.5 -42t-77 -13.5q-7 0 -12 3.5t-6.5 8t1.5 8.5t11 5q22 3 51 23t59.5 50t59 64.5t49 66.5t29.5 56t1 32.5
t-36 -3.5t-82 -52z" />
    <glyph glyph-name="A.salt" horiz-adv-x="534" 
d="M-68 -23q-14 4 -30 14.5t-28.5 24t-19 27t-1.5 24.5q9 17 35 30t62 23.5t79 18t86 13.5q33 49 68.5 96.5t72.5 90t73 78t70 59.5q21 15 38.5 24t33.5 9t31 -10.5t32 -34.5q10 -15 6 -46.5t-17.5 -73.5t-33.5 -91.5l-41 -100.5l22 -6q7 -3 7.5 -7.5t-3 -8.5t-10.5 -5.5
t-13 0.5l-13 2q-18 -45 -33.5 -89t-25.5 -82.5t-11.5 -69.5t9.5 -51q5 -10 13 -10t16.5 5.5t18 15.5t17.5 21q7 9 10.5 8t4 -7t-2 -15t-6.5 -17q-17 -29 -35.5 -42t-36.5 -14t-33.5 8t-25.5 23q-20 29 -24 65t2 77t21 86t34 92q-43 -1 -84 -4.5t-95 -13.5q-28 -46 -52.5 -93
t-44 -89.5t-32 -79.5t-16.5 -62q-2 -17 -13 -16.5t-23 11.5t-20.5 30t-5.5 39q13 48 43 110.5t72 131.5q-50 -12 -84 -24t-57 -26q-16 -11 -17 -18.5t5 -14t16 -12t15 -12.5q4 -6 3 -9t-5.5 -4t-10.5 -0.5t-12 2.5zM447 373q2 6 5 16l6 21t4.5 22.5t1.5 20.5t-3.5 11.5
t-8.5 1.5t-11 -4t-10 -6q-24 -17 -52 -47.5t-57.5 -69.5t-60.5 -85l-62 -95q52 4 89.5 4t72.5 -1l45.5 107t40.5 104z" />
    <glyph glyph-name="B.salt" horiz-adv-x="733" 
d="M-22 454q30 19 64.5 31t68.5 14t65 -7t55 -33q30 -31 30 -82t-19 -113q64 85 133 141t130.5 79.5t111 14.5t76.5 -52q22 -39 8 -74t-52.5 -66.5t-96 -60t-121.5 -54.5q41 -5 86.5 -18t74.5 -37q54 22 107.5 36.5t105.5 18.5q6 0 8 -2.5t1 -6.5t-3.5 -8t-4.5 -6
q-49 -7 -97 -21.5t-95 -34.5q2 -4 3.5 -7.5t3.5 -7.5q11 -63 -41 -129.5t-163 -127.5q-20 -11 -46 -20.5t-52.5 -13.5t-51 -1.5t-41.5 15.5q-9 7 -16 18.5t-8 25.5t4.5 30t21.5 32q42 42 126 92.5t191 97.5q-20 16 -61 29t-104 21q-30 -17 -53.5 -19.5t-35 6t-8.5 25.5
t26 38l18.5 -5t16.5 -6q63 24 122 58t101 68t61 63t4 43q-17 15 -63.5 7.5t-108.5 -43.5t-132.5 -103.5t-135.5 -172.5l-35.5 -80l-35 -77.5t-29.5 -72.5t-20 -65q-3 -14 -17 -30.5t-29 -23t-26.5 4t-11.5 51.5q6 35 26 84.5t45.5 105l52 114.5t43.5 113.5t20 100t-17 75.5
q-14 16 -39 20.5t-54 0.5t-57.5 -15t-50.5 -26q-5 -3 -14.5 -3.5t-12 4.5t6.5 16t41 31zM355 -102q30 15 66.5 39t68.5 51t53 54t20 48q-90 -44 -154 -89.5t-94 -77t-22 -42t62 16.5z" />
    <glyph glyph-name="C.salt" horiz-adv-x="633" 
d="M411 407q-57 -25 -113 -70t-102.5 -98.5t-79.5 -108.5t-42 -99q-6 -27 -4.5 -52t12 -44t29.5 -31.5t49 -14.5q36 -3 81 10t94.5 36.5t101 55t99 65t89.5 67t73 61.5q6 5 12 5t10 -2.5t6 -6.5t-1 -7l-64.5 -58t-85.5 -71.5t-100 -74.5t-107 -67.5t-106 -51t-97 -23.5
q-50 -4 -87 12.5t-59.5 46.5t-30 69.5t0.5 82.5q7 41 28 87.5t51.5 92.5t70 89.5t83 79t90.5 60.5t93 34q27 6 57 5.5t56 -8t44 -22t20 -38.5q4 -42 -23.5 -87.5t-69 -86t-88.5 -71.5t-83 -43q-14 -5 -23.5 -4t-12 5.5t3.5 11t24 14.5q19 8 44 26.5t50.5 42.5t50 51
t42.5 52.5t27.5 48t5.5 37.5q-2 10 -13.5 13t-28.5 1.5t-37.5 -7.5t-39.5 -15z" />
    <glyph glyph-name="D.salt" horiz-adv-x="661" 
d="M-22 454q30 19 64.5 31t68.5 14t65 -7t55 -33q26 -26 29 -68t-9 -93q27 37 57 69.5t63 55.5t67 33.5t69 3.5q37 -8 58 -39.5t26.5 -78.5t-6 -105t-39.5 -119q77 19 157 30q6 0 7.5 -3t0.5 -7.5t-3.5 -9t-3.5 -7.5q-47 -7 -90.5 -17t-85.5 -23q-26 -45 -62.5 -92
t-81 -85.5t-93.5 -64t-98 -26.5q-32 -2 -48.5 8.5t-19.5 28.5t7.5 41t34.5 47q43 43 108.5 79.5t160.5 67.5q56 112 69 194t-7 119q-15 28 -47.5 20t-74 -43.5t-87.5 -93.5t-88 -131l-37 -86l-36.5 -84.5l-32.5 -79t-24 -69.5q-7 -23 -22 -36.5t-30 -13.5t-25.5 15.5
t-8.5 51.5q5 35 25.5 83t46.5 102.5l52 111.5t43.5 109.5t20.5 97t-17 74.5q-14 16 -39 20.5t-53 0.5t-56.5 -15t-50.5 -26q-5 -3 -14.5 -3.5t-12 4.5t6.5 16t41 31zM213 -118q12 2 33 13.5t46 31t53 47t55 62.5q-70 -32 -115 -61.5t-67.5 -51.5t-23.5 -33.5t19 -7.5z" />
    <glyph glyph-name="E.salt" horiz-adv-x="559" 
d="M596 453q2 -15 -5 -31t-20 -30t-29.5 -25t-33.5 -15q-9 -2 -16 -1t-10 4t-1.5 7.5t9.5 9.5q15 6 28 17t22.5 22.5t15 22t5.5 15.5q1 30 -31 40t-81 3.5t-106.5 -25.5t-106 -46t-80.5 -59t-30 -64q2 -25 19.5 -40t42 -24.5t51.5 -15t48 -10.5q17 -6 28 -16.5t15.5 -23.5
t4 -26t-6.5 -24q-7 -13 -30 -35.5l-51 -48.5l-55.5 -53.5t-43 -50t-14 -38t31.5 -17.5q27 -2 61 7t70 25.5t71.5 37.5t66.5 43q18 13 38.5 29.5l41.5 34.5t40 37t34 37q11 10 15.5 3t-0.5 -13q-12 -17 -28.5 -37t-35.5 -40.5l-38.5 -40t-38.5 -35.5l-69.5 -57t-68.5 -47
t-73.5 -33t-83.5 -15q-26 -2 -51.5 4.5t-44.5 19.5t-29 31t-4 39q6 26 25.5 52t45 51t53 48l51 43.5t38.5 37t15 28.5q-5 7 -20 14t-35 13.5l-43 14t-44 15.5q-29 12 -45 31.5t-20 43t3 49.5t24 51q26 37 72 70t100.5 56.5t111.5 35t105 5.5t81 -32.5t39 -78.5z" />
    <glyph glyph-name="F.salt" horiz-adv-x="575" 
d="M-40 244q28 58 68 108.5t87.5 89t99.5 62t104 29.5q77 8 120.5 -13.5t60.5 -64t10.5 -103t-28.5 -129.5q14 -5 27.5 -12.5t24.5 -15.5q6 -5 4 -9t-8 -7t-14.5 -4t-14.5 0q-9 1 -17 1.5t-16 0.5q-28 -76 -66 -153t-75.5 -143t-69 -115.5t-46.5 -70.5q-11 -9 -20 -11
t-15 1.5t-8 12t3 20.5q11 16 34.5 61.5t52.5 107.5l61 135t60 146q-44 -11 -85.5 -37.5t-72.5 -78.5q-1 -2 -7.5 -7t-12.5 -6t-9 6t3 29q13 29 33 55.5t46 47.5t57 34.5t67 16.5q5 18 14 46.5t16.5 60t11 62.5t-2.5 54.5t-24 34.5t-53 4q-45 -10 -99 -37.5t-105.5 -65
t-96 -81.5t-71.5 -86q-10 -16 -19 -21.5t-14.5 -2t-4.5 15.5t10 32z" />
    <glyph glyph-name="G.salt" horiz-adv-x="502" 
d="M427 155q-3 -24 -9 -54t-15.5 -64.5t-22.5 -71.5t-29 -73q68 -5 128 -22t99 -53q7 -7 8 -14t-1 -12t-6.5 -6.5t-9.5 3.5q-13 11 -28.5 21.5t-40.5 19.5t-64.5 15.5t-100.5 11.5q-18 -37 -39.5 -71t-46.5 -63t-52.5 -51.5t-58.5 -35.5q-50 -21 -103 -20.5t-96 15
t-70.5 40.5t-28 56.5t32 62t110.5 58.5q28 10 65 18.5t77.5 14.5t82.5 9.5t81 3.5q33 57 57 116t35 114q-25 -27 -54 -54.5t-59 -51.5t-58.5 -43t-53.5 -30q-23 -10 -47 -13t-45 1t-37 13.5t-25 25.5q-32 56 -21.5 123.5t49 135t96.5 129t122 106t125.5 65t106.5 6.5
q22 -7 30.5 -28t2.5 -47t-26.5 -52.5t-56.5 -44.5q-13 -7 -23.5 -9t-15.5 0.5t-1.5 9.5t19.5 18q20 13 32 28.5t16.5 29t3 23t-7.5 10.5q-32 6 -77.5 -16t-94 -61t-94 -90.5t-78 -104.5t-47 -102t-0.5 -83q11 -25 40 -28.5t67 10.5q24 12 53.5 33.5t60 47l60 52l53.5 49.5
q9 8 15 7t9.5 -6.5t5 -13.5t1.5 -13zM-67 -242q-35 -25 -33.5 -46t27.5 -32q42 -19 88.5 -9t91.5 37t85.5 66t71.5 79q-45 -6 -91 -14t-89.5 -19.5t-82 -26.5t-68.5 -35z" />
    <glyph glyph-name="H.salt" horiz-adv-x="616" 
d="M-81 -8q-23 58 48 101t235 71q20 50 33 93.5t21 84.5q15 83 2.5 118.5t-43 37.5t-74 -22.5t-89 -62.5t-88.5 -82.5t-72 -81.5q-6 -6 -11.5 -7t-9 4t-3.5 15.5t6 26.5q13 34 37.5 73.5t56.5 75t70.5 63t79.5 39t83 2t82 -48.5q46 -45 47.5 -128.5t-36.5 -186.5
q42 6 72 8.5t66 3.5q31 72 74.5 145.5t105.5 147.5q16 20 32 30.5t25.5 10t9.5 -11.5t-16 -35q-40 -58 -81.5 -131.5t-76.5 -155.5q13 -1 24 -1.5t21 -2.5q24 -2 24.5 -12t-31.5 -13l-51 -2q-37 -92 -59.5 -186t-20.5 -179q2 -18 -9 -20.5t-24.5 5t-25.5 23.5t-12 36
q-2 42 16 124.5t60 187.5q-22 -2 -40 -4t-34.5 -4.5t-33 -6l-35.5 -7.5q-30 -70 -67.5 -139t-74 -128t-68 -102.5t-49.5 -62.5q-11 -9 -20.5 -11t-15.5 1.5t-7.5 12t3.5 20.5q10 15 32.5 52.5t51 90l60 116t59.5 128.5q-51 -15 -90.5 -32.5t-64.5 -34.5t-34.5 -32.5
t0.5 -26.5q4 -4 18 -11.5t29 -2.5q6 1 9 -1.5t3 -7t-4.5 -9.5t-14.5 -8q-19 -6 -37.5 -2.5t-33.5 12t-25.5 20.5t-13.5 23z" />
    <glyph glyph-name="I.salt" horiz-adv-x="495" 
d="M-178 -338q-17 -6 -22.5 -2.5t-4.5 10.5t6.5 14.5t10.5 10.5l68.5 34.5t79 46t84.5 59t84 72.5q-27 54 -33.5 117t4 128t36.5 129.5t63 122.5t83.5 106.5t98.5 81.5q24 15 48.5 21t45.5 2t36.5 -18.5t21.5 -39.5q10 -38 2.5 -87.5t-28 -106.5t-52.5 -118.5t-73 -121.5
t-89 -117.5t-100 -105.5q24 -34 63 -52.5t85 -10.5q13 2 20.5 -0.5t7.5 -8t-7 -11.5t-22 -10q-28 -8 -55 -6t-51 10t-44 22.5t-35 32.5q-75 -69 -156.5 -121.5t-175.5 -82.5zM169 -52q97 121 161 218t100 171t48.5 125.5t8.5 82.5q-5 35 -29 34t-58 -33q-25 -24 -54.5 -64.5
t-59 -91.5t-55 -108.5t-43 -116t-23.5 -114.5t4 -103z" />
    <glyph glyph-name="J.salt" horiz-adv-x="503" 
d="M488 385q-5 -39 -14.5 -85t-25 -96t-36.5 -102t-48 -103q42 -29 71.5 -75t28.5 -111q-1 -35 -12 -34.5t-13 30.5q-3 53 -28.5 91t-65.5 64q-33 -56 -73.5 -106t-90 -90t-109 -67t-130.5 -36q-47 -6 -80 3.5t-53 29t-27.5 46.5t-2.5 56q9 52 37.5 95.5t70 76.5t93 54.5
t105.5 30.5t108.5 4.5t101.5 -23.5q26 36 51 84t46 97.5t36.5 97.5t22.5 84q1 6 7.5 11t13.5 5.5t12.5 -6.5t3.5 -26zM-176 -205q-11 -42 18 -59t89 0q97 27 177.5 92.5t158.5 170.5q-41 10 -87 9t-92.5 -11.5t-90 -29t-79 -44.5t-60.5 -58.5t-34 -69.5zM40 267
q-2 -15 -11.5 -15t-12.5 14q-8 36 4 70.5t35 63t53 51t59 34.5q51 22 110 33t116 11t107.5 -9.5t84.5 -27.5q18 -9 31 -21.5t17 -26.5t-1.5 -28t-24.5 -26q-23 -14 -27 -8t4 16q14 15 11.5 23.5t-22.5 17.5q-36 16 -88 22t-110 2.5t-116 -17.5t-105 -38.5t-78.5 -59.5
t-35.5 -81z" />
    <glyph glyph-name="K.salt" horiz-adv-x="718" 
d="M356 485q-28 10 -65 2.5t-77 -27.5t-80.5 -49.5t-75.5 -62t-61.5 -66.5t-39.5 -62q-10 -17 -19.5 -22.5t-14.5 -1.5t-4.5 16t11.5 32q32 60 75 116t94 98.5t109 67.5t120 23q32 -1 57.5 -18t42.5 -43.5t24 -58.5t2 -63q-6 -35 -16.5 -78t-30.5 -94q31 10 70 32.5t78 52.5
t75 64t61.5 67t38 62.5t4.5 49.5t-2.5 25.5t16.5 0.5q20 -9 29 -26.5t10 -38t-4 -41t-12 -35.5q-20 -42 -55.5 -78t-79.5 -66.5t-93.5 -54.5t-97.5 -42q45 -28 81 -61t63 -67.5t46.5 -68t31.5 -62.5q7 -17 7.5 -28.5t-2.5 -16.5t-9 -3.5t-12 10.5q-29 45 -62.5 84.5
t-69 72.5t-71.5 58t-70 40q-36 -84 -77.5 -155.5t-79.5 -113.5q-26 -29 -53.5 -37t-50.5 0.5t-38 32.5t-15 60q0 9 3.5 15.5t7.5 8.5t8 -2.5t6 -16.5q3 -37 22 -37.5t45 24.5q25 26 66 88.5t83 149.5q-35 -8 -58 -6t-23 8q-1 15 7.5 29t19.5 24t20.5 16.5t10.5 6.5
q14 2 26.5 -1t23.5 -8q16 39 29.5 83.5t18.5 84t0.5 69t-24.5 38.5z" />
    <glyph glyph-name="L.salt" horiz-adv-x="428" 
d="M-85 -133q0 16 7.5 28.5t19.5 22.5t26.5 17t27.5 12l50 102t60.5 119t70 119.5t78 104t84 72.5t88.5 25q21 -1 31.5 -13.5t13.5 -30.5t-0.5 -40t-9.5 -43t-14 -38.5t-14 -26.5t-12 -11t-9.5 0.5t-4.5 8t2 10.5q6 8 10.5 24t7 32.5t2.5 31t-3 19.5q-5 9 -16 7.5
t-25.5 -10.5t-31 -23.5t-32.5 -30.5t-30 -32l-23 -27q-58 -76 -112.5 -163.5t-95.5 -170.5q56 11 121.5 8.5t129 -17.5t118.5 -41.5t91 -63.5q30 -31 41 -69q2 -7 -3.5 -13t-9.5 1q-8 14 -22.5 31t-31.5 28q-36 24 -92 43.5t-121 28t-134 3t-132 -31.5l-10 -26
q-8 -20 -20 -39.5t-20 -17.5q-5 1 -13.5 10t-17 21.5t-14.5 26t-6 23.5z" />
    <glyph glyph-name="M.salt" horiz-adv-x="724" 
d="M-185 288q13 34 37 73t56 74.5t70.5 63t79.5 38.5t83.5 2t82.5 -47q26 -25 33.5 -76.5t-8.5 -117.5q45 63 84 108t68 60q10 6 22 2.5t21.5 -11.5t14.5 -18t2 -17q-20 -39 -37 -87.5t-30.5 -101t-22.5 -106t-13 -101.5l28 50l47 78.5l51 79.5t53 73.5t52 59.5
q12 12 26.5 24t30.5 20.5t33 12.5t34 1q25 -5 31 -25t-2 -48q-8 -29 -23 -66l-33 -78.5l-36.5 -86.5t-32.5 -90t-22.5 -88.5t-5.5 -81.5q2 -18 4 -29t-3 -15q-8 -5 -29 16q-29 28 -35.5 69t1 88t26 98t39 98l39.5 88t28 69q8 22 2.5 25.5t-20.5 -11.5q-27 -29 -63 -76
t-73 -101.5t-72 -112t-59 -105.5q-8 -16 -24 -23t-32 -4.5t-28 15t-12 35.5q0 30 6 73t16.5 91t24.5 98t29 95q4 14 8.5 27t9.5 26q-33 -40 -74.5 -98.5l-85.5 -123.5q-21 -56 -46 -111t-49.5 -101.5t-46 -82.5t-34.5 -54q-15 -16 -28 -13t-21.5 15t-11 29t2.5 30
q17 45 52 103.5l79 129.5q8 15 20 46.5t23.5 70t21 80t14 78t1.5 64t-16 36.5q-19 13 -47 8t-60.5 -22.5t-66.5 -44.5t-66 -58.5t-59 -64.5t-44 -62q-10 -15 -18.5 -4t3.5 43z" />
    <glyph glyph-name="N.salt" horiz-adv-x="717" 
d="M756 482q-39 -135 -87 -246.5t-95.5 -195t-89 -135t-66.5 -66.5q-20 -12 -39.5 -15t-37 1t-32 13t-24.5 20q-22 25 -27.5 62t0 81.5t19 92.5t29 94t31 87t25.5 71l13 39.5t5 25.5t-10.5 3t-31.5 -27q-38 -38 -78 -89.5t-78.5 -108.5t-74 -116.5t-64 -113t-49 -98.5
t-29.5 -73q-7 -20 -18 -34t-18.5 -15t-8 13.5t12.5 50.5q30 82 73 175.5t94 182.5t107.5 165.5t113.5 125.5q31 26 60 25.5t47 -14.5q22 -15 26.5 -43.5t-2.5 -66.5t-22.5 -84l-33.5 -95q-17 -49 -29 -98.5t-17 -89.5t-0.5 -66t20.5 -28t45 24.5t74 91.5q36 52 74 119
t71 135t58 130.5t36 107.5q10 18 16 19.5t9 -4.5t3.5 -16.5t-0.5 -16.5z" />
    <glyph glyph-name="O.salt" horiz-adv-x="639" 
d="M716 204q6 9 13.5 11t12 -1.5t3.5 -11t-12 -18.5q-21 -23 -54 -50.5t-72 -55.5t-82 -53t-85 -42q-29 -44 -64 -81.5t-72.5 -63t-75 -36t-72.5 -0.5t-60 32.5t-39 54.5q-24 52 -25.5 117t17 133t55.5 133t90 117q37 36 86 61.5t97.5 35.5t91 2t66.5 -38q25 -32 23.5 -76.5
t-27.5 -90.5q6 -23 4 -52q-3 -47 -20.5 -97.5t-45.5 -101.5q41 20 82 46t75 50.5t58 45t32 30.5zM216 83q-5 33 4.5 74t30 81t50 74t64.5 53q45 26 83 15.5t61 -44.5q7 21 7 42q1 36 -26.5 59.5t-73.5 16t-105.5 -55t-122.5 -153.5q-38 -64 -60 -133t-25.5 -128.5t12 -101
t51.5 -50.5q21 -5 45 4.5t47.5 28.5t45.5 45t40 55q-51 0 -85.5 30t-42.5 88zM373 148q-12 -5 -17.5 3t2.5 14l37.5 26.5t27.5 22t21.5 21.5t18.5 25q9 56 -17 71.5t-74 -18.5q-24 -17 -47 -43t-40 -57t-25.5 -66.5t-3.5 -71.5q2 -18 9.5 -33.5t20.5 -26.5t32.5 -15.5
t46.5 -0.5q31 51 53 99.5t34 97.5q-17 -14 -34 -25t-45 -23z" />
    <glyph glyph-name="P.salt" horiz-adv-x="584" 
d="M131 -8q-10 -2 -19 -3t-18 -1q-5 1 -9 4.5t-5 8t2 8t12 5.5q15 3 26 5.5t26 7.5q21 53 41 112t36.5 114t28 101.5t14.5 75.5q1 19 13 31q-8 2 -16.5 2.5t-17.5 1.5q-18 6 -28 12t-9 11t13.5 7.5t39.5 0.5q32 -2 69.5 -8t74.5 -16.5t71.5 -25t58.5 -35t35.5 -46t4.5 -56.5
q-12 -54 -49 -101.5t-89 -86.5t-113.5 -68.5t-123.5 -45.5q-25 -51 -52.5 -100t-58.5 -82q-24 -27 -42 -32q-12 -3 -18.5 3t3.5 17q32 39 55 85t44 94zM350 449q1 -3 4.5 -6t2.5 -6q-3 -15 -14 -53.5t-28 -91t-41 -115t-52 -125.5q55 24 105 57.5t86.5 72t56 78t15.5 76
t-36 66t-99 47.5z" />
    <glyph glyph-name="Q.salt" horiz-adv-x="618" 
d="M535 231q-3 -41 -16.5 -84.5t-34 -85.5t-46.5 -80.5t-54 -69.5q24 -18 51.5 -36t58.5 -31.5t66 -21.5t74 -7q6 0 8.5 -4.5t0.5 -10.5t-8 -10.5t-16 -4.5q-76 2 -151 19.5t-136 55.5q-44 -36 -89 -52.5t-87 -5.5q-35 10 -60 32.5t-39 54.5q-24 52 -25.5 117t17 133
t55.5 133t90 117q37 36 86 61.5t97.5 35.5t91 2t66.5 -38q25 -32 23.5 -76.5t-27.5 -90.5q2 -12 3 -25t1 -27zM166 -168q30 -8 61 10t62 51q-36 32 -54.5 75.5t-20.5 91.5t10 97t36.5 92t59.5 76.5t79 50.5q30 12 59.5 5t51.5 -44q4 11 5 21t1 20q1 36 -26.5 59.5t-73.5 16
t-105.5 -55t-122.5 -153.5q-38 -64 -60 -133t-25.5 -128.5t12 -101t51.5 -50.5zM373 148q-12 -5 -17.5 3t2.5 14q23 15 39 27t28.5 23t22.5 22.5t21 25.5q3 50 -11.5 69t-36.5 16t-46.5 -22.5t-41.5 -44.5q-24 -36 -37 -81t-12.5 -91t14 -87.5t41.5 -69.5q34 44 66 103.5
t58 149.5q-11 -10 -20.5 -17.5t-19.5 -14t-22 -12.5t-28 -13z" />
    <glyph glyph-name="R.salt" horiz-adv-x="580" 
d="M259 423q3 22 19.5 32.5t34.5 11.5t31.5 -8t10.5 -27q-2 -14 -10.5 -45.5t-22 -75t-32.5 -96.5t-41 -108q51 26 94 55t76 58t55.5 57.5t32.5 54.5q15 36 1.5 65.5t-43.5 53.5t-71 43t-81 33q-18 6 -27.5 14t-8.5 14.5t13.5 8t38.5 -5.5q44 -12 95.5 -32t93.5 -48t66 -65
t13 -84q-8 -37 -39 -73.5t-77 -71.5t-103 -66.5t-117 -58.5q52 -62 122 -105.5t143 -70.5t140.5 -37.5t114.5 -5.5q25 -11 19 -19t-29 -12q-43 -6 -94 -5.5t-104 8.5t-105.5 24.5t-99.5 43t-86 64t-65 86.5q-31 -65 -60 -115t-66 -99q-9 -11 -20 -19t-19 -10
q-12 -3 -17.5 2.5t3.5 16.5q25 32 50.5 82.5t49 109.5t44 122t36.5 121t26.5 105.5t14.5 76.5z" />
    <glyph glyph-name="S.salt" horiz-adv-x="482" 
d="M101 150q12 6 22 8t14.5 -1t0.5 -10t-20 -17q-66 -42 -100.5 -87.5t-42.5 -81.5t9.5 -56.5t55.5 -12.5q23 5 53.5 20.5t62 37.5t61 48.5t50.5 52.5q34 42 39 73.5t-9.5 57.5t-41.5 49l-55 48q-46 39 -53.5 77.5t12 70.5t59.5 53.5t90 26.5q51 5 113 -1t129 -18
q4 0 7.5 -5t3.5 -10.5t-4.5 -11t-15.5 -6.5q-51 7 -98.5 5.5t-88 -10t-72 -22.5t-50 -31.5t-23 -37t9.5 -38.5q21 -29 48.5 -52l53 -45t45.5 -44t25.5 -49.5t-7.5 -62t-52 -80.5q-24 -28 -56.5 -52t-70 -42t-78.5 -29t-81 -13q-83 -4 -117 25.5t-24.5 75t59.5 99t137 98.5z
" />
    <glyph glyph-name="T.salt" horiz-adv-x="363" 
d="M591 480q11 2 18.5 -1t9.5 -8.5t-3 -12.5t-18 -13q-56 -23 -118 -34t-134 -14q-15 -63 -41.5 -143t-58 -158t-66.5 -144t-67 -101q-26 -28 -54 -35.5t-52 2t-40.5 33.5t-17.5 60q0 9 2.5 15.5t6.5 8.5t8.5 -2.5t6.5 -16.5q7 -35 25 -39.5t41 19.5q37 38 72 94.5t66 123.5
t58 139.5t50 143.5q-62 -1 -119 1t-104 6t-81 8.5t-48 7.5q-17 4 -21.5 17.5t2.5 27.5t23 22.5t40 2.5q30 -8 79 -16t107.5 -13.5t121.5 -8t121 -1t106.5 8.5t78.5 20z" />
    <glyph glyph-name="U.salt" horiz-adv-x="665" 
d="M-53 288q-11 -18 -0.5 -30t45.5 -12q-24 -13 -40 -17t-26 -1.5t-15 10t-6 18.5q-2 36 13 73.5t43 71.5t65 61.5t78 43.5t82.5 17.5t78.5 -16.5q46 -23 59 -66.5t5.5 -98t-29 -115.5t-46 -119.5l-45 -110t-25.5 -86.5q-2 -12 -1.5 -24.5t5 -20.5t13.5 -10.5t24 6.5
q40 23 78 60.5t73.5 83.5t68 97l61 100t51.5 93l41 76q20 27 38.5 31.5t31 -4.5t17.5 -26.5t-3 -34.5l-20.5 -37.5t-38 -75.5t-44 -100.5t-38 -113t-20 -113.5t10.5 -101q7 -23 -4.5 -24.5t-26.5 12.5q-25 24 -32.5 67.5t-2.5 95t20 106t35 101.5q-42 -69 -85.5 -130.5
t-85 -108t-80 -75t-70.5 -31.5q-46 -4 -66.5 20t-24 61.5t6.5 81t25 79.5l34 83l34.5 88t29 85.5t18 75.5t1 58.5t-21.5 33.5q-15 9 -38.5 4.5t-51.5 -18.5t-57.5 -35t-56.5 -45t-49.5 -48.5t-35.5 -45.5z" />
    <glyph glyph-name="V.salt" horiz-adv-x="591" 
d="M735 502q25 4 42.5 -9t24.5 -35.5t2 -48.5t-26 -47q-14 -17 -23 -13t-1 15q9 11 15 27.5t6 30.5t-8 20.5t-27 -1.5q-44 -22 -87 -66.5t-84 -101t-81 -119.5l-77.5 -121.5t-73.5 -107.5t-69 -76q-26 -22 -54 -22.5t-51 25.5q-13 14 -20 40.5t-5 49.5q1 28 14.5 74t31 100
l34.5 110.5t24.5 106t2 85.5t-32.5 50q-22 11 -57.5 -0.5t-76 -39.5t-82 -68.5t-74.5 -88.5q-8 -15 -16.5 -22t-13 -5t-4.5 13t8 31q13 31 33 64t45 62.5t55 53.5t63 37t68.5 12t73.5 -20q50 -26 70 -67t20 -90t-14.5 -103.5t-32.5 -106.5l-34.5 -99.5t-21.5 -82.5
q-2 -10 -2 -21t2 -19.5t7 -13.5t13 -3q29 8 63 54t72.5 111l81 139.5t87.5 140t93 111.5t97 55z" />
    <glyph glyph-name="W.salt" horiz-adv-x="825" 
d="M518 421q23 21 46 26.5t40 -3t24.5 -29t-1.5 -50.5q-8 -29 -21.5 -58t-30 -57l-33.5 -55l-32 -52l-35 -54.5t-47 -67.5q-6 -54 4.5 -79t33 -25t55 24t68.5 69q26 32 59.5 84t66.5 114t61.5 128.5t43.5 127.5q8 36 14.5 47.5t11 7.5t6.5 -20t-1 -35q-10 -74 -34 -153.5
t-58 -153.5t-75 -137t-85 -104q-38 -36 -73.5 -49t-64 -5t-47.5 35.5t-24 74.5q-20 -24 -40.5 -46t-41.5 -38.5t-41 -27t-38 -11.5q-26 -2 -50.5 12.5t-39.5 43t-17.5 70.5t16.5 96q14 42 32 87.5l35.5 90t31.5 85t19 71.5q6 42 -7 57t-51 5q-29 -8 -61 -26t-63.5 -44
t-61 -58.5t-53.5 -68.5q-8 -16 -17.5 -22.5t-15.5 -4.5t-6.5 13.5t7.5 31.5q13 31 33.5 64.5t46.5 64t57 55t65 37.5t70 12t73 -22q43 -24 50 -71t-6 -105t-38.5 -121.5l-47.5 -120.5q-39 -99 -34 -146t47 -33q35 11 72 46.5t73 80.5q2 50 11 106.5t25 110t39.5 99.5
t54.5 76zM481 157q14 21 29.5 47.5l30 53.5l27 52.5t20.5 45.5q10 26 11.5 39t-4 14t-16.5 -8.5t-25 -28.5q-14 -18 -29 -48t-30 -66t-28 -76t-23 -79z" />
    <glyph glyph-name="X.salt" horiz-adv-x="454" 
d="M587 527q27 10 48 5.5t30 -19t4.5 -36t-26.5 -45.5q-7 -7 -12.5 -9t-8.5 -0.5t-3.5 5.5t3.5 8q9 9 15.5 21t6 21t-9.5 12t-30 -6q-28 -11 -66.5 -37t-83.5 -63t-95.5 -84l-102.5 -100q20 -62 47 -120.5t55 -107.5t53.5 -85.5t42.5 -53.5q12 -11 14.5 -20.5t-2 -14
t-15 -2.5t-23.5 14q-21 20 -50 52.5t-60 75.5t-62 94.5t-58 108.5l-92.5 -98l-83.5 -93l-71.5 -85t-56.5 -73q-7 -7 -15 -5t-12.5 11.5t-3.5 25.5t13 38q18 25 48 60.5l69 78.5l85.5 91.5l97.5 99.5q-31 73 -50 151.5t-23 147.5q-2 22 13 28.5t33.5 2.5t34.5 -17t16 -31
q1 -60 12 -112t25 -109l102.5 95.5t96 81.5t84 61t67.5 36z" />
    <glyph glyph-name="Y.salt" horiz-adv-x="746" 
d="M239 97l39.5 114.5t32 111t9 91t-29.5 54.5q-20 8 -55.5 -2.5t-77 -37t-83 -67.5t-74.5 -93q-8 -15 -16.5 -21t-13.5 -4t-5 13.5t9 31.5q13 31 33 64t45 63t55 54t63 37t68.5 12t72.5 -21q41 -22 59 -57.5t20 -78.5t-8 -90t-24 -92l-15.5 -44t-13.5 -41
q-19 -54 -26 -88.5t1.5 -47t33 -1t67.5 51.5q49 45 93.5 99.5t79 107t56.5 97.5t25 71q9 21 27 27t34.5 3.5t27.5 -12t7 -19.5q-8 -20 -20.5 -64t-31.5 -102t-43.5 -124.5t-55.5 -130t-69.5 -119t-83.5 -92t-98.5 -48.5t-114.5 11q-12 11 -9 18.5t18 5.5q45 -8 84 6t72.5 43
t61.5 69t50.5 84.5t40.5 89t32 83.5l23 69l-63.5 -81.5t-70.5 -80t-71 -67t-64 -44.5q-36 -18 -63 -10.5t-42 34.5t-15.5 69.5t17.5 94.5z" />
    <glyph glyph-name="Z.salt" horiz-adv-x="589" 
d="M56 -30q32 35 76 76.5l93 84l100 84.5l97.5 78l84 64t60.5 43q-41 10 -97 16t-113.5 4.5t-110.5 -10.5t-88 -27q-16 -11 -20.5 -19t-0.5 -14t13.5 -9t20.5 -3t9 -9.5t-19 -10.5q-24 -1 -40 8t-23.5 23t-6 30.5t12.5 30.5q15 25 45.5 41t70.5 25.5t86.5 12.5t95 1t95.5 -8
t87 -15q31 -16 43 -41.5t1 -47.5q-20 -12 -53.5 -35l-75 -53.5l-88.5 -67t-93.5 -77.5t-91 -84.5t-81.5 -86.5q14 2 29.5 2h32.5q56 2 119.5 -4.5t120.5 -20.5t100 -35t57 -47q1 -3 0.5 -7.5t-4 -7t-9 -2t-14.5 7.5q-22 17 -57.5 27t-78 15.5t-89.5 6t-91 -3t-83 -9.5
t-65 -14q-16 -5 -31.5 4.5t-25.5 24.5t-11 31.5t11 27.5z" />
    <glyph glyph-name="a.salt" horiz-adv-x="498" 
d="M520 134q-12 -18 -28.5 -39.5t-36.5 -42.5t-42 -40t-44 -32q-35 -19 -69.5 -19.5t-59.5 24.5q-19 19 -30.5 56.5t-9.5 101.5q-13 -21 -30.5 -44t-36 -42.5t-36 -34t-30.5 -18.5q-29 -9 -40.5 5.5t-11.5 40.5t8.5 56.5t20.5 54.5q10 21 24 40.5t29.5 34t31 23.5t30.5 9
q6 0 16.5 -2.5t19.5 -7.5t15 -14t4 -21q1 1 10 4.5t19 4t17.5 -3t5.5 -15.5q-2 -20 -2.5 -50t3 -59.5t11.5 -53.5t23 -32q17 -9 40 -4t49.5 22.5t55.5 46t58 65.5q3 3 7 3t7 -2t4 -6.5t-2 -8.5zM195 203q0 20 -9 21.5t-22.5 -9t-29 -30t-27.5 -42t-19 -44t-4 -36.5
q12 1 29 16.5t34 37.5t30.5 45.5t17.5 40.5z" />
    <glyph glyph-name="b.salt" horiz-adv-x="377" 
d="M209 102q25 -17 61.5 -22t74.5 0.5t74 19.5t61 35q5 3 12.5 0.5t4.5 -7.5q-46 -63 -94 -83t-89.5 -16.5t-72 19.5t-42.5 25q-7 -27 -20.5 -51.5t-29.5 -42.5t-32.5 -28.5t-30.5 -9.5q-25 2 -40.5 22t-22.5 51.5t-4 71t15 81.5q15 51 39 105.5t53.5 105t61.5 94t63 72
t59 39t50 -4.5q26 -18 19.5 -54.5t-32.5 -81.5t-64.5 -92t-75 -87t-65.5 -66.5t-35 -29.5q-9 -26 -14 -55t-5 -53t4.5 -39.5t13.5 -15.5t28 21.5t39 69.5q-3 5 -9 13.5t-11 18t-7 18.5t3 17q9 16 22 18t23.5 -6.5t15.5 -27t-1 -44.5zM329 513q-60 -46 -114.5 -122.5
t-89.5 -170.5q67 62 108 115.5t63.5 93t29 62t3.5 22.5z" />
    <glyph glyph-name="c.salt" horiz-adv-x="428" 
d="M135 192q-25 -30 -35.5 -60.5t-8.5 -55.5t15.5 -42t37.5 -19q25 -2 62 8t79 30t85.5 49.5t80.5 67.5q12 12 17 12.5t6 -4.5t-2.5 -13t-9.5 -14q-44 -51 -93 -89t-97 -62.5t-92 -35.5t-76 -6q-29 4 -47.5 22t-27.5 44.5t-7.5 60t13.5 68t34.5 67.5t56.5 59q37 22 54 18.5
t16.5 -21t-16.5 -41.5t-45 -43z" />
    <glyph glyph-name="d.salt" horiz-adv-x="520" 
d="M312 -121q22 -8 53 4t62.5 33t60 46t46.5 45q7 9 10.5 8.5t4.5 -4.5t0 -9.5t-2 -6.5q-14 -26 -42 -59t-63.5 -61t-75.5 -44t-77 -6q-31 8 -52 30.5t-34.5 54.5t-19 73t-4.5 87l-27.5 -41t-31 -38t-35 -21.5t-39.5 8.5q-19 13 -23.5 40.5t2 60.5t21.5 67t34.5 60.5t40 41
t39.5 8.5q26 -7 32 -53q12 74 34.5 145t50 127t57 90t55.5 34q17 0 31.5 -8t22.5 -18q14 -18 11.5 -47.5t-16.5 -65.5t-37 -76t-49 -80t-53.5 -77.5l-49.5 -67.5q-5 -42 -6.5 -87t4.5 -85t21 -69t44 -39zM260 224q22 32 46.5 72t46 82.5t36.5 85.5t18 80q-52 -57 -91 -142
t-56 -178zM183 135q-3 32 -11.5 44.5t-15.5 11.5q-9 -1 -19 -13t-20 -29t-17 -37.5t-10 -38.5q-6 -35 2.5 -40.5t24 8t34 40t32.5 54.5z" />
    <glyph glyph-name="e.salt" horiz-adv-x="476" 
d="M98 112q-11 -60 5.5 -88t50.5 -32t80.5 10.5t95.5 38.5t94.5 53t78.5 54q14 10 20.5 11.5t8 -2.5t-2 -10.5t-10.5 -12.5q-41 -50 -98.5 -93.5t-118 -71t-118 -33.5t-97.5 18q-40 23 -56.5 63.5t-11 86t31.5 88.5t71 71q27 13 49.5 13.5t37 -10t19 -30t-5.5 -46.5
q-7 -18 -21 -32t-32 -24t-36.5 -15.5t-34.5 -6.5zM105 143q27 6 45.5 22t26.5 31t5 24t-19 2q-13 -5 -30 -22.5t-28 -56.5z" />
    <glyph glyph-name="f.salt" horiz-adv-x="532" 
d="M68 -297q-17 -1 -30.5 10.5t-24 29.5t-17 41.5t-7.5 46.5q-4 68 10.5 159.5t48.5 189t87 190.5t127 164q17 16 45.5 30.5t54 18t42 -9t9.5 -51.5q-8 -44 -36 -88.5t-63 -85.5t-72.5 -78l-65.5 -67q-4 -3 -8 -9.5t-11 -16.5q33 16 78 25t90 12.5t84.5 1t60.5 -10.5
q5 -2 4.5 -10t-7.5 -6q-25 4 -57.5 3.5t-67 -5.5t-68 -14.5t-59.5 -22t-41.5 -29t-14.5 -34.5q8 -14 11 -47.5t1 -75.5t-9 -87.5t-19.5 -84t-31 -63.5t-43.5 -26zM380 529q0 14 -13.5 8t-35 -27t-48.5 -53.5t-54 -72.5t-51 -85.5t-40 -90.5l81.5 92.5t76 93t57.5 80.5t27 55
zM62 -247q12 6 25 29t24.5 56.5t19.5 73.5t9 78.5t-6.5 71.5t-25.5 53q-10 -28 -18 -63t-14 -72.5t-10.5 -74.5t-6 -68t-1 -53.5t3.5 -30.5z" />
    <glyph glyph-name="g.salt" horiz-adv-x="644" 
d="M545 74q19 -9 16.5 -17t-16.5 -9q-40 16 -81 21.5t-80 2t-75.5 -15t-66.5 -27.5q-14 -89 -43 -175.5t-70 -155t-92.5 -111t-111.5 -42.5q-41 0 -54.5 26.5t-5 69t36.5 96.5t71.5 109t99 106t118.5 88q5 35 6 62.5t3 49.5l-29 -32.5t-39 -41t-43.5 -35t-43.5 -12.5
q-5 0 -11.5 4t-12 12.5t-8 20.5t1.5 28q6 23 19 57.5t33 66t45.5 54.5t56.5 23q11 0 24.5 -6t25.5 -16.5t20.5 -23.5t9.5 -27q2 -38 3 -76t-4 -80q75 36 154 38t143 -32zM-74 -414q26 13 52.5 39.5t52.5 61.5t50 76t44 82t35 80t23 70q-49 -33 -92 -75t-77 -85.5t-58.5 -86
t-36.5 -77t-11 -57.5t18 -28zM79 113q-6 -13 -5.5 -22t7.5 -9q11 5 28.5 20t35.5 33.5t33.5 38t22.5 33.5q0 1 -2 7.5t-5.5 14t-8 13.5t-8.5 7q-6 0 -16 -9t-23 -27t-28.5 -43.5t-30.5 -56.5z" />
    <glyph glyph-name="h.salt" horiz-adv-x="563" 
d="M243 172q13 28 -1.5 18.5t-42 -40t-60 -72t-54.5 -77.5q-7 -11 -22.5 -15t-30.5 -1t-24 14.5t-3 32.5q4 19 14.5 58.5t27.5 89.5t40 106.5t51.5 109.5t62 97.5t72.5 71.5q19 13 43 21t46.5 9.5t41 -4.5t27.5 -19.5t6 -36t-23 -54.5q-25 -40 -63.5 -80t-79 -76t-78 -64
l-59.5 -44l-12 -34l-14 -41l-13 -39t-8 -27q14 19 36.5 44.5t47.5 50.5t50.5 45t45.5 29q13 6 26 3t21.5 -11.5t11.5 -20t-3 -23.5q-16 -31 -28 -63t-20.5 -61.5t-13.5 -56t-6 -45.5q-3 -43 9.5 -62t36 -19.5t56 14t68.5 39t73.5 55t72.5 62.5q5 4 11.5 0.5t3.5 -8.5
q-32 -49 -81 -95.5t-102.5 -76t-103.5 -34t-84 30.5q-26 27 -29.5 67t5 82.5t24.5 82.5t28 67zM152 269q28 20 58 47t58 56.5t52 57.5t41 51q27 36 32 56.5t-6.5 24t-36.5 -11t-57.5 -50t-69 -93t-71.5 -138.5z" />
    <glyph glyph-name="i.salt" horiz-adv-x="365" 
d="M98 261q10 9 25 12t27 0.5t17.5 -11t-4.5 -22.5q-21 -32 -33.5 -63t-17.5 -60q-13 -64 4 -99.5t55.5 -39.5t95 24t123.5 92q13 13 20 4.5t-8 -23.5q-90 -96 -161 -129.5t-118 -21t-68 63t-13 122.5q4 32 16.5 69t39.5 82zM174 341q-11 3 -14.5 15t-2 27.5t7 31.5t11.5 28
q2 5 10.5 10t18.5 6.5t20.5 -2.5t16.5 -16q6 -11 -3.5 -25.5t-23 -29.5t-26.5 -27.5t-15 -17.5z" />
    <glyph glyph-name="j.salt" horiz-adv-x="302" 
d="M117 85q28 16 59.5 31t63 26.5t61.5 18.5t57 7q20 0 17 -10t-17 -12q-70 -12 -133.5 -39t-121.5 -63l-45.5 -134.5t-54 -134t-63 -118t-70.5 -85.5q-22 -18 -47 -28.5t-54 -11.5q-31 0 -44 24t-8 63.5t27 91t60 106.5t93 110t125 102q13 38 20 66.5t16 57.5
q2 8 -0.5 12.5t-0.5 11.5q5 19 19.5 37.5t31 28t31 6t19.5 -28.5zM-223 -413q37 21 70 62t61.5 93.5t52.5 113.5t45 124q-72 -57 -124 -122.5t-81.5 -123t-36 -99t12.5 -48.5zM167 337q-9 -3 -14.5 4t-7 19.5t1.5 29t10 32.5q12 27 27 36t27 5.5t18.5 -17t2.5 -31.5
q-2 -9 -9 -21t-16 -23.5t-20 -21t-20 -12.5z" />
    <glyph glyph-name="k.salt" horiz-adv-x="369" 
d="M547 65q-35 -40 -81.5 -71t-97 -48.5t-100.5 -20t-90.5 14t-68 55t-32.5 103.5q-22 -54 -27 -99.5t-3 -83.5q-12 -5 -23 -2t-16 12q-7 14 -7.5 42t2.5 59.5t9 61.5t11 48q41 135 93 244.5t111 178.5q10 12 32.5 22t43.5 13t35 -4t7 -29q-5 -13 -17.5 -27.5l-31.5 -35.5
t-43.5 -51t-52 -75t-56.5 -106.5t-58 -144.5q27 38 51 63.5t42.5 41t32 22t20.5 6.5q16 0 25.5 -8t13.5 -18.5t2.5 -21t-7.5 -16.5q-15 -14 -39 -23.5l-46.5 -19t-38 -20.5t-13.5 -27q4 -41 27 -66t57.5 -36.5t76.5 -10t86 13.5t85.5 33.5t73.5 51.5q9 8 16.5 11t10.5 0
t0 -11t-15 -21z" />
    <glyph glyph-name="l.salt" horiz-adv-x="184" 
d="M86 167q-10 -66 -6.5 -112t16.5 -75t33 -43t42 -18q28 -6 60.5 3.5t63 25t56.5 32.5t43 27q14 8 21 -0.5t-9 -22.5q-54 -45 -99.5 -73.5t-84.5 -39.5q-48 -13 -83 -6t-60 28t-39.5 52.5t-21 68.5t-5.5 76.5t8 75.5q9 51 28.5 106.5t43.5 106.5t51 92t52 63
q13 11 29.5 15.5t32.5 2.5t29.5 -10.5t20.5 -21.5q10 -20 3 -49t-25.5 -62.5t-44.5 -69t-54 -68t-55 -60t-46 -44.5zM93 208q26 21 55.5 60.5t55.5 81.5t45 80.5t25 58.5q4 11 -1 17t-13 -2q-24 -21 -49 -57.5t-47.5 -78.5t-41.5 -84.5t-29 -75.5z" />
    <glyph glyph-name="m.salt" horiz-adv-x="661" 
d="M214 -21q-13 0 -25 3t-20.5 10.5t-12.5 18.5t0 28q2 8 10 27.5l16.5 41l16 39.5t8.5 24l-39 -44.5t-41.5 -49t-37.5 -52t-28 -53.5q-5 -13 -15 -19t-18 -6q-6 3 -13.5 5.5t-14 6.5t-10.5 10t-2 17q10 40 22.5 73.5l25.5 67.5t25.5 72t22.5 88q1 9 14 10t28 -4t28.5 -15.5
t15.5 -25.5q1 -9 -4 -19t-13 -20.5l-17 -22.5t-15 -24q-4 -8 -8.5 -19.5l-8.5 -22.5l-7 -20t-4 -13l27.5 32.5t41 45t45 43t38.5 26.5q5 2 11 2t11.5 -3.5t8.5 -9.5t1 -16q-3 -12 -7.5 -26t-10.5 -28.5l-11.5 -28.5l-9.5 -25q-20 -52 -17 -59.5t24 23.5q40 60 68.5 98.5
l47.5 62.5t31 35.5t19 16.5q5 3 16 0t22 -9.5t18.5 -14.5t6.5 -15q-35 -96 -45 -159t-0.5 -96.5t36.5 -39.5t66.5 11t89 56t104.5 96q5 5 11 1.5t5 -8.5q-8 -20 -27 -45.5t-45 -52t-57.5 -51t-64 -41.5t-64 -24.5t-57.5 -0.5q-31 9 -46 40.5t-18.5 72.5t3.5 86t20 80
q13 39 -13 13q-17 -17 -40 -50l-45.5 -66t-42.5 -58t-30 -26z" />
    <glyph glyph-name="n.salt" horiz-adv-x="553" 
d="M256 -112q-19 15 -28.5 46t-7 74.5t17.5 97.5t44 115q2 3 -1.5 5t-6.5 -1q-73 -73 -121 -141t-75 -119q-18 0 -33 1.5t-24.5 6.5t-12.5 14.5t2 24.5q8 19 19 52.5l21.5 68.5t17 66t5.5 46q-1 9 14 16t27 7q26 0 34.5 -8.5t0.5 -37.5q-6 -20 -17 -53.5l-22 -68.5
q18 19 46.5 52t60.5 65t63.5 55t55.5 23q18 0 26.5 -14.5t3.5 -25.5q-28 -78 -44.5 -135.5t-22.5 -96.5t-2.5 -61t16.5 -30q16 -10 40.5 -6t53 17t59 33.5t59 44t54 48t43.5 45.5q4 5 10.5 1.5t4.5 -8.5q-10 -23 -34.5 -54.5t-58.5 -62.5t-73.5 -59t-78.5 -44.5t-74.5 -18
t-61.5 19.5z" />
    <glyph glyph-name="o.salt" 
d="M88 228q14 58 51 64q21 4 34 -10t18.5 -38t4.5 -53.5t-7 -56.5q23 -2 42.5 0.5t38.5 10.5t38.5 21.5t43.5 33.5q5 0 7.5 -8.5t-2.5 -13.5q-14 -15 -31.5 -31t-40 -28t-49 -18.5t-57.5 -2.5q-8 -32 -23 -58.5t-33 -44.5t-37.5 -26.5t-35.5 -4.5q-24 6 -37 28.5t-16.5 52.5
t2 63t18 60.5t30.5 44.5t41 15zM92 161q-11 -20 -17 -41.5t-7.5 -40.5t0.5 -32.5t7 -17.5q3 -3 8 -3q15 -2 30 13t32 64q-17 7 -32 19.5t-21 38.5zM143 249q-8 -3 -13.5 -18t-5 -33t7.5 -34.5t24 -22.5q3 6 5 25.5t1.5 39t-5 33.5t-14.5 10z" />
    <glyph glyph-name="p.salt" horiz-adv-x="409" 
d="M533 111q10 -10 9 -19.5t-20 -5.5q-73 15 -128 15.5t-103 -8.5q-21 -43 -51 -71.5t-57 -39.5t-44.5 -3.5t-14.5 36.5q4 28 13.5 47t23.5 31.5t32.5 20t40.5 13.5q7 14 12 32t7 34.5t0 29.5t-8.5 16.5t-19.5 -4.5t-33 -33q-23 -26 -49 -64t-51.5 -81.5t-48.5 -90.5
t-41.5 -91t-30.5 -82.5t-15 -65.5q-2 -23 -9 -36.5t-14 -12.5q-20 5 -31 25t-3 58q4 18 15 54l26 81.5l33 97.5l36 102q17 46 30.5 91t25.5 76q11 27 20.5 39.5t11.5 12.5q42 0 50.5 -14.5t-2 -42.5t-32 -69.5t-39.5 -96.5q4 10 16 27.5t28 38.5t34.5 42.5t35.5 38.5
q36 37 63.5 46.5t42.5 0.5t21.5 -29t7.5 -42t-2.5 -43.5t-8.5 -33.5q45 4 85 0.5t70 -9.5t47.5 -12t18.5 -6zM160 19q7 4 19 18t26 34q-27 -12 -39 -26t-6 -26z" />
    <glyph glyph-name="q.salt" horiz-adv-x="522" 
d="M279 -239q-14 -45 -37.5 -79.5t-50 -56.5t-54 -29.5t-49.5 0.5t-35.5 34t-12.5 72q1 39 12.5 86.5t30.5 98t42.5 102.5l47.5 101l-30 -31t-31.5 -31t-29 -23.5t-20.5 -9.5q-23 0 -38 17t-11 43q5 38 20 83t38 83.5t52 63t61 20.5q27 -3 46.5 -16t21.5 -33q-1 -20 -9 -26
t-13 6q2 14 -2.5 20t-12.5 6t-17.5 -4.5t-17.5 -10.5q-21 -17 -40.5 -49t-32.5 -63t-17.5 -54t5.5 -23q10 1 28.5 16.5t36.5 35.5t32 38.5t15 24.5l4 20q0 8 8 12t19 4q8 0 19.5 -1.5t20.5 -6t12 -12.5t-5 -21q-6 -9 -19 -35t-29.5 -62.5l-35 -80.5t-35.5 -89.5t-31 -89.5
t-22 -81q-11 -53 0 -73.5t34.5 -13t53.5 40.5t57 89q13 28 19.5 35.5t8 2t-0.5 -19.5t-6 -30z" />
    <glyph glyph-name="r.salt" horiz-adv-x="496" 
d="M55 174q-37 10 -51 39.5t-7.5 61t32 56t67.5 24.5q21 0 31.5 -15.5t10.5 -38.5t-9.5 -50t-27.5 -51l-2 -3h28t28 -1q10 -1 18 -7.5t13 -16t5.5 -22.5t-4.5 -28q-18 -50 -25.5 -83.5t-6 -54.5t10.5 -31.5t23 -13.5q16 -4 55.5 11t86.5 45t93.5 73.5t75.5 96.5q2 2 8.5 1
t4.5 -8q-8 -34 -29.5 -68.5t-51.5 -66.5t-66 -58.5t-72 -45t-69.5 -26.5t-58.5 -2q-20 5 -41 16t-33.5 35t-11 65t27.5 105q8 19 13.5 28t2 14t-19 8.5zM107 276q5 18 -2 20.5t-18 -4t-22 -19t-14 -25.5q-5 -15 -2.5 -30t19.5 -18l10 15t11.5 19.5t10.5 21.5t7 20z" />
    <glyph glyph-name="s.salt" horiz-adv-x="469" 
d="M123 53q24 18 66 38.5t92 32.5t102.5 9.5t97.5 -30.5q9 -6 10.5 -11t-1.5 -8.5t-9 -4t-13 3.5q-31 18 -73.5 19.5t-90 -10t-95.5 -35t-89 -57.5q-3 -18 -10 -43.5t-24 -46.5q-19 -22 -37 -33.5t-34 -15.5t-27.5 -1t-16.5 11q-10 15 -2 36t26 43.5t41 42.5t44 33
q-4 30 -12.5 54.5t-14.5 48t-6 46.5t13 50q14 27 44.5 47.5t71.5 20.5q14 0 13 -9.5t-11 -13.5q-28 -15 -40 -40t-15.5 -54.5t-1.5 -61.5t2 -61z" />
    <glyph glyph-name="t.salt" horiz-adv-x="454" 
d="M343 277q-6 -3 -12 -4.5t-9.5 -1t-3 5t7.5 14.5q1 3 5.5 7l9.5 8.5t8 8.5t1 6q-30 29 -152 30q-23 -46 -47.5 -104t-42.5 -113.5t-26 -102t2 -70.5q9 -23 34 -27.5t57.5 3t69 23.5t70 34t60 35t38.5 26q13 10 20 4.5t-8 -22.5q-31 -33 -70.5 -64.5t-81.5 -55t-83.5 -37
t-76.5 -10.5t-60.5 26t-35.5 72q-7 36 0 83.5t22.5 99t36 103.5t40.5 96q-56 -3 -109 -12t-93 -25q-5 -4 -11 -3.5t-10 3.5t-5 7.5t5 7.5q13 9 37.5 17.5t56.5 16.5t69 14.5t76 9.5q17 37 29.5 60t15.5 28q4 10 16.5 10.5t26 -5t22.5 -14.5t5 -18q-5 -8 -11.5 -19.5
t-18.5 -35.5q28 0 55.5 -1t51.5 -5t42.5 -11t28.5 -18q6 -8 3 -19t-11.5 -22.5t-20.5 -22t-23 -16.5z" />
    <glyph glyph-name="u.salt" horiz-adv-x="409" 
d="M75 249q13 17 26 18t23 -6.5t15 -18t2 -15.5q-33 -58 -46 -90t-14 -47t5.5 -15.5t14.5 4.5q10 8 26 26t33 41t33.5 49.5t28.5 51.5q12 12 26 11.5t26.5 -6.5t20 -15t5.5 -13q-28 -74 -34 -128t4.5 -86.5t34.5 -44.5t54 -0.5t63.5 45.5t64.5 92q11 6 16.5 4t-0.5 -17
q-25 -64 -63 -106.5t-78 -61.5t-76.5 -13.5t-59 38t-26.5 93t21 151.5q-22 -44 -49 -82t-53.5 -64.5t-49 -38t-34.5 -1.5q-21 0 -27 22t0.5 57t24 78.5t42.5 87.5z" />
    <glyph glyph-name="v.salt" horiz-adv-x="292" 
d="M66 237q9 11 23 15t26 1t19 -13t2 -25l-16.5 -47.5t-19 -59.5t-12 -56.5t4.5 -39.5q19 21 41 49.5t43.5 60.5t41.5 65t36.5 63t27.5 55t15 40q3 12 8.5 15t10 -2t5 -19t-6.5 -38q-10 -30 -28 -67t-41 -75.5t-48.5 -75.5t-50.5 -65.5t-48 -45.5t-39 -17q-17 0 -26.5 15
t-12 39t0 54t9 61.5t15.5 61t20 51.5z" />
    <glyph glyph-name="w.salt" horiz-adv-x="491" 
d="M112 -27q-4 -5 -11.5 -9.5t-16.5 -6.5t-17.5 -1t-14.5 6q-17 28 -18.5 69t7 83t23.5 80t33 62q6 9 18.5 12.5t25 0.5t21 -11t7.5 -21q-26 -34 -39 -69t-18.5 -64t-5.5 -49t2 -24q6 4 16.5 22l25 43.5l31.5 56t37 59.5q14 15 24.5 13t17.5 -12.5t9 -25.5t-1 -26
q-6 -20 -10 -42.5t-6 -44t-1 -41t6 -32.5q16 16 36 43.5t40.5 59.5t39.5 67l35 67t27 58t15 41q3 13 9 16.5t10.5 -2.5t5 -20.5t-6.5 -36.5q-9 -28 -25.5 -65.5t-37 -77t-43.5 -77.5t-45.5 -67.5t-43 -48t-35.5 -17.5h-4.5t-4.5 1q-14 5 -22 22t-11.5 39.5t-3.5 47.5t2 46
q-19 -37 -41 -69.5t-41 -54.5z" />
    <glyph glyph-name="x.salt" horiz-adv-x="317" 
d="M11 -104q-6 -3 -15 0.5t-16 10.5t-9.5 16t3.5 18l107 126q-18 45 -28.5 88.5t-9.5 85.5q0 16 13 31t37 16q18 0 25.5 -6t10 -15.5t0.5 -21t-4 -20.5q-5 -26 -2 -49.5t9 -47.5l48 54.5l39 42t33.5 32.5t30.5 26q28 10 39 2.5t11 -19.5t-7.5 -21.5t-16.5 -1.5
q-7 6 -23.5 -2.5t-39 -28t-50 -48t-55.5 -61.5q19 -57 52.5 -99.5t72 -61t78 -8t69.5 59.5q12 15 21 9t2 -20q-29 -52 -60.5 -79.5t-63 -34t-63 4.5t-60 35t-53 59t-43.5 75q-32 -42 -54 -81.5t-28 -65.5z" />
    <glyph glyph-name="y.salt" horiz-adv-x="357" 
d="M277 59q139 60 294 32q10 -2 14 -5.5t3 -8t-5.5 -8t-11.5 -4.5q-88 8 -161 -5.5t-140 -45.5q-9 -59 -25 -120t-39 -117t-52.5 -103t-66.5 -77q-24 -20 -53.5 -33.5t-56.5 -13.5q-43 0 -60 26t-12 68.5t30 95.5t66 106.5t97 102.5t123 84q2 9 4 25t3.5 34.5t2.5 37t1 32.5
t-1 21.5t-3 3.5q-7 -11 -19 -32t-27.5 -45.5t-33.5 -49.5t-37.5 -43.5t-39 -27.5t-37.5 -2q-22 5 -26 37t4.5 74.5t26.5 88.5t40 80q15 18 30.5 17.5t27 -8t16.5 -17t0 -9.5t-19 -24t-27.5 -56.5t-21.5 -66t-1 -52.5q7 2 21.5 15t32.5 35t37.5 52.5t37.5 67.5q8 15 20 20
t23.5 4t20.5 -5t12 -6q3 -12 2 -36t-3.5 -50t-6 -51t-4.5 -38zM-30 -400q22 9 47.5 33t51 57.5t49.5 73t43.5 79t33 76t18.5 64.5q-73 -44 -127 -103.5t-86 -117t-40 -102.5t10 -60z" />
    <glyph glyph-name="z.salt" horiz-adv-x="331" 
d="M-60 -295q-28 0 -38.5 22.5t-5.5 51.5q4 23 22.5 48.5t47.5 52t67 53t82 51.5q-7 21 -22.5 36.5t-41.5 21.5q-6 1 -10 5q-9 0 -7 6q1 9 -1.5 9.5t2.5 8.5q26 43 31.5 75.5t2 55.5t-11 36.5t-6.5 17.5q5 22 24 33t36 9q13 -2 41 -12t52.5 -25t38.5 -33.5t0 -36.5
q-5 -7 -17 -18t-27.5 -24t-31 -27.5t-27 -27t-17.5 -22.5t-1 -14q13 -14 19.5 -25t11.5 -28q45 24 93 45.5t94.5 38.5t90 30t81.5 19q16 3 21.5 1.5t4.5 -5t-6.5 -9l-11.5 -11.5q-97 -23 -189.5 -64.5t-170.5 -87.5q1 -36 -12 -77.5t-40.5 -78.5t-69 -65t-98.5 -36zM-1 -203
q18 7 37.5 21.5t36 33.5t28.5 40.5t17 43.5q-73 -47 -118.5 -86t-50.5 -54q-2 -13 12.5 -11.5t37.5 12.5zM166 196q5 6 2.5 16.5t-8 21t-13 18t-13.5 8.5q-3 0 -8.5 -1.5t-10.5 -4.5t-8.5 -7.5t-3.5 -8.5q4 -29 -1 -60.5t-13 -62.5q24 22 44 42.5t33 38.5z" />
    <glyph glyph-name="A.swsh" horiz-adv-x="453" 
d="M-132 -23q-14 4 -30 14.5t-28.5 23.5t-19 26.5t-1.5 24.5q9 17 34.5 30t61.5 23.5t79 18.5t87 14q33 49 68.5 96.5t72.5 90t73 78t70 59.5q41 31 72 33t63 -45q10 -15 6 -46.5t-17.5 -73.5t-33.5 -91.5l-41 -100.5l22 -6q7 -3 7.5 -7.5t-3 -8.5t-10.5 -5.5t-13 0.5l-13 2
q-18 -45 -32.5 -90t-22.5 -84t-10 -70t6 -49q9 -19 23.5 -34t37 -23t53.5 -8.5t72 8.5q272 63 495 89.5t399.5 30t307.5 -10t218 -32t132 -36t49 -20.5q3 -2 5.5 -6t1.5 -7t-5.5 -3.5t-14.5 2.5q-47 16 -115.5 30.5t-163 23t-216 8.5t-275 -13.5t-341 -43t-413.5 -80.5
q-67 -15 -120 -7.5t-91.5 29.5t-63.5 54.5t-35 67.5q-3 14 -6.5 37.5t-2 58t10 80.5t29.5 104q-43 -2 -84 -5.5t-94 -13.5q-28 -46 -53 -93t-44.5 -90t-32 -80t-16.5 -62q-3 -17 -14 -16.5t-22.5 11.5t-20 30t-5.5 39q13 48 43 110.5t72 131.5q-65 -16 -110.5 -35t-49.5 -36
q-1 -7 9 -13.5t26 -19.5q12 -13 2 -15.5t-24 1.5zM382 371q2 6 6.5 18t8.5 24.5t7 25t3 20.5q-2 9 -6.5 10.5t-10.5 -0.5q-26 -12 -56 -41.5t-63 -71t-67.5 -92.5l-69.5 -106q52 4 88.5 5t74.5 -1l45 106t40 103z" />
    <glyph glyph-name="B.swsh" horiz-adv-x="676" 
d="M255 112q-12 -2 -30 -2.5t-26 5t2 20.5t53 45q11 -2 17.5 -3.5t15.5 -5.5q2 0 6 2q12 38 21.5 75.5t16 71t9 61t1.5 47.5q-1 13 14 17.5t32 1.5t30.5 -15t9.5 -32q2 -4 -1 -21.5t-10 -44.5t-17.5 -61.5t-23.5 -72.5q21 11 48.5 29t55 40t52 46.5t39.5 49.5t18 49t-12 45
q-16 21 -52.5 30t-84.5 10q-61 1 -128 -13.5t-128.5 -41t-110 -63t-72.5 -78.5q-9 -18 -16 -43t-7.5 -50t7 -45.5t25.5 -28.5q19 -8 24 -14.5t2 -10.5t-12 -4.5t-19 3.5q-36 10 -60 39.5t-31 68t4.5 81.5t45.5 82q46 52 117.5 87t151.5 53t160 18.5t143 -16.5
q37 -10 70.5 -27.5t50 -44.5t10 -64t-49.5 -85q-24 -27 -55.5 -48.5t-65.5 -38t-67 -29.5l-60 -24q15 1 30.5 -1t31.5 -5q64 -14 97.5 -37t43.5 -51.5t-0.5 -60t-35 -62.5t-60 -60t-75 -52t-80.5 -38.5t-77 -19.5q-44 -5 -65.5 7.5t-25 33.5t9.5 47.5t37 50.5l10 20
q15 30 33 78.5t35 103.5zM310 -52q-42 -24 -67.5 -49t-36.5 -45t-8.5 -33t16.5 -12q32 0 73.5 20.5t80.5 52t70 69t42.5 73t-3 63.5t-66.5 40q-28 7 -65 4q-17 -47 -38 -94t-38 -76q8 4 16.5 6.5t17.5 4.5q25 5 27 -3t-21 -21z" />
    <glyph glyph-name="C.swsh" horiz-adv-x="543" 
d="M519 -186q67 13 132 24q219 37 399.5 49.5t323.5 9t249.5 -18.5t177.5 -31.5t107.5 -31t40.5 -17.5q3 -2 5.5 -6t1.5 -7t-5.5 -4t-14.5 3q-19 7 -64 19t-120.5 22.5t-183 16.5t-251.5 -0.5t-326.5 -28.5t-407.5 -66q-47 -9 -99 -16t-105 -7.5t-103.5 7t-94.5 26t-78 50.5
t-54 80q-10 24 -16 53t-7 63q-2 47 11 98.5t38.5 102.5t63 98t84.5 86t104 66t121 37q27 4 53.5 -2t47.5 -21t32.5 -37t8.5 -49q-8 -64 -42.5 -121.5t-81.5 -98.5t-98 -61.5t-92 -9.5q-27 7 -35.5 26.5t-6.5 43.5t12 47t20 37q11 13 19.5 15.5t4.5 -13.5q-3 -13 -11 -34
t-10.5 -39t6 -28t39.5 -1q30 9 69.5 36.5t75.5 63t62.5 74t31.5 69.5q4 23 -7 34t-32 12.5t-48.5 -4t-55.5 -15.5t-53 -23t-42 -26q-52 -37 -91.5 -81.5t-67 -93t-44 -99t-22.5 -98.5q-6 -63 9 -112.5t58 -69.5q24 -11 58 -15t78.5 -3t100.5 6.5t125 13.5z" />
    <glyph glyph-name="D.swsh" horiz-adv-x="995" 
d="M611 427q-2 12 12.5 16t31.5 -0.5t30.5 -17t9.5 -32.5q1 -10 -5 -36.5t-17.5 -62.5t-26.5 -78.5t-31 -83t-32 -76t-29 -57.5q48 29 104.5 56.5t121.5 47.5q11 23 19.5 43.5t14.5 40.5q27 78 21.5 132.5t-29.5 90t-60.5 54.5t-72.5 25q-43 8 -93.5 0.5t-103.5 -27.5
t-106 -51.5t-100 -73t-86.5 -91t-64.5 -105.5q-14 -32 -24 -43.5t-14 -7t-1.5 22.5t11.5 47q32 97 92 168.5t135 118t157.5 69t159.5 20t141 -29t102.5 -77t43.5 -125.5t-36 -173q35 8 70 12.5t71 6.5q6 0 8 -3t2 -7t-1.5 -8.5t-3.5 -6.5q-45 -6 -87 -15t-83 -20
q-32 -48 -76.5 -91.5t-93.5 -79t-98 -62t-90 -40.5t-69 -15t-35 14q-14 29 34 85l12 14l-6 -4l6 7.5t17 24.5t27 49q14 29 29 69.5t28.5 85t25 89.5t20.5 83.5t13.5 67t4.5 40.5zM456 -127q-17 -21 -15.5 -30t22.5 1q86 40 153 91t113 99l14 15q-111 -47 -185 -94t-102 -82z
" />
    <glyph glyph-name="E.swsh" horiz-adv-x="546" 
d="M132 233q9 -9 35.5 -13.5t61 -2.5t72 9.5t69.5 22.5q19 3 32.5 -8t18 -25t-1 -27t-24.5 -13q-23 -1 -49.5 -5.5t-56.5 -15.5t-63 -31t-67 -51q-33 -29 -52.5 -63t-16.5 -62.5t32.5 -45t95.5 -9.5q20 1 59 14t88 39t103.5 66.5t105.5 98.5q11 9 15.5 2.5t-0.5 -12.5
q-35 -50 -85.5 -100t-110.5 -91t-127 -68t-136 -31q-45 -2 -78.5 18t-46.5 54.5t0.5 79t61.5 91.5q33 32 67.5 57.5t73.5 49.5q-38 3 -68.5 20.5t-43.5 40.5q-79 -10 -129.5 7.5t-76 50t-26.5 75t18 83.5t57 75t92 49q9 3 13 -1t5 -9.5t0 -9t-2 1.5q-29 -8 -58.5 -31.5
t-50.5 -53.5t-28.5 -63t6 -60.5t52.5 -45.5t113 -19q-4 38 13 74t48 67.5t72 57.5t85.5 44.5t89.5 29t84 11.5q40 1 66 -15.5t35 -42t0 -53.5t-37 -49q-32 -24 -75.5 -46t-96 -42.5t-111.5 -39t-122 -34.5zM118 281q51 9 107.5 24.5t109.5 35t98.5 42t74.5 45.5q40 32 36 52
t-55 14q-35 -4 -76 -17.5t-81 -32t-78 -40.5t-67 -44t-48 -43t-21 -36z" />
    <glyph glyph-name="F.swsh" horiz-adv-x="564" 
d="M460 239q44 12 62 4.5t20 -24t-8 -36.5t-22 -35q-11 -14 -18 -10.5t2 23.5q4 9 8.5 16.5t1.5 11t-17.5 2t-50.5 -11.5q-18 -49 -38.5 -97.5t-42 -92t-42.5 -79t-40 -58.5q-25 -29 -52 -36.5t-50 1.5t-38.5 33.5t-16.5 60.5q0 9 3 15.5t7 8.5t8 -2.5t6 -16.5q3 -18 10 -25
t16 -6.5t17.5 5.5t13.5 11q16 17 37.5 44.5t43.5 62t43 74.5t38 82q-41 -10 -79.5 -24t-82.5 -36q-9 -4 -15 -3t-8 4.5t0 8.5t7 9q9 7 28 18t45 24.5t58.5 27t68.5 25.5q12 24 23.5 54t21 59.5t16.5 55.5t9 43q5 32 18.5 34t16.5 -28q2 -23 -3 -76t-25 -121zM232 327
q34 17 36.5 5.5t-32.5 -36.5q-52 -36 -99.5 -52.5t-85.5 -17.5t-65 12t-37 37q-8 16 -12.5 35.5t0 41t21.5 46t53 51.5q68 52 156 82t186.5 38t203.5 -7.5t206 -55.5q9 -4 13 -10t2.5 -10.5t-7.5 -6.5t-16 1q-94 30 -193.5 33.5t-192 -10.5t-172 -41.5t-134 -58.5t-79 -62
t-6.5 -52q7 -9 31 -12.5t58.5 0t77 15.5t87.5 35z" />
    <glyph glyph-name="G.swsh" horiz-adv-x="551" 
d="M377 408q-61 -28 -120.5 -77t-104.5 -110t-69.5 -128.5t-14.5 -131.5q3 -18 25 -13t55 25t72.5 51t77.5 65.5t70 68t49 59.5q15 18 28 21t22 -1.5t13.5 -12t2.5 -10.5q-10 -36 -23.5 -78l-27.5 -84l-28.5 -81.5l-26.5 -71.5q-5 -15 -10 -28.5t-10 -25.5q141 25 293 33
t299.5 5t283 -15.5t244.5 -29.5t184.5 -36t102.5 -35q3 -2 5.5 -6.5t1.5 -8t-6 -4.5t-15 2q-41 13 -105.5 24.5t-146 21t-176.5 16.5t-198 10t-209.5 2.5t-210.5 -6.5t-202 -18t-184 -31q-24 -41 -55.5 -85.5t-70 -81.5t-83 -60.5t-93.5 -23.5q-30 0 -48.5 14t-24 36t2.5 49
t31 52q46 51 120 91t165 64q20 37 40 83l37.5 90t31 81.5t21.5 56.5l-65.5 -65.5t-70.5 -69t-71 -62t-66 -44t-56.5 -14t-42.5 26.5q-28 43 -31.5 97.5t14.5 113t55 117t89 109t116 89t136 56.5q54 14 89 -1t41.5 -48t-20 -79.5t-94.5 -95.5q-12 -8 -22 -9t-14.5 3t-0.5 12
t20 19q33 21 51.5 49.5t18 50t-22 29.5t-68.5 -11zM25 -429q27 12 57 35.5t56.5 49.5t46.5 49.5t28 37.5q-66 -20 -112.5 -41t-81.5 -56q-13 -13 -24 -30t-14 -30.5t6 -19t38 4.5z" />
    <glyph glyph-name="H.swsh" horiz-adv-x="670" 
d="M191 333q7 1 14.5 1.5t11.5 -2t1 -8.5t-16 -18q-59 -39 -103 -46t-68 8.5t-24 48.5t30 73q17 22 44 43t58.5 37t65 26t64 10t55 -11t39.5 -36q27 -48 26 -118t-22 -147q33 -2 65 -6t59 -12q14 38 35 80t46.5 83t54 79t58.5 68q32 33 43 24.5t-9 -40.5q-18 -24 -41 -63
t-45.5 -83.5t-42 -89.5t-31.5 -81q6 -4 9 -5q16 -10 24.5 -21.5t9.5 -20t-4 -12.5t-15 1q-8 6 -17 11.5t-19 10.5q-9 -33 -19.5 -75.5t-15.5 -85t-1.5 -81.5t22.5 -65.5t56.5 -37t100.5 4.5q204 46 370 71.5t299.5 35.5t235.5 6.5t178 -14t128 -26t85 -30.5t48.5 -26.5
t18.5 -13.5t5 -6t1.5 -7t-5.5 -4t-15 3q-20 7 -52 21t-89 26t-147 18t-227 -2.5t-328 -35.5t-450 -81q-44 -9 -82.5 -8t-71 9.5t-56.5 24t-39 35.5q-26 34 -37 79t-12 94.5t8 99.5t24 95q-29 8 -61 11t-64 3q-21 -64 -51.5 -126.5t-66 -114t-73.5 -87.5t-74 -48
q-26 -9 -53.5 -7.5t-51 14t-39.5 37.5t-18 62q0 9 3.5 15.5t8.5 8.5t10 -2t7 -16q3 -27 15 -40t39 -13q25 -1 60.5 25t74 69.5t76 100.5t66.5 119q-124 -13 -215 -91l-10 -10.5t-11 -14t-7.5 -15t-0.5 -12.5q3 -6 3.5 -12t-1.5 -9t-6.5 -1t-13.5 13q-13 17 -10.5 41.5
t13.5 41.5q18 28 46.5 49t64.5 34.5t78.5 20.5t87.5 8q15 38 25.5 75t14 70t-1 60.5t-19.5 45.5q-17 21 -45 22.5t-59.5 -9.5t-61.5 -30t-50 -39t-29 -41t-1.5 -33t34.5 -10t78 27z" />
    <glyph glyph-name="I.swsh" horiz-adv-x="553" 
d="M171 -282q16 23 38 63t46.5 90.5t49.5 108.5t47.5 118t40 119.5t26.5 112.5q6 38 6.5 70.5t-7 55t-25 33t-46.5 5.5q-38 -7 -90 -33.5t-104.5 -65t-97 -84.5t-67.5 -91q-9 -17 -18 -22.5t-14 -1.5t-5 16t9 32q28 58 68 108.5t87.5 88.5t99.5 62t104 30q86 10 130 -16
t57 -77t0 -120t-41.5 -145t-67 -152.5t-76 -142.5t-69 -115t-46.5 -70q-11 -10 -20.5 -11.5t-15 2.5t-6 12.5t6.5 19.5z" />
    <glyph glyph-name="J.swsh" horiz-adv-x="923" 
d="M891 374q-20 -131 -55 -231.5t-80 -178.5q80 -17 157.5 -48t150.5 -82q14 -10 18.5 -19t2.5 -14t-10.5 -5.5t-21.5 7.5q-79 47 -161.5 75t-165.5 40q-35 -53 -74.5 -95t-80.5 -75t-83 -58t-83 -44q-82 -37 -160.5 -47t-159.5 13q-60 18 -74.5 53t3 75.5t61 81t101.5 70.5
q100 51 225.5 74.5t264.5 11.5q60 90 112.5 193t78.5 216q1 6 7.5 12t13 7t11.5 -6t2 -26zM209 -147q-31 -13 -61 -31t-52.5 -37.5t-33.5 -38t-4 -32.5t36 -21t86 -3q40 3 98 19t121 46t123.5 73t104.5 99q-117 5 -222 -16t-196 -58zM921 507q-8 -15 -22 -11t-19 21
q-4 16 -1 39t11 40q3 6 9 11t13.5 6.5t15.5 -1t14 -11.5q12 -20 2 -46t-23 -48z" />
    <glyph glyph-name="K.swsh" horiz-adv-x="847" 
d="M-33 245q27 58 67 109t87 90t99.5 63t104.5 27q86 6 131 -21.5t60 -76t5 -113.5t-35 -134q51 9 101 33t94.5 56.5t82.5 69.5t66 70.5t45 60t19 39.5q3 20 12 20t15 -13.5t5.5 -38t-14.5 -53.5q-18 -38 -55.5 -84t-93.5 -88.5t-129 -75.5t-161 -45q0 -2 4 -8
q40 -91 114.5 -157.5t166 -111t192.5 -68.5t195.5 -30.5t173.5 3.5t128 33q16 8 22.5 6.5t6 -8t-7 -14.5t-15.5 -14q-52 -33 -133 -53.5t-176 -22t-196.5 18.5t-195.5 68t-173 126.5t-128 193.5q-23 -53 -49.5 -102.5l-51 -91.5l-44.5 -73.5t-32 -47.5q-21 -20 -35 -17.5
t-6 28.5q11 19 26.5 48.5l33 66l36 79l36.5 87.5l13.5 34l13.5 36q-28 12 -33 26.5t3 27t24 21.5t31 10q5 18 10 39t8 43q6 33 8 66.5t-5.5 60.5t-27 42t-56.5 10q-21 -2 -51.5 -14.5t-65.5 -33t-71.5 -47t-69.5 -56.5t-59.5 -61.5t-41.5 -61.5q-9 -17 -18 -22.5t-14.5 -1.5
t-5.5 16t10 32z" />
    <glyph glyph-name="L.swsh" horiz-adv-x="535" 
d="M393 121q20 39 34.5 85.5t23 92.5t11 86.5t-1 67.5t-13 37t-24.5 -5q-35 -36 -66.5 -91.5t-59.5 -120.5t-53 -133.5l-49 -128.5q-8 -18 -14.5 -34.5t-13.5 -32.5q89 1 192.5 -10.5t207 -30.5t200.5 -43t174 -48t126.5 -45.5t58.5 -35.5q2 -3 1.5 -7t-3.5 -6t-9 -1.5
t-16 5.5q-30 17 -93 35t-146 35t-179 32t-192.5 27t-187.5 19t-164 9q-33 -68 -67 -100.5t-51 -36.5q-24 -9 -50.5 7t-43.5 42.5t-18.5 55.5t22.5 46q29 20 70.5 31t93.5 16q24 55 46 122l45 133t48 125t54 98t56 63t51 36t44 14t36 -2q24 -7 37 -32t15.5 -61.5t-4 -80
t-20 -87.5t-33.5 -84.5t-44 -70.5q-17 -21 -25 -26t-11 -1t-1 14t6 21zM-35 -146q-7 -9 -5 -24t8.5 -28t16 -19.5t17.5 1.5q14 14 30 37t34 61q-38 -1 -64.5 -8.5t-36.5 -19.5z" />
    <glyph glyph-name="M.swsh" horiz-adv-x="598" 
d="M665 -223q204 47 370 72.5t299 35.5t235.5 6.5t178.5 -14t128 -26.5t84.5 -31t48.5 -26.5t19 -13.5t5 -6t1.5 -7t-5.5 -4t-15 3q-20 7 -52.5 22t-90.5 28.5t-148.5 20.5t-228 -1t-329 -37t-449.5 -87q-51 -11 -100 -7t-89.5 22t-69 49t-38.5 74q-14 61 -8 132.5
t21.5 140.5t37.5 129.5t41 98.5q-17 -19 -40.5 -50t-49 -69.5l-52.5 -81.5l-52 -85.5t-46 -82.5t-35 -72q-2 -12 -15 -16.5t-28 -1.5t-27 11.5t-13 21.5q-5 36 1.5 81t19.5 95.5t29.5 103l31.5 102.5l-95.5 -147.5l-97.5 -145.5l-42.5 -57.5t-56.5 -65t-64.5 -55
t-65.5 -25.5q-28 -2 -46 13.5t-24 39.5t1 51t29 48q15 17 23 12.5t1 -15.5q-9 -11 -15.5 -25t-6 -25.5t8.5 -16.5t27 2q32 13 78 56t97 102.5t103 128.5t94.5 134.5t72 120t36.5 85.5q13 11 25 4.5t20 -21.5t11 -32t-1 -27q-18 -36 -35.5 -84t-33.5 -101t-28 -107.5
t-18 -102.5q21 35 49.5 76.5t60 82.5l63 80l59 70t47.5 51t29 25q21 10 35.5 7.5t23 -12.5t11.5 -25t2 -30q-13 -13 -34 -54t-42.5 -98t-39.5 -122.5t-24.5 -126.5t3 -111t42.5 -76q43 -35 148 -11z" />
    <glyph glyph-name="N.swsh" horiz-adv-x="601" 
d="M501 -198q16 -13 40 -22q38 -23 124 -3q204 47 370 72.5t299 35.5t235.5 6.5t178.5 -14t128 -26.5t84.5 -31t48.5 -26.5t19 -13.5t5 -6t1.5 -7t-5.5 -4t-15 3q-20 7 -52.5 22t-90.5 28.5t-148.5 20.5t-228 -1.5t-329 -37t-449.5 -86.5q-53 -12 -102.5 -8.5t-90.5 23
t-71 54.5t-45 86q-10 38 -7.5 84t13 94.5t27.5 98.5t36.5 97.5t40.5 90t40 76.5q-32 -18 -72.5 -45.5t-86 -68t-94 -95.5t-96.5 -127l-30.5 -64l-34.5 -68.5t-36 -65.5t-34 -55q-12 -13 -30 -14.5t-31 6t-16 22.5t15 36q24 28 50 70t50.5 92t45.5 104.5t36 107t21.5 99
t1.5 80.5q-3 22 -18.5 24t-33.5 -7t-34.5 -24.5t-21.5 -27.5q-3 -6 -8 -7t-9.5 2t-6 9.5t2.5 15.5q14 29 43.5 52.5t61.5 30.5q33 7 53 -5.5t30 -37t12 -57.5t-1 -66.5t-10 -64t-14 -50.5q33 40 74.5 81t82 75.5t74.5 59t51 33.5q19 9 38 7t32 -12.5t17 -28.5t-7 -40
q-22 -43 -45 -93t-44 -101t-39 -99.5t-30 -89.5q-21 -70 -10.5 -120.5t45.5 -78.5z" />
    </font>
</defs>
</svg>
