<svg id="Layer_1" data-name="Layer 1" xmlns="http://www.w3.org/2000/svg" viewBox="0 0 512 465.46"><defs><style>.cls-1{fill:#f3f3f3;}</style></defs><title>chevron_white</title><g id="_Группа_" data-name="&lt;Группа&gt;"><path id="_Контур_" data-name="&lt;Контур&gt;" class="cls-1" d="M472.27,216.27,256,432.54,39.73,216.27A23.27,23.27,0,0,0,6.82,249.18L239.55,481.91a23.27,23.27,0,0,0,32.91,0L505.18,249.18a23.27,23.27,0,1,0-32.91-32.91Z" transform="translate(0 -23.27)"/><path id="_Контур_2" data-name="&lt;Контур&gt;" class="cls-1" d="M239.55,295.73a23.27,23.27,0,0,0,32.91,0L505.18,63a23.27,23.27,0,0,0-32.91-32.91L256,246.36,39.73,30.09A23.27,23.27,0,0,0,6.82,63Z" transform="translate(0 -23.27)"/></g></svg>