<svg id="Capa_1" data-name="Capa 1" xmlns="http://www.w3.org/2000/svg" viewBox="0 0 512 460.91"><defs><style>.cls-1{fill:#f3f3f3}</style></defs><title>diamond_white</title><path class="cls-1" d="M511.88 172.11a8.58 8.58 0 0 0 .11-1 10 10 0 0 0 0-1.24 7.27 7.27 0 0 0-.17-1 8.43 8.43 0 0 0-.38-1.19c-.08-.2-.09-.42-.19-.61s-.19-.26-.26-.4-.11-.3-.2-.44L425.42 29.55a8.76 8.76 0 0 0-1.42-1.68 8.39 8.39 0 0 0-2.53-1.58c-.12-.05-.2-.15-.32-.2s-.2 0-.29 0a8.36 8.36 0 0 0-2.68-.49H93.85a8.34 8.34 0 0 0-2.65.4 2.61 2.61 0 0 0-.27 0c-.13 0-.2.15-.32.2a8.51 8.51 0 0 0-2.45 1.49 1.51 1.51 0 0 1-.15.1 8.59 8.59 0 0 0-1.39 1.69L1.26 166.11c-.09.14-.12.3-.2.44s-.2.26-.26.4-.11.41-.2.61a8.43 8.43 0 0 0-.38 1.19 8.82 8.82 0 0 0-.17 1.06 6.7 6.7 0 0 0-.05 1.25 8.58 8.58 0 0 0 .11 1 7.68 7.68 0 0 0 .32 1.21 8.65 8.65 0 0 0 .38 1c.08.15.1.32.19.48s.34.44.5.67a5.19 5.19 0 0 0 .33.55l247.44 307.17.05.06v.06s.07 0 .09.08a8.38 8.38 0 0 0 2.52 2c.26.14.5.26.76.37a8.43 8.43 0 0 0 3.27.74 8.62 8.62 0 0 0 2.93-.52c.15-.05.24-.17.38-.23a7.8 7.8 0 0 0 1.17-.72 8.26 8.26 0 0 0 1.76-1.39c.12-.13.3-.19.41-.32L510.17 176c.14-.17.2-.38.33-.55a7.47 7.47 0 0 0 .5-.67c.09-.15.11-.32.19-.48a8.06 8.06 0 0 0 .38-1 9.68 9.68 0 0 0 .31-1.19zM273.94 42.62h131.95L364.41 154zM349 162.11H163l93-114.48zm-202-7.41L106 42.62h132zm208 24.48L254.51 448.95l-98.58-269.77zm65.12-125.87l68 108.81H379.58zm-328.31.11l39.71 108.69H23.88zm46 125.76l92.51 253.19-204-253.19zm138.7 259.73l96.76-259.73h112.42z" transform="translate(0 -25.54)"/></svg>