<svg width="24" height="24" xmlns="http://www.w3.org/2000/svg" viewBox="0 0 22.98 22.98"><defs><style>.cls-1{fill:#c6c4c8;fill-rule:evenodd;}</style></defs><title>ic-inst</title><g id="Слой_2" data-name="Слой 2"><g id="Isolation_Mode" data-name="Isolation Mode"><path class="cls-1" d="M5.62,11.48a5.87,5.87,0,1,1,5.86,5.88,5.88,5.88,0,0,1-5.86-5.88ZM17.55,0H5.43A5.45,5.45,0,0,0,0,5.43V17.55A5.45,5.45,0,0,0,5.43,23H17.55A5.45,5.45,0,0,0,23,17.55V5.43A5.44,5.44,0,0,0,17.55,0ZM5.43,1.36H17.55a4.08,4.08,0,0,1,4.07,4.07V17.55a4.08,4.08,0,0,1-4.07,4.07H5.43a4.08,4.08,0,0,1-4.07-4.07V5.43A4.08,4.08,0,0,1,5.43,1.36ZM18.76,3.07a1.19,1.19,0,1,0,1.19,1.19,1.19,1.19,0,0,0-1.19-1.19Zm.14,8.41a7.41,7.41,0,1,0-7.41,7.41,7.41,7.41,0,0,0,7.41-7.41Z"/></g></g></svg>