<svg width="24" height="21" xmlns="http://www.w3.org/2000/svg" viewBox="0 0 22.71 19.62"><defs><style>.cls-1{fill:#c6c4c8;}</style></defs><title>ic-telegram</title><g id="Слой_2" data-name="Слой 2"><g id="Isolation_Mode" data-name="Isolation Mode"><path class="cls-1" d="M22.71.7,19.12,18.81a1.33,1.33,0,0,1-1.88.65L8.95,13.1l-3-1.46L.86,9.94S.08,9.66,0,9.06s.88-.93.88-.93L21.05.22S22.71-.51,22.71.7Z"/><path class="cls-1" d="M8.31,18.6s-.24,0-.54-1-1.83-6-1.83-6L18.11,3.91s.7-.43.68,0c0,0,.13.08-.25.43S9,13,9,13"/><path class="cls-1" d="M12.12,15.54l-3.28,3a.58.58,0,0,1-.54.07L8.94,13"/></g></g></svg>