<svg width="24" height="20" xmlns="http://www.w3.org/2000/svg" viewBox="0 0 23.4 18.72"><defs><style>.cls-1{fill:#c6c4c8;fill-rule:evenodd;}</style></defs><title>ic-tw</title><g id="Слой_2" data-name="Слой 2"><g id="Isolation_Mode" data-name="Isolation Mode"><path class="cls-1" d="M23.4,2.22A10.23,10.23,0,0,1,20.65,3,4.73,4.73,0,0,0,22.77.34,9.78,9.78,0,0,1,19.71,1.5a4.82,4.82,0,0,0-8.31,3.22,4.94,4.94,0,0,0,.14,1.08A13.63,13.63,0,0,1,1.64.86,4.76,4.76,0,0,0,1,3.24,4.72,4.72,0,0,0,3.11,7.17,4.65,4.65,0,0,1,.94,6.59v.06a4.47,4.47,0,0,0,.33,1.7A4.79,4.79,0,0,0,4.8,11.27a4.72,4.72,0,0,1-1.27.18,4.28,4.28,0,0,1-.9-.1,4.84,4.84,0,0,0,4.48,3.3,9.71,9.71,0,0,1-6,2c-.39,0-.76,0-1.15-.06a13.86,13.86,0,0,0,7.36,2.12A13.36,13.36,0,0,0,20.7,8.13,13,13,0,0,0,21,5.28V4.67A9.93,9.93,0,0,0,23.4,2.22Z"/></g></g></svg>