<svg width="30" height="48" xmlns="http://www.w3.org/2000/svg" viewBox="0 0 29.09 46.76"><defs><style>.cls-1{fill:#99969d;}</style></defs><title>icon-25</title><g id="Слой_2" data-name="Слой 2"><g id="Isolation_Mode" data-name="Isolation Mode"><path class="cls-1" d="M19,43.23q10-1.95,10-10,0-9.14-13.49-12.6-8.4-2.1-8.4-6.15a4.51,4.51,0,0,1,2-3.75,9.29,9.29,0,0,1,5.62-1.5q6.75,0,7,6h6.3Q27.89,6.64,19,4.4V0H10.5V4.4A14.34,14.34,0,0,0,3.37,7.92,8.78,8.78,0,0,0,.6,14.59q0,8.4,13.35,11.7,8.54,2,8.55,6.9a4.7,4.7,0,0,1-1.72,3.52Q19,38.28,14.85,38.28q-8,0-8.55-6H0q.45,8.55,10.5,10.8v3.68H19Z"/></g></g></svg>