<svg width="65" height="40" xmlns="http://www.w3.org/2000/svg" viewBox="0 0 63.86 38.86"><defs><style>.cls-1{fill:#262531;}</style></defs><title>icon-12</title><g id="Слой_2" data-name="Слой 2"><g id="Isolation_Mode" data-name="Isolation Mode"><path class="cls-1" d="M63.73,14.7a53.43,53.43,0,0,0,0-8,9.67,9.67,0,0,0-1.23-4.37A6.13,6.13,0,0,0,58,.16C56.89.05,55.65,0,54.14,0,53,0,51.87,0,50.73.06s-2.26.06-3.38.06H46.21C43,0,39.62,0,35.94,0,32,0,27.77,0,22.26.12c-1.67,0-3.34,0-5,0-2.84,0-5.79,0-8.67.13-3.17.11-5.37,1-6.75,2.79C.19,5.19.19,8.46.2,11.34c0,.71,0,1.39,0,2-.08,2.13-.05,4.29,0,6.38s.06,4.44,0,6.66l0,1c-.17,4-.44,10.12,4.53,11a20.23,20.23,0,0,0,3.48.25c.85,0,1.7,0,2.55-.06s1.68-.06,2.5-.06h.59q2.53,0,5.06,0c2.1,0,4.21,0,6.31,0,2.49,0,5-.07,7.48-.12,3.27-.07,6.65-.14,10-.14,2.49,0,4.72,0,6.82.12.69,0,1.5.1,2.38.19,1.31.13,2.79.27,4.22.27,2.69,0,6.38-.43,7.36-4.14A22,22,0,0,0,63.7,29c0-.56,0-1.11,0-1.62,0-1.33,0-2.65,0-4,0-2.6-.06-5.28.05-7.93ZM62.37,29.58c0,2.13.07,4.79-1.2,6.24-1,1.19-2.58,1.74-4.87,1.74a30.64,30.64,0,0,1-3.12-.21c-.61-.06-1.2-.12-1.75-.16-2.05-.12-4.29-.18-6.85-.18-2.33,0-4.67,0-7,.1-1.7,0-3.4.07-5.1.09q-5.37.05-10.74,0c-3.15,0-6.3,0-9.52,0-.6,0-1.29,0-2,.1s-1.78.12-2.7.12c-1.71,0-4.1-.19-5.16-1.88-1.24-2-1.07-5.45-.95-8,0-.4,0-.78,0-1.14.12-2.65.11-5.34.1-7.95V17.09l3.85,0c4.26,0,8.58.06,12.77.12s8.51.12,12.77.12h1.19c3.06,0,6.13,0,9.19-.06,3.63,0,7.26-.07,10.9-.07,3.83,0,7.19,0,10.29.12,0,3,0,7-.1,11C62.36,28.69,62.36,29.13,62.37,29.58ZM3.86,3A7.7,7.7,0,0,1,8.59,1.59c2.17-.09,4.39-.09,6.54-.1,1.33,0,2.66,0,4,0,7.73-.13,14.86-.19,21.82-.19,5.26,0,10.44,0,15.39.11,2.29,0,4.76.44,5.6,3.24a14,14,0,0,1,.53,3.49c-6.8.28-14.14.42-23.09.42-5.59,0-11.28-.05-16.78-.1s-11.18-.1-16.77-.1H1.76C1.92,6.21,2.06,4.36,3.86,3ZM6.34,9.64h3C6.83,11.84,4.12,13.93,1.7,15.8l.06.1-.18-.11H1.52c0-.78,0-1.56,0-2.27C3,12.15,4.66,10.86,6.34,9.64Zm47,6.23H49.62c2.35-1.81,5-3.9,7.55-6.13a.69.69,0,0,0,.13-.16l4-.13C58.7,11.7,56,13.78,53.47,15.72,53.39,15.78,53.33,15.85,53.38,15.87Zm-9.58,0c2.37-1.82,5.08-3.93,7.56-6.18h.75l3.18-.06c-2.55,2.19-5.25,4.28-7.59,6.07a.7.7,0,0,0-.15.16ZM38,16c2.38-1.83,5.1-3.94,7.55-6.15l3.87,0c-2.52,2.16-5.17,4.2-7.47,6a.63.63,0,0,0-.17.21ZM17,9.69l3.67,0c-2.52,2.17-5.2,4.23-7.52,6-.05,0-.09.09,0,.1l-3.58,0C12.29,13.63,14.64,11.77,17,9.69Zm9.33.08c-2.51,2.15-5.16,4.2-7.46,6a.7.7,0,0,0-.15.17l-3.6,0c2.32-1.78,5-3.85,7.51-6.11Zm5.72,0c-2.5,2.14-5.13,4.17-7.41,5.91a.63.63,0,0,0-.19.24l-3.71,0c2.36-1.81,5.06-3.91,7.56-6.13Zm5.75,0C35.27,12,32.65,14,30.38,15.72a.64.64,0,0,0-.2.27l-3.77,0C28.77,14.16,31.48,12,34,9.82Zm1.95,0h3.84c-2.5,2.14-5.13,4.16-7.4,5.9A.64.64,0,0,0,36,16l-3.81,0C34.53,14.17,37.25,12.05,39.71,9.84ZM11.25,9.75a.44.44,0,0,0,.08-.1l3.69,0c-2.55,2.19-5.24,4.27-7.58,6.1H3.82C6.63,13.62,9,11.76,11.25,9.75Zm-9.66,2q0-1.05.1-2.1H4.21C3.3,10.34,2.42,11,1.58,11.75Zm60.93,1.71-2.94,2.26a.63.63,0,0,0-.18.21l-1.18,0-2.82,0c2.32-1.78,4.77-3.7,7.09-5.73v2.6Zm0,1.66V16l-1.09,0Z"/><path class="cls-1" d="M8.55,25.91l7.33-.1c.47,0,1,0,1.5,0s1.13,0,1.69,0a9,9,0,0,0,2.4-.26.65.65,0,0,0,.46-.46,9,9,0,0,0,0-2.73c0-.36-.06-.71-.07-1a.66.66,0,0,0-.65-.65l-14.48.17a.59.59,0,0,0-.33.1.57.57,0,0,0-.32.55c0,.65,0,1.21,0,1.69,0,1-.07,1.68.34,2.11S7.4,25.91,8.55,25.91Zm2.76-1.25a19.29,19.29,0,0,1-1.94.14,2.57,2.57,0,0,1-1.11-.17c-1-.52-.94-1.18-.88-2.1l0-.28L15,22.15l1.37,0c.54,0,1.08,0,1.62,0,.38,0,.76,0,1.18,0a1.84,1.84,0,0,1,.52-.08,1.42,1.42,0,0,1,.89.3l.07,1.55c-.33.58-1.56.88-3.68.88-1,0-2.11-.07-3-.12-.61,0-1.13-.07-1.54-.07h0C12.19,24.56,11.78,24.61,11.31,24.66Z"/><path class="cls-1" d="M48.05,21.42a.66.66,0,0,0-.65-.65c-3.53,0-7.05.06-10.58.09s-7.06,0-10.58.09a.6.6,0,0,0-.33.1.57.57,0,0,0-.32.55,9.74,9.74,0,0,1-.07,1.15c-.12,1.26-.26,2.7,1,3.16a2.45,2.45,0,0,0,.83.11c.36,0,.75,0,1.11-.07s.56-.05.78-.05l12.2-.1c.54,0,1.13,0,1.73.06s1.3.07,1.94.07a9.38,9.38,0,0,0,2.53-.28.65.65,0,0,0,.46-.46,8.92,8.92,0,0,0,0-2.74C48.1,22.1,48.06,21.75,48.05,21.42ZM42,24.5l-12.17.1c-.21,0-.45,0-.71,0s-.61.06-.9.06a2.14,2.14,0,0,1-.64-.08c-.85-.27-.79-1.18-.74-2.13v-.24l8.95-.07,7.93-.06c.21,0,.48,0,.77-.05s.76-.07,1.12-.07a2.21,2.21,0,0,1,.74.1,1.1,1.1,0,0,0,.28.08s0,0,0,0a1.08,1.08,0,0,0,.12.18,3.87,3.87,0,0,1,0,1.85c-.19.28-.89.42-2.05.42-.6,0-1.22,0-1.74-.07S42.27,24.5,42,24.5Z"/><path class="cls-1" d="M31,28.32h0l-7.12.05-10.47.07c-.59,0-1.24,0-1.9-.07s-1.46-.08-2.18-.08a10,10,0,0,0-2.7.29.65.65,0,0,0-.45.46,8.89,8.89,0,0,0,0,2.73c0,.36.06.71.07,1a.66.66,0,0,0,.64.65h0c4.26-.05,8.52-.07,12.77-.09s8.55,0,12.82-.09a.59.59,0,0,0,.33-.1.57.57,0,0,0,.32-.55c0-.56,0-1.08,0-1.55.06-1,.1-1.78-.36-2.26A2.38,2.38,0,0,0,31,28.32ZM29,29.6c.37,0,.74-.05,1.1-.05a4.52,4.52,0,0,1,.87.07l.25,0h.26c.06,0,.13,0,.27.22a3.94,3.94,0,0,1,.11,2V32c-3.36,0-6.71.05-10.07.07l-10.3.06-3.08,0H8.24l-.76,0H7.36a8.39,8.39,0,0,0,.09-1.58v-.22a.52.52,0,0,0,0-.08L7.52,30c0-.09.05-.17.12-.18a2.1,2.1,0,0,0,.55-.09,1.63,1.63,0,0,1,.44,0l.47,0,.43,0L28,29.64C28.34,29.64,28.67,29.62,29,29.6Z"/><path class="cls-1" d="M58.84,30a.74.74,0,0,0-.56.26.66.66,0,0,0-.14.55,2.18,2.18,0,0,1-.48,1.86c-.95,1.13-3,1.64-4.61,1.64a6,6,0,0,1-.87-.06h-.11a.71.71,0,0,0-.69.67.54.54,0,0,0,.48.6,7.87,7.87,0,0,0,1.18.08c1.76,0,4.28-.56,5.6-2.13a3.5,3.5,0,0,0,.76-3A.55.55,0,0,0,58.84,30Z"/><path class="cls-1" d="M58.74,28.66a.61.61,0,0,0,.48-.21.68.68,0,0,0,.16-.44.62.62,0,0,0-.63-.65.61.61,0,0,0-.48.21.68.68,0,0,0-.16.44A.62.62,0,0,0,58.74,28.66Z"/></g></g></svg>