<svg width="66" height="58" xmlns="http://www.w3.org/2000/svg" viewBox="0 0 64.44 57.45"><defs><style>.cls-1{fill:#99969d;}</style></defs><title>icon-24</title><g id="Слой_2" data-name="Слой 2"><g id="Isolation_Mode" data-name="Isolation Mode"><path class="cls-1" d="M35,18.13l-4.64,6.32h1.49V33H27.53a4.27,4.27,0,0,1-3.18-1.42,8.72,8.72,0,0,0,2.11,7.34c-3.44-2.55-4.2-7.17-3.19-10.73a4.29,4.29,0,0,1,4.25-3.77h0l4.79-6.32H27.53A10.6,10.6,0,0,0,16.95,28.4c0,.11,0,.21,0,.32a10.61,10.61,0,0,0,10.6,10.6H35a3.16,3.16,0,0,0,3.16-3.16V24.45h2.53Z"/><path class="cls-1" d="M28.72,53.53A24.81,24.81,0,1,1,43.29,8.67V4A28.72,28.72,0,1,0,57.43,29.31H53.51A24.83,24.83,0,0,1,28.72,53.53Z"/><rect class="cls-1" x="51.31" y="20.56" width="4.38" height="4.38"/><polygon class="cls-1" points="55.68 11.8 51.35 11.8 51.35 7.42 46.97 7.42 46.97 11.8 46.97 16.18 51.3 16.18 51.35 16.18 55.68 16.18 55.68 20.56 60.06 20.56 60.06 16.18 55.68 16.18 55.68 11.8"/><rect class="cls-1" x="60.06" y="7.42" width="4.38" height="4.38"/></g></g></svg>