<svg width="65" height="49" xmlns="http://www.w3.org/2000/svg" viewBox="0 0 64.03 47.61"><defs><style>.cls-1{fill:#262531;}</style></defs><title>icon-13</title><g id="Слой_2" data-name="Слой 2"><g id="Isolation_Mode" data-name="Isolation Mode"><path class="cls-1" d="M11.17,34.25l-.75,0-.64,0H8.45L6,34.3l-2.49,0H2.62c-2.44,0-2.47.79-2.53,2.9v.34A89.62,89.62,0,0,0,.17,47a.57.57,0,0,0,0,.17l.11,0h0l-.07.13a.6.6,0,0,0,.57.36H13a.66.66,0,0,0,.65-.65c0-1,0-2,.06-2.94,0-1.35.07-2.7.07-4,0-.26,0-.58,0-.94.06-1.33.14-3.15-.56-4.06A2.52,2.52,0,0,0,11.17,34.25ZM6.77,35.62h1c.23,0,.52,0,.85,0s1-.07,1.54-.07c1.14,0,1.84.19,2.14.58a8.46,8.46,0,0,1,.18,2.52c0,.22,0,.39,0,.51,0,.88,0,1.77,0,2.65s0,1.51-.05,2.27,0,1.53-.05,2.3H1.44c-.06-1.15,0-2.32,0-3.45s0-2.21,0-3.32c0-.75,0-1.47,0-2.22.06-1.48.24-1.69,1.55-1.69H4.32Z"/><path class="cls-1" d="M26.93,22.1c-.61,0-1.24.05-1.86.11s-1,.09-1.53.1c-.36,0-.84,0-1.37-.09-.69-.06-1.47-.13-2.21-.13-1.74,0-2.74.42-3,1.28a10.86,10.86,0,0,0-.18,4.25c0,.55.09,1.09.1,1.58.05,2.4,0,4.85-.07,7.22A104.09,104.09,0,0,0,16.85,47a.57.57,0,0,0,0,.17l0,.11a.59.59,0,0,0,.57.37H29.68a.66.66,0,0,0,.65-.65c0-2.13,0-4.25.06-6.38,0-3.3.08-6.6.07-9.91,0-.55,0-1.1,0-1.66a27.73,27.73,0,0,0-.17-4.64C30,22.35,28.35,22.1,26.93,22.1ZM18.13,24c.11-.2.16-.32.2-.41h.23l.38,0a7.31,7.31,0,0,1,.9,0c.39,0,.79,0,1.18,0s.77,0,1.24,0h0c.41,0,.94-.05,1.52-.11.75-.07,1.6-.15,2.38-.15a4.19,4.19,0,0,1,2.3.46c.94.65.81,3.3.72,5,0,.47,0,.89,0,1.2,0,3,0,5.91,0,8.86l0,4.08c0,.27,0,.6,0,.95A6.3,6.3,0,0,1,29,46.06l0,.17h0a1.1,1.1,0,0,0-.36.08,3.63,3.63,0,0,1-1.22.16c-.51,0-1.06,0-1.57-.09s-.88-.08-1.22-.08H18.11c-.21-3.31-.13-6.69,0-10,0-2,.1-4.07.08-6.1,0-.44-.07-1-.14-1.71C17.84,26.92,17.63,24.91,18.13,24Z"/><path class="cls-1" d="M47.12,31.5a5.61,5.61,0,0,0-.41-3c-.46-.71-1.4-1.05-2.87-1.05-.62,0-1.24.06-1.78.11l-.79.06-.86,0c-1,.05-2,.1-3,.11-.23,0-.48,0-.76,0s-.63-.05-.95-.05a2.81,2.81,0,0,0-1.12.18c-1.1.48-1.1,1.38-1.1,2.35,0,.17,0,.35,0,.52a153.87,153.87,0,0,0,0,16.22,1,1,0,0,0,.09.28.6.6,0,0,0,.56.36H46.36A.66.66,0,0,0,47,47c0-1.63,0-3.27.07-4.9.05-3.19.11-6.49,0-9.74C47.1,32.07,47.11,31.79,47.12,31.5Zm-12.37.92c0-.23,0-.5,0-.79a5.55,5.55,0,0,1,.1-1.81.91.91,0,0,0,.06-.46,2.69,2.69,0,0,1,.34-.22A1.57,1.57,0,0,1,36,29c.29,0,.6,0,.87.05l.56,0c.42,0,1-.06,1.77-.14,1-.1,2.22-.23,3.34-.23,1.77,0,2.8.32,3.15,1s.3,2.51.2,3.88c0,.51-.07,1-.07,1.32,0,2.26,0,4.53-.06,6.79l0,3.16c0,.1,0,.23,0,.38a1.87,1.87,0,0,1-.06.91c-.07.13-.13.24-.16.24h0a1.13,1.13,0,0,0-.45-.08l-.28,0a28.82,28.82,0,0,1-3.54.19c-1.2,0-2.42,0-3.62-.09-1,0-1.91-.07-2.85-.09C34.5,41.64,34.64,36.74,34.75,32.42Z"/><path class="cls-1" d="M63.66,15.89c-.26-3.4-.71-3.61-4.09-3.64l-1.49,0-3,0c-1,0-2,0-3,.06h-.21c-.68,0-1.17,0-1.55.72-.59,1.07-.42,2.88-.26,4.48.05.56.11,1.08.11,1.52.06,2.5,0,5,0,7.49v1.15c0,1.88-.06,3.76-.11,5.66A134.69,134.69,0,0,0,50.2,47a.57.57,0,0,0,0,.17l.11,0h0l-.07.13a.6.6,0,0,0,.57.37H63a.66.66,0,0,0,.65-.65c0-3.13.09-6.34.17-9.44C64,30.4,64.21,23,63.66,15.89ZM51.39,35.55c0-1.4.06-2.79.07-4.17,0-3,0-6.09,0-9.06,0-2,0-4,0-6,0-.62,0-1.25.06-1.87l0-.24c0-.6,0-.6.41-.62l.4,0a27.24,27.24,0,0,1,2.83-.13c1,0,2,0,3,.07l1.93.05c2.1,0,2.24.67,2.37,2.66.05.81.07,1.62.08,2.46.1,5.08.06,10.25,0,15.25L62.4,45.09c0,.1,0,.24,0,.38a2.45,2.45,0,0,1,0,.87.49.49,0,0,0,0,.24,11.09,11.09,0,0,0-1.91-.27h-9C51.23,42.74,51.31,39.09,51.39,35.55Z"/><path class="cls-1" d="M40.29,16.41a.59.59,0,0,0,.44-.19A142.12,142.12,0,0,1,56.09,2.53l0,.18a12.52,12.52,0,0,0-.32,2.19.6.6,0,0,0,.16.45.66.66,0,0,0,.47.19A.64.64,0,0,0,57,4.9a12,12,0,0,1,.31-2.1A12.16,12.16,0,0,0,57.66.65.66.66,0,0,0,57,0h0a17.11,17.11,0,0,0-4.66.87.64.64,0,0,0-.44.74.61.61,0,0,0,.59.55.67.67,0,0,0,.21,0,17.34,17.34,0,0,1,2.63-.65C50.84,5,47.26,8.06,44.1,11c-.39.37-.77.77-1.16,1.16A19.67,19.67,0,0,1,41.07,14a2.25,2.25,0,0,1-1.39.63,4,4,0,0,1-1.52-.48l-.4-.18c-2.39-1-4.84-2.06-7.26-3-.52-.21-1.08-.48-1.67-.75a13.12,13.12,0,0,0-4.89-1.59c-1.42,0-2.66,1.13-3.76,2.13-.28.26-.55.51-.81.72-4.25,3.49-8.6,7.26-12.94,11.18a.57.57,0,0,0-.17.65.72.72,0,0,0,.65.45.64.64,0,0,0,.43-.17c4.45-4,8.93-7.9,13.32-11.5a6.34,6.34,0,0,1,4-1.7,4.58,4.58,0,0,1,1.66.32q2.16.83,4.31,1.7c3,1.21,6,2.51,9.34,4A.86.86,0,0,0,40.29,16.41Z"/><path class="cls-1" d="M53.36,21.67a.62.62,0,0,0,.46-.19A.56.56,0,0,0,54,21v-.11c-.29-2.8-.2-4.49.26-5a.4.4,0,0,1,.31-.15v-.1h0l.11.11a.56.56,0,0,0,.57-.57.69.69,0,0,0-.62-.74h-.26c-.92,0-1.48.53-1.64,1.57a19.82,19.82,0,0,0,0,5A.69.69,0,0,0,53.36,21.67Z"/><path class="cls-1" d="M56.35,15.81a.6.6,0,0,0,.47-.21.68.68,0,0,0,.16-.44.62.62,0,0,0-.63-.65.6.6,0,0,0-.47.21.68.68,0,0,0-.16.44A.62.62,0,0,0,56.35,15.81Z"/></g></g></svg>