<svg width="65" height="56" xmlns="http://www.w3.org/2000/svg" viewBox="0 0 63.56 54.86"><defs><style>.cls-1{fill:#262531;}</style></defs><title>icon-14</title><g id="Слой_2" data-name="Слой 2"><g id="Isolation_Mode" data-name="Isolation Mode"><path class="cls-1" d="M63.18,28.16a1.23,1.23,0,0,0-1-.44,4.55,4.55,0,0,0-1,.15,4.17,4.17,0,0,1-.86.13l-.2,0c-1.84-.3-2.27-2.17-2.65-3.81a12.51,12.51,0,0,0-.44-1.6,11.93,11.93,0,0,0-6.19-6.24c.48-2.23.86-6-1.78-7.17A1.64,1.64,0,0,0,48.42,9a2.7,2.7,0,0,0-1.65.84l-.14.11a34.38,34.38,0,0,0-3.51,3.27l-.47-.13A33.83,33.83,0,0,0,37.76,12a8.85,8.85,0,0,0,2-4.14,6,6,0,0,0-1.38-5A7.63,7.63,0,0,0,32.68,0h-.13c-5.21.26-8.26,2.61-9.07,7A5.93,5.93,0,0,0,25,12C19.65,13,12.47,15.28,8.14,21l-.08,0A4.3,4.3,0,0,1,6,19.14H6l.29-.1a5.13,5.13,0,0,0,3-2.8,2.14,2.14,0,0,0-.4-1.91,2.27,2.27,0,0,0-1.88-1A3.2,3.2,0,0,0,4,15.86a4.92,4.92,0,0,0,.12,2.35H4a3,3,0,0,1-2.78-1.48.6.6,0,0,0-.53-.32.72.72,0,0,0-.61.35.6.6,0,0,0,0,.62A4.36,4.36,0,0,0,4,19.49a5.75,5.75,0,0,0,.62,0A6.18,6.18,0,0,0,7.4,22a17.13,17.13,0,0,0-1.87,3.8c-2,5.67-.16,11.12,1.58,16.39,1.22,3.71,2.49,7.55,2.46,11.46a.61.61,0,0,0,.18.44.68.68,0,0,0,.48.2.63.63,0,0,0,.55-.31,6.64,6.64,0,0,1,1.65-1.72,9.56,9.56,0,0,0,.82-.68,7.91,7.91,0,0,1,1.65,2,10.74,10.74,0,0,0,.84,1.1.62.62,0,0,0,.44.19.7.7,0,0,0,.67-.64A22.42,22.42,0,0,1,18,49.8c.24-.73.48-1.47.68-2.21A51,51,0,0,0,30.17,49a34.93,34.93,0,0,0,9.11-1.1,37.59,37.59,0,0,1,1.26,5.64.69.69,0,0,0,.66.63.67.67,0,0,0,.45-.18,16.84,16.84,0,0,0,1.44-1.45l.16-.16c.16-.16.37-.38.54-.58l.31.29.26.24a26.39,26.39,0,0,0,2,2,.7.7,0,0,0,.45.17.65.65,0,0,0,.65-.63l0-.55c.14-3.28.28-6.68,3.2-8.75.86-.61,1.73-1.11,2.57-1.6a13.48,13.48,0,0,0,5.08-4.23c2.61,0,3.42-1.77,3.91-3.69.06-.25.18-.6.31-1C63.17,32.08,64.08,29.24,63.18,28.16Zm-5.71,9.54a12.43,12.43,0,0,1-5.41,4.61,9.51,9.51,0,0,0-4,2.94c-1.46,2-1.72,4.49-1.83,7.06l-.52-.56c-.48-.52-1-1-1.51-1.52a.72.72,0,0,0-.47-.18.62.62,0,0,0-.45.19c-.36.37-.69.75-1,1.14l-.65.74a45.87,45.87,0,0,0-1.27-5.22.67.67,0,0,0-.63-.48l-.17,0a32.9,32.9,0,0,1-9.36,1.22,50.34,50.34,0,0,1-11.86-1.47l-.16,0a.65.65,0,0,0-.64.48c-.23,1-.54,1.94-.83,2.87s-.68,2.15-.92,3.25c-.34-.42-.66-.85-1-1.29s-.63-.85-1-1.26a.54.54,0,0,0-.43-.2.76.76,0,0,0-.49.18c-.31.28-.64.54-1,.8s-.79.64-1.16,1a41.1,41.1,0,0,0-2.42-9.66c-1.47-4.35-3-8.85-2.26-13.5C8,17.22,20.69,14,26.19,13.12a8.2,8.2,0,0,0,4.23,1.69c.27,0,.54,0,.81,0a8.48,8.48,0,0,0,5.23-1.71,23.3,23.3,0,0,1,5.47,1.12l1.23.35.17,0a.59.59,0,0,0,.34-.12l.11-.08a20,20,0,0,1,3.93-3.67,1.68,1.68,0,0,1,.86-.3.78.78,0,0,1,.64.33c.89,1.14.51,4.74.27,5.79a.52.52,0,0,0,.31.68A10.84,10.84,0,0,1,56.14,24c.11.36.2.8.29,1.26.26,1.28.55,2.73,1.47,3.44a3.59,3.59,0,0,0,2.08.57h.21a5.27,5.27,0,0,0,.53,0,6.65,6.65,0,0,1,.73-.06.89.89,0,0,1,.71.21,4.61,4.61,0,0,1-.24,1.22l-.06.24c-.07.34-.13.72-.2,1.11-.4,2.41-.89,5.41-3.44,5.41H58A.57.57,0,0,0,57.47,37.69ZM38.21,8.62a7.25,7.25,0,0,1-6.89,4.95,7.68,7.68,0,0,1-1.62-.17,6.08,6.08,0,0,1-4.31-3.24A5.7,5.7,0,0,1,25.57,5c1.47-2.88,3.86-3.57,7-3.73h.12a5.93,5.93,0,0,1,4.81,2.52A5.23,5.23,0,0,1,38.21,8.62ZM5.81,15.19a1.51,1.51,0,0,1,1-.45,1.09,1.09,0,0,1,1,.6,1.21,1.21,0,0,1-.3,1.29A4.62,4.62,0,0,1,5.46,18l0,0a1.15,1.15,0,0,1-.06-.17A2.51,2.51,0,0,1,5.81,15.19Z"/><path class="cls-1" d="M50,23.67h0a2.66,2.66,0,0,0-2.4,2.63.56.56,0,0,0,.13.45.62.62,0,0,0,.46.19.69.69,0,0,0,.71-.61C49,25.67,49.41,25,50,25l.23,0c.7.17.94.92,1,1.52a.52.52,0,0,0,.54.49.76.76,0,0,0,.56-.26.67.67,0,0,0,.16-.55A2.73,2.73,0,0,0,50,23.67Z"/><path class="cls-1" d="M32.16,2.89h0C30,3,27.23,3.84,26.7,7.17a3.67,3.67,0,0,0,.89,3,5.11,5.11,0,0,0,3.78,1.76h0a5.09,5.09,0,0,0,5.26-4.73,3.8,3.8,0,0,0-1.11-2.82A4.68,4.68,0,0,0,32.16,2.89Zm.07,1.3a3.15,3.15,0,0,1,2.51,1.31A2.75,2.75,0,0,1,35.13,8a3.72,3.72,0,0,1-3.68,2.57h-.31a3.66,3.66,0,0,1-2.71-1.48,2.47,2.47,0,0,1-.33-2.2c.56-1.79,1.78-2.6,4.07-2.71Z"/><path class="cls-1" d="M33.3,15.62l-.77,0c-.45,0-1.35-.05-2.44-.05-3.86,0-8.53.44-8.84,2.56a1.42,1.42,0,0,0,.28,1.1A2.26,2.26,0,0,0,23,20a8.76,8.76,0,0,0,1,0,23.56,23.56,0,0,0,3.28-.32,25,25,0,0,1,3-.31h.53c1.7,0,3.42.17,5.08.33,1.17.11,2.38.23,3.59.29h.43c.84,0,2-.14,2.21-1.39a1.48,1.48,0,0,0-.32-1.26C40.41,15.75,35.43,15.66,33.3,15.62Zm2,2.69c-1.55-.14-3-.21-4.32-.21h-.79c-1.29,0-2.76.06-4.2.22l-.5.08a12.07,12.07,0,0,1-1.82.21c-.55,0-.7-.12-.73-.19s0-.25.16-.46c.3-.41,1.72-.56,2.47-.64l.52-.06a32.16,32.16,0,0,1,5-.39l1.42,0,.85,0a28.76,28.76,0,0,1,3.78.31l.11,0c2.17.36,2.68.73,2.73,1s-.21.37-.42.5a1.22,1.22,0,0,1-.61.1,17.25,17.25,0,0,1-2.7-.37C35.9,18.4,35.54,18.33,35.35,18.31Z"/><path class="cls-1" d="M11,25.29a.59.59,0,0,0-.53.32,12,12,0,0,0-1,9.73.63.63,0,0,0,.62.45.7.7,0,0,0,.56-.27.59.59,0,0,0,.07-.54,10.65,10.65,0,0,1,.9-8.72.6.6,0,0,0,0-.62A.72.72,0,0,0,11,25.29Z"/><path class="cls-1" d="M12.7,22.65a.61.61,0,0,0-.47.21.68.68,0,0,0-.16.44.62.62,0,0,0,.63.65.61.61,0,0,0,.47-.21.68.68,0,0,0,.16-.44A.62.62,0,0,0,12.7,22.65Z"/></g></g></svg>