<svg width="151" height="121" xmlns="http://www.w3.org/2000/svg" viewBox="0 0 150.41 120.22"><defs><style>.cls-1{fill:#4c4953;}.cls-2{fill:#ffc20e;}</style></defs><title>icon-2</title><g id="Слой_2" data-name="Слой 2"><g id="Isolation_Mode" data-name="Isolation Mode"><polygon class="cls-1" points="104.07 38.35 118.5 0 76.87 0 104.07 38.35"/><polygon class="cls-1" points="148.55 41.5 123.38 3.13 108.94 41.5 148.55 41.5"/><polygon class="cls-1" points="49.13 41.5 99.36 41.5 73.47 5 49.13 41.5"/><polygon class="cls-1" points="44.54 38.16 69.99 0 30.25 0 44.54 38.16"/><polygon class="cls-1" points="27.22 0 27.22 0 27.22 0 27.22 0"/><polygon class="cls-1" points="100.75 47.17 47.92 47.17 74.28 117.54 100.75 47.17"/><polygon class="cls-2" points="106.81 47.17 79.33 120.2 147.75 47.17 106.81 47.17"/><polygon class="cls-1" points="150.41 44.34 150.41 44.34 150.41 44.34 150.41 44.34"/><polygon class="cls-2" points="0 41.5 39.74 41.5 25.29 2.94 0 41.5"/><polygon class="cls-1" points="41.87 47.17 0.8 47.17 69.23 120.22 41.87 47.17"/></g></g></svg>