<svg width="44" height="39" xmlns="http://www.w3.org/2000/svg" viewBox="0 0 43.29 38.59"><defs><style>.cls-1{fill:#fff;}.cls-2{fill:#ffd140;}</style></defs><title>logo-3</title><g id="Слой_2" data-name="Слой 2"><g id="Isolation_Mode" data-name="Isolation Mode"><path class="cls-1" d="M23.49,12.18l-3.12,4.24h1v5.75H18.5a2.87,2.87,0,0,1-2.13-1,5.86,5.86,0,0,0,1.42,4.93,6.73,6.73,0,0,1-2.14-7.21,2.88,2.88,0,0,1,2.86-2.53h0l3.22-4.24H18.5a7.12,7.12,0,0,0-7.11,6.9c0,.07,0,.14,0,.22a7.13,7.13,0,0,0,7.12,7.12h5a2.12,2.12,0,0,0,2.12-2.12V16.43h1.7Z"/><path class="cls-2" d="M19.3,36A16.66,16.66,0,1,1,29.08,5.82V2.68a19.29,19.29,0,1,0,9.5,17H36A16.68,16.68,0,0,1,19.3,36Z"/><rect class="cls-1" x="34.47" y="13.81" width="2.94" height="2.94"/><polygon class="cls-1" points="37.41 7.93 34.5 7.93 34.5 4.99 31.56 4.99 31.56 7.93 31.56 10.87 34.47 10.87 34.5 10.87 37.41 10.87 37.41 13.81 40.35 13.81 40.35 10.87 37.41 10.87 37.41 7.93"/><rect class="cls-1" x="40.35" y="4.99" width="2.94" height="2.94"/></g></g></svg>