<svg width="199" height="80" xmlns="http://www.w3.org/2000/svg" viewBox="0 0 198.66 79.91"><defs><style>.cls-1{fill:#ffc20e;}.cls-2{fill:#fff;}</style></defs><title>logo-2</title><g id="Слой_2" data-name="Слой 2"><g id="Isolation_Mode" data-name="Isolation Mode"><path class="cls-1" d="M104,33.21a11.69,11.69,0,0,1,3.73.51,5.79,5.79,0,0,1,2.39,1.46,5.37,5.37,0,0,1,1.27,2.3,11.38,11.38,0,0,1,.37,3V51q-1.08.24-3,.56a29,29,0,0,1-4.68.32,14.83,14.83,0,0,1-3.13-.3,6.8,6.8,0,0,1-2.42-1,4.57,4.57,0,0,1-1.56-1.81A6.26,6.26,0,0,1,96.39,46,5.2,5.2,0,0,1,97,43.38a4.83,4.83,0,0,1,1.68-1.73,7.59,7.59,0,0,1,2.41-.93,13.51,13.51,0,0,1,2.81-.29,16.06,16.06,0,0,1,1.75.08,7.83,7.83,0,0,1,1.24.22v-.47a2.8,2.8,0,0,0-.78-2.07,3.78,3.78,0,0,0-2.71-.78,17.31,17.31,0,0,0-2.54.19,10.92,10.92,0,0,0-2.17.53l-.64-4.07q.44-.14,1.1-.29t1.44-.27q.78-.12,1.64-.2T104,33.21ZM104.39,48q.75,0,1.42,0a9.72,9.72,0,0,0,1.08-.1V44q-.3-.07-.91-.14a10.22,10.22,0,0,0-1.12-.07,10.07,10.07,0,0,0-1.34.08,3.51,3.51,0,0,0-1.1.32,1.89,1.89,0,0,0-.75.64,1.79,1.79,0,0,0-.27,1,1.73,1.73,0,0,0,.8,1.64A4.4,4.4,0,0,0,104.39,48Z"/><path class="cls-1" d="M123.44,51.85a12.63,12.63,0,0,1-3.57-.47,5.29,5.29,0,0,1-2.17-1.24,4.1,4.1,0,0,1-1.08-1.93,10.42,10.42,0,0,1-.29-2.56V26l5-.81V44.63a6.65,6.65,0,0,0,.1,1.22,2.1,2.1,0,0,0,.39.91,2.06,2.06,0,0,0,.83.61,4.54,4.54,0,0,0,1.46.3Z"/><path class="cls-1" d="M132.55,28.54a2.77,2.77,0,0,1-.9,2.19,3.21,3.21,0,0,1-4.24,0,3.11,3.11,0,0,1,0-4.37,3.21,3.21,0,0,1,4.24,0A2.77,2.77,0,0,1,132.55,28.54Zm-.47,23h-5V33.69h5Z"/><path class="cls-1" d="M136,42.6A10.49,10.49,0,0,1,136.6,39a8.52,8.52,0,0,1,4.69-5,9.51,9.51,0,0,1,3.86-.75,12.47,12.47,0,0,1,2.61.25,12.71,12.71,0,0,1,2.3.73l-1.05,4a12.78,12.78,0,0,0-1.56-.47,8.15,8.15,0,0,0-1.9-.2,4,4,0,0,0-3.34,1.39,5.72,5.72,0,0,0-1.1,3.66,5.92,5.92,0,0,0,1,3.73,4.33,4.33,0,0,0,3.61,1.32,12.35,12.35,0,0,0,2-.17,8.34,8.34,0,0,0,1.93-.54l.71,4.13a11.85,11.85,0,0,1-2.2.64,14.55,14.55,0,0,1-2.91.27,11,11,0,0,1-4.2-.73,7.91,7.91,0,0,1-2.9-2,7.72,7.72,0,0,1-1.66-3A12.56,12.56,0,0,1,136,42.6Z"/><path class="cls-1" d="M169.59,42.57a11.59,11.59,0,0,1-.61,3.85,8.36,8.36,0,0,1-1.76,3,7.93,7.93,0,0,1-2.76,1.91,9.22,9.22,0,0,1-3.61.68,9.13,9.13,0,0,1-3.58-.68,7.92,7.92,0,0,1-2.76-1.91,8.75,8.75,0,0,1-1.8-3,11,11,0,0,1-.64-3.85,10.64,10.64,0,0,1,.66-3.83,8.69,8.69,0,0,1,1.83-2.95,8.22,8.22,0,0,1,2.78-1.9,9,9,0,0,1,3.51-.68,9,9,0,0,1,3.54.68,8,8,0,0,1,2.76,1.9,8.62,8.62,0,0,1,1.8,2.95A10.91,10.91,0,0,1,169.59,42.57Zm-5.15,0a6.35,6.35,0,0,0-.93-3.68,3,3,0,0,0-2.66-1.34,3.09,3.09,0,0,0-2.68,1.34,6.26,6.26,0,0,0-.95,3.68,6.42,6.42,0,0,0,.95,3.71,3.07,3.07,0,0,0,2.68,1.37,3,3,0,0,0,2.66-1.37A6.52,6.52,0,0,0,164.44,42.57Z"/><path class="cls-1" d="M179,28.54a2.77,2.77,0,0,1-.9,2.19,3.21,3.21,0,0,1-4.24,0,3.11,3.11,0,0,1,0-4.37,3.21,3.21,0,0,1,4.24,0A2.77,2.77,0,0,1,179,28.54Zm-.47,23h-5V33.69h5Z"/><path class="cls-1" d="M183.28,34.3a28.23,28.23,0,0,1,3.32-.69,27.32,27.32,0,0,1,4.27-.32,10.41,10.41,0,0,1,3.78.59A5.68,5.68,0,0,1,197,35.55a6.54,6.54,0,0,1,1.25,2.58,13.71,13.71,0,0,1,.37,3.32V51.51h-5V42.06A6.81,6.81,0,0,0,193,38.6a2.63,2.63,0,0,0-2.41-1q-.54,0-1.15.05t-1.08.12V51.51h-5Z"/><path class="cls-2" d="M48.65,25.22,42.19,34h2.07v11.9h-6a5.94,5.94,0,0,1-4.42-2,12.13,12.13,0,0,0,2.94,10.21C32,50.61,31,44.19,32.38,39.23A6,6,0,0,1,38.3,34v0L45,25.22H38.3A14.75,14.75,0,0,0,23.58,39.51c0,.15,0,.3,0,.45A14.76,14.76,0,0,0,38.3,54.7H48.65A4.39,4.39,0,0,0,53,50.31V34h3.52Z"/><path class="cls-1" d="M40,74.46A34.5,34.5,0,1,1,60.22,12.05V5.54A39.95,39.95,0,1,0,79.89,40.78H74.44A34.54,34.54,0,0,1,40,74.46Z"/><rect class="cls-2" x="71.37" y="28.6" width="6.09" height="6.09"/><polygon class="cls-2" points="77.46 16.42 71.43 16.42 71.43 10.33 65.34 10.33 65.34 16.42 65.34 22.51 71.37 22.51 71.43 22.51 77.46 22.51 77.46 28.6 83.55 28.6 83.55 22.51 77.46 22.51 77.46 16.42"/><rect class="cls-2" x="83.55" y="10.33" width="6.09" height="6.09"/></g></g></svg>