<svg width="151" height="61" xmlns="http://www.w3.org/2000/svg" viewBox="0 0 150.35 60.48"><defs><style>.cls-1{fill:#bebbc0;}.cls-2{fill:#fff;}.cls-3{fill:#ffc20e;}</style></defs><title>logo-4</title><g id="Слой_2" data-name="Слой 2"><g id="Isolation_Mode" data-name="Isolation Mode"><path class="cls-1" d="M78.7,25.14a8.85,8.85,0,0,1,2.82.38,4.39,4.39,0,0,1,1.81,1.1,4.06,4.06,0,0,1,1,1.74,8.61,8.61,0,0,1,.28,2.28v8q-.82.18-2.28.42a22,22,0,0,1-3.54.24A11.22,11.22,0,0,1,76.37,39a5.14,5.14,0,0,1-1.83-.76,3.46,3.46,0,0,1-1.18-1.37A4.73,4.73,0,0,1,73,34.83a3.94,3.94,0,0,1,.47-2,3.65,3.65,0,0,1,1.27-1.31,5.74,5.74,0,0,1,1.82-.71,10.23,10.23,0,0,1,2.13-.22,12.15,12.15,0,0,1,1.32.06,5.92,5.92,0,0,1,.94.17v-.36a2.12,2.12,0,0,0-.59-1.56,2.86,2.86,0,0,0-2.05-.59,13.1,13.1,0,0,0-1.92.14,8.27,8.27,0,0,0-1.64.4l-.49-3.08q.33-.1.83-.22t1.09-.21q.59-.09,1.24-.15T78.7,25.14ZM79,36.32l1.08,0a7.35,7.35,0,0,0,.82-.08v-2.9q-.23-.05-.69-.1a7.73,7.73,0,0,0-.85-.05,7.62,7.62,0,0,0-1,.06,2.66,2.66,0,0,0-.83.24A1.43,1.43,0,0,0,77,34a1.35,1.35,0,0,0-.21.77,1.31,1.31,0,0,0,.6,1.24A3.33,3.33,0,0,0,79,36.32Z"/><path class="cls-1" d="M93.42,39.24a9.56,9.56,0,0,1-2.71-.36,4,4,0,0,1-1.64-.94,3.1,3.1,0,0,1-.82-1.46A7.88,7.88,0,0,1,88,34.55V19.7l3.82-.62v14.7a5,5,0,0,0,.08.92,1.59,1.59,0,0,0,.29.69,1.56,1.56,0,0,0,.63.46,3.43,3.43,0,0,0,1.1.23Z"/><path class="cls-1" d="M100.32,21.6a2.1,2.1,0,0,1-.68,1.65,2.43,2.43,0,0,1-3.21,0,2.35,2.35,0,0,1,0-3.31,2.43,2.43,0,0,1,3.21,0A2.1,2.1,0,0,1,100.32,21.6ZM100,39H96.14V25.49H100Z"/><path class="cls-1" d="M102.9,32.24a7.94,7.94,0,0,1,.47-2.76,6.45,6.45,0,0,1,3.55-3.78,7.19,7.19,0,0,1,2.92-.56,9.44,9.44,0,0,1,2,.19,9.62,9.62,0,0,1,1.74.55l-.79,3.05a9.67,9.67,0,0,0-1.18-.36,6.17,6.17,0,0,0-1.44-.15,3,3,0,0,0-2.53,1.05,4.33,4.33,0,0,0-.83,2.77,4.48,4.48,0,0,0,.78,2.82,3.28,3.28,0,0,0,2.73,1,9.34,9.34,0,0,0,1.49-.13,6.31,6.31,0,0,0,1.46-.41l.54,3.13a9,9,0,0,1-1.67.49,11,11,0,0,1-2.21.21,8.3,8.3,0,0,1-3.18-.55,6,6,0,0,1-2.19-1.5A5.85,5.85,0,0,1,103.3,35,9.51,9.51,0,0,1,102.9,32.24Z"/><path class="cls-1" d="M128.35,32.21a8.77,8.77,0,0,1-.46,2.91,6.33,6.33,0,0,1-1.33,2.26,6,6,0,0,1-2.09,1.45,7,7,0,0,1-2.73.51,6.91,6.91,0,0,1-2.71-.51,6,6,0,0,1-2.09-1.45,6.63,6.63,0,0,1-1.36-2.26,8.34,8.34,0,0,1-.49-2.91,8,8,0,0,1,.5-2.9A6.57,6.57,0,0,1,117,27.08a6.22,6.22,0,0,1,2.1-1.44,6.77,6.77,0,0,1,2.65-.51,6.84,6.84,0,0,1,2.68.51,6.09,6.09,0,0,1,2.09,1.44,6.53,6.53,0,0,1,1.36,2.23A8.25,8.25,0,0,1,128.35,32.21Zm-3.9,0a4.81,4.81,0,0,0-.71-2.78,2.31,2.31,0,0,0-2-1,2.34,2.34,0,0,0-2,1,4.74,4.74,0,0,0-.72,2.78A4.86,4.86,0,0,0,119.7,35a2.32,2.32,0,0,0,2,1,2.29,2.29,0,0,0,2-1A4.93,4.93,0,0,0,124.45,32.21Z"/><path class="cls-1" d="M135.48,21.6a2.1,2.1,0,0,1-.68,1.65,2.43,2.43,0,0,1-3.21,0,2.35,2.35,0,0,1,0-3.31,2.43,2.43,0,0,1,3.21,0A2.1,2.1,0,0,1,135.48,21.6ZM135.12,39H131.3V25.49h3.82Z"/><path class="cls-1" d="M138.71,26a21.37,21.37,0,0,1,2.51-.53,20.67,20.67,0,0,1,3.23-.24,7.88,7.88,0,0,1,2.86.45,4.3,4.3,0,0,1,1.81,1.27,5,5,0,0,1,.95,1.95,10.38,10.38,0,0,1,.28,2.51V39h-3.82V31.83a5.15,5.15,0,0,0-.49-2.62,2,2,0,0,0-1.82-.77q-.41,0-.87,0l-.82.09V39h-3.82Z"/><path class="cls-2" d="M36.82,19.09l-4.89,6.65h1.57v9H29a4.5,4.5,0,0,1-3.34-1.49A9.18,9.18,0,0,0,27.86,41c-3.62-2.68-4.42-7.54-3.36-11.29a4.52,4.52,0,0,1,4.48-4v0l5-6.65H29A11.16,11.16,0,0,0,17.84,29.9c0,.11,0,.23,0,.34A11.17,11.17,0,0,0,29,41.39h7.83a3.32,3.32,0,0,0,3.32-3.32V25.74H42.8Z"/><path class="cls-3" d="M30.24,56.35A26.11,26.11,0,1,1,45.57,9.12V4.19A30.23,30.23,0,1,0,60.46,30.86H56.34A26.14,26.14,0,0,1,30.24,56.35Z"/><rect class="cls-2" x="54.01" y="21.64" width="4.61" height="4.61"/><polygon class="cls-2" points="58.62 12.43 54.06 12.43 54.06 7.82 49.45 7.82 49.45 12.43 49.45 17.03 54.01 17.03 54.06 17.03 58.62 17.03 58.62 21.64 63.23 21.64 63.23 17.03 58.62 17.03 58.62 12.43"/><rect class="cls-2" x="63.23" y="7.82" width="4.61" height="4.61"/></g></g></svg>