<svg width="761" height="81" viewBox="0 0 761 81" fill="none" xmlns="http://www.w3.org/2000/svg">
<g filter="url(#filter0_d)">
<path d="M756.346 5.36217C756.545 5.17113 756.552 4.85462 756.361 4.65523L753.248 1.406C753.057 1.20661 752.74 1.19985 752.541 1.39089C752.341 1.58194 752.335 1.89845 752.526 2.09784L755.293 4.98604L752.405 7.7534C752.205 7.94445 752.199 8.26096 752.39 8.46035C752.581 8.65974 752.897 8.6665 753.097 8.47545L756.346 5.36217ZM4.63897 3.65403C4.44793 3.85341 4.45469 4.16993 4.65408 4.36097L7.90331 7.47425C8.1027 7.6653 8.41921 7.65853 8.61026 7.45914C8.8013 7.25976 8.79454 6.94325 8.59515 6.7522L5.70695 3.98484L8.4743 1.09664C8.66535 0.897247 8.65859 0.580737 8.4592 0.38969C8.25981 0.198644 7.9433 0.205407 7.75225 0.404796L4.63897 3.65403ZM592.917 72.778C593.777 71.4831 594.759 70.1155 595.863 68.6879L595.072 68.076C593.954 69.521 592.958 70.908 592.083 72.2246L592.917 72.778ZM602.493 61.0139C604.669 58.7264 607.097 56.3598 609.776 53.9509L609.107 53.2073C606.409 55.633 603.963 58.0177 601.768 60.3246L602.493 61.0139ZM617.559 47.419C620.12 45.4095 622.849 43.3939 625.747 41.3923L625.179 40.5695C622.264 42.5826 619.519 44.6103 616.942 46.6323L617.559 47.419ZM634.271 35.8597C637.081 34.1465 640.02 32.4586 643.089 30.8093L642.615 29.9285C639.531 31.5864 636.576 33.2833 633.751 35.0058L634.271 35.8597ZM652.169 26.2319C655.169 24.8159 658.275 23.4421 661.487 22.1206L661.107 21.1958C657.879 22.5238 654.757 23.9044 651.742 25.3276L652.169 26.2319ZM670.964 18.4921C674.099 17.3787 677.323 16.3175 680.637 15.3161L680.347 14.3589C677.018 15.3649 673.779 16.4311 670.63 17.5497L670.964 18.4921ZM690.425 12.6052C693.66 11.7891 696.972 11.0311 700.361 10.3373L700.16 9.35761C696.756 10.0544 693.43 10.8158 690.181 11.6355L690.425 12.6052ZM710.346 8.52037C713.639 7.99485 716.998 7.53014 720.424 7.13126L720.308 6.13797C716.868 6.53848 713.495 7.00512 710.188 7.53288L710.346 8.52037ZM730.569 6.16193C733.891 5.91282 737.272 5.7254 740.711 5.60377L740.676 4.6044C737.223 4.72649 733.83 4.91463 730.495 5.16473L730.569 6.16193ZM750.874 5.43923C752.566 5.44387 754.271 5.46432 755.989 5.50103L756.011 4.50126C754.286 4.46441 752.575 4.44389 750.877 4.43924L750.874 5.43923ZM5.01068 4.49983C6.72897 4.46312 8.43398 4.44266 10.1257 4.43803L10.123 3.43803C8.42503 3.44268 6.7138 3.46321 4.98932 3.50006L5.01068 4.49983ZM20.2892 4.60257C23.7281 4.7242 27.1086 4.91162 30.4307 5.16073L30.5055 4.16353C27.1702 3.91343 23.7766 3.72529 20.3245 3.6032L20.2892 4.60257ZM40.576 6.13005C44.0022 6.52893 47.3615 6.99364 50.654 7.51916L50.8116 6.53166C47.5052 6.00391 44.1319 5.53727 40.6916 5.13676L40.576 6.13005ZM60.6392 9.33608C64.0282 10.0299 67.3401 10.7879 70.5749 11.6039L70.8195 10.6343C67.5701 9.8146 64.2435 9.05322 60.8397 8.3564L60.6392 9.33608ZM80.3634 14.3149C83.6769 15.3162 86.901 16.3775 90.0358 17.4908L90.3704 16.5485C87.2208 15.4298 83.9815 14.3636 80.6527 13.3576L80.3634 14.3149ZM99.5125 21.1193C102.725 22.4408 105.831 23.8146 108.831 25.2307L109.258 24.3263C106.243 22.9031 103.121 21.5225 99.893 20.1945L99.5125 21.1193ZM117.911 29.808C120.98 31.4573 123.919 33.1452 126.729 34.8584L127.249 34.0045C124.424 32.282 121.469 30.5851 118.385 28.9272L117.911 29.808ZM135.253 40.391C138.151 42.3926 140.88 44.4082 143.441 46.4177L144.058 45.631C141.481 43.6089 138.736 41.5813 135.821 39.5682L135.253 40.391ZM151.224 52.9495C153.903 55.3584 156.331 57.7251 158.507 60.0126L159.232 59.3233C157.037 57.0164 154.591 54.6317 151.893 52.2059L151.224 52.9495ZM165.137 67.6865C166.241 69.1142 167.223 70.4817 168.084 71.7766L168.916 71.2233C168.042 69.9067 167.046 68.5196 165.928 67.0747L165.137 67.6865Z" fill="#CCCCCC"/>
</g>
<defs>
<filter id="filter0_d" x="0.5" y="0.250732" width="760" height="80.5272" filterUnits="userSpaceOnUse" color-interpolation-filters="sRGB">
<feFlood flood-opacity="0" result="BackgroundImageFix"/>
<feColorMatrix in="SourceAlpha" type="matrix" values="0 0 0 0 0 0 0 0 0 0 0 0 0 0 0 0 0 0 127 0"/>
<feOffset dy="4"/>
<feGaussianBlur stdDeviation="2"/>
<feColorMatrix type="matrix" values="0 0 0 0 0 0 0 0 0 0 0 0 0 0 0 0 0 0 0.25 0"/>
<feBlend mode="normal" in2="BackgroundImageFix" result="effect1_dropShadow"/>
<feBlend mode="normal" in="SourceGraphic" in2="effect1_dropShadow" result="shape"/>
</filter>
</defs>
</svg>
