<svg width="22" height="35" viewBox="0 0 22 35" fill="none" xmlns="http://www.w3.org/2000/svg">
<path id="Vector" fill-rule="evenodd" clip-rule="evenodd" d="M5.18797 12.7621C6.7925 13.2551 8.29006 13.9124 9.62717 14.7887C8.34354 15.939 6.7925 16.8701 5.18797 17.4726V12.7621ZM0 31.1111L21.6611 35C22.9982 27.3318 20.324 19.4444 14.6012 14.241C17.5428 10.133 18.7195 4.98435 17.8103 0L0 3.17684V7.06573C1.76498 7.06573 3.52996 7.28482 5.18797 7.66823L14.5477 5.97027C14.1733 8.27073 13.2641 10.4069 11.927 12.2144C8.504 9.91393 4.38571 8.59937 0 8.59937C0 13.036 0 17.4178 0 21.8545C4.81358 21.8545 9.14581 19.9374 12.4083 16.8153C15.7779 19.8826 18.0777 24.2097 18.559 29.0297L5.18797 26.6197V23.1142C3.52996 23.5524 1.81846 23.8263 0 23.8263V31.1111H0Z" fill="white"/>
</svg>
