<svg width="250" height="41" viewBox="0 0 250 41" fill="none" xmlns="http://www.w3.org/2000/svg">
<path fill-rule="evenodd" clip-rule="evenodd" d="M96.5525 27.2692C96.5525 24.8952 100.15 25.1518 101.756 25.6651V28.1033C100.214 29.1941 96.5525 29.7715 96.5525 27.2692ZM108.18 27.6542V24.1894C108.18 17.1956 106.253 14.1158 98.6724 14.1158C95.9744 14.1158 93.0836 14.8216 91.606 15.3349V20.7246C93.4048 20.0188 95.5889 19.313 97.9658 19.313C100.535 19.313 101.756 20.2754 101.756 21.5587V22.2003C97.2591 21.2379 89.9358 21.687 89.9358 27.7825C89.9358 34.3271 98.287 34.5196 102.591 31.1831C104.133 33.5571 107.794 33.5571 110.171 32.5947V28.6166C109.272 29.0016 108.18 28.8091 108.18 27.6542ZM84.0257 32.8513V20.0188H88.8437V14.7574H84.0257V13.8592C84.0257 10.651 87.8159 10.7794 89.6146 11.8701V6.60877C84.09 4.68389 77.6018 5.90298 77.6018 13.8592V14.7574H74.5825V20.0188H77.6018V32.8513H84.0257ZM60.0643 27.2692C60.0643 24.8952 63.6617 25.1518 65.2677 25.6651V28.1033C63.7902 29.1941 60.0643 29.7715 60.0643 27.2692ZM71.6917 27.6542V23.5477C71.6917 13.0251 63.1478 12.7042 55.1178 15.3349V20.7246C57.1735 19.8905 65.2677 17.7089 65.2677 21.6229V22.2645C60.7709 21.302 53.4476 21.7512 53.4476 27.8466C53.4476 34.3913 61.7988 34.5837 66.1028 31.2473C67.6446 33.6213 71.3063 33.6213 73.6831 32.6589V28.6808C72.7838 29.0016 71.6917 28.8091 71.6917 27.6542ZM44.9037 23.8044C44.9037 25.1518 44.454 26.5634 43.3619 27.3975C41.4347 28.9374 38.3512 28.1033 37.3234 25.9218V21.7512C38.3512 19.698 41.1778 18.7997 43.105 20.083C44.3898 20.8529 44.9037 22.3286 44.9037 23.8044ZM30.8994 5.90298V32.8513H36.6168V30.4132C38.8009 34.0063 44.5825 34.2629 47.7945 31.9531C50.3641 30.1565 51.5846 26.8842 51.5846 23.8044C51.5846 21.5587 51.0065 19.313 49.7217 17.5164C47.0236 13.7308 40.6639 12.8326 37.3876 16.169V5.90298H30.8994Z" fill="white"/>
<path fill-rule="evenodd" clip-rule="evenodd" d="M6.23126 14.9499C8.15846 15.5274 9.95717 16.2973 11.5632 17.3239C10.0214 18.6714 8.15846 19.7621 6.23126 20.4679V14.9499ZM0 36.4444L26.0171 41C27.6231 32.0172 24.4111 22.7778 17.5375 16.6823C21.0707 11.8701 22.4839 5.83881 21.3919 0L0 3.72144V8.27699C2.11991 8.27699 4.23983 8.53365 6.23126 8.98279L17.4732 6.99374C17.0236 9.68858 15.9315 12.1909 14.3255 14.3083C10.2141 11.6135 5.26767 10.0736 0 10.0736C0 15.2707 0 20.4038 0 25.6009C5.78158 25.6009 10.985 23.3552 14.9036 19.698C18.9507 23.2911 21.7131 28.3599 22.2912 34.0063L6.23126 31.1831V27.0767C4.23983 27.59 2.18415 27.9108 0 27.9108V36.4444H0Z" fill="white"/>
<path d="M125.139 0H118.715V41H125.139V0Z" fill="#73C3BC"/>
<path fill-rule="evenodd" clip-rule="evenodd" d="M177.772 31.8201V23.724H175.633L172.321 28.3693C172.39 27.9711 172.39 27.5066 172.39 27.0421V23.724H170.182V31.8864H172.321L175.633 27.2412C175.564 27.6393 175.564 28.1039 175.564 28.5684V31.8864H177.772V31.8201ZM166.456 26.5112C166.456 27.2412 165.835 27.4403 165.145 27.4403H163.902V25.5821H165.145C165.835 25.5821 166.456 25.7812 166.456 26.5112ZM161.694 23.724V31.8864H163.902V29.2984H165.007C167.077 29.2984 168.664 28.6348 168.664 26.5112C168.664 24.3877 167.077 23.724 165.007 23.724H161.694ZM153.828 23.724V31.8864H159.969V30.0283H156.036V28.7011H159.555V26.843H156.036V25.5821H159.9V23.724H153.828ZM149.757 26.1794C149.757 26.6439 149.412 26.9094 148.86 26.9094H147.48V25.3831H148.86C149.412 25.3831 149.757 25.7149 149.757 26.1794ZM150.102 29.2984C150.102 29.962 149.688 30.1611 148.998 30.1611H147.411V28.4357H148.929C149.619 28.4357 150.102 28.7011 150.102 29.2984ZM145.203 23.724V31.8864H148.86C150.447 31.8864 152.31 31.4219 152.31 29.5638C152.31 28.4357 151.62 27.8384 150.723 27.573C151.551 27.3075 151.965 26.7103 151.965 25.7812C151.965 24.3877 150.861 23.724 148.998 23.724H145.203ZM138.648 25.6485H140.373V30.0283H137.613C138.234 28.8338 138.51 27.2412 138.648 25.6485ZM136.233 33.5455V31.8864H141.822V33.5455H143.754V30.0283H142.581V23.724H136.509C136.509 25.8476 136.233 28.1702 135.198 30.0283H134.301V33.5455H136.233ZM243.807 11.3809V19.5433H249.948V17.6852H246.015V16.358H249.534V14.4999H246.015V13.239H249.879V11.3809H243.807ZM241.806 19.5433V11.3809H239.598V19.5433H241.806ZM234.216 15.8271H235.458C236.148 15.8271 236.769 16.0262 236.769 16.7561C236.769 17.4861 236.148 17.6852 235.458 17.6852H234.216V15.8271ZM235.389 19.5433C237.459 19.5433 239.046 18.8797 239.046 16.7561C239.046 14.6326 237.459 13.969 235.389 13.969H234.285V11.3809H232.077V19.5433H235.389ZM227.798 11.3809V14.4999H224.624V11.3809H222.416V19.5433H224.624V16.4243H227.798V19.5433H230.007V11.3809H227.798ZM214.067 11.3809V13.3054H216.482V19.5433H218.69V13.3054H221.105V11.3809H214.067ZM209.789 14.1681C209.858 13.969 209.927 13.7699 209.996 13.3717C210.065 13.7699 210.134 13.969 210.203 14.1681L211.1 16.4907H208.892L209.789 14.1681ZM207.719 19.5433L208.202 18.2824H211.721L212.204 19.5433H214.481L211.169 11.3809H208.754L205.442 19.5433H207.719ZM201.992 11.3809V14.4999H198.818V11.3809H196.609V19.5433H198.818V16.4243H201.992V19.5433H204.2V11.3809H201.992ZM192.538 11.3809L189.985 15.1635L187.432 11.3809H185.293V19.5433H187.501V15.2298L189.295 17.8843H190.606L192.4 15.2298V19.5433H194.608V11.3809H192.538ZM181.429 15.4289C181.429 16.7561 180.67 17.6852 179.221 17.6852C177.772 17.6852 177.013 16.6898 177.013 15.4289C177.013 14.1017 177.772 13.1727 179.221 13.1727C180.67 13.1727 181.429 14.1681 181.429 15.4289ZM174.667 15.4289C174.667 17.6852 176.185 19.676 179.221 19.676C182.257 19.676 183.775 17.6852 183.775 15.4289C183.775 13.1727 182.257 11.1818 179.221 11.1818C176.185 11.2482 174.667 13.1727 174.667 15.4289ZM168.871 19.5433V16.4243H169.906L171.976 19.5433H174.46L171.7 15.3626L174.391 11.3809H171.907L169.975 14.4335H168.94V11.3809H166.732V19.5433H168.871ZM155.691 19.5433L157.485 16.4243H158.244V19.5433H160.452V16.4243H161.211L163.005 19.5433H165.49L163.074 15.3626L165.352 11.3809H162.867L161.211 14.4335H160.452V11.3809H158.244V14.4335H157.485L155.829 11.3809H153.345L155.622 15.3626L153.207 19.5433H155.691ZM146.169 11.3809V19.5433H152.31V17.6852H148.377V16.358H151.896V14.4999H148.377V13.239H152.241V11.3809H146.169ZM142.098 11.3809L139.545 15.1635L136.992 11.3809H134.853V19.5433H137.061V15.2298L138.855 17.8843H140.166L141.96 15.2298V19.5433H144.168V11.3809H142.098Z" fill="white"/>
</svg>
