<svg width="56" height="88" viewBox="0 0 56 88" fill="none" xmlns="http://www.w3.org/2000/svg">
<path fill-rule="evenodd" clip-rule="evenodd" d="M13.2058 32.0876C17.29 33.3271 21.102 34.9797 24.5055 37.1831C21.2381 40.0751 17.29 42.4163 13.2058 43.9311V32.0876ZM0 78.2222L55.1374 88C58.541 68.7199 51.7339 48.8889 37.1667 35.8059C44.6545 25.4773 47.6496 12.5321 45.3352 0L0 7.98748V17.7653C4.49268 17.7653 8.98536 18.3161 13.2058 19.2801L37.0306 15.011C36.0776 20.795 33.7632 26.1659 30.3596 30.7105C21.6465 24.9264 11.1636 21.6213 0 21.6213C0 32.7762 0 43.7934 0 54.9484C12.2528 54.9484 23.2802 50.1283 31.5849 42.2786C40.1618 49.9906 46.0159 60.8701 47.2412 72.989L13.2058 66.9296V58.1158C8.98536 59.2175 4.62882 59.9061 0 59.9061V78.2222H0Z" fill="#383D48"/>
</svg>
