<svg width="217" height="178" viewBox="0 0 217 178" fill="none" xmlns="http://www.w3.org/2000/svg">
<g filter="url(#filter0_d)">
<path d="M60 133L41 85.5L157 37L176 87L60 133Z" fill="#73C3BC" fill-opacity="0.33"/>
<path d="M60 133L41 85.5L157 37L176 87L60 133Z" stroke="#8DDCD5"/>
</g>
<path fill-rule="evenodd" clip-rule="evenodd" d="M138.586 78.8121C137.952 77.2083 140.451 76.4215 141.673 76.3396L142.324 77.9868C141.573 79.1352 139.254 80.5027 138.586 78.8121ZM146.544 75.9688L145.619 73.6281C143.752 68.9032 141.628 67.337 136.507 69.3602C134.685 70.0803 132.92 71.3287 132.059 72.0698L133.497 75.711C134.524 74.7541 135.811 73.6943 137.417 73.0599C139.153 72.3741 140.235 72.6985 140.577 73.5654L140.748 73.9989C137.453 74.5489 132.626 76.807 134.253 80.9249C136 85.3463 141.693 83.2474 143.71 79.8446C145.385 81.0369 147.859 80.0596 149.208 78.775L148.146 76.0875C147.641 76.5876 146.852 76.749 146.544 75.9688ZM131.613 85.9268L128.188 77.2574L131.443 75.9714L130.039 72.417L126.784 73.7029L126.544 73.0961C125.688 70.9287 128.282 70.0038 129.789 70.2606L128.384 66.7062C124.138 66.8803 120.08 69.4357 122.204 74.8107L122.444 75.4175L120.404 76.2234L121.808 79.7779L123.848 78.972L127.273 87.6414L131.613 85.9268ZM113.935 88.551C113.302 86.9472 115.8 86.1604 117.022 86.0785L117.673 87.7257C116.966 88.857 114.603 90.2416 113.935 88.551ZM121.893 85.7077L120.797 82.9335C117.989 75.8246 112.131 77.8883 107.408 81.8088L108.847 85.4499C110.013 84.3377 114.899 80.7035 115.944 83.3477L116.115 83.7812C112.82 84.3312 107.992 86.5892 109.619 90.7072C111.366 95.1286 117.059 93.0297 119.077 89.6268C120.752 90.8192 123.225 89.8418 124.574 88.5572L123.513 85.8697C122.991 86.3265 122.201 86.488 121.893 85.7077ZM102.768 90.2568C103.128 91.167 103.201 92.2407 102.686 93.0957C101.795 94.6504 99.489 94.9099 98.2124 93.7104L97.0992 90.8929C97.2456 89.2315 98.9154 87.8702 100.56 88.2227C101.633 88.4 102.374 89.2598 102.768 90.2568ZM88.5293 81.9008L95.722 100.107L99.5845 98.5805L98.9338 96.9333C101.368 98.7778 105.343 97.408 106.896 94.9903C108.153 93.0907 108.104 90.5542 107.282 88.4736C106.682 86.9564 105.692 85.5936 104.345 84.7228C101.512 82.8855 96.9755 83.9761 95.6527 87.1046L92.9126 80.169L88.5293 81.9008Z" fill="white"/>
<path fill-rule="evenodd" clip-rule="evenodd" d="M74.2785 94.5968C75.7346 94.4726 77.1553 94.5126 78.5143 94.7776C77.8324 96.0993 76.8649 97.3335 75.7513 98.3247L74.2785 94.5968ZM75.8058 110.781L94.5983 106.915C93.2858 100.418 88.6498 95.0328 82.3791 92.7495C83.4817 88.5555 82.8267 84.1036 80.5305 80.4505L67.0719 88.6743L68.2878 91.7519C69.72 91.1861 71.2206 90.7937 72.6859 90.5656L79.7498 86.2213C80.1653 88.1619 80.0954 90.1439 79.5756 92.003C76.0788 91.2797 72.326 91.5597 68.7673 92.9656C70.1545 96.4767 71.5245 99.9445 72.9117 103.456C76.8176 101.912 79.7335 99.0065 81.4047 95.4898C85.0978 96.837 88.3169 99.5242 90.2145 103.184L78.6113 105.564L77.5152 102.789C76.3069 103.668 75.0037 104.433 73.5282 105.016L75.8058 110.781V110.781Z" fill="white"/>
<defs>
<filter id="filter0_d" x="0.353027" y="0.339355" width="216.29" height="177.309" filterUnits="userSpaceOnUse" color-interpolation-filters="sRGB">
<feFlood flood-opacity="0" result="BackgroundImageFix"/>
<feColorMatrix in="SourceAlpha" type="matrix" values="0 0 0 0 0 0 0 0 0 0 0 0 0 0 0 0 0 0 127 0"/>
<feOffset dy="4"/>
<feGaussianBlur stdDeviation="20"/>
<feColorMatrix type="matrix" values="0 0 0 0 0 0 0 0 0 0 0 0 0 0 0 0 0 0 0.25 0"/>
<feBlend mode="normal" in2="BackgroundImageFix" result="effect1_dropShadow"/>
<feBlend mode="normal" in="SourceGraphic" in2="effect1_dropShadow" result="shape"/>
</filter>
</defs>
</svg>
