<svg width="396" height="622" viewBox="0 0 396 622" fill="none" xmlns="http://www.w3.org/2000/svg">
<path fill-rule="evenodd" clip-rule="evenodd" d="M93.3835 226.801C122.265 235.562 149.221 247.243 173.289 262.817C150.184 283.258 122.265 299.806 93.3835 310.513V226.801ZM0 552.889L389.9 622C413.968 485.725 365.832 345.556 262.822 253.083C315.771 180.078 336.951 88.579 320.585 0L0 56.457V125.568C31.7697 125.568 63.5393 129.462 93.3835 136.275L261.859 106.1C255.12 146.983 238.754 184.945 214.686 217.067C153.072 176.185 78.9428 152.823 0 152.823C0 231.668 0 309.54 0 388.385C86.6445 388.385 164.625 354.316 223.35 298.833C284.001 353.343 325.398 430.241 334.063 515.9L93.3835 473.07V410.773C63.5393 418.56 32.7324 423.427 0 423.427V552.889H0Z" fill="#303540"/>
</svg>
