<svg width="9" height="15" viewBox="0 0 9 15" fill="none" xmlns="http://www.w3.org/2000/svg">
<path d="M7.80399 0.00249181L5.85922 0C3.674 0 2.26121 1.45017 2.26121 3.69269V5.39452H0.303987C0.137043 5.39452 0 5.53032 0 5.69975V8.16653C0 8.33472 0.137043 8.47176 0.303987 8.47176H2.26121V14.6948C2.26121 14.8642 2.39826 15 2.56645 15H5.11919C5.28738 15 5.42442 14.8642 5.42442 14.6948V8.47301H7.71179C7.88123 8.47301 8.01703 8.33596 8.01703 8.16777L8.01952 5.701C8.01952 5.62126 7.98588 5.54277 7.92982 5.48547C7.87126 5.42816 7.79402 5.39576 7.71304 5.39576H5.42442V3.95058C5.42442 3.25664 5.58887 2.90532 6.49211 2.90532H7.80274C7.97342 2.90532 8.10922 2.76827 8.10922 2.59884V0.310216C8.11047 0.142027 7.97342 0.00373766 7.80399 0.00249181Z" fill="white"/>
</svg>
