<svg width="46" height="46" viewBox="0 0 46 46" fill="none" xmlns="http://www.w3.org/2000/svg">
<path d="M23 0C22.2557 0 21.6523 0.603391 21.6523 1.34766V7.63672C21.6523 8.38098 22.2557 8.98438 23 8.98438C23.7443 8.98438 24.3477 8.38098 24.3477 7.63672V1.34766C24.3477 0.603391 23.7443 0 23 0Z" fill="#73C3BC"/>
<path d="M23 12.3086C22.2557 12.3086 21.6523 12.912 21.6523 13.6562V19.9453C21.6523 20.6896 22.2557 21.293 23 21.293C23.7443 21.293 24.3477 20.6896 24.3477 19.9453V13.6562C24.3477 12.912 23.7443 12.3086 23 12.3086Z" fill="#73C3BC"/>
<path d="M23 24.707C22.2557 24.707 21.6523 25.3104 21.6523 26.0547V32.3438C21.6523 33.088 22.2557 33.6914 23 33.6914C23.7443 33.6914 24.3477 33.088 24.3477 32.3438V26.0547C24.3477 25.3104 23.7443 24.707 23 24.707Z" fill="#73C3BC"/>
<path d="M23 37.0156C22.2557 37.0156 21.6523 37.619 21.6523 38.3633V44.6523C21.6523 45.3966 22.2557 46 23 46C23.7443 46 24.3477 45.3966 24.3477 44.6523V38.3633C24.3477 37.619 23.7443 37.0156 23 37.0156Z" fill="#73C3BC"/>
<path d="M16.1181 9.2991L5.3369 5.98908C4.9282 5.86347 4.48419 5.93948 4.14045 6.19356C3.79662 6.44764 3.59375 6.84978 3.59375 7.27734V38.7227C3.59375 39.1502 3.79662 39.5524 4.14045 39.8064C4.48554 40.0615 4.92991 40.136 5.3369 40.0108L16.1181 36.7008C16.6841 36.5271 17.0703 36.0044 17.0703 35.4125V10.5874C17.0703 9.99548 16.684 9.47286 16.1181 9.2991ZM14.375 34.4165L6.28906 36.8991V9.10081L14.375 11.5834V34.4165Z" fill="#73C3BC"/>
<path d="M41.8596 6.19356C41.5157 5.93948 41.0717 5.86347 40.6631 5.98908L29.8819 9.2991C29.3159 9.47277 28.9297 9.99548 28.9297 10.5874V35.4126C28.9297 36.0045 29.316 36.5271 29.8819 36.7009L40.6631 40.0109C41.0733 40.1369 41.5171 40.0595 41.8596 39.8064C42.2034 39.5524 42.4062 39.1502 42.4062 38.7227V7.27734C42.4062 6.84978 42.2034 6.44764 41.8596 6.19356ZM39.7109 36.8992L31.625 34.4166V11.5834L39.7109 9.10081V36.8992Z" fill="#73C3BC"/>
</svg>
