<svg width="46" height="46" viewBox="0 0 46 46" fill="none" xmlns="http://www.w3.org/2000/svg">
<path d="M35.9498 24.4357C35.9498 11.2468 24.4663 0.8111 23.9773 0.373531C23.4214 -0.124372 22.5799 -0.124567 22.0236 0.373531C21.5347 0.811295 10.0503 11.2468 10.0503 24.4357C10.0503 27.6207 11.4263 30.8716 13.8254 33.355C15.9734 35.5786 18.6695 36.9438 21.536 37.2929V44.5354C21.536 45.3441 22.1915 45.9998 23.0005 45.9998C23.8094 45.9998 24.4649 45.3441 24.4649 44.5354V37.2929C27.3312 36.9438 30.0269 35.5784 32.1748 33.355C34.5739 30.8716 35.9498 27.6205 35.9498 24.4357ZM15.5239 14.0942L21.536 20.1069V26.226L13.8383 18.5273C14.2776 16.976 14.8591 15.4908 15.5239 14.0942ZM24.4649 26.228V20.1083L30.477 14.0955C31.1421 15.493 31.7235 16.9787 32.1629 18.5308L24.4649 26.228ZM29.0403 11.3965C29.0171 11.4172 28.9931 11.4371 28.9708 11.4596L24.4649 15.9661V5.10361C25.8092 6.63989 27.5093 8.8 29.0403 11.3965ZM21.536 5.10342V15.9645L17.0315 11.4596C17.0084 11.4367 16.9844 11.4164 16.9604 11.3953C18.492 8.79903 20.1917 6.6393 21.536 5.10342ZM12.9791 24.4357C12.9791 23.6022 13.0363 22.7792 13.1363 21.9677L21.5362 30.3682V34.3376C16.551 33.536 12.9791 28.7536 12.9791 24.4357ZM24.4649 34.3374V30.3698L32.864 21.9712C32.964 22.7815 33.0212 23.6033 33.0212 24.4357C33.021 28.7536 29.4496 33.536 24.4649 34.3374Z" fill="#73C3BC"/>
</svg>
