<svg width="47" height="47" viewBox="0 0 47 47" fill="none" xmlns="http://www.w3.org/2000/svg">
<path d="M41.5616 16.6249L37.9875 12.9307L38.7074 7.84242C38.8176 7.06418 38.2907 6.33878 37.5164 6.20318L32.4541 5.31577L30.0444 0.774347C29.6761 0.080225 28.8231 -0.196802 28.1175 0.148413L23.5009 2.40504L18.8831 0.148413C18.1769 -0.196802 17.3247 0.0804193 16.9562 0.774735L14.5474 5.31577L9.48458 6.20318C8.71042 6.33878 8.18337 7.06418 8.29352 7.84242L9.01329 12.9307L5.43913 16.6249C4.89265 17.1899 4.89265 18.0862 5.43933 18.6511L9.01329 22.345L8.29352 27.436C8.18356 28.214 8.71042 28.9394 9.48458 29.075L13.5364 29.7853V45.543C13.5364 46.0479 13.7979 46.5168 14.2275 46.7822C14.4614 46.9269 14.7271 47 14.9935 47C15.2161 47 15.4393 46.9491 15.645 46.8461L23.5011 42.9196L31.3559 46.8461C31.8074 47.0719 32.344 47.0478 32.7735 46.7822C33.203 46.5167 33.4645 46.0477 33.4645 45.5428V29.7855L37.5166 29.0748C38.2907 28.939 38.8176 28.2138 38.7076 27.4356L37.9877 22.3446L41.5616 18.6509C42.1079 18.0864 42.1079 17.1899 41.5616 16.6249ZM24.1524 39.9873C23.7425 39.7823 23.2598 39.7821 22.8495 39.9873L16.4505 43.1857V33.549L16.9563 34.5027C17.3247 35.1972 18.1779 35.474 18.8835 35.1286L23.5011 32.8704L28.1173 35.1286C28.3232 35.2293 28.5416 35.277 28.7566 35.277C29.2792 35.277 29.7835 34.9946 30.0446 34.5029L30.5505 33.55V43.1857L24.1524 39.9873ZM35.3979 20.8304C35.0853 21.1535 34.9394 21.6027 35.0024 22.0477L35.6246 26.4481L31.2495 27.2153C30.8069 27.2928 30.4248 27.5704 30.214 27.9673L28.1313 31.8915L24.1412 29.9397C23.9391 29.841 23.72 29.7915 23.5009 29.7915C23.2817 29.7915 23.0626 29.8408 22.8608 29.9397L18.8697 31.8915L16.7877 27.9675C16.5771 27.5704 16.195 27.2928 15.7523 27.2153L11.3762 26.4481L11.9982 22.0475C12.0612 21.6027 11.9153 21.1533 11.6027 20.8304L8.51363 17.6378L11.6029 14.4448C11.9153 14.1218 12.0612 13.6726 11.9982 13.2277L11.3762 8.83009L15.7523 8.06292C16.195 7.98541 16.5771 7.7076 16.7879 7.31052L18.8699 3.38532L22.8611 5.33577C23.2648 5.53315 23.7371 5.53315 24.1408 5.33577L28.1309 3.38532L30.214 7.31071C30.4246 7.7076 30.8067 7.98521 31.2495 8.06292L35.6246 8.82989L35.0024 13.2275C34.9394 13.6726 35.0853 14.1218 35.3977 14.4448L38.4869 17.6378L35.3979 20.8304Z" fill="#73C3BC"/>
<path d="M27.038 13.5174L21.9121 18.7354L19.9615 16.7516C19.2836 16.0618 18.1849 16.0625 17.5074 16.753C16.8302 17.4435 16.8309 18.562 17.5091 19.2515L20.6864 22.4831C21.0251 22.8278 21.4688 23 21.9126 23C22.3566 23 22.8008 22.8276 23.1395 22.4827L29.4916 16.0164C30.1694 15.3266 30.1694 14.2079 29.4918 13.5176C28.8144 12.8276 27.7156 12.8274 27.038 13.5174Z" fill="#73C3BC"/>
</svg>
