<svg width="16" height="16" viewBox="0 0 16 16" fill="none" xmlns="http://www.w3.org/2000/svg">
<path d="M13.4983 0.117981H1.50165C0.6723 0.117981 0 0.790281 0 1.61963V13.6163C0 14.4457 0.6723 15.118 1.50165 15.118H13.4997C14.3291 15.118 15.0014 14.4457 15.0014 13.6163V1.61963C15 0.790281 14.3277 0.117981 13.4983 0.117981ZM7.50138 4.61881C9.15044 4.61881 10.4992 5.96616 10.4992 7.61798C10.4992 9.2698 9.15044 10.6185 7.50138 10.6185C5.8468 10.6185 4.50083 9.2698 4.50083 7.61798C4.50083 5.96616 5.8468 4.61881 7.50138 4.61881ZM1.875 13.6163C1.65182 13.6163 1.50165 13.4675 1.50165 13.243V6.86715H3.07632C2.99917 7.09447 2.99917 7.39342 2.99917 7.6166C2.99917 10.0936 5.02296 12.1188 7.50138 12.1188C9.97704 12.1188 12.0008 10.0936 12.0008 7.6166C12.0008 7.39342 12.0008 7.09309 11.9251 6.86578H13.4997V13.243C13.4997 13.4662 13.3496 13.6163 13.1264 13.6163H1.875ZM13.4983 3.49463C13.4983 3.71782 13.3482 3.86798 13.125 3.86798H11.6233C11.4002 3.86798 11.25 3.71919 11.25 3.49463V1.9916C11.25 1.76842 11.4002 1.61826 11.6233 1.61826H13.125C13.3482 1.61826 13.4983 1.76704 13.4983 1.9916V3.49463Z" fill="white"/>
</svg>
