<svg width="47" height="530" viewBox="0 0 47 530" fill="none" xmlns="http://www.w3.org/2000/svg">
<rect x="47" y="7.62939e-06" width="530" height="46.9999" transform="rotate(90 47 7.62939e-06)" fill="#080C14"/>
<path d="M19 26.9785L19 28.2578L29.1562 28.2578L29.1562 20.2012L19 20.2012L19 21.4805L28.082 21.4805L28.082 26.9785L19 26.9785ZM18.834 34.8008C18.834 37.5645 20.8555 39.4297 24.0781 39.4297C27.3105 39.4297 29.3223 37.5645 29.3223 34.8008C29.3223 32.0469 27.3105 30.1719 24.0781 30.1719C20.8555 30.1719 18.834 32.0371 18.834 34.8008ZM19.9766 34.8008C19.9766 32.8086 21.5 31.4902 24.0781 31.4902C26.6562 31.4902 28.1797 32.8086 28.1797 34.8008C28.1797 36.793 26.6562 38.1211 24.0781 38.1211C21.5 38.1211 19.9766 36.793 19.9766 34.8008ZM20.0742 48.0527L20.0742 42.4277L20.1426 42.4277C20.8164 42.9746 22.0273 43.2285 23.3848 43.3359C23.9414 43.3945 27.5547 43.6484 28.082 43.6777L28.082 48.0527L20.0742 48.0527ZM16.3145 41.2949L19 41.2949L19 49.7617L16.3145 49.7617L16.3144 50.9824L20.0742 50.9824L20.0742 49.3418L29.1562 49.3418L29.1562 42.5352C28.5996 42.5059 24.0098 42.1836 23.4238 42.1348C21.9199 42.0078 20.5723 41.666 20.0742 40.9043L20.0742 40.084L16.3145 40.084L16.3145 41.2949ZM18.8242 56.6953C18.8242 59.5664 20.8164 61.3633 24 61.3633C27.0566 61.3633 29.0195 59.6055 29.0195 56.8809C29.0195 55.1816 28.248 53.8535 26.8613 53.209L26.8613 53.1504C30.416 53.541 31.7734 54.4883 31.8516 57.4277C31.8516 57.6426 31.8809 58.3555 31.9004 58.5215C31.959 59.498 32.1641 60.377 32.3984 60.6895L33.5312 60.6895C33.2871 60.1914 33.1211 59.3027 33.0723 58.4531C33.0527 58.2969 33.0234 57.584 33.0234 57.3789C32.916 53.4629 30.6504 52.0371 24.8105 52.0371C20.9043 52.0371 18.8242 53.6777 18.8242 56.6953ZM19.9766 56.6953C19.9766 54.6152 21.4805 53.3555 24 53.3555C26.4219 53.3555 27.8769 54.6152 27.8769 56.6953C27.8769 58.7754 26.4219 60.0352 24 60.0352C21.4805 60.0352 19.9766 58.7754 19.9766 56.6953ZM19 64.5469L27.1641 70.2109L27.1641 70.2695L19 70.2695L19 71.5488L29.1562 71.5488L29.1562 70.2695L20.9922 64.6152L20.9922 64.5469L29.1562 64.5469L29.1562 63.2676L19 63.2676L19 64.5469ZM29.3223 78.7168C29.3223 77.0664 28.3555 75.7773 27.0078 75.2207L27.0078 75.1816L29.1562 75.1816L29.1562 73.9609L15.6406 73.9609L15.6406 75.25L21.0898 75.25L21.0898 75.2891C19.7715 75.8262 18.834 77.1055 18.834 78.7461C18.834 81.2949 20.9141 83.043 24.0781 83.043C27.2324 83.043 29.3223 81.2852 29.3223 78.7168ZM19.9766 78.4922C19.9766 76.5684 21.6269 75.25 24.0781 75.25C26.5195 75.25 28.1797 76.5684 28.1797 78.4922C28.1797 80.4551 26.5488 81.7246 24.0781 81.7246C21.5977 81.7246 19.9766 80.4551 19.9766 78.4922ZM19.9473 88.1895C19.9473 86.8125 20.709 85.8652 21.8125 85.8652C22.9355 85.8652 23.6289 86.7539 23.7363 88.3555L23.9414 91.3633L22.8184 91.3633C21.207 91.3633 19.9473 89.9668 19.9473 88.1895ZM18.834 87.9258C18.834 89.4395 19.6738 90.8262 20.9336 91.3926L20.9336 91.4219L19 91.4219L19 92.6523L25.9531 92.6523C28.0234 92.6523 29.3223 91.1973 29.3223 88.8828C29.3223 86.5684 28.0332 85.0742 26.2168 84.9277L26.2168 86.1777C27.4473 86.4023 28.1797 87.3594 28.1797 88.8535C28.1797 90.4355 27.3008 91.3633 25.8359 91.3633L24.957 91.3633L24.7617 88.1992C24.6055 85.8555 23.5508 84.5566 21.8125 84.5566C20.0351 84.5566 18.834 85.9238 18.834 87.9258ZM19 96.2852L27.1641 101.949L27.1641 102.008L19 102.008L19 103.287L29.1562 103.287L29.1562 102.008L20.9922 96.3535L20.9922 96.2852L29.1562 96.2852L29.1562 95.0059L19 95.0059L19 96.2852ZM33.5312 96.4512C31.8613 96.4512 30.748 97.623 30.748 99.3906C30.748 101.148 31.8613 102.32 33.5312 102.32L33.5312 101.334C32.3789 101.334 31.5488 100.582 31.5488 99.3906C31.5488 98.1895 32.3789 97.4375 33.5312 97.4375L33.5312 96.4512ZM24.3223 112.437L29.1562 117.574L29.1562 115.943L24.5957 111.129L24.5957 111.07L29.1562 111.07L29.1562 109.791L19 109.791L19 111.07L23.9512 111.07L23.9512 111.129L19 116.07L19 117.77L24.3223 112.437ZM18.834 123.082C18.834 125.846 20.8555 127.711 24.0781 127.711C27.3105 127.711 29.3223 125.846 29.3223 123.082C29.3223 120.328 27.3105 118.453 24.0781 118.453C20.8555 118.453 18.834 120.318 18.834 123.082ZM19.9766 123.082C19.9766 121.09 21.5 119.771 24.0781 119.771C26.6562 119.771 28.1797 121.09 28.1797 123.082C28.1797 125.074 26.6562 126.402 24.0781 126.402C21.5 126.402 19.9766 125.074 19.9766 123.082ZM19 130.895L26.8711 130.895L26.8711 130.953L19.2051 134.635L19.2051 135.641L26.8711 139.322L26.8711 139.371L19 139.371L19 140.66L29.1562 140.66L29.1562 139.166L20.6992 135.201L20.6992 135.133L29.1562 131.168L29.1562 129.615L19 129.615L19 130.895ZM19 149.85L19 151.129L29.1562 151.129L29.1562 143.072L19 143.072L19 144.352L28.082 144.352L28.082 149.85L19 149.85ZM23.3848 155.904C23.9414 155.953 27.5547 156.207 28.082 156.236L28.082 160.299L19 160.299L19 161.578L29.1562 161.578L29.1562 155.074C28.5996 155.045 24.0098 154.742 23.4238 154.684C21.4609 154.537 20.1035 154.166 20.1035 153.111C20.1035 152.848 20.1621 152.652 20.1816 152.594L19.0098 152.594C18.9805 152.672 18.9121 152.877 18.9121 153.17C18.9121 155.133 20.7578 155.699 23.3848 155.904ZM28.1894 168.014C28.1894 169.85 26.793 171.07 24.791 171.1L24.791 164.83C26.793 164.937 28.1894 166.197 28.1894 168.014ZM21.8808 171.021C20.7676 170.738 19.9668 169.674 19.9668 168.141C19.9668 166.119 21.3926 164.82 23.6875 164.82L23.7656 164.82L23.7656 172.428L24.3125 172.428C27.3398 172.428 29.3223 170.729 29.3223 168.033C29.3223 165.279 27.2031 163.492 24.0488 163.492C20.8262 163.492 18.834 165.26 18.834 168.111C18.834 170.348 20.123 171.998 21.8808 172.301L21.8808 171.021ZM24.3222 176.988L29.1562 182.125L29.1562 180.494L24.5957 175.68L24.5957 175.621L29.1562 175.621L29.1562 174.342L19 174.342L19 175.621L23.9512 175.621L23.9512 175.68L19 180.621L19 182.32L24.3222 176.988ZM29.1562 190.875L29.1562 182.682L28.082 182.682L28.082 186.139L19 186.139L19 187.418L28.082 187.418L28.082 190.875L29.1562 190.875ZM16.0312 207.184L33.0918 207.184L33.0918 206.07L16.0312 206.07L16.0312 207.184ZM26.1387 231.422C27.8672 231.08 29.3222 229.576 29.3222 227.271C29.3222 224.498 27.2519 222.691 24.0781 222.691C20.8554 222.691 18.834 224.498 18.834 227.281C18.834 229.469 20.1133 231.061 21.9394 231.422L21.9394 230.133C20.7383 229.781 19.9765 228.756 19.9765 227.291C19.9765 225.299 21.5586 224.01 24.0781 224.01C26.5586 224.01 28.1797 225.289 28.1797 227.271C28.1797 228.814 27.2812 229.811 26.1387 230.143L26.1387 231.422ZM18.834 237.379C18.834 240.143 20.8554 242.008 24.0781 242.008C27.3105 242.008 29.3222 240.143 29.3222 237.379C29.3222 234.625 27.3105 232.75 24.0781 232.75C20.8554 232.75 18.834 234.615 18.834 237.379ZM19.9765 237.379C19.9765 235.387 21.5 234.068 24.0781 234.068C26.6562 234.068 28.1797 235.387 28.1797 237.379C28.1797 239.371 26.6562 240.699 24.0781 240.699C21.5 240.699 19.9765 239.371 19.9765 237.379ZM19 251.275L29.1562 251.275L29.1562 249.996L24.9375 249.996C24.3222 249.449 23.834 248.58 23.834 247.301C23.834 245.689 24.8301 244.83 26.3535 244.83L29.1562 244.83L29.1562 243.551L26.334 243.551C24.166 243.551 22.6914 244.83 22.6914 247.271C22.6914 248.443 23.082 249.322 23.5898 249.879L23.5898 249.996L19 249.996L19 251.275ZM28.1894 257.721C28.1894 259.557 26.7929 260.777 24.791 260.807L24.791 254.537C26.7929 254.645 28.1894 255.904 28.1894 257.721ZM21.8808 260.729C20.7676 260.445 19.9668 259.381 19.9668 257.848C19.9668 255.826 21.3926 254.527 23.6875 254.527L23.7656 254.527L23.7656 262.135L24.3125 262.135C27.3398 262.135 29.3222 260.436 29.3222 257.74C29.3222 254.986 27.2031 253.199 24.0488 253.199C20.8261 253.199 18.834 254.967 18.834 257.818C18.834 260.055 20.123 261.705 21.8808 262.008L21.8808 260.729ZM29.1562 271.09L29.1562 262.896L28.082 262.896L28.082 266.354L19 266.354L19 267.633L28.082 267.633L28.082 271.09L29.1562 271.09ZM19.9472 275.357C19.9472 273.98 20.709 273.033 21.8125 273.033C22.9355 273.033 23.6289 273.922 23.7363 275.523L23.9414 278.531L22.8183 278.531C21.207 278.531 19.9472 277.135 19.9472 275.357ZM18.834 275.094C18.834 276.607 19.6738 277.994 20.9336 278.561L20.9336 278.59L19 278.59L19 279.82L25.9531 279.82C28.0234 279.82 29.3222 278.365 29.3222 276.051C29.3222 273.736 28.0332 272.242 26.2168 272.096L26.2168 273.346C27.4472 273.57 28.1797 274.527 28.1797 276.021C28.1797 277.604 27.3008 278.531 25.8359 278.531L24.957 278.531L24.7617 275.367C24.6054 273.023 23.5508 271.725 21.8125 271.725C20.0351 271.725 18.834 273.092 18.834 275.094ZM19 283.453L27.164 289.117L27.164 289.176L19 289.176L19 290.455L29.1562 290.455L29.1562 289.176L20.9922 283.521L20.9922 283.453L29.1562 283.453L29.1562 282.174L19 282.174L19 283.453ZM33.5312 283.619C31.8613 283.619 30.748 284.791 30.748 286.559C30.748 288.316 31.8613 289.488 33.5312 289.488L33.5312 288.502C32.3789 288.502 31.5488 287.75 31.5488 286.559C31.5488 285.357 32.3789 284.605 33.5312 284.605L33.5312 283.619ZM16.3144 306.598L20.0742 306.598L20.0742 304.947L29.1562 304.947L29.1562 303.668L20.0742 303.668L20.0742 298.238L29.1562 298.238L29.1562 296.959L19 296.959L19 305.387L16.3144 305.387L16.3144 306.598ZM28.0918 312.057C28.0918 313.316 27.5058 314.02 26.4902 314.02C25.3867 314.02 24.7812 313.258 24.7812 311.871L24.7812 309.391L28.0918 309.391L28.0918 312.057ZM23.7265 311.969C23.7265 313.6 23.1211 314.498 21.9101 314.498C20.6992 314.498 20.0644 313.697 20.0644 312.203L20.0644 309.391L23.7265 309.391L23.7265 311.969ZM19 308.111L19 312.262C19 314.449 20.0644 315.768 21.8808 315.768C23.2383 315.768 24.1367 314.811 24.2832 313.502L24.3515 313.502C24.5468 314.537 25.4941 315.279 26.6074 315.279C28.1894 315.279 29.1562 314.117 29.1562 312.213L29.1562 308.111L19 308.111ZM28.1894 321.725C28.1894 323.561 26.7929 324.781 24.791 324.811L24.791 318.541C26.7929 318.648 28.1894 319.908 28.1894 321.725ZM21.8808 324.732C20.7675 324.449 19.9668 323.385 19.9668 321.852C19.9668 319.83 21.3925 318.531 23.6875 318.531L23.7656 318.531L23.7656 326.139L24.3125 326.139C27.3398 326.139 29.3222 324.439 29.3222 321.744C29.3222 318.99 27.2031 317.203 24.0488 317.203C20.8261 317.203 18.834 318.971 18.834 321.822C18.834 324.059 20.123 325.709 21.8808 326.012L21.8808 324.732ZM29.1562 335.094L29.1562 326.9L28.082 326.9L28.082 330.357L19 330.357L19 331.637L28.082 331.637L28.082 335.094L29.1562 335.094ZM19.9472 339.361C19.9472 337.984 20.709 337.037 21.8125 337.037C22.9355 337.037 23.6289 337.926 23.7363 339.527L23.9414 342.535L22.8183 342.535C21.207 342.535 19.9472 341.139 19.9472 339.361ZM18.834 339.098C18.834 340.611 19.6738 341.998 20.9336 342.564L20.9336 342.594L19 342.594L19 343.824L25.9531 343.824C28.0234 343.824 29.3222 342.369 29.3222 340.055C29.3222 337.74 28.0332 336.246 26.2168 336.1L26.2168 337.35C27.4472 337.574 28.1797 338.531 28.1797 340.025C28.1797 341.607 27.3007 342.535 25.8359 342.535L24.957 342.535L24.7617 339.371C24.6054 337.027 23.5507 335.729 21.8125 335.729C20.0351 335.729 18.834 337.096 18.834 339.098ZM16.0312 360.895L33.0918 360.895L33.0918 359.781L16.0312 359.781L16.0312 360.895ZM28.0918 380.846C28.0918 382.105 27.5058 382.809 26.4902 382.809C25.3867 382.809 24.7812 382.047 24.7812 380.66L24.7812 378.18L28.0918 378.18L28.0918 380.846ZM23.7265 380.758C23.7265 382.389 23.1211 383.287 21.9101 383.287C20.6992 383.287 20.0644 382.486 20.0644 380.992L20.0644 378.18L23.7265 378.18L23.7265 380.758ZM19 376.9L19 381.051C19 383.238 20.0644 384.557 21.8808 384.557C23.2382 384.557 24.1367 383.6 24.2832 382.291L24.3515 382.291C24.5468 383.326 25.4941 384.068 26.6074 384.068C28.1894 384.068 29.1562 382.906 29.1562 381.002L29.1562 376.9L19 376.9ZM18.8339 390.621C18.8339 393.385 20.8554 395.25 24.0781 395.25C27.3105 395.25 29.3222 393.385 29.3222 390.621C29.3222 387.867 27.3105 385.992 24.0781 385.992C20.8554 385.992 18.8339 387.857 18.8339 390.621ZM19.9765 390.621C19.9765 388.629 21.5 387.311 24.0781 387.311C26.6562 387.311 28.1797 388.629 28.1797 390.621C28.1797 392.613 26.6562 393.941 24.0781 393.941C21.5 393.941 19.9765 392.613 19.9765 390.621ZM19 403.932L19 405.211L29.1562 405.211L29.1562 397.154L19 397.154L19 398.434L28.082 398.434L28.082 403.932L19 403.932ZM23.3847 409.986C23.9414 410.035 27.5546 410.289 28.082 410.318L28.082 414.381L19 414.381L19 415.66L29.1562 415.66L29.1562 409.156C28.5996 409.127 24.0097 408.824 23.4238 408.766C21.4609 408.619 20.1035 408.248 20.1035 407.193C20.1035 406.93 20.1621 406.734 20.1816 406.676L19.0097 406.676C18.9804 406.754 18.9121 406.959 18.9121 407.252C18.9121 409.215 20.7578 409.781 23.3847 409.986ZM18.8339 422.203C18.8339 424.967 20.8554 426.832 24.0781 426.832C27.3105 426.832 29.3222 424.967 29.3222 422.203C29.3222 419.449 27.3105 417.574 24.0781 417.574C20.8554 417.574 18.8339 419.439 18.8339 422.203ZM19.9765 422.203C19.9765 420.211 21.5 418.893 24.0781 418.893C26.6562 418.893 28.1796 420.211 28.1796 422.203C28.1796 424.195 26.6562 425.523 24.0781 425.523C21.5 425.523 19.9765 424.195 19.9765 422.203ZM16.3144 442.828L20.0742 442.828L20.0742 441.197L29.1562 441.197L29.1562 439.908L20.0742 439.908L20.0742 435.602L29.1562 435.602L29.1562 434.322L20.0742 434.322L20.0742 430.016L29.1562 430.016L29.1562 428.736L19 428.736L19 441.617L16.3144 441.617L16.3144 442.828ZM19.9472 447.564C19.9472 446.187 20.7089 445.24 21.8125 445.24C22.9355 445.24 23.6289 446.129 23.7363 447.73L23.9414 450.738L22.8183 450.738C21.207 450.738 19.9472 449.342 19.9472 447.564ZM18.8339 447.301C18.8339 448.814 19.6738 450.201 20.9336 450.768L20.9336 450.797L19 450.797L19 452.027L25.9531 452.027C28.0234 452.027 29.3222 450.572 29.3222 448.258C29.3222 445.943 28.0332 444.449 26.2168 444.303L26.2168 445.553C27.4472 445.777 28.1796 446.734 28.1796 448.229C28.1796 449.811 27.3007 450.738 25.8359 450.738L24.957 450.738L24.7617 447.574C24.6054 445.23 23.5507 443.932 21.8125 443.932C20.0351 443.932 18.8339 445.299 18.8339 447.301ZM19 455.66L27.164 461.324L27.164 461.383L19 461.383L19 462.662L29.1562 462.662L29.1562 461.383L20.9921 455.729L20.9921 455.66L29.1562 455.66L29.1562 454.381L19 454.381L19 455.66ZM33.5312 455.826C31.8613 455.826 30.748 456.998 30.748 458.766C30.748 460.523 31.8613 461.695 33.5312 461.695L33.5312 460.709C32.3789 460.709 31.5488 459.957 31.5488 458.766C31.5488 457.564 32.3789 456.812 33.5312 456.812L33.5312 455.826ZM19 470.445L27.164 476.109L27.164 476.168L19 476.168L19 477.447L29.1562 477.447L29.1562 476.168L20.9921 470.514L20.9921 470.445L29.1562 470.445L29.1562 469.166L19 469.166L19 470.445ZM20.0742 486.822L20.0742 481.197L20.1425 481.197C20.8164 481.744 22.0273 481.998 23.3847 482.105C23.9414 482.164 27.5546 482.418 28.082 482.447L28.082 486.822L20.0742 486.822ZM16.3144 480.064L19 480.064L19 488.531L16.3144 488.531L16.3144 489.752L20.0742 489.752L20.0742 488.111L29.1562 488.111L29.1562 481.305C28.5996 481.275 24.0097 480.953 23.4238 480.904C21.9199 480.777 20.5722 480.436 20.0742 479.674L20.0742 478.854L16.3144 478.854L16.3144 480.064ZM28.1894 495.221C28.1894 497.057 26.7929 498.277 24.791 498.307L24.791 492.037C26.7929 492.145 28.1894 493.404 28.1894 495.221ZM21.8808 498.229C20.7675 497.945 19.9667 496.881 19.9667 495.348C19.9667 493.326 21.3925 492.027 23.6875 492.027L23.7656 492.027L23.7656 499.635L24.3125 499.635C27.3398 499.635 29.3222 497.936 29.3222 495.24C29.3222 492.486 27.2031 490.699 24.0488 490.699C20.8261 490.699 18.8339 492.467 18.8339 495.318C18.8339 497.555 20.123 499.205 21.8808 499.508L21.8808 498.229ZM19 502.828L27.164 508.492L27.164 508.551L19 508.551L19 509.83L29.1562 509.83L29.1562 508.551L20.9921 502.896L20.9921 502.828L29.1562 502.828L29.1562 501.549L19 501.549L19 502.828Z" fill="#CCCCCC"/>
</svg>
