<svg width="435" height="352" viewBox="0 0 435 352" fill="none" xmlns="http://www.w3.org/2000/svg">
<path d="M146.021 256.597L138.943 222.459L50.9892 240.696L58.0674 274.833L146.021 256.597ZM239.157 148.203C232.801 117.547 211.774 101.661 184.732 107.268C157.824 112.847 144.713 135.811 151.07 166.468C157.454 197.258 178.587 212.983 205.495 207.404C232.537 201.797 245.541 178.994 239.157 148.203ZM200.582 183.708C191.88 185.513 184.471 176.716 181.029 160.116C177.587 143.516 180.86 132.366 189.562 130.561C198.264 128.757 205.7 137.687 209.142 154.287C212.584 170.887 209.283 181.904 200.582 183.708ZM233.06 302.638L281.72 195.229L333.839 80.2609L301.576 86.9505L254.341 191.132L200.663 309.355L233.06 302.638ZM383.21 222.077C376.854 191.421 355.827 175.535 328.785 181.142C301.877 186.721 288.766 209.685 295.123 240.342C301.507 271.132 322.668 286.991 349.576 281.411C376.618 275.804 389.594 252.868 383.21 222.077ZM344.635 257.582C335.933 259.387 328.524 250.59 325.082 233.99C321.64 217.39 324.913 206.24 333.615 204.435C342.317 202.631 349.753 211.561 353.195 228.161C356.637 244.761 353.336 255.778 344.635 257.582Z" fill="#2D313B"/>
</svg>
