<svg xmlns="http://www.w3.org/2000/svg" width="512" height="512" viewBox="0 0 486.895 486.895"><g fill="#FFF"><path d="M370.178 200.104H265.146l-6.064 73.536h91.828zM39.273 287.821l11.578 44.186h81.352l-3.645-44.186zm80.878-101.899l-3.957-47.998H0l12.576 47.998zm130.769 14.182H135.55l6.066 73.536h103.239zm-234.629 0l19.267 73.536h91.828l-6.063-73.536zm118.09-14.182h117.708l3.96-47.998H130.422zM408.395 69.634c-1.809.979-3.574 2.269-5.26 3.957l-57.637 57.707c-2.104 2.107-3.596 4.345-4.613 6.629h-70.611l-3.959 47.999h107.576l8.113-30.976c15.336-15.356 30.674-30.709 46.01-46.065h38.305c27.436 0 27.436-42.544 0-42.544h-46.326c-4.667-.003-8.522 1.248-11.598 3.293zM254.269 332.007h81.348l11.578-44.186h-89.281zm-14.227 0l3.642-44.186H142.785l3.644 44.186z"/><circle cx="93.816" cy="383.061" r="37.493"/><circle cx="292.65" cy="383.061" r="37.493"/></g></svg>