<svg xmlns="http://www.w3.org/2000/svg" viewBox="0 0 512 512" width="512" height="512"><path d="M480.7 11h-73.8c-8.5 0-16.1 5.3-19.1 13.2L287.1 291H91.9L56.7 128.8h196c11.3 0 20.4-9.1 20.4-20.4S264 88 252.7 88H31.4c-20 0-21.3 18.7-20 24.7l44 203.1c2 9.4 10.3 16.1 20 16.1h225.7c8.5 0 16.1-5.3 19.1-13.2L421 51.8h59.7c11.3 0 20.4-9.1 20.4-20.4 0-11.3-9.2-20.4-20.4-20.4zM106.4 364.6c-37.7 0-68.4 30.6-68.4 68.2S68.7 501 106.4 501s68.4-30.6 68.4-68.2-30.7-68.2-68.4-68.2zm0 95.6c-15.2 0-27.6-12.3-27.6-27.3 0-15.1 12.4-27.3 27.6-27.3 15.2 0 27.5 12.3 27.5 27.3s-12.3 27.3-27.5 27.3zm162.1-95.6c-37.7 0-68.4 30.6-68.4 68.2s30.7 68.2 68.4 68.2 68.4-30.6 68.4-68.2-30.7-68.2-68.4-68.2zm0 95.6c-15.2 0-27.6-12.3-27.6-27.3 0-15.1 12.4-27.3 27.6-27.3 15.2 0 27.5 12.3 27.5 27.3s-12.3 27.3-27.5 27.3z" fill="#FFF"/></svg>