<svg id="Capa_1" data-name="Capa 1" xmlns="http://www.w3.org/2000/svg" viewBox="0 0 83 53.79"><defs><style>.cls-1{fill:#a5a5a5}.cls-1,.cls-3,.cls-4,.cls-6{stroke:#4d4d4e;stroke-miterlimit:10}.cls-2{fill:#fcfcfc}.cls-3,.cls-6,.cls-9{fill:#fff}.cls-3{stroke-width:.25px}.cls-4,.cls-8{fill:#4d4d4d}.cls-5{fill:url(#Безымянный_градиент)}.cls-7{fill:#f60}.cls-8{isolation:isolate;font-size:1.3px;font-family:Arial}</style><linearGradient id="Безымянный_градиент" x1="252.59" y1="-197.8" x2="262.98" y2="-197.8" gradientTransform="matrix(1 0 0 -1 -214.5 -173.11)" gradientUnits="userSpaceOnUse"><stop offset="0" stop-color="#a50"/><stop offset=".62" stop-color="#e0b76d"/><stop offset="1" stop-color="#fea"/></linearGradient></defs><title>discover_card</title><ellipse class="cls-1" cx="71.91" cy="20.32" rx=".59" ry=".61"/><path class="cls-1" d="M71.6 20.74h.21v-.33l.19.33h.3l-.3-.35a.23.23 0 0 0 .19-.24.27.27 0 0 0-.26-.28h-.33v.86z"/><rect class="cls-2" width="83" height="53.79" rx="2.14" ry="2.14"/><path class="cls-3" d="M71.82 18.52a1 1 0 1 0 1-1 1 1 0 0 0-1 1z"/><path class="cls-4" d="M64.79 29.52h1.9V25.6h.25l2.63 3.92h2.34l-3.08-4.11a2.6 2.6 0 0 0 2.23-2.77c0-1.83-1.26-2.88-3.46-2.88h-2.82v9.77zm-6.66.01h5.4v-1.66h-3.5v-2.63h3.37v-1.65h-3.37v-2.17h3.5v-1.66h-5.4v9.77zm-10.25-9.77l4.15 10.02h1.02l4.22-10.02H55.2l-2.63 6.56-2.61-6.56h-2.08z"/><path class="cls-5" d="M38.09 24.68a5.19 5.19 0 0 0 10.15 1.54.39.39 0 0 1 .07-.27c.07-.09 0-.15.06-.23a5.13 5.13 0 0 0 .11-1 5.2 5.2 0 1 0-10.39 0z"/><path class="cls-4" d="M29.93 24.65a5 5 0 0 0 5 5.09h.14a5.21 5.21 0 0 0 2.39-.57v-2.28A3 3 0 0 1 35.17 28a3.19 3.19 0 0 1-3.28-3.09v-.28A3.25 3.25 0 0 1 35 21.24a3.19 3.19 0 0 1 2.39 1.1V20.1a4.85 4.85 0 0 0-2.34-.6 5.13 5.13 0 0 0-5.2 5.06s.08.06.08.09zm-10.85.04c0-2.88-2.15-4.89-5.24-4.89h-2.79v9.77h2.78a5.08 5.08 0 0 0 3.48-1.13 4.91 4.91 0 0 0 1.77-3.75zm.88-4.93h1.9v9.77h-1.9zm9.37 6.79c0-1.55-.64-2.25-2.81-3-1.14-.42-1.48-.7-1.48-1.23a1.25 1.25 0 0 1 1.35-1.14h.11A2 2 0 0 1 28 22l1-1.31a4.28 4.28 0 0 0-2.87-1.08 2.86 2.86 0 0 0-3 2.72v.08c0 1.34.61 2 2.4 2.68a7.59 7.59 0 0 1 1.32.56 1.17 1.17 0 0 1 .57 1A1.39 1.39 0 0 1 26.06 28H26a2.25 2.25 0 0 1-2.08-1.3l-1.32 1.18a3.79 3.79 0 0 0 3.4 1.87 3.15 3.15 0 0 0 3.36-2.92q-.03-.14-.03-.28z"/><path class="cls-6" d="M69.11 22.74c0-.95-.64-1.45-1.83-1.45h-.58v3h.55c1.25-.04 1.86-.56 1.86-1.55z"/><path class="cls-7" d="M81.76 33.69a142.78 142.78 0 0 1-51.83 18.7h51.83v-18.7z"/><path class="cls-6" d="M16 22.24a3.37 3.37 0 0 1 1 2.43 3.44 3.44 0 0 1-1 2.46 3.3 3.3 0 0 1-2.47.78h-.44v-6.46h.48a3.23 3.23 0 0 1 2.43.79z"/><text class="cls-8" transform="translate(72.3 19.01)">R</text><ellipse class="cls-9" cx="44.04" cy="24.52" rx="3.48" ry="3.63"/></svg>