<svg id="Layer_1" xmlns="http://www.w3.org/2000/svg" viewBox="0 0 512 512"><style>.st0{fill:#fe5252}</style><g id="XMLID_806_"><path id="XMLID_810_" class="st0" d="M256 512c141.2 0 256-114.8 256-256S397.2 0 256 0 0 114.8 0 256s114.8 256 256 256zm0-59.6c-40.6 0-79.1-12.1-112-35.2 13.4-22.3 54.3-78.1 141.7-111.5 22 59.8 33.3 110.8 37.8 134.7-21.5 7.9-44.2 12-67.5 12zm124.7-44.9c-4.9-24.2-14.9-66.7-32.3-116.9 8.8-.9 17.7-1.3 26.8-1.3 31.8 0 58.3 5.3 72.3 8.8-9.3 42.7-33 81.4-66.8 109.4zm36-263.4c19.7 28.2 31.7 61.2 34.6 95.4-18-3-48.9-7-84.1-7-13.9 0-27.4.6-40.2 1.9-.3-.8-.7-1.6-1-2.4-2.7-6.3-5.5-12.7-8.6-19.2 52.2-23.3 83.9-52 99.3-68.7zM256 60.2c44 0 86.6 14.8 121 41.9-11.9 13.3-39 38.6-86.6 58.3-23.8-42.5-48.2-78.5-62.1-98.3 9.1-1.2 18.4-1.9 27.7-1.9zm-92.4 23.2c11.5 16.2 36.9 53 62.5 97-68.9 16.6-129.4 20.2-158.3 20.9 14.7-50.1 49.5-93 95.8-117.9zm91.9 151.4c2.2 4.5 4.4 9 6.4 13.3-87 29.9-141 96.6-161.9 126.8-24.8-32.5-38.8-71.9-40-112.8 30.3-.3 111.1-3.5 195.5-27.3z"/></g></svg>