<svg id="Capa_1" xmlns="http://www.w3.org/2000/svg" viewBox="0 0 512 512"><style>.st0{fill:#fe5252}</style><path class="st0" d="M357.8 0h-53.3c-40.8 0-70.1 9.7-87.9 29-17.8 19.4-26.7 47.9-26.7 85.6v35.9c0 9.5-7.7 17.2-17.2 17.2h-18.4c-9.5 0-17.2 7.7-17.2 17.2v53.8c0 9.5 7.7 17.2 17.2 17.2h18.4c9.5 0 17.2 7.7 17.2 17.2v221.6c0 9.5 7.7 17.2 17.2 17.2h71.6c9.5 0 17.2-7.7 17.2-17.2V273.2c0-9.5 7.7-17.2 17.2-17.2h36.1c9.5 0 18-7.7 19-17.1l5.7-54c1-9.4-5.9-17.1-15.4-17.1H313c-9.5 0-17.2-7.7-17.2-17.2v-26.9c0-6.6.3-11.8.9-15.4.6-3.6 2-7.2 4.2-10.7 2.2-3.5 5.7-6 10.6-7.3 4.9-1.3 11.3-2 19.4-2h26.9c9.5 0 17.2-7.7 17.2-17.2V17.2C375 7.7 367.3 0 357.8 0z"/></svg>