<svg id="Layer_1" xmlns="http://www.w3.org/2000/svg" viewBox="0 0 512 512"><style>.st0{fill:#9d9d9d}</style><g id="XMLID_801_"><path id="XMLID_802_" class="st0" d="M119.2 164.7H16.4c-4.6 0-8.3 3.7-8.3 8.3v330.2c0 4.6 3.7 8.3 8.3 8.3h102.8c4.6 0 8.3-3.7 8.3-8.3V173c-.1-4.6-3.8-8.3-8.3-8.3z"/><path id="XMLID_803_" class="st0" d="M67.8.6C30.4.6 0 31 0 68.3c0 37.4 30.4 67.8 67.8 67.8s67.8-30.4 67.8-67.8C135.6 31 105.2.6 67.8.6z"/><path id="XMLID_804_" class="st0" d="M380.6 156.5c-41.3 0-71.8 17.7-90.3 37.9V173c0-4.6-3.7-8.3-8.3-8.3h-98.4c-4.6 0-8.3 3.7-8.3 8.3v330.2c0 4.6 3.7 8.3 8.3 8.3h102.6c4.6 0 8.3-3.7 8.3-8.3V339.8c0-55.1 15-76.5 53.3-76.5 41.8 0 45.1 34.4 45.1 79.3v160.5c0 4.6 3.7 8.3 8.3 8.3h102.6c4.6 0 8.3-3.7 8.3-8.3v-181c-.1-81.9-15.7-165.6-131.5-165.6z"/></g></svg>