<svg id="Capa_1" data-name="Capa 1" xmlns="http://www.w3.org/2000/svg" viewBox="0 0 50 32.4"><defs><style>.cls-1,.cls-6{fill:#163373}.cls-2,.cls-5{fill:#f6ac18}.cls-3{fill:red}.cls-4{fill:#fcfcfc}.cls-5,.cls-6{stroke:#fcfcfc;stroke-miterlimit:10;stroke-width:.1px}</style></defs><title>mastercard_card</title><rect class="cls-1" width="50" height="32.4" rx="1.29" ry="1.29"/><path class="cls-2" d="M277.46 256a12.83 12.83 0 0 1-21.46 9.51 12.83 12.83 0 1 1-8.68-22.35h.08a12.78 12.78 0 0 1 8.6 3.32 12.83 12.83 0 0 1 21.46 9.52z" transform="translate(-231 -239.8)"/><circle class="cls-3" cx="16.44" cy="16.21" r="12.85"/><path class="cls-4" d="M244.44 254a4.72 4.72 0 0 0-1.65.3l-.2 1.18a4.31 4.31 0 0 1 1.49-.24c.51 0 .88.06.88.47a.88.88 0 0 1 0 .34h-.59c-1.18 0-2.42.5-2.42 2a1.3 1.3 0 0 0 1.32 1.47 1.78 1.78 0 0 0 1.4-.63v.52h1.2l.54-3.76a1.62 1.62 0 0 0-1.97-1.65z" transform="translate(-231 -239.8)"/><path class="cls-3" d="M243.77 258.37a.5.5 0 0 1-.53-.52c0-.37.2-.82 1.2-.82a.86.86 0 0 1 .3 0 1.21 1.21 0 0 1-.97 1.34z" transform="translate(-231 -239.8)"/><path class="cls-4" d="M248 255.71c0 .68 1.63.35 1.63 2a1.76 1.76 0 0 1-2.07 1.74 4.41 4.41 0 0 1-1.53-.17l.18-1.2a4.37 4.37 0 0 0 1.21.21c.37 0 .85 0 .85-.48 0-.66-1.71-.5-1.71-2.07a1.75 1.75 0 0 1 2-1.78 6.37 6.37 0 0 1 1.26.11l-.17 1.21s-.74-.06-.93-.06c-.42.04-.72.15-.72.49zm3.28 2.08c0 .19 0 .44.5.44h.35l-.13 1.12a3.52 3.52 0 0 1-1 .18 1 1 0 0 1-1.09-1.16c0-.54.78-5 .81-5H252l-.14.8h.68l-.17 1.29h-.72zm5.27-.57a9.81 9.81 0 0 0 .18-1.25 1.83 1.83 0 0 0-1.95-2c-1.37 0-2.39 1.48-2.39 3.15a2.14 2.14 0 0 0 2.36 2.39 3.46 3.46 0 0 0 1.44-.22l.24-1.32a4.25 4.25 0 0 1-1.45.34c-1.47 0-1.21-1.09-1.21-1.09h2.78z" transform="translate(-231 -239.8)"/><path class="cls-3" d="M254.78 255.2c.77 0 .63.87.63.94h-1.51a1 1 0 0 1 .88-.94z" transform="translate(-231 -239.8)"/><path class="cls-4" d="M11.39 13.11l-1.08 6.51H8.92l.77-4.91-1.75 4.91H7l-.12-4.91-.84 4.91H4.73l1.09-6.51h1.99l.07 4 1.35-4h2.16z"/><path class="cls-4" d="M259.62 251.89h-7.09c.07-.13.32-.67.69-1.37h5.85a13 13 0 0 1 .55 1.37zm-1.32-2.75h-4.35c.28-.46.59-.93.91-1.37h2.44a13 13 0 0 1 1 1.37zm-2.24 16.4a12.69 12.69 0 0 1-1.31-1.4h2.65a12.83 12.83 0 0 1-1.3 1.37zm2.35-2.84h-4.55a12.69 12.69 0 0 1-.76-1.37h6.06a12.85 12.85 0 0 1-.75 1.37zm1.59-8.62a5.25 5.25 0 0 0-.51 1.58c-.95-.34-1 1.5-1.42 3.76h-1.4l.85-5.3h1.27l-.12.77a1.58 1.58 0 0 1 1.06-.83 1.38 1.38 0 0 1 .27.02zm2.55 4.11a3.28 3.28 0 0 0 1.13-.34l-.24 1.49a6.33 6.33 0 0 1-1.2.19c-1.63 0-2.46-1.13-2.46-2.83 0-2.57 1.53-3.94 3.11-3.94a4.9 4.9 0 0 1 1.54.33l-.22 1.45a2.43 2.43 0 0 0-1.25-.39c-.93 0-1.76.89-1.76 2.5a1.35 1.35 0 0 0 1.35 1.54z" transform="translate(-231 -239.8)"/><path class="cls-5" d="M276.52 258.78a.51.51 0 0 1 .07.25.49.49 0 0 1-.07.25.48.48 0 0 1-.19.19.49.49 0 0 1-.49 0 .48.48 0 0 1-.19-.19.49.49 0 0 1-.07-.25.48.48 0 0 1 .07-.25.47.47 0 0 1 .19-.19.5.5 0 0 1 .25-.06.51.51 0 0 1 .24.06.46.46 0 0 1 .19.19z" transform="translate(-231 -239.8)"/><path class="cls-4" d="M270.84 257.28c0 1.12.56 2.22 1.69 2.22a1.71 1.71 0 0 0 1.27-.57l-.06.49h1.33l1-6.5h-1.37l-.29 1.83a1.8 1.8 0 0 0-1.32-.71c-1.2-.04-2.25 1.51-2.25 3.24z" transform="translate(-231 -239.8)"/><path class="cls-2" d="M274.12 256.48c0 .72-.36 1.69-1.1 1.69-.49 0-.72-.41-.72-1.06 0-1.06.48-1.76 1.08-1.76s.74.34.74 1.13z" transform="translate(-231 -239.8)"/><path class="cls-4" d="M275.91 258.81v.45h.09v-.19h.06a.45.45 0 0 1 .08.11v.07h.09l-.05-.09-.07-.09a.14.14 0 0 0 .09 0 .12.12 0 0 0 0-.08.12.12 0 0 0 0-.07h-.32z" transform="translate(-231 -239.8)"/><path class="cls-2" d="M276.17 258.9H276v-.13h.15z" transform="translate(-231 -239.8)"/><path class="cls-4" d="M266.59 254a4.71 4.71 0 0 0-1.66.3l-.2 1.18a4.32 4.32 0 0 1 1.49-.24c.51 0 .88.06.88.47a.85.85 0 0 1 0 .34h-.59c-1.18 0-2.42.5-2.42 2a1.3 1.3 0 0 0 1.32 1.47 1.78 1.78 0 0 0 1.4-.63v.52h1.2l.54-3.76a1.61 1.61 0 0 0-1.96-1.65z" transform="translate(-231 -239.8)"/><path class="cls-2" d="M265.92 258.37a.5.5 0 0 1-.53-.52c0-.37.2-.82 1.2-.82a.87.87 0 0 1 .3 0 1.21 1.21 0 0 1-.97 1.34z" transform="translate(-231 -239.8)"/><path class="cls-4" d="M271 255.67c-.95-.34-1 1.5-1.42 3.76h-1.4l.85-5.3h1.27l-.12.77a1.59 1.59 0 0 1 1.07-.83 1.45 1.45 0 0 1 .26 0 5.25 5.25 0 0 0-.51 1.6z" transform="translate(-231 -239.8)"/><path class="cls-6" d="M276.51 263.67a.51.51 0 0 1 .07.25.49.49 0 0 1-.07.25.48.48 0 0 1-.19.19.49.49 0 0 1-.49 0 .48.48 0 0 1-.19-.19.49.49 0 0 1-.07-.25.48.48 0 0 1 .07-.25.47.47 0 0 1 .19-.19.5.5 0 0 1 .25-.06.51.51 0 0 1 .24.06.46.46 0 0 1 .19.19z" transform="translate(-231 -239.8)"/><path class="cls-4" d="M275.93 263.7v.45h.07V264h.06a.45.45 0 0 1 .08.11v.07h.09l-.05-.09-.07-.09a.14.14 0 0 0 .09 0 .12.12 0 0 0 0-.08.12.12 0 0 0 0-.07h-.32z" transform="translate(-231 -239.8)"/><path class="cls-1" d="M276.18 263.78H276v-.13h.15z" transform="translate(-231 -239.8)"/></svg>