<svg id="Capa_1" data-name="Capa 1" xmlns="http://www.w3.org/2000/svg" xmlns:xlink="http://www.w3.org/1999/xlink" viewBox="0 0 50 32.4"><defs><style>.cls-1{fill:#ffda44}.cls-2{fill:url(#Новый_образец_градиентной_залив)}.cls-3{fill:#003990}.cls-4{fill:#118cd7}.cls-5{fill:url(#Новый_образец_градиентной_залив-2)}.cls-6{fill:url(#Новый_образец_градиентной_залив-3)}.cls-7{fill:url(#Новый_образец_градиентной_залив-4)}.cls-8{fill:url(#Новый_образец_градиентной_залив-5)}</style><linearGradient id="Новый_образец_градиентной_залив" x1="25" y1="32.4" x2="25" gradientUnits="userSpaceOnUse"><stop offset="0" stop-color="#ffcd6a"/><stop offset="1" stop-color="#fff"/></linearGradient><linearGradient id="Новый_образец_градиентной_залив-2" x1="240.85" y1="256.04" x2="240.85" y2="253.91" xlink:href="#Новый_образец_градиентной_залив"/><linearGradient id="Новый_образец_градиентной_залив-3" x1="259.67" y1="256.02" x2="259.67" y2="253.88" xlink:href="#Новый_образец_градиентной_залив"/><linearGradient id="Новый_образец_градиентной_залив-4" x1="246.18" y1="258.74" x2="246.18" y2="257.19" xlink:href="#Новый_образец_градиентной_залив"/><linearGradient id="Новый_образец_градиентной_залив-5" x1="265.1" y1="258.57" x2="265.1" y2="257.03" xlink:href="#Новый_образец_градиентной_залив"/></defs><title>paypal_card</title><path class="cls-1" d="M260.54 254.11a.7.7 0 0 1 .3.62 1.14 1.14 0 0 1-.47 1 2.21 2.21 0 0 1-1.31.34h-.26a.31.31 0 0 1-.32-.39l.31-1.34a.53.53 0 0 1 .5-.39h.34a1.67 1.67 0 0 1 .91.16zm-14.04 3.16a3.92 3.92 0 0 0-.68.15l-.44.3a.78.78 0 0 0-.15.51l.2.39a1.24 1.24 0 0 0 .59.11 1.45 1.45 0 0 0 .54-.12l.41-.21.16-.21c.06-.25.2-.8.21-.87l-.07-.13zm18.82.01a3.75 3.75 0 0 0-.68.15 1.05 1.05 0 0 0-.44.3.8.8 0 0 0-.15.51l.2.39a1.18 1.18 0 0 0 .59.11 1.46 1.46 0 0 0 .54-.12l.4-.21.17-.21c.06-.25.2-.81.21-.87l-.07-.13zm-24.49-3.4h-.34a.52.52 0 0 0-.49.39l-.31 1.35a.31.31 0 0 0 .32.4h.25a2.17 2.17 0 0 0 1.31-.34 1.12 1.12 0 0 0 .47-1 .69.69 0 0 0-.3-.62 1.67 1.67 0 0 0-.91-.18z" transform="translate(-231 -240.99)"/><rect class="cls-2" width="50" height="32.4" rx="1.29" ry="1.29"/><path class="cls-3" d="M244 254.54a1.91 1.91 0 0 0-.2-.93 1.53 1.53 0 0 0-.57-.61 2.67 2.67 0 0 0-.9-.33 7.32 7.32 0 0 0-1.22-.1h-2.16a.54.54 0 0 0-.5.4L237 259.3a.31.31 0 0 0 .31.39h1a.53.53 0 0 0 .5-.39l.36-1.54a.53.53 0 0 1 .5-.39h.33a4.91 4.91 0 0 0 3-.78 2.43 2.43 0 0 0 1-2.05zm5.26 1.16a1.1 1.1 0 0 0-.59-1 3.93 3.93 0 0 0-1.85-.33 8.23 8.23 0 0 0-1.25.1l-.53.1a.61.61 0 0 0-.46.48l-.13.52c-.07.33.12.32.2.29a5.6 5.6 0 0 1 .62-.18 4.46 4.46 0 0 1 1-.13 2.56 2.56 0 0 1 .94.13.48.48 0 0 1 .31.47v.15l-.15.09c-.59 0-1 .09-1.53.17a4.76 4.76 0 0 0-1.31.36 2 2 0 0 0-.89.7 1.92 1.92 0 0 0-.3 1.08 1.28 1.28 0 0 0 .42 1 1.58 1.58 0 0 0 1.09.37 2.89 2.89 0 0 0 .65-.06l.5-.17.42-.24.39-.26v.17a.31.31 0 0 0 .28.39h1a.54.54 0 0 0 .45-.39l.76-3.27v-.27zm2.42 6.13l4.13-7s.4-.6 0-.59h-1.24a.9.9 0 0 0-.65.4l-1.63 2.8h-.17l-.46-2.78a.57.57 0 0 0-.56-.41h-.93a.31.31 0 0 0-.31.39s.7 4 .85 5a1.06 1.06 0 0 1 0 .61l-.92 1.6c-.14.22-.06.39.16.39H251a.87.87 0 0 0 .68-.41z" transform="translate(-231 -240.99)"/><path class="cls-4" d="M262.81 254.56a2 2 0 0 0-.2-.93 1.59 1.59 0 0 0-.61-.63 2.56 2.56 0 0 0-.9-.33 7.22 7.22 0 0 0-1.22-.1h-2.17a.54.54 0 0 0-.5.39l-1.46 6.34a.31.31 0 0 0 .31.39h1a.54.54 0 0 0 .5-.39l.35-1.54a.53.53 0 0 1 .5-.39h.3a4.94 4.94 0 0 0 3-.78 2.46 2.46 0 0 0 1.1-2.03zm5.4.98a1.09 1.09 0 0 0-.59-1 3.94 3.94 0 0 0-1.85-.33 7.88 7.88 0 0 0-1.25.1c-.31 0-.34.05-.53.1a.6.6 0 0 0-.46.48l-.13.52c-.07.33.12.32.2.29a5.92 5.92 0 0 1 .62-.18 4.62 4.62 0 0 1 1-.13 2.54 2.54 0 0 1 .94.13.47.47 0 0 1 .31.47v.15l-.15.09c-.59 0-1 .09-1.53.16a4.83 4.83 0 0 0-1.32.36 2.05 2.05 0 0 0-.89.7 1.91 1.91 0 0 0-.3 1.08 1.27 1.27 0 0 0 .42 1 1.59 1.59 0 0 0 1.09.37 3 3 0 0 0 .65-.06l.5-.17.43-.24.39-.26v.17a.3.3 0 0 0 .28.39h1a.53.53 0 0 0 .44-.39l.76-3.27v-.27zm3.29-2.54a.31.31 0 0 0-.31-.39h-.93a.53.53 0 0 0-.45.31l-.05.08v.21l-1.3 5.9v.18a.29.29 0 0 0 .26.37h1a.53.53 0 0 0 .45-.32v-.07l1.33-6.27z" transform="translate(-231 -240.99)"/><path class="cls-4" d="M42.34 11.22h-.35v-.28h-.16v.28h-.12v.15h.12v.53l.08.27.23.08h.1l.1-.02v-.16h-.01l-.06.02-.09.02-.1-.02-.06-.05-.02-.09-.01-.12v-.46h.35v-.15zm1.68.36l-.08-.28-.24-.1-.18.03-.19.13-.11-.12-.17-.04-.17.03-.16.11v-.12h-.17v1.01h.17v-.75l.14-.09.14-.03.11.02.06.06.02.09.01.13v.57h.17v-.69l-.01-.06.15-.09.14-.03.11.02.06.06.02.09.01.13v.57h.17v-.65z"/><path class="cls-5" d="M240.83 253.91h-.34a.52.52 0 0 0-.49.39l-.31 1.35a.31.31 0 0 0 .32.4h.25a2.17 2.17 0 0 0 1.31-.34 1.12 1.12 0 0 0 .47-1 .69.69 0 0 0-.3-.62 1.67 1.67 0 0 0-.91-.18z" transform="translate(-231 -240.99)"/><path class="cls-6" d="M259.64 253.88h-.34a.52.52 0 0 0-.49.39l-.31 1.35a.31.31 0 0 0 .32.4h.25a2.17 2.17 0 0 0 1.31-.34 1.12 1.12 0 0 0 .47-1 .69.69 0 0 0-.3-.62 1.67 1.67 0 0 0-.91-.18z" transform="translate(-231 -240.99)"/><path class="cls-7" d="M246.39 257.28a3.92 3.92 0 0 0-.68.15l-.44.3a.78.78 0 0 0-.15.51l.2.39a1.24 1.24 0 0 0 .59.11 1.45 1.45 0 0 0 .54-.12l.41-.21.16-.21c.06-.25.2-.8.21-.87l-.07-.13z" transform="translate(-231 -240.99)"/><path class="cls-8" d="M265.32 257.11a3.92 3.92 0 0 0-.68.15l-.44.3a.78.78 0 0 0-.15.51l.2.39a1.24 1.24 0 0 0 .59.11 1.45 1.45 0 0 0 .54-.12l.41-.21.16-.21c.06-.25.2-.8.21-.87l-.07-.13z" transform="translate(-231 -240.99)"/></svg>