<svg id="Capa_1" xmlns="http://www.w3.org/2000/svg" viewBox="0 0 512 512"><style>.st0{fill:#fe5252}</style><g id="c40_rss"><path class="st0" d="M75.9 360C34 360 0 394 0 435.9c0 41.7 34 75.8 75.9 75.8s75.9-34.1 75.9-75.8c0-41.9-34-75.9-75.9-75.9z"/><path class="st0" d="M7.9 167.3c-4.3 0-7.9 3.6-7.9 7.9v96.3c0 4.3 3.6 7.9 7.9 7.9 123.7 0 224.4 100.7 224.4 224.4 0 4.3 3.5 7.9 7.9 7.9h96.7c4.4 0 7.9-3.6 7.9-7.9l-.4-2.5c-1.3-184.3-151.8-334-336.5-334z"/><path class="st0" d="M511.6 501.4C510.2 224.8 284.7.2 7.9.2 3.6.2 0 3.8 0 8.1v99.1c0 4.4 3.6 7.9 7.9 7.9 214.3 0 388.7 174.4 388.7 388.7 0 4.3 3.5 7.9 7.8 7.9H504c4.3 0 8-3.6 8-7.9l-.4-2.4z"/></g></svg>