<svg id="Слой_1" data-name="Слой 1" xmlns="http://www.w3.org/2000/svg" viewBox="0 0 15 11.78"><defs><style>.cls-1,.cls-2{fill:#fdfdfe}.cls-2{stroke-miterlimit:10;stroke-width:.75px;stroke:url(#Безымянный_градиент_34)}</style><linearGradient id="Безымянный_градиент_34" x1="10.35" y1="17.41" x2="10.35" y2="29.16" gradientUnits="userSpaceOnUse"><stop offset=".3" stop-color="#ffd12b"/><stop offset=".75" stop-color="#f15a29"/></linearGradient></defs><title>star_empty</title><path class="cls-1" d="M0 0h15v11.78H0z"/><path class="cls-2" d="M15.82 22c-.17-.55-1.1-.68-2.08-.81a4.19 4.19 0 0 1-1.34-.3 4.6 4.6 0 0 1-.67-1.24c-.42-.94-.81-1.82-1.36-1.82s-.95.88-1.37 1.81a4.68 4.68 0 0 1-.69 1.24 4.26 4.26 0 0 1-1.31.24c-1 .12-1.91.24-2.08.79s.5 1.22 1.22 1.93A4.55 4.55 0 0 1 7 24.9a4.77 4.77 0 0 1-.15 1.42c-.19 1-.37 2 .07 2.32a.63.63 0 0 0 .4.12A4.67 4.67 0 0 0 9.07 28a4.27 4.27 0 0 1 1.25-.58 4.24 4.24 0 0 1 1.24.59 4.44 4.44 0 0 0 1.77.75.6.6 0 0 0 .36-.11c.45-.34.28-1.3.1-2.31a4.86 4.86 0 0 1-.14-1.42 4.58 4.58 0 0 1 .92-1.05c.74-.69 1.43-1.36 1.25-1.87z" transform="translate(-2.85 -17.38)"/></svg>