<svg id="Слой_1" data-name="Слой 1" xmlns="http://www.w3.org/2000/svg" viewBox="0 0 15 11.78"><defs><style>.cls-1,.cls-2{fill:#fdfdfe}.cls-2{stroke-miterlimit:10;stroke-width:.75px;stroke:url(#Безымянный_градиент_89)}</style><linearGradient id="Безымянный_градиент_89" x1="11.79" y1="17.41" x2="11.79" y2="29.16" gradientUnits="userSpaceOnUse"><stop offset="0" stop-color="#ffd12b"/><stop offset="1" stop-color="#f15a29"/></linearGradient></defs><title>star_empty_2</title><path class="cls-1" d="M0 0h15v11.78H0z"/><path class="cls-2" d="M17.26 22c-.17-.55-1.1-.68-2.08-.81a4.19 4.19 0 0 1-1.34-.3 4.6 4.6 0 0 1-.67-1.24c-.42-.94-.81-1.82-1.36-1.82s-.95.88-1.37 1.81a4.68 4.68 0 0 1-.69 1.24 4.26 4.26 0 0 1-1.34.29c-1 .12-1.91.24-2.08.79s.5 1.22 1.22 1.93a4.55 4.55 0 0 1 .91 1.06 4.77 4.77 0 0 1-.15 1.42c-.19 1-.37 2 .07 2.32a.63.63 0 0 0 .4.12 4.67 4.67 0 0 0 1.74-.81 4.27 4.27 0 0 1 1.25-.58A4.24 4.24 0 0 1 13 28a4.44 4.44 0 0 0 1.77.75.6.6 0 0 0 .36-.11c.45-.34.28-1.3.1-2.31a4.86 4.86 0 0 1-.14-1.42 4.58 4.58 0 0 1 .91-1.03c.75-.7 1.43-1.37 1.26-1.88z" transform="translate(-4.29 -17.38)"/></svg>