<svg id="Слой_1" data-name="Слой 1" xmlns="http://www.w3.org/2000/svg" xmlns:xlink="http://www.w3.org/1999/xlink" viewBox="0 0 15 11.78"><defs><style>.cls-1{fill:#fff}.cls-2{stroke-miterlimit:10;stroke-width:.75px;fill:url(#Безымянный_градиент_34);stroke:url(#Безымянный_градиент_35)}</style><linearGradient id="Безымянный_градиент_34" x1="10.35" y1="3.31" x2="10.35" y2="14.31" gradientUnits="userSpaceOnUse"><stop offset=".3" stop-color="#ffd12b"/><stop offset=".75" stop-color="#f15a29"/></linearGradient><linearGradient id="Безымянный_градиент_35" x1="10.35" y1="2.94" x2="10.35" y2="14.69" xlink:href="#Безымянный_градиент_34"/></defs><title>star_fill</title><path class="cls-1" d="M0 0h15v11.78H0z"/><path class="cls-2" d="M15.82 7.49c-.17-.55-1.1-.68-2.08-.81a4.19 4.19 0 0 1-1.34-.3 4.6 4.6 0 0 1-.67-1.24c-.42-.94-.81-1.82-1.36-1.82S9.42 4.2 9 5.13a4.68 4.68 0 0 1-.7 1.23 4.26 4.26 0 0 1-1.3.29c-1 .12-1.91.24-2.08.79s.46 1.22 1.18 1.93a4.55 4.55 0 0 1 .9 1.06 4.77 4.77 0 0 1-.15 1.42c-.19 1-.37 2 .07 2.32a.63.63 0 0 0 .4.12 4.67 4.67 0 0 0 1.74-.73 4.27 4.27 0 0 1 1.26-.56 4.24 4.24 0 0 1 1.24.59 4.44 4.44 0 0 0 1.77.75.6.6 0 0 0 .36-.11c.45-.34.28-1.3.1-2.31a4.86 4.86 0 0 1-.14-1.42 4.58 4.58 0 0 1 .92-1.05C15.31 8.71 16 8 15.82 7.49z" transform="translate(-2.85 -2.91)"/></svg>