<svg id="Capa_1" xmlns="http://www.w3.org/2000/svg" viewBox="0 0 512 512"><style>.st0{fill:#9d9d9d}</style><path id="Twitter" class="st0" d="M382.6 384H256.3c-17.6 0-32.5-6.1-44.8-18.5-12.3-12.4-18.4-27.3-18.4-44.9v-45h180c16.2 0 30.2-5.8 41.8-17.4 11.6-11.7 17.4-25.7 17.4-41.9 0-16.3-5.8-30.3-17.5-41.9-11.7-11.6-25.7-17.4-42-17.4H193.1V64c0-17.6-6.3-32.6-18.7-45.2C162 6.3 147 0 129.6 0c-17.9 0-33.1 6.2-45.5 18.5C71.6 30.8 65.4 46 65.4 64.1v256.5c0 52.8 18.6 97.8 56 135.2 37.3 37.5 82.4 56.2 135 56.2h126.3c17.5 0 32.6-6.3 45.1-18.9 12.5-12.5 18.8-27.6 18.8-45.1 0-17.6-6.3-32.6-18.8-45.2-12.5-12.5-27.6-18.8-45.2-18.8z"/></svg>