<svg id="Capa_1" data-name="Capa 1" xmlns="http://www.w3.org/2000/svg" viewBox="0 0 50 32.4"><defs><style>.cls-1{fill:#fcfcfc}.cls-2{fill:#ecba08}.cls-3{fill:#3173ac}</style></defs><title>visa_card</title><rect class="cls-1" width="50" height="32.4" rx="1.29" ry="1.29"/><path class="cls-2" d="M234.87 249.59h5.34a1.38 1.38 0 0 1 1.5 1l1.16 5.58c-1.14-2.92-3.89-5.35-8-6.35z" transform="translate(-231 -239.8)"/><path class="cls-3" d="M241.33 262.32l-3.08-10.53A13.52 13.52 0 0 1 243 257l.36 1.3 3.37-8.61h3.65L245 262.32h-3.64z" transform="translate(-231 -239.8)"/><path class="cls-3" d="M22.07 22.53h-3.44L20.78 9.9h3.45l-2.16 12.63z"/><path class="cls-3" d="M259.06 262.52a10.9 10.9 0 0 1-3.83-.67l.48-2.83.44.2a7.21 7.21 0 0 0 3.24.66c1 0 2-.39 2.06-1.23 0-.55-.44-.95-1.78-1.57s-3-1.62-3-3.43c0-2.45 2.42-4.17 5.82-4.17a8.88 8.88 0 0 1 3.08.53l-.46 2.74-.31-.15a6.35 6.35 0 0 0-2.58-.48c-1.35 0-2 .56-2 1.09s.73 1 1.93 1.57c2 .9 2.9 2 2.89 3.43-.04 2.62-2.36 4.31-5.98 4.31zm14.94-.18s-.31-1.45-.42-1.89h-4.41l-.72 1.9h-3.61l5.11-11.57a1.71 1.71 0 0 1 1.8-1h2.66l2.79 12.62H274z" transform="translate(-231 -239.8)"/><path class="cls-1" d="M272 253.12c-.18.48-.48 1.24-.46 1.21l-1.37 3.53H273l-.8-3.65z" transform="translate(-231 -239.8)"/></svg>