<?xml version="1.0" encoding="utf-8"?>
<!-- Generator: Adobe Illustrator 19.2.1, SVG Export Plug-In . SVG Version: 6.00 Build 0)  -->
<svg version="1.1" id="Слой_1" xmlns="http://www.w3.org/2000/svg" xmlns:xlink="http://www.w3.org/1999/xlink" x="0px" y="0px"
	 viewBox="0 0 600 600" style="enable-background:new 0 0 600 600;" xml:space="preserve">
<style type="text/css">
	.st0{fill:url(#SVGID_1_);}
	.st1{fill:#F26631;}
	.st2{fill:#E21F26;}
	.st3{fill:#FFFFFF;}
	.st4{fill:url(#SVGID_2_);}
	.st5{fill:#FEE675;}
	.st6{fill:#FCF8C9;}
	.st7{opacity:0.66;fill:#BAE0F7;enable-background:new    ;}
	.st8{opacity:0.5;fill:#FFFFFF;enable-background:new    ;}
	.st9{opacity:0.6;fill:url(#SVGID_3_);enable-background:new    ;}
	.st10{opacity:0.3;fill:#896A29;enable-background:new    ;}
	.st11{opacity:0.6;fill:#FEE364;enable-background:new    ;}
	.st12{fill:#FED208;}
	.st13{opacity:0.4;fill:#E7E7E7;enable-background:new    ;}
	.st14{fill:url(#SVGID_4_);}
	.st15{fill:#D7222C;}
	.st16{fill:#B32025;}
	.st17{fill:#E7282B;}
	.st18{fill:#F58F93;}
	.st19{fill:#4BA947;}
	.st20{fill:#74C069;}
	.st21{fill:url(#SVGID_5_);}
	.st22{fill:#25BCB9;}
	.st23{font-family:'SegoePrint';}
	.st24{font-size:83.4367px;}
	.st25{font-size:83.1191px;}
	.st26{font-family:'ArialMT';}
	.st27{font-size:63.0659px;}
	.st28{fill:#653A15;}
</style>
<title>logo_4</title>
<g>
	<g id="Слой_1_1_">
		
			<radialGradient id="SVGID_1_" cx="325.6964" cy="269.9489" r="157.59" gradientTransform="matrix(1.9 0 0 -1.9 -306.22 835.8)" gradientUnits="userSpaceOnUse">
			<stop  offset="0.35" style="stop-color:#653A15"/>
			<stop  offset="1" style="stop-color:#FFFFFF;stop-opacity:0"/>
		</radialGradient>
		<circle class="st0" cx="313.8" cy="324.1" r="300"/>
		<circle class="st1" cx="287.3" cy="285.6" r="217.6"/>
		<circle class="st2" cx="291" cy="282.1" r="206"/>
		<path class="st3" d="M319,112.6c0,0-8.7,14.3,5,16.9c13.7,2.6,24.8,11.8,14.5,19s-40.3,6.2-32.8,30.1c0,0,66,4,83-27.5
			c0,0,4.4-18.4-20.2-28.8S324.2,126.5,319,112.6z"/>
		
			<linearGradient id="SVGID_2_" gradientUnits="userSpaceOnUse" x1="355.1117" y1="365.797" x2="515.3546" y2="365.797" gradientTransform="matrix(0.987 -0.1607 -0.1607 -0.987 -13.9572 634.0419)">
			<stop  offset="0" style="stop-color:#A56227"/>
			<stop  offset="0.26" style="stop-color:#A16026"/>
			<stop  offset="0.51" style="stop-color:#965923"/>
			<stop  offset="0.74" style="stop-color:#844D1E"/>
			<stop  offset="0.97" style="stop-color:#693D16"/>
			<stop  offset="1" style="stop-color:#653A15"/>
		</linearGradient>
		<path class="st4" d="M281,226.2c0,0,58.2,10.5,108.9-7s48.1-26.3,43.5-38.8c-4.6-12.5-16.3-11.1-16.3-11.1S412.6,192.5,287,202
			C287,202,271.5,208.6,281,226.2z"/>
		<path class="st5" d="M281,226.2c0,0-9.9,7.5-3.9,21.3s37.1,19.1,64.7,9.4s57.9-16.1,77.9-20.1s25.9-10.9,25.6-21.9
			c-0.3-11-13.2-16.8-13.2-16.8S386.1,239.4,281,226.2z"/>
		<path class="st6" d="M287,202c0,0,43.3,9.9,85.5-5.4c42.2-15.4,44.5-26.1,45.1-29.1s-2.1-26.3-28.7-22c0,0,0.6,18.7-83.2,33.2
			C305.7,178.6,284.2,179.9,287,202z"/>
		<path class="st7" d="M323.9,129.5c13.7,2.6,24.8,11.8,14.5,19s-40.3,6.2-32.8,30.1c0,0,66,4,83-27.5c0,0,2.9-12.4-9.5-22.6l0,0
			c8.6,17,3.6,20.2-10.2,27.1c-13.9,6.9-55.1,16.7-52,10.5s23.9-5.4,30.4-19.4c6.5-14-15.3-20.8-23.6-21.5s-4.8-12.7-4.8-12.7
			S310.2,127,323.9,129.5z"/>
		<path class="st8" d="M334.6,122.5c0,0,13.7,1.9,21.9,4.2c8.1,2.3,15.1,10.4,14.9,15.1s10.3,1.8,3.7-8.9S352.8,121.2,334.6,122.5z"
			/>
		
			<linearGradient id="SVGID_3_" gradientUnits="userSpaceOnUse" x1="366.4878" y1="383.89" x2="501.3573" y2="383.89" gradientTransform="matrix(0.987 -0.1607 -0.1607 -0.987 -13.9572 634.0419)">
			<stop  offset="0" style="stop-color:#FACBD6"/>
			<stop  offset="0.32" style="stop-color:#FAC8D5"/>
			<stop  offset="0.53" style="stop-color:#F8C0D0"/>
			<stop  offset="0.7" style="stop-color:#F6B1C9"/>
			<stop  offset="0.85" style="stop-color:#F29CBF"/>
			<stop  offset="0.99" style="stop-color:#ED82B2"/>
			<stop  offset="1" style="stop-color:#ED80B1"/>
		</linearGradient>
		<path class="st9" d="M358.5,196.1c-34.7,6.7-64.5,4.3-63.4-2.6c1.9-12.4,14.8-14.8,14.8-14.8c-3.1,0.1-6.2,0.4-9.3,0.9
			c-6.2,1.9-15.5,7.3-13.6,22.3c0,0,43.3,9.9,85.5-5.4c42.2-15.4,44.5-26.1,45.1-29.1c0.2-1.1,0-4.9-1.7-9.1
			C415,171.4,393.2,189.4,358.5,196.1z"/>
		<path class="st10" d="M366.2,221c-25.1,7.2-81.3,3.9-81.7-3.8c-0.9-16.7,11.8-13.6,11.8-13.6c-2.2-0.7-4.1-1.3-6-1.8L287,202
			c0,0-15.5,6.6-6,24.2c0,0,58.2,10.5,108.9-7s48.1-26.3,43.5-38.8C437.3,202,396,212.4,366.2,221z"/>
		<path class="st11" d="M445.3,215c-0.2-3.8-1.7-7.3-4.3-10.1c5.5,17.2-7,23.9-24.3,25.1c-17.3,1.3-48.7,11.6-73.7,20.3
			s-45.4,6.9-55.6-2.3s0.5-20.7,0.5-20.7c-0.2-0.1-0.4-0.2-0.5-0.3c-2.1-0.2-4.2-0.4-6.4-0.7c0,0-9.9,7.5-3.9,21.3
			s37.1,19.1,64.7,9.4s57.9-16.1,77.9-20.1S445.6,226,445.3,215z"/>
		<path class="st12" d="M316.1,169.5c-4.2-10.3,24.4-18.7,22.4-21c-10.3,7.2-40.3,6.2-32.8,30.1c0,0-21.6,1.3-18.7,23.4
			c0,0-15.5,6.6-6,24.2c0,0-9.8,7.5-3.9,21.3c6.3,14.9,37.3,14.3,37.3,14.3c-49.5-13.3-20.4-33.6-20.4-33.6
			c-15.5-16.9,10-19.8,10-24.3c0-4.5-8.9-10.5,4.4-17.3C314.2,183.6,320.3,179.8,316.1,169.5z"/>
		<path class="st13" d="M325.3,161.3c3.7-1.4,13.1-12.7,13.1-12.7c-10.3,7.2-40.3,6.2-32.8,30.1c0,0-21.6,1.3-18.7,23.4
			c0,0-15.5,6.6-6,24.2c0,0-9.7,7.5-3.9,21.3c6.9,16.5,41.5,14.1,41.5,14.1c-37.1-15.4-10-33.5-10-33.5c-17-12.6,8.1-23,8.1-23
			c-13.2-15.1,8.8-18.8,5.7-26.5S321.6,162.7,325.3,161.3z"/>
		
			<radialGradient id="SVGID_4_" cx="1487.9343" cy="300.8073" r="6.34" gradientTransform="matrix(-2.79 1.62 -0.59 -1.03 4665.98 -1913.86)" gradientUnits="userSpaceOnUse">
			<stop  offset="0" style="stop-color:#231F20"/>
			<stop  offset="0.15" style="stop-color:#595657"/>
			<stop  offset="0.31" style="stop-color:#8B898A"/>
			<stop  offset="0.46" style="stop-color:#B5B4B4"/>
			<stop  offset="0.61" style="stop-color:#D5D4D5"/>
			<stop  offset="0.75" style="stop-color:#ECECEC"/>
			<stop  offset="0.89" style="stop-color:#FAFAFA"/>
			<stop  offset="1" style="stop-color:#FFFFFF"/>
		</radialGradient>
		<path class="st14" d="M318,203.8c2.6,4.4,14.5,2.4,26.5-4.7c12-7.1,19.6-16.4,17-20.8c-2.6-4.5-14.5-2.4-26.5,4.7
			C323.1,190,315.4,199.3,318,203.8z"/>
		<path class="st15" d="M327.3,163c-1.5,1.1-3.1,1.9-4.8,2.4c-3.4,1.3-10.7,4.9-10.6,11.2c0.1,6.1,5,23.6,21.5,20.1
			c13.8-2.9,15.5-11.3,14.9-19.6C347.7,168.4,338,157.3,327.3,163z"/>
		<path class="st16" d="M348.3,177.1c-0.2-2.3-0.9-4.5-2-6.5c3.4,7.4,0,16.6-14.5,19.9c-14.8,3.4-18.9-8.3-19.3-9.3
			c1.8,7.6,7.5,18.4,20.9,15.5C347.3,193.8,348.9,185.5,348.3,177.1z"/>
		<path class="st17" d="M343.1,170.5c2.9,5.5-0.3,12.5-7,15.9c-6.7,3.4-15.2,2-18.8-3.4c-3.7-5.7-0.6-13.4,7-16.9
			S340.1,164.7,343.1,170.5z"/>
		<path class="st18" d="M334.6,165.9c2.6,0.8,4.5,3.1,4.2,5s-2.7,2.8-5.3,1.9c-2.6-0.8-4.5-3.1-4.2-5
			C329.7,165.9,332,165.1,334.6,165.9z"/>
		<path class="st16" d="M321.1,169.2c-0.1-0.5,0.2-0.9,0.7-1c0,0,0,0,0,0c0.8,0.1,1.6-0.2,2.1-0.9c1.4-1.3,1-2,2.1-2.5
			s0.8,0.6,0.2,1.6c-0.6,1.1-1.6,2-2.7,2.6C321.6,169.7,321.3,169.8,321.1,169.2z"/>
		<path class="st19" d="M305.8,158.6c0.3-1.3,0.7-2.5,1.4-3.6c1.6-2.8,5.4-10.5,17.7,11.9c0,0-1.6,2.6-2.9,2
			C322,168.9,318.9,161.2,305.8,158.6z"/>
		<path class="st20" d="M306.9,157.5c0,0,0.4-0.9,0.7-1.3c1-1.9,2.8-3.8,8,4.6C315.5,160.8,312.6,158.1,306.9,157.5z"/>
		
			<linearGradient id="SVGID_5_" gradientUnits="userSpaceOnUse" x1="154.7276" y1="105.113" x2="336.3276" y2="161.743" gradientTransform="matrix(0.98 -0.18 -0.18 -0.98 -39.49 574.1)">
			<stop  offset="0" style="stop-color:#FFFFFF"/>
			<stop  offset="1" style="stop-color:#939598"/>
		</linearGradient>
		<polygon class="st21" points="46.5,298.5 102.7,458.9 507.1,395 525.9,211.6 		"/>
		<polygon class="st22" points="46.5,298.5 86,443.6 507.1,395 525.9,211.6 		"/>
		<text transform="matrix(1.0698 -0.22 0.2 0.9798 114.5437 365.3405)" class="st3 st23 st24">Cupcake</text>
		<text transform="matrix(1.0739 -0.2007 0.1807 0.9835 273.0131 403.0396)" class="st3 st23 st25">Shop</text>
		<text transform="matrix(0.8624 -0.4011 0.361 0.9326 139.5836 242.5697)" class="st3 st26 st27">S</text>
		<text transform="matrix(0.8624 -0.4011 0.361 0.9326 165.9595 230.3018)" class="st3 st26 st27">w</text>
		<text transform="matrix(0.8624 -0.4011 0.361 0.9326 205.4426 211.9375)" class="st3 st26 st27">eet</text>
		<path class="st3" d="M273,160.7c-0.2-0.5-0.7-0.1-0.8-0.1C272.7,161.4,273.1,160.6,273,160.7z"/>
		<path class="st3" d="M276.4,169.8l-0.3-0.2c0.2,0.5,0.4,1,0.6,1.5C276.7,170.7,276.6,170.2,276.4,169.8z"/>
		<path class="st3" d="M275.3,179.2c1.3-0.6,0.6-3.5,1.2-5.1l0.3-0.3l-0.8-0.8C275.9,175.1,275.9,177.9,275.3,179.2z"/>
		<path class="st3" d="M271.5,183.3c0.5-0.1-0.1,1.1,0.5-1c-0.1,0.1-0.1,0.1-0.2,0.2C271.8,182.6,271.7,182.9,271.5,183.3z"/>
		<path class="st3" d="M271.9,182.5C272.2,181.5,271.3,182.9,271.9,182.5L271.9,182.5z"/>
		<path class="st3" d="M270.3,186.7c0.1-0.5,0.1-0.9,0.2-1.3c-0.3,0.1-0.9,1.2-0.8,0.7C269.3,187.4,269.6,187.3,270.3,186.7z"/>
		<path class="st3" d="M270.5,188.2l0.2-0.7C270.5,187.6,270.4,187.7,270.5,188.2z"/>
		<path class="st3" d="M271,186.1l-0.3,1.4c0.2-0.1,0.5,0,0.2-0.6C271,187.1,270.9,186.7,271,186.1z"/>
		<path class="st3" d="M271.4,185.4c0.5-0.6,1-1.4,0.8,0C273.1,182.9,272.3,183,271.4,185.4z"/>
		<path class="st3" d="M276.2,180c0.2-0.3,0.4-0.6,0.6-0.9l-0.1-1C276.7,178.6,275.9,180,276.2,180z"/>
		<path class="st3" d="M265.9,193.6c0.3,0.1,0.7,0.1,1,0l0.3-1C266.8,193,266.2,193.8,265.9,193.6z"/>
		<path class="st3" d="M266.9,193.7l-0.5,1.5C267.2,194,267.1,193.7,266.9,193.7z"/>
		<path class="st3" d="M271.4,188.9c0.1-0.9,0.2-1.7,0.3-2.6c-0.2,1-0.3,2-0.5,3L271.4,188.9z"/>
		<polygon class="st3" points="262.6,198.3 262.7,197.3 262.4,198.9 		"/>
		<path class="st3" d="M260.4,201.3c0.1-0.8-1.1,0.2-0.9-0.5c-0.5,0.8-0.9,1.6-1.1,2.5C258.8,202.5,259.5,201.8,260.4,201.3z"/>
		<path class="st3" d="M257.9,204.7c0.2-0.4,0.4-0.9,0.5-1.3C258.1,203.8,258,204.2,257.9,204.7z"/>
		<path class="st3" d="M264.9,197.2c-0.5,0-0.9,0.2-1.2,0.6l0.9-0.1L264.9,197.2z"/>
		<polygon class="st3" points="264.5,197.6 264.5,197.6 263.7,198.6 		"/>
		<path class="st3" d="M265,197l-0.1,0.1C265,197.1,265,197.1,265,197z"/>
		<path class="st3" d="M269,192.1c-0.1,0.9-0.8,2.7,0.6,1.5C269.6,192.8,268.8,193.5,269,192.1z"/>
		<path class="st3" d="M266,196.9l1-1.3c-0.2-0.1-0.5,0-0.4-0.4C266.4,195.8,266.2,196.3,266,196.9z"/>
		<polygon class="st3" points="265.7,197.6 266,196.9 265.6,197.4 		"/>
		<path class="st3" d="M260.1,203c-0.3,0.7-0.7,1.4-1.2,2c0.7-0.6,1.3-1.3,1.9-2C260.7,202.7,260.7,202.2,260.1,203z"/>
		<path class="st3" d="M262.3,200.5l-0.1,0.1C262.4,200.6,262.4,200.5,262.3,200.5z"/>
		<polygon class="st3" points="253,211.1 253.2,211.1 253.2,211 		"/>
		<path class="st3" d="M261,202.9c0.4-0.3,0.7-0.8,0.8-1.3c-0.3,0.5-0.6,0.9-1,1.3C260.8,203.1,260.9,203.1,261,202.9z"/>
		<path class="st3" d="M256.5,206.6c0.4-0.2,0.7-0.4,1.1-0.6C257.1,206,256.8,206.3,256.5,206.6z"/>
		<path class="st3" d="M262,200.7v-0.1C261.8,200.7,261.9,200.7,262,200.7z"/>
		<path class="st3" d="M262,200.7c-0.1,0.3-0.2,0.7-0.3,1c0.2-0.3,0.4-0.7,0.5-1C262.2,200.7,262.1,200.7,262,200.7z"/>
		<path class="st3" d="M253.9,215.8c-0.3-0.5,0.7-2.2,2.3-2.9c0.8-1.4-1.3-2-3-1.9c0.1,0.2,0.3,0.4-0.6,1.8c0.6-0.1,3.1-2,2.5-0.6
			c-1.3,1.7-1.4,1.1-2.4,1.6c1.1-0.1-1.3,2.6-0.2,3.1l1.1-1.6C253.8,215.4,253.5,216,253.9,215.8z"/>
		<path class="st3" d="M255.4,209l0.4-0.5c-0.6,0.5-1.4,0.8-2.1,1.1c-0.6,1-0.6,1.3-0.5,1.5c0.8-0.7,1.6-1.5,2.3-2.2L255.4,209z"/>
		<path class="st3" d="M257.8,206.3c0.1,0.8-0.8,2.1,0.4,1.9c1.3-1.5,0.5-1.4,1.1-2.4C257.3,208.2,259.6,204.9,257.8,206.3
			c0.4-0.4,0.7-0.9,1.1-1.3c-0.4,0.4-0.8,0.7-1.3,1h0.1l0,0c0.1,0,0.2,0,0.1,0v0.1C257.8,206.1,257.8,206.2,257.8,206.3
			c-0.7,0.6-0.2,0-0.1-0.3c0,0,0-0.1,0-0.1l0,0c-0.6,0.8-1.2,1.7-1.8,2.5C256.6,207.8,257.2,207.1,257.8,206.3z"/>
		<path class="st3" d="M269.9,195.7c-0.1,0-0.1,0-0.2,0C269.7,196,269.7,196.1,269.9,195.7z"/>
		<path class="st3" d="M268.9,196.6c0-0.4,0.1-0.8,0.4-1.1c0.5-0.4,0.3,0.2,0.5,0.3c0.1-0.5,0.5-1.6-0.6-0.5v0.2
			c-0.9,1-2.4,1.9-2.4,1.6C267.5,197.1,268.2,196.9,268.9,196.6z"/>
		<path class="st3" d="M263.6,201.9l-1.4,2.2l1.3-0.7l-0.3-0.1C264.2,202.2,263.6,202.2,263.6,201.9z"/>
		<polygon class="st3" points="252.6,211.1 252.4,210.3 252,212.1 		"/>
		<polygon class="st3" points="250.2,213.4 249.9,212.9 249.5,213.8 		"/>
		<path class="st3" d="M114.5,202.1l0.3-0.8C114.7,201.6,114.6,201.8,114.5,202.1z"/>
		<path class="st3" d="M111.6,207.3l0.2,0.3C111.8,207.2,111.7,207.1,111.6,207.3z"/>
		<path class="st3" d="M177.4,251.4c-1.2-0.3-2.6-0.9-2.3-0.3l0.5,0.5C176.1,251.5,176.7,251.4,177.4,251.4z"/>
		<path class="st3" d="M121.5,250.4l0.2,0.4c0.4,0,0.7,0,1-0.1C122.3,250.6,121.9,250.5,121.5,250.4z"/>
		<path class="st3" d="M119.3,252.1c-0.4-0.4-0.7-0.9-1.1-1.3C118.6,251.3,118.9,251.7,119.3,252.1z"/>
		<path class="st3" d="M134.9,177.5l0.3-1.1C134.1,177.3,134.8,177.1,134.9,177.5z"/>
		<path class="st3" d="M222.4,233.9c-0.8,0.2-1.5,0.5-2.3,0.8C221.3,234.5,222.4,234.5,222.4,233.9z"/>
		<path class="st3" d="M119.2,207.5c0.1-0.5,0.1-0.7,0-0.8C119.1,207.2,119.1,207.5,119.2,207.5z"/>
		<path class="st3" d="M217.7,236c0.2,0,0.3-0.1,0.5-0.1c0.6-0.5,1.2-0.9,1.9-1.2C219.1,234.8,218.3,235.3,217.7,236z"/>
		<path class="st3" d="M240.1,137.1c0.1,0,0.2,0.1,0.3,0.1C240.4,137.2,240.3,137.1,240.1,137.1z"/>
		<path class="st3" d="M268.4,153.3c-0.2-0.2-0.6-0.5-0.9-0.8C267.7,152.8,268,153.1,268.4,153.3z"/>
		<path class="st3" d="M239.7,221.9C240.2,221.4,239.7,221.8,239.7,221.9L239.7,221.9z"/>
		<path class="st3" d="M244,221.7c-0.1,0.1-0.1,0.3,0,0.4C243.9,222,243.9,221.9,244,221.7z"/>
		<path class="st3" d="M213,242.8L213,242.8C213.2,242.9,213.1,242.9,213,242.8z"/>
		<path class="st3" d="M240.7,221.5c-0.3,0.1-0.6,0.3-0.8,0.4C240.1,221.8,240.4,221.6,240.7,221.5z"/>
		<path class="st3" d="M240.4,221.3l0.5-0.3C240.9,220.9,240.9,220.8,240.4,221.3z"/>
		<path class="st3" d="M238.9,222.5c0.3-0.2,0.7-0.4,1-0.6c-0.1,0.1-0.2,0.1-0.2,0L238.9,222.5z"/>
		<path class="st3" d="M180.9,151.3h0.2C181.6,150.8,181.3,150.9,180.9,151.3z"/>
		<polygon class="st3" points="159.5,260.7 159.6,260.7 159.5,260.7 		"/>
		<path class="st3" d="M156.8,261.4c0.7-0.6,1.7-0.9,2.7-0.7l-1-1.8L156.8,261.4z"/>
		<path class="st3" d="M122.7,190.6l-1.7,1.1c0.7-2.4,2.1-3.5,0.3-2.6c0.7,0.8-0.5,2.2-1.6,3.7c-1.1,1.5-2.2,3.1-1.5,3.8l-1.1,0.8
			c0.2-0.3,0.2-0.4,0.4-0.7c-2.2,1.5,0.1,2.3-1.8,4.8c-0.7,0.9-1.4,1.4-1.2,0.6c-0.3,0.8-0.6,1.6-0.8,2.4c-0.4,0.6-0.6,0.3-0.2-0.3
			c-0.6,1.1-1.1,2.3-1.6,3.4v0c0,0.6-0.1,1.9-0.1,2.6c-0.6,0.8,0-0.5-0.3-0.4c-0.1,0.7-0.3,1.4-0.4,2.1c-0.8,0.6-0.6-1.2,0.1-2.5
			c-2.6,1-0.3,1.8-2.9,5.4c0.1-0.7,0.3-1.3,0.5-2c-1.5,0.8-1.7,2.5-3,4.6c0.5-0.5,3.1-4,2.8-1.6c-0.5,0.8-0.7,1.8-0.6,2.7
			c-0.7-0.2-0.8,1.1-1.1,2.6l-0.9-0.3c0,1.8,0.5,1.7,0.8,2.7c-0.1,1.1-0.7,2.1-1.7,2.6c-0.3,3.1,1.2-2.1,1.3,1.6
			c-0.4,2.5,0.2,4.4,1.4,7.3c0.1,1.8-0.6-0.2-0.7,0.5c0.4,0.5,0.8,0.9,1.1,1.4c0.1,0.4-0.2,0.3-0.3,0.3c0.7,1.2,0.9-0.2,1.9,1.7
			c0.6,0.1,0.6,1.2,0.9,2.5c0.2,1.4,0.9,2.7,2.1,3.6c0.2,0.7-0.6,0.1-0.8,0.5c0.8,0.8,1.7,1.5,2.6,2.1c0.8,0.5,1.6,0.9,2.5,1.3
			c0.4,0.7,0.9,1.4,1.4,2c-0.9-1.7,1.3-0.8,3.3-0.4c-0.3-0.6-0.5-1.1-0.7-1.5c0.9,0.4,1.8,0.8,2.7,1.2c0.2,0.3-0.2,0.4-0.8,0.5
			l0.6,0.1c0.7,0.8,0,1-0.9,1.1c-0.2-0.4-0.4-0.7-0.6-1.1c-0.9,0.1-1.9,0.2-2.1,0.7c0.3,0.1,0.7,0.2,1,0.4c-0.3,0-0.4,0.1-0.4,0.2
			c0.3,0.2,0.7,0.3,1,0.2l0.1,1.3l0.4-0.3c1.1,0.9,2.2,1.8,3.4,2.5c3.2,0.3,6-0.3,10.3,0.4c-1.3,0.5-0.5,1.2-0.8,2
			c-1-1.2-3.5-0.5-5.7-1.5c1.1,0.5,0.7,0.8,0.4,0.9c1.4,0.2,2.9,0.4,4.3,0.4c-0.3,0.7,0.7,0.8,1.7,1.3c-0.5-1.6,3.3-0.3,5-0.5
			c0,0.5-0.4,1-2.5,0.5c2.1,1.5,3.2-1.2,5.3,0c-0.3-0.1-0.7-0.1-1,0.1c1.2-0.3,4,0.3,3.3,0.7h-0.5c2.1,0.3,4.3,0.4,6.4,0.3
			c2.2-0.1,4-0.6,4.2-1.2c-0.1,0.6-0.3,1.2-0.6,1.8c2-1.5,3.8-3,5.6-4.5c-0.4,1.1,1.8,3.5-0.9,4.3c1.2,0.2,2.3,0.1,3.4-0.3
			c-0.6-0.1-1.5-1.4-0.8-1.6c2.1,1,1.4,0.5,4.1,1.2c-0.8-0.1-0.1-1.9,1.1-2c-0.2,0.3,0.3,1.6-0.1,1.9c1-0.7,1.9-1.4,2.9-2.1
			c-0.7,0.4,0.1,1.4,0.9,1.8c-0.4-0.3,2.7-0.4,3.5-0.8l-1.4-0.1c3.6-0.4,3-2.9,6.4-3.6c-0.3,0.4-0.6,2.3,1.3,2.1
			c0.6-1,2.6-4.8,5.3-6.3l0.6,0.4l2.1-1.2c-1.8,2.6-3.9,4.9-6.3,7c1.4,0,0.5,0.5,2.4-0.1c0.8,0.3-0.9,1-1.5,1.1
			c1.6-0.3,3.1-0.6,4.6-1c-0.5-0.9,3.2-2,2.7-2.7c-1.5,0.8-3,1.6-4.6,2.4c-0.4-0.9,2.1-3.5,5.2-4.3c0.9,0.1-0.1,1.9,0.1,2.2
			c0.9-0.7,2-1.2,3.1-1.5l-1.2,1c1.9-0.2,2.4-2.2,4.8-2.1c0.7-0.2,2.6,0.4,2.5-0.2c-1.6-0.6-3-3.8-2.6-4.9c1.7-0.2,3.3-0.3,5-0.2
			c1.5,0.4-0.9,2.7,0.3,3c0.1-0.4,0.4-0.7,0.7-1c0.8-0.1,0,0.9,1.6,0.1c-0.1-1,3.3-1.3,0.4-1.1c1.4-0.9,1.7-0.5,3.5-1.4
			c-0.8-0.3,0.7-2.7,2.1-3.7c0.2,0.3,0.4,0.4,0.7,0.5c3.1-1.4,5-1.9,7.8-3.4c0.4,0.1,1.9-0.4,1.5,0.3c0.4-0.6,0.8-1,1.4-1.4
			c2.1-0.2-1.9,1.2-0.1,1.4c-0.2-0.6,1.9-2,2.9-3c-0.8-0.5-2.9,1.5-4,2.5c-0.6-1.1,0.9-3.4,3.5-5.6c2.1-1.6,1.4,0.1,1.7-0.3
			c4.4-2.4,2.4-4.1,6.3-5.6c1.8-0.3,1,1.3,1.6,1.5c-1.6,1.5-3,1.4-4.3,2.3l1.7-0.7c-0.6,0.8-1.4,1.4-2.3,1.8
			c1.6-0.1,7.2-4.5,10.6-6.3c0.4-0.6,1.2-1.6,0.5-1.5l-0.9,0.8c-1.3,0.2,1.3-2.1-0.1-1.4c1-1.7,2.4-3.1,4-4.1l0.9,0.4
			c-0.7,0.1-1.4,0.5-1.8,1.1c0.5-0.9,3.5-1.3,3.5-2.9l-1.6,0.5c1-1.4,1.8-3.4,3.5-4.5c-1.3-0.1-0.3,0.4-2,0.5c1.8,0.2-3.9,3.3-1.5,3
			c-1.9,0-2.3,1.2-4.4,1.6c0.2,0.2,0.9,0-0.5,0.9c0,0.1-0.1,0.3-0.1,0.4l-0.1,0.1h0.1c0,0.1,0,0.1,0,0c0.3-0.1,0.7-0.2,1-0.2
			c-0.2,1-2.4,2.7-2.9,3.5c-0.9,0.5,0.1-0.5-0.5-0.5l-0.8,1.2c-0.5-0.5-2.8,0.6-1.1-1l-1.7,1.2c-1.3,0.4-2.5,1.1-3.5,2
			c-0.9,0.4-1.7,2-1.3,1.1l-2.6,2.1l-0.1-0.1c-2.8,1.6-5.3,4.4-9.1,5.1c-1.1,0.8-2.3,1.5-3.5,2l-0.6-0.4c-1.2,0.8-4.1,1.4-4.4,2.1
			c-2-0.7-6.4,2.5-8.8,3.2l0.2,0.7c-1.7,0.7-3.3,1.5-4.9,2.4l0.4,0.6c-1.6,1.1-4.6,1.1-7.4,2.1c0.4-0.3,0.9-0.5,1.4-0.5
			c-3.7-0.4-6.7,3.2-10,2.9c-0.5,0.3-1.2,0.5-1.8,0.4c0.1,0,0.1,0,0.2-0.1l-0.3,0.1c-0.4,0-0.7-0.1-1.1-0.1c0.3,0.1,0.7,0.1,1,0.1
			c-0.8,0.2-1.6,0.5-2.3,0.8l-0.5-0.6l-0.2,0.1c-0.9-0.1-0.6,0.5-0.1,0.9c-0.4,0.2-0.7,0.4-1.1,0.6c-0.9-1-2.3,0.8-3.4-0.2
			c-0.5,0.7-4.4,1.1-4.7,2.4c-0.1-0.2-0.3-0.2,0.2-0.3c-1-0.1-2,0-2.9,0.4l-0.5-0.9c-0.7,0.5-1.4,0.9-2.1,1.4
			c-1.4-0.4-1.9-0.7-0.7-1.5c-3.1,1.3-2.5,0.6-5.2,1.7l0.1-0.6c-1,0-2.5,0.8-3.1,0.4c-1.1-0.6-3.7-0.6-6.8-1c-3.1-0.2-6.1-0.9-9-2
			c0.6,1.9-2.2-1.4-2.8-0.2c-0.2-0.5-0.8-0.9,0.1-1c-2.7-0.4-3.6-1.9-5.7-1.6c-0.1-0.5,0.8-0.3,0.6-0.6c-0.4,0-0.7-0.1-1-0.4
			c-0.1-0.3,0.5-0.1,0.9-0.1c-2.4-1.1-3.2-0.2-4,0.7c-0.6-1-1.7-1.6-2.8-1.5c-0.2-0.6-0.6-1.4,0.9-0.5c-0.4-0.3-1.5-1.3-2.4-2.2
			s-1.9-1.7-2.3-1.5c-0.2-0.5-0.6-0.9-1.1-1.2c-0.8-1.2-1.6-2.5-2.4-3.8l0.1,0.6c-1.4-0.2-1.1-1.5-1.8-3h0.1c0-0.9-0.2-1.9-0.6-2.8
			c-0.2-0.4-0.4-0.8-0.2-2.8l-0.7,0.3c-0.8-0.1-0.7-1-0.4-2.2c0.4-1.2,0.6-2.4,0.6-3.6l-0.4,0.8c-0.5-1.4,2.4-3.3,2.8-4.4
			c0.2-0.2,0.1,0.4,0.2,0.8c1.5-2.9-0.9-0.6-0.6-3c0.6-0.3,1.1,0.8,1.6-0.7c0.3-0.3,0.2-1.5,0.3-2.9c0-1.4,0.5-2.7,1.4-3.8
			c-0.6,0.3-1.1,0.6-0.9-0.6c0.6-1.7,3.4-3.6,3.1-5.6c0.1-0.1,0.3-0.2,0.4-0.1c0.4-1.3,1.9-4,1.8-5.1c1.4,0.2,2.3-1.7,3.3-3.5
			s1.8-3.4,2.7-2.6c0.9-1.1,1.8-2.2,2.7-3.3l0.1,0.2c1.2-1,2.1-2.4,2.5-4c0.6-0.3,0.4,0.1,0.4,0.3c3.1-2.5,3.3-2.8,5-5.9l0.7,0.3
			c0.4-0.9,5-2.9,7.6-6c0,0.2,0,0.4-0.1,0.5c2.9-3.4,9.6-4.5,9.4-7.6l2.1-2.1c-3.3,1.9-0.2-1.3-1.7-0.8c1.2-1,3.7-1.4,2.2-0.3h-0.3
			c0.2,1.5,4.2-2.1,4.6-1.2c6.3-3.9,13.1-6.5,19.4-9.2l-1.2-0.7l2.2-0.9c0.7,0,1.1,0.4-0.5,1.1c1.1,0.2,2.4-1.6,2.4-1.8
			c3.3-0.9-0.7,1.7,0.2,1.3l1.3-0.6h-0.3c0.9-0.8,0.8-1.3,2.7-2c1.3-0.3,0.9,0.4,1.4,0.2c0,0.1,0.2,0,0.8-0.3l2.9-1l-1.4-0.4
			c1.1-0.9,2.7-0.9,1.1-1.4c1.2,0.4,3.9-0.4,6.6-1.2c1.9-0.7,3.8-1.2,5.8-1.5c1.8-1,3.7-1.7,5.8-1.9c-0.6,0-1.1-0.9,0.8-1.2
			c-0.3,2.1,3.8,0.1,5.6,1.2c-1.6-0.7,5.5-1.1,3.1-2.1c1.7-0.1,0.2,0.7,1.5,1c3.8-1.3,8.6-0.4,13.4-0.7c0.1-0.3-0.7-0.6,0.3-1
			c0.9,0.4,1.7,0.9,2.5,1.3c0.9-0.1,0.9-1.5,2.6-0.5c-0.2-0.2-0.6-0.6,0.1-0.6c4.7,0.9,9.4,1.4,14,2.6c4.6,1.3,9,3.4,11.7,7.1
			c-0.6-1.1,0-0.7,0.8-0.1c-0.4-0.5,0.4-0.5,0.5-0.8c0.8,1.1,1.4,2.2,2,3.3c0.6-0.1,1.3,0.7,1.8,1.4s1.1,1.6,1.6,1.5
			c-0.3-0.3-0.5-0.6-0.8-0.9c0.9,0.4,1.1-0.4,1.2-1.5s0-2.2,0.6-2.6c-1.1-0.4-1.7-1.7-2.5-3.1c-0.8-1.6-2.2-2.7-4-3
			c-0.5-0.7,0.8,0,0.6-0.5c-1.1,0-2-0.5-3.5-1.6h0.3c-2.4-1.3-4.1-2.1-5.9-3c-2.1-1-4.3-1.9-6.6-2.6l0.3,0.8c-0.7-0.2-1.4-0.5-2-0.9
			c-1.6,0.7,3.5,0.8,1.9,1.7c-0.6-0.9-2.9-1.4-5-1.7c-2.1-0.3-4.2-0.6-4.7-1.5c-2-0.2,0.5,0.8-1.4,0.7l-0.5-0.5l-0.5,0.5
			c-1.3-0.2-1.9-0.7-1.9-1.1c0.4,0,0.8,0,1.2-0.1c-1.7-0.6-4.7,0-5.3-0.1l1.9,0.3c-5.3,0.3-11.9,0.3-16.8,1.9l0.4,0.3
			c-3.7,1.2-3.1,0.1-7.3,1.1l0.1-0.1c-0.9,0.5-1.9,0.9-3,1.1c1-0.6-2.1-0.3-0.9-1c-3.9,1.6-1.9,1-4.3,2.8l-0.8-0.4
			c-0.7,0.8-1.7,1.4-2.8,1.7c1.5-0.9-1.5-0.4,0.2-1.6c-4.6,0.1-5.9,3.1-8.4,2c-1.4,2.1,3.9-0.4,2.9,0.3c1.1,0.2-1.2,1.6-2.6,1.9
			s-2.9-1.1-6.3,0.2c0.3-0.1,0.3-0.2,0.6-0.4c-1.4,0.1-2.3,1.4-4,1.5c-0.5,1.2-2,0.8-1.8,1.9l2.9-1.5c-1.6,1-2.7,2.9-5.7,3.5
			c0.4-0.4,0.8-0.8,1.3-1.1c-1,0-1.5,0.9-2.5,1c-0.2-1.2,3.5-1.8,5-3.4c-1.1-0.1-3.1,2.2-2.7,0.7c-0.7,2-3.3,1.2-5,3.4l-0.1-0.7
			c-0.4,0.5-1,0.9-1.5,1.2l0.8-1.4c-1.4,1.5-3.7,1-5.2,2.3c3.5-1.8,1.2,0.4,2.9,0.1c-3.9,3-3.3-0.4-8,2.5c0.6-0.5,2.6-1,1.8-0.1
			c-1,0.4-2,0.7-3,0.8c-3.1,1.9,0.8,0.4-0.3,1.5c-1.5-0.1-1.4,1.2-2.6,2.2l-0.4-0.6c-3.8,1.7-0.2,1.8-3.6,3.3l0.8-1.7l-1.5,1.2
			l-0.1-0.9c-1.1,1.2-2.4,2.2-3.9,2.8c0.7,0.1,0.5,1.2-1,2.3c-1.3,0.4,0.2-1-1.9,0.6c0.1-0.9,0.8-1.6,1.7-1.6c0-0.3,0.2-0.7,0.2-0.9
			c-1.4,0.4-2.8,1.8-3.6,2.4c0.3-0.2,0.6-0.4,0.9-0.5c-0.8,1-1.6,2-2.4,3c-0.6,0.1-0.4-0.3-0.1-0.8c-0.6,0.5-0.8,1.1-1.6,1.8
			c-0.4-0.8-0.1-1.7,0.6-2.2l-2.5,2.6c-0.3-0.1-1.9,0.6-1.6,0.1c-1.8,1-3.1,4-5.4,5.4c-0.1,0.3-0.3,0.6-0.5,0.9
			c-1.9,1.6-4,2.6-5.6,5.2l-1.9,0.5c-1.4,1.8,2.5-0.7,0.1,2.3c-1.6,2.2-1.3,0.1-2.2,0.7c-0.5,1.4-1.3,3.8-3.5,5.2
			C121.7,191.8,122.2,191.2,122.7,190.6z M108.5,215.7c0-0.6,0-1.8,0.5-2.1C109.6,214.5,109,214.8,108.5,215.7L108.5,215.7z
			 M124.4,253.7c-0.6-0.1-1.2-0.5-1.5-1C123.5,252.9,124,253.3,124.4,253.7L124.4,253.7z M233.6,226.9L233.6,226.9
			C232.5,227.4,232.9,227.3,233.6,226.9L233.6,226.9z M235.8,225.8c0.1-0.2,0.1-0.3-0.1-0.3c-0.2,0.4-0.6,0.7-1,0.9
			C235.1,226.4,235.6,226.2,235.8,225.8L235.8,225.8z M189.9,152.8h-0.5C190.3,152.2,190.1,152.5,189.9,152.8L189.9,152.8z"/>
		<path class="st3" d="M119.6,251.9c-0.1-0.1-0.1-0.3,0-0.5C119.4,251.4,119.3,251.6,119.6,251.9z"/>
		<path class="st3" d="M134.9,177.7L134.9,177.7c0.1-0.1,0.1-0.2,0.1-0.2L134.9,177.7z"/>
		<path class="st3" d="M205,249.4c-0.4,0.1-0.7,0.1-1.1,0C204,249.7,204.3,249.7,205,249.4z"/>
		<path class="st3" d="M245.2,217l-1.1,1.1c0.3-0.3,0.8-0.6,1.2-0.7C245.2,217.4,244.9,217.4,245.2,217z"/>
		<path class="st3" d="M258.1,211c0.1-0.2,0.3-0.4,0.4-0.6l-0.3-0.2C257.6,210.9,257.3,211.6,258.1,211z"/>
		<path class="st3" d="M247.9,217.9c0.5,0.4,1.1-0.4,1.9-1.2l-0.1,0.1C249.2,216,248.5,216.9,247.9,217.9z"/>
		<path class="st3" d="M249.9,216.5c0.2-0.2,0.5-0.5,0.8-0.7C250.5,215.5,250.3,216,249.9,216.5z"/>
		<path class="st3" d="M238.1,223.7c0.5-0.2-0.2-0.8,0.2-0.8C238.3,222,236,225.7,238.1,223.7z"/>
		<polygon class="st3" points="249.8,218.8 249,218.5 248.9,219.4 		"/>
		<path class="st3" d="M242.7,223.9l1.5-0.9c-0.1-0.1,0-0.3,0.2-0.5C243.5,223.2,242.5,223.8,242.7,223.9z"/>
		<path class="st3" d="M244.4,222.5c0.4-0.3,0.7-0.6,1-1C245.1,221.8,244.7,222.2,244.4,222.5z"/>
		<polygon class="st3" points="248.1,220.6 247.6,220.8 246.6,221.5 		"/>
		<path class="st3" d="M226.9,234.5l-1.6,1.2c0,0.3,0.5,0.2,1.1-0.3C226.6,235,227.2,234.6,226.9,234.5z"/>
		<path class="st3" d="M232.9,233.1c-0.3,0.1-0.7,0.1-1,0l0.4,0.8L232.9,233.1z"/>
		<path class="st3" d="M228.1,236.3c0,0.3-2.1,2.1,0,0.8C228.2,236.8,229.8,235.6,228.1,236.3z"/>
		<polygon class="st3" points="201.3,248.3 201.7,248.1 201.1,246.7 		"/>
		<path class="st3" d="M177.3,259.2c2.4-0.1,0.4-1,2.5-1c0.5-0.5-1.8,0-1.3-0.4C177.2,258.5,176.4,258.4,177.3,259.2z"/>
		<path class="st3" d="M178.5,257.8c0.2-0.1,0.4-0.2,0.7-0.4C178.9,257.5,178.7,257.6,178.5,257.8z"/>
		<path class="st3" d="M270.9,157.4c0.2,0.4,0.3,0.8,0.5,1.2v-1L270.9,157.4z"/>
		<path class="st3" d="M273.2,158.9l-0.7,0.7l1.1,0.3C273.4,159.6,273.2,159.2,273.2,158.9z"/>
		<path class="st3" d="M105.5,219.5l0.2,0.2c0.3-0.4,0.6-0.8,0.6-1.3C106,218.8,105.7,219.1,105.5,219.5z"/>
		<polygon class="st3" points="114.8,200 114.6,200.3 115.7,200.1 		"/>
		<path class="st3" d="M124.9,185.4c-0.5,0.5-0.9,1.3-1.5,1.8C124.3,185.9,125.8,186,124.9,185.4z"/>
		<polygon class="st28" points="100.3,451.9 112.5,469.9 507.1,395 		"/>
		<polygon class="st28" points="484.8,154 516.4,175.4 446.9,206.9 		"/>
		<polygon class="st28" points="447.9,141 472.9,137.3 453.1,183.8 		"/>
	</g>
</g>
</svg>
