<svg xmlns="http://www.w3.org/2000/svg" xmlns:xlink="http://www.w3.org/1999/xlink" viewBox="0 0 1201 1200.7"><defs><style>.cls-1{isolation:isolate;}.cls-2{fill:url(#linear-gradient);}.cls-3{opacity:0.51;fill:url(#linear-gradient-2);}.cls-3,.cls-4,.cls-5{mix-blend-mode:screen;}.cls-4{opacity:0.7;fill:url(#linear-gradient-3);}.cls-5{opacity:0.49;}.cls-6{fill:#fff;}.cls-7{fill:none;stroke:#717171;stroke-miterlimit:1;stroke-width:0.59px;}.cls-8{opacity:0.58;}.cls-9{fill:#231f20;}.cls-10{fill:#1d8733;}.cls-11{fill:#6af771;}.cls-12{fill:#83ff7e;}.cls-13{fill:#58ea68;}</style><linearGradient id="linear-gradient" x1="600.5" y1="1200.37" x2="600.5" y2="0.37" gradientUnits="userSpaceOnUse"><stop offset="0" stop-color="#656565"/><stop offset="0.62" stop-color="#1b1b1b"/><stop offset="0.63" stop-color="#545454"/><stop offset="0.98" stop-color="#3e3e3e"/></linearGradient><linearGradient id="linear-gradient-2" x1="600.5" y1="1200.37" x2="600.5" y2="0.37" gradientUnits="userSpaceOnUse"><stop offset="0" stop-color="#0e0e0e"/><stop offset="0.5"/><stop offset="0.52" stop-color="#010101"/><stop offset="0.73" stop-color="#0b0b0b"/><stop offset="1" stop-color="#0e0e0e"/></linearGradient><linearGradient id="linear-gradient-3" x1="600.5" y1="0.37" x2="600.5" y2="1200.37" gradientUnits="userSpaceOnUse"><stop offset="0" stop-color="#fff" stop-opacity="0.77"/><stop offset="0.2" stop-color="#fff" stop-opacity="0.65"/><stop offset="0.34" stop-color="#fff" stop-opacity="0.65"/><stop offset="0.35" stop-color="#fff" stop-opacity="0.65"/><stop offset="0.37" stop-color="#fff" stop-opacity="0.62"/><stop offset="0.4" stop-color="#fff" stop-opacity="0.53"/><stop offset="0.43" stop-color="#fff" stop-opacity="0.39"/><stop offset="0.47" stop-color="#fff" stop-opacity="0.2"/><stop offset="0.51" stop-color="#fff" stop-opacity="0"/><stop offset="0.59" stop-color="#7e7e7e" stop-opacity="0.09"/><stop offset="1" stop-color="#1b1b1b" stop-opacity="0.16"/></linearGradient></defs><title>logo_3</title><g class="cls-1"><g id="Layer_1" data-name="Layer 1"><rect class="cls-2" x="0.5" y="0.37" width="1200" height="1200"/><rect class="cls-3" x="0.5" y="0.37" width="1200" height="1200"/><rect class="cls-4" x="0.5" y="0.37" width="1200" height="1200"/><g class="cls-5"><path class="cls-6" d="M0.36,1199.65V49q0-23.32,0-46.64c0-2.34-.21-1.84,2.27-1.68,5.49,0.37,11.13,0,16.63,0H1191.84c0.89,0,7.77-.38,7.8-0.35,0.95,0.94,0,7.79,0,9V1182.53c0,5,.49,10.38,0,15.4-0.21,2.2,0,1.35-2.7,1.35H0.35s0,0.73,0,.73H1181.57c5.27,0,10.78.45,16,0,0.67-.06,1.37,0,2,0,0,0,0-.36,0-0.36V49q0-23.32,0-46.64,0-1,0-2s0-.36,0-0.36H18.43c-5.27,0-10.78-.45-16,0C1.72,0,1,0,.35,0c0,0,0,.36,0,0.36V1151q0,23.32,0,46.64,0,1,0,2C0.35,1200.05.36,1200.07,0.36,1199.65Z" transform="translate(0.5 0.37)"/></g><rect class="cls-7" x="0.5" y="0.37" width="1200" height="1200"/><g class="cls-8"><path d="M1200,1199.94H48.71c-15.46,0-31.22.88-46.67,0-2.4-.14-2,0.32-2-2.21-0.09-5.54,0-11.09,0-16.63q0-37.69,0-75.38,0-60,0-120Q0,909.47,0,833.2q0-84.85,0-169.7,0-87.56,0-175.11,0-83.28,0-166.55Q0,249.76,0,177.7,0,122.89,0,68.08,0,37.94,0,7.81C0,6.67-.71.75,0,0.06c1-1,7.72,0,9,0H1182.87c4.94,0,10.51-.72,15.41,0,2.26,0.33,1.72-.08,1.72,2.64V1200c0,0.07,0,.07,0,0V48.71c0-15.41,1.12-31.29,0-46.67,0-.67,0-1.37,0-2V-0.06H18.09c-5.27,0-10.79-.46-16,0-0.67.06-1.37,0-2,0V1151.29c0,15.41-1.12,31.29,0,46.67,0,0.67,0,1.37,0,2v0.06H1151.29c15.53,0,31.15.51,46.67,0,0.68,0,1.36,0,2,0v-0.12Z" transform="translate(0.5 0.37)"/></g><path class="cls-9" d="M370,782.25c-8.29-7.28-10.49-16.75-10.49-25,0-5.75,1.78-15.73,9.89-23.17,6.09-5.58,14.12-9,26.73-9a83.71,83.71,0,0,1,12.26.85c3.21,0.42,5.92,1.18,8.46,1.44,0.93,0.08,1.27.51,1.27,1,0,0.68-.25,1.69-0.42,4.65-0.17,2.79-.08,7.44-0.25,9.13-0.08,1.27-.25,1.95-1,1.95s-0.85-.68-0.85-1.86a12.07,12.07,0,0,0-3.3-7.78c-2.79-3-9.39-5.25-17.17-5.25-7.36,0-12.18,1.86-15.9,5.25-6.17,5.67-7.78,13.7-7.78,21.91,0,20.13,15.31,30.11,26.64,30.11,7.53,0,12.09-.85,15.48-4.74a14.12,14.12,0,0,0,2.88-5.58c0.25-1.35.42-1.69,1.1-1.69s0.76,0.59.76,1.27a80.35,80.35,0,0,1-1.86,11.25,3,3,0,0,1-2.2,2.45c-3.38,1.35-9.81,1.94-15.22,1.94C387.42,791.47,377.69,788.93,370,782.25Z" transform="translate(0.5 0.37)"/><path class="cls-9" d="M427.17,758.32c0-14.46,9.56-33.15,34.93-33.15,21.06,0,34.17,12.26,34.17,31.63s-13.53,34.68-35,34.68C437,791.47,427.17,773.29,427.17,758.32Zm57.26,1.61c0-18.95-10.91-30.7-24.78-30.7-9.73,0-20.8,5.41-20.8,26.47,0,17.59,9.73,31.55,26,31.55C470.72,787.24,484.42,784.37,484.42,759.92Z" transform="translate(0.5 0.37)"/><path class="cls-9" d="M517.49,727.36c0.25-1.44.76-2.2,1.44-2.2s1.18,0.42,2.28,2.62l23.09,47,23-47.62c0.68-1.35,1.1-2,1.86-2s1.27,0.85,1.52,2.62l7.7,51.76c0.76,5.33,1.61,7.78,4.14,8.54a17,17,0,0,0,5.24.85c0.76,0,1.35.08,1.35,0.59,0,0.67-1,.93-2.2.93-2.11,0-13.78-.17-17.17-0.42-1.95-.17-2.45-0.42-2.45-0.93a1.15,1.15,0,0,1,.93-0.93c0.51-.17.76-1.27,0.42-3.64l-5.07-36.79h-0.34l-18.44,37.72c-1.94,4-2.37,4.73-3.13,4.73s-1.61-1.69-3-4.23c-2-3.89-8.71-16.83-9.73-19.2-0.76-1.78-5.84-11.75-8.79-18.1h-0.34l-4.4,33a33.53,33.53,0,0,0-.25,4c0,1.61,1.1,2.37,2.54,2.71a16.32,16.32,0,0,0,3.55.42c0.68,0,1.27.17,1.27,0.59,0,0.76-.76.93-2,0.93-3.55,0-7.36-.25-8.88-0.25s-5.67.25-8.37,0.25c-0.85,0-1.52-.17-1.52-0.93,0-.42.51-0.59,1.35-0.59a10.87,10.87,0,0,0,2.54-.25c2.37-.51,3-3.81,3.47-6.68Z" transform="translate(0.5 0.37)"/><path class="cls-9" d="M602.58,750.87c0-12.86,0-15.22-.17-17.93-0.17-2.87-.85-4.23-3.64-4.82a17.44,17.44,0,0,0-3.3-.25c-0.93,0-1.44-.17-1.44-0.76s0.59-.76,1.86-0.76c4.48,0,9.81.25,12.18,0.25,3.47,0,8.37-.25,12.26-0.25,10.57,0,14.38,3.55,15.73,4.82a14.7,14.7,0,0,1,4.23,10.06c0,12-8.8,20.47-20.81,20.47a12.43,12.43,0,0,1-1.78-.09,0.94,0.94,0,0,1-1-.76c0-.68.59-0.93,2.37-0.93,4.74,0,11.33-5.33,11.33-14,0-2.79-.25-8.46-5-12.69A12.57,12.57,0,0,0,617,730a12,12,0,0,0-3.3.34,1.55,1.55,0,0,0-.68,1.61v33.83c0,7.78,0,14.46.42,18.1,0.25,2.37.76,4.23,3.3,4.57a35.63,35.63,0,0,0,4.31.34c0.93,0,1.35.25,1.35,0.68,0,0.59-.68.84-1.61,0.84-5.58,0-10.91-.25-13.11-0.25-1.95,0-7.27.25-10.66,0.25-1.1,0-1.69-.25-1.69-0.84,0-.42.34-0.68,1.35-0.68a13.82,13.82,0,0,0,3-.34c1.69-.34,2.11-2.2,2.45-4.65,0.42-3.55.42-10.23,0.42-18V750.87Z" transform="translate(0.5 0.37)"/><path class="cls-9" d="M657.13,768.72a0.73,0.73,0,0,0-.76.68L651.81,781a16.37,16.37,0,0,0-1.27,5.16c0,1.52.76,2.62,3.38,2.62h1.27c1,0,1.27.17,1.27,0.68,0,0.68-.51.84-1.44,0.84-2.71,0-6.34-.25-9-0.25-0.93,0-5.58.25-10,.25-1.1,0-1.61-.17-1.61-0.84,0-.51.34-0.68,1-0.68a25.47,25.47,0,0,0,2.62-.17c3.89-.51,5.5-3.38,7.19-7.61l21.23-52.44c1-2.45,1.52-3.38,2.37-3.38s1.27,0.76,2.12,2.71c2,4.65,15.56,38.48,21,51.34,3.22,7.61,5.67,8.79,7.44,9.22a18.55,18.55,0,0,0,3.55.34c0.68,0,1.1.08,1.1,0.68s-0.76.84-3.89,0.84-9.22,0-16-.17c-1.52-.08-2.54-0.08-2.54-0.68s0.34-.68,1.18-0.76a1.38,1.38,0,0,0,.76-1.95l-6.77-17.42a0.82,0.82,0,0,0-.85-0.59H657.13Zm17.25-4.23c0.42,0,.51-0.25.42-0.51l-7.61-20.81a0.84,0.84,0,0,0-.42-0.76,0.89,0.89,0,0,0-.51.76l-7.78,20.72c-0.08.34,0,.59,0.34,0.59h15.56Z" transform="translate(0.5 0.37)"/><path class="cls-9" d="M717.69,778.78c0.17,6.6,1.27,8.8,3,9.39a13.41,13.41,0,0,0,4.4.59c0.93,0,1.44.17,1.44,0.68,0,0.68-.76.84-1.95,0.84-5.5,0-8.88-.25-10.49-0.25-0.76,0-4.74.25-9.13,0.25-1.1,0-1.86-.09-1.86-0.84,0-.51.51-0.68,1.35-0.68a15,15,0,0,0,3.8-.42c2.2-.68,2.54-3.13,2.62-10.49L711.6,728c0-1.69.25-2.88,1.1-2.88s1.69,1.1,3.13,2.62c1,1.1,13.87,14.63,26.22,26.89,5.75,5.75,17.17,17.93,18.61,19.28h0.42l-0.85-38c-0.08-5.16-.85-6.76-2.87-7.61a13.81,13.81,0,0,0-4.48-.51c-1,0-1.35-.25-1.35-0.76,0-.68.93-0.76,2.2-0.76,4.4,0,8.46.25,10.23,0.25,0.93,0,4.14-.25,8.29-0.25,1.1,0,1.95.08,1.95,0.76,0,0.51-.51.76-1.52,0.76a9.21,9.21,0,0,0-2.54.25c-2.37.68-3,2.45-3.13,7.19l-0.93,53.37c0,1.86-.34,2.62-1.1,2.62-0.93,0-1.95-.93-2.87-1.86-5.33-5.08-16.15-16.16-24.95-24.87-9.22-9.13-18.61-19.45-20.13-21.06h-0.25Z" transform="translate(0.5 0.37)"/><path class="cls-9" d="M802.52,768.38a17.93,17.93,0,0,0-1.95-8.88c-0.59-1.35-11.93-20-14.88-24.36a20.67,20.67,0,0,0-5.84-6.17,8.61,8.61,0,0,0-3.55-1.1c-0.68,0-1.27-.17-1.27-0.76s0.59-.76,1.61-0.76c1.52,0,7.86.25,10.66,0.25,1.77,0,5.24-.25,9-0.25q1.27,0,1.27.76c0,0.51-.59.59-1.86,0.93a1.52,1.52,0,0,0-1.18,1.52,7.79,7.79,0,0,0,1,2.88c1.18,2.54,13,22.92,14.38,25.29,0.84-2,11.5-20.64,12.69-23.26a11.05,11.05,0,0,0,1.18-4.4,2,2,0,0,0-1.78-2.11c-0.76-.17-1.52-0.34-1.52-0.85s0.42-.76,1.44-0.76c2.79,0,5.5.25,7.95,0.25,1.86,0,7.44-.25,9.05-0.25,0.93,0,1.52.17,1.52,0.68s-0.68.84-1.61,0.84a9.13,9.13,0,0,0-3.72,1c-1.77.84-2.71,1.86-4.57,4.14-2.79,3.38-14.63,23.26-16.15,26.9a20.25,20.25,0,0,0-1.27,8.46v6.93c0,1.35,0,4.91.25,8.46,0.17,2.45.93,4.31,3.47,4.65a35.67,35.67,0,0,0,4.23.34c0.93,0,1.36.25,1.36,0.68,0,0.59-.68.84-1.78,0.84-5.33,0-10.66-.25-12.94-0.25-2.11,0-7.44.25-10.57,0.25-1.18,0-1.86-.17-1.86-0.84,0-.42.42-0.68,1.35-0.68a13.58,13.58,0,0,0,3-.34c1.69-.34,2.46-2.2,2.62-4.65,0.26-3.55.26-7.1,0.26-8.46v-6.93Z" transform="translate(0.5 0.37)"/><path class="cls-10" d="M359.85,837.43v-5.92h5.73V816.7h6.5v14.81H382.4v5.92H372.09v38.79h-6.5V837.43h-5.73Z" transform="translate(0.5 0.37)"/><path class="cls-10" d="M392.58,870.64a23.88,23.88,0,0,1-.1-33.54q6.83-7.12,15.33-7.12,8.79,0,15.67,7.45v-5.92H430v44.71h-6.5V870.4q-6.79,7.36-15.48,7.36Q399.5,877.75,392.58,870.64Zm4.3-29.43a19.31,19.31,0,0,0,0,25.32q4.73,5.3,10.94,5.3t10.94-5.3a19.31,19.31,0,0,0,0-25.32q-4.73-5.3-10.94-5.3T396.88,841.21Z" transform="translate(0.5 0.37)"/><path class="cls-10" d="M446.18,870.64a23.88,23.88,0,0,1-.1-33.54q6.83-7.12,15.33-7.12,8.79,0,15.67,7.45v-5.92h6.5v43q0,10.41-5.4,15.62t-14.29,5.21H449.19v-5.92H463.9q6.31,0,9.75-3.77t3.44-11.13V870.4q-6.79,7.36-15.48,7.36Q453.1,877.75,446.18,870.64Zm4.3-29.43a19.31,19.31,0,0,0,0,25.32q4.73,5.3,10.94,5.3t10.94-5.3a19.31,19.31,0,0,0,0-25.32q-4.73-5.3-10.94-5.3T450.48,841.21Z" transform="translate(0.5 0.37)"/><path class="cls-10" d="M496.1,876.22V806.86h6.5v69.36h-6.5Z" transform="translate(0.5 0.37)"/><path class="cls-10" d="M514.68,821.34a5.31,5.31,0,1,1,3.68,1.48A5,5,0,0,1,514.68,821.34Zm0.43,54.89V831.51h6.5v44.71h-6.5Z" transform="translate(0.5 0.37)"/><path class="cls-10" d="M573.2,847.94v28.28h-6.5V847.94a11.4,11.4,0,0,0-3.63-8.55,13.35,13.35,0,0,0-9.65-3.49,11.25,11.25,0,0,0-9.65,5.16,21.68,21.68,0,0,0-3.63,12.8v22.36h-6.5V831.51h6.5v4A17.72,17.72,0,0,1,553.42,830q8.5,0,14.14,4.83T573.2,847.94Z" transform="translate(0.5 0.37)"/><path class="cls-10" d="M588.49,853.87a18.38,18.38,0,0,0,4.73,12.66q4.73,5.3,10.94,5.3,6.88,0,10-1.91a17.1,17.1,0,0,0,5.59-6.21l5.16,3.44a24.83,24.83,0,0,1-8,8q-4.49,2.63-12.52,2.63-8.5,0-15.43-7.12a23.88,23.88,0,0,1-.09-33.54q6.83-7.12,15.34-7.12t15.33,7.12a23.42,23.42,0,0,1,6.83,16.77H588.49Zm1-5.92h29.43a17.76,17.76,0,0,0-5.73-8.65,13.58,13.58,0,0,0-18,0A17.74,17.74,0,0,0,589.44,847.94Z" transform="translate(0.5 0.37)"/><path class="cls-10" d="M695.88,847.94v28.28h-6.5V847.94a11.4,11.4,0,0,0-3.63-8.55,13.34,13.34,0,0,0-9.65-3.49,11.26,11.26,0,0,0-9.65,5.16,21.68,21.68,0,0,0-3.63,12.8v22.36h-6.5V806.86h6.5v28.76A17.77,17.77,0,0,1,676.1,830a21,21,0,0,1,14.14,4.83Q695.88,839.63,695.88,847.94Z" transform="translate(0.5 0.37)"/><path class="cls-10" d="M711.16,853.87a18.37,18.37,0,0,0,4.73,12.66q4.73,5.3,10.94,5.3,6.88,0,10-1.91a17.1,17.1,0,0,0,5.59-6.21l5.16,3.44a24.83,24.83,0,0,1-8,8Q735,877.75,727,877.75q-8.5,0-15.43-7.12a23.87,23.87,0,0,1-.1-33.54q6.83-7.12,15.33-7.12t15.33,7.12A23.42,23.42,0,0,1,749,853.87H711.16Zm1-5.92h29.43a17.76,17.76,0,0,0-5.73-8.65,13.58,13.58,0,0,0-18,0A17.75,17.75,0,0,0,712.12,847.94Z" transform="translate(0.5 0.37)"/><path class="cls-10" d="M787.5,843.36q-3.06-7.45-11-7.45a10.19,10.19,0,0,0-9.12,5.06q-3.2,5.06-3.2,12.9v22.36h-6.5V831.51h6.5V835A16.77,16.77,0,0,1,776.51,830q12.52,0,16.91,10.51Z" transform="translate(0.5 0.37)"/><path class="cls-10" d="M802.31,853.87A18.38,18.38,0,0,0,807,866.53q4.73,5.3,10.94,5.3,6.88,0,10-1.91a17.11,17.11,0,0,0,5.59-6.21l5.16,3.44a24.82,24.82,0,0,1-8,8q-4.49,2.63-12.52,2.63-8.5,0-15.43-7.12a23.88,23.88,0,0,1-.09-33.54Q809.47,830,818,830t15.33,7.12a23.42,23.42,0,0,1,6.83,16.77H802.31Zm1-5.92h29.43A17.76,17.76,0,0,0,827,839.3a13.58,13.58,0,0,0-18,0A17.74,17.74,0,0,0,803.27,847.94Z" transform="translate(0.5 0.37)"/><polygon class="cls-11" points="680.56 606.29 631.23 579.46 687.01 467.69 736.34 494.53 680.56 606.29"/><polygon class="cls-12" points="447.81 535.08 398.48 508.24 464.66 498.94 513.99 525.78 447.81 535.08"/><polygon class="cls-13" points="536.17 688.43 486.84 661.59 398.48 508.24 447.81 535.08 536.17 688.43"/><polygon class="cls-13" points="569.77 414.01 520.44 387.18 487.46 329.96 536.79 356.8 569.77 414.01"/><polygon class="cls-12" points="536.79 356.8 487.46 329.96 664.83 305.04 714.16 331.87 536.79 356.8"/><polygon class="cls-10" points="714.16 331.87 802.51 485.23 713.54 663.5 536.17 688.43 447.81 535.08 513.99 525.78 569.38 621.91 680.56 606.29 736.34 494.53 680.94 398.38 569.77 414.01 536.79 356.8 714.16 331.87"/><polygon class="cls-12" points="551.38 590.68 569.38 621.91 680.56 606.29 631.23 579.46 551.38 590.68"/><polygon class="cls-13" points="649.61 402.79 687.01 467.69 736.34 494.53 680.94 398.38 649.61 402.79"/></g></g></svg>