<?xml version="1.0" encoding="utf-8"?>
<!-- Generator: Adobe Illustrator 19.2.1, SVG Export Plug-In . SVG Version: 6.00 Build 0)  -->
<svg version="1.1" id="Слой_1" xmlns="http://www.w3.org/2000/svg" xmlns:xlink="http://www.w3.org/1999/xlink" x="0px" y="0px"
	 viewBox="0 0 650 650" style="enable-background:new 0 0 650 650;" xml:space="preserve">
<style type="text/css">
	.st0{fill:url(#_Контур__1_);}
	.st1{fill:url(#_Контур_2_1_);}
	.st2{fill:#1884C6;}
	.st3{fill:#F05341;}
</style>
<g id="_Группа_">
	<g id="_Группа_2">
		
			<linearGradient id="_Контур__1_" gradientUnits="userSpaceOnUse" x1="593.1282" y1="665.8547" x2="593.1282" y2="550.9893" gradientTransform="matrix(1 0 0 1 -196.4 -318.23)">
			<stop  offset="0" style="stop-color:#1884C6"/>
			<stop  offset="1" style="stop-color:#212B5B"/>
		</linearGradient>
		<path id="_Контур_" class="st0" d="M383.9,232.8c0,0,25.8,70.7-17.6,114.9c0,0,46.8-7.2,60.8-99.4L383.9,232.8z"/>
		
			<linearGradient id="_Контур_2_1_" gradientUnits="userSpaceOnUse" x1="524.3523" y1="665.8768" x2="524.3523" y2="454.8638" gradientTransform="matrix(1 0 0 1 -196.4 -318.23)">
			<stop  offset="0" style="stop-color:#A61F24"/>
			<stop  offset="0.31" style="stop-color:#EA2A2C"/>
			<stop  offset="1" style="stop-color:#F05341"/>
		</linearGradient>
		<path id="_Контур_2" class="st1" d="M189.8,347.6c0,0,47.2-85,122.2-104.3s134,9.1,164.1,104.3c0,0,27.9-110-67.6-175.7
			S218.8,140.2,176,209.3c0,0,47.9-34.8,69-36.7c21.1-1.9,31.8,7.9,20,27.6C253.2,219.9,207.4,268.7,189.8,347.6z"/>
		<ellipse id="_Контур_3" class="st2" cx="214.1" cy="218" rx="22.8" ry="24.1"/>
	</g>
	<g id="_Группа_3">
		<path id="_Составной_контур_" class="st2" d="M84.2,395.2h6.1v50.9h30.3v5.9H84.2V395.2z"/>
		<path id="_Составной_контур_2" class="st2" d="M164.4,453c-3.8,0.1-7.6-0.7-11.2-2.3c-6.6-3-11.8-8.7-14.3-15.7
			c-1.3-3.6-2-7.3-2-11.2v-0.2c0-3.8,0.7-7.6,2-11.2c5.7-14.8,21.8-22.1,36-16.2c0.1,0.1,0.3,0.1,0.4,0.2l0.2,0.1
			c6.6,3,11.7,8.7,14.3,15.7c1.3,3.6,2,7.4,2,11.2c0,0,0,0.1,0,0.1l0,0c0,3.8-0.7,7.6-2,11.2C186,445.9,175.8,453.2,164.4,453z
			 M164.6,447.1c2.9,0,5.8-0.6,8.5-1.8c2.5-1.2,4.8-2.9,6.6-5c1.9-2.2,3.4-4.7,4.4-7.4c1.1-2.9,1.6-6,1.6-9.1v-0.2
			c0-3.1-0.5-6.2-1.6-9.1c-2-5.5-6-10-11.1-12.5c-2.7-1.3-5.5-1.9-8.5-1.9c-2.9,0-5.8,0.6-8.5,1.8c-2.5,1.2-4.8,2.9-6.6,5
			c-1.9,2.2-3.4,4.7-4.4,7.4c-1.1,2.9-1.6,6-1.6,9.1v0.2c0,3.1,0.5,6.2,1.6,9.1c2,5.5,6,10,11.1,12.5
			C158.8,446.5,161.7,447.1,164.6,447.1L164.6,447.1z"/>
		<path id="_Составной_контур_3" class="st2" d="M237.4,453c-3.9,0.1-7.8-0.7-11.4-2.3c-6.6-2.9-11.7-8.6-14.1-15.6
			c-1.3-3.7-1.9-7.5-1.9-11.4v-0.1c0-3.8,0.7-7.6,2-11.2c1.3-3.5,3.1-6.6,5.5-9.4c5-5.7,12.1-8.9,19.5-8.8c2.1,0,4.1,0.1,6.2,0.5
			c1.8,0.3,3.5,0.8,5.2,1.5c1.6,0.6,3.1,1.4,4.5,2.4c1.4,1,2.8,2,4.1,3.2l-3.9,4.9c-1-1-2.1-1.8-3.2-2.6c-1.1-0.8-2.4-1.5-3.6-2
			c-1.4-0.6-2.8-1-4.3-1.3c-1.7-0.3-3.5-0.5-5.2-0.5c-2.8,0-5.6,0.6-8.2,1.9c-2.5,1.2-4.7,2.9-6.5,5c-1.8,2.2-3.3,4.7-4.2,7.4
			c-1,2.9-1.5,5.9-1.5,9v0.2c0,3.2,0.5,6.4,1.5,9.4c0.9,2.8,2.4,5.3,4.2,7.5c1.9,2.1,4.1,3.8,6.7,5c2.8,1.2,5.8,1.8,8.8,1.8
			c3,0,5.9-0.5,8.7-1.7c2.5-1,4.8-2.3,6.8-4v-14.2h-16.3v-5.8H259v22.6c-2.8,2.5-5.9,4.6-9.3,6.1C245.8,452.2,241.6,453.1,237.4,453
			z"/>
		<path id="_Составной_контур_4" class="st2" d="M305.3,453c-3.8,0.1-7.6-0.7-11.2-2.3c-6.6-3-11.7-8.7-14.3-15.7
			c-1.3-3.6-2-7.3-2-11.2v-0.2c0-3.8,0.7-7.6,2-11.2c5.7-14.8,21.8-22.1,36.1-16.1c0.1,0.1,0.3,0.1,0.4,0.2l0.2,0.1
			c6.6,3,11.7,8.7,14.3,15.7c1.3,3.6,2,7.4,2,11.2c0,0,0,0.1,0,0.1l0,0c0,3.8-0.7,7.6-2,11.2C326.8,445.9,316.6,453.2,305.3,453z
			 M305.5,447.1c2.9,0,5.8-0.6,8.5-1.8c2.5-1.2,4.8-2.9,6.6-5c1.9-2.2,3.4-4.7,4.4-7.4c1.1-2.9,1.6-6,1.6-9.1v-0.2
			c0-3.1-0.5-6.2-1.6-9.1c-2-5.5-6-10-11.1-12.5c-2.7-1.3-5.5-1.9-8.5-1.9c-2.9,0-5.8,0.6-8.5,1.8c-2.5,1.2-4.8,2.9-6.6,5
			c-1.9,2.2-3.4,4.7-4.4,7.4c-1.1,2.9-1.6,6-1.6,9.1v0.2c0,3.1,0.5,6.2,1.6,9.1c2,5.5,6,10,11.1,12.5
			C299.7,446.5,302.5,447.1,305.5,447.1L305.5,447.1z"/>
		<path id="_Составной_контур_5" class="st2" d="M367.5,401.1h-18.1v-5.9h42.2v5.9h-18v50.9h-6.1L367.5,401.1
			L367.5,401.1L367.5,401.1z"/>
		<path id="_Составной_контур_6" class="st2" d="M410.8,395.2h38.9v5.8h-32.8v19.6h29.3v5.8h-29.4v20H450v5.8h-39.2
			V395.2z"/>
		<path id="_Составной_контур_7" class="st2" d="M486.5,423.1l-19.9-27.8h7.1l16.5,23.2l16.4-23.2h7.1L493.7,423
			l20.7,29.1h-7.2L490,427.6l-17.2,24.4h-7L486.5,423.1z"/>
		<path id="_Составной_контур_8" class="st2" d="M547.5,401.1h-18.1v-5.9h42.2v5.9h-18v50.9h-6L547.5,401.1
			L547.5,401.1z"/>
	</g>
	<g id="_Группа_4">
		<path id="_Составной_контур_9" class="st3" d="M97.3,512c-1.3,0-2.5-0.2-3.7-0.6c-1.1-0.4-2.1-0.9-3-1.5
			c-0.9-0.6-1.7-1.4-2.4-2.2c-0.7-0.8-1.4-1.7-1.9-2.6v6.2h-2.6v-41h2.6v18.7c0.6-1,1.3-1.9,2-2.7c0.7-0.8,1.6-1.6,2.5-2.2
			c0.9-0.7,2-1.2,3-1.5c1.2-0.4,2.4-0.6,3.7-0.6c1.6,0,3.3,0.4,4.8,1c1.6,0.7,3,1.7,4.2,2.9c1.3,1.3,2.3,2.9,3,4.6
			c0.8,2,1.1,4.1,1.1,6.3v0.1c0.1,2.1-0.3,4.3-1.1,6.3c-0.7,1.8-1.7,3.4-3,4.7c-1.2,1.3-2.6,2.3-4.2,3C100.6,511.6,99,512,97.3,512z
			 M97.1,509.4c1.5,0,2.9-0.3,4.2-0.8c1.3-0.5,2.4-1.4,3.4-2.4c1-1.1,1.8-2.4,2.3-3.8c0.6-1.6,0.9-3.4,0.8-5.1V497
			c0-1.8-0.2-3.5-0.8-5.2c-0.5-1.5-1.3-2.8-2.3-3.9c-3-3.3-7.6-4.3-11.6-2.4c-1.3,0.6-2.6,1.4-3.6,2.5c-2.2,2.3-3.4,5.5-3.4,8.8v0.1
			c0,1.7,0.3,3.4,0.9,5c1.1,2.9,3.3,5.2,6,6.4C94.3,509,95.7,509.3,97.1,509.4L97.1,509.4L97.1,509.4z"/>
		<path id="_Составной_контур_10" class="st3" d="M134.3,512c-1.6,0-3.1-0.3-4.6-0.9c-1.3-0.5-2.5-1.4-3.4-2.4
			c-1-1.1-1.7-2.4-2.1-3.7c-0.5-1.5-0.7-3.1-0.7-4.7v-17.5h2.6v17c-0.1,2.6,0.6,5.1,2.2,7.1c1.6,1.8,4,2.8,6.3,2.7
			c1.3,0,2.5-0.2,3.7-0.7c2.3-1,4.1-2.9,5-5.3c0.5-1.3,0.7-2.7,0.7-4.1v-16.5h2.6v28.7H144V506c-0.9,1.7-2.2,3.1-3.7,4.3
			C138.5,511.5,136.4,512.1,134.3,512z"/>
		<path id="_Составной_контур_11" class="st3" d="M170.7,511.9c-2,0-4-0.4-5.9-1.2c-1.9-0.7-3.6-1.7-5.2-3l1.5-2.2
			c1.4,1.2,3,2.1,4.7,2.8c1.6,0.7,3.3,1,5,1c1.7,0.1,3.3-0.5,4.7-1.5c1.2-0.9,1.9-2.4,1.9-4v-0.1c0-0.8-0.2-1.5-0.6-2.1
			c-0.4-0.6-1-1.2-1.6-1.6c-0.7-0.5-1.5-0.9-2.3-1.2c-0.8-0.3-1.7-0.6-2.7-0.9c-1.1-0.3-2.2-0.7-3.3-1.1c-1.1-0.3-2.1-0.8-3-1.4
			c-0.9-0.6-1.6-1.3-2.2-2.2c-0.6-1-0.9-2.1-0.8-3.2v-0.1c0-1.1,0.2-2.2,0.7-3.2c0.4-1,1.1-1.8,1.8-2.5c0.8-0.7,1.8-1.3,2.8-1.7
			c1.2-0.4,2.4-0.6,3.6-0.6c1.7,0,3.4,0.3,5,0.9c1.6,0.5,3.2,1.3,4.6,2.3l-1.4,2.3c-1.3-0.9-2.6-1.6-4-2.1c-1.4-0.5-2.9-0.7-4.4-0.7
			c-1.6-0.1-3.2,0.4-4.5,1.4c-1.1,0.8-1.7,2.2-1.7,3.6v0.1c0,0.7,0.2,1.5,0.6,2c0.5,0.6,1,1.1,1.7,1.5c0.8,0.4,1.6,0.8,2.4,1.1
			c0.9,0.3,1.9,0.6,2.8,0.9c1.1,0.3,2.2,0.7,3.3,1.1c1,0.4,2,0.9,2.9,1.5c0.8,0.6,1.5,1.3,2,2.2c0.5,1,0.8,2.1,0.8,3.2v0.1
			c0,2.4-1,4.6-2.7,6.1c-0.9,0.7-1.9,1.3-3,1.7C173.1,511.6,171.9,511.9,170.7,511.9z"/>
		<path id="_Составной_контур_12" class="st3" d="M193.6,471.5h3.3v3.8h-3.3V471.5z M193.9,482.7h2.6v28.7h-2.6
			L193.9,482.7L193.9,482.7z"/>
		<path id="_Составной_контур_13" class="st3" d="M212.1,482.7h2.6v5.3c0.9-1.7,2.2-3.1,3.7-4.3
			c1.8-1.2,3.9-1.8,6.1-1.7c1.6,0,3.1,0.3,4.6,0.9c2.6,1.1,4.7,3.4,5.6,6.2c0.5,1.5,0.7,3.1,0.7,4.7v17.5h-2.6v-17
			c0.1-2.6-0.6-5.1-2.2-7.1c-1.6-1.8-4-2.8-6.3-2.7c-1.3,0-2.5,0.2-3.7,0.7c-2.3,1-4.1,2.9-5,5.3c-0.5,1.3-0.7,2.7-0.7,4.1v16.5
			h-2.6L212.1,482.7L212.1,482.7L212.1,482.7z"/>
		<path id="_Составной_контур_14" class="st3" d="M261.5,512c-3.5,0-6.9-1.5-9.4-4.2c-1.3-1.4-2.2-3-2.9-4.7
			c-0.7-2-1.1-4-1.1-6.1v-0.1c0-2,0.3-3.9,1-5.8c0.6-1.7,1.5-3.3,2.7-4.7c1.1-1.3,2.5-2.4,4.1-3.2c1.6-0.8,3.3-1.2,5.1-1.2
			c3.5-0.1,6.8,1.5,9.1,4.3c1.1,1.4,2,3,2.5,4.7c0.6,1.9,0.9,3.9,0.9,5.9v0.6c0,0.2,0,0.4,0,0.5h-22.5c0.1,1.6,0.4,3.3,1.1,4.8
			c0.6,1.3,1.4,2.5,2.4,3.5c0.9,1,2.1,1.7,3.3,2.2c1.2,0.5,2.5,0.8,3.9,0.7c1.9,0.1,3.7-0.4,5.4-1.3c1.5-0.8,2.8-1.9,3.9-3.2
			l1.8,1.7c-1.4,1.5-3,2.8-4.7,3.9C265.9,511.5,263.7,512.1,261.5,512z M270.7,495.7c-0.1-1.4-0.4-2.8-0.8-4.2
			c-0.4-1.3-1-2.5-1.9-3.5c-0.8-1-1.8-1.9-3-2.5c-2.5-1.2-5.4-1.2-7.9-0.1c-1.2,0.6-2.2,1.3-3.1,2.3c-0.9,1-1.7,2.2-2.2,3.5
			c-0.6,1.4-0.9,2.9-1.1,4.4L270.7,495.7L270.7,495.7z"/>
		<path id="_Составной_контур_15" class="st3" d="M295.1,511.9c-2,0-4-0.4-5.9-1.2c-1.9-0.7-3.6-1.7-5.2-3l1.5-2.2
			c1.4,1.2,3,2.1,4.7,2.8c1.6,0.7,3.3,1,5,1c1.7,0.1,3.3-0.5,4.7-1.5c1.2-0.9,1.9-2.4,1.9-4v-0.1c0-0.8-0.2-1.5-0.6-2.1
			c-0.4-0.6-1-1.2-1.6-1.6c-0.7-0.5-1.5-0.9-2.3-1.2c-0.8-0.3-1.7-0.6-2.7-0.9c-1.1-0.3-2.2-0.7-3.3-1.1c-1.1-0.3-2.1-0.8-3-1.4
			c-0.9-0.6-1.6-1.3-2.2-2.2c-0.6-1-0.9-2.1-0.8-3.2v-0.1c0-1.1,0.2-2.2,0.7-3.2c0.4-1,1.1-1.8,1.8-2.5c0.8-0.7,1.8-1.3,2.8-1.7
			c1.2-0.4,2.4-0.6,3.6-0.6c1.7,0,3.4,0.3,5,0.9c1.6,0.5,3.2,1.3,4.6,2.3l-1.4,2.3c-1.3-0.9-2.6-1.6-4-2.1c-1.4-0.5-2.9-0.8-4.3-0.8
			c-1.6-0.1-3.2,0.4-4.5,1.4c-1.1,0.8-1.7,2.2-1.7,3.6v0.1c0,0.7,0.2,1.5,0.6,2c0.5,0.6,1,1.1,1.7,1.5c0.8,0.4,1.6,0.8,2.4,1.1
			c0.9,0.3,1.9,0.6,2.8,0.9c1.1,0.3,2.2,0.7,3.3,1.1c1,0.4,2,0.9,2.9,1.6c0.8,0.6,1.5,1.3,2,2.2c0.5,1,0.8,2.1,0.8,3.2v0.1
			c0,2.4-1,4.6-2.7,6.1c-0.9,0.7-1.9,1.3-3,1.7C297.7,511.6,296.4,511.9,295.1,511.9z"/>
		<path id="_Составной_контур_16" class="st3" d="M326.9,511.9c-2,0-4-0.4-5.9-1.2c-1.9-0.7-3.6-1.7-5.2-3l1.5-2.2
			c1.4,1.2,3,2.1,4.7,2.8c1.6,0.7,3.3,1,5,1c1.7,0.1,3.3-0.5,4.7-1.5c1.2-0.9,1.9-2.4,1.9-4v-0.1c0-0.8-0.2-1.5-0.6-2.1
			c-0.4-0.6-1-1.2-1.6-1.6c-0.7-0.5-1.5-0.9-2.3-1.2c-0.8-0.3-1.7-0.6-2.7-0.9c-1.1-0.3-2.2-0.7-3.3-1.1c-1.1-0.3-2.1-0.8-3-1.4
			c-0.9-0.6-1.6-1.3-2.2-2.2c-0.6-1-0.9-2.1-0.8-3.2v-0.1c0-1.1,0.2-2.2,0.7-3.2c0.4-1,1.1-1.8,1.8-2.5c0.8-0.7,1.8-1.3,2.8-1.7
			c1.2-0.4,2.4-0.6,3.6-0.6c1.7,0,3.4,0.3,5,0.9c1.6,0.5,3.2,1.3,4.6,2.3l-1.4,2.3c-1.3-0.9-2.6-1.6-4-2.1c-1.4-0.5-2.9-0.8-4.3-0.8
			c-1.6-0.1-3.2,0.4-4.5,1.4c-1.1,0.8-1.7,2.2-1.7,3.6v0.1c0,0.7,0.2,1.5,0.6,2c0.5,0.6,1,1.1,1.7,1.5c0.8,0.4,1.6,0.8,2.4,1.1
			c0.9,0.3,1.9,0.6,2.8,0.9c1.1,0.3,2.2,0.7,3.3,1.1c1,0.4,2,0.9,2.9,1.5c0.8,0.6,1.5,1.3,2,2.2c0.6,1,0.8,2.1,0.8,3.3v0.1
			c0,2.4-1,4.6-2.7,6.1c-0.9,0.7-1.9,1.3-3,1.7C329.4,511.7,328.1,511.9,326.9,511.9z"/>
		<path id="_Составной_контур_17" class="st3" d="M380.1,511.8c-1,0-2-0.1-3-0.5c-1.9-0.6-3.3-2-4-3.9
			c-0.4-1.1-0.6-2.3-0.6-3.5v-18.7h-3.9v-2.5h3.8v-9.2h2.6v9.2h9.5v2.5H375v18.5c0,2.1,0.5,3.5,1.5,4.3c1.1,0.9,2.5,1.3,3.9,1.2
			c0.6,0,1.3-0.1,1.9-0.2c0.7-0.2,1.4-0.4,2.1-0.7v2.6c-0.7,0.3-1.4,0.6-2.1,0.7C381.6,511.8,380.9,511.9,380.1,511.8z"/>
		<path id="_Составной_контур_18" class="st3" d="M405.9,512c-1.3,0-2.5-0.2-3.8-0.6c-1.2-0.4-2.3-0.9-3.3-1.7
			c-1-0.7-1.8-1.7-2.4-2.8c-0.6-1.2-1-2.6-0.9-3.9v-0.1c-0.1-2.7,1.2-5.3,3.3-6.9c1.1-0.8,2.4-1.5,3.7-1.8c1.6-0.4,3.2-0.6,4.8-0.6
			c1.7,0,3.3,0.1,4.9,0.3c1.4,0.2,2.7,0.5,4,0.9v-1.2c0.2-2.4-0.7-4.8-2.4-6.5c-1.9-1.6-4.2-2.4-6.6-2.2c-1.5,0-3.1,0.2-4.6,0.7
			c-1.4,0.4-2.7,1-3.9,1.7l-1-2.4c1.5-0.7,3-1.4,4.5-1.8c1.7-0.5,3.4-0.7,5.1-0.7c3.7,0,6.6,1,8.6,3.1c1.9,2.2,2.9,5.1,2.8,8.1v17.9
			h-2.5v-4.7c-0.5,0.7-1.1,1.4-1.7,2c-0.7,0.7-1.4,1.3-2.3,1.7C410.4,511.5,408.1,512.1,405.9,512z M406,509.4
			c1.3,0,2.7-0.2,3.9-0.6c1.2-0.4,2.3-1,3.3-1.8c0.9-0.8,1.7-1.7,2.2-2.8c0.6-1.1,0.8-2.3,0.8-3.6v-3.3c-1.1-0.3-2.5-0.6-4-0.9
			c-1.7-0.3-3.5-0.4-5.2-0.4c-2.3-0.1-4.6,0.5-6.6,1.8c-1.5,1.1-2.4,2.9-2.3,4.8v0.1c0,1,0.2,1.9,0.6,2.8c0.4,0.8,1,1.5,1.7,2
			c0.8,0.6,1.6,1,2.5,1.3C404,509.2,405,509.4,406,509.4L406,509.4L406,509.4z"/>
		<path id="_Составной_контур_19" class="st3" d="M445.3,520.4c-4.5,0-8.9-1.5-12.5-4.4l1.5-2.2c3.1,2.6,7,4,11,4
			c1.5,0,2.9-0.2,4.3-0.7c2.6-0.9,4.6-2.9,5.6-5.5c0.6-1.5,0.8-3.2,0.8-4.8v-4.2c-0.6,0.9-1.3,1.7-2,2.5c-0.8,0.8-1.6,1.5-2.5,2.1
			c-1,0.6-2,1.1-3.1,1.5c-2.8,0.8-5.8,0.7-8.5-0.4c-3.1-1.3-5.7-3.8-7.1-7c-0.7-1.7-1.1-3.6-1.1-5.5v-0.2c0-1.9,0.3-3.8,1.1-5.6
			c0.7-1.6,1.7-3.1,3-4.3c4.3-4.2,10.8-4.9,15.8-1.7c0.9,0.6,1.8,1.3,2.5,2.1c0.7,0.8,1.4,1.6,2,2.4v-5.7h2.6V507
			c0,1.9-0.3,3.8-0.9,5.5c-1.2,3.3-3.7,5.8-6.8,7C449.1,520.1,447.2,520.5,445.3,520.4z M445,506.5c1.4,0,2.8-0.3,4.2-0.8
			c1.3-0.5,2.5-1.2,3.6-2.2c1.1-1,1.9-2.2,2.5-3.5c0.6-1.4,1-2.9,1-4.5v-0.1c0-1.6-0.3-3.1-1-4.5c-0.6-1.3-1.5-2.5-2.5-3.5
			c-1.1-1-2.3-1.7-3.6-2.2c-1.3-0.5-2.7-0.8-4.2-0.7c-1.4,0-2.8,0.2-4.1,0.7c-1.2,0.5-2.4,1.2-3.4,2.2c-1,1-1.7,2.1-2.3,3.4
			c-0.6,1.4-0.9,3-0.8,4.5v0.1c0,1.5,0.3,3,0.9,4.4c0.5,1.3,1.3,2.5,2.3,3.5C439.6,505.4,442.2,506.5,445,506.5L445,506.5L445,506.5
			z"/>
		<path id="_Составной_контур_20" class="st3" d="M474.2,470.4h2.6v41h-2.6V470.4z"/>
		<path id="_Составной_контур_21" class="st3" d="M492.4,471.5h3.3v3.8h-3.3V471.5z M492.8,482.7h2.6v28.7h-2.6
			L492.8,482.7L492.8,482.7L492.8,482.7z"/>
		<path id="_Составной_контур_22" class="st3" d="M510.9,482.7h2.6v5.3c0.9-1.7,2.2-3.1,3.7-4.3
			c1.8-1.2,3.9-1.8,6.1-1.7c1.6,0,3.1,0.3,4.6,0.9c2.7,1.1,4.7,3.4,5.6,6.2c0.5,1.5,0.7,3.1,0.7,4.7v17.5h-2.6v-17.1
			c0.1-2.6-0.6-5.1-2.2-7.1c-1.6-1.8-4-2.8-6.3-2.7c-1.3,0-2.5,0.2-3.7,0.7c-2.3,1-4.1,2.9-5,5.3c-0.5,1.3-0.7,2.7-0.7,4.1v16.5
			h-2.6v-28.7L510.9,482.7L510.9,482.7z"/>
		<path id="_Составной_контур_23" class="st3" d="M560.3,512c-1.7,0-3.5-0.4-5.1-1.1c-1.6-0.7-3-1.7-4.2-3
			c-1.3-1.4-2.2-3-2.9-4.7c-0.7-2-1.1-4-1.1-6.1v-0.1c0-2,0.3-3.9,1-5.8c0.6-1.7,1.5-3.3,2.7-4.7c1.1-1.3,2.5-2.4,4.1-3.2
			c1.6-0.8,3.3-1.2,5.1-1.2c3.5-0.1,6.8,1.5,9.1,4.3c1.1,1.4,2,3,2.5,4.7c0.6,1.9,0.9,3.9,0.9,5.9v0.6c0,0.2,0,0.4,0,0.5h-22.6
			c0.1,1.6,0.4,3.3,1.1,4.8c0.6,1.3,1.4,2.5,2.4,3.5c0.9,1,2.1,1.7,3.3,2.2c1.2,0.5,2.5,0.8,3.9,0.7c1.9,0.1,3.7-0.4,5.4-1.3
			c1.5-0.8,2.8-1.9,3.9-3.2l1.8,1.7c-1.4,1.5-3,2.8-4.7,3.9C564.8,511.5,562.5,512.1,560.3,512z M569.5,495.7
			c-0.1-1.4-0.4-2.8-0.8-4.2c-0.4-1.3-1-2.5-1.9-3.5c-0.8-1-1.8-1.9-3-2.5c-2.5-1.2-5.4-1.2-7.9-0.1c-1.2,0.5-2.2,1.3-3.1,2.3
			c-0.9,1-1.7,2.2-2.2,3.5c-0.6,1.4-0.9,2.9-1.1,4.4L569.5,495.7L569.5,495.7z"/>
	</g>
</g>
</svg>
