<svg id="Camada_1" data-name="Camada 1" xmlns="http://www.w3.org/2000/svg" xmlns:xlink="http://www.w3.org/1999/xlink" viewBox="0 0 654.67 849.78"><defs><style>.cls-1{fill:url(#linear-gradient);}.cls-2{fill:url(#linear-gradient-2);}.cls-3{fill:url(#linear-gradient-3);}.cls-4{fill:url(#linear-gradient-4);}.cls-5{fill:url(#linear-gradient-5);}.cls-6{fill:url(#linear-gradient-6);}.cls-7{fill:url(#linear-gradient-7);}.cls-8{fill:url(#linear-gradient-8);}.cls-9{fill:url(#linear-gradient-9);}.cls-10{fill:url(#linear-gradient-10);}.cls-11{fill:#00386c;}.cls-12{fill:#fbb040;}</style><linearGradient id="linear-gradient" x1="621.07" y1="746.74" x2="621.07" y2="231.37" gradientUnits="userSpaceOnUse"><stop offset="0" stop-color="#00abc5"/><stop offset="0.44" stop-color="#00929e"/><stop offset="1" stop-color="#007b8d"/></linearGradient><linearGradient id="linear-gradient-2" x1="450.6" y1="427.25" x2="791.57" y2="427.25" gradientUnits="userSpaceOnUse"><stop offset="0" stop-color="#007b8d"/><stop offset="0.56" stop-color="#00929e"/><stop offset="1" stop-color="#00abc5"/></linearGradient><linearGradient id="linear-gradient-3" x1="617.97" y1="436.7" x2="709.56" y2="383.82" gradientUnits="userSpaceOnUse"><stop offset="0" stop-color="#007b8d"/><stop offset="0.21" stop-color="#008393"/><stop offset="0.42" stop-color="#00929e"/><stop offset="1" stop-color="#00aab5"/></linearGradient><linearGradient id="linear-gradient-4" x1="479.03" y1="461.91" x2="626.38" y2="376.84" gradientUnits="userSpaceOnUse"><stop offset="0" stop-color="#007b8d"/><stop offset="0.39" stop-color="#00929e"/><stop offset="1" stop-color="#6ac9c8"/></linearGradient><linearGradient id="linear-gradient-5" x1="730.36" y1="756.08" x2="730.36" y2="573.05" gradientUnits="userSpaceOnUse"><stop offset="0" stop-color="#b1ded3"/><stop offset="0.44" stop-color="#00b3b5"/><stop offset="1" stop-color="#007b8d"/></linearGradient><linearGradient id="linear-gradient-6" x1="757.63" y1="624.96" x2="757.63" y2="552.24" xlink:href="#linear-gradient"/><linearGradient id="linear-gradient-7" x1="464.49" y1="543.66" x2="615.39" y2="543.66" gradientUnits="userSpaceOnUse"><stop offset="0" stop-color="#ffcb05"/><stop offset="0.61" stop-color="#f37021"/><stop offset="1" stop-color="#f04e23"/></linearGradient><linearGradient id="linear-gradient-8" x1="464.67" y1="723.94" x2="695.43" y2="723.94" gradientUnits="userSpaceOnUse"><stop offset="0" stop-color="#f04e23"/><stop offset="0.39" stop-color="#f37021"/><stop offset="1" stop-color="#fbb040"/></linearGradient><linearGradient id="linear-gradient-9" x1="464.67" y1="717.34" x2="637.08" y2="717.34" gradientUnits="userSpaceOnUse"><stop offset="0" stop-color="#f04e23"/><stop offset="0.39" stop-color="#f37021"/><stop offset="1" stop-color="#ffd400"/></linearGradient><linearGradient id="linear-gradient-10" x1="530.45" y1="765.2" x2="530.45" y2="571.15" xlink:href="#linear-gradient-8"/></defs><title>file</title><path class="cls-1" d="M721.49,746.74c3.78-39.25-12.43-82.24-45.43-119.53-0.77-.87-1.54-1.73-2.31-2.59C660.39,610,644.26,595.76,623,579.8c-11.75-8.82-24-17.39-35.85-25.68-8.3-5.8-16.87-11.8-25.18-17.82-35.31-25.59-74.12-57.71-94.14-101.95a158.22,158.22,0,0,1,66.26-203,63.28,63.28,0,0,0-.34,16.22l-0.87-.39,1.85,6.76a80.23,80.23,0,0,0,3.86,13.1c6.69,17.25,19.94,35.36,39.39,53.83,21,19.94,50.29,42.26,76.13,61.94,7.23,5.51,14.05,10.71,20.32,15.57,33.12,25.7,58,45.66,76.75,68.62,20.46,25.06,31.77,52.26,35.6,85.58,0,0.21.13,1,.15,1.2a237,237,0,0,1-3,70.53C775,670.51,753,713.6,721.49,746.74Z" transform="translate(-322.67 -225.11)"/><path class="cls-2" d="M723.7,573.05c-114.79-110.88-168.18-262.59-182-307.18a76.48,76.48,0,0,1-3.73-12.66l0-.16h0a60,60,0,0,1,.88-27.95s-120.72,130.62,82.3,357.34l-0.06,0c18,13.49,35.15,27.84,50.3,44.42,0.77,0.84,1.52,1.69,2.28,2.55C681.9,603.43,700.42,585.43,723.7,573.05Z" transform="translate(-322.67 -225.11)"/><path class="cls-3" d="M676.45,395.81c-28.59-22.18-69.44-51.9-96.2-77.3-15.75-14.95-31-33-38.59-52.63,13.86,44.59,67.25,196.3,182,307.18,19.8-10.53,43-17,66.35-20.82C781.64,479.14,739.47,444.7,676.45,395.81Z" transform="translate(-322.67 -225.11)"/><path class="cls-4" d="M538.78,225.11A161.52,161.52,0,0,0,464.84,435.7C484.37,478.85,521.69,511.17,560,539c20.17,14.61,41.05,28.51,61,43.47l0.06,0C418.06,355.74,538.78,225.11,538.78,225.11Z" transform="translate(-322.67 -225.11)"/><path class="cls-5" d="M716.85,756.08c36.28-35,60.75-81.67,70.27-131.12a484.91,484.91,0,0,1-63.42-51.91c-23.28,12.38-41.8,30.38-50.1,56.34C704.32,664.11,725.36,710.65,716.85,756.08Z" transform="translate(-322.67 -225.11)"/><path class="cls-6" d="M787.12,625a240.76,240.76,0,0,0,3.08-71.5c0-.41-0.11-0.81-0.15-1.22-23.31,3.83-46.54,10.29-66.35,20.82A484.91,484.91,0,0,0,787.12,625Z" transform="translate(-322.67 -225.11)"/><path class="cls-7" d="M615.39,601.13C569,566.93,524.92,546,476.16,486.18a250.47,250.47,0,0,0-11.49,85C498.4,562.57,555.62,558.53,615.39,601.13Z" transform="translate(-322.67 -225.11)"/><path class="cls-8" d="M634.92,863.53a52.4,52.4,0,0,1-5.4,18.74c25.12-30.67,47.84-64.27,59-102.3s9.63-81.22-11.4-114.83a193.62,193.62,0,0,0-18.29-24.36q-5.43-6.14-10.87-11.66l-1.38-1.4-0.12-.12a273.59,273.59,0,0,0-28.38-24.46l-2.72-2c-59.76-42.6-117-38.56-150.72-30h0C639.35,714.26,642.51,822,634.92,863.53Z" transform="translate(-322.67 -225.11)"/><path class="cls-9" d="M464.67,571.15h0s76.91,66.72,131.55,194h0c14.49,14,25.7,31.11,31.28,50,4.66,15.78,9,32.54,7.41,48.32C642.51,822,639.35,714.26,464.67,571.15Z" transform="translate(-322.67 -225.11)"/><path class="cls-10" d="M464.67,571.15c1.94,49.86,19.3,98.43,54.62,133.13,16.54,16.25,52.43,39.91,70.17,54.82q3.49,2.93,6.76,6.1h0C541.58,637.88,464.67,571.15,464.67,571.15Z" transform="translate(-322.67 -225.11)"/><path class="cls-11" d="M338.48,921.19a4.47,4.47,0,0,0-4.39,4.39v54.07a4.47,4.47,0,0,0,4.39,4.39h67.36v9.12H338.48A13.41,13.41,0,0,1,325,979.65V925.59a13.41,13.41,0,0,1,13.52-13.52h67.36v9.12H338.48Z" transform="translate(-322.67 -225.11)"/><path class="cls-11" d="M484.92,912.07a13.41,13.41,0,0,1,13.52,13.52v54.07a13.41,13.41,0,0,1-13.52,13.52H430.85a13.41,13.41,0,0,1-13.52-13.52V925.59a13.41,13.41,0,0,1,13.52-13.52h54.07Zm0,72a4.47,4.47,0,0,0,4.39-4.39V925.59a4.47,4.47,0,0,0-4.39-4.39H430.85a4.47,4.47,0,0,0-4.39,4.39v54.07a4.47,4.47,0,0,0,4.39,4.39h54.07Z" transform="translate(-322.67 -225.11)"/><path class="cls-11" d="M590.68,912.07h12.5v81.1h-9.12V922.43l-37.06,44-37.06-44v70.74h-9.12v-81.1h12.5L557,952.17Z" transform="translate(-322.67 -225.11)"/><path class="cls-11" d="M682.94,912.18a13.48,13.48,0,0,1,13.52,13.52v23.77A13.48,13.48,0,0,1,682.94,963H628.87a41.4,41.4,0,0,1-4.39-.45v30.64h-9.12v-81h67.59Zm4.39,13.52a4.47,4.47,0,0,0-4.39-4.39H628.87a4.47,4.47,0,0,0-4.39,4.39v23.77a4.38,4.38,0,0,0,4.39,4.28h54.07a4.37,4.37,0,0,0,4.39-4.28V925.7Z" transform="translate(-322.67 -225.11)"/><path class="cls-11" d="M773.38,912.07a13.41,13.41,0,0,1,13.52,13.52v67.59h-9.12V963.55H714.92v29.62H705.8V925.59a13.41,13.41,0,0,1,13.52-13.52h54.07Zm4.39,42.35V925.59a4.47,4.47,0,0,0-4.39-4.39H719.32a4.47,4.47,0,0,0-4.39,4.39v28.84h62.85Z" transform="translate(-322.67 -225.11)"/><path class="cls-11" d="M871.72,912.07h9.12v81.1h-12.5l-59.48-70.74v70.74h-9.12v-81.1h12.5l59.48,70.74V912.07Z" transform="translate(-322.67 -225.11)"/><path class="cls-11" d="M972.75,912.07l-37.28,50.58v30.53h-9.12V962.65c-12.05-16.56-25-34-37.28-50.58h10.48L931,951.72c9.8-12.62,21.18-27,31.09-39.65h10.7Z" transform="translate(-322.67 -225.11)"/><path class="cls-12" d="M366.52,1023.84v25.08a9,9,0,0,1-9,9H322.67v-57.13h6.08v14.1h28.79A9,9,0,0,1,366.52,1023.84Zm-6.08,0a3,3,0,0,0-2.89-2.89H331.72a3,3,0,0,0-3,2.89v25.08a3,3,0,0,0,3,2.89h25.82a3,3,0,0,0,2.89-2.89v-25.08Z" transform="translate(-322.67 -225.11)"/><path class="cls-12" d="M415.93,1014.86v34.06a9,9,0,0,1-9.05,9H381.05a9,9,0,0,1-9-9v-34.06h6.08v34.06a3,3,0,0,0,2.89,2.89h25.82a3,3,0,0,0,3-2.89v-34.06h6.08Z" transform="translate(-322.67 -225.11)"/><path class="cls-12" d="M466,1024.43h-6.16v-0.59a3,3,0,0,0-2.89-2.89H431.13a3,3,0,0,0-2.89,2.89v6.6a3,3,0,0,0,2.89,2.89H457a9,9,0,0,1,9.05,9v6.6a9,9,0,0,1-9.05,9H431.13a9,9,0,0,1-9-9v-0.59h6.08v0.59a3,3,0,0,0,2.89,2.89H457a3,3,0,0,0,2.89-2.89v-6.6a3,3,0,0,0-2.89-2.89H431.13a9,9,0,0,1-9-9v-6.6a9,9,0,0,1,9-9H457a9,9,0,0,1,9.05,9v0.59Z" transform="translate(-322.67 -225.11)"/><path class="cls-12" d="M479.43,1000.76v6.08h-6.08v-6.08h6.08Zm-6.08,14.1h6.08v43h-6.08v-43Z" transform="translate(-322.67 -225.11)"/><path class="cls-12" d="M531.67,1023.84v34.06h-6.08v-34.06a3,3,0,0,0-2.89-2.89H496.87a3,3,0,0,0-3,2.89v34.06h-6.08v-43h34.87A9,9,0,0,1,531.67,1023.84Z" transform="translate(-322.67 -225.11)"/><path class="cls-12" d="M583.08,1023.84v15.58H545.32v9.5a3,3,0,0,0,2.89,2.89h34.87v6.08H548.21a9,9,0,0,1-9-9v-25.08a9,9,0,0,1,9-9H574A9,9,0,0,1,583.08,1023.84Zm-6.16,9.5v-9.5a2.9,2.9,0,0,0-2.89-2.89H548.21a3,3,0,0,0-2.89,2.89v9.5h31.61Z" transform="translate(-322.67 -225.11)"/><path class="cls-12" d="M634.2,1024.43H628v-0.59a3,3,0,0,0-2.89-2.89H599.33a3,3,0,0,0-2.89,2.89v6.6a3,3,0,0,0,2.89,2.89h25.82a9,9,0,0,1,9.05,9v6.6a9,9,0,0,1-9.05,9H599.33a9,9,0,0,1-9-9v-0.59h6.08v0.59a3,3,0,0,0,2.89,2.89h25.82a3,3,0,0,0,2.89-2.89v-6.6a3,3,0,0,0-2.89-2.89H599.33a9,9,0,0,1-9-9v-6.6a9,9,0,0,1,9-9h25.82a9,9,0,0,1,9.05,9v0.59Z" transform="translate(-322.67 -225.11)"/><path class="cls-12" d="M685.1,1024.43h-6.16v-0.59a3,3,0,0,0-2.89-2.89H650.22a3,3,0,0,0-2.89,2.89v6.6a3,3,0,0,0,2.89,2.89H676a9,9,0,0,1,9.05,9v6.6a9,9,0,0,1-9.05,9H650.22a9,9,0,0,1-9-9v-0.59h6.08v0.59a3,3,0,0,0,2.89,2.89H676a3,3,0,0,0,2.89-2.89v-6.6a3,3,0,0,0-2.89-2.89H650.22a9,9,0,0,1-9-9v-6.6a9,9,0,0,1,9-9H676a9,9,0,0,1,9.05,9v0.59Z" transform="translate(-322.67 -225.11)"/><path class="cls-12" d="M718.77,1020.94v28a3,3,0,0,0,2.89,2.89H737.4v6.08H721.67a8.92,8.92,0,0,1-9-9v-48.15h6.08v14.1H737.4v6.08H718.77Z" transform="translate(-322.67 -225.11)"/><path class="cls-12" d="M786.88,1023.84v34.06H752a9,9,0,0,1-9-9v-15.58h37.69v-9.5a2.9,2.9,0,0,0-2.89-2.89H743v-6.08h34.8A9,9,0,0,1,786.88,1023.84Zm-6.16,15.58H749.12v9.5a3,3,0,0,0,2.89,2.89h28.71v-12.39Z" transform="translate(-322.67 -225.11)"/><path class="cls-12" d="M828.51,1074.89H801.65v-6.16h26.86a3,3,0,0,0,2.89-2.89v-7.94H802.68a9,9,0,0,1-9-9v-25.08a9,9,0,0,1,9-9h25.82a8.92,8.92,0,0,1,9,9v42A8.93,8.93,0,0,1,828.51,1074.89Zm0-23.08a3,3,0,0,0,2.89-2.89v-25.08a3,3,0,0,0-2.89-2.89H802.68a3,3,0,0,0-2.89,2.89v25.08a3,3,0,0,0,2.89,2.89h25.82Z" transform="translate(-322.67 -225.11)"/><path class="cls-12" d="M851.28,1000.76v48.15a3,3,0,0,0,2.89,2.89h7.27v6.08h-7.27a9,9,0,0,1-9-9v-48.15h6.08Z" transform="translate(-322.67 -225.11)"/><path class="cls-12" d="M873.69,1000.76v6.08H867.6v-6.08h6.08Zm-6.08,14.1h6.08v43H867.6v-43Z" transform="translate(-322.67 -225.11)"/><path class="cls-12" d="M925.92,1023.84v34.06h-6.08v-34.06a3,3,0,0,0-2.89-2.89H891.12a3,3,0,0,0-3,2.89v34.06h-6.08v-43h34.87A9,9,0,0,1,925.92,1023.84Z" transform="translate(-322.67 -225.11)"/><path class="cls-12" d="M977.33,1023.84v15.58H939.57v9.5a3,3,0,0,0,2.89,2.89h34.87v6.08H942.46a9,9,0,0,1-9-9v-25.08a9,9,0,0,1,9-9h25.82A9,9,0,0,1,977.33,1023.84Zm-6.16,9.5v-9.5a2.9,2.9,0,0,0-2.89-2.89H942.46a3,3,0,0,0-2.89,2.89v9.5h31.61Z" transform="translate(-322.67 -225.11)"/></svg>